G04 #@! TF.GenerationSoftware,KiCad,Pcbnew,(5.1.2)-1*
G04 #@! TF.CreationDate,2019-06-17T23:04:49-04:00*
G04 #@! TF.ProjectId,REV Type-C V2,52455620-5479-4706-952d-432056322e6b,rev?*
G04 #@! TF.SameCoordinates,Original*
G04 #@! TF.FileFunction,Copper,L2,Bot*
G04 #@! TF.FilePolarity,Positive*
%FSLAX46Y46*%
G04 Gerber Fmt 4.6, Leading zero omitted, Abs format (unit mm)*
G04 Created by KiCad (PCBNEW (5.1.2)-1) date 2019-06-17 23:04:49*
%MOMM*%
%LPD*%
G04 APERTURE LIST*
%ADD10C,0.050000*%
%ADD11C,0.100000*%
%ADD12C,0.875000*%
%ADD13C,1.600000*%
%ADD14R,1.600000X1.600000*%
%ADD15C,3.000000*%
%ADD16O,1.700000X0.900000*%
%ADD17O,2.400000X0.900000*%
%ADD18C,0.700000*%
%ADD19O,2.400000X1.100000*%
%ADD20O,1.100000X2.400000*%
%ADD21C,1.100000*%
%ADD22R,1.100000X1.100000*%
%ADD23C,2.800000*%
%ADD24C,0.500000*%
%ADD25C,2.000000*%
%ADD26R,0.900000X0.800000*%
%ADD27C,0.800000*%
%ADD28C,5.000000*%
%ADD29C,0.250000*%
%ADD30C,0.600000*%
%ADD31C,0.400000*%
%ADD32C,0.500000*%
%ADD33C,0.200000*%
%ADD34C,0.254000*%
G04 APERTURE END LIST*
D10*
X55880000Y-22860000D02*
X95250000Y-22860000D01*
X57150000Y-44450000D02*
X95250000Y-44450000D01*
X53340000Y-44450000D02*
X57150000Y-44450000D01*
X53340000Y-22860000D02*
X55880000Y-22860000D01*
X53340000Y-25400000D02*
X53340000Y-22860000D01*
X55880000Y-25400000D02*
X53340000Y-25400000D01*
X55880000Y-39370000D02*
X55880000Y-25400000D01*
X53340000Y-39370000D02*
X55880000Y-39370000D01*
X53340000Y-44450000D02*
X53340000Y-39370000D01*
X102870000Y-44450000D02*
X95250000Y-44450000D01*
X102870000Y-22860000D02*
X102870000Y-44450000D01*
X95250000Y-22860000D02*
X102870000Y-22860000D01*
D11*
G36*
X59447691Y-33816053D02*
G01*
X59468926Y-33819203D01*
X59489750Y-33824419D01*
X59509962Y-33831651D01*
X59529368Y-33840830D01*
X59547781Y-33851866D01*
X59565024Y-33864654D01*
X59580930Y-33879070D01*
X59595346Y-33894976D01*
X59608134Y-33912219D01*
X59619170Y-33930632D01*
X59628349Y-33950038D01*
X59635581Y-33970250D01*
X59640797Y-33991074D01*
X59643947Y-34012309D01*
X59645000Y-34033750D01*
X59645000Y-34546250D01*
X59643947Y-34567691D01*
X59640797Y-34588926D01*
X59635581Y-34609750D01*
X59628349Y-34629962D01*
X59619170Y-34649368D01*
X59608134Y-34667781D01*
X59595346Y-34685024D01*
X59580930Y-34700930D01*
X59565024Y-34715346D01*
X59547781Y-34728134D01*
X59529368Y-34739170D01*
X59509962Y-34748349D01*
X59489750Y-34755581D01*
X59468926Y-34760797D01*
X59447691Y-34763947D01*
X59426250Y-34765000D01*
X58988750Y-34765000D01*
X58967309Y-34763947D01*
X58946074Y-34760797D01*
X58925250Y-34755581D01*
X58905038Y-34748349D01*
X58885632Y-34739170D01*
X58867219Y-34728134D01*
X58849976Y-34715346D01*
X58834070Y-34700930D01*
X58819654Y-34685024D01*
X58806866Y-34667781D01*
X58795830Y-34649368D01*
X58786651Y-34629962D01*
X58779419Y-34609750D01*
X58774203Y-34588926D01*
X58771053Y-34567691D01*
X58770000Y-34546250D01*
X58770000Y-34033750D01*
X58771053Y-34012309D01*
X58774203Y-33991074D01*
X58779419Y-33970250D01*
X58786651Y-33950038D01*
X58795830Y-33930632D01*
X58806866Y-33912219D01*
X58819654Y-33894976D01*
X58834070Y-33879070D01*
X58849976Y-33864654D01*
X58867219Y-33851866D01*
X58885632Y-33840830D01*
X58905038Y-33831651D01*
X58925250Y-33824419D01*
X58946074Y-33819203D01*
X58967309Y-33816053D01*
X58988750Y-33815000D01*
X59426250Y-33815000D01*
X59447691Y-33816053D01*
X59447691Y-33816053D01*
G37*
D12*
X59207500Y-34290000D03*
D11*
G36*
X57872691Y-33816053D02*
G01*
X57893926Y-33819203D01*
X57914750Y-33824419D01*
X57934962Y-33831651D01*
X57954368Y-33840830D01*
X57972781Y-33851866D01*
X57990024Y-33864654D01*
X58005930Y-33879070D01*
X58020346Y-33894976D01*
X58033134Y-33912219D01*
X58044170Y-33930632D01*
X58053349Y-33950038D01*
X58060581Y-33970250D01*
X58065797Y-33991074D01*
X58068947Y-34012309D01*
X58070000Y-34033750D01*
X58070000Y-34546250D01*
X58068947Y-34567691D01*
X58065797Y-34588926D01*
X58060581Y-34609750D01*
X58053349Y-34629962D01*
X58044170Y-34649368D01*
X58033134Y-34667781D01*
X58020346Y-34685024D01*
X58005930Y-34700930D01*
X57990024Y-34715346D01*
X57972781Y-34728134D01*
X57954368Y-34739170D01*
X57934962Y-34748349D01*
X57914750Y-34755581D01*
X57893926Y-34760797D01*
X57872691Y-34763947D01*
X57851250Y-34765000D01*
X57413750Y-34765000D01*
X57392309Y-34763947D01*
X57371074Y-34760797D01*
X57350250Y-34755581D01*
X57330038Y-34748349D01*
X57310632Y-34739170D01*
X57292219Y-34728134D01*
X57274976Y-34715346D01*
X57259070Y-34700930D01*
X57244654Y-34685024D01*
X57231866Y-34667781D01*
X57220830Y-34649368D01*
X57211651Y-34629962D01*
X57204419Y-34609750D01*
X57199203Y-34588926D01*
X57196053Y-34567691D01*
X57195000Y-34546250D01*
X57195000Y-34033750D01*
X57196053Y-34012309D01*
X57199203Y-33991074D01*
X57204419Y-33970250D01*
X57211651Y-33950038D01*
X57220830Y-33930632D01*
X57231866Y-33912219D01*
X57244654Y-33894976D01*
X57259070Y-33879070D01*
X57274976Y-33864654D01*
X57292219Y-33851866D01*
X57310632Y-33840830D01*
X57330038Y-33831651D01*
X57350250Y-33824419D01*
X57371074Y-33819203D01*
X57392309Y-33816053D01*
X57413750Y-33815000D01*
X57851250Y-33815000D01*
X57872691Y-33816053D01*
X57872691Y-33816053D01*
G37*
D12*
X57632500Y-34290000D03*
D11*
G36*
X64222691Y-30006053D02*
G01*
X64243926Y-30009203D01*
X64264750Y-30014419D01*
X64284962Y-30021651D01*
X64304368Y-30030830D01*
X64322781Y-30041866D01*
X64340024Y-30054654D01*
X64355930Y-30069070D01*
X64370346Y-30084976D01*
X64383134Y-30102219D01*
X64394170Y-30120632D01*
X64403349Y-30140038D01*
X64410581Y-30160250D01*
X64415797Y-30181074D01*
X64418947Y-30202309D01*
X64420000Y-30223750D01*
X64420000Y-30736250D01*
X64418947Y-30757691D01*
X64415797Y-30778926D01*
X64410581Y-30799750D01*
X64403349Y-30819962D01*
X64394170Y-30839368D01*
X64383134Y-30857781D01*
X64370346Y-30875024D01*
X64355930Y-30890930D01*
X64340024Y-30905346D01*
X64322781Y-30918134D01*
X64304368Y-30929170D01*
X64284962Y-30938349D01*
X64264750Y-30945581D01*
X64243926Y-30950797D01*
X64222691Y-30953947D01*
X64201250Y-30955000D01*
X63763750Y-30955000D01*
X63742309Y-30953947D01*
X63721074Y-30950797D01*
X63700250Y-30945581D01*
X63680038Y-30938349D01*
X63660632Y-30929170D01*
X63642219Y-30918134D01*
X63624976Y-30905346D01*
X63609070Y-30890930D01*
X63594654Y-30875024D01*
X63581866Y-30857781D01*
X63570830Y-30839368D01*
X63561651Y-30819962D01*
X63554419Y-30799750D01*
X63549203Y-30778926D01*
X63546053Y-30757691D01*
X63545000Y-30736250D01*
X63545000Y-30223750D01*
X63546053Y-30202309D01*
X63549203Y-30181074D01*
X63554419Y-30160250D01*
X63561651Y-30140038D01*
X63570830Y-30120632D01*
X63581866Y-30102219D01*
X63594654Y-30084976D01*
X63609070Y-30069070D01*
X63624976Y-30054654D01*
X63642219Y-30041866D01*
X63660632Y-30030830D01*
X63680038Y-30021651D01*
X63700250Y-30014419D01*
X63721074Y-30009203D01*
X63742309Y-30006053D01*
X63763750Y-30005000D01*
X64201250Y-30005000D01*
X64222691Y-30006053D01*
X64222691Y-30006053D01*
G37*
D12*
X63982500Y-30480000D03*
D11*
G36*
X65797691Y-30006053D02*
G01*
X65818926Y-30009203D01*
X65839750Y-30014419D01*
X65859962Y-30021651D01*
X65879368Y-30030830D01*
X65897781Y-30041866D01*
X65915024Y-30054654D01*
X65930930Y-30069070D01*
X65945346Y-30084976D01*
X65958134Y-30102219D01*
X65969170Y-30120632D01*
X65978349Y-30140038D01*
X65985581Y-30160250D01*
X65990797Y-30181074D01*
X65993947Y-30202309D01*
X65995000Y-30223750D01*
X65995000Y-30736250D01*
X65993947Y-30757691D01*
X65990797Y-30778926D01*
X65985581Y-30799750D01*
X65978349Y-30819962D01*
X65969170Y-30839368D01*
X65958134Y-30857781D01*
X65945346Y-30875024D01*
X65930930Y-30890930D01*
X65915024Y-30905346D01*
X65897781Y-30918134D01*
X65879368Y-30929170D01*
X65859962Y-30938349D01*
X65839750Y-30945581D01*
X65818926Y-30950797D01*
X65797691Y-30953947D01*
X65776250Y-30955000D01*
X65338750Y-30955000D01*
X65317309Y-30953947D01*
X65296074Y-30950797D01*
X65275250Y-30945581D01*
X65255038Y-30938349D01*
X65235632Y-30929170D01*
X65217219Y-30918134D01*
X65199976Y-30905346D01*
X65184070Y-30890930D01*
X65169654Y-30875024D01*
X65156866Y-30857781D01*
X65145830Y-30839368D01*
X65136651Y-30819962D01*
X65129419Y-30799750D01*
X65124203Y-30778926D01*
X65121053Y-30757691D01*
X65120000Y-30736250D01*
X65120000Y-30223750D01*
X65121053Y-30202309D01*
X65124203Y-30181074D01*
X65129419Y-30160250D01*
X65136651Y-30140038D01*
X65145830Y-30120632D01*
X65156866Y-30102219D01*
X65169654Y-30084976D01*
X65184070Y-30069070D01*
X65199976Y-30054654D01*
X65217219Y-30041866D01*
X65235632Y-30030830D01*
X65255038Y-30021651D01*
X65275250Y-30014419D01*
X65296074Y-30009203D01*
X65317309Y-30006053D01*
X65338750Y-30005000D01*
X65776250Y-30005000D01*
X65797691Y-30006053D01*
X65797691Y-30006053D01*
G37*
D12*
X65557500Y-30480000D03*
D13*
X90170000Y-28560000D03*
X90170000Y-31060000D03*
X90170000Y-33060000D03*
D14*
X90170000Y-35560000D03*
D15*
X92880000Y-38630000D03*
X92880000Y-25490000D03*
D16*
X57870000Y-36510000D03*
X57870000Y-27860000D03*
D17*
X61250000Y-36510000D03*
X61250000Y-27860000D03*
D18*
X60880000Y-32610000D03*
X60880000Y-35160000D03*
X60880000Y-34310000D03*
X60880000Y-33460000D03*
X60880000Y-29210000D03*
X60880000Y-30910000D03*
X60880000Y-31760000D03*
X60880000Y-30060000D03*
X62230000Y-35160000D03*
X62230000Y-34310000D03*
X62230000Y-33460000D03*
X62230000Y-32610000D03*
X62230000Y-31760000D03*
X62230000Y-30910000D03*
X62230000Y-30060000D03*
X62230000Y-29210000D03*
D19*
X84760000Y-39370000D03*
X81460000Y-39370000D03*
D20*
X86360000Y-37620000D03*
X79860000Y-37620000D03*
D21*
X84760000Y-38045000D03*
X83860000Y-35995000D03*
X83110000Y-38045000D03*
X82260000Y-35995000D03*
D22*
X81460000Y-38045000D03*
D11*
G36*
X72414504Y-35944807D02*
G01*
X72438773Y-35948407D01*
X72462571Y-35954368D01*
X72485671Y-35962633D01*
X72507849Y-35973123D01*
X72528893Y-35985736D01*
X72548598Y-36000350D01*
X72566777Y-36016826D01*
X74193123Y-37643172D01*
X74209599Y-37661351D01*
X74224213Y-37681056D01*
X74236826Y-37702100D01*
X74247316Y-37724278D01*
X74255581Y-37747378D01*
X74261542Y-37771176D01*
X74265142Y-37795445D01*
X74266346Y-37819949D01*
X74265142Y-37844453D01*
X74261542Y-37868722D01*
X74255581Y-37892520D01*
X74247316Y-37915620D01*
X74236826Y-37937798D01*
X74224213Y-37958842D01*
X74209599Y-37978547D01*
X74193123Y-37996726D01*
X72566777Y-39623072D01*
X72548598Y-39639548D01*
X72528893Y-39654162D01*
X72507849Y-39666775D01*
X72485671Y-39677265D01*
X72462571Y-39685530D01*
X72438773Y-39691491D01*
X72414504Y-39695091D01*
X72390000Y-39696295D01*
X72365496Y-39695091D01*
X72341227Y-39691491D01*
X72317429Y-39685530D01*
X72294329Y-39677265D01*
X72272151Y-39666775D01*
X72251107Y-39654162D01*
X72231402Y-39639548D01*
X72213223Y-39623072D01*
X70586877Y-37996726D01*
X70570401Y-37978547D01*
X70555787Y-37958842D01*
X70543174Y-37937798D01*
X70532684Y-37915620D01*
X70524419Y-37892520D01*
X70518458Y-37868722D01*
X70514858Y-37844453D01*
X70513654Y-37819949D01*
X70514858Y-37795445D01*
X70518458Y-37771176D01*
X70524419Y-37747378D01*
X70532684Y-37724278D01*
X70543174Y-37702100D01*
X70555787Y-37681056D01*
X70570401Y-37661351D01*
X70586877Y-37643172D01*
X72213223Y-36016826D01*
X72231402Y-36000350D01*
X72251107Y-35985736D01*
X72272151Y-35973123D01*
X72294329Y-35962633D01*
X72317429Y-35954368D01*
X72341227Y-35948407D01*
X72365496Y-35944807D01*
X72390000Y-35943603D01*
X72414504Y-35944807D01*
X72414504Y-35944807D01*
G37*
D23*
X72390000Y-37819949D03*
D24*
X72390000Y-36193603D03*
X73203173Y-37006776D03*
X74016346Y-37819949D03*
X71576827Y-37006776D03*
D25*
X72390000Y-37819949D03*
D24*
X73203173Y-38633122D03*
X70763654Y-37819949D03*
X71576827Y-38633122D03*
X72390000Y-39446295D03*
D26*
X94980000Y-31750000D03*
X92980000Y-30800000D03*
X92980000Y-32700000D03*
D27*
X82550000Y-33520000D03*
X85090000Y-33520000D03*
X87630000Y-33520000D03*
X69850000Y-41910000D03*
X67310000Y-30480000D03*
X68580000Y-30480000D03*
X67310000Y-31750000D03*
X73660000Y-24630000D03*
X72390000Y-24630000D03*
X74930000Y-24630000D03*
X73660000Y-43180000D03*
X68580000Y-43180000D03*
X67310000Y-41910000D03*
X76200000Y-43180000D03*
X78740000Y-43180000D03*
X81280000Y-43180000D03*
X83820000Y-43180000D03*
X86360000Y-43180000D03*
X88900000Y-41910000D03*
X89150000Y-39370000D03*
X82550000Y-30480000D03*
X85090000Y-30480000D03*
X87630000Y-30480000D03*
X64770000Y-35560000D03*
X64770000Y-36830000D03*
X64770000Y-38100000D03*
X67310000Y-35560000D03*
X76200000Y-27940000D03*
X77470000Y-29210000D03*
X73660000Y-41910000D03*
X74930000Y-35560000D03*
X70100000Y-35310000D03*
X68830000Y-36580000D03*
X72390000Y-34290000D03*
X63500000Y-33020000D03*
X63500000Y-32000000D03*
D28*
X72390000Y-37819949D02*
X70839949Y-39370000D01*
D29*
X70839949Y-39370000D02*
X69850000Y-39370000D01*
D30*
X78740000Y-30480000D02*
X78740000Y-33020000D01*
X78740000Y-33020000D02*
X80010000Y-34290000D01*
X76200000Y-27940000D02*
X78740000Y-30480000D01*
X83820000Y-34290000D02*
X86580000Y-34290000D01*
D29*
X60875861Y-34205861D02*
X60960000Y-34290000D01*
D30*
X87850000Y-35560000D02*
X90170000Y-35560000D01*
X86580000Y-34290000D02*
X87850000Y-35560000D01*
D31*
X81460000Y-37245000D02*
X81460000Y-38045000D01*
D29*
X81280000Y-37065000D02*
X81460000Y-37245000D01*
D30*
X81280000Y-34290000D02*
X83820000Y-34290000D01*
X80010000Y-34290000D02*
X81280000Y-34290000D01*
D31*
X81280000Y-34290000D02*
X81280000Y-37065000D01*
D32*
X68830000Y-36580000D02*
X70100000Y-35310000D01*
X70100000Y-35310000D02*
X71120000Y-34290000D01*
X71120000Y-34290000D02*
X72390000Y-34290000D01*
X73930000Y-34290000D02*
X75700000Y-36060000D01*
X72390000Y-34290000D02*
X73930000Y-34290000D01*
X76200000Y-36560000D02*
X75700000Y-36060000D01*
X73660000Y-41910000D02*
X76200000Y-39370000D01*
X76200000Y-39370000D02*
X76200000Y-36560000D01*
D29*
X92980000Y-32700000D02*
X90530000Y-32700000D01*
X92720000Y-31060000D02*
X92980000Y-30800000D01*
X90170000Y-31060000D02*
X92720000Y-31060000D01*
X62080998Y-31760000D02*
X62230000Y-31760000D01*
X61230998Y-32610000D02*
X62080998Y-31760000D01*
X60880000Y-32610000D02*
X61230998Y-32610000D01*
D33*
X63100001Y-32620001D02*
X63500000Y-33020000D01*
X63100001Y-32517999D02*
X63100001Y-32620001D01*
X62342002Y-31760000D02*
X63100001Y-32517999D01*
X62230000Y-31760000D02*
X62342002Y-31760000D01*
D29*
X60037500Y-33460000D02*
X59207500Y-34290000D01*
X60880000Y-33460000D02*
X60037500Y-33460000D01*
X63552500Y-30910000D02*
X63982500Y-30480000D01*
X62230000Y-30910000D02*
X63552500Y-30910000D01*
D34*
G36*
X102464001Y-44044000D02*
G01*
X53746000Y-44044000D01*
X53746000Y-41714889D01*
X53899000Y-41714889D01*
X53899000Y-42105111D01*
X53975129Y-42487836D01*
X54124461Y-42848355D01*
X54341257Y-43172814D01*
X54617186Y-43448743D01*
X54941645Y-43665539D01*
X55302164Y-43814871D01*
X55684889Y-43891000D01*
X56075111Y-43891000D01*
X56457836Y-43814871D01*
X56818355Y-43665539D01*
X57142814Y-43448743D01*
X57418743Y-43172814D01*
X57635539Y-42848355D01*
X57784871Y-42487836D01*
X57861000Y-42105111D01*
X57861000Y-41714889D01*
X57784871Y-41332164D01*
X57635539Y-40971645D01*
X57418743Y-40647186D01*
X57142814Y-40371257D01*
X56818355Y-40154461D01*
X56457836Y-40005129D01*
X56075111Y-39929000D01*
X55684889Y-39929000D01*
X55302164Y-40005129D01*
X54941645Y-40154461D01*
X54617186Y-40371257D01*
X54341257Y-40647186D01*
X54124461Y-40971645D01*
X53975129Y-41332164D01*
X53899000Y-41714889D01*
X53746000Y-41714889D01*
X53746000Y-39776000D01*
X55860059Y-39776000D01*
X55880000Y-39777964D01*
X55899940Y-39776000D01*
X55899941Y-39776000D01*
X55959590Y-39770125D01*
X56036121Y-39746910D01*
X56106653Y-39709210D01*
X56168474Y-39658474D01*
X56219210Y-39596653D01*
X56256910Y-39526121D01*
X56280125Y-39449590D01*
X56287964Y-39370000D01*
X56286000Y-39350059D01*
X56286000Y-37819949D01*
X69772029Y-37819949D01*
X69784290Y-37944430D01*
X69820599Y-38064129D01*
X69879563Y-38174443D01*
X69958916Y-38271134D01*
X70748982Y-39056856D01*
X70795447Y-39056856D01*
X70890145Y-39198179D01*
X71013577Y-39321287D01*
X71153093Y-39414244D01*
X71153093Y-39460967D01*
X71938815Y-40251033D01*
X72035506Y-40330386D01*
X72145820Y-40389350D01*
X72265519Y-40425659D01*
X72390000Y-40437920D01*
X72514481Y-40425659D01*
X72634180Y-40389350D01*
X72744494Y-40330386D01*
X72841185Y-40251033D01*
X73626907Y-39460967D01*
X73626907Y-39414502D01*
X73768230Y-39319804D01*
X73891338Y-39196372D01*
X73984295Y-39056856D01*
X74031018Y-39056856D01*
X74821084Y-38271134D01*
X74900437Y-38174443D01*
X74959401Y-38064129D01*
X74995710Y-37944430D01*
X75007971Y-37819949D01*
X74995710Y-37695468D01*
X74959401Y-37575769D01*
X74900437Y-37465455D01*
X74821084Y-37368764D01*
X74031018Y-36583042D01*
X73984553Y-36583042D01*
X73889855Y-36441719D01*
X73766423Y-36318611D01*
X73626907Y-36225654D01*
X73626907Y-36178931D01*
X72841185Y-35388865D01*
X72744494Y-35309512D01*
X72634180Y-35250548D01*
X72514481Y-35214239D01*
X72390000Y-35201978D01*
X72265519Y-35214239D01*
X72145820Y-35250548D01*
X72035506Y-35309512D01*
X71938815Y-35388865D01*
X71153093Y-36178931D01*
X71153093Y-36225396D01*
X71011770Y-36320094D01*
X70888662Y-36443526D01*
X70795705Y-36583042D01*
X70748982Y-36583042D01*
X69958916Y-37368764D01*
X69879563Y-37465455D01*
X69820599Y-37575769D01*
X69784290Y-37695468D01*
X69772029Y-37819949D01*
X56286000Y-37819949D01*
X56286000Y-36804001D01*
X56425592Y-36804001D01*
X56497298Y-37007197D01*
X56612986Y-37187408D01*
X56761609Y-37341587D01*
X56937455Y-37463809D01*
X57133767Y-37549376D01*
X57343000Y-37595000D01*
X57743000Y-37595000D01*
X57743000Y-36637000D01*
X57997000Y-36637000D01*
X57997000Y-37595000D01*
X58397000Y-37595000D01*
X58606233Y-37549376D01*
X58802545Y-37463809D01*
X58978391Y-37341587D01*
X59127014Y-37187408D01*
X59242702Y-37007197D01*
X59314408Y-36804001D01*
X59455592Y-36804001D01*
X59527298Y-37007197D01*
X59642986Y-37187408D01*
X59791609Y-37341587D01*
X59967455Y-37463809D01*
X60163767Y-37549376D01*
X60373000Y-37595000D01*
X61123000Y-37595000D01*
X61123000Y-36637000D01*
X61377000Y-36637000D01*
X61377000Y-37595000D01*
X62127000Y-37595000D01*
X62336233Y-37549376D01*
X62532545Y-37463809D01*
X62708391Y-37341587D01*
X62857014Y-37187408D01*
X62972702Y-37007197D01*
X63044408Y-36804001D01*
X62917502Y-36637000D01*
X61377000Y-36637000D01*
X61123000Y-36637000D01*
X59582498Y-36637000D01*
X59455592Y-36804001D01*
X59314408Y-36804001D01*
X59187502Y-36637000D01*
X57997000Y-36637000D01*
X57743000Y-36637000D01*
X56552498Y-36637000D01*
X56425592Y-36804001D01*
X56286000Y-36804001D01*
X56286000Y-36503078D01*
X68049000Y-36503078D01*
X68049000Y-36656922D01*
X68079013Y-36807809D01*
X68137887Y-36949942D01*
X68223358Y-37077859D01*
X68332141Y-37186642D01*
X68460058Y-37272113D01*
X68602191Y-37330987D01*
X68753078Y-37361000D01*
X68906922Y-37361000D01*
X69057809Y-37330987D01*
X69199942Y-37272113D01*
X69327859Y-37186642D01*
X69436642Y-37077859D01*
X69522113Y-36949942D01*
X69580987Y-36807809D01*
X69602447Y-36699921D01*
X70219922Y-36082447D01*
X70327809Y-36060987D01*
X70469942Y-36002113D01*
X70597859Y-35916642D01*
X70706642Y-35807859D01*
X70792113Y-35679942D01*
X70850987Y-35537809D01*
X70872447Y-35429921D01*
X71381369Y-34921000D01*
X71928595Y-34921000D01*
X72020058Y-34982113D01*
X72162191Y-35040987D01*
X72313078Y-35071000D01*
X72466922Y-35071000D01*
X72617809Y-35040987D01*
X72759942Y-34982113D01*
X72851405Y-34921000D01*
X73668632Y-34921000D01*
X74162556Y-35414925D01*
X74149000Y-35483078D01*
X74149000Y-35636922D01*
X74179013Y-35787809D01*
X74237887Y-35929942D01*
X74323358Y-36057859D01*
X74432141Y-36166642D01*
X74560058Y-36252113D01*
X74702191Y-36310987D01*
X74853078Y-36341000D01*
X75006922Y-36341000D01*
X75075075Y-36327444D01*
X75275734Y-36528103D01*
X75275739Y-36528107D01*
X75569001Y-36821370D01*
X75569000Y-39108632D01*
X73540079Y-41137553D01*
X73432191Y-41159013D01*
X73290058Y-41217887D01*
X73162141Y-41303358D01*
X73053358Y-41412141D01*
X72967887Y-41540058D01*
X72909013Y-41682191D01*
X72879000Y-41833078D01*
X72879000Y-41986922D01*
X72909013Y-42137809D01*
X72967887Y-42279942D01*
X73053358Y-42407859D01*
X73162141Y-42516642D01*
X73290058Y-42602113D01*
X73432191Y-42660987D01*
X73583078Y-42691000D01*
X73736922Y-42691000D01*
X73887809Y-42660987D01*
X74029942Y-42602113D01*
X74157859Y-42516642D01*
X74266642Y-42407859D01*
X74352113Y-42279942D01*
X74410987Y-42137809D01*
X74432447Y-42029921D01*
X74747479Y-41714889D01*
X97079000Y-41714889D01*
X97079000Y-42105111D01*
X97155129Y-42487836D01*
X97304461Y-42848355D01*
X97521257Y-43172814D01*
X97797186Y-43448743D01*
X98121645Y-43665539D01*
X98482164Y-43814871D01*
X98864889Y-43891000D01*
X99255111Y-43891000D01*
X99637836Y-43814871D01*
X99998355Y-43665539D01*
X100322814Y-43448743D01*
X100598743Y-43172814D01*
X100815539Y-42848355D01*
X100964871Y-42487836D01*
X101041000Y-42105111D01*
X101041000Y-41714889D01*
X100964871Y-41332164D01*
X100815539Y-40971645D01*
X100598743Y-40647186D01*
X100322814Y-40371257D01*
X99998355Y-40154461D01*
X99637836Y-40005129D01*
X99255111Y-39929000D01*
X98864889Y-39929000D01*
X98482164Y-40005129D01*
X98121645Y-40154461D01*
X97797186Y-40371257D01*
X97521257Y-40647186D01*
X97304461Y-40971645D01*
X97155129Y-41332164D01*
X97079000Y-41714889D01*
X74747479Y-41714889D01*
X76624264Y-39838104D01*
X76648343Y-39818343D01*
X76727196Y-39722261D01*
X76749921Y-39679744D01*
X79666197Y-39679744D01*
X79666601Y-39706147D01*
X79754150Y-39922754D01*
X79882275Y-40118119D01*
X80046052Y-40284734D01*
X80239187Y-40416196D01*
X80454258Y-40507454D01*
X80683000Y-40555000D01*
X81333000Y-40555000D01*
X81333000Y-39497000D01*
X81587000Y-39497000D01*
X81587000Y-40555000D01*
X82237000Y-40555000D01*
X82465742Y-40507454D01*
X82680813Y-40416196D01*
X82873948Y-40284734D01*
X83037725Y-40118119D01*
X83110000Y-40007914D01*
X83182275Y-40118119D01*
X83346052Y-40284734D01*
X83539187Y-40416196D01*
X83754258Y-40507454D01*
X83983000Y-40555000D01*
X84633000Y-40555000D01*
X84633000Y-39497000D01*
X84887000Y-39497000D01*
X84887000Y-40555000D01*
X85537000Y-40555000D01*
X85765742Y-40507454D01*
X85980813Y-40416196D01*
X86173948Y-40284734D01*
X86334251Y-40121653D01*
X91567952Y-40121653D01*
X91723962Y-40437214D01*
X92098745Y-40628020D01*
X92503551Y-40742044D01*
X92922824Y-40774902D01*
X93340451Y-40725334D01*
X93740383Y-40595243D01*
X94036038Y-40437214D01*
X94192048Y-40121653D01*
X92880000Y-38809605D01*
X91567952Y-40121653D01*
X86334251Y-40121653D01*
X86337725Y-40118119D01*
X86465850Y-39922754D01*
X86553399Y-39706147D01*
X86553803Y-39679744D01*
X86428361Y-39497000D01*
X84887000Y-39497000D01*
X84633000Y-39497000D01*
X81587000Y-39497000D01*
X81333000Y-39497000D01*
X79791639Y-39497000D01*
X79666197Y-39679744D01*
X76749921Y-39679744D01*
X76785789Y-39612642D01*
X76821870Y-39493698D01*
X76831000Y-39400998D01*
X76831000Y-39400989D01*
X76834052Y-39370001D01*
X76831000Y-39339013D01*
X76831000Y-36590990D01*
X76834052Y-36560000D01*
X76831000Y-36529009D01*
X76831000Y-36529002D01*
X76821870Y-36436302D01*
X76785789Y-36317358D01*
X76727196Y-36207739D01*
X76714448Y-36192206D01*
X76668103Y-36135734D01*
X76668101Y-36135732D01*
X76648343Y-36111657D01*
X76624268Y-36091899D01*
X76168107Y-35635739D01*
X76168103Y-35635734D01*
X74398105Y-33865737D01*
X74378343Y-33841657D01*
X74282261Y-33762804D01*
X74172642Y-33704211D01*
X74053698Y-33668130D01*
X73960998Y-33659000D01*
X73960990Y-33659000D01*
X73930000Y-33655948D01*
X73899010Y-33659000D01*
X72851405Y-33659000D01*
X72759942Y-33597887D01*
X72617809Y-33539013D01*
X72466922Y-33509000D01*
X72313078Y-33509000D01*
X72162191Y-33539013D01*
X72020058Y-33597887D01*
X71928595Y-33659000D01*
X71150990Y-33659000D01*
X71120000Y-33655948D01*
X71089009Y-33659000D01*
X71089002Y-33659000D01*
X70996302Y-33668130D01*
X70877358Y-33704211D01*
X70767739Y-33762804D01*
X70706767Y-33812843D01*
X70671657Y-33841657D01*
X70651899Y-33865732D01*
X69980079Y-34537553D01*
X69872191Y-34559013D01*
X69730058Y-34617887D01*
X69602141Y-34703358D01*
X69493358Y-34812141D01*
X69407887Y-34940058D01*
X69349013Y-35082191D01*
X69327553Y-35190078D01*
X68710079Y-35807553D01*
X68602191Y-35829013D01*
X68460058Y-35887887D01*
X68332141Y-35973358D01*
X68223358Y-36082141D01*
X68137887Y-36210058D01*
X68079013Y-36352191D01*
X68049000Y-36503078D01*
X56286000Y-36503078D01*
X56286000Y-36215999D01*
X56425592Y-36215999D01*
X56552498Y-36383000D01*
X57743000Y-36383000D01*
X57743000Y-35425000D01*
X57997000Y-35425000D01*
X57997000Y-36383000D01*
X59187502Y-36383000D01*
X59314408Y-36215999D01*
X59242702Y-36012803D01*
X59127014Y-35832592D01*
X58978391Y-35678413D01*
X58802545Y-35556191D01*
X58606233Y-35470624D01*
X58397000Y-35425000D01*
X57997000Y-35425000D01*
X57743000Y-35425000D01*
X57343000Y-35425000D01*
X57133767Y-35470624D01*
X56937455Y-35556191D01*
X56761609Y-35678413D01*
X56612986Y-35832592D01*
X56497298Y-36012803D01*
X56425592Y-36215999D01*
X56286000Y-36215999D01*
X56286000Y-34765000D01*
X56556928Y-34765000D01*
X56569188Y-34889482D01*
X56605498Y-35009180D01*
X56664463Y-35119494D01*
X56743815Y-35216185D01*
X56840506Y-35295537D01*
X56950820Y-35354502D01*
X57070518Y-35390812D01*
X57195000Y-35403072D01*
X57346750Y-35400000D01*
X57505500Y-35241250D01*
X57505500Y-34417000D01*
X56718750Y-34417000D01*
X56560000Y-34575750D01*
X56556928Y-34765000D01*
X56286000Y-34765000D01*
X56286000Y-33815000D01*
X56556928Y-33815000D01*
X56560000Y-34004250D01*
X56718750Y-34163000D01*
X57505500Y-34163000D01*
X57505500Y-33338750D01*
X57759500Y-33338750D01*
X57759500Y-34163000D01*
X57779500Y-34163000D01*
X57779500Y-34417000D01*
X57759500Y-34417000D01*
X57759500Y-35241250D01*
X57918250Y-35400000D01*
X58070000Y-35403072D01*
X58194482Y-35390812D01*
X58314180Y-35354502D01*
X58424494Y-35295537D01*
X58521185Y-35216185D01*
X58600537Y-35119494D01*
X58644134Y-35037930D01*
X58654523Y-35046456D01*
X58758530Y-35102049D01*
X58871385Y-35136284D01*
X58988750Y-35147843D01*
X59426250Y-35147843D01*
X59543615Y-35136284D01*
X59656470Y-35102049D01*
X59760477Y-35046456D01*
X59851640Y-34971640D01*
X59926456Y-34880477D01*
X59936774Y-34861173D01*
X59935411Y-34864384D01*
X59895890Y-35054344D01*
X59894187Y-35248364D01*
X59930368Y-35438989D01*
X59976178Y-35552389D01*
X59967455Y-35556191D01*
X59791609Y-35678413D01*
X59642986Y-35832592D01*
X59527298Y-36012803D01*
X59455592Y-36215999D01*
X59582498Y-36383000D01*
X61123000Y-36383000D01*
X61123000Y-36116463D01*
X61158989Y-36109632D01*
X61338893Y-36036957D01*
X61354216Y-36028767D01*
X61370912Y-35830520D01*
X61377000Y-35836608D01*
X61377000Y-36383000D01*
X62917502Y-36383000D01*
X63044408Y-36215999D01*
X62972702Y-36012803D01*
X62857014Y-35832592D01*
X62708391Y-35678413D01*
X62532545Y-35556191D01*
X62380170Y-35489775D01*
X62230000Y-35339605D01*
X62215858Y-35353748D01*
X62036253Y-35174143D01*
X62050395Y-35160000D01*
X62036253Y-35145858D01*
X62143913Y-35038197D01*
X62158003Y-35041000D01*
X62301997Y-35041000D01*
X62316087Y-35038197D01*
X62423748Y-35145858D01*
X62409605Y-35160000D01*
X62900517Y-35650912D01*
X63098767Y-35634216D01*
X63174589Y-35455616D01*
X63214110Y-35265656D01*
X63215813Y-35071636D01*
X63179632Y-34881011D01*
X63106957Y-34701107D01*
X63098767Y-34685784D01*
X62900520Y-34669088D01*
X63019239Y-34550369D01*
X62942728Y-34473858D01*
X62961000Y-34381997D01*
X62961000Y-34238003D01*
X62932908Y-34096775D01*
X62877804Y-33963742D01*
X62825190Y-33885000D01*
X62877804Y-33806258D01*
X62932908Y-33673225D01*
X62952123Y-33576624D01*
X63002141Y-33626642D01*
X63130058Y-33712113D01*
X63272191Y-33770987D01*
X63423078Y-33801000D01*
X63576922Y-33801000D01*
X63727809Y-33770987D01*
X63869942Y-33712113D01*
X63997859Y-33626642D01*
X64106642Y-33517859D01*
X64192113Y-33389942D01*
X64250987Y-33247809D01*
X64281000Y-33096922D01*
X64281000Y-32943078D01*
X64250987Y-32792191D01*
X64192113Y-32650058D01*
X64106642Y-32522141D01*
X64094501Y-32510000D01*
X64106642Y-32497859D01*
X64192113Y-32369942D01*
X64250987Y-32227809D01*
X64281000Y-32076922D01*
X64281000Y-31923078D01*
X64250987Y-31772191D01*
X64192113Y-31630058D01*
X64106642Y-31502141D01*
X63997859Y-31393358D01*
X63914775Y-31337843D01*
X64201250Y-31337843D01*
X64318615Y-31326284D01*
X64431470Y-31292049D01*
X64535477Y-31236456D01*
X64545866Y-31227930D01*
X64589463Y-31309494D01*
X64668815Y-31406185D01*
X64765506Y-31485537D01*
X64875820Y-31544502D01*
X64995518Y-31580812D01*
X65120000Y-31593072D01*
X65271750Y-31590000D01*
X65430500Y-31431250D01*
X65430500Y-30607000D01*
X65684500Y-30607000D01*
X65684500Y-31431250D01*
X65843250Y-31590000D01*
X65995000Y-31593072D01*
X66119482Y-31580812D01*
X66239180Y-31544502D01*
X66349494Y-31485537D01*
X66446185Y-31406185D01*
X66525537Y-31309494D01*
X66584502Y-31199180D01*
X66620812Y-31079482D01*
X66633072Y-30955000D01*
X66630000Y-30765750D01*
X66471250Y-30607000D01*
X65684500Y-30607000D01*
X65430500Y-30607000D01*
X65410500Y-30607000D01*
X65410500Y-30353000D01*
X65430500Y-30353000D01*
X65430500Y-29528750D01*
X65684500Y-29528750D01*
X65684500Y-30353000D01*
X66471250Y-30353000D01*
X66630000Y-30194250D01*
X66633072Y-30005000D01*
X66620812Y-29880518D01*
X66584502Y-29760820D01*
X66525537Y-29650506D01*
X66446185Y-29553815D01*
X66349494Y-29474463D01*
X66239180Y-29415498D01*
X66119482Y-29379188D01*
X65995000Y-29366928D01*
X65843250Y-29370000D01*
X65684500Y-29528750D01*
X65430500Y-29528750D01*
X65271750Y-29370000D01*
X65120000Y-29366928D01*
X64995518Y-29379188D01*
X64875820Y-29415498D01*
X64765506Y-29474463D01*
X64668815Y-29553815D01*
X64589463Y-29650506D01*
X64545866Y-29732070D01*
X64535477Y-29723544D01*
X64431470Y-29667951D01*
X64318615Y-29633716D01*
X64201250Y-29622157D01*
X63763750Y-29622157D01*
X63646385Y-29633716D01*
X63533530Y-29667951D01*
X63429523Y-29723544D01*
X63338360Y-29798360D01*
X63263544Y-29889523D01*
X63207951Y-29993530D01*
X63173716Y-30106385D01*
X63162157Y-30223750D01*
X63162157Y-30404000D01*
X62878739Y-30404000D01*
X62932908Y-30273225D01*
X62961000Y-30131997D01*
X62961000Y-29988003D01*
X62942728Y-29896142D01*
X63019239Y-29819631D01*
X62900520Y-29700912D01*
X63098767Y-29684216D01*
X63174589Y-29505616D01*
X63214110Y-29315656D01*
X63215813Y-29121636D01*
X63179632Y-28931011D01*
X63106957Y-28751107D01*
X63098767Y-28735784D01*
X62900517Y-28719088D01*
X62409605Y-29210000D01*
X62423748Y-29224143D01*
X62316087Y-29331803D01*
X62301997Y-29329000D01*
X62158003Y-29329000D01*
X62143913Y-29331803D01*
X62036253Y-29224143D01*
X62050395Y-29210000D01*
X62036253Y-29195858D01*
X62215858Y-29016253D01*
X62230000Y-29030395D01*
X62380170Y-28880225D01*
X62532545Y-28813809D01*
X62708391Y-28691587D01*
X62857014Y-28537408D01*
X62972702Y-28357197D01*
X63044408Y-28154001D01*
X62917502Y-27987000D01*
X61377000Y-27987000D01*
X61377000Y-28533392D01*
X61370912Y-28539480D01*
X61354216Y-28341233D01*
X61175616Y-28265411D01*
X61123000Y-28254464D01*
X61123000Y-27987000D01*
X59582498Y-27987000D01*
X59455592Y-28154001D01*
X59527298Y-28357197D01*
X59642986Y-28537408D01*
X59791609Y-28691587D01*
X59967455Y-28813809D01*
X59976445Y-28817728D01*
X59935411Y-28914384D01*
X59895890Y-29104344D01*
X59894187Y-29298364D01*
X59930368Y-29488989D01*
X60003043Y-29668893D01*
X60011233Y-29684216D01*
X60209480Y-29700912D01*
X60090761Y-29819631D01*
X60167272Y-29896142D01*
X60149000Y-29988003D01*
X60149000Y-30131997D01*
X60177092Y-30273225D01*
X60232196Y-30406258D01*
X60284810Y-30485000D01*
X60232196Y-30563742D01*
X60177092Y-30696775D01*
X60149000Y-30838003D01*
X60149000Y-30981997D01*
X60177092Y-31123225D01*
X60232196Y-31256258D01*
X60284810Y-31335000D01*
X60232196Y-31413742D01*
X60177092Y-31546775D01*
X60149000Y-31688003D01*
X60149000Y-31831997D01*
X60177092Y-31973225D01*
X60232196Y-32106258D01*
X60284810Y-32185000D01*
X60232196Y-32263742D01*
X60177092Y-32396775D01*
X60149000Y-32538003D01*
X60149000Y-32681997D01*
X60177092Y-32823225D01*
X60231261Y-32954000D01*
X60062345Y-32954000D01*
X60037499Y-32951553D01*
X60012653Y-32954000D01*
X60012646Y-32954000D01*
X59948194Y-32960348D01*
X59938306Y-32961322D01*
X59927718Y-32964534D01*
X59842925Y-32990255D01*
X59755021Y-33037241D01*
X59677973Y-33100473D01*
X59662128Y-33119780D01*
X59349751Y-33432157D01*
X58988750Y-33432157D01*
X58871385Y-33443716D01*
X58758530Y-33477951D01*
X58654523Y-33533544D01*
X58644134Y-33542070D01*
X58600537Y-33460506D01*
X58521185Y-33363815D01*
X58424494Y-33284463D01*
X58314180Y-33225498D01*
X58194482Y-33189188D01*
X58070000Y-33176928D01*
X57918250Y-33180000D01*
X57759500Y-33338750D01*
X57505500Y-33338750D01*
X57346750Y-33180000D01*
X57195000Y-33176928D01*
X57070518Y-33189188D01*
X56950820Y-33225498D01*
X56840506Y-33284463D01*
X56743815Y-33363815D01*
X56664463Y-33460506D01*
X56605498Y-33570820D01*
X56569188Y-33690518D01*
X56556928Y-33815000D01*
X56286000Y-33815000D01*
X56286000Y-28154001D01*
X56425592Y-28154001D01*
X56497298Y-28357197D01*
X56612986Y-28537408D01*
X56761609Y-28691587D01*
X56937455Y-28813809D01*
X57133767Y-28899376D01*
X57343000Y-28945000D01*
X57743000Y-28945000D01*
X57743000Y-27987000D01*
X57997000Y-27987000D01*
X57997000Y-28945000D01*
X58397000Y-28945000D01*
X58606233Y-28899376D01*
X58802545Y-28813809D01*
X58978391Y-28691587D01*
X59127014Y-28537408D01*
X59242702Y-28357197D01*
X59314408Y-28154001D01*
X59187502Y-27987000D01*
X57997000Y-27987000D01*
X57743000Y-27987000D01*
X56552498Y-27987000D01*
X56425592Y-28154001D01*
X56286000Y-28154001D01*
X56286000Y-27863078D01*
X75419000Y-27863078D01*
X75419000Y-28016922D01*
X75449013Y-28167809D01*
X75507887Y-28309942D01*
X75593358Y-28437859D01*
X75702141Y-28546642D01*
X75830058Y-28632113D01*
X75972191Y-28690987D01*
X75991811Y-28694890D01*
X76715110Y-29418189D01*
X76719013Y-29437809D01*
X76777887Y-29579942D01*
X76863358Y-29707859D01*
X76972141Y-29816642D01*
X77100058Y-29902113D01*
X77242191Y-29960987D01*
X77261810Y-29964889D01*
X78059000Y-30762080D01*
X78059001Y-32986537D01*
X78055705Y-33020000D01*
X78068854Y-33153498D01*
X78090695Y-33225498D01*
X78107795Y-33281868D01*
X78171031Y-33400174D01*
X78256131Y-33503870D01*
X78282122Y-33525200D01*
X79504804Y-34747884D01*
X79526130Y-34773870D01*
X79629826Y-34858970D01*
X79748132Y-34922206D01*
X79801719Y-34938461D01*
X79798395Y-34940682D01*
X79675682Y-35063395D01*
X79579268Y-35207690D01*
X79512856Y-35368022D01*
X79479000Y-35538229D01*
X79479000Y-35711771D01*
X79503479Y-35834836D01*
X79307246Y-35914150D01*
X79111881Y-36042275D01*
X78945266Y-36206052D01*
X78813804Y-36399187D01*
X78722546Y-36614258D01*
X78675000Y-36843000D01*
X78675000Y-37493000D01*
X79733000Y-37493000D01*
X79733000Y-37473000D01*
X79987000Y-37473000D01*
X79987000Y-37493000D01*
X80007000Y-37493000D01*
X80007000Y-37747000D01*
X79987000Y-37747000D01*
X79987000Y-38515341D01*
X79882275Y-38621881D01*
X79754150Y-38817246D01*
X79733000Y-38869574D01*
X79733000Y-37747000D01*
X78675000Y-37747000D01*
X78675000Y-38397000D01*
X78722546Y-38625742D01*
X78813804Y-38840813D01*
X78945266Y-39033948D01*
X79111881Y-39197725D01*
X79307246Y-39325850D01*
X79523853Y-39413399D01*
X79550256Y-39413803D01*
X79733000Y-39288361D01*
X79733000Y-39157575D01*
X79791639Y-39243000D01*
X79987000Y-39243000D01*
X79987000Y-39288361D01*
X80169744Y-39413803D01*
X80196147Y-39413399D01*
X80412754Y-39325850D01*
X80539084Y-39243000D01*
X81333000Y-39243000D01*
X81333000Y-39223000D01*
X81587000Y-39223000D01*
X81587000Y-39243000D01*
X84633000Y-39243000D01*
X84633000Y-39226670D01*
X84840421Y-39233016D01*
X84887000Y-39225223D01*
X84887000Y-39243000D01*
X85680916Y-39243000D01*
X85807246Y-39325850D01*
X86023853Y-39413399D01*
X86050256Y-39413803D01*
X86233000Y-39288361D01*
X86233000Y-39243000D01*
X86428361Y-39243000D01*
X86487000Y-39157575D01*
X86487000Y-39288361D01*
X86669744Y-39413803D01*
X86696147Y-39413399D01*
X86912754Y-39325850D01*
X87108119Y-39197725D01*
X87274734Y-39033948D01*
X87406196Y-38840813D01*
X87477476Y-38672824D01*
X90735098Y-38672824D01*
X90784666Y-39090451D01*
X90914757Y-39490383D01*
X91072786Y-39786038D01*
X91388347Y-39942048D01*
X92700395Y-38630000D01*
X93059605Y-38630000D01*
X94371653Y-39942048D01*
X94687214Y-39786038D01*
X94878020Y-39411255D01*
X94992044Y-39006449D01*
X95024902Y-38587176D01*
X94975334Y-38169549D01*
X94845243Y-37769617D01*
X94687214Y-37473962D01*
X94371653Y-37317952D01*
X93059605Y-38630000D01*
X92700395Y-38630000D01*
X91388347Y-37317952D01*
X91072786Y-37473962D01*
X90881980Y-37848745D01*
X90767956Y-38253551D01*
X90735098Y-38672824D01*
X87477476Y-38672824D01*
X87497454Y-38625742D01*
X87545000Y-38397000D01*
X87545000Y-37747000D01*
X86487000Y-37747000D01*
X86487000Y-38869574D01*
X86465850Y-38817246D01*
X86337725Y-38621881D01*
X86233000Y-38515341D01*
X86233000Y-37747000D01*
X85911616Y-37747000D01*
X85909500Y-37734354D01*
X85826808Y-37516066D01*
X85814479Y-37493000D01*
X86233000Y-37493000D01*
X86233000Y-37473000D01*
X86487000Y-37473000D01*
X86487000Y-37493000D01*
X87545000Y-37493000D01*
X87545000Y-37138347D01*
X91567952Y-37138347D01*
X92880000Y-38450395D01*
X94192048Y-37138347D01*
X94036038Y-36822786D01*
X93661255Y-36631980D01*
X93256449Y-36517956D01*
X92837176Y-36485098D01*
X92419549Y-36534666D01*
X92019617Y-36664757D01*
X91723962Y-36822786D01*
X91567952Y-37138347D01*
X87545000Y-37138347D01*
X87545000Y-36843000D01*
X87497454Y-36614258D01*
X87406196Y-36399187D01*
X87274734Y-36206052D01*
X87108119Y-36042275D01*
X86912754Y-35914150D01*
X86716521Y-35834836D01*
X86741000Y-35711771D01*
X86741000Y-35538229D01*
X86710174Y-35383252D01*
X87344804Y-36017884D01*
X87366130Y-36043870D01*
X87469826Y-36128970D01*
X87588132Y-36192206D01*
X87646983Y-36210058D01*
X87716500Y-36231146D01*
X87849999Y-36244295D01*
X87883452Y-36241000D01*
X88987157Y-36241000D01*
X88987157Y-36360000D01*
X88994513Y-36434689D01*
X89016299Y-36506508D01*
X89051678Y-36572696D01*
X89099289Y-36630711D01*
X89157304Y-36678322D01*
X89223492Y-36713701D01*
X89295311Y-36735487D01*
X89370000Y-36742843D01*
X90970000Y-36742843D01*
X91044689Y-36735487D01*
X91116508Y-36713701D01*
X91182696Y-36678322D01*
X91240711Y-36630711D01*
X91288322Y-36572696D01*
X91323701Y-36506508D01*
X91345487Y-36434689D01*
X91352843Y-36360000D01*
X91352843Y-34760000D01*
X91345487Y-34685311D01*
X91323701Y-34613492D01*
X91288322Y-34547304D01*
X91240711Y-34489289D01*
X91182696Y-34441678D01*
X91116508Y-34406299D01*
X91044689Y-34384513D01*
X90970000Y-34377157D01*
X89370000Y-34377157D01*
X89295311Y-34384513D01*
X89223492Y-34406299D01*
X89157304Y-34441678D01*
X89099289Y-34489289D01*
X89051678Y-34547304D01*
X89016299Y-34613492D01*
X88994513Y-34685311D01*
X88987157Y-34760000D01*
X88987157Y-34879000D01*
X88132080Y-34879000D01*
X87085204Y-33832126D01*
X87063870Y-33806130D01*
X86960174Y-33721030D01*
X86841868Y-33657794D01*
X86713499Y-33618854D01*
X86613453Y-33609000D01*
X86580000Y-33605705D01*
X86546547Y-33609000D01*
X80292080Y-33609000D01*
X79421000Y-32737922D01*
X79421000Y-30943682D01*
X88989000Y-30943682D01*
X88989000Y-31176318D01*
X89034386Y-31404485D01*
X89123412Y-31619413D01*
X89252658Y-31812843D01*
X89417157Y-31977342D01*
X89540863Y-32060000D01*
X89417157Y-32142658D01*
X89252658Y-32307157D01*
X89123412Y-32500587D01*
X89034386Y-32715515D01*
X88989000Y-32943682D01*
X88989000Y-33176318D01*
X89034386Y-33404485D01*
X89123412Y-33619413D01*
X89252658Y-33812843D01*
X89417157Y-33977342D01*
X89610587Y-34106588D01*
X89825515Y-34195614D01*
X90053682Y-34241000D01*
X90286318Y-34241000D01*
X90514485Y-34195614D01*
X90729413Y-34106588D01*
X90922843Y-33977342D01*
X91087342Y-33812843D01*
X91216588Y-33619413D01*
X91305614Y-33404485D01*
X91345096Y-33206000D01*
X92164011Y-33206000D01*
X92176299Y-33246508D01*
X92211678Y-33312696D01*
X92259289Y-33370711D01*
X92317304Y-33418322D01*
X92383492Y-33453701D01*
X92455311Y-33475487D01*
X92530000Y-33482843D01*
X93430000Y-33482843D01*
X93504689Y-33475487D01*
X93576508Y-33453701D01*
X93642696Y-33418322D01*
X93700711Y-33370711D01*
X93748322Y-33312696D01*
X93783701Y-33246508D01*
X93805487Y-33174689D01*
X93812843Y-33100000D01*
X93812843Y-32300000D01*
X93805487Y-32225311D01*
X93783701Y-32153492D01*
X93781835Y-32150000D01*
X93891928Y-32150000D01*
X93904188Y-32274482D01*
X93940498Y-32394180D01*
X93999463Y-32504494D01*
X94078815Y-32601185D01*
X94175506Y-32680537D01*
X94285820Y-32739502D01*
X94405518Y-32775812D01*
X94530000Y-32788072D01*
X94694250Y-32785000D01*
X94853000Y-32626250D01*
X94853000Y-31877000D01*
X95107000Y-31877000D01*
X95107000Y-32626250D01*
X95265750Y-32785000D01*
X95430000Y-32788072D01*
X95554482Y-32775812D01*
X95674180Y-32739502D01*
X95784494Y-32680537D01*
X95881185Y-32601185D01*
X95960537Y-32504494D01*
X96019502Y-32394180D01*
X96055812Y-32274482D01*
X96068072Y-32150000D01*
X96065000Y-32035750D01*
X95906250Y-31877000D01*
X95107000Y-31877000D01*
X94853000Y-31877000D01*
X94053750Y-31877000D01*
X93895000Y-32035750D01*
X93891928Y-32150000D01*
X93781835Y-32150000D01*
X93748322Y-32087304D01*
X93700711Y-32029289D01*
X93642696Y-31981678D01*
X93576508Y-31946299D01*
X93504689Y-31924513D01*
X93430000Y-31917157D01*
X92530000Y-31917157D01*
X92455311Y-31924513D01*
X92383492Y-31946299D01*
X92317304Y-31981678D01*
X92259289Y-32029289D01*
X92211678Y-32087304D01*
X92176299Y-32153492D01*
X92164011Y-32194000D01*
X90974185Y-32194000D01*
X90922843Y-32142658D01*
X90799137Y-32060000D01*
X90922843Y-31977342D01*
X91087342Y-31812843D01*
X91216588Y-31619413D01*
X91238712Y-31566000D01*
X92424036Y-31566000D01*
X92455311Y-31575487D01*
X92530000Y-31582843D01*
X93430000Y-31582843D01*
X93504689Y-31575487D01*
X93576508Y-31553701D01*
X93642696Y-31518322D01*
X93700711Y-31470711D01*
X93748322Y-31412696D01*
X93781834Y-31350000D01*
X93891928Y-31350000D01*
X93895000Y-31464250D01*
X94053750Y-31623000D01*
X94853000Y-31623000D01*
X94853000Y-30873750D01*
X95107000Y-30873750D01*
X95107000Y-31623000D01*
X95906250Y-31623000D01*
X96065000Y-31464250D01*
X96068072Y-31350000D01*
X96055812Y-31225518D01*
X96019502Y-31105820D01*
X95960537Y-30995506D01*
X95881185Y-30898815D01*
X95784494Y-30819463D01*
X95674180Y-30760498D01*
X95554482Y-30724188D01*
X95430000Y-30711928D01*
X95265750Y-30715000D01*
X95107000Y-30873750D01*
X94853000Y-30873750D01*
X94694250Y-30715000D01*
X94530000Y-30711928D01*
X94405518Y-30724188D01*
X94285820Y-30760498D01*
X94175506Y-30819463D01*
X94078815Y-30898815D01*
X93999463Y-30995506D01*
X93940498Y-31105820D01*
X93904188Y-31225518D01*
X93891928Y-31350000D01*
X93781834Y-31350000D01*
X93783701Y-31346508D01*
X93805487Y-31274689D01*
X93812843Y-31200000D01*
X93812843Y-30400000D01*
X93805487Y-30325311D01*
X93783701Y-30253492D01*
X93748322Y-30187304D01*
X93700711Y-30129289D01*
X93642696Y-30081678D01*
X93576508Y-30046299D01*
X93504689Y-30024513D01*
X93430000Y-30017157D01*
X92530000Y-30017157D01*
X92455311Y-30024513D01*
X92383492Y-30046299D01*
X92317304Y-30081678D01*
X92259289Y-30129289D01*
X92211678Y-30187304D01*
X92176299Y-30253492D01*
X92154513Y-30325311D01*
X92147157Y-30400000D01*
X92147157Y-30554000D01*
X91238712Y-30554000D01*
X91216588Y-30500587D01*
X91087342Y-30307157D01*
X90922843Y-30142658D01*
X90729413Y-30013412D01*
X90561671Y-29943931D01*
X90786292Y-29863603D01*
X90911514Y-29796671D01*
X90983097Y-29552702D01*
X90170000Y-28739605D01*
X89356903Y-29552702D01*
X89428486Y-29796671D01*
X89683996Y-29917571D01*
X89782411Y-29942240D01*
X89610587Y-30013412D01*
X89417157Y-30142658D01*
X89252658Y-30307157D01*
X89123412Y-30500587D01*
X89034386Y-30715515D01*
X88989000Y-30943682D01*
X79421000Y-30943682D01*
X79421000Y-30513450D01*
X79424295Y-30479999D01*
X79421000Y-30446547D01*
X79411146Y-30346501D01*
X79372206Y-30218132D01*
X79308970Y-30099826D01*
X79265042Y-30046299D01*
X79245194Y-30022114D01*
X79245191Y-30022111D01*
X79223869Y-29996130D01*
X79197889Y-29974809D01*
X78224889Y-29001810D01*
X78220987Y-28982191D01*
X78162113Y-28840058D01*
X78076642Y-28712141D01*
X77995013Y-28630512D01*
X88729783Y-28630512D01*
X88771213Y-28910130D01*
X88866397Y-29176292D01*
X88933329Y-29301514D01*
X89177298Y-29373097D01*
X89990395Y-28560000D01*
X90349605Y-28560000D01*
X91162702Y-29373097D01*
X91406671Y-29301514D01*
X91527571Y-29046004D01*
X91596300Y-28771816D01*
X91610217Y-28489488D01*
X91568787Y-28209870D01*
X91473603Y-27943708D01*
X91406671Y-27818486D01*
X91162702Y-27746903D01*
X90349605Y-28560000D01*
X89990395Y-28560000D01*
X89177298Y-27746903D01*
X88933329Y-27818486D01*
X88812429Y-28073996D01*
X88743700Y-28348184D01*
X88729783Y-28630512D01*
X77995013Y-28630512D01*
X77967859Y-28603358D01*
X77839942Y-28517887D01*
X77697809Y-28459013D01*
X77678189Y-28455110D01*
X76954890Y-27731811D01*
X76950987Y-27712191D01*
X76892113Y-27570058D01*
X76890269Y-27567298D01*
X89356903Y-27567298D01*
X90170000Y-28380395D01*
X90983097Y-27567298D01*
X90911514Y-27323329D01*
X90656004Y-27202429D01*
X90381816Y-27133700D01*
X90099488Y-27119783D01*
X89819870Y-27161213D01*
X89553708Y-27256397D01*
X89428486Y-27323329D01*
X89356903Y-27567298D01*
X76890269Y-27567298D01*
X76806642Y-27442141D01*
X76697859Y-27333358D01*
X76569942Y-27247887D01*
X76427809Y-27189013D01*
X76276922Y-27159000D01*
X76123078Y-27159000D01*
X75972191Y-27189013D01*
X75830058Y-27247887D01*
X75702141Y-27333358D01*
X75593358Y-27442141D01*
X75507887Y-27570058D01*
X75449013Y-27712191D01*
X75419000Y-27863078D01*
X56286000Y-27863078D01*
X56286000Y-27565999D01*
X56425592Y-27565999D01*
X56552498Y-27733000D01*
X57743000Y-27733000D01*
X57743000Y-26775000D01*
X57997000Y-26775000D01*
X57997000Y-27733000D01*
X59187502Y-27733000D01*
X59314408Y-27565999D01*
X59455592Y-27565999D01*
X59582498Y-27733000D01*
X61123000Y-27733000D01*
X61123000Y-26775000D01*
X61377000Y-26775000D01*
X61377000Y-27733000D01*
X62917502Y-27733000D01*
X63044408Y-27565999D01*
X62972702Y-27362803D01*
X62857014Y-27182592D01*
X62708391Y-27028413D01*
X62532545Y-26906191D01*
X62336233Y-26820624D01*
X62127000Y-26775000D01*
X61377000Y-26775000D01*
X61123000Y-26775000D01*
X60373000Y-26775000D01*
X60163767Y-26820624D01*
X59967455Y-26906191D01*
X59791609Y-27028413D01*
X59642986Y-27182592D01*
X59527298Y-27362803D01*
X59455592Y-27565999D01*
X59314408Y-27565999D01*
X59242702Y-27362803D01*
X59127014Y-27182592D01*
X58978391Y-27028413D01*
X58802545Y-26906191D01*
X58606233Y-26820624D01*
X58397000Y-26775000D01*
X57997000Y-26775000D01*
X57743000Y-26775000D01*
X57343000Y-26775000D01*
X57133767Y-26820624D01*
X56937455Y-26906191D01*
X56761609Y-27028413D01*
X56612986Y-27182592D01*
X56497298Y-27362803D01*
X56425592Y-27565999D01*
X56286000Y-27565999D01*
X56286000Y-25419940D01*
X56287964Y-25400000D01*
X56280125Y-25320410D01*
X56256910Y-25243879D01*
X56236070Y-25204889D01*
X76759000Y-25204889D01*
X76759000Y-25595111D01*
X76835129Y-25977836D01*
X76984461Y-26338355D01*
X77201257Y-26662814D01*
X77477186Y-26938743D01*
X77801645Y-27155539D01*
X78162164Y-27304871D01*
X78544889Y-27381000D01*
X78935111Y-27381000D01*
X79317836Y-27304871D01*
X79678355Y-27155539D01*
X79938594Y-26981653D01*
X91567952Y-26981653D01*
X91723962Y-27297214D01*
X92098745Y-27488020D01*
X92503551Y-27602044D01*
X92922824Y-27634902D01*
X93340451Y-27585334D01*
X93740383Y-27455243D01*
X94036038Y-27297214D01*
X94192048Y-26981653D01*
X92880000Y-25669605D01*
X91567952Y-26981653D01*
X79938594Y-26981653D01*
X80002814Y-26938743D01*
X80278743Y-26662814D01*
X80495539Y-26338355D01*
X80644871Y-25977836D01*
X80721000Y-25595111D01*
X80721000Y-25532824D01*
X90735098Y-25532824D01*
X90784666Y-25950451D01*
X90914757Y-26350383D01*
X91072786Y-26646038D01*
X91388347Y-26802048D01*
X92700395Y-25490000D01*
X93059605Y-25490000D01*
X94371653Y-26802048D01*
X94687214Y-26646038D01*
X94878020Y-26271255D01*
X94992044Y-25866449D01*
X95024902Y-25447176D01*
X94975334Y-25029549D01*
X94845243Y-24629617D01*
X94687214Y-24333962D01*
X94371653Y-24177952D01*
X93059605Y-25490000D01*
X92700395Y-25490000D01*
X91388347Y-24177952D01*
X91072786Y-24333962D01*
X90881980Y-24708745D01*
X90767956Y-25113551D01*
X90735098Y-25532824D01*
X80721000Y-25532824D01*
X80721000Y-25204889D01*
X80644871Y-24822164D01*
X80495539Y-24461645D01*
X80278743Y-24137186D01*
X80139904Y-23998347D01*
X91567952Y-23998347D01*
X92880000Y-25310395D01*
X94192048Y-23998347D01*
X94036038Y-23682786D01*
X93661255Y-23491980D01*
X93256449Y-23377956D01*
X92837176Y-23345098D01*
X92419549Y-23394666D01*
X92019617Y-23524757D01*
X91723962Y-23682786D01*
X91567952Y-23998347D01*
X80139904Y-23998347D01*
X80002814Y-23861257D01*
X79678355Y-23644461D01*
X79317836Y-23495129D01*
X78935111Y-23419000D01*
X78544889Y-23419000D01*
X78162164Y-23495129D01*
X77801645Y-23644461D01*
X77477186Y-23861257D01*
X77201257Y-24137186D01*
X76984461Y-24461645D01*
X76835129Y-24822164D01*
X76759000Y-25204889D01*
X56236070Y-25204889D01*
X56219210Y-25173347D01*
X56168474Y-25111526D01*
X56106653Y-25060790D01*
X56036121Y-25023090D01*
X55959590Y-24999875D01*
X55899941Y-24994000D01*
X55880000Y-24992036D01*
X55860060Y-24994000D01*
X53746000Y-24994000D01*
X53746000Y-23266000D01*
X102464000Y-23266000D01*
X102464001Y-44044000D01*
X102464001Y-44044000D01*
G37*
X102464001Y-44044000D02*
X53746000Y-44044000D01*
X53746000Y-41714889D01*
X53899000Y-41714889D01*
X53899000Y-42105111D01*
X53975129Y-42487836D01*
X54124461Y-42848355D01*
X54341257Y-43172814D01*
X54617186Y-43448743D01*
X54941645Y-43665539D01*
X55302164Y-43814871D01*
X55684889Y-43891000D01*
X56075111Y-43891000D01*
X56457836Y-43814871D01*
X56818355Y-43665539D01*
X57142814Y-43448743D01*
X57418743Y-43172814D01*
X57635539Y-42848355D01*
X57784871Y-42487836D01*
X57861000Y-42105111D01*
X57861000Y-41714889D01*
X57784871Y-41332164D01*
X57635539Y-40971645D01*
X57418743Y-40647186D01*
X57142814Y-40371257D01*
X56818355Y-40154461D01*
X56457836Y-40005129D01*
X56075111Y-39929000D01*
X55684889Y-39929000D01*
X55302164Y-40005129D01*
X54941645Y-40154461D01*
X54617186Y-40371257D01*
X54341257Y-40647186D01*
X54124461Y-40971645D01*
X53975129Y-41332164D01*
X53899000Y-41714889D01*
X53746000Y-41714889D01*
X53746000Y-39776000D01*
X55860059Y-39776000D01*
X55880000Y-39777964D01*
X55899940Y-39776000D01*
X55899941Y-39776000D01*
X55959590Y-39770125D01*
X56036121Y-39746910D01*
X56106653Y-39709210D01*
X56168474Y-39658474D01*
X56219210Y-39596653D01*
X56256910Y-39526121D01*
X56280125Y-39449590D01*
X56287964Y-39370000D01*
X56286000Y-39350059D01*
X56286000Y-37819949D01*
X69772029Y-37819949D01*
X69784290Y-37944430D01*
X69820599Y-38064129D01*
X69879563Y-38174443D01*
X69958916Y-38271134D01*
X70748982Y-39056856D01*
X70795447Y-39056856D01*
X70890145Y-39198179D01*
X71013577Y-39321287D01*
X71153093Y-39414244D01*
X71153093Y-39460967D01*
X71938815Y-40251033D01*
X72035506Y-40330386D01*
X72145820Y-40389350D01*
X72265519Y-40425659D01*
X72390000Y-40437920D01*
X72514481Y-40425659D01*
X72634180Y-40389350D01*
X72744494Y-40330386D01*
X72841185Y-40251033D01*
X73626907Y-39460967D01*
X73626907Y-39414502D01*
X73768230Y-39319804D01*
X73891338Y-39196372D01*
X73984295Y-39056856D01*
X74031018Y-39056856D01*
X74821084Y-38271134D01*
X74900437Y-38174443D01*
X74959401Y-38064129D01*
X74995710Y-37944430D01*
X75007971Y-37819949D01*
X74995710Y-37695468D01*
X74959401Y-37575769D01*
X74900437Y-37465455D01*
X74821084Y-37368764D01*
X74031018Y-36583042D01*
X73984553Y-36583042D01*
X73889855Y-36441719D01*
X73766423Y-36318611D01*
X73626907Y-36225654D01*
X73626907Y-36178931D01*
X72841185Y-35388865D01*
X72744494Y-35309512D01*
X72634180Y-35250548D01*
X72514481Y-35214239D01*
X72390000Y-35201978D01*
X72265519Y-35214239D01*
X72145820Y-35250548D01*
X72035506Y-35309512D01*
X71938815Y-35388865D01*
X71153093Y-36178931D01*
X71153093Y-36225396D01*
X71011770Y-36320094D01*
X70888662Y-36443526D01*
X70795705Y-36583042D01*
X70748982Y-36583042D01*
X69958916Y-37368764D01*
X69879563Y-37465455D01*
X69820599Y-37575769D01*
X69784290Y-37695468D01*
X69772029Y-37819949D01*
X56286000Y-37819949D01*
X56286000Y-36804001D01*
X56425592Y-36804001D01*
X56497298Y-37007197D01*
X56612986Y-37187408D01*
X56761609Y-37341587D01*
X56937455Y-37463809D01*
X57133767Y-37549376D01*
X57343000Y-37595000D01*
X57743000Y-37595000D01*
X57743000Y-36637000D01*
X57997000Y-36637000D01*
X57997000Y-37595000D01*
X58397000Y-37595000D01*
X58606233Y-37549376D01*
X58802545Y-37463809D01*
X58978391Y-37341587D01*
X59127014Y-37187408D01*
X59242702Y-37007197D01*
X59314408Y-36804001D01*
X59455592Y-36804001D01*
X59527298Y-37007197D01*
X59642986Y-37187408D01*
X59791609Y-37341587D01*
X59967455Y-37463809D01*
X60163767Y-37549376D01*
X60373000Y-37595000D01*
X61123000Y-37595000D01*
X61123000Y-36637000D01*
X61377000Y-36637000D01*
X61377000Y-37595000D01*
X62127000Y-37595000D01*
X62336233Y-37549376D01*
X62532545Y-37463809D01*
X62708391Y-37341587D01*
X62857014Y-37187408D01*
X62972702Y-37007197D01*
X63044408Y-36804001D01*
X62917502Y-36637000D01*
X61377000Y-36637000D01*
X61123000Y-36637000D01*
X59582498Y-36637000D01*
X59455592Y-36804001D01*
X59314408Y-36804001D01*
X59187502Y-36637000D01*
X57997000Y-36637000D01*
X57743000Y-36637000D01*
X56552498Y-36637000D01*
X56425592Y-36804001D01*
X56286000Y-36804001D01*
X56286000Y-36503078D01*
X68049000Y-36503078D01*
X68049000Y-36656922D01*
X68079013Y-36807809D01*
X68137887Y-36949942D01*
X68223358Y-37077859D01*
X68332141Y-37186642D01*
X68460058Y-37272113D01*
X68602191Y-37330987D01*
X68753078Y-37361000D01*
X68906922Y-37361000D01*
X69057809Y-37330987D01*
X69199942Y-37272113D01*
X69327859Y-37186642D01*
X69436642Y-37077859D01*
X69522113Y-36949942D01*
X69580987Y-36807809D01*
X69602447Y-36699921D01*
X70219922Y-36082447D01*
X70327809Y-36060987D01*
X70469942Y-36002113D01*
X70597859Y-35916642D01*
X70706642Y-35807859D01*
X70792113Y-35679942D01*
X70850987Y-35537809D01*
X70872447Y-35429921D01*
X71381369Y-34921000D01*
X71928595Y-34921000D01*
X72020058Y-34982113D01*
X72162191Y-35040987D01*
X72313078Y-35071000D01*
X72466922Y-35071000D01*
X72617809Y-35040987D01*
X72759942Y-34982113D01*
X72851405Y-34921000D01*
X73668632Y-34921000D01*
X74162556Y-35414925D01*
X74149000Y-35483078D01*
X74149000Y-35636922D01*
X74179013Y-35787809D01*
X74237887Y-35929942D01*
X74323358Y-36057859D01*
X74432141Y-36166642D01*
X74560058Y-36252113D01*
X74702191Y-36310987D01*
X74853078Y-36341000D01*
X75006922Y-36341000D01*
X75075075Y-36327444D01*
X75275734Y-36528103D01*
X75275739Y-36528107D01*
X75569001Y-36821370D01*
X75569000Y-39108632D01*
X73540079Y-41137553D01*
X73432191Y-41159013D01*
X73290058Y-41217887D01*
X73162141Y-41303358D01*
X73053358Y-41412141D01*
X72967887Y-41540058D01*
X72909013Y-41682191D01*
X72879000Y-41833078D01*
X72879000Y-41986922D01*
X72909013Y-42137809D01*
X72967887Y-42279942D01*
X73053358Y-42407859D01*
X73162141Y-42516642D01*
X73290058Y-42602113D01*
X73432191Y-42660987D01*
X73583078Y-42691000D01*
X73736922Y-42691000D01*
X73887809Y-42660987D01*
X74029942Y-42602113D01*
X74157859Y-42516642D01*
X74266642Y-42407859D01*
X74352113Y-42279942D01*
X74410987Y-42137809D01*
X74432447Y-42029921D01*
X74747479Y-41714889D01*
X97079000Y-41714889D01*
X97079000Y-42105111D01*
X97155129Y-42487836D01*
X97304461Y-42848355D01*
X97521257Y-43172814D01*
X97797186Y-43448743D01*
X98121645Y-43665539D01*
X98482164Y-43814871D01*
X98864889Y-43891000D01*
X99255111Y-43891000D01*
X99637836Y-43814871D01*
X99998355Y-43665539D01*
X100322814Y-43448743D01*
X100598743Y-43172814D01*
X100815539Y-42848355D01*
X100964871Y-42487836D01*
X101041000Y-42105111D01*
X101041000Y-41714889D01*
X100964871Y-41332164D01*
X100815539Y-40971645D01*
X100598743Y-40647186D01*
X100322814Y-40371257D01*
X99998355Y-40154461D01*
X99637836Y-40005129D01*
X99255111Y-39929000D01*
X98864889Y-39929000D01*
X98482164Y-40005129D01*
X98121645Y-40154461D01*
X97797186Y-40371257D01*
X97521257Y-40647186D01*
X97304461Y-40971645D01*
X97155129Y-41332164D01*
X97079000Y-41714889D01*
X74747479Y-41714889D01*
X76624264Y-39838104D01*
X76648343Y-39818343D01*
X76727196Y-39722261D01*
X76749921Y-39679744D01*
X79666197Y-39679744D01*
X79666601Y-39706147D01*
X79754150Y-39922754D01*
X79882275Y-40118119D01*
X80046052Y-40284734D01*
X80239187Y-40416196D01*
X80454258Y-40507454D01*
X80683000Y-40555000D01*
X81333000Y-40555000D01*
X81333000Y-39497000D01*
X81587000Y-39497000D01*
X81587000Y-40555000D01*
X82237000Y-40555000D01*
X82465742Y-40507454D01*
X82680813Y-40416196D01*
X82873948Y-40284734D01*
X83037725Y-40118119D01*
X83110000Y-40007914D01*
X83182275Y-40118119D01*
X83346052Y-40284734D01*
X83539187Y-40416196D01*
X83754258Y-40507454D01*
X83983000Y-40555000D01*
X84633000Y-40555000D01*
X84633000Y-39497000D01*
X84887000Y-39497000D01*
X84887000Y-40555000D01*
X85537000Y-40555000D01*
X85765742Y-40507454D01*
X85980813Y-40416196D01*
X86173948Y-40284734D01*
X86334251Y-40121653D01*
X91567952Y-40121653D01*
X91723962Y-40437214D01*
X92098745Y-40628020D01*
X92503551Y-40742044D01*
X92922824Y-40774902D01*
X93340451Y-40725334D01*
X93740383Y-40595243D01*
X94036038Y-40437214D01*
X94192048Y-40121653D01*
X92880000Y-38809605D01*
X91567952Y-40121653D01*
X86334251Y-40121653D01*
X86337725Y-40118119D01*
X86465850Y-39922754D01*
X86553399Y-39706147D01*
X86553803Y-39679744D01*
X86428361Y-39497000D01*
X84887000Y-39497000D01*
X84633000Y-39497000D01*
X81587000Y-39497000D01*
X81333000Y-39497000D01*
X79791639Y-39497000D01*
X79666197Y-39679744D01*
X76749921Y-39679744D01*
X76785789Y-39612642D01*
X76821870Y-39493698D01*
X76831000Y-39400998D01*
X76831000Y-39400989D01*
X76834052Y-39370001D01*
X76831000Y-39339013D01*
X76831000Y-36590990D01*
X76834052Y-36560000D01*
X76831000Y-36529009D01*
X76831000Y-36529002D01*
X76821870Y-36436302D01*
X76785789Y-36317358D01*
X76727196Y-36207739D01*
X76714448Y-36192206D01*
X76668103Y-36135734D01*
X76668101Y-36135732D01*
X76648343Y-36111657D01*
X76624268Y-36091899D01*
X76168107Y-35635739D01*
X76168103Y-35635734D01*
X74398105Y-33865737D01*
X74378343Y-33841657D01*
X74282261Y-33762804D01*
X74172642Y-33704211D01*
X74053698Y-33668130D01*
X73960998Y-33659000D01*
X73960990Y-33659000D01*
X73930000Y-33655948D01*
X73899010Y-33659000D01*
X72851405Y-33659000D01*
X72759942Y-33597887D01*
X72617809Y-33539013D01*
X72466922Y-33509000D01*
X72313078Y-33509000D01*
X72162191Y-33539013D01*
X72020058Y-33597887D01*
X71928595Y-33659000D01*
X71150990Y-33659000D01*
X71120000Y-33655948D01*
X71089009Y-33659000D01*
X71089002Y-33659000D01*
X70996302Y-33668130D01*
X70877358Y-33704211D01*
X70767739Y-33762804D01*
X70706767Y-33812843D01*
X70671657Y-33841657D01*
X70651899Y-33865732D01*
X69980079Y-34537553D01*
X69872191Y-34559013D01*
X69730058Y-34617887D01*
X69602141Y-34703358D01*
X69493358Y-34812141D01*
X69407887Y-34940058D01*
X69349013Y-35082191D01*
X69327553Y-35190078D01*
X68710079Y-35807553D01*
X68602191Y-35829013D01*
X68460058Y-35887887D01*
X68332141Y-35973358D01*
X68223358Y-36082141D01*
X68137887Y-36210058D01*
X68079013Y-36352191D01*
X68049000Y-36503078D01*
X56286000Y-36503078D01*
X56286000Y-36215999D01*
X56425592Y-36215999D01*
X56552498Y-36383000D01*
X57743000Y-36383000D01*
X57743000Y-35425000D01*
X57997000Y-35425000D01*
X57997000Y-36383000D01*
X59187502Y-36383000D01*
X59314408Y-36215999D01*
X59242702Y-36012803D01*
X59127014Y-35832592D01*
X58978391Y-35678413D01*
X58802545Y-35556191D01*
X58606233Y-35470624D01*
X58397000Y-35425000D01*
X57997000Y-35425000D01*
X57743000Y-35425000D01*
X57343000Y-35425000D01*
X57133767Y-35470624D01*
X56937455Y-35556191D01*
X56761609Y-35678413D01*
X56612986Y-35832592D01*
X56497298Y-36012803D01*
X56425592Y-36215999D01*
X56286000Y-36215999D01*
X56286000Y-34765000D01*
X56556928Y-34765000D01*
X56569188Y-34889482D01*
X56605498Y-35009180D01*
X56664463Y-35119494D01*
X56743815Y-35216185D01*
X56840506Y-35295537D01*
X56950820Y-35354502D01*
X57070518Y-35390812D01*
X57195000Y-35403072D01*
X57346750Y-35400000D01*
X57505500Y-35241250D01*
X57505500Y-34417000D01*
X56718750Y-34417000D01*
X56560000Y-34575750D01*
X56556928Y-34765000D01*
X56286000Y-34765000D01*
X56286000Y-33815000D01*
X56556928Y-33815000D01*
X56560000Y-34004250D01*
X56718750Y-34163000D01*
X57505500Y-34163000D01*
X57505500Y-33338750D01*
X57759500Y-33338750D01*
X57759500Y-34163000D01*
X57779500Y-34163000D01*
X57779500Y-34417000D01*
X57759500Y-34417000D01*
X57759500Y-35241250D01*
X57918250Y-35400000D01*
X58070000Y-35403072D01*
X58194482Y-35390812D01*
X58314180Y-35354502D01*
X58424494Y-35295537D01*
X58521185Y-35216185D01*
X58600537Y-35119494D01*
X58644134Y-35037930D01*
X58654523Y-35046456D01*
X58758530Y-35102049D01*
X58871385Y-35136284D01*
X58988750Y-35147843D01*
X59426250Y-35147843D01*
X59543615Y-35136284D01*
X59656470Y-35102049D01*
X59760477Y-35046456D01*
X59851640Y-34971640D01*
X59926456Y-34880477D01*
X59936774Y-34861173D01*
X59935411Y-34864384D01*
X59895890Y-35054344D01*
X59894187Y-35248364D01*
X59930368Y-35438989D01*
X59976178Y-35552389D01*
X59967455Y-35556191D01*
X59791609Y-35678413D01*
X59642986Y-35832592D01*
X59527298Y-36012803D01*
X59455592Y-36215999D01*
X59582498Y-36383000D01*
X61123000Y-36383000D01*
X61123000Y-36116463D01*
X61158989Y-36109632D01*
X61338893Y-36036957D01*
X61354216Y-36028767D01*
X61370912Y-35830520D01*
X61377000Y-35836608D01*
X61377000Y-36383000D01*
X62917502Y-36383000D01*
X63044408Y-36215999D01*
X62972702Y-36012803D01*
X62857014Y-35832592D01*
X62708391Y-35678413D01*
X62532545Y-35556191D01*
X62380170Y-35489775D01*
X62230000Y-35339605D01*
X62215858Y-35353748D01*
X62036253Y-35174143D01*
X62050395Y-35160000D01*
X62036253Y-35145858D01*
X62143913Y-35038197D01*
X62158003Y-35041000D01*
X62301997Y-35041000D01*
X62316087Y-35038197D01*
X62423748Y-35145858D01*
X62409605Y-35160000D01*
X62900517Y-35650912D01*
X63098767Y-35634216D01*
X63174589Y-35455616D01*
X63214110Y-35265656D01*
X63215813Y-35071636D01*
X63179632Y-34881011D01*
X63106957Y-34701107D01*
X63098767Y-34685784D01*
X62900520Y-34669088D01*
X63019239Y-34550369D01*
X62942728Y-34473858D01*
X62961000Y-34381997D01*
X62961000Y-34238003D01*
X62932908Y-34096775D01*
X62877804Y-33963742D01*
X62825190Y-33885000D01*
X62877804Y-33806258D01*
X62932908Y-33673225D01*
X62952123Y-33576624D01*
X63002141Y-33626642D01*
X63130058Y-33712113D01*
X63272191Y-33770987D01*
X63423078Y-33801000D01*
X63576922Y-33801000D01*
X63727809Y-33770987D01*
X63869942Y-33712113D01*
X63997859Y-33626642D01*
X64106642Y-33517859D01*
X64192113Y-33389942D01*
X64250987Y-33247809D01*
X64281000Y-33096922D01*
X64281000Y-32943078D01*
X64250987Y-32792191D01*
X64192113Y-32650058D01*
X64106642Y-32522141D01*
X64094501Y-32510000D01*
X64106642Y-32497859D01*
X64192113Y-32369942D01*
X64250987Y-32227809D01*
X64281000Y-32076922D01*
X64281000Y-31923078D01*
X64250987Y-31772191D01*
X64192113Y-31630058D01*
X64106642Y-31502141D01*
X63997859Y-31393358D01*
X63914775Y-31337843D01*
X64201250Y-31337843D01*
X64318615Y-31326284D01*
X64431470Y-31292049D01*
X64535477Y-31236456D01*
X64545866Y-31227930D01*
X64589463Y-31309494D01*
X64668815Y-31406185D01*
X64765506Y-31485537D01*
X64875820Y-31544502D01*
X64995518Y-31580812D01*
X65120000Y-31593072D01*
X65271750Y-31590000D01*
X65430500Y-31431250D01*
X65430500Y-30607000D01*
X65684500Y-30607000D01*
X65684500Y-31431250D01*
X65843250Y-31590000D01*
X65995000Y-31593072D01*
X66119482Y-31580812D01*
X66239180Y-31544502D01*
X66349494Y-31485537D01*
X66446185Y-31406185D01*
X66525537Y-31309494D01*
X66584502Y-31199180D01*
X66620812Y-31079482D01*
X66633072Y-30955000D01*
X66630000Y-30765750D01*
X66471250Y-30607000D01*
X65684500Y-30607000D01*
X65430500Y-30607000D01*
X65410500Y-30607000D01*
X65410500Y-30353000D01*
X65430500Y-30353000D01*
X65430500Y-29528750D01*
X65684500Y-29528750D01*
X65684500Y-30353000D01*
X66471250Y-30353000D01*
X66630000Y-30194250D01*
X66633072Y-30005000D01*
X66620812Y-29880518D01*
X66584502Y-29760820D01*
X66525537Y-29650506D01*
X66446185Y-29553815D01*
X66349494Y-29474463D01*
X66239180Y-29415498D01*
X66119482Y-29379188D01*
X65995000Y-29366928D01*
X65843250Y-29370000D01*
X65684500Y-29528750D01*
X65430500Y-29528750D01*
X65271750Y-29370000D01*
X65120000Y-29366928D01*
X64995518Y-29379188D01*
X64875820Y-29415498D01*
X64765506Y-29474463D01*
X64668815Y-29553815D01*
X64589463Y-29650506D01*
X64545866Y-29732070D01*
X64535477Y-29723544D01*
X64431470Y-29667951D01*
X64318615Y-29633716D01*
X64201250Y-29622157D01*
X63763750Y-29622157D01*
X63646385Y-29633716D01*
X63533530Y-29667951D01*
X63429523Y-29723544D01*
X63338360Y-29798360D01*
X63263544Y-29889523D01*
X63207951Y-29993530D01*
X63173716Y-30106385D01*
X63162157Y-30223750D01*
X63162157Y-30404000D01*
X62878739Y-30404000D01*
X62932908Y-30273225D01*
X62961000Y-30131997D01*
X62961000Y-29988003D01*
X62942728Y-29896142D01*
X63019239Y-29819631D01*
X62900520Y-29700912D01*
X63098767Y-29684216D01*
X63174589Y-29505616D01*
X63214110Y-29315656D01*
X63215813Y-29121636D01*
X63179632Y-28931011D01*
X63106957Y-28751107D01*
X63098767Y-28735784D01*
X62900517Y-28719088D01*
X62409605Y-29210000D01*
X62423748Y-29224143D01*
X62316087Y-29331803D01*
X62301997Y-29329000D01*
X62158003Y-29329000D01*
X62143913Y-29331803D01*
X62036253Y-29224143D01*
X62050395Y-29210000D01*
X62036253Y-29195858D01*
X62215858Y-29016253D01*
X62230000Y-29030395D01*
X62380170Y-28880225D01*
X62532545Y-28813809D01*
X62708391Y-28691587D01*
X62857014Y-28537408D01*
X62972702Y-28357197D01*
X63044408Y-28154001D01*
X62917502Y-27987000D01*
X61377000Y-27987000D01*
X61377000Y-28533392D01*
X61370912Y-28539480D01*
X61354216Y-28341233D01*
X61175616Y-28265411D01*
X61123000Y-28254464D01*
X61123000Y-27987000D01*
X59582498Y-27987000D01*
X59455592Y-28154001D01*
X59527298Y-28357197D01*
X59642986Y-28537408D01*
X59791609Y-28691587D01*
X59967455Y-28813809D01*
X59976445Y-28817728D01*
X59935411Y-28914384D01*
X59895890Y-29104344D01*
X59894187Y-29298364D01*
X59930368Y-29488989D01*
X60003043Y-29668893D01*
X60011233Y-29684216D01*
X60209480Y-29700912D01*
X60090761Y-29819631D01*
X60167272Y-29896142D01*
X60149000Y-29988003D01*
X60149000Y-30131997D01*
X60177092Y-30273225D01*
X60232196Y-30406258D01*
X60284810Y-30485000D01*
X60232196Y-30563742D01*
X60177092Y-30696775D01*
X60149000Y-30838003D01*
X60149000Y-30981997D01*
X60177092Y-31123225D01*
X60232196Y-31256258D01*
X60284810Y-31335000D01*
X60232196Y-31413742D01*
X60177092Y-31546775D01*
X60149000Y-31688003D01*
X60149000Y-31831997D01*
X60177092Y-31973225D01*
X60232196Y-32106258D01*
X60284810Y-32185000D01*
X60232196Y-32263742D01*
X60177092Y-32396775D01*
X60149000Y-32538003D01*
X60149000Y-32681997D01*
X60177092Y-32823225D01*
X60231261Y-32954000D01*
X60062345Y-32954000D01*
X60037499Y-32951553D01*
X60012653Y-32954000D01*
X60012646Y-32954000D01*
X59948194Y-32960348D01*
X59938306Y-32961322D01*
X59927718Y-32964534D01*
X59842925Y-32990255D01*
X59755021Y-33037241D01*
X59677973Y-33100473D01*
X59662128Y-33119780D01*
X59349751Y-33432157D01*
X58988750Y-33432157D01*
X58871385Y-33443716D01*
X58758530Y-33477951D01*
X58654523Y-33533544D01*
X58644134Y-33542070D01*
X58600537Y-33460506D01*
X58521185Y-33363815D01*
X58424494Y-33284463D01*
X58314180Y-33225498D01*
X58194482Y-33189188D01*
X58070000Y-33176928D01*
X57918250Y-33180000D01*
X57759500Y-33338750D01*
X57505500Y-33338750D01*
X57346750Y-33180000D01*
X57195000Y-33176928D01*
X57070518Y-33189188D01*
X56950820Y-33225498D01*
X56840506Y-33284463D01*
X56743815Y-33363815D01*
X56664463Y-33460506D01*
X56605498Y-33570820D01*
X56569188Y-33690518D01*
X56556928Y-33815000D01*
X56286000Y-33815000D01*
X56286000Y-28154001D01*
X56425592Y-28154001D01*
X56497298Y-28357197D01*
X56612986Y-28537408D01*
X56761609Y-28691587D01*
X56937455Y-28813809D01*
X57133767Y-28899376D01*
X57343000Y-28945000D01*
X57743000Y-28945000D01*
X57743000Y-27987000D01*
X57997000Y-27987000D01*
X57997000Y-28945000D01*
X58397000Y-28945000D01*
X58606233Y-28899376D01*
X58802545Y-28813809D01*
X58978391Y-28691587D01*
X59127014Y-28537408D01*
X59242702Y-28357197D01*
X59314408Y-28154001D01*
X59187502Y-27987000D01*
X57997000Y-27987000D01*
X57743000Y-27987000D01*
X56552498Y-27987000D01*
X56425592Y-28154001D01*
X56286000Y-28154001D01*
X56286000Y-27863078D01*
X75419000Y-27863078D01*
X75419000Y-28016922D01*
X75449013Y-28167809D01*
X75507887Y-28309942D01*
X75593358Y-28437859D01*
X75702141Y-28546642D01*
X75830058Y-28632113D01*
X75972191Y-28690987D01*
X75991811Y-28694890D01*
X76715110Y-29418189D01*
X76719013Y-29437809D01*
X76777887Y-29579942D01*
X76863358Y-29707859D01*
X76972141Y-29816642D01*
X77100058Y-29902113D01*
X77242191Y-29960987D01*
X77261810Y-29964889D01*
X78059000Y-30762080D01*
X78059001Y-32986537D01*
X78055705Y-33020000D01*
X78068854Y-33153498D01*
X78090695Y-33225498D01*
X78107795Y-33281868D01*
X78171031Y-33400174D01*
X78256131Y-33503870D01*
X78282122Y-33525200D01*
X79504804Y-34747884D01*
X79526130Y-34773870D01*
X79629826Y-34858970D01*
X79748132Y-34922206D01*
X79801719Y-34938461D01*
X79798395Y-34940682D01*
X79675682Y-35063395D01*
X79579268Y-35207690D01*
X79512856Y-35368022D01*
X79479000Y-35538229D01*
X79479000Y-35711771D01*
X79503479Y-35834836D01*
X79307246Y-35914150D01*
X79111881Y-36042275D01*
X78945266Y-36206052D01*
X78813804Y-36399187D01*
X78722546Y-36614258D01*
X78675000Y-36843000D01*
X78675000Y-37493000D01*
X79733000Y-37493000D01*
X79733000Y-37473000D01*
X79987000Y-37473000D01*
X79987000Y-37493000D01*
X80007000Y-37493000D01*
X80007000Y-37747000D01*
X79987000Y-37747000D01*
X79987000Y-38515341D01*
X79882275Y-38621881D01*
X79754150Y-38817246D01*
X79733000Y-38869574D01*
X79733000Y-37747000D01*
X78675000Y-37747000D01*
X78675000Y-38397000D01*
X78722546Y-38625742D01*
X78813804Y-38840813D01*
X78945266Y-39033948D01*
X79111881Y-39197725D01*
X79307246Y-39325850D01*
X79523853Y-39413399D01*
X79550256Y-39413803D01*
X79733000Y-39288361D01*
X79733000Y-39157575D01*
X79791639Y-39243000D01*
X79987000Y-39243000D01*
X79987000Y-39288361D01*
X80169744Y-39413803D01*
X80196147Y-39413399D01*
X80412754Y-39325850D01*
X80539084Y-39243000D01*
X81333000Y-39243000D01*
X81333000Y-39223000D01*
X81587000Y-39223000D01*
X81587000Y-39243000D01*
X84633000Y-39243000D01*
X84633000Y-39226670D01*
X84840421Y-39233016D01*
X84887000Y-39225223D01*
X84887000Y-39243000D01*
X85680916Y-39243000D01*
X85807246Y-39325850D01*
X86023853Y-39413399D01*
X86050256Y-39413803D01*
X86233000Y-39288361D01*
X86233000Y-39243000D01*
X86428361Y-39243000D01*
X86487000Y-39157575D01*
X86487000Y-39288361D01*
X86669744Y-39413803D01*
X86696147Y-39413399D01*
X86912754Y-39325850D01*
X87108119Y-39197725D01*
X87274734Y-39033948D01*
X87406196Y-38840813D01*
X87477476Y-38672824D01*
X90735098Y-38672824D01*
X90784666Y-39090451D01*
X90914757Y-39490383D01*
X91072786Y-39786038D01*
X91388347Y-39942048D01*
X92700395Y-38630000D01*
X93059605Y-38630000D01*
X94371653Y-39942048D01*
X94687214Y-39786038D01*
X94878020Y-39411255D01*
X94992044Y-39006449D01*
X95024902Y-38587176D01*
X94975334Y-38169549D01*
X94845243Y-37769617D01*
X94687214Y-37473962D01*
X94371653Y-37317952D01*
X93059605Y-38630000D01*
X92700395Y-38630000D01*
X91388347Y-37317952D01*
X91072786Y-37473962D01*
X90881980Y-37848745D01*
X90767956Y-38253551D01*
X90735098Y-38672824D01*
X87477476Y-38672824D01*
X87497454Y-38625742D01*
X87545000Y-38397000D01*
X87545000Y-37747000D01*
X86487000Y-37747000D01*
X86487000Y-38869574D01*
X86465850Y-38817246D01*
X86337725Y-38621881D01*
X86233000Y-38515341D01*
X86233000Y-37747000D01*
X85911616Y-37747000D01*
X85909500Y-37734354D01*
X85826808Y-37516066D01*
X85814479Y-37493000D01*
X86233000Y-37493000D01*
X86233000Y-37473000D01*
X86487000Y-37473000D01*
X86487000Y-37493000D01*
X87545000Y-37493000D01*
X87545000Y-37138347D01*
X91567952Y-37138347D01*
X92880000Y-38450395D01*
X94192048Y-37138347D01*
X94036038Y-36822786D01*
X93661255Y-36631980D01*
X93256449Y-36517956D01*
X92837176Y-36485098D01*
X92419549Y-36534666D01*
X92019617Y-36664757D01*
X91723962Y-36822786D01*
X91567952Y-37138347D01*
X87545000Y-37138347D01*
X87545000Y-36843000D01*
X87497454Y-36614258D01*
X87406196Y-36399187D01*
X87274734Y-36206052D01*
X87108119Y-36042275D01*
X86912754Y-35914150D01*
X86716521Y-35834836D01*
X86741000Y-35711771D01*
X86741000Y-35538229D01*
X86710174Y-35383252D01*
X87344804Y-36017884D01*
X87366130Y-36043870D01*
X87469826Y-36128970D01*
X87588132Y-36192206D01*
X87646983Y-36210058D01*
X87716500Y-36231146D01*
X87849999Y-36244295D01*
X87883452Y-36241000D01*
X88987157Y-36241000D01*
X88987157Y-36360000D01*
X88994513Y-36434689D01*
X89016299Y-36506508D01*
X89051678Y-36572696D01*
X89099289Y-36630711D01*
X89157304Y-36678322D01*
X89223492Y-36713701D01*
X89295311Y-36735487D01*
X89370000Y-36742843D01*
X90970000Y-36742843D01*
X91044689Y-36735487D01*
X91116508Y-36713701D01*
X91182696Y-36678322D01*
X91240711Y-36630711D01*
X91288322Y-36572696D01*
X91323701Y-36506508D01*
X91345487Y-36434689D01*
X91352843Y-36360000D01*
X91352843Y-34760000D01*
X91345487Y-34685311D01*
X91323701Y-34613492D01*
X91288322Y-34547304D01*
X91240711Y-34489289D01*
X91182696Y-34441678D01*
X91116508Y-34406299D01*
X91044689Y-34384513D01*
X90970000Y-34377157D01*
X89370000Y-34377157D01*
X89295311Y-34384513D01*
X89223492Y-34406299D01*
X89157304Y-34441678D01*
X89099289Y-34489289D01*
X89051678Y-34547304D01*
X89016299Y-34613492D01*
X88994513Y-34685311D01*
X88987157Y-34760000D01*
X88987157Y-34879000D01*
X88132080Y-34879000D01*
X87085204Y-33832126D01*
X87063870Y-33806130D01*
X86960174Y-33721030D01*
X86841868Y-33657794D01*
X86713499Y-33618854D01*
X86613453Y-33609000D01*
X86580000Y-33605705D01*
X86546547Y-33609000D01*
X80292080Y-33609000D01*
X79421000Y-32737922D01*
X79421000Y-30943682D01*
X88989000Y-30943682D01*
X88989000Y-31176318D01*
X89034386Y-31404485D01*
X89123412Y-31619413D01*
X89252658Y-31812843D01*
X89417157Y-31977342D01*
X89540863Y-32060000D01*
X89417157Y-32142658D01*
X89252658Y-32307157D01*
X89123412Y-32500587D01*
X89034386Y-32715515D01*
X88989000Y-32943682D01*
X88989000Y-33176318D01*
X89034386Y-33404485D01*
X89123412Y-33619413D01*
X89252658Y-33812843D01*
X89417157Y-33977342D01*
X89610587Y-34106588D01*
X89825515Y-34195614D01*
X90053682Y-34241000D01*
X90286318Y-34241000D01*
X90514485Y-34195614D01*
X90729413Y-34106588D01*
X90922843Y-33977342D01*
X91087342Y-33812843D01*
X91216588Y-33619413D01*
X91305614Y-33404485D01*
X91345096Y-33206000D01*
X92164011Y-33206000D01*
X92176299Y-33246508D01*
X92211678Y-33312696D01*
X92259289Y-33370711D01*
X92317304Y-33418322D01*
X92383492Y-33453701D01*
X92455311Y-33475487D01*
X92530000Y-33482843D01*
X93430000Y-33482843D01*
X93504689Y-33475487D01*
X93576508Y-33453701D01*
X93642696Y-33418322D01*
X93700711Y-33370711D01*
X93748322Y-33312696D01*
X93783701Y-33246508D01*
X93805487Y-33174689D01*
X93812843Y-33100000D01*
X93812843Y-32300000D01*
X93805487Y-32225311D01*
X93783701Y-32153492D01*
X93781835Y-32150000D01*
X93891928Y-32150000D01*
X93904188Y-32274482D01*
X93940498Y-32394180D01*
X93999463Y-32504494D01*
X94078815Y-32601185D01*
X94175506Y-32680537D01*
X94285820Y-32739502D01*
X94405518Y-32775812D01*
X94530000Y-32788072D01*
X94694250Y-32785000D01*
X94853000Y-32626250D01*
X94853000Y-31877000D01*
X95107000Y-31877000D01*
X95107000Y-32626250D01*
X95265750Y-32785000D01*
X95430000Y-32788072D01*
X95554482Y-32775812D01*
X95674180Y-32739502D01*
X95784494Y-32680537D01*
X95881185Y-32601185D01*
X95960537Y-32504494D01*
X96019502Y-32394180D01*
X96055812Y-32274482D01*
X96068072Y-32150000D01*
X96065000Y-32035750D01*
X95906250Y-31877000D01*
X95107000Y-31877000D01*
X94853000Y-31877000D01*
X94053750Y-31877000D01*
X93895000Y-32035750D01*
X93891928Y-32150000D01*
X93781835Y-32150000D01*
X93748322Y-32087304D01*
X93700711Y-32029289D01*
X93642696Y-31981678D01*
X93576508Y-31946299D01*
X93504689Y-31924513D01*
X93430000Y-31917157D01*
X92530000Y-31917157D01*
X92455311Y-31924513D01*
X92383492Y-31946299D01*
X92317304Y-31981678D01*
X92259289Y-32029289D01*
X92211678Y-32087304D01*
X92176299Y-32153492D01*
X92164011Y-32194000D01*
X90974185Y-32194000D01*
X90922843Y-32142658D01*
X90799137Y-32060000D01*
X90922843Y-31977342D01*
X91087342Y-31812843D01*
X91216588Y-31619413D01*
X91238712Y-31566000D01*
X92424036Y-31566000D01*
X92455311Y-31575487D01*
X92530000Y-31582843D01*
X93430000Y-31582843D01*
X93504689Y-31575487D01*
X93576508Y-31553701D01*
X93642696Y-31518322D01*
X93700711Y-31470711D01*
X93748322Y-31412696D01*
X93781834Y-31350000D01*
X93891928Y-31350000D01*
X93895000Y-31464250D01*
X94053750Y-31623000D01*
X94853000Y-31623000D01*
X94853000Y-30873750D01*
X95107000Y-30873750D01*
X95107000Y-31623000D01*
X95906250Y-31623000D01*
X96065000Y-31464250D01*
X96068072Y-31350000D01*
X96055812Y-31225518D01*
X96019502Y-31105820D01*
X95960537Y-30995506D01*
X95881185Y-30898815D01*
X95784494Y-30819463D01*
X95674180Y-30760498D01*
X95554482Y-30724188D01*
X95430000Y-30711928D01*
X95265750Y-30715000D01*
X95107000Y-30873750D01*
X94853000Y-30873750D01*
X94694250Y-30715000D01*
X94530000Y-30711928D01*
X94405518Y-30724188D01*
X94285820Y-30760498D01*
X94175506Y-30819463D01*
X94078815Y-30898815D01*
X93999463Y-30995506D01*
X93940498Y-31105820D01*
X93904188Y-31225518D01*
X93891928Y-31350000D01*
X93781834Y-31350000D01*
X93783701Y-31346508D01*
X93805487Y-31274689D01*
X93812843Y-31200000D01*
X93812843Y-30400000D01*
X93805487Y-30325311D01*
X93783701Y-30253492D01*
X93748322Y-30187304D01*
X93700711Y-30129289D01*
X93642696Y-30081678D01*
X93576508Y-30046299D01*
X93504689Y-30024513D01*
X93430000Y-30017157D01*
X92530000Y-30017157D01*
X92455311Y-30024513D01*
X92383492Y-30046299D01*
X92317304Y-30081678D01*
X92259289Y-30129289D01*
X92211678Y-30187304D01*
X92176299Y-30253492D01*
X92154513Y-30325311D01*
X92147157Y-30400000D01*
X92147157Y-30554000D01*
X91238712Y-30554000D01*
X91216588Y-30500587D01*
X91087342Y-30307157D01*
X90922843Y-30142658D01*
X90729413Y-30013412D01*
X90561671Y-29943931D01*
X90786292Y-29863603D01*
X90911514Y-29796671D01*
X90983097Y-29552702D01*
X90170000Y-28739605D01*
X89356903Y-29552702D01*
X89428486Y-29796671D01*
X89683996Y-29917571D01*
X89782411Y-29942240D01*
X89610587Y-30013412D01*
X89417157Y-30142658D01*
X89252658Y-30307157D01*
X89123412Y-30500587D01*
X89034386Y-30715515D01*
X88989000Y-30943682D01*
X79421000Y-30943682D01*
X79421000Y-30513450D01*
X79424295Y-30479999D01*
X79421000Y-30446547D01*
X79411146Y-30346501D01*
X79372206Y-30218132D01*
X79308970Y-30099826D01*
X79265042Y-30046299D01*
X79245194Y-30022114D01*
X79245191Y-30022111D01*
X79223869Y-29996130D01*
X79197889Y-29974809D01*
X78224889Y-29001810D01*
X78220987Y-28982191D01*
X78162113Y-28840058D01*
X78076642Y-28712141D01*
X77995013Y-28630512D01*
X88729783Y-28630512D01*
X88771213Y-28910130D01*
X88866397Y-29176292D01*
X88933329Y-29301514D01*
X89177298Y-29373097D01*
X89990395Y-28560000D01*
X90349605Y-28560000D01*
X91162702Y-29373097D01*
X91406671Y-29301514D01*
X91527571Y-29046004D01*
X91596300Y-28771816D01*
X91610217Y-28489488D01*
X91568787Y-28209870D01*
X91473603Y-27943708D01*
X91406671Y-27818486D01*
X91162702Y-27746903D01*
X90349605Y-28560000D01*
X89990395Y-28560000D01*
X89177298Y-27746903D01*
X88933329Y-27818486D01*
X88812429Y-28073996D01*
X88743700Y-28348184D01*
X88729783Y-28630512D01*
X77995013Y-28630512D01*
X77967859Y-28603358D01*
X77839942Y-28517887D01*
X77697809Y-28459013D01*
X77678189Y-28455110D01*
X76954890Y-27731811D01*
X76950987Y-27712191D01*
X76892113Y-27570058D01*
X76890269Y-27567298D01*
X89356903Y-27567298D01*
X90170000Y-28380395D01*
X90983097Y-27567298D01*
X90911514Y-27323329D01*
X90656004Y-27202429D01*
X90381816Y-27133700D01*
X90099488Y-27119783D01*
X89819870Y-27161213D01*
X89553708Y-27256397D01*
X89428486Y-27323329D01*
X89356903Y-27567298D01*
X76890269Y-27567298D01*
X76806642Y-27442141D01*
X76697859Y-27333358D01*
X76569942Y-27247887D01*
X76427809Y-27189013D01*
X76276922Y-27159000D01*
X76123078Y-27159000D01*
X75972191Y-27189013D01*
X75830058Y-27247887D01*
X75702141Y-27333358D01*
X75593358Y-27442141D01*
X75507887Y-27570058D01*
X75449013Y-27712191D01*
X75419000Y-27863078D01*
X56286000Y-27863078D01*
X56286000Y-27565999D01*
X56425592Y-27565999D01*
X56552498Y-27733000D01*
X57743000Y-27733000D01*
X57743000Y-26775000D01*
X57997000Y-26775000D01*
X57997000Y-27733000D01*
X59187502Y-27733000D01*
X59314408Y-27565999D01*
X59455592Y-27565999D01*
X59582498Y-27733000D01*
X61123000Y-27733000D01*
X61123000Y-26775000D01*
X61377000Y-26775000D01*
X61377000Y-27733000D01*
X62917502Y-27733000D01*
X63044408Y-27565999D01*
X62972702Y-27362803D01*
X62857014Y-27182592D01*
X62708391Y-27028413D01*
X62532545Y-26906191D01*
X62336233Y-26820624D01*
X62127000Y-26775000D01*
X61377000Y-26775000D01*
X61123000Y-26775000D01*
X60373000Y-26775000D01*
X60163767Y-26820624D01*
X59967455Y-26906191D01*
X59791609Y-27028413D01*
X59642986Y-27182592D01*
X59527298Y-27362803D01*
X59455592Y-27565999D01*
X59314408Y-27565999D01*
X59242702Y-27362803D01*
X59127014Y-27182592D01*
X58978391Y-27028413D01*
X58802545Y-26906191D01*
X58606233Y-26820624D01*
X58397000Y-26775000D01*
X57997000Y-26775000D01*
X57743000Y-26775000D01*
X57343000Y-26775000D01*
X57133767Y-26820624D01*
X56937455Y-26906191D01*
X56761609Y-27028413D01*
X56612986Y-27182592D01*
X56497298Y-27362803D01*
X56425592Y-27565999D01*
X56286000Y-27565999D01*
X56286000Y-25419940D01*
X56287964Y-25400000D01*
X56280125Y-25320410D01*
X56256910Y-25243879D01*
X56236070Y-25204889D01*
X76759000Y-25204889D01*
X76759000Y-25595111D01*
X76835129Y-25977836D01*
X76984461Y-26338355D01*
X77201257Y-26662814D01*
X77477186Y-26938743D01*
X77801645Y-27155539D01*
X78162164Y-27304871D01*
X78544889Y-27381000D01*
X78935111Y-27381000D01*
X79317836Y-27304871D01*
X79678355Y-27155539D01*
X79938594Y-26981653D01*
X91567952Y-26981653D01*
X91723962Y-27297214D01*
X92098745Y-27488020D01*
X92503551Y-27602044D01*
X92922824Y-27634902D01*
X93340451Y-27585334D01*
X93740383Y-27455243D01*
X94036038Y-27297214D01*
X94192048Y-26981653D01*
X92880000Y-25669605D01*
X91567952Y-26981653D01*
X79938594Y-26981653D01*
X80002814Y-26938743D01*
X80278743Y-26662814D01*
X80495539Y-26338355D01*
X80644871Y-25977836D01*
X80721000Y-25595111D01*
X80721000Y-25532824D01*
X90735098Y-25532824D01*
X90784666Y-25950451D01*
X90914757Y-26350383D01*
X91072786Y-26646038D01*
X91388347Y-26802048D01*
X92700395Y-25490000D01*
X93059605Y-25490000D01*
X94371653Y-26802048D01*
X94687214Y-26646038D01*
X94878020Y-26271255D01*
X94992044Y-25866449D01*
X95024902Y-25447176D01*
X94975334Y-25029549D01*
X94845243Y-24629617D01*
X94687214Y-24333962D01*
X94371653Y-24177952D01*
X93059605Y-25490000D01*
X92700395Y-25490000D01*
X91388347Y-24177952D01*
X91072786Y-24333962D01*
X90881980Y-24708745D01*
X90767956Y-25113551D01*
X90735098Y-25532824D01*
X80721000Y-25532824D01*
X80721000Y-25204889D01*
X80644871Y-24822164D01*
X80495539Y-24461645D01*
X80278743Y-24137186D01*
X80139904Y-23998347D01*
X91567952Y-23998347D01*
X92880000Y-25310395D01*
X94192048Y-23998347D01*
X94036038Y-23682786D01*
X93661255Y-23491980D01*
X93256449Y-23377956D01*
X92837176Y-23345098D01*
X92419549Y-23394666D01*
X92019617Y-23524757D01*
X91723962Y-23682786D01*
X91567952Y-23998347D01*
X80139904Y-23998347D01*
X80002814Y-23861257D01*
X79678355Y-23644461D01*
X79317836Y-23495129D01*
X78935111Y-23419000D01*
X78544889Y-23419000D01*
X78162164Y-23495129D01*
X77801645Y-23644461D01*
X77477186Y-23861257D01*
X77201257Y-24137186D01*
X76984461Y-24461645D01*
X76835129Y-24822164D01*
X76759000Y-25204889D01*
X56236070Y-25204889D01*
X56219210Y-25173347D01*
X56168474Y-25111526D01*
X56106653Y-25060790D01*
X56036121Y-25023090D01*
X55959590Y-24999875D01*
X55899941Y-24994000D01*
X55880000Y-24992036D01*
X55860060Y-24994000D01*
X53746000Y-24994000D01*
X53746000Y-23266000D01*
X102464000Y-23266000D01*
X102464001Y-44044000D01*
G36*
X72583748Y-37805807D02*
G01*
X72569605Y-37819949D01*
X72583748Y-37834092D01*
X72404143Y-38013697D01*
X72390000Y-37999554D01*
X72375858Y-38013697D01*
X72196253Y-37834092D01*
X72210395Y-37819949D01*
X72196253Y-37805807D01*
X72375858Y-37626202D01*
X72390000Y-37640344D01*
X72404143Y-37626202D01*
X72583748Y-37805807D01*
X72583748Y-37805807D01*
G37*
X72583748Y-37805807D02*
X72569605Y-37819949D01*
X72583748Y-37834092D01*
X72404143Y-38013697D01*
X72390000Y-37999554D01*
X72375858Y-38013697D01*
X72196253Y-37834092D01*
X72210395Y-37819949D01*
X72196253Y-37805807D01*
X72375858Y-37626202D01*
X72390000Y-37640344D01*
X72404143Y-37626202D01*
X72583748Y-37805807D01*
G36*
X85175682Y-35063395D02*
G01*
X85079268Y-35207690D01*
X85012856Y-35368022D01*
X84979000Y-35538229D01*
X84979000Y-35711771D01*
X85012856Y-35881978D01*
X85079268Y-36042310D01*
X85175682Y-36186605D01*
X85298395Y-36309318D01*
X85351035Y-36344490D01*
X85313804Y-36399187D01*
X85222546Y-36614258D01*
X85175000Y-36843000D01*
X85175000Y-36932258D01*
X85140335Y-36916641D01*
X84912895Y-36864122D01*
X84679579Y-36856984D01*
X84449354Y-36895500D01*
X84231066Y-36978192D01*
X84166841Y-37012522D01*
X84125626Y-37231021D01*
X84760000Y-37865395D01*
X84774143Y-37851253D01*
X84953748Y-38030858D01*
X84939605Y-38045000D01*
X84953748Y-38059143D01*
X84774143Y-38238748D01*
X84760000Y-38224605D01*
X84745858Y-38238748D01*
X84566253Y-38059143D01*
X84580395Y-38045000D01*
X83946021Y-37410626D01*
X83816660Y-37435027D01*
X83703478Y-37321845D01*
X83550994Y-37219958D01*
X83381563Y-37149778D01*
X83201696Y-37114000D01*
X83018304Y-37114000D01*
X82838437Y-37149778D01*
X82669006Y-37219958D01*
X82516522Y-37321845D01*
X82388407Y-37449960D01*
X82385487Y-37420311D01*
X82363701Y-37348492D01*
X82328322Y-37282304D01*
X82280711Y-37224289D01*
X82222696Y-37176678D01*
X82156508Y-37141299D01*
X82084689Y-37119513D01*
X82027364Y-37113867D01*
X81999371Y-37021585D01*
X81945421Y-36920652D01*
X81885434Y-36847557D01*
X81988437Y-36890222D01*
X82168304Y-36926000D01*
X82351696Y-36926000D01*
X82531563Y-36890222D01*
X82700994Y-36820042D01*
X82853478Y-36718155D01*
X82983155Y-36588478D01*
X83060000Y-36473472D01*
X83136845Y-36588478D01*
X83266522Y-36718155D01*
X83419006Y-36820042D01*
X83588437Y-36890222D01*
X83768304Y-36926000D01*
X83951696Y-36926000D01*
X84131563Y-36890222D01*
X84300994Y-36820042D01*
X84453478Y-36718155D01*
X84583155Y-36588478D01*
X84685042Y-36435994D01*
X84755222Y-36266563D01*
X84791000Y-36086696D01*
X84791000Y-35903304D01*
X84755222Y-35723437D01*
X84685042Y-35554006D01*
X84583155Y-35401522D01*
X84453478Y-35271845D01*
X84300994Y-35169958D01*
X84131563Y-35099778D01*
X83951696Y-35064000D01*
X83768304Y-35064000D01*
X83588437Y-35099778D01*
X83419006Y-35169958D01*
X83266522Y-35271845D01*
X83136845Y-35401522D01*
X83060000Y-35516528D01*
X82983155Y-35401522D01*
X82853478Y-35271845D01*
X82700994Y-35169958D01*
X82531563Y-35099778D01*
X82351696Y-35064000D01*
X82168304Y-35064000D01*
X81988437Y-35099778D01*
X81861000Y-35152564D01*
X81861000Y-34971000D01*
X85268077Y-34971000D01*
X85175682Y-35063395D01*
X85175682Y-35063395D01*
G37*
X85175682Y-35063395D02*
X85079268Y-35207690D01*
X85012856Y-35368022D01*
X84979000Y-35538229D01*
X84979000Y-35711771D01*
X85012856Y-35881978D01*
X85079268Y-36042310D01*
X85175682Y-36186605D01*
X85298395Y-36309318D01*
X85351035Y-36344490D01*
X85313804Y-36399187D01*
X85222546Y-36614258D01*
X85175000Y-36843000D01*
X85175000Y-36932258D01*
X85140335Y-36916641D01*
X84912895Y-36864122D01*
X84679579Y-36856984D01*
X84449354Y-36895500D01*
X84231066Y-36978192D01*
X84166841Y-37012522D01*
X84125626Y-37231021D01*
X84760000Y-37865395D01*
X84774143Y-37851253D01*
X84953748Y-38030858D01*
X84939605Y-38045000D01*
X84953748Y-38059143D01*
X84774143Y-38238748D01*
X84760000Y-38224605D01*
X84745858Y-38238748D01*
X84566253Y-38059143D01*
X84580395Y-38045000D01*
X83946021Y-37410626D01*
X83816660Y-37435027D01*
X83703478Y-37321845D01*
X83550994Y-37219958D01*
X83381563Y-37149778D01*
X83201696Y-37114000D01*
X83018304Y-37114000D01*
X82838437Y-37149778D01*
X82669006Y-37219958D01*
X82516522Y-37321845D01*
X82388407Y-37449960D01*
X82385487Y-37420311D01*
X82363701Y-37348492D01*
X82328322Y-37282304D01*
X82280711Y-37224289D01*
X82222696Y-37176678D01*
X82156508Y-37141299D01*
X82084689Y-37119513D01*
X82027364Y-37113867D01*
X81999371Y-37021585D01*
X81945421Y-36920652D01*
X81885434Y-36847557D01*
X81988437Y-36890222D01*
X82168304Y-36926000D01*
X82351696Y-36926000D01*
X82531563Y-36890222D01*
X82700994Y-36820042D01*
X82853478Y-36718155D01*
X82983155Y-36588478D01*
X83060000Y-36473472D01*
X83136845Y-36588478D01*
X83266522Y-36718155D01*
X83419006Y-36820042D01*
X83588437Y-36890222D01*
X83768304Y-36926000D01*
X83951696Y-36926000D01*
X84131563Y-36890222D01*
X84300994Y-36820042D01*
X84453478Y-36718155D01*
X84583155Y-36588478D01*
X84685042Y-36435994D01*
X84755222Y-36266563D01*
X84791000Y-36086696D01*
X84791000Y-35903304D01*
X84755222Y-35723437D01*
X84685042Y-35554006D01*
X84583155Y-35401522D01*
X84453478Y-35271845D01*
X84300994Y-35169958D01*
X84131563Y-35099778D01*
X83951696Y-35064000D01*
X83768304Y-35064000D01*
X83588437Y-35099778D01*
X83419006Y-35169958D01*
X83266522Y-35271845D01*
X83136845Y-35401522D01*
X83060000Y-35516528D01*
X82983155Y-35401522D01*
X82853478Y-35271845D01*
X82700994Y-35169958D01*
X82531563Y-35099778D01*
X82351696Y-35064000D01*
X82168304Y-35064000D01*
X81988437Y-35099778D01*
X81861000Y-35152564D01*
X81861000Y-34971000D01*
X85268077Y-34971000D01*
X85175682Y-35063395D01*
G36*
X61073748Y-35145858D02*
G01*
X61059605Y-35160000D01*
X61073748Y-35174143D01*
X60894143Y-35353748D01*
X60880000Y-35339605D01*
X60865858Y-35353748D01*
X60686253Y-35174143D01*
X60700395Y-35160000D01*
X60686253Y-35145858D01*
X60793913Y-35038197D01*
X60808003Y-35041000D01*
X60951997Y-35041000D01*
X60966087Y-35038197D01*
X61073748Y-35145858D01*
X61073748Y-35145858D01*
G37*
X61073748Y-35145858D02*
X61059605Y-35160000D01*
X61073748Y-35174143D01*
X60894143Y-35353748D01*
X60880000Y-35339605D01*
X60865858Y-35353748D01*
X60686253Y-35174143D01*
X60700395Y-35160000D01*
X60686253Y-35145858D01*
X60793913Y-35038197D01*
X60808003Y-35041000D01*
X60951997Y-35041000D01*
X60966087Y-35038197D01*
X61073748Y-35145858D01*
G36*
X61073748Y-29195858D02*
G01*
X61059605Y-29210000D01*
X61073748Y-29224143D01*
X60966087Y-29331803D01*
X60951997Y-29329000D01*
X60808003Y-29329000D01*
X60793913Y-29331803D01*
X60686253Y-29224143D01*
X60700395Y-29210000D01*
X60686253Y-29195858D01*
X60865858Y-29016253D01*
X60880000Y-29030395D01*
X60894143Y-29016253D01*
X61073748Y-29195858D01*
X61073748Y-29195858D01*
G37*
X61073748Y-29195858D02*
X61059605Y-29210000D01*
X61073748Y-29224143D01*
X60966087Y-29331803D01*
X60951997Y-29329000D01*
X60808003Y-29329000D01*
X60793913Y-29331803D01*
X60686253Y-29224143D01*
X60700395Y-29210000D01*
X60686253Y-29195858D01*
X60865858Y-29016253D01*
X60880000Y-29030395D01*
X60894143Y-29016253D01*
X61073748Y-29195858D01*
M02*
