G04 #@! TF.GenerationSoftware,KiCad,Pcbnew,(5.1.2)-1*
G04 #@! TF.CreationDate,2019-08-24T20:09:32-04:00*
G04 #@! TF.ProjectId,REV Type-C V3,52455620-5479-4706-952d-432056332e6b,rev?*
G04 #@! TF.SameCoordinates,Original*
G04 #@! TF.FileFunction,Soldermask,Top*
G04 #@! TF.FilePolarity,Negative*
%FSLAX46Y46*%
G04 Gerber Fmt 4.6, Leading zero omitted, Abs format (unit mm)*
G04 Created by KiCad (PCBNEW (5.1.2)-1) date 2019-08-24 20:09:32*
%MOMM*%
%LPD*%
G04 APERTURE LIST*
%ADD10C,0.100000*%
G04 APERTURE END LIST*
D10*
G36*
X155315256Y-83481298D02*
G01*
X155421579Y-83502447D01*
X155722042Y-83626903D01*
X155992451Y-83807585D01*
X156222415Y-84037549D01*
X156403097Y-84307958D01*
X156526204Y-84605164D01*
X156527553Y-84608422D01*
X156591000Y-84927389D01*
X156591000Y-85252611D01*
X156557823Y-85419401D01*
X156527553Y-85571579D01*
X156403097Y-85872042D01*
X156222415Y-86142451D01*
X155992451Y-86372415D01*
X155722042Y-86553097D01*
X155421579Y-86677553D01*
X155315256Y-86698702D01*
X155102611Y-86741000D01*
X154777389Y-86741000D01*
X154564744Y-86698702D01*
X154458421Y-86677553D01*
X154157958Y-86553097D01*
X153887549Y-86372415D01*
X153657585Y-86142451D01*
X153476903Y-85872042D01*
X153352447Y-85571579D01*
X153322177Y-85419401D01*
X153289000Y-85252611D01*
X153289000Y-84927389D01*
X153352447Y-84608422D01*
X153353797Y-84605164D01*
X153476903Y-84307958D01*
X153657585Y-84037549D01*
X153887549Y-83807585D01*
X154157958Y-83626903D01*
X154458421Y-83502447D01*
X154564744Y-83481298D01*
X154777389Y-83439000D01*
X155102611Y-83439000D01*
X155315256Y-83481298D01*
X155315256Y-83481298D01*
G37*
G36*
X114675256Y-83481298D02*
G01*
X114781579Y-83502447D01*
X115082042Y-83626903D01*
X115352451Y-83807585D01*
X115582415Y-84037549D01*
X115763097Y-84307958D01*
X115886204Y-84605164D01*
X115887553Y-84608422D01*
X115951000Y-84927389D01*
X115951000Y-85252611D01*
X115917823Y-85419401D01*
X115887553Y-85571579D01*
X115763097Y-85872042D01*
X115582415Y-86142451D01*
X115352451Y-86372415D01*
X115082042Y-86553097D01*
X114781579Y-86677553D01*
X114675256Y-86698702D01*
X114462611Y-86741000D01*
X114137389Y-86741000D01*
X113924744Y-86698702D01*
X113818421Y-86677553D01*
X113517958Y-86553097D01*
X113247549Y-86372415D01*
X113017585Y-86142451D01*
X112836903Y-85872042D01*
X112712447Y-85571579D01*
X112682177Y-85419401D01*
X112649000Y-85252611D01*
X112649000Y-84927389D01*
X112712447Y-84608422D01*
X112713797Y-84605164D01*
X112836903Y-84307958D01*
X113017585Y-84037549D01*
X113247549Y-83807585D01*
X113517958Y-83626903D01*
X113818421Y-83502447D01*
X113924744Y-83481298D01*
X114137389Y-83439000D01*
X114462611Y-83439000D01*
X114675256Y-83481298D01*
X114675256Y-83481298D01*
G37*
G36*
X125284591Y-84568085D02*
G01*
X125318569Y-84578393D01*
X125349890Y-84595134D01*
X125377339Y-84617661D01*
X125399866Y-84645110D01*
X125416607Y-84676431D01*
X125426915Y-84710409D01*
X125431000Y-84751890D01*
X125431000Y-85428110D01*
X125426915Y-85469591D01*
X125416607Y-85503569D01*
X125399866Y-85534890D01*
X125377339Y-85562339D01*
X125349890Y-85584866D01*
X125318569Y-85601607D01*
X125284591Y-85611915D01*
X125243110Y-85616000D01*
X124641890Y-85616000D01*
X124600409Y-85611915D01*
X124566431Y-85601607D01*
X124535110Y-85584866D01*
X124507661Y-85562339D01*
X124485134Y-85534890D01*
X124468393Y-85503569D01*
X124458085Y-85469591D01*
X124454000Y-85428110D01*
X124454000Y-84751890D01*
X124458085Y-84710409D01*
X124468393Y-84676431D01*
X124485134Y-84645110D01*
X124507661Y-84617661D01*
X124535110Y-84595134D01*
X124566431Y-84578393D01*
X124600409Y-84568085D01*
X124641890Y-84564000D01*
X125243110Y-84564000D01*
X125284591Y-84568085D01*
X125284591Y-84568085D01*
G37*
G36*
X126859591Y-84568085D02*
G01*
X126893569Y-84578393D01*
X126924890Y-84595134D01*
X126952339Y-84617661D01*
X126974866Y-84645110D01*
X126991607Y-84676431D01*
X127001915Y-84710409D01*
X127006000Y-84751890D01*
X127006000Y-85428110D01*
X127001915Y-85469591D01*
X126991607Y-85503569D01*
X126974866Y-85534890D01*
X126952339Y-85562339D01*
X126924890Y-85584866D01*
X126893569Y-85601607D01*
X126859591Y-85611915D01*
X126818110Y-85616000D01*
X126216890Y-85616000D01*
X126175409Y-85611915D01*
X126141431Y-85601607D01*
X126110110Y-85584866D01*
X126082661Y-85562339D01*
X126060134Y-85534890D01*
X126043393Y-85503569D01*
X126033085Y-85469591D01*
X126029000Y-85428110D01*
X126029000Y-84751890D01*
X126033085Y-84710409D01*
X126043393Y-84676431D01*
X126060134Y-84645110D01*
X126082661Y-84617661D01*
X126110110Y-84595134D01*
X126141431Y-84578393D01*
X126175409Y-84568085D01*
X126216890Y-84564000D01*
X126818110Y-84564000D01*
X126859591Y-84568085D01*
X126859591Y-84568085D01*
G37*
G36*
X119944591Y-84568085D02*
G01*
X119978569Y-84578393D01*
X120009890Y-84595134D01*
X120037339Y-84617661D01*
X120059866Y-84645110D01*
X120076607Y-84676431D01*
X120086915Y-84710409D01*
X120091000Y-84751890D01*
X120091000Y-85428110D01*
X120086915Y-85469591D01*
X120076607Y-85503569D01*
X120059866Y-85534890D01*
X120037339Y-85562339D01*
X120009890Y-85584866D01*
X119978569Y-85601607D01*
X119944591Y-85611915D01*
X119903110Y-85616000D01*
X119301890Y-85616000D01*
X119260409Y-85611915D01*
X119226431Y-85601607D01*
X119195110Y-85584866D01*
X119167661Y-85562339D01*
X119145134Y-85534890D01*
X119128393Y-85503569D01*
X119118085Y-85469591D01*
X119114000Y-85428110D01*
X119114000Y-84751890D01*
X119118085Y-84710409D01*
X119128393Y-84676431D01*
X119145134Y-84645110D01*
X119167661Y-84617661D01*
X119195110Y-84595134D01*
X119226431Y-84578393D01*
X119260409Y-84568085D01*
X119301890Y-84564000D01*
X119903110Y-84564000D01*
X119944591Y-84568085D01*
X119944591Y-84568085D01*
G37*
G36*
X118369591Y-84568085D02*
G01*
X118403569Y-84578393D01*
X118434890Y-84595134D01*
X118462339Y-84617661D01*
X118484866Y-84645110D01*
X118501607Y-84676431D01*
X118511915Y-84710409D01*
X118516000Y-84751890D01*
X118516000Y-85428110D01*
X118511915Y-85469591D01*
X118501607Y-85503569D01*
X118484866Y-85534890D01*
X118462339Y-85562339D01*
X118434890Y-85584866D01*
X118403569Y-85601607D01*
X118369591Y-85611915D01*
X118328110Y-85616000D01*
X117726890Y-85616000D01*
X117685409Y-85611915D01*
X117651431Y-85601607D01*
X117620110Y-85584866D01*
X117592661Y-85562339D01*
X117570134Y-85534890D01*
X117553393Y-85503569D01*
X117543085Y-85469591D01*
X117539000Y-85428110D01*
X117539000Y-84751890D01*
X117543085Y-84710409D01*
X117553393Y-84676431D01*
X117570134Y-84645110D01*
X117592661Y-84617661D01*
X117620110Y-84595134D01*
X117651431Y-84578393D01*
X117685409Y-84568085D01*
X117726890Y-84564000D01*
X118328110Y-84564000D01*
X118369591Y-84568085D01*
X118369591Y-84568085D01*
G37*
G36*
X121829591Y-84568085D02*
G01*
X121863569Y-84578393D01*
X121894890Y-84595134D01*
X121922339Y-84617661D01*
X121944866Y-84645110D01*
X121961607Y-84676431D01*
X121971915Y-84710409D01*
X121976000Y-84751890D01*
X121976000Y-85428110D01*
X121971915Y-85469591D01*
X121961607Y-85503569D01*
X121944866Y-85534890D01*
X121922339Y-85562339D01*
X121894890Y-85584866D01*
X121863569Y-85601607D01*
X121829591Y-85611915D01*
X121788110Y-85616000D01*
X121186890Y-85616000D01*
X121145409Y-85611915D01*
X121111431Y-85601607D01*
X121080110Y-85584866D01*
X121052661Y-85562339D01*
X121030134Y-85534890D01*
X121013393Y-85503569D01*
X121003085Y-85469591D01*
X120999000Y-85428110D01*
X120999000Y-84751890D01*
X121003085Y-84710409D01*
X121013393Y-84676431D01*
X121030134Y-84645110D01*
X121052661Y-84617661D01*
X121080110Y-84595134D01*
X121111431Y-84578393D01*
X121145409Y-84568085D01*
X121186890Y-84564000D01*
X121788110Y-84564000D01*
X121829591Y-84568085D01*
X121829591Y-84568085D01*
G37*
G36*
X123404591Y-84568085D02*
G01*
X123438569Y-84578393D01*
X123469890Y-84595134D01*
X123497339Y-84617661D01*
X123519866Y-84645110D01*
X123536607Y-84676431D01*
X123546915Y-84710409D01*
X123551000Y-84751890D01*
X123551000Y-85428110D01*
X123546915Y-85469591D01*
X123536607Y-85503569D01*
X123519866Y-85534890D01*
X123497339Y-85562339D01*
X123469890Y-85584866D01*
X123438569Y-85601607D01*
X123404591Y-85611915D01*
X123363110Y-85616000D01*
X122761890Y-85616000D01*
X122720409Y-85611915D01*
X122686431Y-85601607D01*
X122655110Y-85584866D01*
X122627661Y-85562339D01*
X122605134Y-85534890D01*
X122588393Y-85503569D01*
X122578085Y-85469591D01*
X122574000Y-85428110D01*
X122574000Y-84751890D01*
X122578085Y-84710409D01*
X122588393Y-84676431D01*
X122605134Y-84645110D01*
X122627661Y-84617661D01*
X122655110Y-84595134D01*
X122686431Y-84578393D01*
X122720409Y-84568085D01*
X122761890Y-84564000D01*
X123363110Y-84564000D01*
X123404591Y-84568085D01*
X123404591Y-84568085D01*
G37*
G36*
X135221000Y-84421000D02*
G01*
X134019000Y-84421000D01*
X134019000Y-83219000D01*
X135221000Y-83219000D01*
X135221000Y-84421000D01*
X135221000Y-84421000D01*
G37*
G36*
X137956601Y-83234397D02*
G01*
X137995305Y-83242096D01*
X138027340Y-83255365D01*
X138104680Y-83287400D01*
X138203115Y-83353173D01*
X138286827Y-83436885D01*
X138352600Y-83535320D01*
X138397904Y-83644696D01*
X138421000Y-83760805D01*
X138421000Y-83879195D01*
X138397904Y-83995304D01*
X138352600Y-84104680D01*
X138286827Y-84203115D01*
X138203115Y-84286827D01*
X138104680Y-84352600D01*
X138027340Y-84384635D01*
X137995305Y-84397904D01*
X137956601Y-84405603D01*
X137879195Y-84421000D01*
X137760805Y-84421000D01*
X137683399Y-84405603D01*
X137644695Y-84397904D01*
X137612660Y-84384635D01*
X137535320Y-84352600D01*
X137436885Y-84286827D01*
X137353173Y-84203115D01*
X137287400Y-84104680D01*
X137242096Y-83995304D01*
X137219000Y-83879195D01*
X137219000Y-83760805D01*
X137242096Y-83644696D01*
X137287400Y-83535320D01*
X137353173Y-83436885D01*
X137436885Y-83353173D01*
X137535320Y-83287400D01*
X137612660Y-83255365D01*
X137644695Y-83242096D01*
X137683399Y-83234397D01*
X137760805Y-83219000D01*
X137879195Y-83219000D01*
X137956601Y-83234397D01*
X137956601Y-83234397D01*
G37*
G36*
X136356601Y-83234397D02*
G01*
X136395305Y-83242096D01*
X136427340Y-83255365D01*
X136504680Y-83287400D01*
X136603115Y-83353173D01*
X136686827Y-83436885D01*
X136752600Y-83535320D01*
X136797904Y-83644696D01*
X136821000Y-83760805D01*
X136821000Y-83879195D01*
X136797904Y-83995304D01*
X136752600Y-84104680D01*
X136686827Y-84203115D01*
X136603115Y-84286827D01*
X136504680Y-84352600D01*
X136427340Y-84384635D01*
X136395305Y-84397904D01*
X136356601Y-84405603D01*
X136279195Y-84421000D01*
X136160805Y-84421000D01*
X136083399Y-84405603D01*
X136044695Y-84397904D01*
X136012660Y-84384635D01*
X135935320Y-84352600D01*
X135836885Y-84286827D01*
X135753173Y-84203115D01*
X135687400Y-84104680D01*
X135642096Y-83995304D01*
X135619000Y-83879195D01*
X135619000Y-83760805D01*
X135642096Y-83644696D01*
X135687400Y-83535320D01*
X135753173Y-83436885D01*
X135836885Y-83353173D01*
X135935320Y-83287400D01*
X136012660Y-83255365D01*
X136044695Y-83242096D01*
X136083399Y-83234397D01*
X136160805Y-83219000D01*
X136279195Y-83219000D01*
X136356601Y-83234397D01*
X136356601Y-83234397D01*
G37*
G36*
X132687817Y-81702696D02*
G01*
X132801104Y-81737062D01*
X132905511Y-81792869D01*
X132905513Y-81792870D01*
X132905512Y-81792870D01*
X132997027Y-81867973D01*
X133060711Y-81945572D01*
X133072131Y-81959488D01*
X133127938Y-82063895D01*
X133162304Y-82177182D01*
X133171000Y-82265481D01*
X133171000Y-83624519D01*
X133162304Y-83712818D01*
X133127938Y-83826105D01*
X133072131Y-83930512D01*
X132997027Y-84022027D01*
X132905512Y-84097131D01*
X132801105Y-84152938D01*
X132687818Y-84187304D01*
X132570000Y-84198907D01*
X132452183Y-84187304D01*
X132338896Y-84152938D01*
X132234489Y-84097131D01*
X132142974Y-84022027D01*
X132067870Y-83930512D01*
X132012063Y-83826105D01*
X131977697Y-83712818D01*
X131969001Y-83624519D01*
X131969000Y-82265482D01*
X131977696Y-82177183D01*
X132012062Y-82063896D01*
X132067869Y-81959489D01*
X132081338Y-81943077D01*
X132142973Y-81867973D01*
X132234487Y-81792870D01*
X132234486Y-81792870D01*
X132234488Y-81792869D01*
X132338895Y-81737062D01*
X132452182Y-81702696D01*
X132570000Y-81691093D01*
X132687817Y-81702696D01*
X132687817Y-81702696D01*
G37*
G36*
X139987817Y-81702696D02*
G01*
X140101104Y-81737062D01*
X140205511Y-81792869D01*
X140205513Y-81792870D01*
X140205512Y-81792870D01*
X140297027Y-81867973D01*
X140360711Y-81945572D01*
X140372131Y-81959488D01*
X140427938Y-82063895D01*
X140462304Y-82177182D01*
X140471000Y-82265481D01*
X140471000Y-83624519D01*
X140462304Y-83712818D01*
X140427938Y-83826105D01*
X140372131Y-83930512D01*
X140297027Y-84022027D01*
X140205512Y-84097131D01*
X140101105Y-84152938D01*
X139987818Y-84187304D01*
X139870000Y-84198907D01*
X139752183Y-84187304D01*
X139638896Y-84152938D01*
X139534489Y-84097131D01*
X139442974Y-84022027D01*
X139367870Y-83930512D01*
X139312063Y-83826105D01*
X139277697Y-83712818D01*
X139269001Y-83624519D01*
X139269000Y-82265482D01*
X139277696Y-82177183D01*
X139312062Y-82063896D01*
X139367869Y-81959489D01*
X139381338Y-81943077D01*
X139442973Y-81867973D01*
X139534487Y-81792870D01*
X139534486Y-81792870D01*
X139534488Y-81792869D01*
X139638895Y-81737062D01*
X139752182Y-81702696D01*
X139870000Y-81691093D01*
X139987817Y-81702696D01*
X139987817Y-81702696D01*
G37*
G36*
X124826000Y-83501000D02*
G01*
X122974000Y-83501000D01*
X122974000Y-81599000D01*
X124826000Y-81599000D01*
X124826000Y-83501000D01*
X124826000Y-83501000D01*
G37*
G36*
X121576000Y-83501000D02*
G01*
X119724000Y-83501000D01*
X119724000Y-81599000D01*
X121576000Y-81599000D01*
X121576000Y-83501000D01*
X121576000Y-83501000D01*
G37*
G36*
X149062585Y-80288802D02*
G01*
X149212410Y-80318604D01*
X149494674Y-80435521D01*
X149748705Y-80605259D01*
X149964741Y-80821295D01*
X150134479Y-81075326D01*
X150251396Y-81357590D01*
X150264825Y-81425102D01*
X150300246Y-81603173D01*
X150311000Y-81657240D01*
X150311000Y-81962760D01*
X150251396Y-82262410D01*
X150134479Y-82544674D01*
X149964741Y-82798705D01*
X149748705Y-83014741D01*
X149494674Y-83184479D01*
X149212410Y-83301396D01*
X149062585Y-83331198D01*
X148912761Y-83361000D01*
X148607239Y-83361000D01*
X148457415Y-83331198D01*
X148307590Y-83301396D01*
X148025326Y-83184479D01*
X147771295Y-83014741D01*
X147555259Y-82798705D01*
X147385521Y-82544674D01*
X147268604Y-82262410D01*
X147209000Y-81962760D01*
X147209000Y-81657240D01*
X147219755Y-81603173D01*
X147255175Y-81425102D01*
X147268604Y-81357590D01*
X147385521Y-81075326D01*
X147555259Y-80821295D01*
X147771295Y-80605259D01*
X148025326Y-80435521D01*
X148307590Y-80318604D01*
X148457415Y-80288802D01*
X148607239Y-80259000D01*
X148912761Y-80259000D01*
X149062585Y-80288802D01*
X149062585Y-80288802D01*
G37*
G36*
X135556601Y-81484397D02*
G01*
X135595305Y-81492096D01*
X135627340Y-81505365D01*
X135704680Y-81537400D01*
X135803115Y-81603173D01*
X135886827Y-81686885D01*
X135952600Y-81785320D01*
X135997904Y-81894696D01*
X136021000Y-82010805D01*
X136021000Y-82129195D01*
X135997904Y-82245304D01*
X135952600Y-82354680D01*
X135886827Y-82453115D01*
X135803115Y-82536827D01*
X135704680Y-82602600D01*
X135627340Y-82634635D01*
X135595305Y-82647904D01*
X135556601Y-82655603D01*
X135479195Y-82671000D01*
X135360805Y-82671000D01*
X135283399Y-82655603D01*
X135244695Y-82647904D01*
X135212660Y-82634635D01*
X135135320Y-82602600D01*
X135036885Y-82536827D01*
X134953173Y-82453115D01*
X134887400Y-82354680D01*
X134842096Y-82245304D01*
X134819000Y-82129195D01*
X134819000Y-82010805D01*
X134842096Y-81894696D01*
X134887400Y-81785320D01*
X134953173Y-81686885D01*
X135036885Y-81603173D01*
X135135320Y-81537400D01*
X135212660Y-81505365D01*
X135244695Y-81492096D01*
X135283399Y-81484397D01*
X135360805Y-81469000D01*
X135479195Y-81469000D01*
X135556601Y-81484397D01*
X135556601Y-81484397D01*
G37*
G36*
X137156601Y-81484397D02*
G01*
X137195305Y-81492096D01*
X137227340Y-81505365D01*
X137304680Y-81537400D01*
X137403115Y-81603173D01*
X137486827Y-81686885D01*
X137552600Y-81785320D01*
X137597904Y-81894696D01*
X137621000Y-82010805D01*
X137621000Y-82129195D01*
X137597904Y-82245304D01*
X137552600Y-82354680D01*
X137486827Y-82453115D01*
X137403115Y-82536827D01*
X137304680Y-82602600D01*
X137227340Y-82634635D01*
X137195305Y-82647904D01*
X137156601Y-82655603D01*
X137079195Y-82671000D01*
X136960805Y-82671000D01*
X136883399Y-82655603D01*
X136844695Y-82647904D01*
X136812660Y-82634635D01*
X136735320Y-82602600D01*
X136636885Y-82536827D01*
X136553173Y-82453115D01*
X136487400Y-82354680D01*
X136442096Y-82245304D01*
X136419000Y-82129195D01*
X136419000Y-82010805D01*
X136442096Y-81894696D01*
X136487400Y-81785320D01*
X136553173Y-81686885D01*
X136636885Y-81603173D01*
X136735320Y-81537400D01*
X136812660Y-81505365D01*
X136844695Y-81492096D01*
X136883399Y-81484397D01*
X136960805Y-81469000D01*
X137079195Y-81469000D01*
X137156601Y-81484397D01*
X137156601Y-81484397D01*
G37*
G36*
X117978213Y-80466249D02*
G01*
X118072652Y-80494897D01*
X118159687Y-80541418D01*
X118235975Y-80604025D01*
X118298582Y-80680313D01*
X118345103Y-80767348D01*
X118373751Y-80861787D01*
X118383424Y-80960000D01*
X118373751Y-81058213D01*
X118345103Y-81152652D01*
X118298582Y-81239687D01*
X118235975Y-81315975D01*
X118159687Y-81378582D01*
X118072652Y-81425103D01*
X117978213Y-81453751D01*
X117904612Y-81461000D01*
X116355388Y-81461000D01*
X116281787Y-81453751D01*
X116187348Y-81425103D01*
X116100313Y-81378582D01*
X116024025Y-81315975D01*
X115961418Y-81239687D01*
X115914897Y-81152652D01*
X115886249Y-81058213D01*
X115876576Y-80960000D01*
X115886249Y-80861787D01*
X115914897Y-80767348D01*
X115961418Y-80680313D01*
X116024025Y-80604025D01*
X116100313Y-80541418D01*
X116187348Y-80494897D01*
X116281787Y-80466249D01*
X116355388Y-80459000D01*
X117904612Y-80459000D01*
X117978213Y-80466249D01*
X117978213Y-80466249D01*
G37*
G36*
X114248213Y-80466249D02*
G01*
X114342652Y-80494897D01*
X114429687Y-80541418D01*
X114505975Y-80604025D01*
X114568582Y-80680313D01*
X114615103Y-80767348D01*
X114643751Y-80861787D01*
X114653424Y-80960000D01*
X114643751Y-81058213D01*
X114615103Y-81152652D01*
X114568582Y-81239687D01*
X114505975Y-81315975D01*
X114429687Y-81378582D01*
X114342652Y-81425103D01*
X114248213Y-81453751D01*
X114174612Y-81461000D01*
X113325388Y-81461000D01*
X113251787Y-81453751D01*
X113157348Y-81425103D01*
X113070313Y-81378582D01*
X112994025Y-81315975D01*
X112931418Y-81239687D01*
X112884897Y-81152652D01*
X112856249Y-81058213D01*
X112846576Y-80960000D01*
X112856249Y-80861787D01*
X112884897Y-80767348D01*
X112931418Y-80680313D01*
X112994025Y-80604025D01*
X113070313Y-80541418D01*
X113157348Y-80494897D01*
X113251787Y-80466249D01*
X113325388Y-80459000D01*
X114174612Y-80459000D01*
X114248213Y-80466249D01*
X114248213Y-80466249D01*
G37*
G36*
X116838231Y-73266705D02*
G01*
X116876967Y-73274410D01*
X116907195Y-73286931D01*
X116949944Y-73304638D01*
X117015622Y-73348523D01*
X117071477Y-73404378D01*
X117115362Y-73470056D01*
X117145590Y-73543034D01*
X117161000Y-73620504D01*
X117161000Y-73699496D01*
X117145590Y-73776966D01*
X117115362Y-73849944D01*
X117071477Y-73915622D01*
X117015621Y-73971478D01*
X117001270Y-73981067D01*
X116982328Y-73996613D01*
X116966783Y-74015555D01*
X116955232Y-74037165D01*
X116948119Y-74060614D01*
X116945717Y-74085001D01*
X116948119Y-74109387D01*
X116955232Y-74132836D01*
X116966783Y-74154446D01*
X116982329Y-74173388D01*
X117001270Y-74188933D01*
X117015621Y-74198522D01*
X117071477Y-74254378D01*
X117115362Y-74320056D01*
X117145590Y-74393034D01*
X117161000Y-74470504D01*
X117161000Y-74549496D01*
X117153295Y-74588231D01*
X117145590Y-74626967D01*
X117138907Y-74643100D01*
X117115362Y-74699944D01*
X117071477Y-74765622D01*
X117015621Y-74821478D01*
X117001270Y-74831067D01*
X116982328Y-74846613D01*
X116966783Y-74865555D01*
X116955232Y-74887165D01*
X116948119Y-74910614D01*
X116945717Y-74935001D01*
X116948119Y-74959387D01*
X116955232Y-74982836D01*
X116966783Y-75004446D01*
X116982329Y-75023388D01*
X117001270Y-75038933D01*
X117015621Y-75048522D01*
X117071477Y-75104378D01*
X117115362Y-75170056D01*
X117128306Y-75201307D01*
X117145590Y-75243033D01*
X117161000Y-75320505D01*
X117161000Y-75399495D01*
X117145590Y-75476967D01*
X117141909Y-75485853D01*
X117115362Y-75549944D01*
X117071477Y-75615622D01*
X117015621Y-75671478D01*
X117001270Y-75681067D01*
X116982328Y-75696613D01*
X116966783Y-75715555D01*
X116955232Y-75737165D01*
X116948119Y-75760614D01*
X116945717Y-75785001D01*
X116948119Y-75809387D01*
X116955232Y-75832836D01*
X116966783Y-75854446D01*
X116982329Y-75873388D01*
X117001270Y-75888933D01*
X117015621Y-75898522D01*
X117071477Y-75954378D01*
X117115362Y-76020056D01*
X117145590Y-76093034D01*
X117158152Y-76156184D01*
X117161000Y-76170505D01*
X117161000Y-76249495D01*
X117147611Y-76316809D01*
X117145590Y-76326966D01*
X117115362Y-76399944D01*
X117071477Y-76465622D01*
X117015621Y-76521478D01*
X117001270Y-76531067D01*
X116982328Y-76546613D01*
X116966783Y-76565555D01*
X116955232Y-76587165D01*
X116948119Y-76610614D01*
X116945717Y-76635001D01*
X116948119Y-76659387D01*
X116955232Y-76682836D01*
X116966783Y-76704446D01*
X116982329Y-76723388D01*
X117001270Y-76738933D01*
X117015621Y-76748522D01*
X117071477Y-76804378D01*
X117115362Y-76870056D01*
X117119583Y-76880247D01*
X117139689Y-76928786D01*
X117145590Y-76943034D01*
X117161000Y-77020504D01*
X117161000Y-77099496D01*
X117145590Y-77176966D01*
X117115362Y-77249944D01*
X117071477Y-77315622D01*
X117015621Y-77371478D01*
X117001270Y-77381067D01*
X116982328Y-77396613D01*
X116966783Y-77415555D01*
X116955232Y-77437165D01*
X116948119Y-77460614D01*
X116945717Y-77485001D01*
X116948119Y-77509387D01*
X116955232Y-77532836D01*
X116966783Y-77554446D01*
X116982329Y-77573388D01*
X117001270Y-77588933D01*
X117015621Y-77598522D01*
X117071477Y-77654378D01*
X117115362Y-77720056D01*
X117119688Y-77730500D01*
X117145590Y-77793033D01*
X117148334Y-77806830D01*
X117161000Y-77870504D01*
X117161000Y-77949496D01*
X117154441Y-77982471D01*
X117145590Y-78026967D01*
X117134185Y-78054500D01*
X117115362Y-78099944D01*
X117071477Y-78165622D01*
X117015621Y-78221478D01*
X117001270Y-78231067D01*
X116982328Y-78246613D01*
X116966783Y-78265555D01*
X116955232Y-78287165D01*
X116948119Y-78310614D01*
X116945717Y-78335001D01*
X116948119Y-78359387D01*
X116955232Y-78382836D01*
X116966783Y-78404446D01*
X116982329Y-78423388D01*
X117001270Y-78438933D01*
X117015621Y-78448522D01*
X117071477Y-78504378D01*
X117115362Y-78570056D01*
X117145590Y-78643034D01*
X117161000Y-78720504D01*
X117161000Y-78799496D01*
X117145590Y-78876966D01*
X117115362Y-78949944D01*
X117071477Y-79015622D01*
X117015621Y-79071478D01*
X117001270Y-79081067D01*
X116982328Y-79096613D01*
X116966783Y-79115555D01*
X116955232Y-79137165D01*
X116948119Y-79160614D01*
X116945717Y-79185001D01*
X116948119Y-79209387D01*
X116955232Y-79232836D01*
X116966783Y-79254446D01*
X116982329Y-79273388D01*
X117001270Y-79288933D01*
X117015621Y-79298522D01*
X117071477Y-79354378D01*
X117115362Y-79420056D01*
X117145590Y-79493034D01*
X117161000Y-79570504D01*
X117161000Y-79649496D01*
X117145590Y-79726966D01*
X117115362Y-79799944D01*
X117071477Y-79865622D01*
X117015622Y-79921477D01*
X116949944Y-79965362D01*
X116907195Y-79983069D01*
X116876967Y-79995590D01*
X116838231Y-80003295D01*
X116799496Y-80011000D01*
X116720504Y-80011000D01*
X116681769Y-80003295D01*
X116643033Y-79995590D01*
X116612805Y-79983069D01*
X116570056Y-79965362D01*
X116504378Y-79921477D01*
X116448523Y-79865622D01*
X116404638Y-79799944D01*
X116374410Y-79726966D01*
X116359000Y-79649496D01*
X116359000Y-79570504D01*
X116374410Y-79493034D01*
X116404638Y-79420056D01*
X116448523Y-79354378D01*
X116504379Y-79298522D01*
X116518730Y-79288933D01*
X116537672Y-79273387D01*
X116553217Y-79254445D01*
X116564768Y-79232835D01*
X116571881Y-79209386D01*
X116574283Y-79184999D01*
X116571881Y-79160613D01*
X116564768Y-79137164D01*
X116553217Y-79115554D01*
X116537671Y-79096612D01*
X116518730Y-79081067D01*
X116504379Y-79071478D01*
X116448523Y-79015622D01*
X116404638Y-78949944D01*
X116374410Y-78876966D01*
X116359000Y-78799496D01*
X116359000Y-78720504D01*
X116374410Y-78643034D01*
X116404638Y-78570056D01*
X116448523Y-78504378D01*
X116504379Y-78448522D01*
X116518730Y-78438933D01*
X116537672Y-78423387D01*
X116553217Y-78404445D01*
X116564768Y-78382835D01*
X116571881Y-78359386D01*
X116574283Y-78334999D01*
X116571881Y-78310613D01*
X116564768Y-78287164D01*
X116553217Y-78265554D01*
X116537671Y-78246612D01*
X116518730Y-78231067D01*
X116504379Y-78221478D01*
X116448523Y-78165622D01*
X116404638Y-78099944D01*
X116385815Y-78054500D01*
X116374410Y-78026967D01*
X116365559Y-77982471D01*
X116359000Y-77949496D01*
X116359000Y-77870504D01*
X116371666Y-77806830D01*
X116374410Y-77793033D01*
X116400312Y-77730500D01*
X116404638Y-77720056D01*
X116448523Y-77654378D01*
X116504379Y-77598522D01*
X116518730Y-77588933D01*
X116537672Y-77573387D01*
X116553217Y-77554445D01*
X116564768Y-77532835D01*
X116571881Y-77509386D01*
X116574283Y-77484999D01*
X116571881Y-77460613D01*
X116564768Y-77437164D01*
X116553217Y-77415554D01*
X116537671Y-77396612D01*
X116518730Y-77381067D01*
X116504379Y-77371478D01*
X116448523Y-77315622D01*
X116404638Y-77249944D01*
X116374410Y-77176966D01*
X116359000Y-77099496D01*
X116359000Y-77020504D01*
X116374410Y-76943034D01*
X116380312Y-76928786D01*
X116400417Y-76880247D01*
X116404638Y-76870056D01*
X116448523Y-76804378D01*
X116504379Y-76748522D01*
X116518730Y-76738933D01*
X116537672Y-76723387D01*
X116553217Y-76704445D01*
X116564768Y-76682835D01*
X116571881Y-76659386D01*
X116574283Y-76634999D01*
X116571881Y-76610613D01*
X116564768Y-76587164D01*
X116553217Y-76565554D01*
X116537671Y-76546612D01*
X116518730Y-76531067D01*
X116504379Y-76521478D01*
X116448523Y-76465622D01*
X116404638Y-76399944D01*
X116374410Y-76326966D01*
X116372390Y-76316809D01*
X116359000Y-76249495D01*
X116359000Y-76170505D01*
X116361849Y-76156184D01*
X116374410Y-76093034D01*
X116404638Y-76020056D01*
X116448523Y-75954378D01*
X116504379Y-75898522D01*
X116518730Y-75888933D01*
X116537672Y-75873387D01*
X116553217Y-75854445D01*
X116564768Y-75832835D01*
X116571881Y-75809386D01*
X116574283Y-75784999D01*
X116571881Y-75760613D01*
X116564768Y-75737164D01*
X116553217Y-75715554D01*
X116537671Y-75696612D01*
X116518730Y-75681067D01*
X116504379Y-75671478D01*
X116448523Y-75615622D01*
X116404638Y-75549944D01*
X116378091Y-75485853D01*
X116374410Y-75476967D01*
X116359000Y-75399495D01*
X116359000Y-75320505D01*
X116374410Y-75243033D01*
X116391694Y-75201307D01*
X116404638Y-75170056D01*
X116448523Y-75104378D01*
X116504379Y-75048522D01*
X116518730Y-75038933D01*
X116537672Y-75023387D01*
X116553217Y-75004445D01*
X116564768Y-74982835D01*
X116571881Y-74959386D01*
X116574283Y-74934999D01*
X116571881Y-74910613D01*
X116564768Y-74887164D01*
X116553217Y-74865554D01*
X116537671Y-74846612D01*
X116518730Y-74831067D01*
X116504379Y-74821478D01*
X116448523Y-74765622D01*
X116404638Y-74699944D01*
X116381093Y-74643100D01*
X116374410Y-74626967D01*
X116366705Y-74588231D01*
X116359000Y-74549496D01*
X116359000Y-74470504D01*
X116374410Y-74393034D01*
X116404638Y-74320056D01*
X116448523Y-74254378D01*
X116504379Y-74198522D01*
X116518730Y-74188933D01*
X116537672Y-74173387D01*
X116553217Y-74154445D01*
X116564768Y-74132835D01*
X116571881Y-74109386D01*
X116574283Y-74084999D01*
X116571881Y-74060613D01*
X116564768Y-74037164D01*
X116553217Y-74015554D01*
X116537671Y-73996612D01*
X116518730Y-73981067D01*
X116504379Y-73971478D01*
X116448523Y-73915622D01*
X116404638Y-73849944D01*
X116374410Y-73776966D01*
X116359000Y-73699496D01*
X116359000Y-73620504D01*
X116374410Y-73543034D01*
X116404638Y-73470056D01*
X116448523Y-73404378D01*
X116504378Y-73348523D01*
X116570056Y-73304638D01*
X116612805Y-73286931D01*
X116643033Y-73274410D01*
X116681769Y-73266705D01*
X116720504Y-73259000D01*
X116799496Y-73259000D01*
X116838231Y-73266705D01*
X116838231Y-73266705D01*
G37*
G36*
X118188231Y-73266705D02*
G01*
X118226967Y-73274410D01*
X118257195Y-73286931D01*
X118299944Y-73304638D01*
X118365622Y-73348523D01*
X118421477Y-73404378D01*
X118465362Y-73470056D01*
X118495590Y-73543034D01*
X118511000Y-73620504D01*
X118511000Y-73699496D01*
X118495590Y-73776966D01*
X118465362Y-73849944D01*
X118421477Y-73915622D01*
X118365621Y-73971478D01*
X118351270Y-73981067D01*
X118332328Y-73996613D01*
X118316783Y-74015555D01*
X118305232Y-74037165D01*
X118298119Y-74060614D01*
X118295717Y-74085001D01*
X118298119Y-74109387D01*
X118305232Y-74132836D01*
X118316783Y-74154446D01*
X118332329Y-74173388D01*
X118351270Y-74188933D01*
X118365621Y-74198522D01*
X118421477Y-74254378D01*
X118465362Y-74320056D01*
X118495590Y-74393034D01*
X118511000Y-74470504D01*
X118511000Y-74549496D01*
X118503295Y-74588231D01*
X118495590Y-74626967D01*
X118488907Y-74643100D01*
X118465362Y-74699944D01*
X118421477Y-74765622D01*
X118365621Y-74821478D01*
X118351270Y-74831067D01*
X118332328Y-74846613D01*
X118316783Y-74865555D01*
X118305232Y-74887165D01*
X118298119Y-74910614D01*
X118295717Y-74935001D01*
X118298119Y-74959387D01*
X118305232Y-74982836D01*
X118316783Y-75004446D01*
X118332329Y-75023388D01*
X118351270Y-75038933D01*
X118365621Y-75048522D01*
X118421477Y-75104378D01*
X118465362Y-75170056D01*
X118478306Y-75201307D01*
X118495590Y-75243033D01*
X118511000Y-75320505D01*
X118511000Y-75399495D01*
X118495590Y-75476967D01*
X118491909Y-75485853D01*
X118465362Y-75549944D01*
X118421477Y-75615622D01*
X118365621Y-75671478D01*
X118351270Y-75681067D01*
X118332328Y-75696613D01*
X118316783Y-75715555D01*
X118305232Y-75737165D01*
X118298119Y-75760614D01*
X118295717Y-75785001D01*
X118298119Y-75809387D01*
X118305232Y-75832836D01*
X118316783Y-75854446D01*
X118332329Y-75873388D01*
X118351270Y-75888933D01*
X118365621Y-75898522D01*
X118421477Y-75954378D01*
X118465362Y-76020056D01*
X118495590Y-76093034D01*
X118508152Y-76156184D01*
X118511000Y-76170505D01*
X118511000Y-76249495D01*
X118497611Y-76316809D01*
X118495590Y-76326966D01*
X118465362Y-76399944D01*
X118421477Y-76465622D01*
X118365621Y-76521478D01*
X118351270Y-76531067D01*
X118332328Y-76546613D01*
X118316783Y-76565555D01*
X118305232Y-76587165D01*
X118298119Y-76610614D01*
X118295717Y-76635001D01*
X118298119Y-76659387D01*
X118305232Y-76682836D01*
X118316783Y-76704446D01*
X118332329Y-76723388D01*
X118351270Y-76738933D01*
X118365621Y-76748522D01*
X118421477Y-76804378D01*
X118465362Y-76870056D01*
X118469583Y-76880247D01*
X118489689Y-76928786D01*
X118495590Y-76943034D01*
X118511000Y-77020504D01*
X118511000Y-77099496D01*
X118495590Y-77176966D01*
X118465362Y-77249944D01*
X118421477Y-77315622D01*
X118365621Y-77371478D01*
X118351270Y-77381067D01*
X118332328Y-77396613D01*
X118316783Y-77415555D01*
X118305232Y-77437165D01*
X118298119Y-77460614D01*
X118295717Y-77485001D01*
X118298119Y-77509387D01*
X118305232Y-77532836D01*
X118316783Y-77554446D01*
X118332329Y-77573388D01*
X118351270Y-77588933D01*
X118365621Y-77598522D01*
X118421477Y-77654378D01*
X118465362Y-77720056D01*
X118469688Y-77730500D01*
X118495590Y-77793033D01*
X118498334Y-77806830D01*
X118511000Y-77870504D01*
X118511000Y-77949496D01*
X118504441Y-77982471D01*
X118495590Y-78026967D01*
X118484185Y-78054500D01*
X118465362Y-78099944D01*
X118421477Y-78165622D01*
X118365621Y-78221478D01*
X118351270Y-78231067D01*
X118332328Y-78246613D01*
X118316783Y-78265555D01*
X118305232Y-78287165D01*
X118298119Y-78310614D01*
X118295717Y-78335001D01*
X118298119Y-78359387D01*
X118305232Y-78382836D01*
X118316783Y-78404446D01*
X118332329Y-78423388D01*
X118351270Y-78438933D01*
X118365621Y-78448522D01*
X118421477Y-78504378D01*
X118465362Y-78570056D01*
X118495590Y-78643034D01*
X118511000Y-78720504D01*
X118511000Y-78799496D01*
X118495590Y-78876966D01*
X118465362Y-78949944D01*
X118421477Y-79015622D01*
X118365621Y-79071478D01*
X118351270Y-79081067D01*
X118332328Y-79096613D01*
X118316783Y-79115555D01*
X118305232Y-79137165D01*
X118298119Y-79160614D01*
X118295717Y-79185001D01*
X118298119Y-79209387D01*
X118305232Y-79232836D01*
X118316783Y-79254446D01*
X118332329Y-79273388D01*
X118351270Y-79288933D01*
X118365621Y-79298522D01*
X118421477Y-79354378D01*
X118465362Y-79420056D01*
X118495590Y-79493034D01*
X118511000Y-79570504D01*
X118511000Y-79649496D01*
X118495590Y-79726966D01*
X118465362Y-79799944D01*
X118421477Y-79865622D01*
X118365622Y-79921477D01*
X118299944Y-79965362D01*
X118257195Y-79983069D01*
X118226967Y-79995590D01*
X118188231Y-80003295D01*
X118149496Y-80011000D01*
X118070504Y-80011000D01*
X118031769Y-80003295D01*
X117993033Y-79995590D01*
X117962805Y-79983069D01*
X117920056Y-79965362D01*
X117854378Y-79921477D01*
X117798523Y-79865622D01*
X117754638Y-79799944D01*
X117724410Y-79726966D01*
X117709000Y-79649496D01*
X117709000Y-79570504D01*
X117724410Y-79493034D01*
X117754638Y-79420056D01*
X117798523Y-79354378D01*
X117854379Y-79298522D01*
X117868730Y-79288933D01*
X117887672Y-79273387D01*
X117903217Y-79254445D01*
X117914768Y-79232835D01*
X117921881Y-79209386D01*
X117924283Y-79184999D01*
X117921881Y-79160613D01*
X117914768Y-79137164D01*
X117903217Y-79115554D01*
X117887671Y-79096612D01*
X117868730Y-79081067D01*
X117854379Y-79071478D01*
X117798523Y-79015622D01*
X117754638Y-78949944D01*
X117724410Y-78876966D01*
X117709000Y-78799496D01*
X117709000Y-78720504D01*
X117724410Y-78643034D01*
X117754638Y-78570056D01*
X117798523Y-78504378D01*
X117854379Y-78448522D01*
X117868730Y-78438933D01*
X117887672Y-78423387D01*
X117903217Y-78404445D01*
X117914768Y-78382835D01*
X117921881Y-78359386D01*
X117924283Y-78334999D01*
X117921881Y-78310613D01*
X117914768Y-78287164D01*
X117903217Y-78265554D01*
X117887671Y-78246612D01*
X117868730Y-78231067D01*
X117854379Y-78221478D01*
X117798523Y-78165622D01*
X117754638Y-78099944D01*
X117735815Y-78054500D01*
X117724410Y-78026967D01*
X117715559Y-77982471D01*
X117709000Y-77949496D01*
X117709000Y-77870504D01*
X117721666Y-77806830D01*
X117724410Y-77793033D01*
X117750312Y-77730500D01*
X117754638Y-77720056D01*
X117798523Y-77654378D01*
X117854379Y-77598522D01*
X117868730Y-77588933D01*
X117887672Y-77573387D01*
X117903217Y-77554445D01*
X117914768Y-77532835D01*
X117921881Y-77509386D01*
X117924283Y-77484999D01*
X117921881Y-77460613D01*
X117914768Y-77437164D01*
X117903217Y-77415554D01*
X117887671Y-77396612D01*
X117868730Y-77381067D01*
X117854379Y-77371478D01*
X117798523Y-77315622D01*
X117754638Y-77249944D01*
X117724410Y-77176966D01*
X117709000Y-77099496D01*
X117709000Y-77020504D01*
X117724410Y-76943034D01*
X117730312Y-76928786D01*
X117750417Y-76880247D01*
X117754638Y-76870056D01*
X117798523Y-76804378D01*
X117854379Y-76748522D01*
X117868730Y-76738933D01*
X117887672Y-76723387D01*
X117903217Y-76704445D01*
X117914768Y-76682835D01*
X117921881Y-76659386D01*
X117924283Y-76634999D01*
X117921881Y-76610613D01*
X117914768Y-76587164D01*
X117903217Y-76565554D01*
X117887671Y-76546612D01*
X117868730Y-76531067D01*
X117854379Y-76521478D01*
X117798523Y-76465622D01*
X117754638Y-76399944D01*
X117724410Y-76326966D01*
X117722390Y-76316809D01*
X117709000Y-76249495D01*
X117709000Y-76170505D01*
X117711849Y-76156184D01*
X117724410Y-76093034D01*
X117754638Y-76020056D01*
X117798523Y-75954378D01*
X117854379Y-75898522D01*
X117868730Y-75888933D01*
X117887672Y-75873387D01*
X117903217Y-75854445D01*
X117914768Y-75832835D01*
X117921881Y-75809386D01*
X117924283Y-75784999D01*
X117921881Y-75760613D01*
X117914768Y-75737164D01*
X117903217Y-75715554D01*
X117887671Y-75696612D01*
X117868730Y-75681067D01*
X117854379Y-75671478D01*
X117798523Y-75615622D01*
X117754638Y-75549944D01*
X117728091Y-75485853D01*
X117724410Y-75476967D01*
X117709000Y-75399495D01*
X117709000Y-75320505D01*
X117724410Y-75243033D01*
X117741694Y-75201307D01*
X117754638Y-75170056D01*
X117798523Y-75104378D01*
X117854379Y-75048522D01*
X117868730Y-75038933D01*
X117887672Y-75023387D01*
X117903217Y-75004445D01*
X117914768Y-74982835D01*
X117921881Y-74959386D01*
X117924283Y-74934999D01*
X117921881Y-74910613D01*
X117914768Y-74887164D01*
X117903217Y-74865554D01*
X117887671Y-74846612D01*
X117868730Y-74831067D01*
X117854379Y-74821478D01*
X117798523Y-74765622D01*
X117754638Y-74699944D01*
X117731093Y-74643100D01*
X117724410Y-74626967D01*
X117716705Y-74588231D01*
X117709000Y-74549496D01*
X117709000Y-74470504D01*
X117724410Y-74393034D01*
X117754638Y-74320056D01*
X117798523Y-74254378D01*
X117854379Y-74198522D01*
X117868730Y-74188933D01*
X117887672Y-74173387D01*
X117903217Y-74154445D01*
X117914768Y-74132835D01*
X117921881Y-74109386D01*
X117924283Y-74084999D01*
X117921881Y-74060613D01*
X117914768Y-74037164D01*
X117903217Y-74015554D01*
X117887671Y-73996612D01*
X117868730Y-73981067D01*
X117854379Y-73971478D01*
X117798523Y-73915622D01*
X117754638Y-73849944D01*
X117724410Y-73776966D01*
X117709000Y-73699496D01*
X117709000Y-73620504D01*
X117724410Y-73543034D01*
X117754638Y-73470056D01*
X117798523Y-73404378D01*
X117854378Y-73348523D01*
X117920056Y-73304638D01*
X117962805Y-73286931D01*
X117993033Y-73274410D01*
X118031769Y-73266705D01*
X118070504Y-73259000D01*
X118149496Y-73259000D01*
X118188231Y-73266705D01*
X118188231Y-73266705D01*
G37*
G36*
X146901000Y-79591000D02*
G01*
X145199000Y-79591000D01*
X145199000Y-77889000D01*
X146901000Y-77889000D01*
X146901000Y-79591000D01*
X146901000Y-79591000D01*
G37*
G36*
X125385355Y-74467583D02*
G01*
X125390029Y-74469001D01*
X125394330Y-74471300D01*
X125400702Y-74476529D01*
X125421076Y-74490143D01*
X125443715Y-74499520D01*
X125467749Y-74504300D01*
X125492253Y-74504300D01*
X125516286Y-74499519D01*
X125538925Y-74490142D01*
X125559298Y-74476529D01*
X125565670Y-74471300D01*
X125569971Y-74469001D01*
X125574645Y-74467583D01*
X125585641Y-74466500D01*
X125874359Y-74466500D01*
X125885355Y-74467583D01*
X125890029Y-74469001D01*
X125894330Y-74471300D01*
X125900702Y-74476529D01*
X125921076Y-74490143D01*
X125943715Y-74499520D01*
X125967749Y-74504300D01*
X125992253Y-74504300D01*
X126016286Y-74499519D01*
X126038925Y-74490142D01*
X126059298Y-74476529D01*
X126065670Y-74471300D01*
X126069971Y-74469001D01*
X126074645Y-74467583D01*
X126085641Y-74466500D01*
X126374359Y-74466500D01*
X126385355Y-74467583D01*
X126390029Y-74469001D01*
X126394330Y-74471300D01*
X126400702Y-74476529D01*
X126421076Y-74490143D01*
X126443715Y-74499520D01*
X126467749Y-74504300D01*
X126492253Y-74504300D01*
X126516286Y-74499519D01*
X126538925Y-74490142D01*
X126559298Y-74476529D01*
X126565670Y-74471300D01*
X126569971Y-74469001D01*
X126574645Y-74467583D01*
X126585641Y-74466500D01*
X126874359Y-74466500D01*
X126885355Y-74467583D01*
X126890029Y-74469001D01*
X126894330Y-74471300D01*
X126900702Y-74476529D01*
X126921076Y-74490143D01*
X126943715Y-74499520D01*
X126967749Y-74504300D01*
X126992253Y-74504300D01*
X127016286Y-74499519D01*
X127038925Y-74490142D01*
X127059298Y-74476529D01*
X127065670Y-74471300D01*
X127069971Y-74469001D01*
X127074645Y-74467583D01*
X127085641Y-74466500D01*
X127374359Y-74466500D01*
X127385355Y-74467583D01*
X127390029Y-74469001D01*
X127394330Y-74471300D01*
X127400702Y-74476529D01*
X127421076Y-74490143D01*
X127443715Y-74499520D01*
X127467749Y-74504300D01*
X127492253Y-74504300D01*
X127516286Y-74499519D01*
X127538925Y-74490142D01*
X127559298Y-74476529D01*
X127565670Y-74471300D01*
X127569971Y-74469001D01*
X127574645Y-74467583D01*
X127585641Y-74466500D01*
X127874359Y-74466500D01*
X127885355Y-74467583D01*
X127890029Y-74469001D01*
X127894331Y-74471300D01*
X127898104Y-74474396D01*
X127901200Y-74478169D01*
X127903499Y-74482471D01*
X127904917Y-74487145D01*
X127906000Y-74498141D01*
X127906000Y-75341501D01*
X127908402Y-75365887D01*
X127915515Y-75389336D01*
X127927066Y-75410947D01*
X127942611Y-75429889D01*
X127961553Y-75445434D01*
X127983164Y-75456985D01*
X128006613Y-75464098D01*
X128030999Y-75466500D01*
X128874359Y-75466500D01*
X128885355Y-75467583D01*
X128890029Y-75469001D01*
X128894331Y-75471300D01*
X128898104Y-75474396D01*
X128901200Y-75478169D01*
X128903499Y-75482471D01*
X128904917Y-75487145D01*
X128906000Y-75498141D01*
X128906000Y-75786859D01*
X128904917Y-75797855D01*
X128903499Y-75802529D01*
X128901200Y-75806830D01*
X128895971Y-75813202D01*
X128882357Y-75833576D01*
X128872980Y-75856215D01*
X128868200Y-75880249D01*
X128868200Y-75904753D01*
X128872981Y-75928786D01*
X128882358Y-75951425D01*
X128895971Y-75971798D01*
X128901200Y-75978170D01*
X128903499Y-75982471D01*
X128904917Y-75987145D01*
X128906000Y-75998141D01*
X128906000Y-76286859D01*
X128904917Y-76297855D01*
X128903499Y-76302529D01*
X128901200Y-76306830D01*
X128895971Y-76313202D01*
X128882357Y-76333576D01*
X128872980Y-76356215D01*
X128868200Y-76380249D01*
X128868200Y-76404753D01*
X128872981Y-76428786D01*
X128882358Y-76451425D01*
X128895971Y-76471798D01*
X128901200Y-76478170D01*
X128903499Y-76482471D01*
X128904917Y-76487145D01*
X128906000Y-76498141D01*
X128906000Y-76786859D01*
X128904917Y-76797855D01*
X128903499Y-76802529D01*
X128901200Y-76806830D01*
X128895971Y-76813202D01*
X128882357Y-76833576D01*
X128872980Y-76856215D01*
X128868200Y-76880249D01*
X128868200Y-76904753D01*
X128872981Y-76928786D01*
X128882358Y-76951425D01*
X128895971Y-76971798D01*
X128901200Y-76978170D01*
X128903499Y-76982471D01*
X128904917Y-76987145D01*
X128906000Y-76998141D01*
X128906000Y-77286859D01*
X128904917Y-77297855D01*
X128903499Y-77302529D01*
X128901200Y-77306830D01*
X128895971Y-77313202D01*
X128882357Y-77333576D01*
X128872980Y-77356215D01*
X128868200Y-77380249D01*
X128868200Y-77404753D01*
X128872981Y-77428786D01*
X128882358Y-77451425D01*
X128895971Y-77471798D01*
X128901200Y-77478170D01*
X128903499Y-77482471D01*
X128904917Y-77487145D01*
X128906000Y-77498141D01*
X128906000Y-77786859D01*
X128904917Y-77797855D01*
X128903499Y-77802529D01*
X128901200Y-77806830D01*
X128895971Y-77813202D01*
X128882357Y-77833576D01*
X128872980Y-77856215D01*
X128868200Y-77880249D01*
X128868200Y-77904753D01*
X128872981Y-77928786D01*
X128882358Y-77951425D01*
X128895971Y-77971798D01*
X128901200Y-77978170D01*
X128903499Y-77982471D01*
X128904917Y-77987145D01*
X128906000Y-77998141D01*
X128906000Y-78286859D01*
X128904917Y-78297855D01*
X128903499Y-78302529D01*
X128901200Y-78306831D01*
X128898104Y-78310604D01*
X128894331Y-78313700D01*
X128890029Y-78315999D01*
X128885355Y-78317417D01*
X128874359Y-78318500D01*
X128030999Y-78318500D01*
X128006613Y-78320902D01*
X127983164Y-78328015D01*
X127961553Y-78339566D01*
X127942611Y-78355111D01*
X127927066Y-78374053D01*
X127915515Y-78395664D01*
X127908402Y-78419113D01*
X127906000Y-78443499D01*
X127906000Y-79286859D01*
X127904917Y-79297855D01*
X127903499Y-79302529D01*
X127901200Y-79306831D01*
X127898104Y-79310604D01*
X127894331Y-79313700D01*
X127890029Y-79315999D01*
X127885355Y-79317417D01*
X127874359Y-79318500D01*
X127585641Y-79318500D01*
X127574645Y-79317417D01*
X127569971Y-79315999D01*
X127565670Y-79313700D01*
X127559298Y-79308471D01*
X127538924Y-79294857D01*
X127516285Y-79285480D01*
X127492251Y-79280700D01*
X127467747Y-79280700D01*
X127443714Y-79285481D01*
X127421075Y-79294858D01*
X127400702Y-79308471D01*
X127394330Y-79313700D01*
X127390029Y-79315999D01*
X127385355Y-79317417D01*
X127374359Y-79318500D01*
X127085641Y-79318500D01*
X127074645Y-79317417D01*
X127069971Y-79315999D01*
X127065670Y-79313700D01*
X127059298Y-79308471D01*
X127038924Y-79294857D01*
X127016285Y-79285480D01*
X126992251Y-79280700D01*
X126967747Y-79280700D01*
X126943714Y-79285481D01*
X126921075Y-79294858D01*
X126900702Y-79308471D01*
X126894330Y-79313700D01*
X126890029Y-79315999D01*
X126885355Y-79317417D01*
X126874359Y-79318500D01*
X126585641Y-79318500D01*
X126574645Y-79317417D01*
X126569971Y-79315999D01*
X126565670Y-79313700D01*
X126559298Y-79308471D01*
X126538924Y-79294857D01*
X126516285Y-79285480D01*
X126492251Y-79280700D01*
X126467747Y-79280700D01*
X126443714Y-79285481D01*
X126421075Y-79294858D01*
X126400702Y-79308471D01*
X126394330Y-79313700D01*
X126390029Y-79315999D01*
X126385355Y-79317417D01*
X126374359Y-79318500D01*
X126085641Y-79318500D01*
X126074645Y-79317417D01*
X126069971Y-79315999D01*
X126065670Y-79313700D01*
X126059298Y-79308471D01*
X126038924Y-79294857D01*
X126016285Y-79285480D01*
X125992251Y-79280700D01*
X125967747Y-79280700D01*
X125943714Y-79285481D01*
X125921075Y-79294858D01*
X125900702Y-79308471D01*
X125894330Y-79313700D01*
X125890029Y-79315999D01*
X125885355Y-79317417D01*
X125874359Y-79318500D01*
X125585641Y-79318500D01*
X125574645Y-79317417D01*
X125569971Y-79315999D01*
X125565670Y-79313700D01*
X125559298Y-79308471D01*
X125538924Y-79294857D01*
X125516285Y-79285480D01*
X125492251Y-79280700D01*
X125467747Y-79280700D01*
X125443714Y-79285481D01*
X125421075Y-79294858D01*
X125400702Y-79308471D01*
X125394330Y-79313700D01*
X125390029Y-79315999D01*
X125385355Y-79317417D01*
X125374359Y-79318500D01*
X125085641Y-79318500D01*
X125074645Y-79317417D01*
X125069971Y-79315999D01*
X125065669Y-79313700D01*
X125061896Y-79310604D01*
X125058800Y-79306831D01*
X125056501Y-79302529D01*
X125055083Y-79297855D01*
X125054000Y-79286859D01*
X125054000Y-78443499D01*
X125051598Y-78419113D01*
X125044485Y-78395664D01*
X125032934Y-78374053D01*
X125017389Y-78355111D01*
X124998447Y-78339566D01*
X124976836Y-78328015D01*
X124953387Y-78320902D01*
X124929001Y-78318500D01*
X124085641Y-78318500D01*
X124074645Y-78317417D01*
X124069971Y-78315999D01*
X124065669Y-78313700D01*
X124061896Y-78310604D01*
X124058800Y-78306831D01*
X124056501Y-78302529D01*
X124055083Y-78297855D01*
X124054000Y-78286859D01*
X124054000Y-77998141D01*
X124055083Y-77987145D01*
X124056501Y-77982471D01*
X124058800Y-77978170D01*
X124064029Y-77971798D01*
X124077643Y-77951424D01*
X124087020Y-77928785D01*
X124091800Y-77904751D01*
X124091800Y-77880247D01*
X124087019Y-77856214D01*
X124077642Y-77833575D01*
X124064029Y-77813202D01*
X124058800Y-77806830D01*
X124056501Y-77802529D01*
X124055083Y-77797855D01*
X124054000Y-77786859D01*
X124054000Y-77498141D01*
X124055083Y-77487145D01*
X124056501Y-77482471D01*
X124058800Y-77478170D01*
X124064029Y-77471798D01*
X124077643Y-77451424D01*
X124087020Y-77428785D01*
X124091800Y-77404751D01*
X124091800Y-77380247D01*
X124087019Y-77356214D01*
X124077642Y-77333575D01*
X124064029Y-77313202D01*
X124058800Y-77306830D01*
X124056501Y-77302529D01*
X124055083Y-77297855D01*
X124054000Y-77286859D01*
X124054000Y-76998141D01*
X124055083Y-76987145D01*
X124056501Y-76982471D01*
X124058800Y-76978170D01*
X124064029Y-76971798D01*
X124077643Y-76951424D01*
X124087020Y-76928785D01*
X124091800Y-76904751D01*
X124091800Y-76880247D01*
X124087019Y-76856214D01*
X124077642Y-76833575D01*
X124064029Y-76813202D01*
X124058800Y-76806830D01*
X124056501Y-76802529D01*
X124055083Y-76797855D01*
X124054000Y-76786859D01*
X124054000Y-76498141D01*
X124055083Y-76487145D01*
X124056501Y-76482471D01*
X124058800Y-76478170D01*
X124064029Y-76471798D01*
X124077643Y-76451424D01*
X124087020Y-76428785D01*
X124091800Y-76404751D01*
X124091800Y-76380247D01*
X124087019Y-76356214D01*
X124077642Y-76333575D01*
X124064029Y-76313202D01*
X124058800Y-76306830D01*
X124056501Y-76302529D01*
X124055083Y-76297855D01*
X124054000Y-76286859D01*
X124054000Y-75998141D01*
X124055083Y-75987145D01*
X124056501Y-75982471D01*
X124058800Y-75978170D01*
X124064029Y-75971798D01*
X124077643Y-75951424D01*
X124087020Y-75928785D01*
X124091800Y-75904751D01*
X124091800Y-75880247D01*
X124087019Y-75856214D01*
X124077642Y-75833575D01*
X124064029Y-75813202D01*
X124058800Y-75806830D01*
X124056501Y-75802529D01*
X124055083Y-75797855D01*
X124054000Y-75786859D01*
X124054000Y-75498141D01*
X124055083Y-75487145D01*
X124056501Y-75482471D01*
X124058800Y-75478169D01*
X124061896Y-75474396D01*
X124065669Y-75471300D01*
X124069971Y-75469001D01*
X124074645Y-75467583D01*
X124085641Y-75466500D01*
X124929001Y-75466500D01*
X124953387Y-75464098D01*
X124976836Y-75456985D01*
X124998447Y-75445434D01*
X125017389Y-75429889D01*
X125032934Y-75410947D01*
X125044485Y-75389336D01*
X125051598Y-75365887D01*
X125054000Y-75341501D01*
X125054000Y-74498141D01*
X125055083Y-74487145D01*
X125056501Y-74482471D01*
X125058800Y-74478169D01*
X125061896Y-74474396D01*
X125065669Y-74471300D01*
X125069971Y-74469001D01*
X125074645Y-74467583D01*
X125085641Y-74466500D01*
X125374359Y-74466500D01*
X125385355Y-74467583D01*
X125385355Y-74467583D01*
G37*
G36*
X146298228Y-75421703D02*
G01*
X146453100Y-75485853D01*
X146592481Y-75578985D01*
X146711015Y-75697519D01*
X146804147Y-75836900D01*
X146868297Y-75991772D01*
X146901000Y-76156184D01*
X146901000Y-76323816D01*
X146868297Y-76488228D01*
X146804147Y-76643100D01*
X146711015Y-76782481D01*
X146592481Y-76901015D01*
X146453100Y-76994147D01*
X146298228Y-77058297D01*
X146133816Y-77091000D01*
X145966184Y-77091000D01*
X145801772Y-77058297D01*
X145646900Y-76994147D01*
X145507519Y-76901015D01*
X145388985Y-76782481D01*
X145295853Y-76643100D01*
X145231703Y-76488228D01*
X145199000Y-76323816D01*
X145199000Y-76156184D01*
X145231703Y-75991772D01*
X145295853Y-75836900D01*
X145388985Y-75697519D01*
X145507519Y-75578985D01*
X145646900Y-75485853D01*
X145801772Y-75421703D01*
X145966184Y-75389000D01*
X146133816Y-75389000D01*
X146298228Y-75421703D01*
X146298228Y-75421703D01*
G37*
G36*
X135444591Y-74158085D02*
G01*
X135478569Y-74168393D01*
X135509890Y-74185134D01*
X135537339Y-74207661D01*
X135559866Y-74235110D01*
X135576607Y-74266431D01*
X135586915Y-74300409D01*
X135591000Y-74341890D01*
X135591000Y-75018110D01*
X135586915Y-75059591D01*
X135576607Y-75093569D01*
X135559866Y-75124890D01*
X135537339Y-75152339D01*
X135509890Y-75174866D01*
X135478569Y-75191607D01*
X135444591Y-75201915D01*
X135403110Y-75206000D01*
X134801890Y-75206000D01*
X134760409Y-75201915D01*
X134726431Y-75191607D01*
X134695110Y-75174866D01*
X134667661Y-75152339D01*
X134645134Y-75124890D01*
X134628393Y-75093569D01*
X134618085Y-75059591D01*
X134614000Y-75018110D01*
X134614000Y-74341890D01*
X134618085Y-74300409D01*
X134628393Y-74266431D01*
X134645134Y-74235110D01*
X134667661Y-74207661D01*
X134695110Y-74185134D01*
X134726431Y-74168393D01*
X134760409Y-74158085D01*
X134801890Y-74154000D01*
X135403110Y-74154000D01*
X135444591Y-74158085D01*
X135444591Y-74158085D01*
G37*
G36*
X139254591Y-74158085D02*
G01*
X139288569Y-74168393D01*
X139319890Y-74185134D01*
X139347339Y-74207661D01*
X139369866Y-74235110D01*
X139386607Y-74266431D01*
X139396915Y-74300409D01*
X139401000Y-74341890D01*
X139401000Y-75018110D01*
X139396915Y-75059591D01*
X139386607Y-75093569D01*
X139369866Y-75124890D01*
X139347339Y-75152339D01*
X139319890Y-75174866D01*
X139288569Y-75191607D01*
X139254591Y-75201915D01*
X139213110Y-75206000D01*
X138611890Y-75206000D01*
X138570409Y-75201915D01*
X138536431Y-75191607D01*
X138505110Y-75174866D01*
X138477661Y-75152339D01*
X138455134Y-75124890D01*
X138438393Y-75093569D01*
X138428085Y-75059591D01*
X138424000Y-75018110D01*
X138424000Y-74341890D01*
X138428085Y-74300409D01*
X138438393Y-74266431D01*
X138455134Y-74235110D01*
X138477661Y-74207661D01*
X138505110Y-74185134D01*
X138536431Y-74168393D01*
X138570409Y-74158085D01*
X138611890Y-74154000D01*
X139213110Y-74154000D01*
X139254591Y-74158085D01*
X139254591Y-74158085D01*
G37*
G36*
X137019591Y-74158085D02*
G01*
X137053569Y-74168393D01*
X137084890Y-74185134D01*
X137112339Y-74207661D01*
X137134866Y-74235110D01*
X137151607Y-74266431D01*
X137161915Y-74300409D01*
X137166000Y-74341890D01*
X137166000Y-75018110D01*
X137161915Y-75059591D01*
X137151607Y-75093569D01*
X137134866Y-75124890D01*
X137112339Y-75152339D01*
X137084890Y-75174866D01*
X137053569Y-75191607D01*
X137019591Y-75201915D01*
X136978110Y-75206000D01*
X136376890Y-75206000D01*
X136335409Y-75201915D01*
X136301431Y-75191607D01*
X136270110Y-75174866D01*
X136242661Y-75152339D01*
X136220134Y-75124890D01*
X136203393Y-75093569D01*
X136193085Y-75059591D01*
X136189000Y-75018110D01*
X136189000Y-74341890D01*
X136193085Y-74300409D01*
X136203393Y-74266431D01*
X136220134Y-74235110D01*
X136242661Y-74207661D01*
X136270110Y-74185134D01*
X136301431Y-74168393D01*
X136335409Y-74158085D01*
X136376890Y-74154000D01*
X136978110Y-74154000D01*
X137019591Y-74158085D01*
X137019591Y-74158085D01*
G37*
G36*
X140829591Y-74158085D02*
G01*
X140863569Y-74168393D01*
X140894890Y-74185134D01*
X140922339Y-74207661D01*
X140944866Y-74235110D01*
X140961607Y-74266431D01*
X140971915Y-74300409D01*
X140976000Y-74341890D01*
X140976000Y-75018110D01*
X140971915Y-75059591D01*
X140961607Y-75093569D01*
X140944866Y-75124890D01*
X140922339Y-75152339D01*
X140894890Y-75174866D01*
X140863569Y-75191607D01*
X140829591Y-75201915D01*
X140788110Y-75206000D01*
X140186890Y-75206000D01*
X140145409Y-75201915D01*
X140111431Y-75191607D01*
X140080110Y-75174866D01*
X140052661Y-75152339D01*
X140030134Y-75124890D01*
X140013393Y-75093569D01*
X140003085Y-75059591D01*
X139999000Y-75018110D01*
X139999000Y-74341890D01*
X140003085Y-74300409D01*
X140013393Y-74266431D01*
X140030134Y-74235110D01*
X140052661Y-74207661D01*
X140080110Y-74185134D01*
X140111431Y-74168393D01*
X140145409Y-74158085D01*
X140186890Y-74154000D01*
X140788110Y-74154000D01*
X140829591Y-74158085D01*
X140829591Y-74158085D01*
G37*
G36*
X146298228Y-73421703D02*
G01*
X146453100Y-73485853D01*
X146592481Y-73578985D01*
X146711015Y-73697519D01*
X146804147Y-73836900D01*
X146868297Y-73991772D01*
X146901000Y-74156184D01*
X146901000Y-74323816D01*
X146868297Y-74488228D01*
X146804147Y-74643100D01*
X146711015Y-74782481D01*
X146592481Y-74901015D01*
X146453100Y-74994147D01*
X146298228Y-75058297D01*
X146133816Y-75091000D01*
X145966184Y-75091000D01*
X145801772Y-75058297D01*
X145646900Y-74994147D01*
X145507519Y-74901015D01*
X145388985Y-74782481D01*
X145295853Y-74643100D01*
X145231703Y-74488228D01*
X145199000Y-74323816D01*
X145199000Y-74156184D01*
X145231703Y-73991772D01*
X145295853Y-73836900D01*
X145388985Y-73697519D01*
X145507519Y-73578985D01*
X145646900Y-73485853D01*
X145801772Y-73421703D01*
X145966184Y-73389000D01*
X146133816Y-73389000D01*
X146298228Y-73421703D01*
X146298228Y-73421703D01*
G37*
G36*
X137019591Y-71868085D02*
G01*
X137053569Y-71878393D01*
X137084890Y-71895134D01*
X137112339Y-71917661D01*
X137134866Y-71945110D01*
X137151607Y-71976431D01*
X137161915Y-72010409D01*
X137166000Y-72051890D01*
X137166000Y-72728110D01*
X137161915Y-72769591D01*
X137151607Y-72803569D01*
X137134866Y-72834890D01*
X137112339Y-72862339D01*
X137084890Y-72884866D01*
X137053569Y-72901607D01*
X137019591Y-72911915D01*
X136978110Y-72916000D01*
X136376890Y-72916000D01*
X136335409Y-72911915D01*
X136301431Y-72901607D01*
X136270110Y-72884866D01*
X136242661Y-72862339D01*
X136220134Y-72834890D01*
X136203393Y-72803569D01*
X136193085Y-72769591D01*
X136189000Y-72728110D01*
X136189000Y-72051890D01*
X136193085Y-72010409D01*
X136203393Y-71976431D01*
X136220134Y-71945110D01*
X136242661Y-71917661D01*
X136270110Y-71895134D01*
X136301431Y-71878393D01*
X136335409Y-71868085D01*
X136376890Y-71864000D01*
X136978110Y-71864000D01*
X137019591Y-71868085D01*
X137019591Y-71868085D01*
G37*
G36*
X139254591Y-71868085D02*
G01*
X139288569Y-71878393D01*
X139319890Y-71895134D01*
X139347339Y-71917661D01*
X139369866Y-71945110D01*
X139386607Y-71976431D01*
X139396915Y-72010409D01*
X139401000Y-72051890D01*
X139401000Y-72728110D01*
X139396915Y-72769591D01*
X139386607Y-72803569D01*
X139369866Y-72834890D01*
X139347339Y-72862339D01*
X139319890Y-72884866D01*
X139288569Y-72901607D01*
X139254591Y-72911915D01*
X139213110Y-72916000D01*
X138611890Y-72916000D01*
X138570409Y-72911915D01*
X138536431Y-72901607D01*
X138505110Y-72884866D01*
X138477661Y-72862339D01*
X138455134Y-72834890D01*
X138438393Y-72803569D01*
X138428085Y-72769591D01*
X138424000Y-72728110D01*
X138424000Y-72051890D01*
X138428085Y-72010409D01*
X138438393Y-71976431D01*
X138455134Y-71945110D01*
X138477661Y-71917661D01*
X138505110Y-71895134D01*
X138536431Y-71878393D01*
X138570409Y-71868085D01*
X138611890Y-71864000D01*
X139213110Y-71864000D01*
X139254591Y-71868085D01*
X139254591Y-71868085D01*
G37*
G36*
X140829591Y-71868085D02*
G01*
X140863569Y-71878393D01*
X140894890Y-71895134D01*
X140922339Y-71917661D01*
X140944866Y-71945110D01*
X140961607Y-71976431D01*
X140971915Y-72010409D01*
X140976000Y-72051890D01*
X140976000Y-72728110D01*
X140971915Y-72769591D01*
X140961607Y-72803569D01*
X140944866Y-72834890D01*
X140922339Y-72862339D01*
X140894890Y-72884866D01*
X140863569Y-72901607D01*
X140829591Y-72911915D01*
X140788110Y-72916000D01*
X140186890Y-72916000D01*
X140145409Y-72911915D01*
X140111431Y-72901607D01*
X140080110Y-72884866D01*
X140052661Y-72862339D01*
X140030134Y-72834890D01*
X140013393Y-72803569D01*
X140003085Y-72769591D01*
X139999000Y-72728110D01*
X139999000Y-72051890D01*
X140003085Y-72010409D01*
X140013393Y-71976431D01*
X140030134Y-71945110D01*
X140052661Y-71917661D01*
X140080110Y-71895134D01*
X140111431Y-71878393D01*
X140145409Y-71868085D01*
X140186890Y-71864000D01*
X140788110Y-71864000D01*
X140829591Y-71868085D01*
X140829591Y-71868085D01*
G37*
G36*
X135444591Y-71868085D02*
G01*
X135478569Y-71878393D01*
X135509890Y-71895134D01*
X135537339Y-71917661D01*
X135559866Y-71945110D01*
X135576607Y-71976431D01*
X135586915Y-72010409D01*
X135591000Y-72051890D01*
X135591000Y-72728110D01*
X135586915Y-72769591D01*
X135576607Y-72803569D01*
X135559866Y-72834890D01*
X135537339Y-72862339D01*
X135509890Y-72884866D01*
X135478569Y-72901607D01*
X135444591Y-72911915D01*
X135403110Y-72916000D01*
X134801890Y-72916000D01*
X134760409Y-72911915D01*
X134726431Y-72901607D01*
X134695110Y-72884866D01*
X134667661Y-72862339D01*
X134645134Y-72834890D01*
X134628393Y-72803569D01*
X134618085Y-72769591D01*
X134614000Y-72728110D01*
X134614000Y-72051890D01*
X134618085Y-72010409D01*
X134628393Y-71976431D01*
X134645134Y-71945110D01*
X134667661Y-71917661D01*
X134695110Y-71895134D01*
X134726431Y-71878393D01*
X134760409Y-71868085D01*
X134801890Y-71864000D01*
X135403110Y-71864000D01*
X135444591Y-71868085D01*
X135444591Y-71868085D01*
G37*
G36*
X117978213Y-71816249D02*
G01*
X118072652Y-71844897D01*
X118159687Y-71891418D01*
X118235975Y-71954025D01*
X118298582Y-72030313D01*
X118345103Y-72117348D01*
X118373751Y-72211787D01*
X118383424Y-72310000D01*
X118373751Y-72408213D01*
X118345103Y-72502652D01*
X118298582Y-72589687D01*
X118235975Y-72665975D01*
X118159687Y-72728582D01*
X118072652Y-72775103D01*
X117978213Y-72803751D01*
X117904612Y-72811000D01*
X116355388Y-72811000D01*
X116281787Y-72803751D01*
X116187348Y-72775103D01*
X116100313Y-72728582D01*
X116024025Y-72665975D01*
X115961418Y-72589687D01*
X115914897Y-72502652D01*
X115886249Y-72408213D01*
X115876576Y-72310000D01*
X115886249Y-72211787D01*
X115914897Y-72117348D01*
X115961418Y-72030313D01*
X116024025Y-71954025D01*
X116100313Y-71891418D01*
X116187348Y-71844897D01*
X116281787Y-71816249D01*
X116355388Y-71809000D01*
X117904612Y-71809000D01*
X117978213Y-71816249D01*
X117978213Y-71816249D01*
G37*
G36*
X114248213Y-71816249D02*
G01*
X114342652Y-71844897D01*
X114429687Y-71891418D01*
X114505975Y-71954025D01*
X114568582Y-72030313D01*
X114615103Y-72117348D01*
X114643751Y-72211787D01*
X114653424Y-72310000D01*
X114643751Y-72408213D01*
X114615103Y-72502652D01*
X114568582Y-72589687D01*
X114505975Y-72665975D01*
X114429687Y-72728582D01*
X114342652Y-72775103D01*
X114248213Y-72803751D01*
X114174612Y-72811000D01*
X113325388Y-72811000D01*
X113251787Y-72803751D01*
X113157348Y-72775103D01*
X113070313Y-72728582D01*
X112994025Y-72665975D01*
X112931418Y-72589687D01*
X112884897Y-72502652D01*
X112856249Y-72408213D01*
X112846576Y-72310000D01*
X112856249Y-72211787D01*
X112884897Y-72117348D01*
X112931418Y-72030313D01*
X112994025Y-71954025D01*
X113070313Y-71891418D01*
X113157348Y-71844897D01*
X113251787Y-71816249D01*
X113325388Y-71809000D01*
X114174612Y-71809000D01*
X114248213Y-71816249D01*
X114248213Y-71816249D01*
G37*
G36*
X146298228Y-70921703D02*
G01*
X146453100Y-70985853D01*
X146592481Y-71078985D01*
X146711015Y-71197519D01*
X146804147Y-71336900D01*
X146868297Y-71491772D01*
X146901000Y-71656184D01*
X146901000Y-71823816D01*
X146868297Y-71988228D01*
X146804147Y-72143100D01*
X146711015Y-72282481D01*
X146592481Y-72401015D01*
X146453100Y-72494147D01*
X146298228Y-72558297D01*
X146133816Y-72591000D01*
X145966184Y-72591000D01*
X145801772Y-72558297D01*
X145646900Y-72494147D01*
X145507519Y-72401015D01*
X145388985Y-72282481D01*
X145295853Y-72143100D01*
X145231703Y-71988228D01*
X145199000Y-71823816D01*
X145199000Y-71656184D01*
X145231703Y-71491772D01*
X145295853Y-71336900D01*
X145388985Y-71197519D01*
X145507519Y-71078985D01*
X145646900Y-70985853D01*
X145801772Y-70921703D01*
X145966184Y-70889000D01*
X146133816Y-70889000D01*
X146298228Y-70921703D01*
X146298228Y-70921703D01*
G37*
G36*
X125381000Y-71496000D02*
G01*
X124219000Y-71496000D01*
X124219000Y-68844000D01*
X125381000Y-68844000D01*
X125381000Y-71496000D01*
X125381000Y-71496000D01*
G37*
G36*
X127581000Y-71496000D02*
G01*
X126419000Y-71496000D01*
X126419000Y-70744000D01*
X127581000Y-70744000D01*
X127581000Y-71496000D01*
X127581000Y-71496000D01*
G37*
G36*
X128999591Y-70153085D02*
G01*
X129033569Y-70163393D01*
X129064890Y-70180134D01*
X129092339Y-70202661D01*
X129114866Y-70230110D01*
X129131607Y-70261431D01*
X129141915Y-70295409D01*
X129146000Y-70336890D01*
X129146000Y-70938110D01*
X129141915Y-70979591D01*
X129131607Y-71013569D01*
X129114866Y-71044890D01*
X129092339Y-71072339D01*
X129064890Y-71094866D01*
X129033569Y-71111607D01*
X128999591Y-71121915D01*
X128958110Y-71126000D01*
X128281890Y-71126000D01*
X128240409Y-71121915D01*
X128206431Y-71111607D01*
X128175110Y-71094866D01*
X128147661Y-71072339D01*
X128125134Y-71044890D01*
X128108393Y-71013569D01*
X128098085Y-70979591D01*
X128094000Y-70938110D01*
X128094000Y-70336890D01*
X128098085Y-70295409D01*
X128108393Y-70261431D01*
X128125134Y-70230110D01*
X128147661Y-70202661D01*
X128175110Y-70180134D01*
X128206431Y-70163393D01*
X128240409Y-70153085D01*
X128281890Y-70149000D01*
X128958110Y-70149000D01*
X128999591Y-70153085D01*
X128999591Y-70153085D01*
G37*
G36*
X123069591Y-70153085D02*
G01*
X123103569Y-70163393D01*
X123134890Y-70180134D01*
X123162339Y-70202661D01*
X123184866Y-70230110D01*
X123201607Y-70261431D01*
X123211915Y-70295409D01*
X123216000Y-70336890D01*
X123216000Y-70938110D01*
X123211915Y-70979591D01*
X123201607Y-71013569D01*
X123184866Y-71044890D01*
X123162339Y-71072339D01*
X123134890Y-71094866D01*
X123103569Y-71111607D01*
X123069591Y-71121915D01*
X123028110Y-71126000D01*
X122351890Y-71126000D01*
X122310409Y-71121915D01*
X122276431Y-71111607D01*
X122245110Y-71094866D01*
X122217661Y-71072339D01*
X122195134Y-71044890D01*
X122178393Y-71013569D01*
X122168085Y-70979591D01*
X122164000Y-70938110D01*
X122164000Y-70336890D01*
X122168085Y-70295409D01*
X122178393Y-70261431D01*
X122195134Y-70230110D01*
X122217661Y-70202661D01*
X122245110Y-70180134D01*
X122276431Y-70163393D01*
X122310409Y-70153085D01*
X122351890Y-70149000D01*
X123028110Y-70149000D01*
X123069591Y-70153085D01*
X123069591Y-70153085D01*
G37*
G36*
X134995256Y-66971298D02*
G01*
X135101579Y-66992447D01*
X135402042Y-67116903D01*
X135672451Y-67297585D01*
X135902415Y-67527549D01*
X136083097Y-67797958D01*
X136139998Y-67935328D01*
X136207553Y-68098422D01*
X136271000Y-68417389D01*
X136271000Y-68742611D01*
X136255954Y-68818250D01*
X136207553Y-69061579D01*
X136083097Y-69362042D01*
X135902415Y-69632451D01*
X135672451Y-69862415D01*
X135402042Y-70043097D01*
X135101579Y-70167553D01*
X135038330Y-70180134D01*
X134782611Y-70231000D01*
X134457389Y-70231000D01*
X134201670Y-70180134D01*
X134138421Y-70167553D01*
X133837958Y-70043097D01*
X133567549Y-69862415D01*
X133337585Y-69632451D01*
X133156903Y-69362042D01*
X133032447Y-69061579D01*
X132984046Y-68818250D01*
X132969000Y-68742611D01*
X132969000Y-68417389D01*
X133032447Y-68098422D01*
X133100003Y-67935328D01*
X133156903Y-67797958D01*
X133337585Y-67527549D01*
X133567549Y-67297585D01*
X133837958Y-67116903D01*
X134138421Y-66992447D01*
X134244744Y-66971298D01*
X134457389Y-66929000D01*
X134782611Y-66929000D01*
X134995256Y-66971298D01*
X134995256Y-66971298D01*
G37*
G36*
X149062585Y-67148802D02*
G01*
X149212410Y-67178604D01*
X149494674Y-67295521D01*
X149748705Y-67465259D01*
X149964741Y-67681295D01*
X150134479Y-67935326D01*
X150251396Y-68217590D01*
X150311000Y-68517240D01*
X150311000Y-68822760D01*
X150251396Y-69122410D01*
X150134479Y-69404674D01*
X149964741Y-69658705D01*
X149748705Y-69874741D01*
X149494674Y-70044479D01*
X149212410Y-70161396D01*
X149067783Y-70190164D01*
X148912761Y-70221000D01*
X148607239Y-70221000D01*
X148452217Y-70190164D01*
X148307590Y-70161396D01*
X148025326Y-70044479D01*
X147771295Y-69874741D01*
X147555259Y-69658705D01*
X147385521Y-69404674D01*
X147268604Y-69122410D01*
X147209000Y-68822760D01*
X147209000Y-68517240D01*
X147268604Y-68217590D01*
X147385521Y-67935326D01*
X147555259Y-67681295D01*
X147771295Y-67465259D01*
X148025326Y-67295521D01*
X148307590Y-67178604D01*
X148457415Y-67148802D01*
X148607239Y-67119000D01*
X148912761Y-67119000D01*
X149062585Y-67148802D01*
X149062585Y-67148802D01*
G37*
G36*
X127581000Y-69596000D02*
G01*
X126419000Y-69596000D01*
X126419000Y-68844000D01*
X127581000Y-68844000D01*
X127581000Y-69596000D01*
X127581000Y-69596000D01*
G37*
G36*
X123069591Y-68578085D02*
G01*
X123103569Y-68588393D01*
X123134890Y-68605134D01*
X123162339Y-68627661D01*
X123184866Y-68655110D01*
X123201607Y-68686431D01*
X123211915Y-68720409D01*
X123216000Y-68761890D01*
X123216000Y-69363110D01*
X123211915Y-69404591D01*
X123201607Y-69438569D01*
X123184866Y-69469890D01*
X123162339Y-69497339D01*
X123134890Y-69519866D01*
X123103569Y-69536607D01*
X123069591Y-69546915D01*
X123028110Y-69551000D01*
X122351890Y-69551000D01*
X122310409Y-69546915D01*
X122276431Y-69536607D01*
X122245110Y-69519866D01*
X122217661Y-69497339D01*
X122195134Y-69469890D01*
X122178393Y-69438569D01*
X122168085Y-69404591D01*
X122164000Y-69363110D01*
X122164000Y-68761890D01*
X122168085Y-68720409D01*
X122178393Y-68686431D01*
X122195134Y-68655110D01*
X122217661Y-68627661D01*
X122245110Y-68605134D01*
X122276431Y-68588393D01*
X122310409Y-68578085D01*
X122351890Y-68574000D01*
X123028110Y-68574000D01*
X123069591Y-68578085D01*
X123069591Y-68578085D01*
G37*
G36*
X128999591Y-68578085D02*
G01*
X129033569Y-68588393D01*
X129064890Y-68605134D01*
X129092339Y-68627661D01*
X129114866Y-68655110D01*
X129131607Y-68686431D01*
X129141915Y-68720409D01*
X129146000Y-68761890D01*
X129146000Y-69363110D01*
X129141915Y-69404591D01*
X129131607Y-69438569D01*
X129114866Y-69469890D01*
X129092339Y-69497339D01*
X129064890Y-69519866D01*
X129033569Y-69536607D01*
X128999591Y-69546915D01*
X128958110Y-69551000D01*
X128281890Y-69551000D01*
X128240409Y-69546915D01*
X128206431Y-69536607D01*
X128175110Y-69519866D01*
X128147661Y-69497339D01*
X128125134Y-69469890D01*
X128108393Y-69438569D01*
X128098085Y-69404591D01*
X128094000Y-69363110D01*
X128094000Y-68761890D01*
X128098085Y-68720409D01*
X128108393Y-68686431D01*
X128125134Y-68655110D01*
X128147661Y-68627661D01*
X128175110Y-68605134D01*
X128206431Y-68588393D01*
X128240409Y-68578085D01*
X128281890Y-68574000D01*
X128958110Y-68574000D01*
X128999591Y-68578085D01*
X128999591Y-68578085D01*
G37*
M02*
