M48
; DRILL file {KiCad (5.1.2)-1} date 6/17/2019 11:04:51 PM
; FORMAT={-:-/ absolute / metric / decimal}
; #@! TF.CreationDate,2019-06-17T23:04:51-04:00
; #@! TF.GenerationSoftware,Kicad,Pcbnew,(5.1.2)-1
; #@! TF.FileFunction,Plated,1,2,PTH
FMAT,2
METRIC
T1C0.200
T2C0.400
T3C0.600
T4C0.700
T5C0.920
T6C1.600
T7C2.300
%
G90
G05
T1
X70.764Y-37.82
X71.577Y-37.007
X71.577Y-38.633
X72.39Y-36.194
X72.39Y-39.446
X73.203Y-37.007
X73.203Y-38.633
X74.016Y-37.82
T2
X63.5Y-32.0
X63.5Y-33.02
X64.77Y-35.56
X64.77Y-36.83
X64.77Y-38.1
X67.31Y-30.48
X67.31Y-31.75
X67.31Y-35.56
X67.31Y-41.91
X68.58Y-30.48
X68.58Y-43.18
X68.83Y-36.58
X69.85Y-41.91
X70.1Y-35.31
X72.39Y-24.63
X72.39Y-34.29
X73.66Y-24.63
X73.66Y-41.91
X73.66Y-43.18
X74.93Y-24.63
X74.93Y-35.56
X76.2Y-27.94
X76.2Y-43.18
X77.47Y-29.21
X78.74Y-43.18
X81.28Y-43.18
X82.55Y-30.48
X82.55Y-33.52
X83.82Y-43.18
X85.09Y-30.48
X85.09Y-33.52
X86.36Y-43.18
X87.63Y-30.48
X87.63Y-33.52
X88.9Y-41.91
X89.15Y-39.37
X60.88Y-29.21
X60.88Y-30.06
X60.88Y-30.91
X60.88Y-31.76
X60.88Y-32.61
X60.88Y-33.46
X60.88Y-34.31
X60.88Y-35.16
X62.23Y-29.21
X62.23Y-30.06
X62.23Y-30.91
X62.23Y-31.76
X62.23Y-32.61
X62.23Y-33.46
X62.23Y-34.31
X62.23Y-35.16
T4
X81.46Y-38.045
X82.26Y-35.995
X83.11Y-38.045
X83.86Y-35.995
X84.76Y-38.045
T5
X90.17Y-28.56
X90.17Y-31.06
X90.17Y-33.06
X90.17Y-35.56
T6
X72.39Y-37.82
T7
X92.88Y-25.49
X92.88Y-38.63
T3
G00X58.27Y-27.86
M15
G01X57.47Y-27.86
M16
G05
G00X58.27Y-36.51
M15
G01X57.47Y-36.51
M16
G05
G00X62.0Y-27.86
M15
G01X60.5Y-27.86
M16
G05
G00X62.0Y-36.51
M15
G01X60.5Y-36.51
M16
G05
T4
G00X79.86Y-36.97
M15
G01X79.86Y-38.27
M16
G05
G00X80.81Y-39.37
M15
G01X82.11Y-39.37
M16
G05
G00X84.11Y-39.37
M15
G01X85.41Y-39.37
M16
G05
G00X86.36Y-36.97
M15
G01X86.36Y-38.27
M16
G05
T0
M30
