G04 #@! TF.GenerationSoftware,KiCad,Pcbnew,(5.1.2)-1*
G04 #@! TF.CreationDate,2019-06-17T23:04:49-04:00*
G04 #@! TF.ProjectId,REV Type-C V2,52455620-5479-4706-952d-432056322e6b,rev?*
G04 #@! TF.SameCoordinates,Original*
G04 #@! TF.FileFunction,Legend,Bot*
G04 #@! TF.FilePolarity,Positive*
%FSLAX46Y46*%
G04 Gerber Fmt 4.6, Leading zero omitted, Abs format (unit mm)*
G04 Created by KiCad (PCBNEW (5.1.2)-1) date 2019-06-17 23:04:49*
%MOMM*%
%LPD*%
G04 APERTURE LIST*
%ADD10C,0.050000*%
%ADD11C,0.120000*%
%ADD12C,0.150000*%
G04 APERTURE END LIST*
D10*
X55880000Y-22860000D02*
X95250000Y-22860000D01*
X57150000Y-44450000D02*
X95250000Y-44450000D01*
X53340000Y-44450000D02*
X57150000Y-44450000D01*
X53340000Y-22860000D02*
X55880000Y-22860000D01*
X53340000Y-25400000D02*
X53340000Y-22860000D01*
X55880000Y-25400000D02*
X53340000Y-25400000D01*
X55880000Y-39370000D02*
X55880000Y-25400000D01*
X53340000Y-39370000D02*
X55880000Y-39370000D01*
X53340000Y-44450000D02*
X53340000Y-39370000D01*
X102870000Y-44450000D02*
X95250000Y-44450000D01*
X102870000Y-22860000D02*
X102870000Y-44450000D01*
X95250000Y-22860000D02*
X102870000Y-22860000D01*
D11*
X58257221Y-33780000D02*
X58582779Y-33780000D01*
X58257221Y-34800000D02*
X58582779Y-34800000D01*
X64932779Y-30990000D02*
X64607221Y-30990000D01*
X64932779Y-29970000D02*
X64607221Y-29970000D01*
X94740000Y-30170000D02*
X93280000Y-30170000D01*
X94740000Y-33330000D02*
X92580000Y-33330000D01*
X94740000Y-33330000D02*
X94740000Y-32400000D01*
X94740000Y-30170000D02*
X94740000Y-31100000D01*
D12*
X58586666Y-33472380D02*
X58920000Y-32996190D01*
X59158095Y-33472380D02*
X59158095Y-32472380D01*
X58777142Y-32472380D01*
X58681904Y-32520000D01*
X58634285Y-32567619D01*
X58586666Y-32662857D01*
X58586666Y-32805714D01*
X58634285Y-32900952D01*
X58681904Y-32948571D01*
X58777142Y-32996190D01*
X59158095Y-32996190D01*
X58253333Y-32472380D02*
X57586666Y-32472380D01*
X58015238Y-33472380D01*
X64936666Y-29502380D02*
X65270000Y-29026190D01*
X65508095Y-29502380D02*
X65508095Y-28502380D01*
X65127142Y-28502380D01*
X65031904Y-28550000D01*
X64984285Y-28597619D01*
X64936666Y-28692857D01*
X64936666Y-28835714D01*
X64984285Y-28930952D01*
X65031904Y-28978571D01*
X65127142Y-29026190D01*
X65508095Y-29026190D01*
X64079523Y-28502380D02*
X64270000Y-28502380D01*
X64365238Y-28550000D01*
X64412857Y-28597619D01*
X64508095Y-28740476D01*
X64555714Y-28930952D01*
X64555714Y-29311904D01*
X64508095Y-29407142D01*
X64460476Y-29454761D01*
X64365238Y-29502380D01*
X64174761Y-29502380D01*
X64079523Y-29454761D01*
X64031904Y-29407142D01*
X63984285Y-29311904D01*
X63984285Y-29073809D01*
X64031904Y-28978571D01*
X64079523Y-28930952D01*
X64174761Y-28883333D01*
X64365238Y-28883333D01*
X64460476Y-28930952D01*
X64508095Y-28978571D01*
X64555714Y-29073809D01*
X94718095Y-34702380D02*
X94718095Y-33702380D01*
X94480000Y-33702380D01*
X94337142Y-33750000D01*
X94241904Y-33845238D01*
X94194285Y-33940476D01*
X94146666Y-34130952D01*
X94146666Y-34273809D01*
X94194285Y-34464285D01*
X94241904Y-34559523D01*
X94337142Y-34654761D01*
X94480000Y-34702380D01*
X94718095Y-34702380D01*
X93194285Y-34702380D02*
X93765714Y-34702380D01*
X93480000Y-34702380D02*
X93480000Y-33702380D01*
X93575238Y-33845238D01*
X93670476Y-33940476D01*
X93765714Y-33988095D01*
M02*
