M48
; DRILL file {KiCad (5.1.2)-1} date 8/24/2019 8:09:34 PM
; FORMAT={-:-/ absolute / metric / decimal}
; #@! TF.CreationDate,2019-08-24T20:09:34-04:00
; #@! TF.GenerationSoftware,Kicad,Pcbnew,(5.1.2)-1
; #@! TF.FileFunction,Plated,1,2,PTH
FMAT,2
METRIC
T1C0.200
T2C0.400
T3C0.600
T4C0.700
T5C0.920
T6C2.300
%
G90
G05
T1
X125.38Y-75.792
X125.38Y-76.892
X125.38Y-77.992
X126.48Y-75.792
X126.48Y-76.892
X126.48Y-77.992
X127.58Y-75.792
X127.58Y-76.892
X127.58Y-77.992
T2
X119.38Y-75.95
X119.38Y-77.22
X120.65Y-74.93
X120.65Y-78.74
X120.65Y-80.01
X121.92Y-73.66
X123.19Y-72.39
X123.19Y-80.01
X123.747Y-78.74
X124.46Y-68.58
X124.71Y-80.26
X124.972Y-73.66
X126.5Y-73.66
X128.27Y-73.66
X129.54Y-76.7
X129.54Y-77.97
X132.08Y-76.2
X132.08Y-80.01
X134.62Y-76.2
X134.62Y-80.01
X138.036Y-71.514
X116.76Y-73.66
X116.76Y-74.51
X116.76Y-75.36
X116.76Y-76.21
X116.76Y-77.06
X116.76Y-77.91
X116.76Y-78.76
X116.76Y-79.61
X118.11Y-73.66
X118.11Y-74.51
X118.11Y-75.36
X118.11Y-76.21
X118.11Y-77.06
X118.11Y-77.91
X118.11Y-78.76
X118.11Y-79.61
T4
X134.62Y-83.82
X135.42Y-82.07
X136.22Y-83.82
X137.02Y-82.07
X137.82Y-83.82
T5
X146.05Y-71.74
X146.05Y-74.24
X146.05Y-76.24
X146.05Y-78.74
T6
X148.76Y-68.67
X148.76Y-81.81
T3
G00X114.15Y-72.31
M15
G01X113.35Y-72.31
M16
G05
G00X114.15Y-80.96
M15
G01X113.35Y-80.96
M16
G05
G00X117.88Y-72.31
M15
G01X116.38Y-72.31
M16
G05
G00X117.88Y-80.96
M15
G01X116.38Y-80.96
M16
G05
T4
G00X132.57Y-82.295
M15
G01X132.57Y-83.595
M16
G05
G00X139.87Y-82.295
M15
G01X139.87Y-83.595
M16
G05
T0
M30
