G04 #@! TF.GenerationSoftware,KiCad,Pcbnew,(5.1.2)-1*
G04 #@! TF.CreationDate,2019-08-24T20:09:31-04:00*
G04 #@! TF.ProjectId,REV Type-C V3,52455620-5479-4706-952d-432056332e6b,rev?*
G04 #@! TF.SameCoordinates,Original*
G04 #@! TF.FileFunction,Copper,L1,Top*
G04 #@! TF.FilePolarity,Positive*
%FSLAX46Y46*%
G04 Gerber Fmt 4.6, Leading zero omitted, Abs format (unit mm)*
G04 Created by KiCad (PCBNEW (5.1.2)-1) date 2019-08-24 20:09:31*
%MOMM*%
%LPD*%
G04 APERTURE LIST*
%ADD10O,1.100000X2.400000*%
%ADD11C,1.100000*%
%ADD12R,1.100000X1.100000*%
%ADD13C,0.100000*%
%ADD14C,0.250000*%
%ADD15C,0.500000*%
%ADD16C,2.700000*%
%ADD17C,0.875000*%
%ADD18R,1.750000X1.800000*%
%ADD19R,1.060000X0.650000*%
%ADD20O,1.700000X0.900000*%
%ADD21O,2.400000X0.900000*%
%ADD22C,0.700000*%
%ADD23C,1.600000*%
%ADD24R,1.600000X1.600000*%
%ADD25C,3.000000*%
%ADD26C,0.800000*%
%ADD27C,0.250000*%
%ADD28C,0.550000*%
%ADD29C,0.200000*%
%ADD30C,0.254000*%
G04 APERTURE END LIST*
D10*
X139870000Y-82945000D03*
X132570000Y-82945000D03*
D11*
X137820000Y-83820000D03*
X137020000Y-82070000D03*
X136220000Y-83820000D03*
X135420000Y-82070000D03*
D12*
X134620000Y-83820000D03*
D13*
G36*
X124873626Y-78017801D02*
G01*
X124879693Y-78018701D01*
X124885643Y-78020191D01*
X124891418Y-78022258D01*
X124896962Y-78024880D01*
X124902223Y-78028033D01*
X124907150Y-78031687D01*
X124911694Y-78035806D01*
X124915813Y-78040350D01*
X124919467Y-78045277D01*
X124922620Y-78050538D01*
X124925242Y-78056082D01*
X124927309Y-78061857D01*
X124928799Y-78067807D01*
X124929699Y-78073874D01*
X124930000Y-78080000D01*
X124930000Y-78205000D01*
X124929699Y-78211126D01*
X124928799Y-78217193D01*
X124927309Y-78223143D01*
X124925242Y-78228918D01*
X124922620Y-78234462D01*
X124919467Y-78239723D01*
X124915813Y-78244650D01*
X124911694Y-78249194D01*
X124907150Y-78253313D01*
X124902223Y-78256967D01*
X124896962Y-78260120D01*
X124891418Y-78262742D01*
X124885643Y-78264809D01*
X124879693Y-78266299D01*
X124873626Y-78267199D01*
X124867500Y-78267500D01*
X124167500Y-78267500D01*
X124161374Y-78267199D01*
X124155307Y-78266299D01*
X124149357Y-78264809D01*
X124143582Y-78262742D01*
X124138038Y-78260120D01*
X124132777Y-78256967D01*
X124127850Y-78253313D01*
X124123306Y-78249194D01*
X124119187Y-78244650D01*
X124115533Y-78239723D01*
X124112380Y-78234462D01*
X124109758Y-78228918D01*
X124107691Y-78223143D01*
X124106201Y-78217193D01*
X124105301Y-78211126D01*
X124105000Y-78205000D01*
X124105000Y-78080000D01*
X124105301Y-78073874D01*
X124106201Y-78067807D01*
X124107691Y-78061857D01*
X124109758Y-78056082D01*
X124112380Y-78050538D01*
X124115533Y-78045277D01*
X124119187Y-78040350D01*
X124123306Y-78035806D01*
X124127850Y-78031687D01*
X124132777Y-78028033D01*
X124138038Y-78024880D01*
X124143582Y-78022258D01*
X124149357Y-78020191D01*
X124155307Y-78018701D01*
X124161374Y-78017801D01*
X124167500Y-78017500D01*
X124867500Y-78017500D01*
X124873626Y-78017801D01*
X124873626Y-78017801D01*
G37*
D14*
X124517500Y-78142500D03*
D13*
G36*
X124873626Y-77517801D02*
G01*
X124879693Y-77518701D01*
X124885643Y-77520191D01*
X124891418Y-77522258D01*
X124896962Y-77524880D01*
X124902223Y-77528033D01*
X124907150Y-77531687D01*
X124911694Y-77535806D01*
X124915813Y-77540350D01*
X124919467Y-77545277D01*
X124922620Y-77550538D01*
X124925242Y-77556082D01*
X124927309Y-77561857D01*
X124928799Y-77567807D01*
X124929699Y-77573874D01*
X124930000Y-77580000D01*
X124930000Y-77705000D01*
X124929699Y-77711126D01*
X124928799Y-77717193D01*
X124927309Y-77723143D01*
X124925242Y-77728918D01*
X124922620Y-77734462D01*
X124919467Y-77739723D01*
X124915813Y-77744650D01*
X124911694Y-77749194D01*
X124907150Y-77753313D01*
X124902223Y-77756967D01*
X124896962Y-77760120D01*
X124891418Y-77762742D01*
X124885643Y-77764809D01*
X124879693Y-77766299D01*
X124873626Y-77767199D01*
X124867500Y-77767500D01*
X124167500Y-77767500D01*
X124161374Y-77767199D01*
X124155307Y-77766299D01*
X124149357Y-77764809D01*
X124143582Y-77762742D01*
X124138038Y-77760120D01*
X124132777Y-77756967D01*
X124127850Y-77753313D01*
X124123306Y-77749194D01*
X124119187Y-77744650D01*
X124115533Y-77739723D01*
X124112380Y-77734462D01*
X124109758Y-77728918D01*
X124107691Y-77723143D01*
X124106201Y-77717193D01*
X124105301Y-77711126D01*
X124105000Y-77705000D01*
X124105000Y-77580000D01*
X124105301Y-77573874D01*
X124106201Y-77567807D01*
X124107691Y-77561857D01*
X124109758Y-77556082D01*
X124112380Y-77550538D01*
X124115533Y-77545277D01*
X124119187Y-77540350D01*
X124123306Y-77535806D01*
X124127850Y-77531687D01*
X124132777Y-77528033D01*
X124138038Y-77524880D01*
X124143582Y-77522258D01*
X124149357Y-77520191D01*
X124155307Y-77518701D01*
X124161374Y-77517801D01*
X124167500Y-77517500D01*
X124867500Y-77517500D01*
X124873626Y-77517801D01*
X124873626Y-77517801D01*
G37*
D14*
X124517500Y-77642500D03*
D13*
G36*
X124873626Y-77017801D02*
G01*
X124879693Y-77018701D01*
X124885643Y-77020191D01*
X124891418Y-77022258D01*
X124896962Y-77024880D01*
X124902223Y-77028033D01*
X124907150Y-77031687D01*
X124911694Y-77035806D01*
X124915813Y-77040350D01*
X124919467Y-77045277D01*
X124922620Y-77050538D01*
X124925242Y-77056082D01*
X124927309Y-77061857D01*
X124928799Y-77067807D01*
X124929699Y-77073874D01*
X124930000Y-77080000D01*
X124930000Y-77205000D01*
X124929699Y-77211126D01*
X124928799Y-77217193D01*
X124927309Y-77223143D01*
X124925242Y-77228918D01*
X124922620Y-77234462D01*
X124919467Y-77239723D01*
X124915813Y-77244650D01*
X124911694Y-77249194D01*
X124907150Y-77253313D01*
X124902223Y-77256967D01*
X124896962Y-77260120D01*
X124891418Y-77262742D01*
X124885643Y-77264809D01*
X124879693Y-77266299D01*
X124873626Y-77267199D01*
X124867500Y-77267500D01*
X124167500Y-77267500D01*
X124161374Y-77267199D01*
X124155307Y-77266299D01*
X124149357Y-77264809D01*
X124143582Y-77262742D01*
X124138038Y-77260120D01*
X124132777Y-77256967D01*
X124127850Y-77253313D01*
X124123306Y-77249194D01*
X124119187Y-77244650D01*
X124115533Y-77239723D01*
X124112380Y-77234462D01*
X124109758Y-77228918D01*
X124107691Y-77223143D01*
X124106201Y-77217193D01*
X124105301Y-77211126D01*
X124105000Y-77205000D01*
X124105000Y-77080000D01*
X124105301Y-77073874D01*
X124106201Y-77067807D01*
X124107691Y-77061857D01*
X124109758Y-77056082D01*
X124112380Y-77050538D01*
X124115533Y-77045277D01*
X124119187Y-77040350D01*
X124123306Y-77035806D01*
X124127850Y-77031687D01*
X124132777Y-77028033D01*
X124138038Y-77024880D01*
X124143582Y-77022258D01*
X124149357Y-77020191D01*
X124155307Y-77018701D01*
X124161374Y-77017801D01*
X124167500Y-77017500D01*
X124867500Y-77017500D01*
X124873626Y-77017801D01*
X124873626Y-77017801D01*
G37*
D14*
X124517500Y-77142500D03*
D13*
G36*
X124873626Y-76517801D02*
G01*
X124879693Y-76518701D01*
X124885643Y-76520191D01*
X124891418Y-76522258D01*
X124896962Y-76524880D01*
X124902223Y-76528033D01*
X124907150Y-76531687D01*
X124911694Y-76535806D01*
X124915813Y-76540350D01*
X124919467Y-76545277D01*
X124922620Y-76550538D01*
X124925242Y-76556082D01*
X124927309Y-76561857D01*
X124928799Y-76567807D01*
X124929699Y-76573874D01*
X124930000Y-76580000D01*
X124930000Y-76705000D01*
X124929699Y-76711126D01*
X124928799Y-76717193D01*
X124927309Y-76723143D01*
X124925242Y-76728918D01*
X124922620Y-76734462D01*
X124919467Y-76739723D01*
X124915813Y-76744650D01*
X124911694Y-76749194D01*
X124907150Y-76753313D01*
X124902223Y-76756967D01*
X124896962Y-76760120D01*
X124891418Y-76762742D01*
X124885643Y-76764809D01*
X124879693Y-76766299D01*
X124873626Y-76767199D01*
X124867500Y-76767500D01*
X124167500Y-76767500D01*
X124161374Y-76767199D01*
X124155307Y-76766299D01*
X124149357Y-76764809D01*
X124143582Y-76762742D01*
X124138038Y-76760120D01*
X124132777Y-76756967D01*
X124127850Y-76753313D01*
X124123306Y-76749194D01*
X124119187Y-76744650D01*
X124115533Y-76739723D01*
X124112380Y-76734462D01*
X124109758Y-76728918D01*
X124107691Y-76723143D01*
X124106201Y-76717193D01*
X124105301Y-76711126D01*
X124105000Y-76705000D01*
X124105000Y-76580000D01*
X124105301Y-76573874D01*
X124106201Y-76567807D01*
X124107691Y-76561857D01*
X124109758Y-76556082D01*
X124112380Y-76550538D01*
X124115533Y-76545277D01*
X124119187Y-76540350D01*
X124123306Y-76535806D01*
X124127850Y-76531687D01*
X124132777Y-76528033D01*
X124138038Y-76524880D01*
X124143582Y-76522258D01*
X124149357Y-76520191D01*
X124155307Y-76518701D01*
X124161374Y-76517801D01*
X124167500Y-76517500D01*
X124867500Y-76517500D01*
X124873626Y-76517801D01*
X124873626Y-76517801D01*
G37*
D14*
X124517500Y-76642500D03*
D13*
G36*
X124873626Y-76017801D02*
G01*
X124879693Y-76018701D01*
X124885643Y-76020191D01*
X124891418Y-76022258D01*
X124896962Y-76024880D01*
X124902223Y-76028033D01*
X124907150Y-76031687D01*
X124911694Y-76035806D01*
X124915813Y-76040350D01*
X124919467Y-76045277D01*
X124922620Y-76050538D01*
X124925242Y-76056082D01*
X124927309Y-76061857D01*
X124928799Y-76067807D01*
X124929699Y-76073874D01*
X124930000Y-76080000D01*
X124930000Y-76205000D01*
X124929699Y-76211126D01*
X124928799Y-76217193D01*
X124927309Y-76223143D01*
X124925242Y-76228918D01*
X124922620Y-76234462D01*
X124919467Y-76239723D01*
X124915813Y-76244650D01*
X124911694Y-76249194D01*
X124907150Y-76253313D01*
X124902223Y-76256967D01*
X124896962Y-76260120D01*
X124891418Y-76262742D01*
X124885643Y-76264809D01*
X124879693Y-76266299D01*
X124873626Y-76267199D01*
X124867500Y-76267500D01*
X124167500Y-76267500D01*
X124161374Y-76267199D01*
X124155307Y-76266299D01*
X124149357Y-76264809D01*
X124143582Y-76262742D01*
X124138038Y-76260120D01*
X124132777Y-76256967D01*
X124127850Y-76253313D01*
X124123306Y-76249194D01*
X124119187Y-76244650D01*
X124115533Y-76239723D01*
X124112380Y-76234462D01*
X124109758Y-76228918D01*
X124107691Y-76223143D01*
X124106201Y-76217193D01*
X124105301Y-76211126D01*
X124105000Y-76205000D01*
X124105000Y-76080000D01*
X124105301Y-76073874D01*
X124106201Y-76067807D01*
X124107691Y-76061857D01*
X124109758Y-76056082D01*
X124112380Y-76050538D01*
X124115533Y-76045277D01*
X124119187Y-76040350D01*
X124123306Y-76035806D01*
X124127850Y-76031687D01*
X124132777Y-76028033D01*
X124138038Y-76024880D01*
X124143582Y-76022258D01*
X124149357Y-76020191D01*
X124155307Y-76018701D01*
X124161374Y-76017801D01*
X124167500Y-76017500D01*
X124867500Y-76017500D01*
X124873626Y-76017801D01*
X124873626Y-76017801D01*
G37*
D14*
X124517500Y-76142500D03*
D13*
G36*
X124873626Y-75517801D02*
G01*
X124879693Y-75518701D01*
X124885643Y-75520191D01*
X124891418Y-75522258D01*
X124896962Y-75524880D01*
X124902223Y-75528033D01*
X124907150Y-75531687D01*
X124911694Y-75535806D01*
X124915813Y-75540350D01*
X124919467Y-75545277D01*
X124922620Y-75550538D01*
X124925242Y-75556082D01*
X124927309Y-75561857D01*
X124928799Y-75567807D01*
X124929699Y-75573874D01*
X124930000Y-75580000D01*
X124930000Y-75705000D01*
X124929699Y-75711126D01*
X124928799Y-75717193D01*
X124927309Y-75723143D01*
X124925242Y-75728918D01*
X124922620Y-75734462D01*
X124919467Y-75739723D01*
X124915813Y-75744650D01*
X124911694Y-75749194D01*
X124907150Y-75753313D01*
X124902223Y-75756967D01*
X124896962Y-75760120D01*
X124891418Y-75762742D01*
X124885643Y-75764809D01*
X124879693Y-75766299D01*
X124873626Y-75767199D01*
X124867500Y-75767500D01*
X124167500Y-75767500D01*
X124161374Y-75767199D01*
X124155307Y-75766299D01*
X124149357Y-75764809D01*
X124143582Y-75762742D01*
X124138038Y-75760120D01*
X124132777Y-75756967D01*
X124127850Y-75753313D01*
X124123306Y-75749194D01*
X124119187Y-75744650D01*
X124115533Y-75739723D01*
X124112380Y-75734462D01*
X124109758Y-75728918D01*
X124107691Y-75723143D01*
X124106201Y-75717193D01*
X124105301Y-75711126D01*
X124105000Y-75705000D01*
X124105000Y-75580000D01*
X124105301Y-75573874D01*
X124106201Y-75567807D01*
X124107691Y-75561857D01*
X124109758Y-75556082D01*
X124112380Y-75550538D01*
X124115533Y-75545277D01*
X124119187Y-75540350D01*
X124123306Y-75535806D01*
X124127850Y-75531687D01*
X124132777Y-75528033D01*
X124138038Y-75524880D01*
X124143582Y-75522258D01*
X124149357Y-75520191D01*
X124155307Y-75518701D01*
X124161374Y-75517801D01*
X124167500Y-75517500D01*
X124867500Y-75517500D01*
X124873626Y-75517801D01*
X124873626Y-75517801D01*
G37*
D14*
X124517500Y-75642500D03*
D13*
G36*
X125298626Y-74517801D02*
G01*
X125304693Y-74518701D01*
X125310643Y-74520191D01*
X125316418Y-74522258D01*
X125321962Y-74524880D01*
X125327223Y-74528033D01*
X125332150Y-74531687D01*
X125336694Y-74535806D01*
X125340813Y-74540350D01*
X125344467Y-74545277D01*
X125347620Y-74550538D01*
X125350242Y-74556082D01*
X125352309Y-74561857D01*
X125353799Y-74567807D01*
X125354699Y-74573874D01*
X125355000Y-74580000D01*
X125355000Y-75280000D01*
X125354699Y-75286126D01*
X125353799Y-75292193D01*
X125352309Y-75298143D01*
X125350242Y-75303918D01*
X125347620Y-75309462D01*
X125344467Y-75314723D01*
X125340813Y-75319650D01*
X125336694Y-75324194D01*
X125332150Y-75328313D01*
X125327223Y-75331967D01*
X125321962Y-75335120D01*
X125316418Y-75337742D01*
X125310643Y-75339809D01*
X125304693Y-75341299D01*
X125298626Y-75342199D01*
X125292500Y-75342500D01*
X125167500Y-75342500D01*
X125161374Y-75342199D01*
X125155307Y-75341299D01*
X125149357Y-75339809D01*
X125143582Y-75337742D01*
X125138038Y-75335120D01*
X125132777Y-75331967D01*
X125127850Y-75328313D01*
X125123306Y-75324194D01*
X125119187Y-75319650D01*
X125115533Y-75314723D01*
X125112380Y-75309462D01*
X125109758Y-75303918D01*
X125107691Y-75298143D01*
X125106201Y-75292193D01*
X125105301Y-75286126D01*
X125105000Y-75280000D01*
X125105000Y-74580000D01*
X125105301Y-74573874D01*
X125106201Y-74567807D01*
X125107691Y-74561857D01*
X125109758Y-74556082D01*
X125112380Y-74550538D01*
X125115533Y-74545277D01*
X125119187Y-74540350D01*
X125123306Y-74535806D01*
X125127850Y-74531687D01*
X125132777Y-74528033D01*
X125138038Y-74524880D01*
X125143582Y-74522258D01*
X125149357Y-74520191D01*
X125155307Y-74518701D01*
X125161374Y-74517801D01*
X125167500Y-74517500D01*
X125292500Y-74517500D01*
X125298626Y-74517801D01*
X125298626Y-74517801D01*
G37*
D14*
X125230000Y-74930000D03*
D13*
G36*
X125798626Y-74517801D02*
G01*
X125804693Y-74518701D01*
X125810643Y-74520191D01*
X125816418Y-74522258D01*
X125821962Y-74524880D01*
X125827223Y-74528033D01*
X125832150Y-74531687D01*
X125836694Y-74535806D01*
X125840813Y-74540350D01*
X125844467Y-74545277D01*
X125847620Y-74550538D01*
X125850242Y-74556082D01*
X125852309Y-74561857D01*
X125853799Y-74567807D01*
X125854699Y-74573874D01*
X125855000Y-74580000D01*
X125855000Y-75280000D01*
X125854699Y-75286126D01*
X125853799Y-75292193D01*
X125852309Y-75298143D01*
X125850242Y-75303918D01*
X125847620Y-75309462D01*
X125844467Y-75314723D01*
X125840813Y-75319650D01*
X125836694Y-75324194D01*
X125832150Y-75328313D01*
X125827223Y-75331967D01*
X125821962Y-75335120D01*
X125816418Y-75337742D01*
X125810643Y-75339809D01*
X125804693Y-75341299D01*
X125798626Y-75342199D01*
X125792500Y-75342500D01*
X125667500Y-75342500D01*
X125661374Y-75342199D01*
X125655307Y-75341299D01*
X125649357Y-75339809D01*
X125643582Y-75337742D01*
X125638038Y-75335120D01*
X125632777Y-75331967D01*
X125627850Y-75328313D01*
X125623306Y-75324194D01*
X125619187Y-75319650D01*
X125615533Y-75314723D01*
X125612380Y-75309462D01*
X125609758Y-75303918D01*
X125607691Y-75298143D01*
X125606201Y-75292193D01*
X125605301Y-75286126D01*
X125605000Y-75280000D01*
X125605000Y-74580000D01*
X125605301Y-74573874D01*
X125606201Y-74567807D01*
X125607691Y-74561857D01*
X125609758Y-74556082D01*
X125612380Y-74550538D01*
X125615533Y-74545277D01*
X125619187Y-74540350D01*
X125623306Y-74535806D01*
X125627850Y-74531687D01*
X125632777Y-74528033D01*
X125638038Y-74524880D01*
X125643582Y-74522258D01*
X125649357Y-74520191D01*
X125655307Y-74518701D01*
X125661374Y-74517801D01*
X125667500Y-74517500D01*
X125792500Y-74517500D01*
X125798626Y-74517801D01*
X125798626Y-74517801D01*
G37*
D14*
X125730000Y-74930000D03*
D13*
G36*
X126298626Y-74517801D02*
G01*
X126304693Y-74518701D01*
X126310643Y-74520191D01*
X126316418Y-74522258D01*
X126321962Y-74524880D01*
X126327223Y-74528033D01*
X126332150Y-74531687D01*
X126336694Y-74535806D01*
X126340813Y-74540350D01*
X126344467Y-74545277D01*
X126347620Y-74550538D01*
X126350242Y-74556082D01*
X126352309Y-74561857D01*
X126353799Y-74567807D01*
X126354699Y-74573874D01*
X126355000Y-74580000D01*
X126355000Y-75280000D01*
X126354699Y-75286126D01*
X126353799Y-75292193D01*
X126352309Y-75298143D01*
X126350242Y-75303918D01*
X126347620Y-75309462D01*
X126344467Y-75314723D01*
X126340813Y-75319650D01*
X126336694Y-75324194D01*
X126332150Y-75328313D01*
X126327223Y-75331967D01*
X126321962Y-75335120D01*
X126316418Y-75337742D01*
X126310643Y-75339809D01*
X126304693Y-75341299D01*
X126298626Y-75342199D01*
X126292500Y-75342500D01*
X126167500Y-75342500D01*
X126161374Y-75342199D01*
X126155307Y-75341299D01*
X126149357Y-75339809D01*
X126143582Y-75337742D01*
X126138038Y-75335120D01*
X126132777Y-75331967D01*
X126127850Y-75328313D01*
X126123306Y-75324194D01*
X126119187Y-75319650D01*
X126115533Y-75314723D01*
X126112380Y-75309462D01*
X126109758Y-75303918D01*
X126107691Y-75298143D01*
X126106201Y-75292193D01*
X126105301Y-75286126D01*
X126105000Y-75280000D01*
X126105000Y-74580000D01*
X126105301Y-74573874D01*
X126106201Y-74567807D01*
X126107691Y-74561857D01*
X126109758Y-74556082D01*
X126112380Y-74550538D01*
X126115533Y-74545277D01*
X126119187Y-74540350D01*
X126123306Y-74535806D01*
X126127850Y-74531687D01*
X126132777Y-74528033D01*
X126138038Y-74524880D01*
X126143582Y-74522258D01*
X126149357Y-74520191D01*
X126155307Y-74518701D01*
X126161374Y-74517801D01*
X126167500Y-74517500D01*
X126292500Y-74517500D01*
X126298626Y-74517801D01*
X126298626Y-74517801D01*
G37*
D14*
X126230000Y-74930000D03*
D13*
G36*
X126798626Y-74517801D02*
G01*
X126804693Y-74518701D01*
X126810643Y-74520191D01*
X126816418Y-74522258D01*
X126821962Y-74524880D01*
X126827223Y-74528033D01*
X126832150Y-74531687D01*
X126836694Y-74535806D01*
X126840813Y-74540350D01*
X126844467Y-74545277D01*
X126847620Y-74550538D01*
X126850242Y-74556082D01*
X126852309Y-74561857D01*
X126853799Y-74567807D01*
X126854699Y-74573874D01*
X126855000Y-74580000D01*
X126855000Y-75280000D01*
X126854699Y-75286126D01*
X126853799Y-75292193D01*
X126852309Y-75298143D01*
X126850242Y-75303918D01*
X126847620Y-75309462D01*
X126844467Y-75314723D01*
X126840813Y-75319650D01*
X126836694Y-75324194D01*
X126832150Y-75328313D01*
X126827223Y-75331967D01*
X126821962Y-75335120D01*
X126816418Y-75337742D01*
X126810643Y-75339809D01*
X126804693Y-75341299D01*
X126798626Y-75342199D01*
X126792500Y-75342500D01*
X126667500Y-75342500D01*
X126661374Y-75342199D01*
X126655307Y-75341299D01*
X126649357Y-75339809D01*
X126643582Y-75337742D01*
X126638038Y-75335120D01*
X126632777Y-75331967D01*
X126627850Y-75328313D01*
X126623306Y-75324194D01*
X126619187Y-75319650D01*
X126615533Y-75314723D01*
X126612380Y-75309462D01*
X126609758Y-75303918D01*
X126607691Y-75298143D01*
X126606201Y-75292193D01*
X126605301Y-75286126D01*
X126605000Y-75280000D01*
X126605000Y-74580000D01*
X126605301Y-74573874D01*
X126606201Y-74567807D01*
X126607691Y-74561857D01*
X126609758Y-74556082D01*
X126612380Y-74550538D01*
X126615533Y-74545277D01*
X126619187Y-74540350D01*
X126623306Y-74535806D01*
X126627850Y-74531687D01*
X126632777Y-74528033D01*
X126638038Y-74524880D01*
X126643582Y-74522258D01*
X126649357Y-74520191D01*
X126655307Y-74518701D01*
X126661374Y-74517801D01*
X126667500Y-74517500D01*
X126792500Y-74517500D01*
X126798626Y-74517801D01*
X126798626Y-74517801D01*
G37*
D14*
X126730000Y-74930000D03*
D13*
G36*
X127298626Y-74517801D02*
G01*
X127304693Y-74518701D01*
X127310643Y-74520191D01*
X127316418Y-74522258D01*
X127321962Y-74524880D01*
X127327223Y-74528033D01*
X127332150Y-74531687D01*
X127336694Y-74535806D01*
X127340813Y-74540350D01*
X127344467Y-74545277D01*
X127347620Y-74550538D01*
X127350242Y-74556082D01*
X127352309Y-74561857D01*
X127353799Y-74567807D01*
X127354699Y-74573874D01*
X127355000Y-74580000D01*
X127355000Y-75280000D01*
X127354699Y-75286126D01*
X127353799Y-75292193D01*
X127352309Y-75298143D01*
X127350242Y-75303918D01*
X127347620Y-75309462D01*
X127344467Y-75314723D01*
X127340813Y-75319650D01*
X127336694Y-75324194D01*
X127332150Y-75328313D01*
X127327223Y-75331967D01*
X127321962Y-75335120D01*
X127316418Y-75337742D01*
X127310643Y-75339809D01*
X127304693Y-75341299D01*
X127298626Y-75342199D01*
X127292500Y-75342500D01*
X127167500Y-75342500D01*
X127161374Y-75342199D01*
X127155307Y-75341299D01*
X127149357Y-75339809D01*
X127143582Y-75337742D01*
X127138038Y-75335120D01*
X127132777Y-75331967D01*
X127127850Y-75328313D01*
X127123306Y-75324194D01*
X127119187Y-75319650D01*
X127115533Y-75314723D01*
X127112380Y-75309462D01*
X127109758Y-75303918D01*
X127107691Y-75298143D01*
X127106201Y-75292193D01*
X127105301Y-75286126D01*
X127105000Y-75280000D01*
X127105000Y-74580000D01*
X127105301Y-74573874D01*
X127106201Y-74567807D01*
X127107691Y-74561857D01*
X127109758Y-74556082D01*
X127112380Y-74550538D01*
X127115533Y-74545277D01*
X127119187Y-74540350D01*
X127123306Y-74535806D01*
X127127850Y-74531687D01*
X127132777Y-74528033D01*
X127138038Y-74524880D01*
X127143582Y-74522258D01*
X127149357Y-74520191D01*
X127155307Y-74518701D01*
X127161374Y-74517801D01*
X127167500Y-74517500D01*
X127292500Y-74517500D01*
X127298626Y-74517801D01*
X127298626Y-74517801D01*
G37*
D14*
X127230000Y-74930000D03*
D13*
G36*
X127798626Y-74517801D02*
G01*
X127804693Y-74518701D01*
X127810643Y-74520191D01*
X127816418Y-74522258D01*
X127821962Y-74524880D01*
X127827223Y-74528033D01*
X127832150Y-74531687D01*
X127836694Y-74535806D01*
X127840813Y-74540350D01*
X127844467Y-74545277D01*
X127847620Y-74550538D01*
X127850242Y-74556082D01*
X127852309Y-74561857D01*
X127853799Y-74567807D01*
X127854699Y-74573874D01*
X127855000Y-74580000D01*
X127855000Y-75280000D01*
X127854699Y-75286126D01*
X127853799Y-75292193D01*
X127852309Y-75298143D01*
X127850242Y-75303918D01*
X127847620Y-75309462D01*
X127844467Y-75314723D01*
X127840813Y-75319650D01*
X127836694Y-75324194D01*
X127832150Y-75328313D01*
X127827223Y-75331967D01*
X127821962Y-75335120D01*
X127816418Y-75337742D01*
X127810643Y-75339809D01*
X127804693Y-75341299D01*
X127798626Y-75342199D01*
X127792500Y-75342500D01*
X127667500Y-75342500D01*
X127661374Y-75342199D01*
X127655307Y-75341299D01*
X127649357Y-75339809D01*
X127643582Y-75337742D01*
X127638038Y-75335120D01*
X127632777Y-75331967D01*
X127627850Y-75328313D01*
X127623306Y-75324194D01*
X127619187Y-75319650D01*
X127615533Y-75314723D01*
X127612380Y-75309462D01*
X127609758Y-75303918D01*
X127607691Y-75298143D01*
X127606201Y-75292193D01*
X127605301Y-75286126D01*
X127605000Y-75280000D01*
X127605000Y-74580000D01*
X127605301Y-74573874D01*
X127606201Y-74567807D01*
X127607691Y-74561857D01*
X127609758Y-74556082D01*
X127612380Y-74550538D01*
X127615533Y-74545277D01*
X127619187Y-74540350D01*
X127623306Y-74535806D01*
X127627850Y-74531687D01*
X127632777Y-74528033D01*
X127638038Y-74524880D01*
X127643582Y-74522258D01*
X127649357Y-74520191D01*
X127655307Y-74518701D01*
X127661374Y-74517801D01*
X127667500Y-74517500D01*
X127792500Y-74517500D01*
X127798626Y-74517801D01*
X127798626Y-74517801D01*
G37*
D14*
X127730000Y-74930000D03*
D13*
G36*
X128798626Y-75517801D02*
G01*
X128804693Y-75518701D01*
X128810643Y-75520191D01*
X128816418Y-75522258D01*
X128821962Y-75524880D01*
X128827223Y-75528033D01*
X128832150Y-75531687D01*
X128836694Y-75535806D01*
X128840813Y-75540350D01*
X128844467Y-75545277D01*
X128847620Y-75550538D01*
X128850242Y-75556082D01*
X128852309Y-75561857D01*
X128853799Y-75567807D01*
X128854699Y-75573874D01*
X128855000Y-75580000D01*
X128855000Y-75705000D01*
X128854699Y-75711126D01*
X128853799Y-75717193D01*
X128852309Y-75723143D01*
X128850242Y-75728918D01*
X128847620Y-75734462D01*
X128844467Y-75739723D01*
X128840813Y-75744650D01*
X128836694Y-75749194D01*
X128832150Y-75753313D01*
X128827223Y-75756967D01*
X128821962Y-75760120D01*
X128816418Y-75762742D01*
X128810643Y-75764809D01*
X128804693Y-75766299D01*
X128798626Y-75767199D01*
X128792500Y-75767500D01*
X128092500Y-75767500D01*
X128086374Y-75767199D01*
X128080307Y-75766299D01*
X128074357Y-75764809D01*
X128068582Y-75762742D01*
X128063038Y-75760120D01*
X128057777Y-75756967D01*
X128052850Y-75753313D01*
X128048306Y-75749194D01*
X128044187Y-75744650D01*
X128040533Y-75739723D01*
X128037380Y-75734462D01*
X128034758Y-75728918D01*
X128032691Y-75723143D01*
X128031201Y-75717193D01*
X128030301Y-75711126D01*
X128030000Y-75705000D01*
X128030000Y-75580000D01*
X128030301Y-75573874D01*
X128031201Y-75567807D01*
X128032691Y-75561857D01*
X128034758Y-75556082D01*
X128037380Y-75550538D01*
X128040533Y-75545277D01*
X128044187Y-75540350D01*
X128048306Y-75535806D01*
X128052850Y-75531687D01*
X128057777Y-75528033D01*
X128063038Y-75524880D01*
X128068582Y-75522258D01*
X128074357Y-75520191D01*
X128080307Y-75518701D01*
X128086374Y-75517801D01*
X128092500Y-75517500D01*
X128792500Y-75517500D01*
X128798626Y-75517801D01*
X128798626Y-75517801D01*
G37*
D14*
X128442500Y-75642500D03*
D13*
G36*
X128798626Y-76017801D02*
G01*
X128804693Y-76018701D01*
X128810643Y-76020191D01*
X128816418Y-76022258D01*
X128821962Y-76024880D01*
X128827223Y-76028033D01*
X128832150Y-76031687D01*
X128836694Y-76035806D01*
X128840813Y-76040350D01*
X128844467Y-76045277D01*
X128847620Y-76050538D01*
X128850242Y-76056082D01*
X128852309Y-76061857D01*
X128853799Y-76067807D01*
X128854699Y-76073874D01*
X128855000Y-76080000D01*
X128855000Y-76205000D01*
X128854699Y-76211126D01*
X128853799Y-76217193D01*
X128852309Y-76223143D01*
X128850242Y-76228918D01*
X128847620Y-76234462D01*
X128844467Y-76239723D01*
X128840813Y-76244650D01*
X128836694Y-76249194D01*
X128832150Y-76253313D01*
X128827223Y-76256967D01*
X128821962Y-76260120D01*
X128816418Y-76262742D01*
X128810643Y-76264809D01*
X128804693Y-76266299D01*
X128798626Y-76267199D01*
X128792500Y-76267500D01*
X128092500Y-76267500D01*
X128086374Y-76267199D01*
X128080307Y-76266299D01*
X128074357Y-76264809D01*
X128068582Y-76262742D01*
X128063038Y-76260120D01*
X128057777Y-76256967D01*
X128052850Y-76253313D01*
X128048306Y-76249194D01*
X128044187Y-76244650D01*
X128040533Y-76239723D01*
X128037380Y-76234462D01*
X128034758Y-76228918D01*
X128032691Y-76223143D01*
X128031201Y-76217193D01*
X128030301Y-76211126D01*
X128030000Y-76205000D01*
X128030000Y-76080000D01*
X128030301Y-76073874D01*
X128031201Y-76067807D01*
X128032691Y-76061857D01*
X128034758Y-76056082D01*
X128037380Y-76050538D01*
X128040533Y-76045277D01*
X128044187Y-76040350D01*
X128048306Y-76035806D01*
X128052850Y-76031687D01*
X128057777Y-76028033D01*
X128063038Y-76024880D01*
X128068582Y-76022258D01*
X128074357Y-76020191D01*
X128080307Y-76018701D01*
X128086374Y-76017801D01*
X128092500Y-76017500D01*
X128792500Y-76017500D01*
X128798626Y-76017801D01*
X128798626Y-76017801D01*
G37*
D14*
X128442500Y-76142500D03*
D13*
G36*
X128798626Y-76517801D02*
G01*
X128804693Y-76518701D01*
X128810643Y-76520191D01*
X128816418Y-76522258D01*
X128821962Y-76524880D01*
X128827223Y-76528033D01*
X128832150Y-76531687D01*
X128836694Y-76535806D01*
X128840813Y-76540350D01*
X128844467Y-76545277D01*
X128847620Y-76550538D01*
X128850242Y-76556082D01*
X128852309Y-76561857D01*
X128853799Y-76567807D01*
X128854699Y-76573874D01*
X128855000Y-76580000D01*
X128855000Y-76705000D01*
X128854699Y-76711126D01*
X128853799Y-76717193D01*
X128852309Y-76723143D01*
X128850242Y-76728918D01*
X128847620Y-76734462D01*
X128844467Y-76739723D01*
X128840813Y-76744650D01*
X128836694Y-76749194D01*
X128832150Y-76753313D01*
X128827223Y-76756967D01*
X128821962Y-76760120D01*
X128816418Y-76762742D01*
X128810643Y-76764809D01*
X128804693Y-76766299D01*
X128798626Y-76767199D01*
X128792500Y-76767500D01*
X128092500Y-76767500D01*
X128086374Y-76767199D01*
X128080307Y-76766299D01*
X128074357Y-76764809D01*
X128068582Y-76762742D01*
X128063038Y-76760120D01*
X128057777Y-76756967D01*
X128052850Y-76753313D01*
X128048306Y-76749194D01*
X128044187Y-76744650D01*
X128040533Y-76739723D01*
X128037380Y-76734462D01*
X128034758Y-76728918D01*
X128032691Y-76723143D01*
X128031201Y-76717193D01*
X128030301Y-76711126D01*
X128030000Y-76705000D01*
X128030000Y-76580000D01*
X128030301Y-76573874D01*
X128031201Y-76567807D01*
X128032691Y-76561857D01*
X128034758Y-76556082D01*
X128037380Y-76550538D01*
X128040533Y-76545277D01*
X128044187Y-76540350D01*
X128048306Y-76535806D01*
X128052850Y-76531687D01*
X128057777Y-76528033D01*
X128063038Y-76524880D01*
X128068582Y-76522258D01*
X128074357Y-76520191D01*
X128080307Y-76518701D01*
X128086374Y-76517801D01*
X128092500Y-76517500D01*
X128792500Y-76517500D01*
X128798626Y-76517801D01*
X128798626Y-76517801D01*
G37*
D14*
X128442500Y-76642500D03*
D13*
G36*
X128798626Y-77017801D02*
G01*
X128804693Y-77018701D01*
X128810643Y-77020191D01*
X128816418Y-77022258D01*
X128821962Y-77024880D01*
X128827223Y-77028033D01*
X128832150Y-77031687D01*
X128836694Y-77035806D01*
X128840813Y-77040350D01*
X128844467Y-77045277D01*
X128847620Y-77050538D01*
X128850242Y-77056082D01*
X128852309Y-77061857D01*
X128853799Y-77067807D01*
X128854699Y-77073874D01*
X128855000Y-77080000D01*
X128855000Y-77205000D01*
X128854699Y-77211126D01*
X128853799Y-77217193D01*
X128852309Y-77223143D01*
X128850242Y-77228918D01*
X128847620Y-77234462D01*
X128844467Y-77239723D01*
X128840813Y-77244650D01*
X128836694Y-77249194D01*
X128832150Y-77253313D01*
X128827223Y-77256967D01*
X128821962Y-77260120D01*
X128816418Y-77262742D01*
X128810643Y-77264809D01*
X128804693Y-77266299D01*
X128798626Y-77267199D01*
X128792500Y-77267500D01*
X128092500Y-77267500D01*
X128086374Y-77267199D01*
X128080307Y-77266299D01*
X128074357Y-77264809D01*
X128068582Y-77262742D01*
X128063038Y-77260120D01*
X128057777Y-77256967D01*
X128052850Y-77253313D01*
X128048306Y-77249194D01*
X128044187Y-77244650D01*
X128040533Y-77239723D01*
X128037380Y-77234462D01*
X128034758Y-77228918D01*
X128032691Y-77223143D01*
X128031201Y-77217193D01*
X128030301Y-77211126D01*
X128030000Y-77205000D01*
X128030000Y-77080000D01*
X128030301Y-77073874D01*
X128031201Y-77067807D01*
X128032691Y-77061857D01*
X128034758Y-77056082D01*
X128037380Y-77050538D01*
X128040533Y-77045277D01*
X128044187Y-77040350D01*
X128048306Y-77035806D01*
X128052850Y-77031687D01*
X128057777Y-77028033D01*
X128063038Y-77024880D01*
X128068582Y-77022258D01*
X128074357Y-77020191D01*
X128080307Y-77018701D01*
X128086374Y-77017801D01*
X128092500Y-77017500D01*
X128792500Y-77017500D01*
X128798626Y-77017801D01*
X128798626Y-77017801D01*
G37*
D14*
X128442500Y-77142500D03*
D13*
G36*
X128798626Y-77517801D02*
G01*
X128804693Y-77518701D01*
X128810643Y-77520191D01*
X128816418Y-77522258D01*
X128821962Y-77524880D01*
X128827223Y-77528033D01*
X128832150Y-77531687D01*
X128836694Y-77535806D01*
X128840813Y-77540350D01*
X128844467Y-77545277D01*
X128847620Y-77550538D01*
X128850242Y-77556082D01*
X128852309Y-77561857D01*
X128853799Y-77567807D01*
X128854699Y-77573874D01*
X128855000Y-77580000D01*
X128855000Y-77705000D01*
X128854699Y-77711126D01*
X128853799Y-77717193D01*
X128852309Y-77723143D01*
X128850242Y-77728918D01*
X128847620Y-77734462D01*
X128844467Y-77739723D01*
X128840813Y-77744650D01*
X128836694Y-77749194D01*
X128832150Y-77753313D01*
X128827223Y-77756967D01*
X128821962Y-77760120D01*
X128816418Y-77762742D01*
X128810643Y-77764809D01*
X128804693Y-77766299D01*
X128798626Y-77767199D01*
X128792500Y-77767500D01*
X128092500Y-77767500D01*
X128086374Y-77767199D01*
X128080307Y-77766299D01*
X128074357Y-77764809D01*
X128068582Y-77762742D01*
X128063038Y-77760120D01*
X128057777Y-77756967D01*
X128052850Y-77753313D01*
X128048306Y-77749194D01*
X128044187Y-77744650D01*
X128040533Y-77739723D01*
X128037380Y-77734462D01*
X128034758Y-77728918D01*
X128032691Y-77723143D01*
X128031201Y-77717193D01*
X128030301Y-77711126D01*
X128030000Y-77705000D01*
X128030000Y-77580000D01*
X128030301Y-77573874D01*
X128031201Y-77567807D01*
X128032691Y-77561857D01*
X128034758Y-77556082D01*
X128037380Y-77550538D01*
X128040533Y-77545277D01*
X128044187Y-77540350D01*
X128048306Y-77535806D01*
X128052850Y-77531687D01*
X128057777Y-77528033D01*
X128063038Y-77524880D01*
X128068582Y-77522258D01*
X128074357Y-77520191D01*
X128080307Y-77518701D01*
X128086374Y-77517801D01*
X128092500Y-77517500D01*
X128792500Y-77517500D01*
X128798626Y-77517801D01*
X128798626Y-77517801D01*
G37*
D14*
X128442500Y-77642500D03*
D13*
G36*
X128798626Y-78017801D02*
G01*
X128804693Y-78018701D01*
X128810643Y-78020191D01*
X128816418Y-78022258D01*
X128821962Y-78024880D01*
X128827223Y-78028033D01*
X128832150Y-78031687D01*
X128836694Y-78035806D01*
X128840813Y-78040350D01*
X128844467Y-78045277D01*
X128847620Y-78050538D01*
X128850242Y-78056082D01*
X128852309Y-78061857D01*
X128853799Y-78067807D01*
X128854699Y-78073874D01*
X128855000Y-78080000D01*
X128855000Y-78205000D01*
X128854699Y-78211126D01*
X128853799Y-78217193D01*
X128852309Y-78223143D01*
X128850242Y-78228918D01*
X128847620Y-78234462D01*
X128844467Y-78239723D01*
X128840813Y-78244650D01*
X128836694Y-78249194D01*
X128832150Y-78253313D01*
X128827223Y-78256967D01*
X128821962Y-78260120D01*
X128816418Y-78262742D01*
X128810643Y-78264809D01*
X128804693Y-78266299D01*
X128798626Y-78267199D01*
X128792500Y-78267500D01*
X128092500Y-78267500D01*
X128086374Y-78267199D01*
X128080307Y-78266299D01*
X128074357Y-78264809D01*
X128068582Y-78262742D01*
X128063038Y-78260120D01*
X128057777Y-78256967D01*
X128052850Y-78253313D01*
X128048306Y-78249194D01*
X128044187Y-78244650D01*
X128040533Y-78239723D01*
X128037380Y-78234462D01*
X128034758Y-78228918D01*
X128032691Y-78223143D01*
X128031201Y-78217193D01*
X128030301Y-78211126D01*
X128030000Y-78205000D01*
X128030000Y-78080000D01*
X128030301Y-78073874D01*
X128031201Y-78067807D01*
X128032691Y-78061857D01*
X128034758Y-78056082D01*
X128037380Y-78050538D01*
X128040533Y-78045277D01*
X128044187Y-78040350D01*
X128048306Y-78035806D01*
X128052850Y-78031687D01*
X128057777Y-78028033D01*
X128063038Y-78024880D01*
X128068582Y-78022258D01*
X128074357Y-78020191D01*
X128080307Y-78018701D01*
X128086374Y-78017801D01*
X128092500Y-78017500D01*
X128792500Y-78017500D01*
X128798626Y-78017801D01*
X128798626Y-78017801D01*
G37*
D14*
X128442500Y-78142500D03*
D13*
G36*
X127798626Y-78442801D02*
G01*
X127804693Y-78443701D01*
X127810643Y-78445191D01*
X127816418Y-78447258D01*
X127821962Y-78449880D01*
X127827223Y-78453033D01*
X127832150Y-78456687D01*
X127836694Y-78460806D01*
X127840813Y-78465350D01*
X127844467Y-78470277D01*
X127847620Y-78475538D01*
X127850242Y-78481082D01*
X127852309Y-78486857D01*
X127853799Y-78492807D01*
X127854699Y-78498874D01*
X127855000Y-78505000D01*
X127855000Y-79205000D01*
X127854699Y-79211126D01*
X127853799Y-79217193D01*
X127852309Y-79223143D01*
X127850242Y-79228918D01*
X127847620Y-79234462D01*
X127844467Y-79239723D01*
X127840813Y-79244650D01*
X127836694Y-79249194D01*
X127832150Y-79253313D01*
X127827223Y-79256967D01*
X127821962Y-79260120D01*
X127816418Y-79262742D01*
X127810643Y-79264809D01*
X127804693Y-79266299D01*
X127798626Y-79267199D01*
X127792500Y-79267500D01*
X127667500Y-79267500D01*
X127661374Y-79267199D01*
X127655307Y-79266299D01*
X127649357Y-79264809D01*
X127643582Y-79262742D01*
X127638038Y-79260120D01*
X127632777Y-79256967D01*
X127627850Y-79253313D01*
X127623306Y-79249194D01*
X127619187Y-79244650D01*
X127615533Y-79239723D01*
X127612380Y-79234462D01*
X127609758Y-79228918D01*
X127607691Y-79223143D01*
X127606201Y-79217193D01*
X127605301Y-79211126D01*
X127605000Y-79205000D01*
X127605000Y-78505000D01*
X127605301Y-78498874D01*
X127606201Y-78492807D01*
X127607691Y-78486857D01*
X127609758Y-78481082D01*
X127612380Y-78475538D01*
X127615533Y-78470277D01*
X127619187Y-78465350D01*
X127623306Y-78460806D01*
X127627850Y-78456687D01*
X127632777Y-78453033D01*
X127638038Y-78449880D01*
X127643582Y-78447258D01*
X127649357Y-78445191D01*
X127655307Y-78443701D01*
X127661374Y-78442801D01*
X127667500Y-78442500D01*
X127792500Y-78442500D01*
X127798626Y-78442801D01*
X127798626Y-78442801D01*
G37*
D14*
X127730000Y-78855000D03*
D13*
G36*
X127298626Y-78442801D02*
G01*
X127304693Y-78443701D01*
X127310643Y-78445191D01*
X127316418Y-78447258D01*
X127321962Y-78449880D01*
X127327223Y-78453033D01*
X127332150Y-78456687D01*
X127336694Y-78460806D01*
X127340813Y-78465350D01*
X127344467Y-78470277D01*
X127347620Y-78475538D01*
X127350242Y-78481082D01*
X127352309Y-78486857D01*
X127353799Y-78492807D01*
X127354699Y-78498874D01*
X127355000Y-78505000D01*
X127355000Y-79205000D01*
X127354699Y-79211126D01*
X127353799Y-79217193D01*
X127352309Y-79223143D01*
X127350242Y-79228918D01*
X127347620Y-79234462D01*
X127344467Y-79239723D01*
X127340813Y-79244650D01*
X127336694Y-79249194D01*
X127332150Y-79253313D01*
X127327223Y-79256967D01*
X127321962Y-79260120D01*
X127316418Y-79262742D01*
X127310643Y-79264809D01*
X127304693Y-79266299D01*
X127298626Y-79267199D01*
X127292500Y-79267500D01*
X127167500Y-79267500D01*
X127161374Y-79267199D01*
X127155307Y-79266299D01*
X127149357Y-79264809D01*
X127143582Y-79262742D01*
X127138038Y-79260120D01*
X127132777Y-79256967D01*
X127127850Y-79253313D01*
X127123306Y-79249194D01*
X127119187Y-79244650D01*
X127115533Y-79239723D01*
X127112380Y-79234462D01*
X127109758Y-79228918D01*
X127107691Y-79223143D01*
X127106201Y-79217193D01*
X127105301Y-79211126D01*
X127105000Y-79205000D01*
X127105000Y-78505000D01*
X127105301Y-78498874D01*
X127106201Y-78492807D01*
X127107691Y-78486857D01*
X127109758Y-78481082D01*
X127112380Y-78475538D01*
X127115533Y-78470277D01*
X127119187Y-78465350D01*
X127123306Y-78460806D01*
X127127850Y-78456687D01*
X127132777Y-78453033D01*
X127138038Y-78449880D01*
X127143582Y-78447258D01*
X127149357Y-78445191D01*
X127155307Y-78443701D01*
X127161374Y-78442801D01*
X127167500Y-78442500D01*
X127292500Y-78442500D01*
X127298626Y-78442801D01*
X127298626Y-78442801D01*
G37*
D14*
X127230000Y-78855000D03*
D13*
G36*
X126798626Y-78442801D02*
G01*
X126804693Y-78443701D01*
X126810643Y-78445191D01*
X126816418Y-78447258D01*
X126821962Y-78449880D01*
X126827223Y-78453033D01*
X126832150Y-78456687D01*
X126836694Y-78460806D01*
X126840813Y-78465350D01*
X126844467Y-78470277D01*
X126847620Y-78475538D01*
X126850242Y-78481082D01*
X126852309Y-78486857D01*
X126853799Y-78492807D01*
X126854699Y-78498874D01*
X126855000Y-78505000D01*
X126855000Y-79205000D01*
X126854699Y-79211126D01*
X126853799Y-79217193D01*
X126852309Y-79223143D01*
X126850242Y-79228918D01*
X126847620Y-79234462D01*
X126844467Y-79239723D01*
X126840813Y-79244650D01*
X126836694Y-79249194D01*
X126832150Y-79253313D01*
X126827223Y-79256967D01*
X126821962Y-79260120D01*
X126816418Y-79262742D01*
X126810643Y-79264809D01*
X126804693Y-79266299D01*
X126798626Y-79267199D01*
X126792500Y-79267500D01*
X126667500Y-79267500D01*
X126661374Y-79267199D01*
X126655307Y-79266299D01*
X126649357Y-79264809D01*
X126643582Y-79262742D01*
X126638038Y-79260120D01*
X126632777Y-79256967D01*
X126627850Y-79253313D01*
X126623306Y-79249194D01*
X126619187Y-79244650D01*
X126615533Y-79239723D01*
X126612380Y-79234462D01*
X126609758Y-79228918D01*
X126607691Y-79223143D01*
X126606201Y-79217193D01*
X126605301Y-79211126D01*
X126605000Y-79205000D01*
X126605000Y-78505000D01*
X126605301Y-78498874D01*
X126606201Y-78492807D01*
X126607691Y-78486857D01*
X126609758Y-78481082D01*
X126612380Y-78475538D01*
X126615533Y-78470277D01*
X126619187Y-78465350D01*
X126623306Y-78460806D01*
X126627850Y-78456687D01*
X126632777Y-78453033D01*
X126638038Y-78449880D01*
X126643582Y-78447258D01*
X126649357Y-78445191D01*
X126655307Y-78443701D01*
X126661374Y-78442801D01*
X126667500Y-78442500D01*
X126792500Y-78442500D01*
X126798626Y-78442801D01*
X126798626Y-78442801D01*
G37*
D14*
X126730000Y-78855000D03*
D13*
G36*
X126298626Y-78442801D02*
G01*
X126304693Y-78443701D01*
X126310643Y-78445191D01*
X126316418Y-78447258D01*
X126321962Y-78449880D01*
X126327223Y-78453033D01*
X126332150Y-78456687D01*
X126336694Y-78460806D01*
X126340813Y-78465350D01*
X126344467Y-78470277D01*
X126347620Y-78475538D01*
X126350242Y-78481082D01*
X126352309Y-78486857D01*
X126353799Y-78492807D01*
X126354699Y-78498874D01*
X126355000Y-78505000D01*
X126355000Y-79205000D01*
X126354699Y-79211126D01*
X126353799Y-79217193D01*
X126352309Y-79223143D01*
X126350242Y-79228918D01*
X126347620Y-79234462D01*
X126344467Y-79239723D01*
X126340813Y-79244650D01*
X126336694Y-79249194D01*
X126332150Y-79253313D01*
X126327223Y-79256967D01*
X126321962Y-79260120D01*
X126316418Y-79262742D01*
X126310643Y-79264809D01*
X126304693Y-79266299D01*
X126298626Y-79267199D01*
X126292500Y-79267500D01*
X126167500Y-79267500D01*
X126161374Y-79267199D01*
X126155307Y-79266299D01*
X126149357Y-79264809D01*
X126143582Y-79262742D01*
X126138038Y-79260120D01*
X126132777Y-79256967D01*
X126127850Y-79253313D01*
X126123306Y-79249194D01*
X126119187Y-79244650D01*
X126115533Y-79239723D01*
X126112380Y-79234462D01*
X126109758Y-79228918D01*
X126107691Y-79223143D01*
X126106201Y-79217193D01*
X126105301Y-79211126D01*
X126105000Y-79205000D01*
X126105000Y-78505000D01*
X126105301Y-78498874D01*
X126106201Y-78492807D01*
X126107691Y-78486857D01*
X126109758Y-78481082D01*
X126112380Y-78475538D01*
X126115533Y-78470277D01*
X126119187Y-78465350D01*
X126123306Y-78460806D01*
X126127850Y-78456687D01*
X126132777Y-78453033D01*
X126138038Y-78449880D01*
X126143582Y-78447258D01*
X126149357Y-78445191D01*
X126155307Y-78443701D01*
X126161374Y-78442801D01*
X126167500Y-78442500D01*
X126292500Y-78442500D01*
X126298626Y-78442801D01*
X126298626Y-78442801D01*
G37*
D14*
X126230000Y-78855000D03*
D13*
G36*
X125798626Y-78442801D02*
G01*
X125804693Y-78443701D01*
X125810643Y-78445191D01*
X125816418Y-78447258D01*
X125821962Y-78449880D01*
X125827223Y-78453033D01*
X125832150Y-78456687D01*
X125836694Y-78460806D01*
X125840813Y-78465350D01*
X125844467Y-78470277D01*
X125847620Y-78475538D01*
X125850242Y-78481082D01*
X125852309Y-78486857D01*
X125853799Y-78492807D01*
X125854699Y-78498874D01*
X125855000Y-78505000D01*
X125855000Y-79205000D01*
X125854699Y-79211126D01*
X125853799Y-79217193D01*
X125852309Y-79223143D01*
X125850242Y-79228918D01*
X125847620Y-79234462D01*
X125844467Y-79239723D01*
X125840813Y-79244650D01*
X125836694Y-79249194D01*
X125832150Y-79253313D01*
X125827223Y-79256967D01*
X125821962Y-79260120D01*
X125816418Y-79262742D01*
X125810643Y-79264809D01*
X125804693Y-79266299D01*
X125798626Y-79267199D01*
X125792500Y-79267500D01*
X125667500Y-79267500D01*
X125661374Y-79267199D01*
X125655307Y-79266299D01*
X125649357Y-79264809D01*
X125643582Y-79262742D01*
X125638038Y-79260120D01*
X125632777Y-79256967D01*
X125627850Y-79253313D01*
X125623306Y-79249194D01*
X125619187Y-79244650D01*
X125615533Y-79239723D01*
X125612380Y-79234462D01*
X125609758Y-79228918D01*
X125607691Y-79223143D01*
X125606201Y-79217193D01*
X125605301Y-79211126D01*
X125605000Y-79205000D01*
X125605000Y-78505000D01*
X125605301Y-78498874D01*
X125606201Y-78492807D01*
X125607691Y-78486857D01*
X125609758Y-78481082D01*
X125612380Y-78475538D01*
X125615533Y-78470277D01*
X125619187Y-78465350D01*
X125623306Y-78460806D01*
X125627850Y-78456687D01*
X125632777Y-78453033D01*
X125638038Y-78449880D01*
X125643582Y-78447258D01*
X125649357Y-78445191D01*
X125655307Y-78443701D01*
X125661374Y-78442801D01*
X125667500Y-78442500D01*
X125792500Y-78442500D01*
X125798626Y-78442801D01*
X125798626Y-78442801D01*
G37*
D14*
X125730000Y-78855000D03*
D13*
G36*
X125298626Y-78442801D02*
G01*
X125304693Y-78443701D01*
X125310643Y-78445191D01*
X125316418Y-78447258D01*
X125321962Y-78449880D01*
X125327223Y-78453033D01*
X125332150Y-78456687D01*
X125336694Y-78460806D01*
X125340813Y-78465350D01*
X125344467Y-78470277D01*
X125347620Y-78475538D01*
X125350242Y-78481082D01*
X125352309Y-78486857D01*
X125353799Y-78492807D01*
X125354699Y-78498874D01*
X125355000Y-78505000D01*
X125355000Y-79205000D01*
X125354699Y-79211126D01*
X125353799Y-79217193D01*
X125352309Y-79223143D01*
X125350242Y-79228918D01*
X125347620Y-79234462D01*
X125344467Y-79239723D01*
X125340813Y-79244650D01*
X125336694Y-79249194D01*
X125332150Y-79253313D01*
X125327223Y-79256967D01*
X125321962Y-79260120D01*
X125316418Y-79262742D01*
X125310643Y-79264809D01*
X125304693Y-79266299D01*
X125298626Y-79267199D01*
X125292500Y-79267500D01*
X125167500Y-79267500D01*
X125161374Y-79267199D01*
X125155307Y-79266299D01*
X125149357Y-79264809D01*
X125143582Y-79262742D01*
X125138038Y-79260120D01*
X125132777Y-79256967D01*
X125127850Y-79253313D01*
X125123306Y-79249194D01*
X125119187Y-79244650D01*
X125115533Y-79239723D01*
X125112380Y-79234462D01*
X125109758Y-79228918D01*
X125107691Y-79223143D01*
X125106201Y-79217193D01*
X125105301Y-79211126D01*
X125105000Y-79205000D01*
X125105000Y-78505000D01*
X125105301Y-78498874D01*
X125106201Y-78492807D01*
X125107691Y-78486857D01*
X125109758Y-78481082D01*
X125112380Y-78475538D01*
X125115533Y-78470277D01*
X125119187Y-78465350D01*
X125123306Y-78460806D01*
X125127850Y-78456687D01*
X125132777Y-78453033D01*
X125138038Y-78449880D01*
X125143582Y-78447258D01*
X125149357Y-78445191D01*
X125155307Y-78443701D01*
X125161374Y-78442801D01*
X125167500Y-78442500D01*
X125292500Y-78442500D01*
X125298626Y-78442801D01*
X125298626Y-78442801D01*
G37*
D14*
X125230000Y-78855000D03*
D15*
X127580000Y-75792500D03*
X127580000Y-76892500D03*
X127580000Y-77992500D03*
X126480000Y-75792500D03*
X126480000Y-76892500D03*
X126480000Y-77992500D03*
X125380000Y-75792500D03*
X125380000Y-76892500D03*
X125380000Y-77992500D03*
D13*
G36*
X127604503Y-75543704D02*
G01*
X127628772Y-75547304D01*
X127652570Y-75553265D01*
X127675670Y-75561530D01*
X127697849Y-75572020D01*
X127718892Y-75584633D01*
X127738598Y-75599248D01*
X127756776Y-75615724D01*
X127773252Y-75633902D01*
X127787867Y-75653608D01*
X127800480Y-75674651D01*
X127810970Y-75696830D01*
X127819235Y-75719930D01*
X127825196Y-75743728D01*
X127828796Y-75767997D01*
X127830000Y-75792501D01*
X127830000Y-77992499D01*
X127828796Y-78017003D01*
X127825196Y-78041272D01*
X127819235Y-78065070D01*
X127810970Y-78088170D01*
X127800480Y-78110349D01*
X127787867Y-78131392D01*
X127773252Y-78151098D01*
X127756776Y-78169276D01*
X127738598Y-78185752D01*
X127718892Y-78200367D01*
X127697849Y-78212980D01*
X127675670Y-78223470D01*
X127652570Y-78231735D01*
X127628772Y-78237696D01*
X127604503Y-78241296D01*
X127579999Y-78242500D01*
X125380001Y-78242500D01*
X125355497Y-78241296D01*
X125331228Y-78237696D01*
X125307430Y-78231735D01*
X125284330Y-78223470D01*
X125262151Y-78212980D01*
X125241108Y-78200367D01*
X125221402Y-78185752D01*
X125203224Y-78169276D01*
X125186748Y-78151098D01*
X125172133Y-78131392D01*
X125159520Y-78110349D01*
X125149030Y-78088170D01*
X125140765Y-78065070D01*
X125134804Y-78041272D01*
X125131204Y-78017003D01*
X125130000Y-77992499D01*
X125130000Y-75792501D01*
X125131204Y-75767997D01*
X125134804Y-75743728D01*
X125140765Y-75719930D01*
X125149030Y-75696830D01*
X125159520Y-75674651D01*
X125172133Y-75653608D01*
X125186748Y-75633902D01*
X125203224Y-75615724D01*
X125221402Y-75599248D01*
X125241108Y-75584633D01*
X125262151Y-75572020D01*
X125284330Y-75561530D01*
X125307430Y-75553265D01*
X125331228Y-75547304D01*
X125355497Y-75543704D01*
X125380001Y-75542500D01*
X127579999Y-75542500D01*
X127604503Y-75543704D01*
X127604503Y-75543704D01*
G37*
D16*
X126480000Y-76892500D03*
D13*
G36*
X122967691Y-70201053D02*
G01*
X122988926Y-70204203D01*
X123009750Y-70209419D01*
X123029962Y-70216651D01*
X123049368Y-70225830D01*
X123067781Y-70236866D01*
X123085024Y-70249654D01*
X123100930Y-70264070D01*
X123115346Y-70279976D01*
X123128134Y-70297219D01*
X123139170Y-70315632D01*
X123148349Y-70335038D01*
X123155581Y-70355250D01*
X123160797Y-70376074D01*
X123163947Y-70397309D01*
X123165000Y-70418750D01*
X123165000Y-70856250D01*
X123163947Y-70877691D01*
X123160797Y-70898926D01*
X123155581Y-70919750D01*
X123148349Y-70939962D01*
X123139170Y-70959368D01*
X123128134Y-70977781D01*
X123115346Y-70995024D01*
X123100930Y-71010930D01*
X123085024Y-71025346D01*
X123067781Y-71038134D01*
X123049368Y-71049170D01*
X123029962Y-71058349D01*
X123009750Y-71065581D01*
X122988926Y-71070797D01*
X122967691Y-71073947D01*
X122946250Y-71075000D01*
X122433750Y-71075000D01*
X122412309Y-71073947D01*
X122391074Y-71070797D01*
X122370250Y-71065581D01*
X122350038Y-71058349D01*
X122330632Y-71049170D01*
X122312219Y-71038134D01*
X122294976Y-71025346D01*
X122279070Y-71010930D01*
X122264654Y-70995024D01*
X122251866Y-70977781D01*
X122240830Y-70959368D01*
X122231651Y-70939962D01*
X122224419Y-70919750D01*
X122219203Y-70898926D01*
X122216053Y-70877691D01*
X122215000Y-70856250D01*
X122215000Y-70418750D01*
X122216053Y-70397309D01*
X122219203Y-70376074D01*
X122224419Y-70355250D01*
X122231651Y-70335038D01*
X122240830Y-70315632D01*
X122251866Y-70297219D01*
X122264654Y-70279976D01*
X122279070Y-70264070D01*
X122294976Y-70249654D01*
X122312219Y-70236866D01*
X122330632Y-70225830D01*
X122350038Y-70216651D01*
X122370250Y-70209419D01*
X122391074Y-70204203D01*
X122412309Y-70201053D01*
X122433750Y-70200000D01*
X122946250Y-70200000D01*
X122967691Y-70201053D01*
X122967691Y-70201053D01*
G37*
D17*
X122690000Y-70637500D03*
D13*
G36*
X122967691Y-68626053D02*
G01*
X122988926Y-68629203D01*
X123009750Y-68634419D01*
X123029962Y-68641651D01*
X123049368Y-68650830D01*
X123067781Y-68661866D01*
X123085024Y-68674654D01*
X123100930Y-68689070D01*
X123115346Y-68704976D01*
X123128134Y-68722219D01*
X123139170Y-68740632D01*
X123148349Y-68760038D01*
X123155581Y-68780250D01*
X123160797Y-68801074D01*
X123163947Y-68822309D01*
X123165000Y-68843750D01*
X123165000Y-69281250D01*
X123163947Y-69302691D01*
X123160797Y-69323926D01*
X123155581Y-69344750D01*
X123148349Y-69364962D01*
X123139170Y-69384368D01*
X123128134Y-69402781D01*
X123115346Y-69420024D01*
X123100930Y-69435930D01*
X123085024Y-69450346D01*
X123067781Y-69463134D01*
X123049368Y-69474170D01*
X123029962Y-69483349D01*
X123009750Y-69490581D01*
X122988926Y-69495797D01*
X122967691Y-69498947D01*
X122946250Y-69500000D01*
X122433750Y-69500000D01*
X122412309Y-69498947D01*
X122391074Y-69495797D01*
X122370250Y-69490581D01*
X122350038Y-69483349D01*
X122330632Y-69474170D01*
X122312219Y-69463134D01*
X122294976Y-69450346D01*
X122279070Y-69435930D01*
X122264654Y-69420024D01*
X122251866Y-69402781D01*
X122240830Y-69384368D01*
X122231651Y-69364962D01*
X122224419Y-69344750D01*
X122219203Y-69323926D01*
X122216053Y-69302691D01*
X122215000Y-69281250D01*
X122215000Y-68843750D01*
X122216053Y-68822309D01*
X122219203Y-68801074D01*
X122224419Y-68780250D01*
X122231651Y-68760038D01*
X122240830Y-68740632D01*
X122251866Y-68722219D01*
X122264654Y-68704976D01*
X122279070Y-68689070D01*
X122294976Y-68674654D01*
X122312219Y-68661866D01*
X122330632Y-68650830D01*
X122350038Y-68641651D01*
X122370250Y-68634419D01*
X122391074Y-68629203D01*
X122412309Y-68626053D01*
X122433750Y-68625000D01*
X122946250Y-68625000D01*
X122967691Y-68626053D01*
X122967691Y-68626053D01*
G37*
D17*
X122690000Y-69062500D03*
D18*
X120650000Y-82550000D03*
X123900000Y-82550000D03*
D19*
X127000000Y-69220000D03*
X127000000Y-71120000D03*
X124800000Y-71120000D03*
X124800000Y-70170000D03*
X124800000Y-69220000D03*
D13*
G36*
X135342691Y-71916053D02*
G01*
X135363926Y-71919203D01*
X135384750Y-71924419D01*
X135404962Y-71931651D01*
X135424368Y-71940830D01*
X135442781Y-71951866D01*
X135460024Y-71964654D01*
X135475930Y-71979070D01*
X135490346Y-71994976D01*
X135503134Y-72012219D01*
X135514170Y-72030632D01*
X135523349Y-72050038D01*
X135530581Y-72070250D01*
X135535797Y-72091074D01*
X135538947Y-72112309D01*
X135540000Y-72133750D01*
X135540000Y-72646250D01*
X135538947Y-72667691D01*
X135535797Y-72688926D01*
X135530581Y-72709750D01*
X135523349Y-72729962D01*
X135514170Y-72749368D01*
X135503134Y-72767781D01*
X135490346Y-72785024D01*
X135475930Y-72800930D01*
X135460024Y-72815346D01*
X135442781Y-72828134D01*
X135424368Y-72839170D01*
X135404962Y-72848349D01*
X135384750Y-72855581D01*
X135363926Y-72860797D01*
X135342691Y-72863947D01*
X135321250Y-72865000D01*
X134883750Y-72865000D01*
X134862309Y-72863947D01*
X134841074Y-72860797D01*
X134820250Y-72855581D01*
X134800038Y-72848349D01*
X134780632Y-72839170D01*
X134762219Y-72828134D01*
X134744976Y-72815346D01*
X134729070Y-72800930D01*
X134714654Y-72785024D01*
X134701866Y-72767781D01*
X134690830Y-72749368D01*
X134681651Y-72729962D01*
X134674419Y-72709750D01*
X134669203Y-72688926D01*
X134666053Y-72667691D01*
X134665000Y-72646250D01*
X134665000Y-72133750D01*
X134666053Y-72112309D01*
X134669203Y-72091074D01*
X134674419Y-72070250D01*
X134681651Y-72050038D01*
X134690830Y-72030632D01*
X134701866Y-72012219D01*
X134714654Y-71994976D01*
X134729070Y-71979070D01*
X134744976Y-71964654D01*
X134762219Y-71951866D01*
X134780632Y-71940830D01*
X134800038Y-71931651D01*
X134820250Y-71924419D01*
X134841074Y-71919203D01*
X134862309Y-71916053D01*
X134883750Y-71915000D01*
X135321250Y-71915000D01*
X135342691Y-71916053D01*
X135342691Y-71916053D01*
G37*
D17*
X135102500Y-72390000D03*
D13*
G36*
X136917691Y-71916053D02*
G01*
X136938926Y-71919203D01*
X136959750Y-71924419D01*
X136979962Y-71931651D01*
X136999368Y-71940830D01*
X137017781Y-71951866D01*
X137035024Y-71964654D01*
X137050930Y-71979070D01*
X137065346Y-71994976D01*
X137078134Y-72012219D01*
X137089170Y-72030632D01*
X137098349Y-72050038D01*
X137105581Y-72070250D01*
X137110797Y-72091074D01*
X137113947Y-72112309D01*
X137115000Y-72133750D01*
X137115000Y-72646250D01*
X137113947Y-72667691D01*
X137110797Y-72688926D01*
X137105581Y-72709750D01*
X137098349Y-72729962D01*
X137089170Y-72749368D01*
X137078134Y-72767781D01*
X137065346Y-72785024D01*
X137050930Y-72800930D01*
X137035024Y-72815346D01*
X137017781Y-72828134D01*
X136999368Y-72839170D01*
X136979962Y-72848349D01*
X136959750Y-72855581D01*
X136938926Y-72860797D01*
X136917691Y-72863947D01*
X136896250Y-72865000D01*
X136458750Y-72865000D01*
X136437309Y-72863947D01*
X136416074Y-72860797D01*
X136395250Y-72855581D01*
X136375038Y-72848349D01*
X136355632Y-72839170D01*
X136337219Y-72828134D01*
X136319976Y-72815346D01*
X136304070Y-72800930D01*
X136289654Y-72785024D01*
X136276866Y-72767781D01*
X136265830Y-72749368D01*
X136256651Y-72729962D01*
X136249419Y-72709750D01*
X136244203Y-72688926D01*
X136241053Y-72667691D01*
X136240000Y-72646250D01*
X136240000Y-72133750D01*
X136241053Y-72112309D01*
X136244203Y-72091074D01*
X136249419Y-72070250D01*
X136256651Y-72050038D01*
X136265830Y-72030632D01*
X136276866Y-72012219D01*
X136289654Y-71994976D01*
X136304070Y-71979070D01*
X136319976Y-71964654D01*
X136337219Y-71951866D01*
X136355632Y-71940830D01*
X136375038Y-71931651D01*
X136395250Y-71924419D01*
X136416074Y-71919203D01*
X136437309Y-71916053D01*
X136458750Y-71915000D01*
X136896250Y-71915000D01*
X136917691Y-71916053D01*
X136917691Y-71916053D01*
G37*
D17*
X136677500Y-72390000D03*
D13*
G36*
X139152691Y-71916053D02*
G01*
X139173926Y-71919203D01*
X139194750Y-71924419D01*
X139214962Y-71931651D01*
X139234368Y-71940830D01*
X139252781Y-71951866D01*
X139270024Y-71964654D01*
X139285930Y-71979070D01*
X139300346Y-71994976D01*
X139313134Y-72012219D01*
X139324170Y-72030632D01*
X139333349Y-72050038D01*
X139340581Y-72070250D01*
X139345797Y-72091074D01*
X139348947Y-72112309D01*
X139350000Y-72133750D01*
X139350000Y-72646250D01*
X139348947Y-72667691D01*
X139345797Y-72688926D01*
X139340581Y-72709750D01*
X139333349Y-72729962D01*
X139324170Y-72749368D01*
X139313134Y-72767781D01*
X139300346Y-72785024D01*
X139285930Y-72800930D01*
X139270024Y-72815346D01*
X139252781Y-72828134D01*
X139234368Y-72839170D01*
X139214962Y-72848349D01*
X139194750Y-72855581D01*
X139173926Y-72860797D01*
X139152691Y-72863947D01*
X139131250Y-72865000D01*
X138693750Y-72865000D01*
X138672309Y-72863947D01*
X138651074Y-72860797D01*
X138630250Y-72855581D01*
X138610038Y-72848349D01*
X138590632Y-72839170D01*
X138572219Y-72828134D01*
X138554976Y-72815346D01*
X138539070Y-72800930D01*
X138524654Y-72785024D01*
X138511866Y-72767781D01*
X138500830Y-72749368D01*
X138491651Y-72729962D01*
X138484419Y-72709750D01*
X138479203Y-72688926D01*
X138476053Y-72667691D01*
X138475000Y-72646250D01*
X138475000Y-72133750D01*
X138476053Y-72112309D01*
X138479203Y-72091074D01*
X138484419Y-72070250D01*
X138491651Y-72050038D01*
X138500830Y-72030632D01*
X138511866Y-72012219D01*
X138524654Y-71994976D01*
X138539070Y-71979070D01*
X138554976Y-71964654D01*
X138572219Y-71951866D01*
X138590632Y-71940830D01*
X138610038Y-71931651D01*
X138630250Y-71924419D01*
X138651074Y-71919203D01*
X138672309Y-71916053D01*
X138693750Y-71915000D01*
X139131250Y-71915000D01*
X139152691Y-71916053D01*
X139152691Y-71916053D01*
G37*
D17*
X138912500Y-72390000D03*
D13*
G36*
X140727691Y-71916053D02*
G01*
X140748926Y-71919203D01*
X140769750Y-71924419D01*
X140789962Y-71931651D01*
X140809368Y-71940830D01*
X140827781Y-71951866D01*
X140845024Y-71964654D01*
X140860930Y-71979070D01*
X140875346Y-71994976D01*
X140888134Y-72012219D01*
X140899170Y-72030632D01*
X140908349Y-72050038D01*
X140915581Y-72070250D01*
X140920797Y-72091074D01*
X140923947Y-72112309D01*
X140925000Y-72133750D01*
X140925000Y-72646250D01*
X140923947Y-72667691D01*
X140920797Y-72688926D01*
X140915581Y-72709750D01*
X140908349Y-72729962D01*
X140899170Y-72749368D01*
X140888134Y-72767781D01*
X140875346Y-72785024D01*
X140860930Y-72800930D01*
X140845024Y-72815346D01*
X140827781Y-72828134D01*
X140809368Y-72839170D01*
X140789962Y-72848349D01*
X140769750Y-72855581D01*
X140748926Y-72860797D01*
X140727691Y-72863947D01*
X140706250Y-72865000D01*
X140268750Y-72865000D01*
X140247309Y-72863947D01*
X140226074Y-72860797D01*
X140205250Y-72855581D01*
X140185038Y-72848349D01*
X140165632Y-72839170D01*
X140147219Y-72828134D01*
X140129976Y-72815346D01*
X140114070Y-72800930D01*
X140099654Y-72785024D01*
X140086866Y-72767781D01*
X140075830Y-72749368D01*
X140066651Y-72729962D01*
X140059419Y-72709750D01*
X140054203Y-72688926D01*
X140051053Y-72667691D01*
X140050000Y-72646250D01*
X140050000Y-72133750D01*
X140051053Y-72112309D01*
X140054203Y-72091074D01*
X140059419Y-72070250D01*
X140066651Y-72050038D01*
X140075830Y-72030632D01*
X140086866Y-72012219D01*
X140099654Y-71994976D01*
X140114070Y-71979070D01*
X140129976Y-71964654D01*
X140147219Y-71951866D01*
X140165632Y-71940830D01*
X140185038Y-71931651D01*
X140205250Y-71924419D01*
X140226074Y-71919203D01*
X140247309Y-71916053D01*
X140268750Y-71915000D01*
X140706250Y-71915000D01*
X140727691Y-71916053D01*
X140727691Y-71916053D01*
G37*
D17*
X140487500Y-72390000D03*
D13*
G36*
X123302691Y-84616053D02*
G01*
X123323926Y-84619203D01*
X123344750Y-84624419D01*
X123364962Y-84631651D01*
X123384368Y-84640830D01*
X123402781Y-84651866D01*
X123420024Y-84664654D01*
X123435930Y-84679070D01*
X123450346Y-84694976D01*
X123463134Y-84712219D01*
X123474170Y-84730632D01*
X123483349Y-84750038D01*
X123490581Y-84770250D01*
X123495797Y-84791074D01*
X123498947Y-84812309D01*
X123500000Y-84833750D01*
X123500000Y-85346250D01*
X123498947Y-85367691D01*
X123495797Y-85388926D01*
X123490581Y-85409750D01*
X123483349Y-85429962D01*
X123474170Y-85449368D01*
X123463134Y-85467781D01*
X123450346Y-85485024D01*
X123435930Y-85500930D01*
X123420024Y-85515346D01*
X123402781Y-85528134D01*
X123384368Y-85539170D01*
X123364962Y-85548349D01*
X123344750Y-85555581D01*
X123323926Y-85560797D01*
X123302691Y-85563947D01*
X123281250Y-85565000D01*
X122843750Y-85565000D01*
X122822309Y-85563947D01*
X122801074Y-85560797D01*
X122780250Y-85555581D01*
X122760038Y-85548349D01*
X122740632Y-85539170D01*
X122722219Y-85528134D01*
X122704976Y-85515346D01*
X122689070Y-85500930D01*
X122674654Y-85485024D01*
X122661866Y-85467781D01*
X122650830Y-85449368D01*
X122641651Y-85429962D01*
X122634419Y-85409750D01*
X122629203Y-85388926D01*
X122626053Y-85367691D01*
X122625000Y-85346250D01*
X122625000Y-84833750D01*
X122626053Y-84812309D01*
X122629203Y-84791074D01*
X122634419Y-84770250D01*
X122641651Y-84750038D01*
X122650830Y-84730632D01*
X122661866Y-84712219D01*
X122674654Y-84694976D01*
X122689070Y-84679070D01*
X122704976Y-84664654D01*
X122722219Y-84651866D01*
X122740632Y-84640830D01*
X122760038Y-84631651D01*
X122780250Y-84624419D01*
X122801074Y-84619203D01*
X122822309Y-84616053D01*
X122843750Y-84615000D01*
X123281250Y-84615000D01*
X123302691Y-84616053D01*
X123302691Y-84616053D01*
G37*
D17*
X123062500Y-85090000D03*
D13*
G36*
X121727691Y-84616053D02*
G01*
X121748926Y-84619203D01*
X121769750Y-84624419D01*
X121789962Y-84631651D01*
X121809368Y-84640830D01*
X121827781Y-84651866D01*
X121845024Y-84664654D01*
X121860930Y-84679070D01*
X121875346Y-84694976D01*
X121888134Y-84712219D01*
X121899170Y-84730632D01*
X121908349Y-84750038D01*
X121915581Y-84770250D01*
X121920797Y-84791074D01*
X121923947Y-84812309D01*
X121925000Y-84833750D01*
X121925000Y-85346250D01*
X121923947Y-85367691D01*
X121920797Y-85388926D01*
X121915581Y-85409750D01*
X121908349Y-85429962D01*
X121899170Y-85449368D01*
X121888134Y-85467781D01*
X121875346Y-85485024D01*
X121860930Y-85500930D01*
X121845024Y-85515346D01*
X121827781Y-85528134D01*
X121809368Y-85539170D01*
X121789962Y-85548349D01*
X121769750Y-85555581D01*
X121748926Y-85560797D01*
X121727691Y-85563947D01*
X121706250Y-85565000D01*
X121268750Y-85565000D01*
X121247309Y-85563947D01*
X121226074Y-85560797D01*
X121205250Y-85555581D01*
X121185038Y-85548349D01*
X121165632Y-85539170D01*
X121147219Y-85528134D01*
X121129976Y-85515346D01*
X121114070Y-85500930D01*
X121099654Y-85485024D01*
X121086866Y-85467781D01*
X121075830Y-85449368D01*
X121066651Y-85429962D01*
X121059419Y-85409750D01*
X121054203Y-85388926D01*
X121051053Y-85367691D01*
X121050000Y-85346250D01*
X121050000Y-84833750D01*
X121051053Y-84812309D01*
X121054203Y-84791074D01*
X121059419Y-84770250D01*
X121066651Y-84750038D01*
X121075830Y-84730632D01*
X121086866Y-84712219D01*
X121099654Y-84694976D01*
X121114070Y-84679070D01*
X121129976Y-84664654D01*
X121147219Y-84651866D01*
X121165632Y-84640830D01*
X121185038Y-84631651D01*
X121205250Y-84624419D01*
X121226074Y-84619203D01*
X121247309Y-84616053D01*
X121268750Y-84615000D01*
X121706250Y-84615000D01*
X121727691Y-84616053D01*
X121727691Y-84616053D01*
G37*
D17*
X121487500Y-85090000D03*
D20*
X113750000Y-80960000D03*
X113750000Y-72310000D03*
D21*
X117130000Y-80960000D03*
X117130000Y-72310000D03*
D22*
X116760000Y-77060000D03*
X116760000Y-79610000D03*
X116760000Y-78760000D03*
X116760000Y-77910000D03*
X116760000Y-73660000D03*
X116760000Y-75360000D03*
X116760000Y-76210000D03*
X116760000Y-74510000D03*
X118110000Y-79610000D03*
X118110000Y-78760000D03*
X118110000Y-77910000D03*
X118110000Y-77060000D03*
X118110000Y-76210000D03*
X118110000Y-75360000D03*
X118110000Y-74510000D03*
X118110000Y-73660000D03*
D23*
X146050000Y-71740000D03*
X146050000Y-74240000D03*
X146050000Y-76240000D03*
D24*
X146050000Y-78740000D03*
D25*
X148760000Y-81810000D03*
X148760000Y-68670000D03*
D13*
G36*
X136917691Y-74206053D02*
G01*
X136938926Y-74209203D01*
X136959750Y-74214419D01*
X136979962Y-74221651D01*
X136999368Y-74230830D01*
X137017781Y-74241866D01*
X137035024Y-74254654D01*
X137050930Y-74269070D01*
X137065346Y-74284976D01*
X137078134Y-74302219D01*
X137089170Y-74320632D01*
X137098349Y-74340038D01*
X137105581Y-74360250D01*
X137110797Y-74381074D01*
X137113947Y-74402309D01*
X137115000Y-74423750D01*
X137115000Y-74936250D01*
X137113947Y-74957691D01*
X137110797Y-74978926D01*
X137105581Y-74999750D01*
X137098349Y-75019962D01*
X137089170Y-75039368D01*
X137078134Y-75057781D01*
X137065346Y-75075024D01*
X137050930Y-75090930D01*
X137035024Y-75105346D01*
X137017781Y-75118134D01*
X136999368Y-75129170D01*
X136979962Y-75138349D01*
X136959750Y-75145581D01*
X136938926Y-75150797D01*
X136917691Y-75153947D01*
X136896250Y-75155000D01*
X136458750Y-75155000D01*
X136437309Y-75153947D01*
X136416074Y-75150797D01*
X136395250Y-75145581D01*
X136375038Y-75138349D01*
X136355632Y-75129170D01*
X136337219Y-75118134D01*
X136319976Y-75105346D01*
X136304070Y-75090930D01*
X136289654Y-75075024D01*
X136276866Y-75057781D01*
X136265830Y-75039368D01*
X136256651Y-75019962D01*
X136249419Y-74999750D01*
X136244203Y-74978926D01*
X136241053Y-74957691D01*
X136240000Y-74936250D01*
X136240000Y-74423750D01*
X136241053Y-74402309D01*
X136244203Y-74381074D01*
X136249419Y-74360250D01*
X136256651Y-74340038D01*
X136265830Y-74320632D01*
X136276866Y-74302219D01*
X136289654Y-74284976D01*
X136304070Y-74269070D01*
X136319976Y-74254654D01*
X136337219Y-74241866D01*
X136355632Y-74230830D01*
X136375038Y-74221651D01*
X136395250Y-74214419D01*
X136416074Y-74209203D01*
X136437309Y-74206053D01*
X136458750Y-74205000D01*
X136896250Y-74205000D01*
X136917691Y-74206053D01*
X136917691Y-74206053D01*
G37*
D17*
X136677500Y-74680000D03*
D13*
G36*
X135342691Y-74206053D02*
G01*
X135363926Y-74209203D01*
X135384750Y-74214419D01*
X135404962Y-74221651D01*
X135424368Y-74230830D01*
X135442781Y-74241866D01*
X135460024Y-74254654D01*
X135475930Y-74269070D01*
X135490346Y-74284976D01*
X135503134Y-74302219D01*
X135514170Y-74320632D01*
X135523349Y-74340038D01*
X135530581Y-74360250D01*
X135535797Y-74381074D01*
X135538947Y-74402309D01*
X135540000Y-74423750D01*
X135540000Y-74936250D01*
X135538947Y-74957691D01*
X135535797Y-74978926D01*
X135530581Y-74999750D01*
X135523349Y-75019962D01*
X135514170Y-75039368D01*
X135503134Y-75057781D01*
X135490346Y-75075024D01*
X135475930Y-75090930D01*
X135460024Y-75105346D01*
X135442781Y-75118134D01*
X135424368Y-75129170D01*
X135404962Y-75138349D01*
X135384750Y-75145581D01*
X135363926Y-75150797D01*
X135342691Y-75153947D01*
X135321250Y-75155000D01*
X134883750Y-75155000D01*
X134862309Y-75153947D01*
X134841074Y-75150797D01*
X134820250Y-75145581D01*
X134800038Y-75138349D01*
X134780632Y-75129170D01*
X134762219Y-75118134D01*
X134744976Y-75105346D01*
X134729070Y-75090930D01*
X134714654Y-75075024D01*
X134701866Y-75057781D01*
X134690830Y-75039368D01*
X134681651Y-75019962D01*
X134674419Y-74999750D01*
X134669203Y-74978926D01*
X134666053Y-74957691D01*
X134665000Y-74936250D01*
X134665000Y-74423750D01*
X134666053Y-74402309D01*
X134669203Y-74381074D01*
X134674419Y-74360250D01*
X134681651Y-74340038D01*
X134690830Y-74320632D01*
X134701866Y-74302219D01*
X134714654Y-74284976D01*
X134729070Y-74269070D01*
X134744976Y-74254654D01*
X134762219Y-74241866D01*
X134780632Y-74230830D01*
X134800038Y-74221651D01*
X134820250Y-74214419D01*
X134841074Y-74209203D01*
X134862309Y-74206053D01*
X134883750Y-74205000D01*
X135321250Y-74205000D01*
X135342691Y-74206053D01*
X135342691Y-74206053D01*
G37*
D17*
X135102500Y-74680000D03*
D13*
G36*
X140727691Y-74206053D02*
G01*
X140748926Y-74209203D01*
X140769750Y-74214419D01*
X140789962Y-74221651D01*
X140809368Y-74230830D01*
X140827781Y-74241866D01*
X140845024Y-74254654D01*
X140860930Y-74269070D01*
X140875346Y-74284976D01*
X140888134Y-74302219D01*
X140899170Y-74320632D01*
X140908349Y-74340038D01*
X140915581Y-74360250D01*
X140920797Y-74381074D01*
X140923947Y-74402309D01*
X140925000Y-74423750D01*
X140925000Y-74936250D01*
X140923947Y-74957691D01*
X140920797Y-74978926D01*
X140915581Y-74999750D01*
X140908349Y-75019962D01*
X140899170Y-75039368D01*
X140888134Y-75057781D01*
X140875346Y-75075024D01*
X140860930Y-75090930D01*
X140845024Y-75105346D01*
X140827781Y-75118134D01*
X140809368Y-75129170D01*
X140789962Y-75138349D01*
X140769750Y-75145581D01*
X140748926Y-75150797D01*
X140727691Y-75153947D01*
X140706250Y-75155000D01*
X140268750Y-75155000D01*
X140247309Y-75153947D01*
X140226074Y-75150797D01*
X140205250Y-75145581D01*
X140185038Y-75138349D01*
X140165632Y-75129170D01*
X140147219Y-75118134D01*
X140129976Y-75105346D01*
X140114070Y-75090930D01*
X140099654Y-75075024D01*
X140086866Y-75057781D01*
X140075830Y-75039368D01*
X140066651Y-75019962D01*
X140059419Y-74999750D01*
X140054203Y-74978926D01*
X140051053Y-74957691D01*
X140050000Y-74936250D01*
X140050000Y-74423750D01*
X140051053Y-74402309D01*
X140054203Y-74381074D01*
X140059419Y-74360250D01*
X140066651Y-74340038D01*
X140075830Y-74320632D01*
X140086866Y-74302219D01*
X140099654Y-74284976D01*
X140114070Y-74269070D01*
X140129976Y-74254654D01*
X140147219Y-74241866D01*
X140165632Y-74230830D01*
X140185038Y-74221651D01*
X140205250Y-74214419D01*
X140226074Y-74209203D01*
X140247309Y-74206053D01*
X140268750Y-74205000D01*
X140706250Y-74205000D01*
X140727691Y-74206053D01*
X140727691Y-74206053D01*
G37*
D17*
X140487500Y-74680000D03*
D13*
G36*
X139152691Y-74206053D02*
G01*
X139173926Y-74209203D01*
X139194750Y-74214419D01*
X139214962Y-74221651D01*
X139234368Y-74230830D01*
X139252781Y-74241866D01*
X139270024Y-74254654D01*
X139285930Y-74269070D01*
X139300346Y-74284976D01*
X139313134Y-74302219D01*
X139324170Y-74320632D01*
X139333349Y-74340038D01*
X139340581Y-74360250D01*
X139345797Y-74381074D01*
X139348947Y-74402309D01*
X139350000Y-74423750D01*
X139350000Y-74936250D01*
X139348947Y-74957691D01*
X139345797Y-74978926D01*
X139340581Y-74999750D01*
X139333349Y-75019962D01*
X139324170Y-75039368D01*
X139313134Y-75057781D01*
X139300346Y-75075024D01*
X139285930Y-75090930D01*
X139270024Y-75105346D01*
X139252781Y-75118134D01*
X139234368Y-75129170D01*
X139214962Y-75138349D01*
X139194750Y-75145581D01*
X139173926Y-75150797D01*
X139152691Y-75153947D01*
X139131250Y-75155000D01*
X138693750Y-75155000D01*
X138672309Y-75153947D01*
X138651074Y-75150797D01*
X138630250Y-75145581D01*
X138610038Y-75138349D01*
X138590632Y-75129170D01*
X138572219Y-75118134D01*
X138554976Y-75105346D01*
X138539070Y-75090930D01*
X138524654Y-75075024D01*
X138511866Y-75057781D01*
X138500830Y-75039368D01*
X138491651Y-75019962D01*
X138484419Y-74999750D01*
X138479203Y-74978926D01*
X138476053Y-74957691D01*
X138475000Y-74936250D01*
X138475000Y-74423750D01*
X138476053Y-74402309D01*
X138479203Y-74381074D01*
X138484419Y-74360250D01*
X138491651Y-74340038D01*
X138500830Y-74320632D01*
X138511866Y-74302219D01*
X138524654Y-74284976D01*
X138539070Y-74269070D01*
X138554976Y-74254654D01*
X138572219Y-74241866D01*
X138590632Y-74230830D01*
X138610038Y-74221651D01*
X138630250Y-74214419D01*
X138651074Y-74209203D01*
X138672309Y-74206053D01*
X138693750Y-74205000D01*
X139131250Y-74205000D01*
X139152691Y-74206053D01*
X139152691Y-74206053D01*
G37*
D17*
X138912500Y-74680000D03*
D13*
G36*
X128897691Y-70201053D02*
G01*
X128918926Y-70204203D01*
X128939750Y-70209419D01*
X128959962Y-70216651D01*
X128979368Y-70225830D01*
X128997781Y-70236866D01*
X129015024Y-70249654D01*
X129030930Y-70264070D01*
X129045346Y-70279976D01*
X129058134Y-70297219D01*
X129069170Y-70315632D01*
X129078349Y-70335038D01*
X129085581Y-70355250D01*
X129090797Y-70376074D01*
X129093947Y-70397309D01*
X129095000Y-70418750D01*
X129095000Y-70856250D01*
X129093947Y-70877691D01*
X129090797Y-70898926D01*
X129085581Y-70919750D01*
X129078349Y-70939962D01*
X129069170Y-70959368D01*
X129058134Y-70977781D01*
X129045346Y-70995024D01*
X129030930Y-71010930D01*
X129015024Y-71025346D01*
X128997781Y-71038134D01*
X128979368Y-71049170D01*
X128959962Y-71058349D01*
X128939750Y-71065581D01*
X128918926Y-71070797D01*
X128897691Y-71073947D01*
X128876250Y-71075000D01*
X128363750Y-71075000D01*
X128342309Y-71073947D01*
X128321074Y-71070797D01*
X128300250Y-71065581D01*
X128280038Y-71058349D01*
X128260632Y-71049170D01*
X128242219Y-71038134D01*
X128224976Y-71025346D01*
X128209070Y-71010930D01*
X128194654Y-70995024D01*
X128181866Y-70977781D01*
X128170830Y-70959368D01*
X128161651Y-70939962D01*
X128154419Y-70919750D01*
X128149203Y-70898926D01*
X128146053Y-70877691D01*
X128145000Y-70856250D01*
X128145000Y-70418750D01*
X128146053Y-70397309D01*
X128149203Y-70376074D01*
X128154419Y-70355250D01*
X128161651Y-70335038D01*
X128170830Y-70315632D01*
X128181866Y-70297219D01*
X128194654Y-70279976D01*
X128209070Y-70264070D01*
X128224976Y-70249654D01*
X128242219Y-70236866D01*
X128260632Y-70225830D01*
X128280038Y-70216651D01*
X128300250Y-70209419D01*
X128321074Y-70204203D01*
X128342309Y-70201053D01*
X128363750Y-70200000D01*
X128876250Y-70200000D01*
X128897691Y-70201053D01*
X128897691Y-70201053D01*
G37*
D17*
X128620000Y-70637500D03*
D13*
G36*
X128897691Y-68626053D02*
G01*
X128918926Y-68629203D01*
X128939750Y-68634419D01*
X128959962Y-68641651D01*
X128979368Y-68650830D01*
X128997781Y-68661866D01*
X129015024Y-68674654D01*
X129030930Y-68689070D01*
X129045346Y-68704976D01*
X129058134Y-68722219D01*
X129069170Y-68740632D01*
X129078349Y-68760038D01*
X129085581Y-68780250D01*
X129090797Y-68801074D01*
X129093947Y-68822309D01*
X129095000Y-68843750D01*
X129095000Y-69281250D01*
X129093947Y-69302691D01*
X129090797Y-69323926D01*
X129085581Y-69344750D01*
X129078349Y-69364962D01*
X129069170Y-69384368D01*
X129058134Y-69402781D01*
X129045346Y-69420024D01*
X129030930Y-69435930D01*
X129015024Y-69450346D01*
X128997781Y-69463134D01*
X128979368Y-69474170D01*
X128959962Y-69483349D01*
X128939750Y-69490581D01*
X128918926Y-69495797D01*
X128897691Y-69498947D01*
X128876250Y-69500000D01*
X128363750Y-69500000D01*
X128342309Y-69498947D01*
X128321074Y-69495797D01*
X128300250Y-69490581D01*
X128280038Y-69483349D01*
X128260632Y-69474170D01*
X128242219Y-69463134D01*
X128224976Y-69450346D01*
X128209070Y-69435930D01*
X128194654Y-69420024D01*
X128181866Y-69402781D01*
X128170830Y-69384368D01*
X128161651Y-69364962D01*
X128154419Y-69344750D01*
X128149203Y-69323926D01*
X128146053Y-69302691D01*
X128145000Y-69281250D01*
X128145000Y-68843750D01*
X128146053Y-68822309D01*
X128149203Y-68801074D01*
X128154419Y-68780250D01*
X128161651Y-68760038D01*
X128170830Y-68740632D01*
X128181866Y-68722219D01*
X128194654Y-68704976D01*
X128209070Y-68689070D01*
X128224976Y-68674654D01*
X128242219Y-68661866D01*
X128260632Y-68650830D01*
X128280038Y-68641651D01*
X128300250Y-68634419D01*
X128321074Y-68629203D01*
X128342309Y-68626053D01*
X128363750Y-68625000D01*
X128876250Y-68625000D01*
X128897691Y-68626053D01*
X128897691Y-68626053D01*
G37*
D17*
X128620000Y-69062500D03*
D13*
G36*
X118267691Y-84616053D02*
G01*
X118288926Y-84619203D01*
X118309750Y-84624419D01*
X118329962Y-84631651D01*
X118349368Y-84640830D01*
X118367781Y-84651866D01*
X118385024Y-84664654D01*
X118400930Y-84679070D01*
X118415346Y-84694976D01*
X118428134Y-84712219D01*
X118439170Y-84730632D01*
X118448349Y-84750038D01*
X118455581Y-84770250D01*
X118460797Y-84791074D01*
X118463947Y-84812309D01*
X118465000Y-84833750D01*
X118465000Y-85346250D01*
X118463947Y-85367691D01*
X118460797Y-85388926D01*
X118455581Y-85409750D01*
X118448349Y-85429962D01*
X118439170Y-85449368D01*
X118428134Y-85467781D01*
X118415346Y-85485024D01*
X118400930Y-85500930D01*
X118385024Y-85515346D01*
X118367781Y-85528134D01*
X118349368Y-85539170D01*
X118329962Y-85548349D01*
X118309750Y-85555581D01*
X118288926Y-85560797D01*
X118267691Y-85563947D01*
X118246250Y-85565000D01*
X117808750Y-85565000D01*
X117787309Y-85563947D01*
X117766074Y-85560797D01*
X117745250Y-85555581D01*
X117725038Y-85548349D01*
X117705632Y-85539170D01*
X117687219Y-85528134D01*
X117669976Y-85515346D01*
X117654070Y-85500930D01*
X117639654Y-85485024D01*
X117626866Y-85467781D01*
X117615830Y-85449368D01*
X117606651Y-85429962D01*
X117599419Y-85409750D01*
X117594203Y-85388926D01*
X117591053Y-85367691D01*
X117590000Y-85346250D01*
X117590000Y-84833750D01*
X117591053Y-84812309D01*
X117594203Y-84791074D01*
X117599419Y-84770250D01*
X117606651Y-84750038D01*
X117615830Y-84730632D01*
X117626866Y-84712219D01*
X117639654Y-84694976D01*
X117654070Y-84679070D01*
X117669976Y-84664654D01*
X117687219Y-84651866D01*
X117705632Y-84640830D01*
X117725038Y-84631651D01*
X117745250Y-84624419D01*
X117766074Y-84619203D01*
X117787309Y-84616053D01*
X117808750Y-84615000D01*
X118246250Y-84615000D01*
X118267691Y-84616053D01*
X118267691Y-84616053D01*
G37*
D17*
X118027500Y-85090000D03*
D13*
G36*
X119842691Y-84616053D02*
G01*
X119863926Y-84619203D01*
X119884750Y-84624419D01*
X119904962Y-84631651D01*
X119924368Y-84640830D01*
X119942781Y-84651866D01*
X119960024Y-84664654D01*
X119975930Y-84679070D01*
X119990346Y-84694976D01*
X120003134Y-84712219D01*
X120014170Y-84730632D01*
X120023349Y-84750038D01*
X120030581Y-84770250D01*
X120035797Y-84791074D01*
X120038947Y-84812309D01*
X120040000Y-84833750D01*
X120040000Y-85346250D01*
X120038947Y-85367691D01*
X120035797Y-85388926D01*
X120030581Y-85409750D01*
X120023349Y-85429962D01*
X120014170Y-85449368D01*
X120003134Y-85467781D01*
X119990346Y-85485024D01*
X119975930Y-85500930D01*
X119960024Y-85515346D01*
X119942781Y-85528134D01*
X119924368Y-85539170D01*
X119904962Y-85548349D01*
X119884750Y-85555581D01*
X119863926Y-85560797D01*
X119842691Y-85563947D01*
X119821250Y-85565000D01*
X119383750Y-85565000D01*
X119362309Y-85563947D01*
X119341074Y-85560797D01*
X119320250Y-85555581D01*
X119300038Y-85548349D01*
X119280632Y-85539170D01*
X119262219Y-85528134D01*
X119244976Y-85515346D01*
X119229070Y-85500930D01*
X119214654Y-85485024D01*
X119201866Y-85467781D01*
X119190830Y-85449368D01*
X119181651Y-85429962D01*
X119174419Y-85409750D01*
X119169203Y-85388926D01*
X119166053Y-85367691D01*
X119165000Y-85346250D01*
X119165000Y-84833750D01*
X119166053Y-84812309D01*
X119169203Y-84791074D01*
X119174419Y-84770250D01*
X119181651Y-84750038D01*
X119190830Y-84730632D01*
X119201866Y-84712219D01*
X119214654Y-84694976D01*
X119229070Y-84679070D01*
X119244976Y-84664654D01*
X119262219Y-84651866D01*
X119280632Y-84640830D01*
X119300038Y-84631651D01*
X119320250Y-84624419D01*
X119341074Y-84619203D01*
X119362309Y-84616053D01*
X119383750Y-84615000D01*
X119821250Y-84615000D01*
X119842691Y-84616053D01*
X119842691Y-84616053D01*
G37*
D17*
X119602500Y-85090000D03*
D13*
G36*
X126757691Y-84616053D02*
G01*
X126778926Y-84619203D01*
X126799750Y-84624419D01*
X126819962Y-84631651D01*
X126839368Y-84640830D01*
X126857781Y-84651866D01*
X126875024Y-84664654D01*
X126890930Y-84679070D01*
X126905346Y-84694976D01*
X126918134Y-84712219D01*
X126929170Y-84730632D01*
X126938349Y-84750038D01*
X126945581Y-84770250D01*
X126950797Y-84791074D01*
X126953947Y-84812309D01*
X126955000Y-84833750D01*
X126955000Y-85346250D01*
X126953947Y-85367691D01*
X126950797Y-85388926D01*
X126945581Y-85409750D01*
X126938349Y-85429962D01*
X126929170Y-85449368D01*
X126918134Y-85467781D01*
X126905346Y-85485024D01*
X126890930Y-85500930D01*
X126875024Y-85515346D01*
X126857781Y-85528134D01*
X126839368Y-85539170D01*
X126819962Y-85548349D01*
X126799750Y-85555581D01*
X126778926Y-85560797D01*
X126757691Y-85563947D01*
X126736250Y-85565000D01*
X126298750Y-85565000D01*
X126277309Y-85563947D01*
X126256074Y-85560797D01*
X126235250Y-85555581D01*
X126215038Y-85548349D01*
X126195632Y-85539170D01*
X126177219Y-85528134D01*
X126159976Y-85515346D01*
X126144070Y-85500930D01*
X126129654Y-85485024D01*
X126116866Y-85467781D01*
X126105830Y-85449368D01*
X126096651Y-85429962D01*
X126089419Y-85409750D01*
X126084203Y-85388926D01*
X126081053Y-85367691D01*
X126080000Y-85346250D01*
X126080000Y-84833750D01*
X126081053Y-84812309D01*
X126084203Y-84791074D01*
X126089419Y-84770250D01*
X126096651Y-84750038D01*
X126105830Y-84730632D01*
X126116866Y-84712219D01*
X126129654Y-84694976D01*
X126144070Y-84679070D01*
X126159976Y-84664654D01*
X126177219Y-84651866D01*
X126195632Y-84640830D01*
X126215038Y-84631651D01*
X126235250Y-84624419D01*
X126256074Y-84619203D01*
X126277309Y-84616053D01*
X126298750Y-84615000D01*
X126736250Y-84615000D01*
X126757691Y-84616053D01*
X126757691Y-84616053D01*
G37*
D17*
X126517500Y-85090000D03*
D13*
G36*
X125182691Y-84616053D02*
G01*
X125203926Y-84619203D01*
X125224750Y-84624419D01*
X125244962Y-84631651D01*
X125264368Y-84640830D01*
X125282781Y-84651866D01*
X125300024Y-84664654D01*
X125315930Y-84679070D01*
X125330346Y-84694976D01*
X125343134Y-84712219D01*
X125354170Y-84730632D01*
X125363349Y-84750038D01*
X125370581Y-84770250D01*
X125375797Y-84791074D01*
X125378947Y-84812309D01*
X125380000Y-84833750D01*
X125380000Y-85346250D01*
X125378947Y-85367691D01*
X125375797Y-85388926D01*
X125370581Y-85409750D01*
X125363349Y-85429962D01*
X125354170Y-85449368D01*
X125343134Y-85467781D01*
X125330346Y-85485024D01*
X125315930Y-85500930D01*
X125300024Y-85515346D01*
X125282781Y-85528134D01*
X125264368Y-85539170D01*
X125244962Y-85548349D01*
X125224750Y-85555581D01*
X125203926Y-85560797D01*
X125182691Y-85563947D01*
X125161250Y-85565000D01*
X124723750Y-85565000D01*
X124702309Y-85563947D01*
X124681074Y-85560797D01*
X124660250Y-85555581D01*
X124640038Y-85548349D01*
X124620632Y-85539170D01*
X124602219Y-85528134D01*
X124584976Y-85515346D01*
X124569070Y-85500930D01*
X124554654Y-85485024D01*
X124541866Y-85467781D01*
X124530830Y-85449368D01*
X124521651Y-85429962D01*
X124514419Y-85409750D01*
X124509203Y-85388926D01*
X124506053Y-85367691D01*
X124505000Y-85346250D01*
X124505000Y-84833750D01*
X124506053Y-84812309D01*
X124509203Y-84791074D01*
X124514419Y-84770250D01*
X124521651Y-84750038D01*
X124530830Y-84730632D01*
X124541866Y-84712219D01*
X124554654Y-84694976D01*
X124569070Y-84679070D01*
X124584976Y-84664654D01*
X124602219Y-84651866D01*
X124620632Y-84640830D01*
X124640038Y-84631651D01*
X124660250Y-84624419D01*
X124681074Y-84619203D01*
X124702309Y-84616053D01*
X124723750Y-84615000D01*
X125161250Y-84615000D01*
X125182691Y-84616053D01*
X125182691Y-84616053D01*
G37*
D17*
X124942500Y-85090000D03*
D26*
X129540000Y-76700000D03*
X123190000Y-80010000D03*
X120650000Y-80010000D03*
X121920000Y-73660000D03*
X123190000Y-72390000D03*
X120650000Y-74930000D03*
X120650000Y-78740000D03*
X134620000Y-76200000D03*
X134620000Y-80010000D03*
X132080000Y-80010000D03*
X132080000Y-76200000D03*
X138036250Y-71513750D03*
X124460000Y-68580000D03*
X124710000Y-80260000D03*
X129540000Y-77970000D03*
X119380000Y-77220000D03*
X119380000Y-75950000D03*
X128270000Y-73660000D03*
X126500000Y-73660000D03*
X123746847Y-78740000D03*
X124972500Y-73660000D03*
D27*
X129482500Y-76642500D02*
X129540000Y-76700000D01*
X128442500Y-76642500D02*
X129482500Y-76642500D01*
X116265026Y-79610000D02*
X116760000Y-79610000D01*
X115634990Y-78979964D02*
X116265026Y-79610000D01*
X115634990Y-74290036D02*
X115634990Y-78979964D01*
X116265026Y-73660000D02*
X115634990Y-74290036D01*
X116760000Y-73660000D02*
X116265026Y-73660000D01*
D28*
X123157500Y-70170000D02*
X124800000Y-70170000D01*
X122690000Y-70637500D02*
X123157500Y-70170000D01*
D27*
X123900000Y-82525000D02*
X123900000Y-82550000D01*
X123900000Y-84252500D02*
X123062500Y-85090000D01*
X123900000Y-82550000D02*
X123900000Y-84252500D01*
X124105000Y-84252500D02*
X124942500Y-85090000D01*
X123900000Y-84252500D02*
X124105000Y-84252500D01*
X124005000Y-77142500D02*
X124517500Y-77142500D01*
X122370010Y-78777490D02*
X124005000Y-77142500D01*
X122370010Y-78777490D02*
X122370010Y-80010000D01*
X122370010Y-80010000D02*
X122370010Y-81466400D01*
X122370010Y-81466400D02*
X122370010Y-81730010D01*
X122370010Y-81730010D02*
X123190000Y-82550000D01*
X120650000Y-84252500D02*
X121487500Y-85090000D01*
X120650000Y-82550000D02*
X120650000Y-84252500D01*
X120440000Y-84252500D02*
X119602500Y-85090000D01*
X120650000Y-84252500D02*
X120440000Y-84252500D01*
X123868590Y-76642500D02*
X121920000Y-78591090D01*
X124517500Y-76642500D02*
X123868590Y-76642500D01*
X121920000Y-78591090D02*
X121920000Y-81280000D01*
X121920000Y-81280000D02*
X120650000Y-82550000D01*
D28*
X125560002Y-71120000D02*
X124800000Y-71120000D01*
X125805001Y-70875001D02*
X125560002Y-71120000D01*
X125805001Y-69464999D02*
X125805001Y-70875001D01*
X125560002Y-69220000D02*
X125805001Y-69464999D01*
X124800000Y-69220000D02*
X125560002Y-69220000D01*
X130083616Y-68149990D02*
X124890010Y-68149990D01*
X133373616Y-71439990D02*
X130083616Y-68149990D01*
X137962490Y-71439990D02*
X133373616Y-71439990D01*
X138912500Y-72390000D02*
X138671250Y-72148750D01*
X138671250Y-72148750D02*
X138036250Y-71513750D01*
X138036250Y-71513750D02*
X137962490Y-71439990D01*
D27*
X116265026Y-78760000D02*
X116760000Y-78760000D01*
X116084999Y-78579973D02*
X116265026Y-78760000D01*
X116084999Y-74690027D02*
X116084999Y-78579973D01*
X116265026Y-74510000D02*
X116084999Y-74690027D01*
X116760000Y-74510000D02*
X116265026Y-74510000D01*
D28*
X123977500Y-69062500D02*
X124460000Y-68580000D01*
X122690000Y-69062500D02*
X123977500Y-69062500D01*
X124135000Y-69220000D02*
X123977500Y-69062500D01*
X124800000Y-69220000D02*
X124135000Y-69220000D01*
X119380000Y-73660000D02*
X118505001Y-74534999D01*
X122690000Y-69062500D02*
X119380000Y-72372500D01*
X119380000Y-72372500D02*
X119380000Y-73660000D01*
X124460000Y-68580000D02*
X124890010Y-68149990D01*
D27*
X125004999Y-74704999D02*
X125230000Y-74930000D01*
X126230000Y-74930000D02*
X126455001Y-74704999D01*
X126504999Y-74704999D02*
X126455001Y-74704999D01*
X126730000Y-74930000D02*
X126504999Y-74704999D01*
X125320501Y-72934999D02*
X125730000Y-73344498D01*
X124247499Y-73311999D02*
X124624499Y-72934999D01*
X124247499Y-74008001D02*
X124247499Y-73311999D01*
X125004999Y-74704999D02*
X124944497Y-74704999D01*
X124944497Y-74704999D02*
X124247499Y-74008001D01*
X126504999Y-74434999D02*
X126504999Y-74704999D01*
X125730000Y-73660000D02*
X126504999Y-74434999D01*
X125730000Y-73344498D02*
X125730000Y-73660000D01*
D28*
X127000000Y-69220000D02*
X127205000Y-69220000D01*
X135102500Y-72390000D02*
X132867500Y-72390000D01*
D27*
X129540000Y-77727500D02*
X129540000Y-77970000D01*
X128955000Y-77142500D02*
X129540000Y-77727500D01*
X128442500Y-77142500D02*
X128955000Y-77142500D01*
X125230000Y-79740000D02*
X124710000Y-80260000D01*
X125230000Y-78855000D02*
X125230000Y-79740000D01*
D28*
X128080000Y-69220000D02*
X128400000Y-68900000D01*
X127000000Y-69220000D02*
X128080000Y-69220000D01*
X129540000Y-69062500D02*
X128620000Y-69062500D01*
D27*
X129939999Y-77570001D02*
X129540000Y-77970000D01*
X124624499Y-72934999D02*
X125185001Y-72934999D01*
X125185001Y-72934999D02*
X125320501Y-72934999D01*
X125185001Y-72934999D02*
X128618001Y-72934999D01*
X128618001Y-72934999D02*
X130265001Y-74581999D01*
X130265001Y-74581999D02*
X130265001Y-77244999D01*
X130265001Y-77244999D02*
X129939999Y-77570001D01*
D28*
X128618001Y-72934999D02*
X128995001Y-72934999D01*
X129933750Y-71996250D02*
X129933750Y-69456250D01*
X128995001Y-72934999D02*
X129933750Y-71996250D01*
X132867500Y-72390000D02*
X129933750Y-69456250D01*
X129933750Y-69456250D02*
X129540000Y-69062500D01*
D29*
X127230000Y-78855000D02*
X127205000Y-78880000D01*
D27*
X127230000Y-78855000D02*
X127279990Y-78855000D01*
D28*
X141250000Y-77750000D02*
X142540000Y-77750000D01*
X142540000Y-77750000D02*
X144552045Y-75737955D01*
X144552045Y-75737955D02*
X146050000Y-74240000D01*
X140690000Y-77750000D02*
X131297954Y-77750000D01*
D27*
X130192954Y-78855000D02*
X128690522Y-78855000D01*
X128690522Y-78855000D02*
X127953012Y-79592510D01*
X127953012Y-79592510D02*
X127506988Y-79592510D01*
X127506988Y-79592510D02*
X127279990Y-79365512D01*
X127279990Y-79365512D02*
X127279990Y-78855000D01*
X131297954Y-77750000D02*
X130192954Y-78855000D01*
D28*
X140690000Y-77750000D02*
X141250000Y-77750000D01*
D29*
X126730000Y-78855000D02*
X126755000Y-78880000D01*
D27*
X126730000Y-78855000D02*
X126779990Y-78904990D01*
D28*
X145054092Y-76240000D02*
X146050000Y-76240000D01*
X142834092Y-78460000D02*
X145054092Y-76240000D01*
X141250000Y-78460000D02*
X142834092Y-78460000D01*
X140690000Y-78460000D02*
X131592046Y-78460000D01*
D27*
X127337165Y-80002501D02*
X126779990Y-79445326D01*
X128122835Y-80002501D02*
X127337165Y-80002501D01*
X126779990Y-79445326D02*
X126779990Y-78904990D01*
X128860336Y-79265000D02*
X128122835Y-80002501D01*
X131592046Y-78460000D02*
X130787046Y-79265000D01*
X130787046Y-79265000D02*
X128860336Y-79265000D01*
D28*
X140690000Y-78460000D02*
X141250000Y-78460000D01*
D27*
X140487500Y-72390000D02*
X140487500Y-74930000D01*
X136677500Y-72390000D02*
X136677500Y-74930000D01*
D29*
X126230000Y-78855000D02*
X126205000Y-78880000D01*
D28*
X140069582Y-84845001D02*
X131835001Y-84845001D01*
X140970000Y-81280000D02*
X140970000Y-83944583D01*
X140970000Y-83944583D02*
X140069582Y-84845001D01*
X131835001Y-84845001D02*
X131544990Y-84554990D01*
X131544990Y-84554990D02*
X128270000Y-81280000D01*
X140450010Y-80760010D02*
X139389336Y-80760010D01*
X140970000Y-81280000D02*
X140450010Y-80760010D01*
D27*
X137384915Y-81194999D02*
X137819904Y-80760010D01*
X137440001Y-81194999D02*
X137384915Y-81194999D01*
X136220000Y-82565002D02*
X136599999Y-82945001D01*
X136220000Y-83820000D02*
X136220000Y-82565002D01*
X136599999Y-82945001D02*
X137440001Y-82945001D01*
X137440001Y-82945001D02*
X137895001Y-82490001D01*
X137819904Y-80760010D02*
X139389336Y-80760010D01*
X137895001Y-82490001D02*
X137895001Y-81649999D01*
X137895001Y-81649999D02*
X137440001Y-81194999D01*
X126185000Y-78900000D02*
X126185000Y-79486746D01*
X126230000Y-78855000D02*
X126185000Y-78900000D01*
X126185000Y-79486746D02*
X127150764Y-80452510D01*
X127150764Y-80452510D02*
X127442510Y-80452510D01*
X127442510Y-80452510D02*
X128270000Y-81280000D01*
D29*
X125730000Y-78855000D02*
X125755000Y-78880000D01*
D28*
X140380246Y-85595011D02*
X131524336Y-85595010D01*
X131524336Y-85595010D02*
X131234325Y-85304999D01*
X131234325Y-85304999D02*
X127739663Y-81810337D01*
X141720010Y-80969336D02*
X140760674Y-80010000D01*
X141720010Y-84255247D02*
X141720010Y-80969336D01*
X141562628Y-84412628D02*
X141720010Y-84255247D01*
X141562628Y-84412628D02*
X140380246Y-85595011D01*
X140760674Y-80010000D02*
X139700000Y-80010000D01*
D27*
X136805087Y-81194999D02*
X137990086Y-80010000D01*
X136144999Y-81649999D02*
X136599999Y-81194999D01*
X135930086Y-82070000D02*
X136144999Y-81855087D01*
X135420000Y-82070000D02*
X135930086Y-82070000D01*
X136599999Y-81194999D02*
X136805087Y-81194999D01*
X136144999Y-81855087D02*
X136144999Y-81649999D01*
X137990086Y-80010000D02*
X139700000Y-80010000D01*
X125775000Y-79845674D02*
X127739663Y-81810337D01*
X125775000Y-78900000D02*
X125775000Y-79845674D01*
X125730000Y-78855000D02*
X125775000Y-78900000D01*
D28*
X119380000Y-77220000D02*
X119660000Y-76940000D01*
X119660000Y-76940000D02*
X121682046Y-76940000D01*
D27*
X124472500Y-76097500D02*
X124517500Y-76142500D01*
X121682046Y-77042500D02*
X122524546Y-76200000D01*
X122524546Y-76200000D02*
X124472500Y-76200000D01*
X117960998Y-77060000D02*
X118110000Y-77060000D01*
X117110998Y-76210000D02*
X117960998Y-77060000D01*
X116760000Y-76210000D02*
X117110998Y-76210000D01*
X118270000Y-77060000D02*
X119380000Y-75950000D01*
X118110000Y-77060000D02*
X118270000Y-77060000D01*
D28*
X119660000Y-76230000D02*
X121387954Y-76230000D01*
X119380000Y-75950000D02*
X119660000Y-76230000D01*
D27*
X124472500Y-75687500D02*
X124517500Y-75642500D01*
X121975454Y-75642500D02*
X124517500Y-75642500D01*
X121387954Y-76230000D02*
X121930454Y-75687500D01*
X127730000Y-74200000D02*
X128270000Y-73660000D01*
X127730000Y-74930000D02*
X127730000Y-74200000D01*
X127230000Y-74930000D02*
X127230000Y-73890000D01*
X127000000Y-73660000D02*
X126366410Y-73660000D01*
X127230000Y-73890000D02*
X127000000Y-73660000D01*
X123920000Y-78740000D02*
X124517500Y-78142500D01*
X123920000Y-78740000D02*
X123746847Y-78740000D01*
X125730000Y-74417500D02*
X124972500Y-73660000D01*
X125730000Y-74930000D02*
X125730000Y-74417500D01*
D30*
G36*
X133195271Y-66843962D02*
G01*
X132883962Y-67155271D01*
X132639369Y-67521331D01*
X132470890Y-67928075D01*
X132385000Y-68359872D01*
X132385000Y-68800128D01*
X132470890Y-69231925D01*
X132483905Y-69263345D01*
X130758703Y-67538144D01*
X130730197Y-67503409D01*
X130591631Y-67389692D01*
X130433543Y-67305192D01*
X130262007Y-67253157D01*
X130128320Y-67239990D01*
X130128318Y-67239990D01*
X130083616Y-67235587D01*
X130038914Y-67239990D01*
X124934712Y-67239990D01*
X124890010Y-67235587D01*
X124845308Y-67239990D01*
X124845306Y-67239990D01*
X124711619Y-67253157D01*
X124540083Y-67305192D01*
X124381995Y-67389692D01*
X124243429Y-67503409D01*
X124214923Y-67538144D01*
X124170823Y-67582244D01*
X124158102Y-67584774D01*
X123969744Y-67662795D01*
X123800226Y-67776063D01*
X123656063Y-67920226D01*
X123542795Y-68089744D01*
X123516800Y-68152500D01*
X123448072Y-68152500D01*
X123422275Y-68131329D01*
X123274142Y-68052150D01*
X123113408Y-68003392D01*
X122946250Y-67986928D01*
X122433750Y-67986928D01*
X122266592Y-68003392D01*
X122105858Y-68052150D01*
X121957725Y-68131329D01*
X121827885Y-68237885D01*
X121721329Y-68367725D01*
X121642150Y-68515858D01*
X121593392Y-68676592D01*
X121576928Y-68843750D01*
X121576928Y-68888638D01*
X118774532Y-71691035D01*
X118737014Y-71632592D01*
X118588391Y-71478413D01*
X118412545Y-71356191D01*
X118216233Y-71270624D01*
X118007000Y-71225000D01*
X117257000Y-71225000D01*
X117257000Y-72183000D01*
X117277000Y-72183000D01*
X117277000Y-72437000D01*
X117257000Y-72437000D01*
X117257000Y-72983392D01*
X117250912Y-72989480D01*
X117234216Y-72791233D01*
X117055616Y-72715411D01*
X117003000Y-72704464D01*
X117003000Y-72437000D01*
X115462498Y-72437000D01*
X115335592Y-72604001D01*
X115407298Y-72807197D01*
X115522986Y-72987408D01*
X115671609Y-73141587D01*
X115847455Y-73263809D01*
X115856445Y-73267728D01*
X115815411Y-73364384D01*
X115775890Y-73554344D01*
X115774187Y-73748364D01*
X115803959Y-73905220D01*
X115725025Y-73969999D01*
X115701222Y-73999003D01*
X115574002Y-74126223D01*
X115544998Y-74150026D01*
X115489870Y-74217201D01*
X115450025Y-74265751D01*
X115431586Y-74300248D01*
X115379453Y-74397781D01*
X115335996Y-74541042D01*
X115324999Y-74652695D01*
X115324999Y-74652705D01*
X115321323Y-74690027D01*
X115324999Y-74727350D01*
X115325000Y-78542641D01*
X115321323Y-78579973D01*
X115325000Y-78617306D01*
X115335997Y-78728959D01*
X115343061Y-78752247D01*
X115379453Y-78872219D01*
X115450025Y-79004249D01*
X115513431Y-79081508D01*
X115544999Y-79119974D01*
X115573997Y-79143772D01*
X115701222Y-79270997D01*
X115725025Y-79300001D01*
X115804785Y-79365458D01*
X115775890Y-79504344D01*
X115774187Y-79698364D01*
X115810368Y-79888989D01*
X115856178Y-80002389D01*
X115847455Y-80006191D01*
X115671609Y-80128413D01*
X115522986Y-80282592D01*
X115407298Y-80462803D01*
X115335592Y-80665999D01*
X115462498Y-80833000D01*
X117003000Y-80833000D01*
X117003000Y-80566463D01*
X117038989Y-80559632D01*
X117218893Y-80486957D01*
X117234216Y-80478767D01*
X117250912Y-80280520D01*
X117257000Y-80286608D01*
X117257000Y-80833000D01*
X118797502Y-80833000D01*
X118924408Y-80665999D01*
X118852702Y-80462803D01*
X118737014Y-80282592D01*
X118588391Y-80128413D01*
X118412545Y-80006191D01*
X118260170Y-79939775D01*
X118110000Y-79789605D01*
X118095858Y-79803748D01*
X118037110Y-79745000D01*
X118207014Y-79745000D01*
X118388504Y-79708899D01*
X118780517Y-80100912D01*
X118978767Y-80084216D01*
X119054589Y-79905616D01*
X119094110Y-79715656D01*
X119095813Y-79521636D01*
X119059632Y-79331011D01*
X119000385Y-79184349D01*
X119057147Y-79047314D01*
X119095000Y-78857014D01*
X119095000Y-78662986D01*
X119057147Y-78472686D01*
X119000116Y-78335000D01*
X119053883Y-78205194D01*
X119078102Y-78215226D01*
X119278061Y-78255000D01*
X119481939Y-78255000D01*
X119681898Y-78215226D01*
X119870256Y-78137205D01*
X120039774Y-78023937D01*
X120183937Y-77879774D01*
X120203831Y-77850000D01*
X121586289Y-77850000D01*
X121409002Y-78027286D01*
X121379999Y-78051089D01*
X121326364Y-78116444D01*
X121285026Y-78166814D01*
X121240815Y-78249526D01*
X121214454Y-78298844D01*
X121170997Y-78442105D01*
X121160000Y-78553758D01*
X121160000Y-78553768D01*
X121156324Y-78591090D01*
X121160000Y-78628413D01*
X121160001Y-80965197D01*
X121113270Y-81011928D01*
X119775000Y-81011928D01*
X119650518Y-81024188D01*
X119530820Y-81060498D01*
X119420506Y-81119463D01*
X119323815Y-81198815D01*
X119244463Y-81295506D01*
X119185498Y-81405820D01*
X119149188Y-81525518D01*
X119136928Y-81650000D01*
X119136928Y-83450000D01*
X119149188Y-83574482D01*
X119185498Y-83694180D01*
X119244463Y-83804494D01*
X119323815Y-83901185D01*
X119416108Y-83976928D01*
X119383750Y-83976928D01*
X119216592Y-83993392D01*
X119055858Y-84042150D01*
X118907725Y-84121329D01*
X118886070Y-84139100D01*
X118819494Y-84084463D01*
X118709180Y-84025498D01*
X118589482Y-83989188D01*
X118465000Y-83976928D01*
X118313250Y-83980000D01*
X118154500Y-84138750D01*
X118154500Y-84963000D01*
X118174500Y-84963000D01*
X118174500Y-85217000D01*
X118154500Y-85217000D01*
X118154500Y-86041250D01*
X118313250Y-86200000D01*
X118465000Y-86203072D01*
X118589482Y-86190812D01*
X118709180Y-86154502D01*
X118819494Y-86095537D01*
X118886070Y-86040900D01*
X118907725Y-86058671D01*
X119055858Y-86137850D01*
X119216592Y-86186608D01*
X119383750Y-86203072D01*
X119821250Y-86203072D01*
X119988408Y-86186608D01*
X120149142Y-86137850D01*
X120297275Y-86058671D01*
X120427115Y-85952115D01*
X120533671Y-85822275D01*
X120545000Y-85801080D01*
X120556329Y-85822275D01*
X120662885Y-85952115D01*
X120792725Y-86058671D01*
X120940858Y-86137850D01*
X121101592Y-86186608D01*
X121268750Y-86203072D01*
X121706250Y-86203072D01*
X121873408Y-86186608D01*
X122034142Y-86137850D01*
X122182275Y-86058671D01*
X122275000Y-85982574D01*
X122367725Y-86058671D01*
X122515858Y-86137850D01*
X122676592Y-86186608D01*
X122843750Y-86203072D01*
X123281250Y-86203072D01*
X123448408Y-86186608D01*
X123609142Y-86137850D01*
X123757275Y-86058671D01*
X123887115Y-85952115D01*
X123993671Y-85822275D01*
X124002500Y-85805757D01*
X124011329Y-85822275D01*
X124117885Y-85952115D01*
X124247725Y-86058671D01*
X124395858Y-86137850D01*
X124556592Y-86186608D01*
X124723750Y-86203072D01*
X125161250Y-86203072D01*
X125328408Y-86186608D01*
X125489142Y-86137850D01*
X125637275Y-86058671D01*
X125658930Y-86040900D01*
X125725506Y-86095537D01*
X125835820Y-86154502D01*
X125955518Y-86190812D01*
X126080000Y-86203072D01*
X126231750Y-86200000D01*
X126390500Y-86041250D01*
X126390500Y-85217000D01*
X126644500Y-85217000D01*
X126644500Y-86041250D01*
X126803250Y-86200000D01*
X126955000Y-86203072D01*
X127079482Y-86190812D01*
X127199180Y-86154502D01*
X127309494Y-86095537D01*
X127406185Y-86016185D01*
X127485537Y-85919494D01*
X127544502Y-85809180D01*
X127580812Y-85689482D01*
X127593072Y-85565000D01*
X127590000Y-85375750D01*
X127431250Y-85217000D01*
X126644500Y-85217000D01*
X126390500Y-85217000D01*
X126370500Y-85217000D01*
X126370500Y-84963000D01*
X126390500Y-84963000D01*
X126390500Y-84138750D01*
X126644500Y-84138750D01*
X126644500Y-84963000D01*
X127431250Y-84963000D01*
X127590000Y-84804250D01*
X127593072Y-84615000D01*
X127580812Y-84490518D01*
X127544502Y-84370820D01*
X127485537Y-84260506D01*
X127406185Y-84163815D01*
X127309494Y-84084463D01*
X127199180Y-84025498D01*
X127079482Y-83989188D01*
X126955000Y-83976928D01*
X126803250Y-83980000D01*
X126644500Y-84138750D01*
X126390500Y-84138750D01*
X126231750Y-83980000D01*
X126080000Y-83976928D01*
X125955518Y-83989188D01*
X125835820Y-84025498D01*
X125725506Y-84084463D01*
X125658930Y-84139100D01*
X125637275Y-84121329D01*
X125489142Y-84042150D01*
X125328408Y-83993392D01*
X125161250Y-83976928D01*
X125133892Y-83976928D01*
X125226185Y-83901185D01*
X125305537Y-83804494D01*
X125364502Y-83694180D01*
X125400812Y-83574482D01*
X125413072Y-83450000D01*
X125413072Y-81650000D01*
X125400812Y-81525518D01*
X125364502Y-81405820D01*
X125305537Y-81295506D01*
X125226185Y-81198815D01*
X125199988Y-81177316D01*
X125200256Y-81177205D01*
X125369774Y-81063937D01*
X125513937Y-80919774D01*
X125618223Y-80763698D01*
X126842785Y-81988261D01*
X126842831Y-81988728D01*
X126894865Y-82160263D01*
X126979365Y-82318352D01*
X127064586Y-82422193D01*
X130622468Y-85980076D01*
X130622473Y-85980080D01*
X130849257Y-86206865D01*
X130877755Y-86241590D01*
X131016321Y-86355307D01*
X131174409Y-86439807D01*
X131260177Y-86465824D01*
X131345944Y-86491842D01*
X131524335Y-86509413D01*
X131569047Y-86505009D01*
X140335544Y-86505011D01*
X140380246Y-86509414D01*
X140424948Y-86505011D01*
X140424949Y-86505011D01*
X140558636Y-86491844D01*
X140730172Y-86439809D01*
X140888260Y-86355309D01*
X141026826Y-86241592D01*
X141055327Y-86206863D01*
X142237705Y-85024485D01*
X142237708Y-85024481D01*
X142331856Y-84930334D01*
X142366591Y-84901828D01*
X142480308Y-84763262D01*
X142564808Y-84605174D01*
X142616843Y-84433638D01*
X142630010Y-84299951D01*
X142630010Y-84299950D01*
X142634413Y-84255250D01*
X142630010Y-84210546D01*
X142630010Y-83301653D01*
X147447952Y-83301653D01*
X147603962Y-83617214D01*
X147978745Y-83808020D01*
X148383551Y-83922044D01*
X148802824Y-83954902D01*
X149220451Y-83905334D01*
X149620383Y-83775243D01*
X149916038Y-83617214D01*
X150072048Y-83301653D01*
X148760000Y-81989605D01*
X147447952Y-83301653D01*
X142630010Y-83301653D01*
X142630010Y-81852824D01*
X146615098Y-81852824D01*
X146664666Y-82270451D01*
X146794757Y-82670383D01*
X146952786Y-82966038D01*
X147268347Y-83122048D01*
X148580395Y-81810000D01*
X148939605Y-81810000D01*
X150251653Y-83122048D01*
X150567214Y-82966038D01*
X150758020Y-82591255D01*
X150872044Y-82186449D01*
X150904902Y-81767176D01*
X150855334Y-81349549D01*
X150725243Y-80949617D01*
X150567214Y-80653962D01*
X150251653Y-80497952D01*
X148939605Y-81810000D01*
X148580395Y-81810000D01*
X147268347Y-80497952D01*
X146952786Y-80653962D01*
X146761980Y-81028745D01*
X146647956Y-81433551D01*
X146615098Y-81852824D01*
X142630010Y-81852824D01*
X142630010Y-81014038D01*
X142634413Y-80969336D01*
X142629554Y-80920000D01*
X142616843Y-80790945D01*
X142564808Y-80619409D01*
X142552196Y-80595813D01*
X142480308Y-80461320D01*
X142437357Y-80408985D01*
X142366591Y-80322755D01*
X142361220Y-80318347D01*
X147447952Y-80318347D01*
X148760000Y-81630395D01*
X150072048Y-80318347D01*
X149916038Y-80002786D01*
X149541255Y-79811980D01*
X149136449Y-79697956D01*
X148717176Y-79665098D01*
X148299549Y-79714666D01*
X147899617Y-79844757D01*
X147603962Y-80002786D01*
X147447952Y-80318347D01*
X142361220Y-80318347D01*
X142331861Y-80294253D01*
X141435761Y-79398154D01*
X141412656Y-79370000D01*
X142789390Y-79370000D01*
X142834092Y-79374403D01*
X142878794Y-79370000D01*
X142878796Y-79370000D01*
X143012483Y-79356833D01*
X143184019Y-79304798D01*
X143342107Y-79220298D01*
X143480673Y-79106581D01*
X143509179Y-79071846D01*
X144611928Y-77969098D01*
X144611928Y-79540000D01*
X144624188Y-79664482D01*
X144660498Y-79784180D01*
X144719463Y-79894494D01*
X144798815Y-79991185D01*
X144895506Y-80070537D01*
X145005820Y-80129502D01*
X145125518Y-80165812D01*
X145250000Y-80178072D01*
X146850000Y-80178072D01*
X146974482Y-80165812D01*
X147094180Y-80129502D01*
X147204494Y-80070537D01*
X147301185Y-79991185D01*
X147380537Y-79894494D01*
X147439502Y-79784180D01*
X147475812Y-79664482D01*
X147488072Y-79540000D01*
X147488072Y-77940000D01*
X147475812Y-77815518D01*
X147439502Y-77695820D01*
X147380537Y-77585506D01*
X147301185Y-77488815D01*
X147204494Y-77409463D01*
X147094180Y-77350498D01*
X146998057Y-77321339D01*
X147164637Y-77154759D01*
X147321680Y-76919727D01*
X147429853Y-76658574D01*
X147485000Y-76381335D01*
X147485000Y-76098665D01*
X147429853Y-75821426D01*
X147321680Y-75560273D01*
X147164637Y-75325241D01*
X147079396Y-75240000D01*
X147164637Y-75154759D01*
X147321680Y-74919727D01*
X147429853Y-74658574D01*
X147485000Y-74381335D01*
X147485000Y-74098665D01*
X147429853Y-73821426D01*
X147321680Y-73560273D01*
X147164637Y-73325241D01*
X146964759Y-73125363D01*
X146764131Y-72991308D01*
X146791514Y-72976671D01*
X146863097Y-72732702D01*
X146050000Y-71919605D01*
X145236903Y-72732702D01*
X145308486Y-72976671D01*
X145337341Y-72990324D01*
X145135241Y-73125363D01*
X144935363Y-73325241D01*
X144778320Y-73560273D01*
X144670147Y-73821426D01*
X144615000Y-74098665D01*
X144615000Y-74381335D01*
X144616117Y-74386950D01*
X143940193Y-75062874D01*
X143940188Y-75062878D01*
X142163067Y-76840000D01*
X131253250Y-76840000D01*
X131119563Y-76853167D01*
X131025001Y-76881852D01*
X131025001Y-75155000D01*
X134026928Y-75155000D01*
X134039188Y-75279482D01*
X134075498Y-75399180D01*
X134134463Y-75509494D01*
X134213815Y-75606185D01*
X134310506Y-75685537D01*
X134420820Y-75744502D01*
X134540518Y-75780812D01*
X134665000Y-75793072D01*
X134816750Y-75790000D01*
X134975500Y-75631250D01*
X134975500Y-74807000D01*
X134188750Y-74807000D01*
X134030000Y-74965750D01*
X134026928Y-75155000D01*
X131025001Y-75155000D01*
X131025001Y-74619324D01*
X131028677Y-74581999D01*
X131025001Y-74544674D01*
X131025001Y-74544666D01*
X131014004Y-74433013D01*
X130970547Y-74289752D01*
X130925246Y-74205000D01*
X134026928Y-74205000D01*
X134030000Y-74394250D01*
X134188750Y-74553000D01*
X134975500Y-74553000D01*
X134975500Y-73728750D01*
X134816750Y-73570000D01*
X134665000Y-73566928D01*
X134540518Y-73579188D01*
X134420820Y-73615498D01*
X134310506Y-73674463D01*
X134213815Y-73753815D01*
X134134463Y-73850506D01*
X134075498Y-73960820D01*
X134039188Y-74080518D01*
X134026928Y-74205000D01*
X130925246Y-74205000D01*
X130899975Y-74157723D01*
X130805002Y-74041998D01*
X130776005Y-74018201D01*
X129987368Y-73229565D01*
X130545602Y-72671331D01*
X130580331Y-72642831D01*
X130694048Y-72504265D01*
X130778548Y-72346177D01*
X130830583Y-72174641D01*
X130843750Y-72040954D01*
X130843750Y-72040953D01*
X130848153Y-71996250D01*
X130843750Y-71951546D01*
X130843750Y-71653184D01*
X132192418Y-73001852D01*
X132220919Y-73036581D01*
X132311499Y-73110918D01*
X132359484Y-73150298D01*
X132484833Y-73217298D01*
X132517573Y-73234798D01*
X132689109Y-73286833D01*
X132822796Y-73300000D01*
X132822797Y-73300000D01*
X132867499Y-73304403D01*
X132912201Y-73300000D01*
X134336234Y-73300000D01*
X134407725Y-73358671D01*
X134555858Y-73437850D01*
X134716592Y-73486608D01*
X134883750Y-73503072D01*
X135321250Y-73503072D01*
X135488408Y-73486608D01*
X135649142Y-73437850D01*
X135797275Y-73358671D01*
X135890000Y-73282574D01*
X135917500Y-73305143D01*
X135917501Y-73693344D01*
X135894494Y-73674463D01*
X135784180Y-73615498D01*
X135664482Y-73579188D01*
X135540000Y-73566928D01*
X135388250Y-73570000D01*
X135229500Y-73728750D01*
X135229500Y-74553000D01*
X135249500Y-74553000D01*
X135249500Y-74807000D01*
X135229500Y-74807000D01*
X135229500Y-75631250D01*
X135388250Y-75790000D01*
X135540000Y-75793072D01*
X135664482Y-75780812D01*
X135784180Y-75744502D01*
X135894494Y-75685537D01*
X135961070Y-75630900D01*
X135982725Y-75648671D01*
X136130858Y-75727850D01*
X136291592Y-75776608D01*
X136458750Y-75793072D01*
X136896250Y-75793072D01*
X137063408Y-75776608D01*
X137224142Y-75727850D01*
X137372275Y-75648671D01*
X137502115Y-75542115D01*
X137608671Y-75412275D01*
X137687850Y-75264142D01*
X137720957Y-75155000D01*
X137836928Y-75155000D01*
X137849188Y-75279482D01*
X137885498Y-75399180D01*
X137944463Y-75509494D01*
X138023815Y-75606185D01*
X138120506Y-75685537D01*
X138230820Y-75744502D01*
X138350518Y-75780812D01*
X138475000Y-75793072D01*
X138626750Y-75790000D01*
X138785500Y-75631250D01*
X138785500Y-74807000D01*
X137998750Y-74807000D01*
X137840000Y-74965750D01*
X137836928Y-75155000D01*
X137720957Y-75155000D01*
X137736608Y-75103408D01*
X137753072Y-74936250D01*
X137753072Y-74423750D01*
X137736608Y-74256592D01*
X137720958Y-74205000D01*
X137836928Y-74205000D01*
X137840000Y-74394250D01*
X137998750Y-74553000D01*
X138785500Y-74553000D01*
X138785500Y-73728750D01*
X138626750Y-73570000D01*
X138475000Y-73566928D01*
X138350518Y-73579188D01*
X138230820Y-73615498D01*
X138120506Y-73674463D01*
X138023815Y-73753815D01*
X137944463Y-73850506D01*
X137885498Y-73960820D01*
X137849188Y-74080518D01*
X137836928Y-74205000D01*
X137720958Y-74205000D01*
X137687850Y-74095858D01*
X137608671Y-73947725D01*
X137502115Y-73817885D01*
X137437500Y-73764857D01*
X137437500Y-73305143D01*
X137502115Y-73252115D01*
X137608671Y-73122275D01*
X137687850Y-72974142D01*
X137736608Y-72813408D01*
X137753072Y-72646250D01*
X137753072Y-72517506D01*
X137836928Y-72601362D01*
X137836928Y-72646250D01*
X137853392Y-72813408D01*
X137902150Y-72974142D01*
X137981329Y-73122275D01*
X138087885Y-73252115D01*
X138217725Y-73358671D01*
X138365858Y-73437850D01*
X138526592Y-73486608D01*
X138693750Y-73503072D01*
X139131250Y-73503072D01*
X139298408Y-73486608D01*
X139459142Y-73437850D01*
X139607275Y-73358671D01*
X139700000Y-73282574D01*
X139727500Y-73305143D01*
X139727501Y-73693344D01*
X139704494Y-73674463D01*
X139594180Y-73615498D01*
X139474482Y-73579188D01*
X139350000Y-73566928D01*
X139198250Y-73570000D01*
X139039500Y-73728750D01*
X139039500Y-74553000D01*
X139059500Y-74553000D01*
X139059500Y-74807000D01*
X139039500Y-74807000D01*
X139039500Y-75631250D01*
X139198250Y-75790000D01*
X139350000Y-75793072D01*
X139474482Y-75780812D01*
X139594180Y-75744502D01*
X139704494Y-75685537D01*
X139771070Y-75630900D01*
X139792725Y-75648671D01*
X139940858Y-75727850D01*
X140101592Y-75776608D01*
X140268750Y-75793072D01*
X140706250Y-75793072D01*
X140873408Y-75776608D01*
X141034142Y-75727850D01*
X141182275Y-75648671D01*
X141312115Y-75542115D01*
X141418671Y-75412275D01*
X141497850Y-75264142D01*
X141546608Y-75103408D01*
X141563072Y-74936250D01*
X141563072Y-74423750D01*
X141546608Y-74256592D01*
X141497850Y-74095858D01*
X141418671Y-73947725D01*
X141312115Y-73817885D01*
X141247500Y-73764857D01*
X141247500Y-73305143D01*
X141312115Y-73252115D01*
X141418671Y-73122275D01*
X141497850Y-72974142D01*
X141546608Y-72813408D01*
X141563072Y-72646250D01*
X141563072Y-72133750D01*
X141546608Y-71966592D01*
X141499262Y-71810512D01*
X144609783Y-71810512D01*
X144651213Y-72090130D01*
X144746397Y-72356292D01*
X144813329Y-72481514D01*
X145057298Y-72553097D01*
X145870395Y-71740000D01*
X146229605Y-71740000D01*
X147042702Y-72553097D01*
X147286671Y-72481514D01*
X147407571Y-72226004D01*
X147476300Y-71951816D01*
X147490217Y-71669488D01*
X147448787Y-71389870D01*
X147353603Y-71123708D01*
X147286671Y-70998486D01*
X147042702Y-70926903D01*
X146229605Y-71740000D01*
X145870395Y-71740000D01*
X145057298Y-70926903D01*
X144813329Y-70998486D01*
X144692429Y-71253996D01*
X144623700Y-71528184D01*
X144609783Y-71810512D01*
X141499262Y-71810512D01*
X141497850Y-71805858D01*
X141418671Y-71657725D01*
X141312115Y-71527885D01*
X141182275Y-71421329D01*
X141034142Y-71342150D01*
X140873408Y-71293392D01*
X140706250Y-71276928D01*
X140268750Y-71276928D01*
X140101592Y-71293392D01*
X139940858Y-71342150D01*
X139792725Y-71421329D01*
X139700000Y-71497426D01*
X139607275Y-71421329D01*
X139459142Y-71342150D01*
X139298408Y-71293392D01*
X139131250Y-71276928D01*
X139086362Y-71276928D01*
X139034006Y-71224573D01*
X139031476Y-71211852D01*
X138953455Y-71023494D01*
X138840187Y-70853976D01*
X138733509Y-70747298D01*
X145236903Y-70747298D01*
X146050000Y-71560395D01*
X146863097Y-70747298D01*
X146791514Y-70503329D01*
X146536004Y-70382429D01*
X146261816Y-70313700D01*
X145979488Y-70299783D01*
X145699870Y-70341213D01*
X145433708Y-70436397D01*
X145308486Y-70503329D01*
X145236903Y-70747298D01*
X138733509Y-70747298D01*
X138696024Y-70709813D01*
X138526506Y-70596545D01*
X138338148Y-70518524D01*
X138138189Y-70478750D01*
X137934311Y-70478750D01*
X137734352Y-70518524D01*
X137706671Y-70529990D01*
X135724527Y-70529990D01*
X136044729Y-70316038D01*
X136199114Y-70161653D01*
X147447952Y-70161653D01*
X147603962Y-70477214D01*
X147978745Y-70668020D01*
X148383551Y-70782044D01*
X148802824Y-70814902D01*
X149220451Y-70765334D01*
X149620383Y-70635243D01*
X149916038Y-70477214D01*
X150072048Y-70161653D01*
X148760000Y-68849605D01*
X147447952Y-70161653D01*
X136199114Y-70161653D01*
X136356038Y-70004729D01*
X136600631Y-69638669D01*
X136769110Y-69231925D01*
X136855000Y-68800128D01*
X136855000Y-68712824D01*
X146615098Y-68712824D01*
X146664666Y-69130451D01*
X146794757Y-69530383D01*
X146952786Y-69826038D01*
X147268347Y-69982048D01*
X148580395Y-68670000D01*
X148939605Y-68670000D01*
X150251653Y-69982048D01*
X150567214Y-69826038D01*
X150758020Y-69451255D01*
X150872044Y-69046449D01*
X150904902Y-68627176D01*
X150855334Y-68209549D01*
X150725243Y-67809617D01*
X150567214Y-67513962D01*
X150251653Y-67357952D01*
X148939605Y-68670000D01*
X148580395Y-68670000D01*
X147268347Y-67357952D01*
X146952786Y-67513962D01*
X146761980Y-67888745D01*
X146647956Y-68293551D01*
X146615098Y-68712824D01*
X136855000Y-68712824D01*
X136855000Y-68359872D01*
X136769110Y-67928075D01*
X136600631Y-67521331D01*
X136356038Y-67155271D01*
X136044729Y-66843962D01*
X135829274Y-66700000D01*
X147914241Y-66700000D01*
X147899617Y-66704757D01*
X147603962Y-66862786D01*
X147447952Y-67178347D01*
X148760000Y-68490395D01*
X150072048Y-67178347D01*
X149916038Y-66862786D01*
X149596292Y-66700000D01*
X156820000Y-66700000D01*
X156820001Y-83880727D01*
X156676038Y-83665271D01*
X156364729Y-83353962D01*
X155998669Y-83109369D01*
X155591925Y-82940890D01*
X155160128Y-82855000D01*
X154719872Y-82855000D01*
X154288075Y-82940890D01*
X153881331Y-83109369D01*
X153515271Y-83353962D01*
X153203962Y-83665271D01*
X152959369Y-84031331D01*
X152790890Y-84438075D01*
X152705000Y-84869872D01*
X152705000Y-85310128D01*
X152790890Y-85741925D01*
X152959369Y-86148669D01*
X153203962Y-86514729D01*
X153515271Y-86826038D01*
X153730726Y-86970000D01*
X115509274Y-86970000D01*
X115724729Y-86826038D01*
X116036038Y-86514729D01*
X116280631Y-86148669D01*
X116449110Y-85741925D01*
X116484302Y-85565000D01*
X116951928Y-85565000D01*
X116964188Y-85689482D01*
X117000498Y-85809180D01*
X117059463Y-85919494D01*
X117138815Y-86016185D01*
X117235506Y-86095537D01*
X117345820Y-86154502D01*
X117465518Y-86190812D01*
X117590000Y-86203072D01*
X117741750Y-86200000D01*
X117900500Y-86041250D01*
X117900500Y-85217000D01*
X117113750Y-85217000D01*
X116955000Y-85375750D01*
X116951928Y-85565000D01*
X116484302Y-85565000D01*
X116535000Y-85310128D01*
X116535000Y-84869872D01*
X116484303Y-84615000D01*
X116951928Y-84615000D01*
X116955000Y-84804250D01*
X117113750Y-84963000D01*
X117900500Y-84963000D01*
X117900500Y-84138750D01*
X117741750Y-83980000D01*
X117590000Y-83976928D01*
X117465518Y-83989188D01*
X117345820Y-84025498D01*
X117235506Y-84084463D01*
X117138815Y-84163815D01*
X117059463Y-84260506D01*
X117000498Y-84370820D01*
X116964188Y-84490518D01*
X116951928Y-84615000D01*
X116484303Y-84615000D01*
X116449110Y-84438075D01*
X116280631Y-84031331D01*
X116036038Y-83665271D01*
X115724729Y-83353962D01*
X115358669Y-83109369D01*
X114951925Y-82940890D01*
X114520128Y-82855000D01*
X114079872Y-82855000D01*
X113648075Y-82940890D01*
X113241331Y-83109369D01*
X112875271Y-83353962D01*
X112563962Y-83665271D01*
X112420000Y-83880726D01*
X112420000Y-81523715D01*
X112492986Y-81637408D01*
X112641609Y-81791587D01*
X112817455Y-81913809D01*
X113013767Y-81999376D01*
X113223000Y-82045000D01*
X113623000Y-82045000D01*
X113623000Y-81087000D01*
X113877000Y-81087000D01*
X113877000Y-82045000D01*
X114277000Y-82045000D01*
X114486233Y-81999376D01*
X114682545Y-81913809D01*
X114858391Y-81791587D01*
X115007014Y-81637408D01*
X115122702Y-81457197D01*
X115194408Y-81254001D01*
X115335592Y-81254001D01*
X115407298Y-81457197D01*
X115522986Y-81637408D01*
X115671609Y-81791587D01*
X115847455Y-81913809D01*
X116043767Y-81999376D01*
X116253000Y-82045000D01*
X117003000Y-82045000D01*
X117003000Y-81087000D01*
X117257000Y-81087000D01*
X117257000Y-82045000D01*
X118007000Y-82045000D01*
X118216233Y-81999376D01*
X118412545Y-81913809D01*
X118588391Y-81791587D01*
X118737014Y-81637408D01*
X118852702Y-81457197D01*
X118924408Y-81254001D01*
X118797502Y-81087000D01*
X117257000Y-81087000D01*
X117003000Y-81087000D01*
X115462498Y-81087000D01*
X115335592Y-81254001D01*
X115194408Y-81254001D01*
X115067502Y-81087000D01*
X113877000Y-81087000D01*
X113623000Y-81087000D01*
X113603000Y-81087000D01*
X113603000Y-80833000D01*
X113623000Y-80833000D01*
X113623000Y-79875000D01*
X113877000Y-79875000D01*
X113877000Y-80833000D01*
X115067502Y-80833000D01*
X115194408Y-80665999D01*
X115122702Y-80462803D01*
X115007014Y-80282592D01*
X114858391Y-80128413D01*
X114682545Y-80006191D01*
X114486233Y-79920624D01*
X114277000Y-79875000D01*
X113877000Y-79875000D01*
X113623000Y-79875000D01*
X113223000Y-79875000D01*
X113013767Y-79920624D01*
X112817455Y-80006191D01*
X112641609Y-80128413D01*
X112492986Y-80282592D01*
X112420000Y-80396285D01*
X112420000Y-72873715D01*
X112492986Y-72987408D01*
X112641609Y-73141587D01*
X112817455Y-73263809D01*
X113013767Y-73349376D01*
X113223000Y-73395000D01*
X113623000Y-73395000D01*
X113623000Y-72437000D01*
X113877000Y-72437000D01*
X113877000Y-73395000D01*
X114277000Y-73395000D01*
X114486233Y-73349376D01*
X114682545Y-73263809D01*
X114858391Y-73141587D01*
X115007014Y-72987408D01*
X115122702Y-72807197D01*
X115194408Y-72604001D01*
X115067502Y-72437000D01*
X113877000Y-72437000D01*
X113623000Y-72437000D01*
X113603000Y-72437000D01*
X113603000Y-72183000D01*
X113623000Y-72183000D01*
X113623000Y-71225000D01*
X113877000Y-71225000D01*
X113877000Y-72183000D01*
X115067502Y-72183000D01*
X115194408Y-72015999D01*
X115335592Y-72015999D01*
X115462498Y-72183000D01*
X117003000Y-72183000D01*
X117003000Y-71225000D01*
X116253000Y-71225000D01*
X116043767Y-71270624D01*
X115847455Y-71356191D01*
X115671609Y-71478413D01*
X115522986Y-71632592D01*
X115407298Y-71812803D01*
X115335592Y-72015999D01*
X115194408Y-72015999D01*
X115122702Y-71812803D01*
X115007014Y-71632592D01*
X114858391Y-71478413D01*
X114682545Y-71356191D01*
X114486233Y-71270624D01*
X114277000Y-71225000D01*
X113877000Y-71225000D01*
X113623000Y-71225000D01*
X113223000Y-71225000D01*
X113013767Y-71270624D01*
X112817455Y-71356191D01*
X112641609Y-71478413D01*
X112492986Y-71632592D01*
X112420000Y-71746285D01*
X112420000Y-66700000D01*
X133410726Y-66700000D01*
X133195271Y-66843962D01*
X133195271Y-66843962D01*
G37*
X133195271Y-66843962D02*
X132883962Y-67155271D01*
X132639369Y-67521331D01*
X132470890Y-67928075D01*
X132385000Y-68359872D01*
X132385000Y-68800128D01*
X132470890Y-69231925D01*
X132483905Y-69263345D01*
X130758703Y-67538144D01*
X130730197Y-67503409D01*
X130591631Y-67389692D01*
X130433543Y-67305192D01*
X130262007Y-67253157D01*
X130128320Y-67239990D01*
X130128318Y-67239990D01*
X130083616Y-67235587D01*
X130038914Y-67239990D01*
X124934712Y-67239990D01*
X124890010Y-67235587D01*
X124845308Y-67239990D01*
X124845306Y-67239990D01*
X124711619Y-67253157D01*
X124540083Y-67305192D01*
X124381995Y-67389692D01*
X124243429Y-67503409D01*
X124214923Y-67538144D01*
X124170823Y-67582244D01*
X124158102Y-67584774D01*
X123969744Y-67662795D01*
X123800226Y-67776063D01*
X123656063Y-67920226D01*
X123542795Y-68089744D01*
X123516800Y-68152500D01*
X123448072Y-68152500D01*
X123422275Y-68131329D01*
X123274142Y-68052150D01*
X123113408Y-68003392D01*
X122946250Y-67986928D01*
X122433750Y-67986928D01*
X122266592Y-68003392D01*
X122105858Y-68052150D01*
X121957725Y-68131329D01*
X121827885Y-68237885D01*
X121721329Y-68367725D01*
X121642150Y-68515858D01*
X121593392Y-68676592D01*
X121576928Y-68843750D01*
X121576928Y-68888638D01*
X118774532Y-71691035D01*
X118737014Y-71632592D01*
X118588391Y-71478413D01*
X118412545Y-71356191D01*
X118216233Y-71270624D01*
X118007000Y-71225000D01*
X117257000Y-71225000D01*
X117257000Y-72183000D01*
X117277000Y-72183000D01*
X117277000Y-72437000D01*
X117257000Y-72437000D01*
X117257000Y-72983392D01*
X117250912Y-72989480D01*
X117234216Y-72791233D01*
X117055616Y-72715411D01*
X117003000Y-72704464D01*
X117003000Y-72437000D01*
X115462498Y-72437000D01*
X115335592Y-72604001D01*
X115407298Y-72807197D01*
X115522986Y-72987408D01*
X115671609Y-73141587D01*
X115847455Y-73263809D01*
X115856445Y-73267728D01*
X115815411Y-73364384D01*
X115775890Y-73554344D01*
X115774187Y-73748364D01*
X115803959Y-73905220D01*
X115725025Y-73969999D01*
X115701222Y-73999003D01*
X115574002Y-74126223D01*
X115544998Y-74150026D01*
X115489870Y-74217201D01*
X115450025Y-74265751D01*
X115431586Y-74300248D01*
X115379453Y-74397781D01*
X115335996Y-74541042D01*
X115324999Y-74652695D01*
X115324999Y-74652705D01*
X115321323Y-74690027D01*
X115324999Y-74727350D01*
X115325000Y-78542641D01*
X115321323Y-78579973D01*
X115325000Y-78617306D01*
X115335997Y-78728959D01*
X115343061Y-78752247D01*
X115379453Y-78872219D01*
X115450025Y-79004249D01*
X115513431Y-79081508D01*
X115544999Y-79119974D01*
X115573997Y-79143772D01*
X115701222Y-79270997D01*
X115725025Y-79300001D01*
X115804785Y-79365458D01*
X115775890Y-79504344D01*
X115774187Y-79698364D01*
X115810368Y-79888989D01*
X115856178Y-80002389D01*
X115847455Y-80006191D01*
X115671609Y-80128413D01*
X115522986Y-80282592D01*
X115407298Y-80462803D01*
X115335592Y-80665999D01*
X115462498Y-80833000D01*
X117003000Y-80833000D01*
X117003000Y-80566463D01*
X117038989Y-80559632D01*
X117218893Y-80486957D01*
X117234216Y-80478767D01*
X117250912Y-80280520D01*
X117257000Y-80286608D01*
X117257000Y-80833000D01*
X118797502Y-80833000D01*
X118924408Y-80665999D01*
X118852702Y-80462803D01*
X118737014Y-80282592D01*
X118588391Y-80128413D01*
X118412545Y-80006191D01*
X118260170Y-79939775D01*
X118110000Y-79789605D01*
X118095858Y-79803748D01*
X118037110Y-79745000D01*
X118207014Y-79745000D01*
X118388504Y-79708899D01*
X118780517Y-80100912D01*
X118978767Y-80084216D01*
X119054589Y-79905616D01*
X119094110Y-79715656D01*
X119095813Y-79521636D01*
X119059632Y-79331011D01*
X119000385Y-79184349D01*
X119057147Y-79047314D01*
X119095000Y-78857014D01*
X119095000Y-78662986D01*
X119057147Y-78472686D01*
X119000116Y-78335000D01*
X119053883Y-78205194D01*
X119078102Y-78215226D01*
X119278061Y-78255000D01*
X119481939Y-78255000D01*
X119681898Y-78215226D01*
X119870256Y-78137205D01*
X120039774Y-78023937D01*
X120183937Y-77879774D01*
X120203831Y-77850000D01*
X121586289Y-77850000D01*
X121409002Y-78027286D01*
X121379999Y-78051089D01*
X121326364Y-78116444D01*
X121285026Y-78166814D01*
X121240815Y-78249526D01*
X121214454Y-78298844D01*
X121170997Y-78442105D01*
X121160000Y-78553758D01*
X121160000Y-78553768D01*
X121156324Y-78591090D01*
X121160000Y-78628413D01*
X121160001Y-80965197D01*
X121113270Y-81011928D01*
X119775000Y-81011928D01*
X119650518Y-81024188D01*
X119530820Y-81060498D01*
X119420506Y-81119463D01*
X119323815Y-81198815D01*
X119244463Y-81295506D01*
X119185498Y-81405820D01*
X119149188Y-81525518D01*
X119136928Y-81650000D01*
X119136928Y-83450000D01*
X119149188Y-83574482D01*
X119185498Y-83694180D01*
X119244463Y-83804494D01*
X119323815Y-83901185D01*
X119416108Y-83976928D01*
X119383750Y-83976928D01*
X119216592Y-83993392D01*
X119055858Y-84042150D01*
X118907725Y-84121329D01*
X118886070Y-84139100D01*
X118819494Y-84084463D01*
X118709180Y-84025498D01*
X118589482Y-83989188D01*
X118465000Y-83976928D01*
X118313250Y-83980000D01*
X118154500Y-84138750D01*
X118154500Y-84963000D01*
X118174500Y-84963000D01*
X118174500Y-85217000D01*
X118154500Y-85217000D01*
X118154500Y-86041250D01*
X118313250Y-86200000D01*
X118465000Y-86203072D01*
X118589482Y-86190812D01*
X118709180Y-86154502D01*
X118819494Y-86095537D01*
X118886070Y-86040900D01*
X118907725Y-86058671D01*
X119055858Y-86137850D01*
X119216592Y-86186608D01*
X119383750Y-86203072D01*
X119821250Y-86203072D01*
X119988408Y-86186608D01*
X120149142Y-86137850D01*
X120297275Y-86058671D01*
X120427115Y-85952115D01*
X120533671Y-85822275D01*
X120545000Y-85801080D01*
X120556329Y-85822275D01*
X120662885Y-85952115D01*
X120792725Y-86058671D01*
X120940858Y-86137850D01*
X121101592Y-86186608D01*
X121268750Y-86203072D01*
X121706250Y-86203072D01*
X121873408Y-86186608D01*
X122034142Y-86137850D01*
X122182275Y-86058671D01*
X122275000Y-85982574D01*
X122367725Y-86058671D01*
X122515858Y-86137850D01*
X122676592Y-86186608D01*
X122843750Y-86203072D01*
X123281250Y-86203072D01*
X123448408Y-86186608D01*
X123609142Y-86137850D01*
X123757275Y-86058671D01*
X123887115Y-85952115D01*
X123993671Y-85822275D01*
X124002500Y-85805757D01*
X124011329Y-85822275D01*
X124117885Y-85952115D01*
X124247725Y-86058671D01*
X124395858Y-86137850D01*
X124556592Y-86186608D01*
X124723750Y-86203072D01*
X125161250Y-86203072D01*
X125328408Y-86186608D01*
X125489142Y-86137850D01*
X125637275Y-86058671D01*
X125658930Y-86040900D01*
X125725506Y-86095537D01*
X125835820Y-86154502D01*
X125955518Y-86190812D01*
X126080000Y-86203072D01*
X126231750Y-86200000D01*
X126390500Y-86041250D01*
X126390500Y-85217000D01*
X126644500Y-85217000D01*
X126644500Y-86041250D01*
X126803250Y-86200000D01*
X126955000Y-86203072D01*
X127079482Y-86190812D01*
X127199180Y-86154502D01*
X127309494Y-86095537D01*
X127406185Y-86016185D01*
X127485537Y-85919494D01*
X127544502Y-85809180D01*
X127580812Y-85689482D01*
X127593072Y-85565000D01*
X127590000Y-85375750D01*
X127431250Y-85217000D01*
X126644500Y-85217000D01*
X126390500Y-85217000D01*
X126370500Y-85217000D01*
X126370500Y-84963000D01*
X126390500Y-84963000D01*
X126390500Y-84138750D01*
X126644500Y-84138750D01*
X126644500Y-84963000D01*
X127431250Y-84963000D01*
X127590000Y-84804250D01*
X127593072Y-84615000D01*
X127580812Y-84490518D01*
X127544502Y-84370820D01*
X127485537Y-84260506D01*
X127406185Y-84163815D01*
X127309494Y-84084463D01*
X127199180Y-84025498D01*
X127079482Y-83989188D01*
X126955000Y-83976928D01*
X126803250Y-83980000D01*
X126644500Y-84138750D01*
X126390500Y-84138750D01*
X126231750Y-83980000D01*
X126080000Y-83976928D01*
X125955518Y-83989188D01*
X125835820Y-84025498D01*
X125725506Y-84084463D01*
X125658930Y-84139100D01*
X125637275Y-84121329D01*
X125489142Y-84042150D01*
X125328408Y-83993392D01*
X125161250Y-83976928D01*
X125133892Y-83976928D01*
X125226185Y-83901185D01*
X125305537Y-83804494D01*
X125364502Y-83694180D01*
X125400812Y-83574482D01*
X125413072Y-83450000D01*
X125413072Y-81650000D01*
X125400812Y-81525518D01*
X125364502Y-81405820D01*
X125305537Y-81295506D01*
X125226185Y-81198815D01*
X125199988Y-81177316D01*
X125200256Y-81177205D01*
X125369774Y-81063937D01*
X125513937Y-80919774D01*
X125618223Y-80763698D01*
X126842785Y-81988261D01*
X126842831Y-81988728D01*
X126894865Y-82160263D01*
X126979365Y-82318352D01*
X127064586Y-82422193D01*
X130622468Y-85980076D01*
X130622473Y-85980080D01*
X130849257Y-86206865D01*
X130877755Y-86241590D01*
X131016321Y-86355307D01*
X131174409Y-86439807D01*
X131260177Y-86465824D01*
X131345944Y-86491842D01*
X131524335Y-86509413D01*
X131569047Y-86505009D01*
X140335544Y-86505011D01*
X140380246Y-86509414D01*
X140424948Y-86505011D01*
X140424949Y-86505011D01*
X140558636Y-86491844D01*
X140730172Y-86439809D01*
X140888260Y-86355309D01*
X141026826Y-86241592D01*
X141055327Y-86206863D01*
X142237705Y-85024485D01*
X142237708Y-85024481D01*
X142331856Y-84930334D01*
X142366591Y-84901828D01*
X142480308Y-84763262D01*
X142564808Y-84605174D01*
X142616843Y-84433638D01*
X142630010Y-84299951D01*
X142630010Y-84299950D01*
X142634413Y-84255250D01*
X142630010Y-84210546D01*
X142630010Y-83301653D01*
X147447952Y-83301653D01*
X147603962Y-83617214D01*
X147978745Y-83808020D01*
X148383551Y-83922044D01*
X148802824Y-83954902D01*
X149220451Y-83905334D01*
X149620383Y-83775243D01*
X149916038Y-83617214D01*
X150072048Y-83301653D01*
X148760000Y-81989605D01*
X147447952Y-83301653D01*
X142630010Y-83301653D01*
X142630010Y-81852824D01*
X146615098Y-81852824D01*
X146664666Y-82270451D01*
X146794757Y-82670383D01*
X146952786Y-82966038D01*
X147268347Y-83122048D01*
X148580395Y-81810000D01*
X148939605Y-81810000D01*
X150251653Y-83122048D01*
X150567214Y-82966038D01*
X150758020Y-82591255D01*
X150872044Y-82186449D01*
X150904902Y-81767176D01*
X150855334Y-81349549D01*
X150725243Y-80949617D01*
X150567214Y-80653962D01*
X150251653Y-80497952D01*
X148939605Y-81810000D01*
X148580395Y-81810000D01*
X147268347Y-80497952D01*
X146952786Y-80653962D01*
X146761980Y-81028745D01*
X146647956Y-81433551D01*
X146615098Y-81852824D01*
X142630010Y-81852824D01*
X142630010Y-81014038D01*
X142634413Y-80969336D01*
X142629554Y-80920000D01*
X142616843Y-80790945D01*
X142564808Y-80619409D01*
X142552196Y-80595813D01*
X142480308Y-80461320D01*
X142437357Y-80408985D01*
X142366591Y-80322755D01*
X142361220Y-80318347D01*
X147447952Y-80318347D01*
X148760000Y-81630395D01*
X150072048Y-80318347D01*
X149916038Y-80002786D01*
X149541255Y-79811980D01*
X149136449Y-79697956D01*
X148717176Y-79665098D01*
X148299549Y-79714666D01*
X147899617Y-79844757D01*
X147603962Y-80002786D01*
X147447952Y-80318347D01*
X142361220Y-80318347D01*
X142331861Y-80294253D01*
X141435761Y-79398154D01*
X141412656Y-79370000D01*
X142789390Y-79370000D01*
X142834092Y-79374403D01*
X142878794Y-79370000D01*
X142878796Y-79370000D01*
X143012483Y-79356833D01*
X143184019Y-79304798D01*
X143342107Y-79220298D01*
X143480673Y-79106581D01*
X143509179Y-79071846D01*
X144611928Y-77969098D01*
X144611928Y-79540000D01*
X144624188Y-79664482D01*
X144660498Y-79784180D01*
X144719463Y-79894494D01*
X144798815Y-79991185D01*
X144895506Y-80070537D01*
X145005820Y-80129502D01*
X145125518Y-80165812D01*
X145250000Y-80178072D01*
X146850000Y-80178072D01*
X146974482Y-80165812D01*
X147094180Y-80129502D01*
X147204494Y-80070537D01*
X147301185Y-79991185D01*
X147380537Y-79894494D01*
X147439502Y-79784180D01*
X147475812Y-79664482D01*
X147488072Y-79540000D01*
X147488072Y-77940000D01*
X147475812Y-77815518D01*
X147439502Y-77695820D01*
X147380537Y-77585506D01*
X147301185Y-77488815D01*
X147204494Y-77409463D01*
X147094180Y-77350498D01*
X146998057Y-77321339D01*
X147164637Y-77154759D01*
X147321680Y-76919727D01*
X147429853Y-76658574D01*
X147485000Y-76381335D01*
X147485000Y-76098665D01*
X147429853Y-75821426D01*
X147321680Y-75560273D01*
X147164637Y-75325241D01*
X147079396Y-75240000D01*
X147164637Y-75154759D01*
X147321680Y-74919727D01*
X147429853Y-74658574D01*
X147485000Y-74381335D01*
X147485000Y-74098665D01*
X147429853Y-73821426D01*
X147321680Y-73560273D01*
X147164637Y-73325241D01*
X146964759Y-73125363D01*
X146764131Y-72991308D01*
X146791514Y-72976671D01*
X146863097Y-72732702D01*
X146050000Y-71919605D01*
X145236903Y-72732702D01*
X145308486Y-72976671D01*
X145337341Y-72990324D01*
X145135241Y-73125363D01*
X144935363Y-73325241D01*
X144778320Y-73560273D01*
X144670147Y-73821426D01*
X144615000Y-74098665D01*
X144615000Y-74381335D01*
X144616117Y-74386950D01*
X143940193Y-75062874D01*
X143940188Y-75062878D01*
X142163067Y-76840000D01*
X131253250Y-76840000D01*
X131119563Y-76853167D01*
X131025001Y-76881852D01*
X131025001Y-75155000D01*
X134026928Y-75155000D01*
X134039188Y-75279482D01*
X134075498Y-75399180D01*
X134134463Y-75509494D01*
X134213815Y-75606185D01*
X134310506Y-75685537D01*
X134420820Y-75744502D01*
X134540518Y-75780812D01*
X134665000Y-75793072D01*
X134816750Y-75790000D01*
X134975500Y-75631250D01*
X134975500Y-74807000D01*
X134188750Y-74807000D01*
X134030000Y-74965750D01*
X134026928Y-75155000D01*
X131025001Y-75155000D01*
X131025001Y-74619324D01*
X131028677Y-74581999D01*
X131025001Y-74544674D01*
X131025001Y-74544666D01*
X131014004Y-74433013D01*
X130970547Y-74289752D01*
X130925246Y-74205000D01*
X134026928Y-74205000D01*
X134030000Y-74394250D01*
X134188750Y-74553000D01*
X134975500Y-74553000D01*
X134975500Y-73728750D01*
X134816750Y-73570000D01*
X134665000Y-73566928D01*
X134540518Y-73579188D01*
X134420820Y-73615498D01*
X134310506Y-73674463D01*
X134213815Y-73753815D01*
X134134463Y-73850506D01*
X134075498Y-73960820D01*
X134039188Y-74080518D01*
X134026928Y-74205000D01*
X130925246Y-74205000D01*
X130899975Y-74157723D01*
X130805002Y-74041998D01*
X130776005Y-74018201D01*
X129987368Y-73229565D01*
X130545602Y-72671331D01*
X130580331Y-72642831D01*
X130694048Y-72504265D01*
X130778548Y-72346177D01*
X130830583Y-72174641D01*
X130843750Y-72040954D01*
X130843750Y-72040953D01*
X130848153Y-71996250D01*
X130843750Y-71951546D01*
X130843750Y-71653184D01*
X132192418Y-73001852D01*
X132220919Y-73036581D01*
X132311499Y-73110918D01*
X132359484Y-73150298D01*
X132484833Y-73217298D01*
X132517573Y-73234798D01*
X132689109Y-73286833D01*
X132822796Y-73300000D01*
X132822797Y-73300000D01*
X132867499Y-73304403D01*
X132912201Y-73300000D01*
X134336234Y-73300000D01*
X134407725Y-73358671D01*
X134555858Y-73437850D01*
X134716592Y-73486608D01*
X134883750Y-73503072D01*
X135321250Y-73503072D01*
X135488408Y-73486608D01*
X135649142Y-73437850D01*
X135797275Y-73358671D01*
X135890000Y-73282574D01*
X135917500Y-73305143D01*
X135917501Y-73693344D01*
X135894494Y-73674463D01*
X135784180Y-73615498D01*
X135664482Y-73579188D01*
X135540000Y-73566928D01*
X135388250Y-73570000D01*
X135229500Y-73728750D01*
X135229500Y-74553000D01*
X135249500Y-74553000D01*
X135249500Y-74807000D01*
X135229500Y-74807000D01*
X135229500Y-75631250D01*
X135388250Y-75790000D01*
X135540000Y-75793072D01*
X135664482Y-75780812D01*
X135784180Y-75744502D01*
X135894494Y-75685537D01*
X135961070Y-75630900D01*
X135982725Y-75648671D01*
X136130858Y-75727850D01*
X136291592Y-75776608D01*
X136458750Y-75793072D01*
X136896250Y-75793072D01*
X137063408Y-75776608D01*
X137224142Y-75727850D01*
X137372275Y-75648671D01*
X137502115Y-75542115D01*
X137608671Y-75412275D01*
X137687850Y-75264142D01*
X137720957Y-75155000D01*
X137836928Y-75155000D01*
X137849188Y-75279482D01*
X137885498Y-75399180D01*
X137944463Y-75509494D01*
X138023815Y-75606185D01*
X138120506Y-75685537D01*
X138230820Y-75744502D01*
X138350518Y-75780812D01*
X138475000Y-75793072D01*
X138626750Y-75790000D01*
X138785500Y-75631250D01*
X138785500Y-74807000D01*
X137998750Y-74807000D01*
X137840000Y-74965750D01*
X137836928Y-75155000D01*
X137720957Y-75155000D01*
X137736608Y-75103408D01*
X137753072Y-74936250D01*
X137753072Y-74423750D01*
X137736608Y-74256592D01*
X137720958Y-74205000D01*
X137836928Y-74205000D01*
X137840000Y-74394250D01*
X137998750Y-74553000D01*
X138785500Y-74553000D01*
X138785500Y-73728750D01*
X138626750Y-73570000D01*
X138475000Y-73566928D01*
X138350518Y-73579188D01*
X138230820Y-73615498D01*
X138120506Y-73674463D01*
X138023815Y-73753815D01*
X137944463Y-73850506D01*
X137885498Y-73960820D01*
X137849188Y-74080518D01*
X137836928Y-74205000D01*
X137720958Y-74205000D01*
X137687850Y-74095858D01*
X137608671Y-73947725D01*
X137502115Y-73817885D01*
X137437500Y-73764857D01*
X137437500Y-73305143D01*
X137502115Y-73252115D01*
X137608671Y-73122275D01*
X137687850Y-72974142D01*
X137736608Y-72813408D01*
X137753072Y-72646250D01*
X137753072Y-72517506D01*
X137836928Y-72601362D01*
X137836928Y-72646250D01*
X137853392Y-72813408D01*
X137902150Y-72974142D01*
X137981329Y-73122275D01*
X138087885Y-73252115D01*
X138217725Y-73358671D01*
X138365858Y-73437850D01*
X138526592Y-73486608D01*
X138693750Y-73503072D01*
X139131250Y-73503072D01*
X139298408Y-73486608D01*
X139459142Y-73437850D01*
X139607275Y-73358671D01*
X139700000Y-73282574D01*
X139727500Y-73305143D01*
X139727501Y-73693344D01*
X139704494Y-73674463D01*
X139594180Y-73615498D01*
X139474482Y-73579188D01*
X139350000Y-73566928D01*
X139198250Y-73570000D01*
X139039500Y-73728750D01*
X139039500Y-74553000D01*
X139059500Y-74553000D01*
X139059500Y-74807000D01*
X139039500Y-74807000D01*
X139039500Y-75631250D01*
X139198250Y-75790000D01*
X139350000Y-75793072D01*
X139474482Y-75780812D01*
X139594180Y-75744502D01*
X139704494Y-75685537D01*
X139771070Y-75630900D01*
X139792725Y-75648671D01*
X139940858Y-75727850D01*
X140101592Y-75776608D01*
X140268750Y-75793072D01*
X140706250Y-75793072D01*
X140873408Y-75776608D01*
X141034142Y-75727850D01*
X141182275Y-75648671D01*
X141312115Y-75542115D01*
X141418671Y-75412275D01*
X141497850Y-75264142D01*
X141546608Y-75103408D01*
X141563072Y-74936250D01*
X141563072Y-74423750D01*
X141546608Y-74256592D01*
X141497850Y-74095858D01*
X141418671Y-73947725D01*
X141312115Y-73817885D01*
X141247500Y-73764857D01*
X141247500Y-73305143D01*
X141312115Y-73252115D01*
X141418671Y-73122275D01*
X141497850Y-72974142D01*
X141546608Y-72813408D01*
X141563072Y-72646250D01*
X141563072Y-72133750D01*
X141546608Y-71966592D01*
X141499262Y-71810512D01*
X144609783Y-71810512D01*
X144651213Y-72090130D01*
X144746397Y-72356292D01*
X144813329Y-72481514D01*
X145057298Y-72553097D01*
X145870395Y-71740000D01*
X146229605Y-71740000D01*
X147042702Y-72553097D01*
X147286671Y-72481514D01*
X147407571Y-72226004D01*
X147476300Y-71951816D01*
X147490217Y-71669488D01*
X147448787Y-71389870D01*
X147353603Y-71123708D01*
X147286671Y-70998486D01*
X147042702Y-70926903D01*
X146229605Y-71740000D01*
X145870395Y-71740000D01*
X145057298Y-70926903D01*
X144813329Y-70998486D01*
X144692429Y-71253996D01*
X144623700Y-71528184D01*
X144609783Y-71810512D01*
X141499262Y-71810512D01*
X141497850Y-71805858D01*
X141418671Y-71657725D01*
X141312115Y-71527885D01*
X141182275Y-71421329D01*
X141034142Y-71342150D01*
X140873408Y-71293392D01*
X140706250Y-71276928D01*
X140268750Y-71276928D01*
X140101592Y-71293392D01*
X139940858Y-71342150D01*
X139792725Y-71421329D01*
X139700000Y-71497426D01*
X139607275Y-71421329D01*
X139459142Y-71342150D01*
X139298408Y-71293392D01*
X139131250Y-71276928D01*
X139086362Y-71276928D01*
X139034006Y-71224573D01*
X139031476Y-71211852D01*
X138953455Y-71023494D01*
X138840187Y-70853976D01*
X138733509Y-70747298D01*
X145236903Y-70747298D01*
X146050000Y-71560395D01*
X146863097Y-70747298D01*
X146791514Y-70503329D01*
X146536004Y-70382429D01*
X146261816Y-70313700D01*
X145979488Y-70299783D01*
X145699870Y-70341213D01*
X145433708Y-70436397D01*
X145308486Y-70503329D01*
X145236903Y-70747298D01*
X138733509Y-70747298D01*
X138696024Y-70709813D01*
X138526506Y-70596545D01*
X138338148Y-70518524D01*
X138138189Y-70478750D01*
X137934311Y-70478750D01*
X137734352Y-70518524D01*
X137706671Y-70529990D01*
X135724527Y-70529990D01*
X136044729Y-70316038D01*
X136199114Y-70161653D01*
X147447952Y-70161653D01*
X147603962Y-70477214D01*
X147978745Y-70668020D01*
X148383551Y-70782044D01*
X148802824Y-70814902D01*
X149220451Y-70765334D01*
X149620383Y-70635243D01*
X149916038Y-70477214D01*
X150072048Y-70161653D01*
X148760000Y-68849605D01*
X147447952Y-70161653D01*
X136199114Y-70161653D01*
X136356038Y-70004729D01*
X136600631Y-69638669D01*
X136769110Y-69231925D01*
X136855000Y-68800128D01*
X136855000Y-68712824D01*
X146615098Y-68712824D01*
X146664666Y-69130451D01*
X146794757Y-69530383D01*
X146952786Y-69826038D01*
X147268347Y-69982048D01*
X148580395Y-68670000D01*
X148939605Y-68670000D01*
X150251653Y-69982048D01*
X150567214Y-69826038D01*
X150758020Y-69451255D01*
X150872044Y-69046449D01*
X150904902Y-68627176D01*
X150855334Y-68209549D01*
X150725243Y-67809617D01*
X150567214Y-67513962D01*
X150251653Y-67357952D01*
X148939605Y-68670000D01*
X148580395Y-68670000D01*
X147268347Y-67357952D01*
X146952786Y-67513962D01*
X146761980Y-67888745D01*
X146647956Y-68293551D01*
X146615098Y-68712824D01*
X136855000Y-68712824D01*
X136855000Y-68359872D01*
X136769110Y-67928075D01*
X136600631Y-67521331D01*
X136356038Y-67155271D01*
X136044729Y-66843962D01*
X135829274Y-66700000D01*
X147914241Y-66700000D01*
X147899617Y-66704757D01*
X147603962Y-66862786D01*
X147447952Y-67178347D01*
X148760000Y-68490395D01*
X150072048Y-67178347D01*
X149916038Y-66862786D01*
X149596292Y-66700000D01*
X156820000Y-66700000D01*
X156820001Y-83880727D01*
X156676038Y-83665271D01*
X156364729Y-83353962D01*
X155998669Y-83109369D01*
X155591925Y-82940890D01*
X155160128Y-82855000D01*
X154719872Y-82855000D01*
X154288075Y-82940890D01*
X153881331Y-83109369D01*
X153515271Y-83353962D01*
X153203962Y-83665271D01*
X152959369Y-84031331D01*
X152790890Y-84438075D01*
X152705000Y-84869872D01*
X152705000Y-85310128D01*
X152790890Y-85741925D01*
X152959369Y-86148669D01*
X153203962Y-86514729D01*
X153515271Y-86826038D01*
X153730726Y-86970000D01*
X115509274Y-86970000D01*
X115724729Y-86826038D01*
X116036038Y-86514729D01*
X116280631Y-86148669D01*
X116449110Y-85741925D01*
X116484302Y-85565000D01*
X116951928Y-85565000D01*
X116964188Y-85689482D01*
X117000498Y-85809180D01*
X117059463Y-85919494D01*
X117138815Y-86016185D01*
X117235506Y-86095537D01*
X117345820Y-86154502D01*
X117465518Y-86190812D01*
X117590000Y-86203072D01*
X117741750Y-86200000D01*
X117900500Y-86041250D01*
X117900500Y-85217000D01*
X117113750Y-85217000D01*
X116955000Y-85375750D01*
X116951928Y-85565000D01*
X116484302Y-85565000D01*
X116535000Y-85310128D01*
X116535000Y-84869872D01*
X116484303Y-84615000D01*
X116951928Y-84615000D01*
X116955000Y-84804250D01*
X117113750Y-84963000D01*
X117900500Y-84963000D01*
X117900500Y-84138750D01*
X117741750Y-83980000D01*
X117590000Y-83976928D01*
X117465518Y-83989188D01*
X117345820Y-84025498D01*
X117235506Y-84084463D01*
X117138815Y-84163815D01*
X117059463Y-84260506D01*
X117000498Y-84370820D01*
X116964188Y-84490518D01*
X116951928Y-84615000D01*
X116484303Y-84615000D01*
X116449110Y-84438075D01*
X116280631Y-84031331D01*
X116036038Y-83665271D01*
X115724729Y-83353962D01*
X115358669Y-83109369D01*
X114951925Y-82940890D01*
X114520128Y-82855000D01*
X114079872Y-82855000D01*
X113648075Y-82940890D01*
X113241331Y-83109369D01*
X112875271Y-83353962D01*
X112563962Y-83665271D01*
X112420000Y-83880726D01*
X112420000Y-81523715D01*
X112492986Y-81637408D01*
X112641609Y-81791587D01*
X112817455Y-81913809D01*
X113013767Y-81999376D01*
X113223000Y-82045000D01*
X113623000Y-82045000D01*
X113623000Y-81087000D01*
X113877000Y-81087000D01*
X113877000Y-82045000D01*
X114277000Y-82045000D01*
X114486233Y-81999376D01*
X114682545Y-81913809D01*
X114858391Y-81791587D01*
X115007014Y-81637408D01*
X115122702Y-81457197D01*
X115194408Y-81254001D01*
X115335592Y-81254001D01*
X115407298Y-81457197D01*
X115522986Y-81637408D01*
X115671609Y-81791587D01*
X115847455Y-81913809D01*
X116043767Y-81999376D01*
X116253000Y-82045000D01*
X117003000Y-82045000D01*
X117003000Y-81087000D01*
X117257000Y-81087000D01*
X117257000Y-82045000D01*
X118007000Y-82045000D01*
X118216233Y-81999376D01*
X118412545Y-81913809D01*
X118588391Y-81791587D01*
X118737014Y-81637408D01*
X118852702Y-81457197D01*
X118924408Y-81254001D01*
X118797502Y-81087000D01*
X117257000Y-81087000D01*
X117003000Y-81087000D01*
X115462498Y-81087000D01*
X115335592Y-81254001D01*
X115194408Y-81254001D01*
X115067502Y-81087000D01*
X113877000Y-81087000D01*
X113623000Y-81087000D01*
X113603000Y-81087000D01*
X113603000Y-80833000D01*
X113623000Y-80833000D01*
X113623000Y-79875000D01*
X113877000Y-79875000D01*
X113877000Y-80833000D01*
X115067502Y-80833000D01*
X115194408Y-80665999D01*
X115122702Y-80462803D01*
X115007014Y-80282592D01*
X114858391Y-80128413D01*
X114682545Y-80006191D01*
X114486233Y-79920624D01*
X114277000Y-79875000D01*
X113877000Y-79875000D01*
X113623000Y-79875000D01*
X113223000Y-79875000D01*
X113013767Y-79920624D01*
X112817455Y-80006191D01*
X112641609Y-80128413D01*
X112492986Y-80282592D01*
X112420000Y-80396285D01*
X112420000Y-72873715D01*
X112492986Y-72987408D01*
X112641609Y-73141587D01*
X112817455Y-73263809D01*
X113013767Y-73349376D01*
X113223000Y-73395000D01*
X113623000Y-73395000D01*
X113623000Y-72437000D01*
X113877000Y-72437000D01*
X113877000Y-73395000D01*
X114277000Y-73395000D01*
X114486233Y-73349376D01*
X114682545Y-73263809D01*
X114858391Y-73141587D01*
X115007014Y-72987408D01*
X115122702Y-72807197D01*
X115194408Y-72604001D01*
X115067502Y-72437000D01*
X113877000Y-72437000D01*
X113623000Y-72437000D01*
X113603000Y-72437000D01*
X113603000Y-72183000D01*
X113623000Y-72183000D01*
X113623000Y-71225000D01*
X113877000Y-71225000D01*
X113877000Y-72183000D01*
X115067502Y-72183000D01*
X115194408Y-72015999D01*
X115335592Y-72015999D01*
X115462498Y-72183000D01*
X117003000Y-72183000D01*
X117003000Y-71225000D01*
X116253000Y-71225000D01*
X116043767Y-71270624D01*
X115847455Y-71356191D01*
X115671609Y-71478413D01*
X115522986Y-71632592D01*
X115407298Y-71812803D01*
X115335592Y-72015999D01*
X115194408Y-72015999D01*
X115122702Y-71812803D01*
X115007014Y-71632592D01*
X114858391Y-71478413D01*
X114682545Y-71356191D01*
X114486233Y-71270624D01*
X114277000Y-71225000D01*
X113877000Y-71225000D01*
X113623000Y-71225000D01*
X113223000Y-71225000D01*
X113013767Y-71270624D01*
X112817455Y-71356191D01*
X112641609Y-71478413D01*
X112492986Y-71632592D01*
X112420000Y-71746285D01*
X112420000Y-66700000D01*
X133410726Y-66700000D01*
X133195271Y-66843962D01*
G36*
X138881321Y-81520308D02*
G01*
X138940902Y-81552155D01*
X138823804Y-81724187D01*
X138732546Y-81939258D01*
X138685000Y-82168000D01*
X138685000Y-82818000D01*
X139743000Y-82818000D01*
X139743000Y-82798000D01*
X139997000Y-82798000D01*
X139997000Y-82818000D01*
X140017000Y-82818000D01*
X140017000Y-83072000D01*
X139997000Y-83072000D01*
X139997000Y-83092000D01*
X139743000Y-83092000D01*
X139743000Y-83072000D01*
X138685000Y-83072000D01*
X138685000Y-83195250D01*
X138633979Y-83185626D01*
X137999605Y-83820000D01*
X138013748Y-83834143D01*
X137912889Y-83935001D01*
X137727111Y-83935001D01*
X137626253Y-83834143D01*
X137640395Y-83820000D01*
X137626253Y-83805858D01*
X137805858Y-83626253D01*
X137820000Y-83640395D01*
X137954300Y-83506095D01*
X137980002Y-83485002D01*
X138001095Y-83459300D01*
X138409301Y-83051094D01*
X138435002Y-83030002D01*
X138529975Y-82914277D01*
X138600547Y-82782248D01*
X138644004Y-82638987D01*
X138655001Y-82527334D01*
X138655001Y-82527325D01*
X138658677Y-82490002D01*
X138655001Y-82452679D01*
X138655001Y-81687321D01*
X138658677Y-81649998D01*
X138655001Y-81612675D01*
X138655001Y-81612666D01*
X138645875Y-81520010D01*
X138880958Y-81520010D01*
X138881321Y-81520308D01*
X138881321Y-81520308D01*
G37*
X138881321Y-81520308D02*
X138940902Y-81552155D01*
X138823804Y-81724187D01*
X138732546Y-81939258D01*
X138685000Y-82168000D01*
X138685000Y-82818000D01*
X139743000Y-82818000D01*
X139743000Y-82798000D01*
X139997000Y-82798000D01*
X139997000Y-82818000D01*
X140017000Y-82818000D01*
X140017000Y-83072000D01*
X139997000Y-83072000D01*
X139997000Y-83092000D01*
X139743000Y-83092000D01*
X139743000Y-83072000D01*
X138685000Y-83072000D01*
X138685000Y-83195250D01*
X138633979Y-83185626D01*
X137999605Y-83820000D01*
X138013748Y-83834143D01*
X137912889Y-83935001D01*
X137727111Y-83935001D01*
X137626253Y-83834143D01*
X137640395Y-83820000D01*
X137626253Y-83805858D01*
X137805858Y-83626253D01*
X137820000Y-83640395D01*
X137954300Y-83506095D01*
X137980002Y-83485002D01*
X138001095Y-83459300D01*
X138409301Y-83051094D01*
X138435002Y-83030002D01*
X138529975Y-82914277D01*
X138600547Y-82782248D01*
X138644004Y-82638987D01*
X138655001Y-82527334D01*
X138655001Y-82527325D01*
X138658677Y-82490002D01*
X138655001Y-82452679D01*
X138655001Y-81687321D01*
X138658677Y-81649998D01*
X138655001Y-81612675D01*
X138655001Y-81612666D01*
X138645875Y-81520010D01*
X138880958Y-81520010D01*
X138881321Y-81520308D01*
G36*
X137565810Y-79375026D02*
G01*
X137450085Y-79469999D01*
X137426287Y-79498997D01*
X136482378Y-80442907D01*
X136451013Y-80445996D01*
X136307752Y-80489453D01*
X136175723Y-80560025D01*
X136059998Y-80654998D01*
X136036195Y-80684002D01*
X135782627Y-80937570D01*
X135765652Y-80930539D01*
X135536712Y-80885000D01*
X135303288Y-80885000D01*
X135074348Y-80930539D01*
X134858692Y-81019866D01*
X134664606Y-81149550D01*
X134499550Y-81314606D01*
X134369866Y-81508692D01*
X134280539Y-81724348D01*
X134235000Y-81953288D01*
X134235000Y-82186712D01*
X134280539Y-82415652D01*
X134369866Y-82631308D01*
X134370280Y-82631928D01*
X134070000Y-82631928D01*
X133945518Y-82644188D01*
X133825820Y-82680498D01*
X133755000Y-82718353D01*
X133755000Y-82168000D01*
X133707454Y-81939258D01*
X133616196Y-81724187D01*
X133484734Y-81531052D01*
X133318119Y-81367275D01*
X133122754Y-81239150D01*
X132906147Y-81151601D01*
X132879744Y-81151197D01*
X132697000Y-81276639D01*
X132697000Y-82818000D01*
X132717000Y-82818000D01*
X132717000Y-83072000D01*
X132697000Y-83072000D01*
X132697000Y-83092000D01*
X132443000Y-83092000D01*
X132443000Y-83072000D01*
X131385000Y-83072000D01*
X131385000Y-83108066D01*
X130444934Y-82168000D01*
X131385000Y-82168000D01*
X131385000Y-82818000D01*
X132443000Y-82818000D01*
X132443000Y-81276639D01*
X132260256Y-81151197D01*
X132233853Y-81151601D01*
X132017246Y-81239150D01*
X131821881Y-81367275D01*
X131655266Y-81531052D01*
X131523804Y-81724187D01*
X131432546Y-81939258D01*
X131385000Y-82168000D01*
X130444934Y-82168000D01*
X128881856Y-80604923D01*
X128778015Y-80519702D01*
X128714425Y-80485712D01*
X129175138Y-80025000D01*
X130749724Y-80025000D01*
X130787046Y-80028676D01*
X130824368Y-80025000D01*
X130824379Y-80025000D01*
X130936032Y-80014003D01*
X131079293Y-79970546D01*
X131211322Y-79899974D01*
X131327047Y-79805001D01*
X131350849Y-79775998D01*
X131756848Y-79370000D01*
X137575213Y-79370000D01*
X137565810Y-79375026D01*
X137565810Y-79375026D01*
G37*
X137565810Y-79375026D02*
X137450085Y-79469999D01*
X137426287Y-79498997D01*
X136482378Y-80442907D01*
X136451013Y-80445996D01*
X136307752Y-80489453D01*
X136175723Y-80560025D01*
X136059998Y-80654998D01*
X136036195Y-80684002D01*
X135782627Y-80937570D01*
X135765652Y-80930539D01*
X135536712Y-80885000D01*
X135303288Y-80885000D01*
X135074348Y-80930539D01*
X134858692Y-81019866D01*
X134664606Y-81149550D01*
X134499550Y-81314606D01*
X134369866Y-81508692D01*
X134280539Y-81724348D01*
X134235000Y-81953288D01*
X134235000Y-82186712D01*
X134280539Y-82415652D01*
X134369866Y-82631308D01*
X134370280Y-82631928D01*
X134070000Y-82631928D01*
X133945518Y-82644188D01*
X133825820Y-82680498D01*
X133755000Y-82718353D01*
X133755000Y-82168000D01*
X133707454Y-81939258D01*
X133616196Y-81724187D01*
X133484734Y-81531052D01*
X133318119Y-81367275D01*
X133122754Y-81239150D01*
X132906147Y-81151601D01*
X132879744Y-81151197D01*
X132697000Y-81276639D01*
X132697000Y-82818000D01*
X132717000Y-82818000D01*
X132717000Y-83072000D01*
X132697000Y-83072000D01*
X132697000Y-83092000D01*
X132443000Y-83092000D01*
X132443000Y-83072000D01*
X131385000Y-83072000D01*
X131385000Y-83108066D01*
X130444934Y-82168000D01*
X131385000Y-82168000D01*
X131385000Y-82818000D01*
X132443000Y-82818000D01*
X132443000Y-81276639D01*
X132260256Y-81151197D01*
X132233853Y-81151601D01*
X132017246Y-81239150D01*
X131821881Y-81367275D01*
X131655266Y-81531052D01*
X131523804Y-81724187D01*
X131432546Y-81939258D01*
X131385000Y-82168000D01*
X130444934Y-82168000D01*
X128881856Y-80604923D01*
X128778015Y-80519702D01*
X128714425Y-80485712D01*
X129175138Y-80025000D01*
X130749724Y-80025000D01*
X130787046Y-80028676D01*
X130824368Y-80025000D01*
X130824379Y-80025000D01*
X130936032Y-80014003D01*
X131079293Y-79970546D01*
X131211322Y-79899974D01*
X131327047Y-79805001D01*
X131350849Y-79775998D01*
X131756848Y-79370000D01*
X137575213Y-79370000D01*
X137565810Y-79375026D01*
G36*
X123256591Y-79657205D02*
G01*
X123444949Y-79735226D01*
X123644908Y-79775000D01*
X123790618Y-79775000D01*
X123714774Y-79958102D01*
X123675000Y-80158061D01*
X123675000Y-80361939D01*
X123714774Y-80561898D01*
X123792795Y-80750256D01*
X123906063Y-80919774D01*
X123998217Y-81011928D01*
X123130010Y-81011928D01*
X123130010Y-79572627D01*
X123256591Y-79657205D01*
X123256591Y-79657205D01*
G37*
X123256591Y-79657205D02*
X123444949Y-79735226D01*
X123644908Y-79775000D01*
X123790618Y-79775000D01*
X123714774Y-79958102D01*
X123675000Y-80158061D01*
X123675000Y-80361939D01*
X123714774Y-80561898D01*
X123792795Y-80750256D01*
X123906063Y-80919774D01*
X123998217Y-81011928D01*
X123130010Y-81011928D01*
X123130010Y-79572627D01*
X123256591Y-79657205D01*
G36*
X116774143Y-79803748D02*
G01*
X116760000Y-79789605D01*
X116745858Y-79803748D01*
X116687110Y-79745000D01*
X116832890Y-79745000D01*
X116774143Y-79803748D01*
X116774143Y-79803748D01*
G37*
X116774143Y-79803748D02*
X116760000Y-79789605D01*
X116745858Y-79803748D01*
X116687110Y-79745000D01*
X116832890Y-79745000D01*
X116774143Y-79803748D01*
G36*
X126627000Y-76831610D02*
G01*
X126627000Y-76953390D01*
X126540890Y-77039500D01*
X126419110Y-77039500D01*
X126333000Y-76953390D01*
X126333000Y-76831610D01*
X126419110Y-76745500D01*
X126540890Y-76745500D01*
X126627000Y-76831610D01*
X126627000Y-76831610D01*
G37*
X126627000Y-76831610D02*
X126627000Y-76953390D01*
X126540890Y-77039500D01*
X126419110Y-77039500D01*
X126333000Y-76953390D01*
X126333000Y-76831610D01*
X126419110Y-76745500D01*
X126540890Y-76745500D01*
X126627000Y-76831610D01*
G36*
X122817000Y-70510500D02*
G01*
X122837000Y-70510500D01*
X122837000Y-70764500D01*
X122817000Y-70764500D01*
X122817000Y-71551250D01*
X122975750Y-71710000D01*
X123165000Y-71713072D01*
X123289482Y-71700812D01*
X123409180Y-71664502D01*
X123519494Y-71605537D01*
X123616185Y-71526185D01*
X123637380Y-71500359D01*
X123644188Y-71569482D01*
X123680498Y-71689180D01*
X123739463Y-71799494D01*
X123818815Y-71896185D01*
X123915506Y-71975537D01*
X124025820Y-72034502D01*
X124145518Y-72070812D01*
X124270000Y-72083072D01*
X125330000Y-72083072D01*
X125454482Y-72070812D01*
X125574180Y-72034502D01*
X125577610Y-72032669D01*
X125604704Y-72030000D01*
X125604706Y-72030000D01*
X125738393Y-72016833D01*
X125909929Y-71964798D01*
X126026498Y-71902490D01*
X126115506Y-71975537D01*
X126225820Y-72034502D01*
X126345518Y-72070812D01*
X126470000Y-72083072D01*
X127530000Y-72083072D01*
X127654482Y-72070812D01*
X127774180Y-72034502D01*
X127884494Y-71975537D01*
X127981185Y-71896185D01*
X128060537Y-71799494D01*
X128108645Y-71709491D01*
X128145000Y-71713072D01*
X128334250Y-71710000D01*
X128493000Y-71551250D01*
X128493000Y-70764500D01*
X128473000Y-70764500D01*
X128473000Y-70510500D01*
X128493000Y-70510500D01*
X128493000Y-70490500D01*
X128747000Y-70490500D01*
X128747000Y-70510500D01*
X128767000Y-70510500D01*
X128767000Y-70764500D01*
X128747000Y-70764500D01*
X128747000Y-71551250D01*
X128905750Y-71710000D01*
X128932630Y-71710436D01*
X128618068Y-72024999D01*
X128573297Y-72024999D01*
X128439610Y-72038166D01*
X128268074Y-72090201D01*
X128109986Y-72174701D01*
X128109623Y-72174999D01*
X125357823Y-72174999D01*
X125320501Y-72171323D01*
X125283179Y-72174999D01*
X124661832Y-72174999D01*
X124624499Y-72171322D01*
X124587166Y-72174999D01*
X124475513Y-72185996D01*
X124332252Y-72229453D01*
X124200223Y-72300025D01*
X124084498Y-72394998D01*
X124060695Y-72424002D01*
X123736497Y-72748200D01*
X123707499Y-72771998D01*
X123683701Y-72800996D01*
X123683700Y-72800997D01*
X123612525Y-72887723D01*
X123541953Y-73019753D01*
X123528788Y-73063153D01*
X123498496Y-73163013D01*
X123487499Y-73274666D01*
X123487499Y-73274677D01*
X123483823Y-73311999D01*
X123487499Y-73349321D01*
X123487499Y-73970679D01*
X123483823Y-74008001D01*
X123487499Y-74045323D01*
X123487499Y-74045333D01*
X123498496Y-74156986D01*
X123541953Y-74300247D01*
X123612525Y-74432277D01*
X123630188Y-74453799D01*
X123707498Y-74548002D01*
X123736501Y-74571804D01*
X124047197Y-74882500D01*
X121938121Y-74882500D01*
X121826468Y-74893497D01*
X121683207Y-74936954D01*
X121551178Y-75007526D01*
X121435453Y-75102499D01*
X121411655Y-75131497D01*
X121223152Y-75320000D01*
X120203831Y-75320000D01*
X120183937Y-75290226D01*
X120039774Y-75146063D01*
X119870256Y-75032795D01*
X119681898Y-74954774D01*
X119481939Y-74915000D01*
X119411933Y-74915000D01*
X119991851Y-74335083D01*
X120026581Y-74306581D01*
X120140298Y-74168015D01*
X120224798Y-74009927D01*
X120276833Y-73838391D01*
X120290000Y-73704704D01*
X120290000Y-73704703D01*
X120294403Y-73660001D01*
X120290000Y-73615299D01*
X120290000Y-72749433D01*
X121658504Y-71380929D01*
X121684463Y-71429494D01*
X121763815Y-71526185D01*
X121860506Y-71605537D01*
X121970820Y-71664502D01*
X122090518Y-71700812D01*
X122215000Y-71713072D01*
X122404250Y-71710000D01*
X122563000Y-71551250D01*
X122563000Y-70764500D01*
X122543000Y-70764500D01*
X122543000Y-70510500D01*
X122563000Y-70510500D01*
X122563000Y-70490500D01*
X122817000Y-70490500D01*
X122817000Y-70510500D01*
X122817000Y-70510500D01*
G37*
X122817000Y-70510500D02*
X122837000Y-70510500D01*
X122837000Y-70764500D01*
X122817000Y-70764500D01*
X122817000Y-71551250D01*
X122975750Y-71710000D01*
X123165000Y-71713072D01*
X123289482Y-71700812D01*
X123409180Y-71664502D01*
X123519494Y-71605537D01*
X123616185Y-71526185D01*
X123637380Y-71500359D01*
X123644188Y-71569482D01*
X123680498Y-71689180D01*
X123739463Y-71799494D01*
X123818815Y-71896185D01*
X123915506Y-71975537D01*
X124025820Y-72034502D01*
X124145518Y-72070812D01*
X124270000Y-72083072D01*
X125330000Y-72083072D01*
X125454482Y-72070812D01*
X125574180Y-72034502D01*
X125577610Y-72032669D01*
X125604704Y-72030000D01*
X125604706Y-72030000D01*
X125738393Y-72016833D01*
X125909929Y-71964798D01*
X126026498Y-71902490D01*
X126115506Y-71975537D01*
X126225820Y-72034502D01*
X126345518Y-72070812D01*
X126470000Y-72083072D01*
X127530000Y-72083072D01*
X127654482Y-72070812D01*
X127774180Y-72034502D01*
X127884494Y-71975537D01*
X127981185Y-71896185D01*
X128060537Y-71799494D01*
X128108645Y-71709491D01*
X128145000Y-71713072D01*
X128334250Y-71710000D01*
X128493000Y-71551250D01*
X128493000Y-70764500D01*
X128473000Y-70764500D01*
X128473000Y-70510500D01*
X128493000Y-70510500D01*
X128493000Y-70490500D01*
X128747000Y-70490500D01*
X128747000Y-70510500D01*
X128767000Y-70510500D01*
X128767000Y-70764500D01*
X128747000Y-70764500D01*
X128747000Y-71551250D01*
X128905750Y-71710000D01*
X128932630Y-71710436D01*
X128618068Y-72024999D01*
X128573297Y-72024999D01*
X128439610Y-72038166D01*
X128268074Y-72090201D01*
X128109986Y-72174701D01*
X128109623Y-72174999D01*
X125357823Y-72174999D01*
X125320501Y-72171323D01*
X125283179Y-72174999D01*
X124661832Y-72174999D01*
X124624499Y-72171322D01*
X124587166Y-72174999D01*
X124475513Y-72185996D01*
X124332252Y-72229453D01*
X124200223Y-72300025D01*
X124084498Y-72394998D01*
X124060695Y-72424002D01*
X123736497Y-72748200D01*
X123707499Y-72771998D01*
X123683701Y-72800996D01*
X123683700Y-72800997D01*
X123612525Y-72887723D01*
X123541953Y-73019753D01*
X123528788Y-73063153D01*
X123498496Y-73163013D01*
X123487499Y-73274666D01*
X123487499Y-73274677D01*
X123483823Y-73311999D01*
X123487499Y-73349321D01*
X123487499Y-73970679D01*
X123483823Y-74008001D01*
X123487499Y-74045323D01*
X123487499Y-74045333D01*
X123498496Y-74156986D01*
X123541953Y-74300247D01*
X123612525Y-74432277D01*
X123630188Y-74453799D01*
X123707498Y-74548002D01*
X123736501Y-74571804D01*
X124047197Y-74882500D01*
X121938121Y-74882500D01*
X121826468Y-74893497D01*
X121683207Y-74936954D01*
X121551178Y-75007526D01*
X121435453Y-75102499D01*
X121411655Y-75131497D01*
X121223152Y-75320000D01*
X120203831Y-75320000D01*
X120183937Y-75290226D01*
X120039774Y-75146063D01*
X119870256Y-75032795D01*
X119681898Y-74954774D01*
X119481939Y-74915000D01*
X119411933Y-74915000D01*
X119991851Y-74335083D01*
X120026581Y-74306581D01*
X120140298Y-74168015D01*
X120224798Y-74009927D01*
X120276833Y-73838391D01*
X120290000Y-73704704D01*
X120290000Y-73704703D01*
X120294403Y-73660001D01*
X120290000Y-73615299D01*
X120290000Y-72749433D01*
X121658504Y-71380929D01*
X121684463Y-71429494D01*
X121763815Y-71526185D01*
X121860506Y-71605537D01*
X121970820Y-71664502D01*
X122090518Y-71700812D01*
X122215000Y-71713072D01*
X122404250Y-71710000D01*
X122563000Y-71551250D01*
X122563000Y-70764500D01*
X122543000Y-70764500D01*
X122543000Y-70510500D01*
X122563000Y-70510500D01*
X122563000Y-70490500D01*
X122817000Y-70490500D01*
X122817000Y-70510500D01*
G36*
X116832890Y-73525000D02*
G01*
X116687110Y-73525000D01*
X116745858Y-73466253D01*
X116760000Y-73480395D01*
X116774143Y-73466253D01*
X116832890Y-73525000D01*
X116832890Y-73525000D01*
G37*
X116832890Y-73525000D02*
X116687110Y-73525000D01*
X116745858Y-73466253D01*
X116760000Y-73480395D01*
X116774143Y-73466253D01*
X116832890Y-73525000D01*
G36*
X118182890Y-73525000D02*
G01*
X118037110Y-73525000D01*
X118095858Y-73466253D01*
X118110000Y-73480395D01*
X118124143Y-73466253D01*
X118182890Y-73525000D01*
X118182890Y-73525000D01*
G37*
X118182890Y-73525000D02*
X118037110Y-73525000D01*
X118095858Y-73466253D01*
X118110000Y-73480395D01*
X118124143Y-73466253D01*
X118182890Y-73525000D01*
M02*
