G04 #@! TF.GenerationSoftware,KiCad,Pcbnew,(5.1.2)-1*
G04 #@! TF.CreationDate,2019-08-24T20:09:31-04:00*
G04 #@! TF.ProjectId,REV Type-C V3,52455620-5479-4706-952d-432056332e6b,rev?*
G04 #@! TF.SameCoordinates,Original*
G04 #@! TF.FileFunction,Legend,Top*
G04 #@! TF.FilePolarity,Positive*
%FSLAX46Y46*%
G04 Gerber Fmt 4.6, Leading zero omitted, Abs format (unit mm)*
G04 Created by KiCad (PCBNEW (5.1.2)-1) date 2019-08-24 20:09:31*
%MOMM*%
%LPD*%
G04 APERTURE LIST*
%ADD10C,0.150000*%
%ADD11C,0.300000*%
%ADD12C,0.010000*%
%ADD13C,0.120000*%
G04 APERTURE END LIST*
D10*
X141996190Y-85494761D02*
X141900952Y-85542380D01*
X141710476Y-85542380D01*
X141615238Y-85494761D01*
X141567619Y-85447142D01*
X141520000Y-85351904D01*
X141520000Y-85066190D01*
X141567619Y-84970952D01*
X141615238Y-84923333D01*
X141710476Y-84875714D01*
X141900952Y-84875714D01*
X141996190Y-84923333D01*
X142567619Y-85542380D02*
X142472380Y-85494761D01*
X142424761Y-85447142D01*
X142377142Y-85351904D01*
X142377142Y-85066190D01*
X142424761Y-84970952D01*
X142472380Y-84923333D01*
X142567619Y-84875714D01*
X142710476Y-84875714D01*
X142805714Y-84923333D01*
X142853333Y-84970952D01*
X142900952Y-85066190D01*
X142900952Y-85351904D01*
X142853333Y-85447142D01*
X142805714Y-85494761D01*
X142710476Y-85542380D01*
X142567619Y-85542380D01*
X143329523Y-84875714D02*
X143329523Y-85875714D01*
X143329523Y-84923333D02*
X143424761Y-84875714D01*
X143615238Y-84875714D01*
X143710476Y-84923333D01*
X143758095Y-84970952D01*
X143805714Y-85066190D01*
X143805714Y-85351904D01*
X143758095Y-85447142D01*
X143710476Y-85494761D01*
X143615238Y-85542380D01*
X143424761Y-85542380D01*
X143329523Y-85494761D01*
X144234285Y-85542380D02*
X144234285Y-84875714D01*
X144234285Y-85066190D02*
X144281904Y-84970952D01*
X144329523Y-84923333D01*
X144424761Y-84875714D01*
X144520000Y-84875714D01*
X144853333Y-85447142D02*
X144900952Y-85494761D01*
X144853333Y-85542380D01*
X144805714Y-85494761D01*
X144853333Y-85447142D01*
X144853333Y-85542380D01*
X145758095Y-85494761D02*
X145662857Y-85542380D01*
X145472380Y-85542380D01*
X145377142Y-85494761D01*
X145329523Y-85447142D01*
X145281904Y-85351904D01*
X145281904Y-85066190D01*
X145329523Y-84970952D01*
X145377142Y-84923333D01*
X145472380Y-84875714D01*
X145662857Y-84875714D01*
X145758095Y-84923333D01*
X146615238Y-85494761D02*
X146520000Y-85542380D01*
X146329523Y-85542380D01*
X146234285Y-85494761D01*
X146186666Y-85447142D01*
X146139047Y-85351904D01*
X146139047Y-85066190D01*
X146186666Y-84970952D01*
X146234285Y-84923333D01*
X146329523Y-84875714D01*
X146520000Y-84875714D01*
X146615238Y-84923333D01*
X147758095Y-84494761D02*
X146900952Y-85780476D01*
X148805714Y-84494761D02*
X147948571Y-85780476D01*
X149043809Y-84542380D02*
X149710476Y-85542380D01*
X149710476Y-84542380D02*
X149043809Y-85542380D01*
X149996190Y-84542380D02*
X150662857Y-85542380D01*
X150662857Y-84542380D02*
X149996190Y-85542380D01*
X150948571Y-84542380D02*
X151615238Y-85542380D01*
X151615238Y-84542380D02*
X150948571Y-85542380D01*
X151900952Y-84542380D02*
X152567619Y-85542380D01*
X152567619Y-84542380D02*
X151900952Y-85542380D01*
D11*
X133532857Y-76643571D02*
X134461428Y-76643571D01*
X133961428Y-77215000D01*
X134175714Y-77215000D01*
X134318571Y-77286428D01*
X134390000Y-77357857D01*
X134461428Y-77500714D01*
X134461428Y-77857857D01*
X134390000Y-78000714D01*
X134318571Y-78072142D01*
X134175714Y-78143571D01*
X133747142Y-78143571D01*
X133604285Y-78072142D01*
X133532857Y-78000714D01*
X134890000Y-76643571D02*
X135390000Y-78143571D01*
X135890000Y-76643571D01*
X136247142Y-76643571D02*
X137175714Y-76643571D01*
X136675714Y-77215000D01*
X136890000Y-77215000D01*
X137032857Y-77286428D01*
X137104285Y-77357857D01*
X137175714Y-77500714D01*
X137175714Y-77857857D01*
X137104285Y-78000714D01*
X137032857Y-78072142D01*
X136890000Y-78143571D01*
X136461428Y-78143571D01*
X136318571Y-78072142D01*
X136247142Y-78000714D01*
X139414285Y-76648571D02*
X138700000Y-76648571D01*
X138628571Y-77362857D01*
X138700000Y-77291428D01*
X138842857Y-77220000D01*
X139200000Y-77220000D01*
X139342857Y-77291428D01*
X139414285Y-77362857D01*
X139485714Y-77505714D01*
X139485714Y-77862857D01*
X139414285Y-78005714D01*
X139342857Y-78077142D01*
X139200000Y-78148571D01*
X138842857Y-78148571D01*
X138700000Y-78077142D01*
X138628571Y-78005714D01*
X139914285Y-76648571D02*
X140414285Y-78148571D01*
X140914285Y-76648571D01*
D12*
G36*
X117216964Y-67140018D02*
G01*
X117273812Y-67441570D01*
X117693338Y-67614512D01*
X117944984Y-67443395D01*
X118015458Y-67395750D01*
X118079163Y-67353210D01*
X118133126Y-67317715D01*
X118174373Y-67291210D01*
X118199934Y-67275636D01*
X118206895Y-67272278D01*
X118219435Y-67280914D01*
X118246231Y-67304792D01*
X118284280Y-67340859D01*
X118330579Y-67386067D01*
X118382123Y-67437364D01*
X118435909Y-67491701D01*
X118488935Y-67546028D01*
X118538195Y-67597295D01*
X118580687Y-67642451D01*
X118613407Y-67678446D01*
X118633351Y-67702230D01*
X118638119Y-67710190D01*
X118631257Y-67724865D01*
X118612020Y-67757014D01*
X118582430Y-67803492D01*
X118544510Y-67861156D01*
X118500282Y-67926860D01*
X118474654Y-67964336D01*
X118427941Y-68032768D01*
X118386432Y-68094520D01*
X118352140Y-68146519D01*
X118327080Y-68185692D01*
X118313264Y-68208965D01*
X118311188Y-68213855D01*
X118315895Y-68227755D01*
X118328723Y-68260150D01*
X118347738Y-68306485D01*
X118371003Y-68362206D01*
X118396584Y-68422758D01*
X118422545Y-68483586D01*
X118446950Y-68540136D01*
X118467863Y-68587852D01*
X118483349Y-68622181D01*
X118491472Y-68638568D01*
X118491952Y-68639212D01*
X118504707Y-68642341D01*
X118538677Y-68649321D01*
X118590340Y-68659467D01*
X118656176Y-68672092D01*
X118732664Y-68686509D01*
X118777290Y-68694823D01*
X118859021Y-68710384D01*
X118932843Y-68725192D01*
X118995021Y-68738436D01*
X119041822Y-68749305D01*
X119069509Y-68756989D01*
X119075074Y-68759427D01*
X119080526Y-68775930D01*
X119084924Y-68813200D01*
X119088272Y-68866880D01*
X119090574Y-68932612D01*
X119091832Y-69006037D01*
X119092048Y-69082796D01*
X119091227Y-69158532D01*
X119089371Y-69228886D01*
X119086482Y-69289500D01*
X119082565Y-69336016D01*
X119077622Y-69364075D01*
X119074657Y-69369916D01*
X119056934Y-69376917D01*
X119019381Y-69386927D01*
X118966964Y-69398769D01*
X118904652Y-69411267D01*
X118882900Y-69415310D01*
X118778024Y-69434520D01*
X118695180Y-69449991D01*
X118631630Y-69462337D01*
X118584637Y-69472173D01*
X118551463Y-69480114D01*
X118529371Y-69486776D01*
X118515624Y-69492773D01*
X118507484Y-69498719D01*
X118506345Y-69499894D01*
X118494977Y-69518826D01*
X118477635Y-69555669D01*
X118456050Y-69605913D01*
X118431954Y-69665046D01*
X118407079Y-69728556D01*
X118383157Y-69791932D01*
X118361919Y-69850662D01*
X118345097Y-69900235D01*
X118334422Y-69936139D01*
X118331627Y-69953862D01*
X118331860Y-69954483D01*
X118341331Y-69968970D01*
X118362818Y-70000844D01*
X118394063Y-70046789D01*
X118432807Y-70103485D01*
X118476793Y-70167617D01*
X118489319Y-70185842D01*
X118533984Y-70251914D01*
X118573288Y-70312200D01*
X118605088Y-70363235D01*
X118627245Y-70401560D01*
X118637617Y-70423711D01*
X118638119Y-70426432D01*
X118629405Y-70440736D01*
X118605325Y-70469072D01*
X118568976Y-70508396D01*
X118523453Y-70555661D01*
X118471852Y-70607823D01*
X118417267Y-70661835D01*
X118362794Y-70714653D01*
X118311529Y-70763231D01*
X118266567Y-70804523D01*
X118231004Y-70835485D01*
X118207935Y-70853070D01*
X118201554Y-70855941D01*
X118186699Y-70849178D01*
X118156286Y-70830939D01*
X118115268Y-70804297D01*
X118083709Y-70782852D01*
X118026525Y-70743503D01*
X117958806Y-70697171D01*
X117890880Y-70650913D01*
X117854361Y-70626155D01*
X117730752Y-70542547D01*
X117626991Y-70598650D01*
X117579720Y-70623228D01*
X117539523Y-70642331D01*
X117512326Y-70653227D01*
X117505402Y-70654743D01*
X117497077Y-70643549D01*
X117480654Y-70611917D01*
X117457357Y-70562765D01*
X117428414Y-70499010D01*
X117395050Y-70423571D01*
X117358491Y-70339364D01*
X117319964Y-70249308D01*
X117280694Y-70156321D01*
X117241908Y-70063320D01*
X117204830Y-69973223D01*
X117170689Y-69888948D01*
X117140708Y-69813413D01*
X117116116Y-69749534D01*
X117098136Y-69700231D01*
X117087997Y-69668421D01*
X117086366Y-69657496D01*
X117099291Y-69643561D01*
X117127589Y-69620940D01*
X117165346Y-69594333D01*
X117168515Y-69592228D01*
X117266100Y-69514114D01*
X117344786Y-69422982D01*
X117403891Y-69321745D01*
X117442732Y-69213318D01*
X117460628Y-69100614D01*
X117456897Y-68986548D01*
X117430857Y-68874034D01*
X117381825Y-68765985D01*
X117367400Y-68742345D01*
X117292369Y-68646887D01*
X117203730Y-68570232D01*
X117104549Y-68512780D01*
X116997895Y-68474929D01*
X116886836Y-68457078D01*
X116774439Y-68459625D01*
X116663773Y-68482970D01*
X116557906Y-68527510D01*
X116459905Y-68593645D01*
X116429590Y-68620487D01*
X116352438Y-68704512D01*
X116296218Y-68792966D01*
X116257653Y-68892115D01*
X116236174Y-68990303D01*
X116230872Y-69100697D01*
X116248552Y-69211640D01*
X116287419Y-69319381D01*
X116345677Y-69420169D01*
X116421531Y-69510256D01*
X116513183Y-69585892D01*
X116525228Y-69593864D01*
X116563389Y-69619974D01*
X116592399Y-69642595D01*
X116606268Y-69657039D01*
X116606469Y-69657496D01*
X116603492Y-69673121D01*
X116591689Y-69708582D01*
X116572286Y-69760962D01*
X116546512Y-69827345D01*
X116515591Y-69904814D01*
X116480751Y-69990450D01*
X116443217Y-70081337D01*
X116404217Y-70174559D01*
X116364977Y-70267197D01*
X116326724Y-70356335D01*
X116290683Y-70439055D01*
X116258083Y-70512441D01*
X116230148Y-70573575D01*
X116208105Y-70619541D01*
X116193182Y-70647421D01*
X116187172Y-70654743D01*
X116168809Y-70649041D01*
X116134448Y-70633749D01*
X116090016Y-70611599D01*
X116065583Y-70598650D01*
X115961822Y-70542547D01*
X115838213Y-70626155D01*
X115775114Y-70668987D01*
X115706030Y-70716122D01*
X115641293Y-70760503D01*
X115608866Y-70782852D01*
X115563259Y-70813477D01*
X115524640Y-70837747D01*
X115498048Y-70852587D01*
X115489410Y-70855724D01*
X115476839Y-70847261D01*
X115449016Y-70823636D01*
X115408639Y-70787302D01*
X115358405Y-70740711D01*
X115301012Y-70686317D01*
X115264714Y-70651392D01*
X115201210Y-70588996D01*
X115146327Y-70533188D01*
X115102286Y-70486354D01*
X115071305Y-70450882D01*
X115055602Y-70429161D01*
X115054095Y-70424752D01*
X115061086Y-70407985D01*
X115080406Y-70374082D01*
X115109909Y-70326476D01*
X115147455Y-70268599D01*
X115190900Y-70203884D01*
X115203255Y-70185842D01*
X115248273Y-70120267D01*
X115288660Y-70061228D01*
X115322160Y-70012042D01*
X115346514Y-69976028D01*
X115359464Y-69956502D01*
X115360715Y-69954483D01*
X115358844Y-69938922D01*
X115348913Y-69904709D01*
X115332653Y-69856355D01*
X115311795Y-69798371D01*
X115288073Y-69735270D01*
X115263216Y-69671563D01*
X115238958Y-69611761D01*
X115217029Y-69560376D01*
X115199162Y-69521919D01*
X115187087Y-69500902D01*
X115186229Y-69499894D01*
X115178846Y-69493888D01*
X115166375Y-69487948D01*
X115146080Y-69481460D01*
X115115222Y-69473809D01*
X115071066Y-69464380D01*
X115010874Y-69452559D01*
X114931907Y-69437729D01*
X114831430Y-69419277D01*
X114809675Y-69415310D01*
X114745198Y-69402853D01*
X114688989Y-69390666D01*
X114646013Y-69379926D01*
X114621240Y-69371809D01*
X114617918Y-69369916D01*
X114612444Y-69353138D01*
X114607994Y-69315645D01*
X114604572Y-69261794D01*
X114602181Y-69195944D01*
X114600823Y-69122453D01*
X114600501Y-69045680D01*
X114601219Y-68969983D01*
X114602979Y-68899720D01*
X114605784Y-68839250D01*
X114609638Y-68792930D01*
X114614543Y-68765119D01*
X114617500Y-68759427D01*
X114633963Y-68753686D01*
X114671449Y-68744345D01*
X114726225Y-68732215D01*
X114794555Y-68718107D01*
X114872706Y-68702830D01*
X114915284Y-68694823D01*
X114996071Y-68679721D01*
X115068113Y-68666040D01*
X115127889Y-68654467D01*
X115171879Y-68645687D01*
X115196561Y-68640387D01*
X115200623Y-68639212D01*
X115207489Y-68625965D01*
X115222002Y-68594057D01*
X115242229Y-68548047D01*
X115266234Y-68492492D01*
X115292082Y-68431953D01*
X115317840Y-68370986D01*
X115341573Y-68314151D01*
X115361346Y-68266006D01*
X115375224Y-68231110D01*
X115381274Y-68214021D01*
X115381386Y-68213274D01*
X115374528Y-68199793D01*
X115355302Y-68168770D01*
X115325728Y-68123289D01*
X115287827Y-68066432D01*
X115243620Y-68001283D01*
X115217921Y-67963862D01*
X115171093Y-67895247D01*
X115129501Y-67832952D01*
X115095175Y-67780129D01*
X115070143Y-67739927D01*
X115056435Y-67715500D01*
X115054456Y-67710024D01*
X115062966Y-67697278D01*
X115086493Y-67670063D01*
X115122032Y-67631428D01*
X115166577Y-67584423D01*
X115217123Y-67532095D01*
X115270664Y-67477495D01*
X115324195Y-67423670D01*
X115374711Y-67373670D01*
X115419206Y-67330543D01*
X115454675Y-67297339D01*
X115478113Y-67277106D01*
X115485954Y-67272278D01*
X115498720Y-67279067D01*
X115529256Y-67298142D01*
X115574590Y-67327561D01*
X115631756Y-67365381D01*
X115697784Y-67409661D01*
X115747590Y-67443395D01*
X115999236Y-67614512D01*
X116208999Y-67528041D01*
X116418763Y-67441570D01*
X116475611Y-67140018D01*
X116532460Y-66838466D01*
X117160115Y-66838466D01*
X117216964Y-67140018D01*
X117216964Y-67140018D01*
G37*
X117216964Y-67140018D02*
X117273812Y-67441570D01*
X117693338Y-67614512D01*
X117944984Y-67443395D01*
X118015458Y-67395750D01*
X118079163Y-67353210D01*
X118133126Y-67317715D01*
X118174373Y-67291210D01*
X118199934Y-67275636D01*
X118206895Y-67272278D01*
X118219435Y-67280914D01*
X118246231Y-67304792D01*
X118284280Y-67340859D01*
X118330579Y-67386067D01*
X118382123Y-67437364D01*
X118435909Y-67491701D01*
X118488935Y-67546028D01*
X118538195Y-67597295D01*
X118580687Y-67642451D01*
X118613407Y-67678446D01*
X118633351Y-67702230D01*
X118638119Y-67710190D01*
X118631257Y-67724865D01*
X118612020Y-67757014D01*
X118582430Y-67803492D01*
X118544510Y-67861156D01*
X118500282Y-67926860D01*
X118474654Y-67964336D01*
X118427941Y-68032768D01*
X118386432Y-68094520D01*
X118352140Y-68146519D01*
X118327080Y-68185692D01*
X118313264Y-68208965D01*
X118311188Y-68213855D01*
X118315895Y-68227755D01*
X118328723Y-68260150D01*
X118347738Y-68306485D01*
X118371003Y-68362206D01*
X118396584Y-68422758D01*
X118422545Y-68483586D01*
X118446950Y-68540136D01*
X118467863Y-68587852D01*
X118483349Y-68622181D01*
X118491472Y-68638568D01*
X118491952Y-68639212D01*
X118504707Y-68642341D01*
X118538677Y-68649321D01*
X118590340Y-68659467D01*
X118656176Y-68672092D01*
X118732664Y-68686509D01*
X118777290Y-68694823D01*
X118859021Y-68710384D01*
X118932843Y-68725192D01*
X118995021Y-68738436D01*
X119041822Y-68749305D01*
X119069509Y-68756989D01*
X119075074Y-68759427D01*
X119080526Y-68775930D01*
X119084924Y-68813200D01*
X119088272Y-68866880D01*
X119090574Y-68932612D01*
X119091832Y-69006037D01*
X119092048Y-69082796D01*
X119091227Y-69158532D01*
X119089371Y-69228886D01*
X119086482Y-69289500D01*
X119082565Y-69336016D01*
X119077622Y-69364075D01*
X119074657Y-69369916D01*
X119056934Y-69376917D01*
X119019381Y-69386927D01*
X118966964Y-69398769D01*
X118904652Y-69411267D01*
X118882900Y-69415310D01*
X118778024Y-69434520D01*
X118695180Y-69449991D01*
X118631630Y-69462337D01*
X118584637Y-69472173D01*
X118551463Y-69480114D01*
X118529371Y-69486776D01*
X118515624Y-69492773D01*
X118507484Y-69498719D01*
X118506345Y-69499894D01*
X118494977Y-69518826D01*
X118477635Y-69555669D01*
X118456050Y-69605913D01*
X118431954Y-69665046D01*
X118407079Y-69728556D01*
X118383157Y-69791932D01*
X118361919Y-69850662D01*
X118345097Y-69900235D01*
X118334422Y-69936139D01*
X118331627Y-69953862D01*
X118331860Y-69954483D01*
X118341331Y-69968970D01*
X118362818Y-70000844D01*
X118394063Y-70046789D01*
X118432807Y-70103485D01*
X118476793Y-70167617D01*
X118489319Y-70185842D01*
X118533984Y-70251914D01*
X118573288Y-70312200D01*
X118605088Y-70363235D01*
X118627245Y-70401560D01*
X118637617Y-70423711D01*
X118638119Y-70426432D01*
X118629405Y-70440736D01*
X118605325Y-70469072D01*
X118568976Y-70508396D01*
X118523453Y-70555661D01*
X118471852Y-70607823D01*
X118417267Y-70661835D01*
X118362794Y-70714653D01*
X118311529Y-70763231D01*
X118266567Y-70804523D01*
X118231004Y-70835485D01*
X118207935Y-70853070D01*
X118201554Y-70855941D01*
X118186699Y-70849178D01*
X118156286Y-70830939D01*
X118115268Y-70804297D01*
X118083709Y-70782852D01*
X118026525Y-70743503D01*
X117958806Y-70697171D01*
X117890880Y-70650913D01*
X117854361Y-70626155D01*
X117730752Y-70542547D01*
X117626991Y-70598650D01*
X117579720Y-70623228D01*
X117539523Y-70642331D01*
X117512326Y-70653227D01*
X117505402Y-70654743D01*
X117497077Y-70643549D01*
X117480654Y-70611917D01*
X117457357Y-70562765D01*
X117428414Y-70499010D01*
X117395050Y-70423571D01*
X117358491Y-70339364D01*
X117319964Y-70249308D01*
X117280694Y-70156321D01*
X117241908Y-70063320D01*
X117204830Y-69973223D01*
X117170689Y-69888948D01*
X117140708Y-69813413D01*
X117116116Y-69749534D01*
X117098136Y-69700231D01*
X117087997Y-69668421D01*
X117086366Y-69657496D01*
X117099291Y-69643561D01*
X117127589Y-69620940D01*
X117165346Y-69594333D01*
X117168515Y-69592228D01*
X117266100Y-69514114D01*
X117344786Y-69422982D01*
X117403891Y-69321745D01*
X117442732Y-69213318D01*
X117460628Y-69100614D01*
X117456897Y-68986548D01*
X117430857Y-68874034D01*
X117381825Y-68765985D01*
X117367400Y-68742345D01*
X117292369Y-68646887D01*
X117203730Y-68570232D01*
X117104549Y-68512780D01*
X116997895Y-68474929D01*
X116886836Y-68457078D01*
X116774439Y-68459625D01*
X116663773Y-68482970D01*
X116557906Y-68527510D01*
X116459905Y-68593645D01*
X116429590Y-68620487D01*
X116352438Y-68704512D01*
X116296218Y-68792966D01*
X116257653Y-68892115D01*
X116236174Y-68990303D01*
X116230872Y-69100697D01*
X116248552Y-69211640D01*
X116287419Y-69319381D01*
X116345677Y-69420169D01*
X116421531Y-69510256D01*
X116513183Y-69585892D01*
X116525228Y-69593864D01*
X116563389Y-69619974D01*
X116592399Y-69642595D01*
X116606268Y-69657039D01*
X116606469Y-69657496D01*
X116603492Y-69673121D01*
X116591689Y-69708582D01*
X116572286Y-69760962D01*
X116546512Y-69827345D01*
X116515591Y-69904814D01*
X116480751Y-69990450D01*
X116443217Y-70081337D01*
X116404217Y-70174559D01*
X116364977Y-70267197D01*
X116326724Y-70356335D01*
X116290683Y-70439055D01*
X116258083Y-70512441D01*
X116230148Y-70573575D01*
X116208105Y-70619541D01*
X116193182Y-70647421D01*
X116187172Y-70654743D01*
X116168809Y-70649041D01*
X116134448Y-70633749D01*
X116090016Y-70611599D01*
X116065583Y-70598650D01*
X115961822Y-70542547D01*
X115838213Y-70626155D01*
X115775114Y-70668987D01*
X115706030Y-70716122D01*
X115641293Y-70760503D01*
X115608866Y-70782852D01*
X115563259Y-70813477D01*
X115524640Y-70837747D01*
X115498048Y-70852587D01*
X115489410Y-70855724D01*
X115476839Y-70847261D01*
X115449016Y-70823636D01*
X115408639Y-70787302D01*
X115358405Y-70740711D01*
X115301012Y-70686317D01*
X115264714Y-70651392D01*
X115201210Y-70588996D01*
X115146327Y-70533188D01*
X115102286Y-70486354D01*
X115071305Y-70450882D01*
X115055602Y-70429161D01*
X115054095Y-70424752D01*
X115061086Y-70407985D01*
X115080406Y-70374082D01*
X115109909Y-70326476D01*
X115147455Y-70268599D01*
X115190900Y-70203884D01*
X115203255Y-70185842D01*
X115248273Y-70120267D01*
X115288660Y-70061228D01*
X115322160Y-70012042D01*
X115346514Y-69976028D01*
X115359464Y-69956502D01*
X115360715Y-69954483D01*
X115358844Y-69938922D01*
X115348913Y-69904709D01*
X115332653Y-69856355D01*
X115311795Y-69798371D01*
X115288073Y-69735270D01*
X115263216Y-69671563D01*
X115238958Y-69611761D01*
X115217029Y-69560376D01*
X115199162Y-69521919D01*
X115187087Y-69500902D01*
X115186229Y-69499894D01*
X115178846Y-69493888D01*
X115166375Y-69487948D01*
X115146080Y-69481460D01*
X115115222Y-69473809D01*
X115071066Y-69464380D01*
X115010874Y-69452559D01*
X114931907Y-69437729D01*
X114831430Y-69419277D01*
X114809675Y-69415310D01*
X114745198Y-69402853D01*
X114688989Y-69390666D01*
X114646013Y-69379926D01*
X114621240Y-69371809D01*
X114617918Y-69369916D01*
X114612444Y-69353138D01*
X114607994Y-69315645D01*
X114604572Y-69261794D01*
X114602181Y-69195944D01*
X114600823Y-69122453D01*
X114600501Y-69045680D01*
X114601219Y-68969983D01*
X114602979Y-68899720D01*
X114605784Y-68839250D01*
X114609638Y-68792930D01*
X114614543Y-68765119D01*
X114617500Y-68759427D01*
X114633963Y-68753686D01*
X114671449Y-68744345D01*
X114726225Y-68732215D01*
X114794555Y-68718107D01*
X114872706Y-68702830D01*
X114915284Y-68694823D01*
X114996071Y-68679721D01*
X115068113Y-68666040D01*
X115127889Y-68654467D01*
X115171879Y-68645687D01*
X115196561Y-68640387D01*
X115200623Y-68639212D01*
X115207489Y-68625965D01*
X115222002Y-68594057D01*
X115242229Y-68548047D01*
X115266234Y-68492492D01*
X115292082Y-68431953D01*
X115317840Y-68370986D01*
X115341573Y-68314151D01*
X115361346Y-68266006D01*
X115375224Y-68231110D01*
X115381274Y-68214021D01*
X115381386Y-68213274D01*
X115374528Y-68199793D01*
X115355302Y-68168770D01*
X115325728Y-68123289D01*
X115287827Y-68066432D01*
X115243620Y-68001283D01*
X115217921Y-67963862D01*
X115171093Y-67895247D01*
X115129501Y-67832952D01*
X115095175Y-67780129D01*
X115070143Y-67739927D01*
X115056435Y-67715500D01*
X115054456Y-67710024D01*
X115062966Y-67697278D01*
X115086493Y-67670063D01*
X115122032Y-67631428D01*
X115166577Y-67584423D01*
X115217123Y-67532095D01*
X115270664Y-67477495D01*
X115324195Y-67423670D01*
X115374711Y-67373670D01*
X115419206Y-67330543D01*
X115454675Y-67297339D01*
X115478113Y-67277106D01*
X115485954Y-67272278D01*
X115498720Y-67279067D01*
X115529256Y-67298142D01*
X115574590Y-67327561D01*
X115631756Y-67365381D01*
X115697784Y-67409661D01*
X115747590Y-67443395D01*
X115999236Y-67614512D01*
X116208999Y-67528041D01*
X116418763Y-67441570D01*
X116475611Y-67140018D01*
X116532460Y-66838466D01*
X117160115Y-66838466D01*
X117216964Y-67140018D01*
D10*
X140120000Y-80920000D02*
X140120000Y-81520000D01*
X132320000Y-81520000D02*
X132320000Y-80920000D01*
X140120000Y-85020000D02*
X140120000Y-84420000D01*
X132320000Y-85020000D02*
X140120000Y-85020000D01*
X132320000Y-84420000D02*
X132320000Y-85020000D01*
X132320000Y-80920000D02*
X140120000Y-80920000D01*
X134120000Y-85320000D02*
X135120000Y-85320000D01*
D13*
X124370000Y-78527500D02*
X124370000Y-79002500D01*
X128590000Y-74782500D02*
X128115000Y-74782500D01*
X128590000Y-75257500D02*
X128590000Y-74782500D01*
X128590000Y-79002500D02*
X128115000Y-79002500D01*
X128590000Y-78527500D02*
X128590000Y-79002500D01*
X124370000Y-74782500D02*
X124845000Y-74782500D01*
X124370000Y-75257500D02*
X124370000Y-74782500D01*
X122180000Y-69687221D02*
X122180000Y-70012779D01*
X123200000Y-69687221D02*
X123200000Y-70012779D01*
X124975000Y-83450000D02*
X124975000Y-81650000D01*
X122825000Y-81600000D02*
X121725000Y-81600000D01*
X122825000Y-83500000D02*
X121725000Y-83500000D01*
X126800000Y-68560000D02*
X124350000Y-68560000D01*
X125000000Y-71780000D02*
X126800000Y-71780000D01*
X136052779Y-71880000D02*
X135727221Y-71880000D01*
X136052779Y-72900000D02*
X135727221Y-72900000D01*
X139862779Y-71880000D02*
X139537221Y-71880000D01*
X139862779Y-72900000D02*
X139537221Y-72900000D01*
X122112221Y-85600000D02*
X122437779Y-85600000D01*
X122112221Y-84580000D02*
X122437779Y-84580000D01*
X115710000Y-72040000D02*
X114810000Y-72040000D01*
X115710000Y-81230000D02*
X114810000Y-81230000D01*
X112110000Y-72040000D02*
X109380000Y-72040000D01*
X112110000Y-81230000D02*
X109380000Y-81230000D01*
X118790000Y-72160000D02*
X118790000Y-81110000D01*
X109380000Y-72040000D02*
X109380000Y-81230000D01*
X159040000Y-82490000D02*
X159040000Y-67990000D01*
X159040000Y-67990000D02*
X158540000Y-67990000D01*
X158540000Y-67990000D02*
X158540000Y-68990000D01*
X158540000Y-68990000D02*
X150540000Y-68990000D01*
X147040000Y-68990000D02*
X145040000Y-68990000D01*
X145040000Y-68990000D02*
X145040000Y-81490000D01*
X145040000Y-81490000D02*
X147040000Y-81490000D01*
X150540000Y-81490000D02*
X158540000Y-81490000D01*
X158540000Y-81490000D02*
X158540000Y-82490000D01*
X158540000Y-82490000D02*
X159040000Y-82490000D01*
X144790000Y-79240000D02*
X144790000Y-78240000D01*
X134405000Y-75415000D02*
X136690000Y-75415000D01*
X134405000Y-73945000D02*
X134405000Y-75415000D01*
X136690000Y-73945000D02*
X134405000Y-73945000D01*
X138215000Y-75415000D02*
X140500000Y-75415000D01*
X138215000Y-73945000D02*
X138215000Y-75415000D01*
X140500000Y-73945000D02*
X138215000Y-73945000D01*
X128110000Y-69687221D02*
X128110000Y-70012779D01*
X129130000Y-69687221D02*
X129130000Y-70012779D01*
X118977779Y-84580000D02*
X118652221Y-84580000D01*
X118977779Y-85600000D02*
X118652221Y-85600000D01*
X125567221Y-85600000D02*
X125892779Y-85600000D01*
X125567221Y-84580000D02*
X125892779Y-84580000D01*
D10*
X122612380Y-77654404D02*
X123421904Y-77654404D01*
X123517142Y-77606785D01*
X123564761Y-77559166D01*
X123612380Y-77463928D01*
X123612380Y-77273452D01*
X123564761Y-77178214D01*
X123517142Y-77130595D01*
X123421904Y-77082976D01*
X122612380Y-77082976D01*
X123612380Y-76082976D02*
X123612380Y-76654404D01*
X123612380Y-76368690D02*
X122612380Y-76368690D01*
X122755238Y-76463928D01*
X122850476Y-76559166D01*
X122898095Y-76654404D01*
X122523333Y-67667142D02*
X122475714Y-67714761D01*
X122332857Y-67762380D01*
X122237619Y-67762380D01*
X122094761Y-67714761D01*
X121999523Y-67619523D01*
X121951904Y-67524285D01*
X121904285Y-67333809D01*
X121904285Y-67190952D01*
X121951904Y-67000476D01*
X121999523Y-66905238D01*
X122094761Y-66810000D01*
X122237619Y-66762380D01*
X122332857Y-66762380D01*
X122475714Y-66810000D01*
X122523333Y-66857619D01*
X123380476Y-67095714D02*
X123380476Y-67762380D01*
X123142380Y-66714761D02*
X122904285Y-67429047D01*
X123523333Y-67429047D01*
X121798809Y-79986190D02*
X121798809Y-80462380D01*
X121465476Y-79462380D02*
X121798809Y-79986190D01*
X122132142Y-79462380D01*
X122989285Y-80462380D02*
X122417857Y-80462380D01*
X122703571Y-80462380D02*
X122703571Y-79462380D01*
X122608333Y-79605238D01*
X122513095Y-79700476D01*
X122417857Y-79748095D01*
X125138095Y-66722380D02*
X125138095Y-67531904D01*
X125185714Y-67627142D01*
X125233333Y-67674761D01*
X125328571Y-67722380D01*
X125519047Y-67722380D01*
X125614285Y-67674761D01*
X125661904Y-67627142D01*
X125709523Y-67531904D01*
X125709523Y-66722380D01*
X126138095Y-66817619D02*
X126185714Y-66770000D01*
X126280952Y-66722380D01*
X126519047Y-66722380D01*
X126614285Y-66770000D01*
X126661904Y-66817619D01*
X126709523Y-66912857D01*
X126709523Y-67008095D01*
X126661904Y-67150952D01*
X126090476Y-67722380D01*
X126709523Y-67722380D01*
X133183333Y-72842380D02*
X132850000Y-72366190D01*
X132611904Y-72842380D02*
X132611904Y-71842380D01*
X132992857Y-71842380D01*
X133088095Y-71890000D01*
X133135714Y-71937619D01*
X133183333Y-72032857D01*
X133183333Y-72175714D01*
X133135714Y-72270952D01*
X133088095Y-72318571D01*
X132992857Y-72366190D01*
X132611904Y-72366190D01*
X133659523Y-72842380D02*
X133850000Y-72842380D01*
X133945238Y-72794761D01*
X133992857Y-72747142D01*
X134088095Y-72604285D01*
X134135714Y-72413809D01*
X134135714Y-72032857D01*
X134088095Y-71937619D01*
X134040476Y-71890000D01*
X133945238Y-71842380D01*
X133754761Y-71842380D01*
X133659523Y-71890000D01*
X133611904Y-71937619D01*
X133564285Y-72032857D01*
X133564285Y-72270952D01*
X133611904Y-72366190D01*
X133659523Y-72413809D01*
X133754761Y-72461428D01*
X133945238Y-72461428D01*
X134040476Y-72413809D01*
X134088095Y-72366190D01*
X134135714Y-72270952D01*
X142073333Y-72842380D02*
X141740000Y-72366190D01*
X141501904Y-72842380D02*
X141501904Y-71842380D01*
X141882857Y-71842380D01*
X141978095Y-71890000D01*
X142025714Y-71937619D01*
X142073333Y-72032857D01*
X142073333Y-72175714D01*
X142025714Y-72270952D01*
X141978095Y-72318571D01*
X141882857Y-72366190D01*
X141501904Y-72366190D01*
X142644761Y-72270952D02*
X142549523Y-72223333D01*
X142501904Y-72175714D01*
X142454285Y-72080476D01*
X142454285Y-72032857D01*
X142501904Y-71937619D01*
X142549523Y-71890000D01*
X142644761Y-71842380D01*
X142835238Y-71842380D01*
X142930476Y-71890000D01*
X142978095Y-71937619D01*
X143025714Y-72032857D01*
X143025714Y-72080476D01*
X142978095Y-72175714D01*
X142930476Y-72223333D01*
X142835238Y-72270952D01*
X142644761Y-72270952D01*
X142549523Y-72318571D01*
X142501904Y-72366190D01*
X142454285Y-72461428D01*
X142454285Y-72651904D01*
X142501904Y-72747142D01*
X142549523Y-72794761D01*
X142644761Y-72842380D01*
X142835238Y-72842380D01*
X142930476Y-72794761D01*
X142978095Y-72747142D01*
X143025714Y-72651904D01*
X143025714Y-72461428D01*
X142978095Y-72366190D01*
X142930476Y-72318571D01*
X142835238Y-72270952D01*
X122108333Y-86812380D02*
X121775000Y-86336190D01*
X121536904Y-86812380D02*
X121536904Y-85812380D01*
X121917857Y-85812380D01*
X122013095Y-85860000D01*
X122060714Y-85907619D01*
X122108333Y-86002857D01*
X122108333Y-86145714D01*
X122060714Y-86240952D01*
X122013095Y-86288571D01*
X121917857Y-86336190D01*
X121536904Y-86336190D01*
X122965476Y-86145714D02*
X122965476Y-86812380D01*
X122727380Y-85764761D02*
X122489285Y-86479047D01*
X123108333Y-86479047D01*
X113752380Y-76968333D02*
X114466666Y-76968333D01*
X114609523Y-77015952D01*
X114704761Y-77111190D01*
X114752380Y-77254047D01*
X114752380Y-77349285D01*
X113752380Y-76587380D02*
X113752380Y-75968333D01*
X114133333Y-76301666D01*
X114133333Y-76158809D01*
X114180952Y-76063571D01*
X114228571Y-76015952D01*
X114323809Y-75968333D01*
X114561904Y-75968333D01*
X114657142Y-76015952D01*
X114704761Y-76063571D01*
X114752380Y-76158809D01*
X114752380Y-76444523D01*
X114704761Y-76539761D01*
X114657142Y-76587380D01*
X148042380Y-75573333D02*
X148756666Y-75573333D01*
X148899523Y-75620952D01*
X148994761Y-75716190D01*
X149042380Y-75859047D01*
X149042380Y-75954285D01*
X148137619Y-75144761D02*
X148090000Y-75097142D01*
X148042380Y-75001904D01*
X148042380Y-74763809D01*
X148090000Y-74668571D01*
X148137619Y-74620952D01*
X148232857Y-74573333D01*
X148328095Y-74573333D01*
X148470952Y-74620952D01*
X149042380Y-75192380D01*
X149042380Y-74573333D01*
X132611904Y-75382380D02*
X132611904Y-74382380D01*
X132850000Y-74382380D01*
X132992857Y-74430000D01*
X133088095Y-74525238D01*
X133135714Y-74620476D01*
X133183333Y-74810952D01*
X133183333Y-74953809D01*
X133135714Y-75144285D01*
X133088095Y-75239523D01*
X132992857Y-75334761D01*
X132850000Y-75382380D01*
X132611904Y-75382380D01*
X133516666Y-74382380D02*
X134135714Y-74382380D01*
X133802380Y-74763333D01*
X133945238Y-74763333D01*
X134040476Y-74810952D01*
X134088095Y-74858571D01*
X134135714Y-74953809D01*
X134135714Y-75191904D01*
X134088095Y-75287142D01*
X134040476Y-75334761D01*
X133945238Y-75382380D01*
X133659523Y-75382380D01*
X133564285Y-75334761D01*
X133516666Y-75287142D01*
X141501904Y-75382380D02*
X141501904Y-74382380D01*
X141740000Y-74382380D01*
X141882857Y-74430000D01*
X141978095Y-74525238D01*
X142025714Y-74620476D01*
X142073333Y-74810952D01*
X142073333Y-74953809D01*
X142025714Y-75144285D01*
X141978095Y-75239523D01*
X141882857Y-75334761D01*
X141740000Y-75382380D01*
X141501904Y-75382380D01*
X142454285Y-74477619D02*
X142501904Y-74430000D01*
X142597142Y-74382380D01*
X142835238Y-74382380D01*
X142930476Y-74430000D01*
X142978095Y-74477619D01*
X143025714Y-74572857D01*
X143025714Y-74668095D01*
X142978095Y-74810952D01*
X142406666Y-75382380D01*
X143025714Y-75382380D01*
X128453333Y-67667142D02*
X128405714Y-67714761D01*
X128262857Y-67762380D01*
X128167619Y-67762380D01*
X128024761Y-67714761D01*
X127929523Y-67619523D01*
X127881904Y-67524285D01*
X127834285Y-67333809D01*
X127834285Y-67190952D01*
X127881904Y-67000476D01*
X127929523Y-66905238D01*
X128024761Y-66810000D01*
X128167619Y-66762380D01*
X128262857Y-66762380D01*
X128405714Y-66810000D01*
X128453333Y-66857619D01*
X129358095Y-66762380D02*
X128881904Y-66762380D01*
X128834285Y-67238571D01*
X128881904Y-67190952D01*
X128977142Y-67143333D01*
X129215238Y-67143333D01*
X129310476Y-67190952D01*
X129358095Y-67238571D01*
X129405714Y-67333809D01*
X129405714Y-67571904D01*
X129358095Y-67667142D01*
X129310476Y-67714761D01*
X129215238Y-67762380D01*
X128977142Y-67762380D01*
X128881904Y-67714761D01*
X128834285Y-67667142D01*
X118648333Y-86717142D02*
X118600714Y-86764761D01*
X118457857Y-86812380D01*
X118362619Y-86812380D01*
X118219761Y-86764761D01*
X118124523Y-86669523D01*
X118076904Y-86574285D01*
X118029285Y-86383809D01*
X118029285Y-86240952D01*
X118076904Y-86050476D01*
X118124523Y-85955238D01*
X118219761Y-85860000D01*
X118362619Y-85812380D01*
X118457857Y-85812380D01*
X118600714Y-85860000D01*
X118648333Y-85907619D01*
X118981666Y-85812380D02*
X119600714Y-85812380D01*
X119267380Y-86193333D01*
X119410238Y-86193333D01*
X119505476Y-86240952D01*
X119553095Y-86288571D01*
X119600714Y-86383809D01*
X119600714Y-86621904D01*
X119553095Y-86717142D01*
X119505476Y-86764761D01*
X119410238Y-86812380D01*
X119124523Y-86812380D01*
X119029285Y-86764761D01*
X118981666Y-86717142D01*
X125563333Y-86717142D02*
X125515714Y-86764761D01*
X125372857Y-86812380D01*
X125277619Y-86812380D01*
X125134761Y-86764761D01*
X125039523Y-86669523D01*
X124991904Y-86574285D01*
X124944285Y-86383809D01*
X124944285Y-86240952D01*
X124991904Y-86050476D01*
X125039523Y-85955238D01*
X125134761Y-85860000D01*
X125277619Y-85812380D01*
X125372857Y-85812380D01*
X125515714Y-85860000D01*
X125563333Y-85907619D01*
X125944285Y-85907619D02*
X125991904Y-85860000D01*
X126087142Y-85812380D01*
X126325238Y-85812380D01*
X126420476Y-85860000D01*
X126468095Y-85907619D01*
X126515714Y-86002857D01*
X126515714Y-86098095D01*
X126468095Y-86240952D01*
X125896666Y-86812380D01*
X126515714Y-86812380D01*
M02*
