G04 #@! TF.GenerationSoftware,KiCad,Pcbnew,(5.1.2)-1*
G04 #@! TF.CreationDate,2019-06-17T23:04:49-04:00*
G04 #@! TF.ProjectId,REV Type-C V2,52455620-5479-4706-952d-432056322e6b,rev?*
G04 #@! TF.SameCoordinates,Original*
G04 #@! TF.FileFunction,Paste,Top*
G04 #@! TF.FilePolarity,Positive*
%FSLAX46Y46*%
G04 Gerber Fmt 4.6, Leading zero omitted, Abs format (unit mm)*
G04 Created by KiCad (PCBNEW (5.1.2)-1) date 2019-06-17 23:04:49*
%MOMM*%
%LPD*%
G04 APERTURE LIST*
%ADD10C,0.050000*%
%ADD11C,0.100000*%
%ADD12C,0.875000*%
%ADD13C,0.250000*%
%ADD14C,1.210000*%
%ADD15R,0.650000X1.060000*%
%ADD16R,1.800000X1.000000*%
G04 APERTURE END LIST*
D10*
X55880000Y-22860000D02*
X95250000Y-22860000D01*
X57150000Y-44450000D02*
X95250000Y-44450000D01*
X53340000Y-44450000D02*
X57150000Y-44450000D01*
X53340000Y-22860000D02*
X55880000Y-22860000D01*
X53340000Y-25400000D02*
X53340000Y-22860000D01*
X55880000Y-25400000D02*
X53340000Y-25400000D01*
X55880000Y-39370000D02*
X55880000Y-25400000D01*
X53340000Y-39370000D02*
X55880000Y-39370000D01*
X53340000Y-44450000D02*
X53340000Y-39370000D01*
X102870000Y-44450000D02*
X95250000Y-44450000D01*
X102870000Y-22860000D02*
X102870000Y-44450000D01*
X95250000Y-22860000D02*
X102870000Y-22860000D01*
D11*
G36*
X68790977Y-31831528D02*
G01*
X68812212Y-31834678D01*
X68833036Y-31839894D01*
X68853248Y-31847126D01*
X68872654Y-31856305D01*
X68891067Y-31867341D01*
X68908310Y-31880129D01*
X68924216Y-31894545D01*
X69233575Y-32203904D01*
X69247991Y-32219810D01*
X69260779Y-32237053D01*
X69271815Y-32255466D01*
X69280994Y-32274872D01*
X69288226Y-32295084D01*
X69293442Y-32315908D01*
X69296592Y-32337143D01*
X69297645Y-32358584D01*
X69296592Y-32380025D01*
X69293442Y-32401260D01*
X69288226Y-32422084D01*
X69280994Y-32442296D01*
X69271815Y-32461702D01*
X69260779Y-32480115D01*
X69247991Y-32497358D01*
X69233575Y-32513264D01*
X68871182Y-32875657D01*
X68855276Y-32890073D01*
X68838033Y-32902861D01*
X68819620Y-32913897D01*
X68800214Y-32923076D01*
X68780002Y-32930308D01*
X68759178Y-32935524D01*
X68737943Y-32938674D01*
X68716502Y-32939727D01*
X68695061Y-32938674D01*
X68673826Y-32935524D01*
X68653002Y-32930308D01*
X68632790Y-32923076D01*
X68613384Y-32913897D01*
X68594971Y-32902861D01*
X68577728Y-32890073D01*
X68561822Y-32875657D01*
X68252463Y-32566298D01*
X68238047Y-32550392D01*
X68225259Y-32533149D01*
X68214223Y-32514736D01*
X68205044Y-32495330D01*
X68197812Y-32475118D01*
X68192596Y-32454294D01*
X68189446Y-32433059D01*
X68188393Y-32411618D01*
X68189446Y-32390177D01*
X68192596Y-32368942D01*
X68197812Y-32348118D01*
X68205044Y-32327906D01*
X68214223Y-32308500D01*
X68225259Y-32290087D01*
X68238047Y-32272844D01*
X68252463Y-32256938D01*
X68614856Y-31894545D01*
X68630762Y-31880129D01*
X68648005Y-31867341D01*
X68666418Y-31856305D01*
X68685824Y-31847126D01*
X68706036Y-31839894D01*
X68726860Y-31834678D01*
X68748095Y-31831528D01*
X68769536Y-31830475D01*
X68790977Y-31831528D01*
X68790977Y-31831528D01*
G37*
D12*
X68743019Y-32385101D03*
D11*
G36*
X69904671Y-32945222D02*
G01*
X69925906Y-32948372D01*
X69946730Y-32953588D01*
X69966942Y-32960820D01*
X69986348Y-32969999D01*
X70004761Y-32981035D01*
X70022004Y-32993823D01*
X70037910Y-33008239D01*
X70347269Y-33317598D01*
X70361685Y-33333504D01*
X70374473Y-33350747D01*
X70385509Y-33369160D01*
X70394688Y-33388566D01*
X70401920Y-33408778D01*
X70407136Y-33429602D01*
X70410286Y-33450837D01*
X70411339Y-33472278D01*
X70410286Y-33493719D01*
X70407136Y-33514954D01*
X70401920Y-33535778D01*
X70394688Y-33555990D01*
X70385509Y-33575396D01*
X70374473Y-33593809D01*
X70361685Y-33611052D01*
X70347269Y-33626958D01*
X69984876Y-33989351D01*
X69968970Y-34003767D01*
X69951727Y-34016555D01*
X69933314Y-34027591D01*
X69913908Y-34036770D01*
X69893696Y-34044002D01*
X69872872Y-34049218D01*
X69851637Y-34052368D01*
X69830196Y-34053421D01*
X69808755Y-34052368D01*
X69787520Y-34049218D01*
X69766696Y-34044002D01*
X69746484Y-34036770D01*
X69727078Y-34027591D01*
X69708665Y-34016555D01*
X69691422Y-34003767D01*
X69675516Y-33989351D01*
X69366157Y-33679992D01*
X69351741Y-33664086D01*
X69338953Y-33646843D01*
X69327917Y-33628430D01*
X69318738Y-33609024D01*
X69311506Y-33588812D01*
X69306290Y-33567988D01*
X69303140Y-33546753D01*
X69302087Y-33525312D01*
X69303140Y-33503871D01*
X69306290Y-33482636D01*
X69311506Y-33461812D01*
X69318738Y-33441600D01*
X69327917Y-33422194D01*
X69338953Y-33403781D01*
X69351741Y-33386538D01*
X69366157Y-33370632D01*
X69728550Y-33008239D01*
X69744456Y-32993823D01*
X69761699Y-32981035D01*
X69780112Y-32969999D01*
X69799518Y-32960820D01*
X69819730Y-32953588D01*
X69840554Y-32948372D01*
X69861789Y-32945222D01*
X69883230Y-32944169D01*
X69904671Y-32945222D01*
X69904671Y-32945222D01*
G37*
D12*
X69856713Y-33498795D03*
D11*
G36*
X70056698Y-30565807D02*
G01*
X70077933Y-30568957D01*
X70098757Y-30574173D01*
X70118969Y-30581405D01*
X70138375Y-30590584D01*
X70156788Y-30601620D01*
X70174031Y-30614408D01*
X70189937Y-30628824D01*
X70499296Y-30938183D01*
X70513712Y-30954089D01*
X70526500Y-30971332D01*
X70537536Y-30989745D01*
X70546715Y-31009151D01*
X70553947Y-31029363D01*
X70559163Y-31050187D01*
X70562313Y-31071422D01*
X70563366Y-31092863D01*
X70562313Y-31114304D01*
X70559163Y-31135539D01*
X70553947Y-31156363D01*
X70546715Y-31176575D01*
X70537536Y-31195981D01*
X70526500Y-31214394D01*
X70513712Y-31231637D01*
X70499296Y-31247543D01*
X70136903Y-31609936D01*
X70120997Y-31624352D01*
X70103754Y-31637140D01*
X70085341Y-31648176D01*
X70065935Y-31657355D01*
X70045723Y-31664587D01*
X70024899Y-31669803D01*
X70003664Y-31672953D01*
X69982223Y-31674006D01*
X69960782Y-31672953D01*
X69939547Y-31669803D01*
X69918723Y-31664587D01*
X69898511Y-31657355D01*
X69879105Y-31648176D01*
X69860692Y-31637140D01*
X69843449Y-31624352D01*
X69827543Y-31609936D01*
X69518184Y-31300577D01*
X69503768Y-31284671D01*
X69490980Y-31267428D01*
X69479944Y-31249015D01*
X69470765Y-31229609D01*
X69463533Y-31209397D01*
X69458317Y-31188573D01*
X69455167Y-31167338D01*
X69454114Y-31145897D01*
X69455167Y-31124456D01*
X69458317Y-31103221D01*
X69463533Y-31082397D01*
X69470765Y-31062185D01*
X69479944Y-31042779D01*
X69490980Y-31024366D01*
X69503768Y-31007123D01*
X69518184Y-30991217D01*
X69880577Y-30628824D01*
X69896483Y-30614408D01*
X69913726Y-30601620D01*
X69932139Y-30590584D01*
X69951545Y-30581405D01*
X69971757Y-30574173D01*
X69992581Y-30568957D01*
X70013816Y-30565807D01*
X70035257Y-30564754D01*
X70056698Y-30565807D01*
X70056698Y-30565807D01*
G37*
D12*
X70008740Y-31119380D03*
D11*
G36*
X71170392Y-31679501D02*
G01*
X71191627Y-31682651D01*
X71212451Y-31687867D01*
X71232663Y-31695099D01*
X71252069Y-31704278D01*
X71270482Y-31715314D01*
X71287725Y-31728102D01*
X71303631Y-31742518D01*
X71612990Y-32051877D01*
X71627406Y-32067783D01*
X71640194Y-32085026D01*
X71651230Y-32103439D01*
X71660409Y-32122845D01*
X71667641Y-32143057D01*
X71672857Y-32163881D01*
X71676007Y-32185116D01*
X71677060Y-32206557D01*
X71676007Y-32227998D01*
X71672857Y-32249233D01*
X71667641Y-32270057D01*
X71660409Y-32290269D01*
X71651230Y-32309675D01*
X71640194Y-32328088D01*
X71627406Y-32345331D01*
X71612990Y-32361237D01*
X71250597Y-32723630D01*
X71234691Y-32738046D01*
X71217448Y-32750834D01*
X71199035Y-32761870D01*
X71179629Y-32771049D01*
X71159417Y-32778281D01*
X71138593Y-32783497D01*
X71117358Y-32786647D01*
X71095917Y-32787700D01*
X71074476Y-32786647D01*
X71053241Y-32783497D01*
X71032417Y-32778281D01*
X71012205Y-32771049D01*
X70992799Y-32761870D01*
X70974386Y-32750834D01*
X70957143Y-32738046D01*
X70941237Y-32723630D01*
X70631878Y-32414271D01*
X70617462Y-32398365D01*
X70604674Y-32381122D01*
X70593638Y-32362709D01*
X70584459Y-32343303D01*
X70577227Y-32323091D01*
X70572011Y-32302267D01*
X70568861Y-32281032D01*
X70567808Y-32259591D01*
X70568861Y-32238150D01*
X70572011Y-32216915D01*
X70577227Y-32196091D01*
X70584459Y-32175879D01*
X70593638Y-32156473D01*
X70604674Y-32138060D01*
X70617462Y-32120817D01*
X70631878Y-32104911D01*
X70994271Y-31742518D01*
X71010177Y-31728102D01*
X71027420Y-31715314D01*
X71045833Y-31704278D01*
X71065239Y-31695099D01*
X71085451Y-31687867D01*
X71106275Y-31682651D01*
X71127510Y-31679501D01*
X71148951Y-31678448D01*
X71170392Y-31679501D01*
X71170392Y-31679501D01*
G37*
D12*
X71122434Y-32233074D03*
D11*
G36*
X72060251Y-39773004D02*
G01*
X72066318Y-39773904D01*
X72072268Y-39775394D01*
X72078043Y-39777461D01*
X72083587Y-39780083D01*
X72088848Y-39783236D01*
X72093775Y-39786890D01*
X72098319Y-39791009D01*
X72186707Y-39879397D01*
X72190826Y-39883941D01*
X72194480Y-39888868D01*
X72197633Y-39894129D01*
X72200255Y-39899673D01*
X72202322Y-39905448D01*
X72203812Y-39911398D01*
X72204712Y-39917465D01*
X72205013Y-39923591D01*
X72204712Y-39929717D01*
X72203812Y-39935784D01*
X72202322Y-39941734D01*
X72200255Y-39947509D01*
X72197633Y-39953053D01*
X72194480Y-39958314D01*
X72190826Y-39963241D01*
X72186707Y-39967785D01*
X71727087Y-40427405D01*
X71722543Y-40431524D01*
X71717616Y-40435178D01*
X71712355Y-40438331D01*
X71706811Y-40440953D01*
X71701036Y-40443020D01*
X71695086Y-40444510D01*
X71689019Y-40445410D01*
X71682893Y-40445711D01*
X71676767Y-40445410D01*
X71670700Y-40444510D01*
X71664750Y-40443020D01*
X71658975Y-40440953D01*
X71653431Y-40438331D01*
X71648170Y-40435178D01*
X71643243Y-40431524D01*
X71638699Y-40427405D01*
X71550311Y-40339017D01*
X71546192Y-40334473D01*
X71542538Y-40329546D01*
X71539385Y-40324285D01*
X71536763Y-40318741D01*
X71534696Y-40312966D01*
X71533206Y-40307016D01*
X71532306Y-40300949D01*
X71532005Y-40294823D01*
X71532306Y-40288697D01*
X71533206Y-40282630D01*
X71534696Y-40276680D01*
X71536763Y-40270905D01*
X71539385Y-40265361D01*
X71542538Y-40260100D01*
X71546192Y-40255173D01*
X71550311Y-40250629D01*
X72009931Y-39791009D01*
X72014475Y-39786890D01*
X72019402Y-39783236D01*
X72024663Y-39780083D01*
X72030207Y-39777461D01*
X72035982Y-39775394D01*
X72041932Y-39773904D01*
X72047999Y-39773004D01*
X72054125Y-39772703D01*
X72060251Y-39773004D01*
X72060251Y-39773004D01*
G37*
D13*
X71868509Y-40109207D03*
D11*
G36*
X71706697Y-39419451D02*
G01*
X71712764Y-39420351D01*
X71718714Y-39421841D01*
X71724489Y-39423908D01*
X71730033Y-39426530D01*
X71735294Y-39429683D01*
X71740221Y-39433337D01*
X71744765Y-39437456D01*
X71833153Y-39525844D01*
X71837272Y-39530388D01*
X71840926Y-39535315D01*
X71844079Y-39540576D01*
X71846701Y-39546120D01*
X71848768Y-39551895D01*
X71850258Y-39557845D01*
X71851158Y-39563912D01*
X71851459Y-39570038D01*
X71851158Y-39576164D01*
X71850258Y-39582231D01*
X71848768Y-39588181D01*
X71846701Y-39593956D01*
X71844079Y-39599500D01*
X71840926Y-39604761D01*
X71837272Y-39609688D01*
X71833153Y-39614232D01*
X71373533Y-40073852D01*
X71368989Y-40077971D01*
X71364062Y-40081625D01*
X71358801Y-40084778D01*
X71353257Y-40087400D01*
X71347482Y-40089467D01*
X71341532Y-40090957D01*
X71335465Y-40091857D01*
X71329339Y-40092158D01*
X71323213Y-40091857D01*
X71317146Y-40090957D01*
X71311196Y-40089467D01*
X71305421Y-40087400D01*
X71299877Y-40084778D01*
X71294616Y-40081625D01*
X71289689Y-40077971D01*
X71285145Y-40073852D01*
X71196757Y-39985464D01*
X71192638Y-39980920D01*
X71188984Y-39975993D01*
X71185831Y-39970732D01*
X71183209Y-39965188D01*
X71181142Y-39959413D01*
X71179652Y-39953463D01*
X71178752Y-39947396D01*
X71178451Y-39941270D01*
X71178752Y-39935144D01*
X71179652Y-39929077D01*
X71181142Y-39923127D01*
X71183209Y-39917352D01*
X71185831Y-39911808D01*
X71188984Y-39906547D01*
X71192638Y-39901620D01*
X71196757Y-39897076D01*
X71656377Y-39437456D01*
X71660921Y-39433337D01*
X71665848Y-39429683D01*
X71671109Y-39426530D01*
X71676653Y-39423908D01*
X71682428Y-39421841D01*
X71688378Y-39420351D01*
X71694445Y-39419451D01*
X71700571Y-39419150D01*
X71706697Y-39419451D01*
X71706697Y-39419451D01*
G37*
D13*
X71514955Y-39755654D03*
D11*
G36*
X71353144Y-39065897D02*
G01*
X71359211Y-39066797D01*
X71365161Y-39068287D01*
X71370936Y-39070354D01*
X71376480Y-39072976D01*
X71381741Y-39076129D01*
X71386668Y-39079783D01*
X71391212Y-39083902D01*
X71479600Y-39172290D01*
X71483719Y-39176834D01*
X71487373Y-39181761D01*
X71490526Y-39187022D01*
X71493148Y-39192566D01*
X71495215Y-39198341D01*
X71496705Y-39204291D01*
X71497605Y-39210358D01*
X71497906Y-39216484D01*
X71497605Y-39222610D01*
X71496705Y-39228677D01*
X71495215Y-39234627D01*
X71493148Y-39240402D01*
X71490526Y-39245946D01*
X71487373Y-39251207D01*
X71483719Y-39256134D01*
X71479600Y-39260678D01*
X71019980Y-39720298D01*
X71015436Y-39724417D01*
X71010509Y-39728071D01*
X71005248Y-39731224D01*
X70999704Y-39733846D01*
X70993929Y-39735913D01*
X70987979Y-39737403D01*
X70981912Y-39738303D01*
X70975786Y-39738604D01*
X70969660Y-39738303D01*
X70963593Y-39737403D01*
X70957643Y-39735913D01*
X70951868Y-39733846D01*
X70946324Y-39731224D01*
X70941063Y-39728071D01*
X70936136Y-39724417D01*
X70931592Y-39720298D01*
X70843204Y-39631910D01*
X70839085Y-39627366D01*
X70835431Y-39622439D01*
X70832278Y-39617178D01*
X70829656Y-39611634D01*
X70827589Y-39605859D01*
X70826099Y-39599909D01*
X70825199Y-39593842D01*
X70824898Y-39587716D01*
X70825199Y-39581590D01*
X70826099Y-39575523D01*
X70827589Y-39569573D01*
X70829656Y-39563798D01*
X70832278Y-39558254D01*
X70835431Y-39552993D01*
X70839085Y-39548066D01*
X70843204Y-39543522D01*
X71302824Y-39083902D01*
X71307368Y-39079783D01*
X71312295Y-39076129D01*
X71317556Y-39072976D01*
X71323100Y-39070354D01*
X71328875Y-39068287D01*
X71334825Y-39066797D01*
X71340892Y-39065897D01*
X71347018Y-39065596D01*
X71353144Y-39065897D01*
X71353144Y-39065897D01*
G37*
D13*
X71161402Y-39402100D03*
D11*
G36*
X70999591Y-38712344D02*
G01*
X71005658Y-38713244D01*
X71011608Y-38714734D01*
X71017383Y-38716801D01*
X71022927Y-38719423D01*
X71028188Y-38722576D01*
X71033115Y-38726230D01*
X71037659Y-38730349D01*
X71126047Y-38818737D01*
X71130166Y-38823281D01*
X71133820Y-38828208D01*
X71136973Y-38833469D01*
X71139595Y-38839013D01*
X71141662Y-38844788D01*
X71143152Y-38850738D01*
X71144052Y-38856805D01*
X71144353Y-38862931D01*
X71144052Y-38869057D01*
X71143152Y-38875124D01*
X71141662Y-38881074D01*
X71139595Y-38886849D01*
X71136973Y-38892393D01*
X71133820Y-38897654D01*
X71130166Y-38902581D01*
X71126047Y-38907125D01*
X70666427Y-39366745D01*
X70661883Y-39370864D01*
X70656956Y-39374518D01*
X70651695Y-39377671D01*
X70646151Y-39380293D01*
X70640376Y-39382360D01*
X70634426Y-39383850D01*
X70628359Y-39384750D01*
X70622233Y-39385051D01*
X70616107Y-39384750D01*
X70610040Y-39383850D01*
X70604090Y-39382360D01*
X70598315Y-39380293D01*
X70592771Y-39377671D01*
X70587510Y-39374518D01*
X70582583Y-39370864D01*
X70578039Y-39366745D01*
X70489651Y-39278357D01*
X70485532Y-39273813D01*
X70481878Y-39268886D01*
X70478725Y-39263625D01*
X70476103Y-39258081D01*
X70474036Y-39252306D01*
X70472546Y-39246356D01*
X70471646Y-39240289D01*
X70471345Y-39234163D01*
X70471646Y-39228037D01*
X70472546Y-39221970D01*
X70474036Y-39216020D01*
X70476103Y-39210245D01*
X70478725Y-39204701D01*
X70481878Y-39199440D01*
X70485532Y-39194513D01*
X70489651Y-39189969D01*
X70949271Y-38730349D01*
X70953815Y-38726230D01*
X70958742Y-38722576D01*
X70964003Y-38719423D01*
X70969547Y-38716801D01*
X70975322Y-38714734D01*
X70981272Y-38713244D01*
X70987339Y-38712344D01*
X70993465Y-38712043D01*
X70999591Y-38712344D01*
X70999591Y-38712344D01*
G37*
D13*
X70807849Y-39048547D03*
D11*
G36*
X70646037Y-38358791D02*
G01*
X70652104Y-38359691D01*
X70658054Y-38361181D01*
X70663829Y-38363248D01*
X70669373Y-38365870D01*
X70674634Y-38369023D01*
X70679561Y-38372677D01*
X70684105Y-38376796D01*
X70772493Y-38465184D01*
X70776612Y-38469728D01*
X70780266Y-38474655D01*
X70783419Y-38479916D01*
X70786041Y-38485460D01*
X70788108Y-38491235D01*
X70789598Y-38497185D01*
X70790498Y-38503252D01*
X70790799Y-38509378D01*
X70790498Y-38515504D01*
X70789598Y-38521571D01*
X70788108Y-38527521D01*
X70786041Y-38533296D01*
X70783419Y-38538840D01*
X70780266Y-38544101D01*
X70776612Y-38549028D01*
X70772493Y-38553572D01*
X70312873Y-39013192D01*
X70308329Y-39017311D01*
X70303402Y-39020965D01*
X70298141Y-39024118D01*
X70292597Y-39026740D01*
X70286822Y-39028807D01*
X70280872Y-39030297D01*
X70274805Y-39031197D01*
X70268679Y-39031498D01*
X70262553Y-39031197D01*
X70256486Y-39030297D01*
X70250536Y-39028807D01*
X70244761Y-39026740D01*
X70239217Y-39024118D01*
X70233956Y-39020965D01*
X70229029Y-39017311D01*
X70224485Y-39013192D01*
X70136097Y-38924804D01*
X70131978Y-38920260D01*
X70128324Y-38915333D01*
X70125171Y-38910072D01*
X70122549Y-38904528D01*
X70120482Y-38898753D01*
X70118992Y-38892803D01*
X70118092Y-38886736D01*
X70117791Y-38880610D01*
X70118092Y-38874484D01*
X70118992Y-38868417D01*
X70120482Y-38862467D01*
X70122549Y-38856692D01*
X70125171Y-38851148D01*
X70128324Y-38845887D01*
X70131978Y-38840960D01*
X70136097Y-38836416D01*
X70595717Y-38376796D01*
X70600261Y-38372677D01*
X70605188Y-38369023D01*
X70610449Y-38365870D01*
X70615993Y-38363248D01*
X70621768Y-38361181D01*
X70627718Y-38359691D01*
X70633785Y-38358791D01*
X70639911Y-38358490D01*
X70646037Y-38358791D01*
X70646037Y-38358791D01*
G37*
D13*
X70454295Y-38694994D03*
D11*
G36*
X70292484Y-38005237D02*
G01*
X70298551Y-38006137D01*
X70304501Y-38007627D01*
X70310276Y-38009694D01*
X70315820Y-38012316D01*
X70321081Y-38015469D01*
X70326008Y-38019123D01*
X70330552Y-38023242D01*
X70418940Y-38111630D01*
X70423059Y-38116174D01*
X70426713Y-38121101D01*
X70429866Y-38126362D01*
X70432488Y-38131906D01*
X70434555Y-38137681D01*
X70436045Y-38143631D01*
X70436945Y-38149698D01*
X70437246Y-38155824D01*
X70436945Y-38161950D01*
X70436045Y-38168017D01*
X70434555Y-38173967D01*
X70432488Y-38179742D01*
X70429866Y-38185286D01*
X70426713Y-38190547D01*
X70423059Y-38195474D01*
X70418940Y-38200018D01*
X69959320Y-38659638D01*
X69954776Y-38663757D01*
X69949849Y-38667411D01*
X69944588Y-38670564D01*
X69939044Y-38673186D01*
X69933269Y-38675253D01*
X69927319Y-38676743D01*
X69921252Y-38677643D01*
X69915126Y-38677944D01*
X69909000Y-38677643D01*
X69902933Y-38676743D01*
X69896983Y-38675253D01*
X69891208Y-38673186D01*
X69885664Y-38670564D01*
X69880403Y-38667411D01*
X69875476Y-38663757D01*
X69870932Y-38659638D01*
X69782544Y-38571250D01*
X69778425Y-38566706D01*
X69774771Y-38561779D01*
X69771618Y-38556518D01*
X69768996Y-38550974D01*
X69766929Y-38545199D01*
X69765439Y-38539249D01*
X69764539Y-38533182D01*
X69764238Y-38527056D01*
X69764539Y-38520930D01*
X69765439Y-38514863D01*
X69766929Y-38508913D01*
X69768996Y-38503138D01*
X69771618Y-38497594D01*
X69774771Y-38492333D01*
X69778425Y-38487406D01*
X69782544Y-38482862D01*
X70242164Y-38023242D01*
X70246708Y-38019123D01*
X70251635Y-38015469D01*
X70256896Y-38012316D01*
X70262440Y-38009694D01*
X70268215Y-38007627D01*
X70274165Y-38006137D01*
X70280232Y-38005237D01*
X70286358Y-38004936D01*
X70292484Y-38005237D01*
X70292484Y-38005237D01*
G37*
D13*
X70100742Y-38341440D03*
D11*
G36*
X69921252Y-36962255D02*
G01*
X69927319Y-36963155D01*
X69933269Y-36964645D01*
X69939044Y-36966712D01*
X69944588Y-36969334D01*
X69949849Y-36972487D01*
X69954776Y-36976141D01*
X69959320Y-36980260D01*
X70418940Y-37439880D01*
X70423059Y-37444424D01*
X70426713Y-37449351D01*
X70429866Y-37454612D01*
X70432488Y-37460156D01*
X70434555Y-37465931D01*
X70436045Y-37471881D01*
X70436945Y-37477948D01*
X70437246Y-37484074D01*
X70436945Y-37490200D01*
X70436045Y-37496267D01*
X70434555Y-37502217D01*
X70432488Y-37507992D01*
X70429866Y-37513536D01*
X70426713Y-37518797D01*
X70423059Y-37523724D01*
X70418940Y-37528268D01*
X70330552Y-37616656D01*
X70326008Y-37620775D01*
X70321081Y-37624429D01*
X70315820Y-37627582D01*
X70310276Y-37630204D01*
X70304501Y-37632271D01*
X70298551Y-37633761D01*
X70292484Y-37634661D01*
X70286358Y-37634962D01*
X70280232Y-37634661D01*
X70274165Y-37633761D01*
X70268215Y-37632271D01*
X70262440Y-37630204D01*
X70256896Y-37627582D01*
X70251635Y-37624429D01*
X70246708Y-37620775D01*
X70242164Y-37616656D01*
X69782544Y-37157036D01*
X69778425Y-37152492D01*
X69774771Y-37147565D01*
X69771618Y-37142304D01*
X69768996Y-37136760D01*
X69766929Y-37130985D01*
X69765439Y-37125035D01*
X69764539Y-37118968D01*
X69764238Y-37112842D01*
X69764539Y-37106716D01*
X69765439Y-37100649D01*
X69766929Y-37094699D01*
X69768996Y-37088924D01*
X69771618Y-37083380D01*
X69774771Y-37078119D01*
X69778425Y-37073192D01*
X69782544Y-37068648D01*
X69870932Y-36980260D01*
X69875476Y-36976141D01*
X69880403Y-36972487D01*
X69885664Y-36969334D01*
X69891208Y-36966712D01*
X69896983Y-36964645D01*
X69902933Y-36963155D01*
X69909000Y-36962255D01*
X69915126Y-36961954D01*
X69921252Y-36962255D01*
X69921252Y-36962255D01*
G37*
D13*
X70100742Y-37298458D03*
D11*
G36*
X70274805Y-36608701D02*
G01*
X70280872Y-36609601D01*
X70286822Y-36611091D01*
X70292597Y-36613158D01*
X70298141Y-36615780D01*
X70303402Y-36618933D01*
X70308329Y-36622587D01*
X70312873Y-36626706D01*
X70772493Y-37086326D01*
X70776612Y-37090870D01*
X70780266Y-37095797D01*
X70783419Y-37101058D01*
X70786041Y-37106602D01*
X70788108Y-37112377D01*
X70789598Y-37118327D01*
X70790498Y-37124394D01*
X70790799Y-37130520D01*
X70790498Y-37136646D01*
X70789598Y-37142713D01*
X70788108Y-37148663D01*
X70786041Y-37154438D01*
X70783419Y-37159982D01*
X70780266Y-37165243D01*
X70776612Y-37170170D01*
X70772493Y-37174714D01*
X70684105Y-37263102D01*
X70679561Y-37267221D01*
X70674634Y-37270875D01*
X70669373Y-37274028D01*
X70663829Y-37276650D01*
X70658054Y-37278717D01*
X70652104Y-37280207D01*
X70646037Y-37281107D01*
X70639911Y-37281408D01*
X70633785Y-37281107D01*
X70627718Y-37280207D01*
X70621768Y-37278717D01*
X70615993Y-37276650D01*
X70610449Y-37274028D01*
X70605188Y-37270875D01*
X70600261Y-37267221D01*
X70595717Y-37263102D01*
X70136097Y-36803482D01*
X70131978Y-36798938D01*
X70128324Y-36794011D01*
X70125171Y-36788750D01*
X70122549Y-36783206D01*
X70120482Y-36777431D01*
X70118992Y-36771481D01*
X70118092Y-36765414D01*
X70117791Y-36759288D01*
X70118092Y-36753162D01*
X70118992Y-36747095D01*
X70120482Y-36741145D01*
X70122549Y-36735370D01*
X70125171Y-36729826D01*
X70128324Y-36724565D01*
X70131978Y-36719638D01*
X70136097Y-36715094D01*
X70224485Y-36626706D01*
X70229029Y-36622587D01*
X70233956Y-36618933D01*
X70239217Y-36615780D01*
X70244761Y-36613158D01*
X70250536Y-36611091D01*
X70256486Y-36609601D01*
X70262553Y-36608701D01*
X70268679Y-36608400D01*
X70274805Y-36608701D01*
X70274805Y-36608701D01*
G37*
D13*
X70454295Y-36944904D03*
D11*
G36*
X70628359Y-36255148D02*
G01*
X70634426Y-36256048D01*
X70640376Y-36257538D01*
X70646151Y-36259605D01*
X70651695Y-36262227D01*
X70656956Y-36265380D01*
X70661883Y-36269034D01*
X70666427Y-36273153D01*
X71126047Y-36732773D01*
X71130166Y-36737317D01*
X71133820Y-36742244D01*
X71136973Y-36747505D01*
X71139595Y-36753049D01*
X71141662Y-36758824D01*
X71143152Y-36764774D01*
X71144052Y-36770841D01*
X71144353Y-36776967D01*
X71144052Y-36783093D01*
X71143152Y-36789160D01*
X71141662Y-36795110D01*
X71139595Y-36800885D01*
X71136973Y-36806429D01*
X71133820Y-36811690D01*
X71130166Y-36816617D01*
X71126047Y-36821161D01*
X71037659Y-36909549D01*
X71033115Y-36913668D01*
X71028188Y-36917322D01*
X71022927Y-36920475D01*
X71017383Y-36923097D01*
X71011608Y-36925164D01*
X71005658Y-36926654D01*
X70999591Y-36927554D01*
X70993465Y-36927855D01*
X70987339Y-36927554D01*
X70981272Y-36926654D01*
X70975322Y-36925164D01*
X70969547Y-36923097D01*
X70964003Y-36920475D01*
X70958742Y-36917322D01*
X70953815Y-36913668D01*
X70949271Y-36909549D01*
X70489651Y-36449929D01*
X70485532Y-36445385D01*
X70481878Y-36440458D01*
X70478725Y-36435197D01*
X70476103Y-36429653D01*
X70474036Y-36423878D01*
X70472546Y-36417928D01*
X70471646Y-36411861D01*
X70471345Y-36405735D01*
X70471646Y-36399609D01*
X70472546Y-36393542D01*
X70474036Y-36387592D01*
X70476103Y-36381817D01*
X70478725Y-36376273D01*
X70481878Y-36371012D01*
X70485532Y-36366085D01*
X70489651Y-36361541D01*
X70578039Y-36273153D01*
X70582583Y-36269034D01*
X70587510Y-36265380D01*
X70592771Y-36262227D01*
X70598315Y-36259605D01*
X70604090Y-36257538D01*
X70610040Y-36256048D01*
X70616107Y-36255148D01*
X70622233Y-36254847D01*
X70628359Y-36255148D01*
X70628359Y-36255148D01*
G37*
D13*
X70807849Y-36591351D03*
D11*
G36*
X70981912Y-35901595D02*
G01*
X70987979Y-35902495D01*
X70993929Y-35903985D01*
X70999704Y-35906052D01*
X71005248Y-35908674D01*
X71010509Y-35911827D01*
X71015436Y-35915481D01*
X71019980Y-35919600D01*
X71479600Y-36379220D01*
X71483719Y-36383764D01*
X71487373Y-36388691D01*
X71490526Y-36393952D01*
X71493148Y-36399496D01*
X71495215Y-36405271D01*
X71496705Y-36411221D01*
X71497605Y-36417288D01*
X71497906Y-36423414D01*
X71497605Y-36429540D01*
X71496705Y-36435607D01*
X71495215Y-36441557D01*
X71493148Y-36447332D01*
X71490526Y-36452876D01*
X71487373Y-36458137D01*
X71483719Y-36463064D01*
X71479600Y-36467608D01*
X71391212Y-36555996D01*
X71386668Y-36560115D01*
X71381741Y-36563769D01*
X71376480Y-36566922D01*
X71370936Y-36569544D01*
X71365161Y-36571611D01*
X71359211Y-36573101D01*
X71353144Y-36574001D01*
X71347018Y-36574302D01*
X71340892Y-36574001D01*
X71334825Y-36573101D01*
X71328875Y-36571611D01*
X71323100Y-36569544D01*
X71317556Y-36566922D01*
X71312295Y-36563769D01*
X71307368Y-36560115D01*
X71302824Y-36555996D01*
X70843204Y-36096376D01*
X70839085Y-36091832D01*
X70835431Y-36086905D01*
X70832278Y-36081644D01*
X70829656Y-36076100D01*
X70827589Y-36070325D01*
X70826099Y-36064375D01*
X70825199Y-36058308D01*
X70824898Y-36052182D01*
X70825199Y-36046056D01*
X70826099Y-36039989D01*
X70827589Y-36034039D01*
X70829656Y-36028264D01*
X70832278Y-36022720D01*
X70835431Y-36017459D01*
X70839085Y-36012532D01*
X70843204Y-36007988D01*
X70931592Y-35919600D01*
X70936136Y-35915481D01*
X70941063Y-35911827D01*
X70946324Y-35908674D01*
X70951868Y-35906052D01*
X70957643Y-35903985D01*
X70963593Y-35902495D01*
X70969660Y-35901595D01*
X70975786Y-35901294D01*
X70981912Y-35901595D01*
X70981912Y-35901595D01*
G37*
D13*
X71161402Y-36237798D03*
D11*
G36*
X71335465Y-35548041D02*
G01*
X71341532Y-35548941D01*
X71347482Y-35550431D01*
X71353257Y-35552498D01*
X71358801Y-35555120D01*
X71364062Y-35558273D01*
X71368989Y-35561927D01*
X71373533Y-35566046D01*
X71833153Y-36025666D01*
X71837272Y-36030210D01*
X71840926Y-36035137D01*
X71844079Y-36040398D01*
X71846701Y-36045942D01*
X71848768Y-36051717D01*
X71850258Y-36057667D01*
X71851158Y-36063734D01*
X71851459Y-36069860D01*
X71851158Y-36075986D01*
X71850258Y-36082053D01*
X71848768Y-36088003D01*
X71846701Y-36093778D01*
X71844079Y-36099322D01*
X71840926Y-36104583D01*
X71837272Y-36109510D01*
X71833153Y-36114054D01*
X71744765Y-36202442D01*
X71740221Y-36206561D01*
X71735294Y-36210215D01*
X71730033Y-36213368D01*
X71724489Y-36215990D01*
X71718714Y-36218057D01*
X71712764Y-36219547D01*
X71706697Y-36220447D01*
X71700571Y-36220748D01*
X71694445Y-36220447D01*
X71688378Y-36219547D01*
X71682428Y-36218057D01*
X71676653Y-36215990D01*
X71671109Y-36213368D01*
X71665848Y-36210215D01*
X71660921Y-36206561D01*
X71656377Y-36202442D01*
X71196757Y-35742822D01*
X71192638Y-35738278D01*
X71188984Y-35733351D01*
X71185831Y-35728090D01*
X71183209Y-35722546D01*
X71181142Y-35716771D01*
X71179652Y-35710821D01*
X71178752Y-35704754D01*
X71178451Y-35698628D01*
X71178752Y-35692502D01*
X71179652Y-35686435D01*
X71181142Y-35680485D01*
X71183209Y-35674710D01*
X71185831Y-35669166D01*
X71188984Y-35663905D01*
X71192638Y-35658978D01*
X71196757Y-35654434D01*
X71285145Y-35566046D01*
X71289689Y-35561927D01*
X71294616Y-35558273D01*
X71299877Y-35555120D01*
X71305421Y-35552498D01*
X71311196Y-35550431D01*
X71317146Y-35548941D01*
X71323213Y-35548041D01*
X71329339Y-35547740D01*
X71335465Y-35548041D01*
X71335465Y-35548041D01*
G37*
D13*
X71514955Y-35884244D03*
D11*
G36*
X71689019Y-35194488D02*
G01*
X71695086Y-35195388D01*
X71701036Y-35196878D01*
X71706811Y-35198945D01*
X71712355Y-35201567D01*
X71717616Y-35204720D01*
X71722543Y-35208374D01*
X71727087Y-35212493D01*
X72186707Y-35672113D01*
X72190826Y-35676657D01*
X72194480Y-35681584D01*
X72197633Y-35686845D01*
X72200255Y-35692389D01*
X72202322Y-35698164D01*
X72203812Y-35704114D01*
X72204712Y-35710181D01*
X72205013Y-35716307D01*
X72204712Y-35722433D01*
X72203812Y-35728500D01*
X72202322Y-35734450D01*
X72200255Y-35740225D01*
X72197633Y-35745769D01*
X72194480Y-35751030D01*
X72190826Y-35755957D01*
X72186707Y-35760501D01*
X72098319Y-35848889D01*
X72093775Y-35853008D01*
X72088848Y-35856662D01*
X72083587Y-35859815D01*
X72078043Y-35862437D01*
X72072268Y-35864504D01*
X72066318Y-35865994D01*
X72060251Y-35866894D01*
X72054125Y-35867195D01*
X72047999Y-35866894D01*
X72041932Y-35865994D01*
X72035982Y-35864504D01*
X72030207Y-35862437D01*
X72024663Y-35859815D01*
X72019402Y-35856662D01*
X72014475Y-35853008D01*
X72009931Y-35848889D01*
X71550311Y-35389269D01*
X71546192Y-35384725D01*
X71542538Y-35379798D01*
X71539385Y-35374537D01*
X71536763Y-35368993D01*
X71534696Y-35363218D01*
X71533206Y-35357268D01*
X71532306Y-35351201D01*
X71532005Y-35345075D01*
X71532306Y-35338949D01*
X71533206Y-35332882D01*
X71534696Y-35326932D01*
X71536763Y-35321157D01*
X71539385Y-35315613D01*
X71542538Y-35310352D01*
X71546192Y-35305425D01*
X71550311Y-35300881D01*
X71638699Y-35212493D01*
X71643243Y-35208374D01*
X71648170Y-35204720D01*
X71653431Y-35201567D01*
X71658975Y-35198945D01*
X71664750Y-35196878D01*
X71670700Y-35195388D01*
X71676767Y-35194488D01*
X71682893Y-35194187D01*
X71689019Y-35194488D01*
X71689019Y-35194488D01*
G37*
D13*
X71868509Y-35530691D03*
D11*
G36*
X73103233Y-35194488D02*
G01*
X73109300Y-35195388D01*
X73115250Y-35196878D01*
X73121025Y-35198945D01*
X73126569Y-35201567D01*
X73131830Y-35204720D01*
X73136757Y-35208374D01*
X73141301Y-35212493D01*
X73229689Y-35300881D01*
X73233808Y-35305425D01*
X73237462Y-35310352D01*
X73240615Y-35315613D01*
X73243237Y-35321157D01*
X73245304Y-35326932D01*
X73246794Y-35332882D01*
X73247694Y-35338949D01*
X73247995Y-35345075D01*
X73247694Y-35351201D01*
X73246794Y-35357268D01*
X73245304Y-35363218D01*
X73243237Y-35368993D01*
X73240615Y-35374537D01*
X73237462Y-35379798D01*
X73233808Y-35384725D01*
X73229689Y-35389269D01*
X72770069Y-35848889D01*
X72765525Y-35853008D01*
X72760598Y-35856662D01*
X72755337Y-35859815D01*
X72749793Y-35862437D01*
X72744018Y-35864504D01*
X72738068Y-35865994D01*
X72732001Y-35866894D01*
X72725875Y-35867195D01*
X72719749Y-35866894D01*
X72713682Y-35865994D01*
X72707732Y-35864504D01*
X72701957Y-35862437D01*
X72696413Y-35859815D01*
X72691152Y-35856662D01*
X72686225Y-35853008D01*
X72681681Y-35848889D01*
X72593293Y-35760501D01*
X72589174Y-35755957D01*
X72585520Y-35751030D01*
X72582367Y-35745769D01*
X72579745Y-35740225D01*
X72577678Y-35734450D01*
X72576188Y-35728500D01*
X72575288Y-35722433D01*
X72574987Y-35716307D01*
X72575288Y-35710181D01*
X72576188Y-35704114D01*
X72577678Y-35698164D01*
X72579745Y-35692389D01*
X72582367Y-35686845D01*
X72585520Y-35681584D01*
X72589174Y-35676657D01*
X72593293Y-35672113D01*
X73052913Y-35212493D01*
X73057457Y-35208374D01*
X73062384Y-35204720D01*
X73067645Y-35201567D01*
X73073189Y-35198945D01*
X73078964Y-35196878D01*
X73084914Y-35195388D01*
X73090981Y-35194488D01*
X73097107Y-35194187D01*
X73103233Y-35194488D01*
X73103233Y-35194488D01*
G37*
D13*
X72911491Y-35530691D03*
D11*
G36*
X73456787Y-35548041D02*
G01*
X73462854Y-35548941D01*
X73468804Y-35550431D01*
X73474579Y-35552498D01*
X73480123Y-35555120D01*
X73485384Y-35558273D01*
X73490311Y-35561927D01*
X73494855Y-35566046D01*
X73583243Y-35654434D01*
X73587362Y-35658978D01*
X73591016Y-35663905D01*
X73594169Y-35669166D01*
X73596791Y-35674710D01*
X73598858Y-35680485D01*
X73600348Y-35686435D01*
X73601248Y-35692502D01*
X73601549Y-35698628D01*
X73601248Y-35704754D01*
X73600348Y-35710821D01*
X73598858Y-35716771D01*
X73596791Y-35722546D01*
X73594169Y-35728090D01*
X73591016Y-35733351D01*
X73587362Y-35738278D01*
X73583243Y-35742822D01*
X73123623Y-36202442D01*
X73119079Y-36206561D01*
X73114152Y-36210215D01*
X73108891Y-36213368D01*
X73103347Y-36215990D01*
X73097572Y-36218057D01*
X73091622Y-36219547D01*
X73085555Y-36220447D01*
X73079429Y-36220748D01*
X73073303Y-36220447D01*
X73067236Y-36219547D01*
X73061286Y-36218057D01*
X73055511Y-36215990D01*
X73049967Y-36213368D01*
X73044706Y-36210215D01*
X73039779Y-36206561D01*
X73035235Y-36202442D01*
X72946847Y-36114054D01*
X72942728Y-36109510D01*
X72939074Y-36104583D01*
X72935921Y-36099322D01*
X72933299Y-36093778D01*
X72931232Y-36088003D01*
X72929742Y-36082053D01*
X72928842Y-36075986D01*
X72928541Y-36069860D01*
X72928842Y-36063734D01*
X72929742Y-36057667D01*
X72931232Y-36051717D01*
X72933299Y-36045942D01*
X72935921Y-36040398D01*
X72939074Y-36035137D01*
X72942728Y-36030210D01*
X72946847Y-36025666D01*
X73406467Y-35566046D01*
X73411011Y-35561927D01*
X73415938Y-35558273D01*
X73421199Y-35555120D01*
X73426743Y-35552498D01*
X73432518Y-35550431D01*
X73438468Y-35548941D01*
X73444535Y-35548041D01*
X73450661Y-35547740D01*
X73456787Y-35548041D01*
X73456787Y-35548041D01*
G37*
D13*
X73265045Y-35884244D03*
D11*
G36*
X73810340Y-35901595D02*
G01*
X73816407Y-35902495D01*
X73822357Y-35903985D01*
X73828132Y-35906052D01*
X73833676Y-35908674D01*
X73838937Y-35911827D01*
X73843864Y-35915481D01*
X73848408Y-35919600D01*
X73936796Y-36007988D01*
X73940915Y-36012532D01*
X73944569Y-36017459D01*
X73947722Y-36022720D01*
X73950344Y-36028264D01*
X73952411Y-36034039D01*
X73953901Y-36039989D01*
X73954801Y-36046056D01*
X73955102Y-36052182D01*
X73954801Y-36058308D01*
X73953901Y-36064375D01*
X73952411Y-36070325D01*
X73950344Y-36076100D01*
X73947722Y-36081644D01*
X73944569Y-36086905D01*
X73940915Y-36091832D01*
X73936796Y-36096376D01*
X73477176Y-36555996D01*
X73472632Y-36560115D01*
X73467705Y-36563769D01*
X73462444Y-36566922D01*
X73456900Y-36569544D01*
X73451125Y-36571611D01*
X73445175Y-36573101D01*
X73439108Y-36574001D01*
X73432982Y-36574302D01*
X73426856Y-36574001D01*
X73420789Y-36573101D01*
X73414839Y-36571611D01*
X73409064Y-36569544D01*
X73403520Y-36566922D01*
X73398259Y-36563769D01*
X73393332Y-36560115D01*
X73388788Y-36555996D01*
X73300400Y-36467608D01*
X73296281Y-36463064D01*
X73292627Y-36458137D01*
X73289474Y-36452876D01*
X73286852Y-36447332D01*
X73284785Y-36441557D01*
X73283295Y-36435607D01*
X73282395Y-36429540D01*
X73282094Y-36423414D01*
X73282395Y-36417288D01*
X73283295Y-36411221D01*
X73284785Y-36405271D01*
X73286852Y-36399496D01*
X73289474Y-36393952D01*
X73292627Y-36388691D01*
X73296281Y-36383764D01*
X73300400Y-36379220D01*
X73760020Y-35919600D01*
X73764564Y-35915481D01*
X73769491Y-35911827D01*
X73774752Y-35908674D01*
X73780296Y-35906052D01*
X73786071Y-35903985D01*
X73792021Y-35902495D01*
X73798088Y-35901595D01*
X73804214Y-35901294D01*
X73810340Y-35901595D01*
X73810340Y-35901595D01*
G37*
D13*
X73618598Y-36237798D03*
D11*
G36*
X74163893Y-36255148D02*
G01*
X74169960Y-36256048D01*
X74175910Y-36257538D01*
X74181685Y-36259605D01*
X74187229Y-36262227D01*
X74192490Y-36265380D01*
X74197417Y-36269034D01*
X74201961Y-36273153D01*
X74290349Y-36361541D01*
X74294468Y-36366085D01*
X74298122Y-36371012D01*
X74301275Y-36376273D01*
X74303897Y-36381817D01*
X74305964Y-36387592D01*
X74307454Y-36393542D01*
X74308354Y-36399609D01*
X74308655Y-36405735D01*
X74308354Y-36411861D01*
X74307454Y-36417928D01*
X74305964Y-36423878D01*
X74303897Y-36429653D01*
X74301275Y-36435197D01*
X74298122Y-36440458D01*
X74294468Y-36445385D01*
X74290349Y-36449929D01*
X73830729Y-36909549D01*
X73826185Y-36913668D01*
X73821258Y-36917322D01*
X73815997Y-36920475D01*
X73810453Y-36923097D01*
X73804678Y-36925164D01*
X73798728Y-36926654D01*
X73792661Y-36927554D01*
X73786535Y-36927855D01*
X73780409Y-36927554D01*
X73774342Y-36926654D01*
X73768392Y-36925164D01*
X73762617Y-36923097D01*
X73757073Y-36920475D01*
X73751812Y-36917322D01*
X73746885Y-36913668D01*
X73742341Y-36909549D01*
X73653953Y-36821161D01*
X73649834Y-36816617D01*
X73646180Y-36811690D01*
X73643027Y-36806429D01*
X73640405Y-36800885D01*
X73638338Y-36795110D01*
X73636848Y-36789160D01*
X73635948Y-36783093D01*
X73635647Y-36776967D01*
X73635948Y-36770841D01*
X73636848Y-36764774D01*
X73638338Y-36758824D01*
X73640405Y-36753049D01*
X73643027Y-36747505D01*
X73646180Y-36742244D01*
X73649834Y-36737317D01*
X73653953Y-36732773D01*
X74113573Y-36273153D01*
X74118117Y-36269034D01*
X74123044Y-36265380D01*
X74128305Y-36262227D01*
X74133849Y-36259605D01*
X74139624Y-36257538D01*
X74145574Y-36256048D01*
X74151641Y-36255148D01*
X74157767Y-36254847D01*
X74163893Y-36255148D01*
X74163893Y-36255148D01*
G37*
D13*
X73972151Y-36591351D03*
D11*
G36*
X74517447Y-36608701D02*
G01*
X74523514Y-36609601D01*
X74529464Y-36611091D01*
X74535239Y-36613158D01*
X74540783Y-36615780D01*
X74546044Y-36618933D01*
X74550971Y-36622587D01*
X74555515Y-36626706D01*
X74643903Y-36715094D01*
X74648022Y-36719638D01*
X74651676Y-36724565D01*
X74654829Y-36729826D01*
X74657451Y-36735370D01*
X74659518Y-36741145D01*
X74661008Y-36747095D01*
X74661908Y-36753162D01*
X74662209Y-36759288D01*
X74661908Y-36765414D01*
X74661008Y-36771481D01*
X74659518Y-36777431D01*
X74657451Y-36783206D01*
X74654829Y-36788750D01*
X74651676Y-36794011D01*
X74648022Y-36798938D01*
X74643903Y-36803482D01*
X74184283Y-37263102D01*
X74179739Y-37267221D01*
X74174812Y-37270875D01*
X74169551Y-37274028D01*
X74164007Y-37276650D01*
X74158232Y-37278717D01*
X74152282Y-37280207D01*
X74146215Y-37281107D01*
X74140089Y-37281408D01*
X74133963Y-37281107D01*
X74127896Y-37280207D01*
X74121946Y-37278717D01*
X74116171Y-37276650D01*
X74110627Y-37274028D01*
X74105366Y-37270875D01*
X74100439Y-37267221D01*
X74095895Y-37263102D01*
X74007507Y-37174714D01*
X74003388Y-37170170D01*
X73999734Y-37165243D01*
X73996581Y-37159982D01*
X73993959Y-37154438D01*
X73991892Y-37148663D01*
X73990402Y-37142713D01*
X73989502Y-37136646D01*
X73989201Y-37130520D01*
X73989502Y-37124394D01*
X73990402Y-37118327D01*
X73991892Y-37112377D01*
X73993959Y-37106602D01*
X73996581Y-37101058D01*
X73999734Y-37095797D01*
X74003388Y-37090870D01*
X74007507Y-37086326D01*
X74467127Y-36626706D01*
X74471671Y-36622587D01*
X74476598Y-36618933D01*
X74481859Y-36615780D01*
X74487403Y-36613158D01*
X74493178Y-36611091D01*
X74499128Y-36609601D01*
X74505195Y-36608701D01*
X74511321Y-36608400D01*
X74517447Y-36608701D01*
X74517447Y-36608701D01*
G37*
D13*
X74325705Y-36944904D03*
D11*
G36*
X74871000Y-36962255D02*
G01*
X74877067Y-36963155D01*
X74883017Y-36964645D01*
X74888792Y-36966712D01*
X74894336Y-36969334D01*
X74899597Y-36972487D01*
X74904524Y-36976141D01*
X74909068Y-36980260D01*
X74997456Y-37068648D01*
X75001575Y-37073192D01*
X75005229Y-37078119D01*
X75008382Y-37083380D01*
X75011004Y-37088924D01*
X75013071Y-37094699D01*
X75014561Y-37100649D01*
X75015461Y-37106716D01*
X75015762Y-37112842D01*
X75015461Y-37118968D01*
X75014561Y-37125035D01*
X75013071Y-37130985D01*
X75011004Y-37136760D01*
X75008382Y-37142304D01*
X75005229Y-37147565D01*
X75001575Y-37152492D01*
X74997456Y-37157036D01*
X74537836Y-37616656D01*
X74533292Y-37620775D01*
X74528365Y-37624429D01*
X74523104Y-37627582D01*
X74517560Y-37630204D01*
X74511785Y-37632271D01*
X74505835Y-37633761D01*
X74499768Y-37634661D01*
X74493642Y-37634962D01*
X74487516Y-37634661D01*
X74481449Y-37633761D01*
X74475499Y-37632271D01*
X74469724Y-37630204D01*
X74464180Y-37627582D01*
X74458919Y-37624429D01*
X74453992Y-37620775D01*
X74449448Y-37616656D01*
X74361060Y-37528268D01*
X74356941Y-37523724D01*
X74353287Y-37518797D01*
X74350134Y-37513536D01*
X74347512Y-37507992D01*
X74345445Y-37502217D01*
X74343955Y-37496267D01*
X74343055Y-37490200D01*
X74342754Y-37484074D01*
X74343055Y-37477948D01*
X74343955Y-37471881D01*
X74345445Y-37465931D01*
X74347512Y-37460156D01*
X74350134Y-37454612D01*
X74353287Y-37449351D01*
X74356941Y-37444424D01*
X74361060Y-37439880D01*
X74820680Y-36980260D01*
X74825224Y-36976141D01*
X74830151Y-36972487D01*
X74835412Y-36969334D01*
X74840956Y-36966712D01*
X74846731Y-36964645D01*
X74852681Y-36963155D01*
X74858748Y-36962255D01*
X74864874Y-36961954D01*
X74871000Y-36962255D01*
X74871000Y-36962255D01*
G37*
D13*
X74679258Y-37298458D03*
D11*
G36*
X74499768Y-38005237D02*
G01*
X74505835Y-38006137D01*
X74511785Y-38007627D01*
X74517560Y-38009694D01*
X74523104Y-38012316D01*
X74528365Y-38015469D01*
X74533292Y-38019123D01*
X74537836Y-38023242D01*
X74997456Y-38482862D01*
X75001575Y-38487406D01*
X75005229Y-38492333D01*
X75008382Y-38497594D01*
X75011004Y-38503138D01*
X75013071Y-38508913D01*
X75014561Y-38514863D01*
X75015461Y-38520930D01*
X75015762Y-38527056D01*
X75015461Y-38533182D01*
X75014561Y-38539249D01*
X75013071Y-38545199D01*
X75011004Y-38550974D01*
X75008382Y-38556518D01*
X75005229Y-38561779D01*
X75001575Y-38566706D01*
X74997456Y-38571250D01*
X74909068Y-38659638D01*
X74904524Y-38663757D01*
X74899597Y-38667411D01*
X74894336Y-38670564D01*
X74888792Y-38673186D01*
X74883017Y-38675253D01*
X74877067Y-38676743D01*
X74871000Y-38677643D01*
X74864874Y-38677944D01*
X74858748Y-38677643D01*
X74852681Y-38676743D01*
X74846731Y-38675253D01*
X74840956Y-38673186D01*
X74835412Y-38670564D01*
X74830151Y-38667411D01*
X74825224Y-38663757D01*
X74820680Y-38659638D01*
X74361060Y-38200018D01*
X74356941Y-38195474D01*
X74353287Y-38190547D01*
X74350134Y-38185286D01*
X74347512Y-38179742D01*
X74345445Y-38173967D01*
X74343955Y-38168017D01*
X74343055Y-38161950D01*
X74342754Y-38155824D01*
X74343055Y-38149698D01*
X74343955Y-38143631D01*
X74345445Y-38137681D01*
X74347512Y-38131906D01*
X74350134Y-38126362D01*
X74353287Y-38121101D01*
X74356941Y-38116174D01*
X74361060Y-38111630D01*
X74449448Y-38023242D01*
X74453992Y-38019123D01*
X74458919Y-38015469D01*
X74464180Y-38012316D01*
X74469724Y-38009694D01*
X74475499Y-38007627D01*
X74481449Y-38006137D01*
X74487516Y-38005237D01*
X74493642Y-38004936D01*
X74499768Y-38005237D01*
X74499768Y-38005237D01*
G37*
D13*
X74679258Y-38341440D03*
D11*
G36*
X74146215Y-38358791D02*
G01*
X74152282Y-38359691D01*
X74158232Y-38361181D01*
X74164007Y-38363248D01*
X74169551Y-38365870D01*
X74174812Y-38369023D01*
X74179739Y-38372677D01*
X74184283Y-38376796D01*
X74643903Y-38836416D01*
X74648022Y-38840960D01*
X74651676Y-38845887D01*
X74654829Y-38851148D01*
X74657451Y-38856692D01*
X74659518Y-38862467D01*
X74661008Y-38868417D01*
X74661908Y-38874484D01*
X74662209Y-38880610D01*
X74661908Y-38886736D01*
X74661008Y-38892803D01*
X74659518Y-38898753D01*
X74657451Y-38904528D01*
X74654829Y-38910072D01*
X74651676Y-38915333D01*
X74648022Y-38920260D01*
X74643903Y-38924804D01*
X74555515Y-39013192D01*
X74550971Y-39017311D01*
X74546044Y-39020965D01*
X74540783Y-39024118D01*
X74535239Y-39026740D01*
X74529464Y-39028807D01*
X74523514Y-39030297D01*
X74517447Y-39031197D01*
X74511321Y-39031498D01*
X74505195Y-39031197D01*
X74499128Y-39030297D01*
X74493178Y-39028807D01*
X74487403Y-39026740D01*
X74481859Y-39024118D01*
X74476598Y-39020965D01*
X74471671Y-39017311D01*
X74467127Y-39013192D01*
X74007507Y-38553572D01*
X74003388Y-38549028D01*
X73999734Y-38544101D01*
X73996581Y-38538840D01*
X73993959Y-38533296D01*
X73991892Y-38527521D01*
X73990402Y-38521571D01*
X73989502Y-38515504D01*
X73989201Y-38509378D01*
X73989502Y-38503252D01*
X73990402Y-38497185D01*
X73991892Y-38491235D01*
X73993959Y-38485460D01*
X73996581Y-38479916D01*
X73999734Y-38474655D01*
X74003388Y-38469728D01*
X74007507Y-38465184D01*
X74095895Y-38376796D01*
X74100439Y-38372677D01*
X74105366Y-38369023D01*
X74110627Y-38365870D01*
X74116171Y-38363248D01*
X74121946Y-38361181D01*
X74127896Y-38359691D01*
X74133963Y-38358791D01*
X74140089Y-38358490D01*
X74146215Y-38358791D01*
X74146215Y-38358791D01*
G37*
D13*
X74325705Y-38694994D03*
D11*
G36*
X73792661Y-38712344D02*
G01*
X73798728Y-38713244D01*
X73804678Y-38714734D01*
X73810453Y-38716801D01*
X73815997Y-38719423D01*
X73821258Y-38722576D01*
X73826185Y-38726230D01*
X73830729Y-38730349D01*
X74290349Y-39189969D01*
X74294468Y-39194513D01*
X74298122Y-39199440D01*
X74301275Y-39204701D01*
X74303897Y-39210245D01*
X74305964Y-39216020D01*
X74307454Y-39221970D01*
X74308354Y-39228037D01*
X74308655Y-39234163D01*
X74308354Y-39240289D01*
X74307454Y-39246356D01*
X74305964Y-39252306D01*
X74303897Y-39258081D01*
X74301275Y-39263625D01*
X74298122Y-39268886D01*
X74294468Y-39273813D01*
X74290349Y-39278357D01*
X74201961Y-39366745D01*
X74197417Y-39370864D01*
X74192490Y-39374518D01*
X74187229Y-39377671D01*
X74181685Y-39380293D01*
X74175910Y-39382360D01*
X74169960Y-39383850D01*
X74163893Y-39384750D01*
X74157767Y-39385051D01*
X74151641Y-39384750D01*
X74145574Y-39383850D01*
X74139624Y-39382360D01*
X74133849Y-39380293D01*
X74128305Y-39377671D01*
X74123044Y-39374518D01*
X74118117Y-39370864D01*
X74113573Y-39366745D01*
X73653953Y-38907125D01*
X73649834Y-38902581D01*
X73646180Y-38897654D01*
X73643027Y-38892393D01*
X73640405Y-38886849D01*
X73638338Y-38881074D01*
X73636848Y-38875124D01*
X73635948Y-38869057D01*
X73635647Y-38862931D01*
X73635948Y-38856805D01*
X73636848Y-38850738D01*
X73638338Y-38844788D01*
X73640405Y-38839013D01*
X73643027Y-38833469D01*
X73646180Y-38828208D01*
X73649834Y-38823281D01*
X73653953Y-38818737D01*
X73742341Y-38730349D01*
X73746885Y-38726230D01*
X73751812Y-38722576D01*
X73757073Y-38719423D01*
X73762617Y-38716801D01*
X73768392Y-38714734D01*
X73774342Y-38713244D01*
X73780409Y-38712344D01*
X73786535Y-38712043D01*
X73792661Y-38712344D01*
X73792661Y-38712344D01*
G37*
D13*
X73972151Y-39048547D03*
D11*
G36*
X73439108Y-39065897D02*
G01*
X73445175Y-39066797D01*
X73451125Y-39068287D01*
X73456900Y-39070354D01*
X73462444Y-39072976D01*
X73467705Y-39076129D01*
X73472632Y-39079783D01*
X73477176Y-39083902D01*
X73936796Y-39543522D01*
X73940915Y-39548066D01*
X73944569Y-39552993D01*
X73947722Y-39558254D01*
X73950344Y-39563798D01*
X73952411Y-39569573D01*
X73953901Y-39575523D01*
X73954801Y-39581590D01*
X73955102Y-39587716D01*
X73954801Y-39593842D01*
X73953901Y-39599909D01*
X73952411Y-39605859D01*
X73950344Y-39611634D01*
X73947722Y-39617178D01*
X73944569Y-39622439D01*
X73940915Y-39627366D01*
X73936796Y-39631910D01*
X73848408Y-39720298D01*
X73843864Y-39724417D01*
X73838937Y-39728071D01*
X73833676Y-39731224D01*
X73828132Y-39733846D01*
X73822357Y-39735913D01*
X73816407Y-39737403D01*
X73810340Y-39738303D01*
X73804214Y-39738604D01*
X73798088Y-39738303D01*
X73792021Y-39737403D01*
X73786071Y-39735913D01*
X73780296Y-39733846D01*
X73774752Y-39731224D01*
X73769491Y-39728071D01*
X73764564Y-39724417D01*
X73760020Y-39720298D01*
X73300400Y-39260678D01*
X73296281Y-39256134D01*
X73292627Y-39251207D01*
X73289474Y-39245946D01*
X73286852Y-39240402D01*
X73284785Y-39234627D01*
X73283295Y-39228677D01*
X73282395Y-39222610D01*
X73282094Y-39216484D01*
X73282395Y-39210358D01*
X73283295Y-39204291D01*
X73284785Y-39198341D01*
X73286852Y-39192566D01*
X73289474Y-39187022D01*
X73292627Y-39181761D01*
X73296281Y-39176834D01*
X73300400Y-39172290D01*
X73388788Y-39083902D01*
X73393332Y-39079783D01*
X73398259Y-39076129D01*
X73403520Y-39072976D01*
X73409064Y-39070354D01*
X73414839Y-39068287D01*
X73420789Y-39066797D01*
X73426856Y-39065897D01*
X73432982Y-39065596D01*
X73439108Y-39065897D01*
X73439108Y-39065897D01*
G37*
D13*
X73618598Y-39402100D03*
D11*
G36*
X73085555Y-39419451D02*
G01*
X73091622Y-39420351D01*
X73097572Y-39421841D01*
X73103347Y-39423908D01*
X73108891Y-39426530D01*
X73114152Y-39429683D01*
X73119079Y-39433337D01*
X73123623Y-39437456D01*
X73583243Y-39897076D01*
X73587362Y-39901620D01*
X73591016Y-39906547D01*
X73594169Y-39911808D01*
X73596791Y-39917352D01*
X73598858Y-39923127D01*
X73600348Y-39929077D01*
X73601248Y-39935144D01*
X73601549Y-39941270D01*
X73601248Y-39947396D01*
X73600348Y-39953463D01*
X73598858Y-39959413D01*
X73596791Y-39965188D01*
X73594169Y-39970732D01*
X73591016Y-39975993D01*
X73587362Y-39980920D01*
X73583243Y-39985464D01*
X73494855Y-40073852D01*
X73490311Y-40077971D01*
X73485384Y-40081625D01*
X73480123Y-40084778D01*
X73474579Y-40087400D01*
X73468804Y-40089467D01*
X73462854Y-40090957D01*
X73456787Y-40091857D01*
X73450661Y-40092158D01*
X73444535Y-40091857D01*
X73438468Y-40090957D01*
X73432518Y-40089467D01*
X73426743Y-40087400D01*
X73421199Y-40084778D01*
X73415938Y-40081625D01*
X73411011Y-40077971D01*
X73406467Y-40073852D01*
X72946847Y-39614232D01*
X72942728Y-39609688D01*
X72939074Y-39604761D01*
X72935921Y-39599500D01*
X72933299Y-39593956D01*
X72931232Y-39588181D01*
X72929742Y-39582231D01*
X72928842Y-39576164D01*
X72928541Y-39570038D01*
X72928842Y-39563912D01*
X72929742Y-39557845D01*
X72931232Y-39551895D01*
X72933299Y-39546120D01*
X72935921Y-39540576D01*
X72939074Y-39535315D01*
X72942728Y-39530388D01*
X72946847Y-39525844D01*
X73035235Y-39437456D01*
X73039779Y-39433337D01*
X73044706Y-39429683D01*
X73049967Y-39426530D01*
X73055511Y-39423908D01*
X73061286Y-39421841D01*
X73067236Y-39420351D01*
X73073303Y-39419451D01*
X73079429Y-39419150D01*
X73085555Y-39419451D01*
X73085555Y-39419451D01*
G37*
D13*
X73265045Y-39755654D03*
D11*
G36*
X72732001Y-39773004D02*
G01*
X72738068Y-39773904D01*
X72744018Y-39775394D01*
X72749793Y-39777461D01*
X72755337Y-39780083D01*
X72760598Y-39783236D01*
X72765525Y-39786890D01*
X72770069Y-39791009D01*
X73229689Y-40250629D01*
X73233808Y-40255173D01*
X73237462Y-40260100D01*
X73240615Y-40265361D01*
X73243237Y-40270905D01*
X73245304Y-40276680D01*
X73246794Y-40282630D01*
X73247694Y-40288697D01*
X73247995Y-40294823D01*
X73247694Y-40300949D01*
X73246794Y-40307016D01*
X73245304Y-40312966D01*
X73243237Y-40318741D01*
X73240615Y-40324285D01*
X73237462Y-40329546D01*
X73233808Y-40334473D01*
X73229689Y-40339017D01*
X73141301Y-40427405D01*
X73136757Y-40431524D01*
X73131830Y-40435178D01*
X73126569Y-40438331D01*
X73121025Y-40440953D01*
X73115250Y-40443020D01*
X73109300Y-40444510D01*
X73103233Y-40445410D01*
X73097107Y-40445711D01*
X73090981Y-40445410D01*
X73084914Y-40444510D01*
X73078964Y-40443020D01*
X73073189Y-40440953D01*
X73067645Y-40438331D01*
X73062384Y-40435178D01*
X73057457Y-40431524D01*
X73052913Y-40427405D01*
X72593293Y-39967785D01*
X72589174Y-39963241D01*
X72585520Y-39958314D01*
X72582367Y-39953053D01*
X72579745Y-39947509D01*
X72577678Y-39941734D01*
X72576188Y-39935784D01*
X72575288Y-39929717D01*
X72574987Y-39923591D01*
X72575288Y-39917465D01*
X72576188Y-39911398D01*
X72577678Y-39905448D01*
X72579745Y-39899673D01*
X72582367Y-39894129D01*
X72585520Y-39888868D01*
X72589174Y-39883941D01*
X72593293Y-39879397D01*
X72681681Y-39791009D01*
X72686225Y-39786890D01*
X72691152Y-39783236D01*
X72696413Y-39780083D01*
X72701957Y-39777461D01*
X72707732Y-39775394D01*
X72713682Y-39773904D01*
X72719749Y-39773004D01*
X72725875Y-39772703D01*
X72732001Y-39773004D01*
X72732001Y-39773004D01*
G37*
D13*
X72911491Y-40109207D03*
D11*
G36*
X72414504Y-36079158D02*
G01*
X72438773Y-36082758D01*
X72462571Y-36088719D01*
X72485671Y-36096984D01*
X72507849Y-36107474D01*
X72528893Y-36120087D01*
X72548598Y-36134701D01*
X72566777Y-36151177D01*
X73068823Y-36653223D01*
X73085299Y-36671402D01*
X73099913Y-36691107D01*
X73112526Y-36712151D01*
X73123016Y-36734329D01*
X73131281Y-36757429D01*
X73137242Y-36781227D01*
X73140842Y-36805496D01*
X73142046Y-36830000D01*
X73140842Y-36854504D01*
X73137242Y-36878773D01*
X73131281Y-36902571D01*
X73123016Y-36925671D01*
X73112526Y-36947849D01*
X73099913Y-36968893D01*
X73085299Y-36988598D01*
X73068823Y-37006777D01*
X72566777Y-37508823D01*
X72548598Y-37525299D01*
X72528893Y-37539913D01*
X72507849Y-37552526D01*
X72485671Y-37563016D01*
X72462571Y-37571281D01*
X72438773Y-37577242D01*
X72414504Y-37580842D01*
X72390000Y-37582046D01*
X72365496Y-37580842D01*
X72341227Y-37577242D01*
X72317429Y-37571281D01*
X72294329Y-37563016D01*
X72272151Y-37552526D01*
X72251107Y-37539913D01*
X72231402Y-37525299D01*
X72213223Y-37508823D01*
X71711177Y-37006777D01*
X71694701Y-36988598D01*
X71680087Y-36968893D01*
X71667474Y-36947849D01*
X71656984Y-36925671D01*
X71648719Y-36902571D01*
X71642758Y-36878773D01*
X71639158Y-36854504D01*
X71637954Y-36830000D01*
X71639158Y-36805496D01*
X71642758Y-36781227D01*
X71648719Y-36757429D01*
X71656984Y-36734329D01*
X71667474Y-36712151D01*
X71680087Y-36691107D01*
X71694701Y-36671402D01*
X71711177Y-36653223D01*
X72213223Y-36151177D01*
X72231402Y-36134701D01*
X72251107Y-36120087D01*
X72272151Y-36107474D01*
X72294329Y-36096984D01*
X72317429Y-36088719D01*
X72341227Y-36082758D01*
X72365496Y-36079158D01*
X72390000Y-36077954D01*
X72414504Y-36079158D01*
X72414504Y-36079158D01*
G37*
D14*
X72390000Y-36830000D03*
D11*
G36*
X71424555Y-37069107D02*
G01*
X71448824Y-37072707D01*
X71472622Y-37078668D01*
X71495722Y-37086933D01*
X71517900Y-37097423D01*
X71538944Y-37110036D01*
X71558649Y-37124650D01*
X71576828Y-37141126D01*
X72078874Y-37643172D01*
X72095350Y-37661351D01*
X72109964Y-37681056D01*
X72122577Y-37702100D01*
X72133067Y-37724278D01*
X72141332Y-37747378D01*
X72147293Y-37771176D01*
X72150893Y-37795445D01*
X72152097Y-37819949D01*
X72150893Y-37844453D01*
X72147293Y-37868722D01*
X72141332Y-37892520D01*
X72133067Y-37915620D01*
X72122577Y-37937798D01*
X72109964Y-37958842D01*
X72095350Y-37978547D01*
X72078874Y-37996726D01*
X71576828Y-38498772D01*
X71558649Y-38515248D01*
X71538944Y-38529862D01*
X71517900Y-38542475D01*
X71495722Y-38552965D01*
X71472622Y-38561230D01*
X71448824Y-38567191D01*
X71424555Y-38570791D01*
X71400051Y-38571995D01*
X71375547Y-38570791D01*
X71351278Y-38567191D01*
X71327480Y-38561230D01*
X71304380Y-38552965D01*
X71282202Y-38542475D01*
X71261158Y-38529862D01*
X71241453Y-38515248D01*
X71223274Y-38498772D01*
X70721228Y-37996726D01*
X70704752Y-37978547D01*
X70690138Y-37958842D01*
X70677525Y-37937798D01*
X70667035Y-37915620D01*
X70658770Y-37892520D01*
X70652809Y-37868722D01*
X70649209Y-37844453D01*
X70648005Y-37819949D01*
X70649209Y-37795445D01*
X70652809Y-37771176D01*
X70658770Y-37747378D01*
X70667035Y-37724278D01*
X70677525Y-37702100D01*
X70690138Y-37681056D01*
X70704752Y-37661351D01*
X70721228Y-37643172D01*
X71223274Y-37141126D01*
X71241453Y-37124650D01*
X71261158Y-37110036D01*
X71282202Y-37097423D01*
X71304380Y-37086933D01*
X71327480Y-37078668D01*
X71351278Y-37072707D01*
X71375547Y-37069107D01*
X71400051Y-37067903D01*
X71424555Y-37069107D01*
X71424555Y-37069107D01*
G37*
D14*
X71400051Y-37819949D03*
D11*
G36*
X73404453Y-37069107D02*
G01*
X73428722Y-37072707D01*
X73452520Y-37078668D01*
X73475620Y-37086933D01*
X73497798Y-37097423D01*
X73518842Y-37110036D01*
X73538547Y-37124650D01*
X73556726Y-37141126D01*
X74058772Y-37643172D01*
X74075248Y-37661351D01*
X74089862Y-37681056D01*
X74102475Y-37702100D01*
X74112965Y-37724278D01*
X74121230Y-37747378D01*
X74127191Y-37771176D01*
X74130791Y-37795445D01*
X74131995Y-37819949D01*
X74130791Y-37844453D01*
X74127191Y-37868722D01*
X74121230Y-37892520D01*
X74112965Y-37915620D01*
X74102475Y-37937798D01*
X74089862Y-37958842D01*
X74075248Y-37978547D01*
X74058772Y-37996726D01*
X73556726Y-38498772D01*
X73538547Y-38515248D01*
X73518842Y-38529862D01*
X73497798Y-38542475D01*
X73475620Y-38552965D01*
X73452520Y-38561230D01*
X73428722Y-38567191D01*
X73404453Y-38570791D01*
X73379949Y-38571995D01*
X73355445Y-38570791D01*
X73331176Y-38567191D01*
X73307378Y-38561230D01*
X73284278Y-38552965D01*
X73262100Y-38542475D01*
X73241056Y-38529862D01*
X73221351Y-38515248D01*
X73203172Y-38498772D01*
X72701126Y-37996726D01*
X72684650Y-37978547D01*
X72670036Y-37958842D01*
X72657423Y-37937798D01*
X72646933Y-37915620D01*
X72638668Y-37892520D01*
X72632707Y-37868722D01*
X72629107Y-37844453D01*
X72627903Y-37819949D01*
X72629107Y-37795445D01*
X72632707Y-37771176D01*
X72638668Y-37747378D01*
X72646933Y-37724278D01*
X72657423Y-37702100D01*
X72670036Y-37681056D01*
X72684650Y-37661351D01*
X72701126Y-37643172D01*
X73203172Y-37141126D01*
X73221351Y-37124650D01*
X73241056Y-37110036D01*
X73262100Y-37097423D01*
X73284278Y-37086933D01*
X73307378Y-37078668D01*
X73331176Y-37072707D01*
X73355445Y-37069107D01*
X73379949Y-37067903D01*
X73404453Y-37069107D01*
X73404453Y-37069107D01*
G37*
D14*
X73379949Y-37819949D03*
D11*
G36*
X72414504Y-38059056D02*
G01*
X72438773Y-38062656D01*
X72462571Y-38068617D01*
X72485671Y-38076882D01*
X72507849Y-38087372D01*
X72528893Y-38099985D01*
X72548598Y-38114599D01*
X72566777Y-38131075D01*
X73068823Y-38633121D01*
X73085299Y-38651300D01*
X73099913Y-38671005D01*
X73112526Y-38692049D01*
X73123016Y-38714227D01*
X73131281Y-38737327D01*
X73137242Y-38761125D01*
X73140842Y-38785394D01*
X73142046Y-38809898D01*
X73140842Y-38834402D01*
X73137242Y-38858671D01*
X73131281Y-38882469D01*
X73123016Y-38905569D01*
X73112526Y-38927747D01*
X73099913Y-38948791D01*
X73085299Y-38968496D01*
X73068823Y-38986675D01*
X72566777Y-39488721D01*
X72548598Y-39505197D01*
X72528893Y-39519811D01*
X72507849Y-39532424D01*
X72485671Y-39542914D01*
X72462571Y-39551179D01*
X72438773Y-39557140D01*
X72414504Y-39560740D01*
X72390000Y-39561944D01*
X72365496Y-39560740D01*
X72341227Y-39557140D01*
X72317429Y-39551179D01*
X72294329Y-39542914D01*
X72272151Y-39532424D01*
X72251107Y-39519811D01*
X72231402Y-39505197D01*
X72213223Y-39488721D01*
X71711177Y-38986675D01*
X71694701Y-38968496D01*
X71680087Y-38948791D01*
X71667474Y-38927747D01*
X71656984Y-38905569D01*
X71648719Y-38882469D01*
X71642758Y-38858671D01*
X71639158Y-38834402D01*
X71637954Y-38809898D01*
X71639158Y-38785394D01*
X71642758Y-38761125D01*
X71648719Y-38737327D01*
X71656984Y-38714227D01*
X71667474Y-38692049D01*
X71680087Y-38671005D01*
X71694701Y-38651300D01*
X71711177Y-38633121D01*
X72213223Y-38131075D01*
X72231402Y-38114599D01*
X72251107Y-38099985D01*
X72272151Y-38087372D01*
X72294329Y-38076882D01*
X72317429Y-38068617D01*
X72341227Y-38062656D01*
X72365496Y-38059056D01*
X72390000Y-38057852D01*
X72414504Y-38059056D01*
X72414504Y-38059056D01*
G37*
D14*
X72390000Y-38809898D03*
D15*
X74610000Y-29040000D03*
X72710000Y-29040000D03*
X72710000Y-26840000D03*
X73660000Y-26840000D03*
X74610000Y-26840000D03*
D11*
G36*
X71397691Y-28291053D02*
G01*
X71418926Y-28294203D01*
X71439750Y-28299419D01*
X71459962Y-28306651D01*
X71479368Y-28315830D01*
X71497781Y-28326866D01*
X71515024Y-28339654D01*
X71530930Y-28354070D01*
X71545346Y-28369976D01*
X71558134Y-28387219D01*
X71569170Y-28405632D01*
X71578349Y-28425038D01*
X71585581Y-28445250D01*
X71590797Y-28466074D01*
X71593947Y-28487309D01*
X71595000Y-28508750D01*
X71595000Y-28946250D01*
X71593947Y-28967691D01*
X71590797Y-28988926D01*
X71585581Y-29009750D01*
X71578349Y-29029962D01*
X71569170Y-29049368D01*
X71558134Y-29067781D01*
X71545346Y-29085024D01*
X71530930Y-29100930D01*
X71515024Y-29115346D01*
X71497781Y-29128134D01*
X71479368Y-29139170D01*
X71459962Y-29148349D01*
X71439750Y-29155581D01*
X71418926Y-29160797D01*
X71397691Y-29163947D01*
X71376250Y-29165000D01*
X70863750Y-29165000D01*
X70842309Y-29163947D01*
X70821074Y-29160797D01*
X70800250Y-29155581D01*
X70780038Y-29148349D01*
X70760632Y-29139170D01*
X70742219Y-29128134D01*
X70724976Y-29115346D01*
X70709070Y-29100930D01*
X70694654Y-29085024D01*
X70681866Y-29067781D01*
X70670830Y-29049368D01*
X70661651Y-29029962D01*
X70654419Y-29009750D01*
X70649203Y-28988926D01*
X70646053Y-28967691D01*
X70645000Y-28946250D01*
X70645000Y-28508750D01*
X70646053Y-28487309D01*
X70649203Y-28466074D01*
X70654419Y-28445250D01*
X70661651Y-28425038D01*
X70670830Y-28405632D01*
X70681866Y-28387219D01*
X70694654Y-28369976D01*
X70709070Y-28354070D01*
X70724976Y-28339654D01*
X70742219Y-28326866D01*
X70760632Y-28315830D01*
X70780038Y-28306651D01*
X70800250Y-28299419D01*
X70821074Y-28294203D01*
X70842309Y-28291053D01*
X70863750Y-28290000D01*
X71376250Y-28290000D01*
X71397691Y-28291053D01*
X71397691Y-28291053D01*
G37*
D12*
X71120000Y-28727500D03*
D11*
G36*
X71397691Y-26716053D02*
G01*
X71418926Y-26719203D01*
X71439750Y-26724419D01*
X71459962Y-26731651D01*
X71479368Y-26740830D01*
X71497781Y-26751866D01*
X71515024Y-26764654D01*
X71530930Y-26779070D01*
X71545346Y-26794976D01*
X71558134Y-26812219D01*
X71569170Y-26830632D01*
X71578349Y-26850038D01*
X71585581Y-26870250D01*
X71590797Y-26891074D01*
X71593947Y-26912309D01*
X71595000Y-26933750D01*
X71595000Y-27371250D01*
X71593947Y-27392691D01*
X71590797Y-27413926D01*
X71585581Y-27434750D01*
X71578349Y-27454962D01*
X71569170Y-27474368D01*
X71558134Y-27492781D01*
X71545346Y-27510024D01*
X71530930Y-27525930D01*
X71515024Y-27540346D01*
X71497781Y-27553134D01*
X71479368Y-27564170D01*
X71459962Y-27573349D01*
X71439750Y-27580581D01*
X71418926Y-27585797D01*
X71397691Y-27588947D01*
X71376250Y-27590000D01*
X70863750Y-27590000D01*
X70842309Y-27588947D01*
X70821074Y-27585797D01*
X70800250Y-27580581D01*
X70780038Y-27573349D01*
X70760632Y-27564170D01*
X70742219Y-27553134D01*
X70724976Y-27540346D01*
X70709070Y-27525930D01*
X70694654Y-27510024D01*
X70681866Y-27492781D01*
X70670830Y-27474368D01*
X70661651Y-27454962D01*
X70654419Y-27434750D01*
X70649203Y-27413926D01*
X70646053Y-27392691D01*
X70645000Y-27371250D01*
X70645000Y-26933750D01*
X70646053Y-26912309D01*
X70649203Y-26891074D01*
X70654419Y-26870250D01*
X70661651Y-26850038D01*
X70670830Y-26830632D01*
X70681866Y-26812219D01*
X70694654Y-26794976D01*
X70709070Y-26779070D01*
X70724976Y-26764654D01*
X70742219Y-26751866D01*
X70760632Y-26740830D01*
X70780038Y-26731651D01*
X70800250Y-26724419D01*
X70821074Y-26719203D01*
X70842309Y-26716053D01*
X70863750Y-26715000D01*
X71376250Y-26715000D01*
X71397691Y-26716053D01*
X71397691Y-26716053D01*
G37*
D12*
X71120000Y-27152500D03*
D11*
G36*
X76194924Y-32466427D02*
G01*
X76216159Y-32469577D01*
X76236983Y-32474793D01*
X76257195Y-32482025D01*
X76276601Y-32491204D01*
X76295014Y-32502240D01*
X76312257Y-32515028D01*
X76328163Y-32529444D01*
X76690556Y-32891837D01*
X76704972Y-32907743D01*
X76717760Y-32924986D01*
X76728796Y-32943399D01*
X76737975Y-32962805D01*
X76745207Y-32983017D01*
X76750423Y-33003841D01*
X76753573Y-33025076D01*
X76754626Y-33046517D01*
X76753573Y-33067958D01*
X76750423Y-33089193D01*
X76745207Y-33110017D01*
X76737975Y-33130229D01*
X76728796Y-33149635D01*
X76717760Y-33168048D01*
X76704972Y-33185291D01*
X76690556Y-33201197D01*
X76381197Y-33510556D01*
X76365291Y-33524972D01*
X76348048Y-33537760D01*
X76329635Y-33548796D01*
X76310229Y-33557975D01*
X76290017Y-33565207D01*
X76269193Y-33570423D01*
X76247958Y-33573573D01*
X76226517Y-33574626D01*
X76205076Y-33573573D01*
X76183841Y-33570423D01*
X76163017Y-33565207D01*
X76142805Y-33557975D01*
X76123399Y-33548796D01*
X76104986Y-33537760D01*
X76087743Y-33524972D01*
X76071837Y-33510556D01*
X75709444Y-33148163D01*
X75695028Y-33132257D01*
X75682240Y-33115014D01*
X75671204Y-33096601D01*
X75662025Y-33077195D01*
X75654793Y-33056983D01*
X75649577Y-33036159D01*
X75646427Y-33014924D01*
X75645374Y-32993483D01*
X75646427Y-32972042D01*
X75649577Y-32950807D01*
X75654793Y-32929983D01*
X75662025Y-32909771D01*
X75671204Y-32890365D01*
X75682240Y-32871952D01*
X75695028Y-32854709D01*
X75709444Y-32838803D01*
X76018803Y-32529444D01*
X76034709Y-32515028D01*
X76051952Y-32502240D01*
X76070365Y-32491204D01*
X76089771Y-32482025D01*
X76109983Y-32474793D01*
X76130807Y-32469577D01*
X76152042Y-32466427D01*
X76173483Y-32465374D01*
X76194924Y-32466427D01*
X76194924Y-32466427D01*
G37*
D12*
X76200000Y-33020000D03*
D11*
G36*
X75081230Y-33580121D02*
G01*
X75102465Y-33583271D01*
X75123289Y-33588487D01*
X75143501Y-33595719D01*
X75162907Y-33604898D01*
X75181320Y-33615934D01*
X75198563Y-33628722D01*
X75214469Y-33643138D01*
X75576862Y-34005531D01*
X75591278Y-34021437D01*
X75604066Y-34038680D01*
X75615102Y-34057093D01*
X75624281Y-34076499D01*
X75631513Y-34096711D01*
X75636729Y-34117535D01*
X75639879Y-34138770D01*
X75640932Y-34160211D01*
X75639879Y-34181652D01*
X75636729Y-34202887D01*
X75631513Y-34223711D01*
X75624281Y-34243923D01*
X75615102Y-34263329D01*
X75604066Y-34281742D01*
X75591278Y-34298985D01*
X75576862Y-34314891D01*
X75267503Y-34624250D01*
X75251597Y-34638666D01*
X75234354Y-34651454D01*
X75215941Y-34662490D01*
X75196535Y-34671669D01*
X75176323Y-34678901D01*
X75155499Y-34684117D01*
X75134264Y-34687267D01*
X75112823Y-34688320D01*
X75091382Y-34687267D01*
X75070147Y-34684117D01*
X75049323Y-34678901D01*
X75029111Y-34671669D01*
X75009705Y-34662490D01*
X74991292Y-34651454D01*
X74974049Y-34638666D01*
X74958143Y-34624250D01*
X74595750Y-34261857D01*
X74581334Y-34245951D01*
X74568546Y-34228708D01*
X74557510Y-34210295D01*
X74548331Y-34190889D01*
X74541099Y-34170677D01*
X74535883Y-34149853D01*
X74532733Y-34128618D01*
X74531680Y-34107177D01*
X74532733Y-34085736D01*
X74535883Y-34064501D01*
X74541099Y-34043677D01*
X74548331Y-34023465D01*
X74557510Y-34004059D01*
X74568546Y-33985646D01*
X74581334Y-33968403D01*
X74595750Y-33952497D01*
X74905109Y-33643138D01*
X74921015Y-33628722D01*
X74938258Y-33615934D01*
X74956671Y-33604898D01*
X74976077Y-33595719D01*
X74996289Y-33588487D01*
X75017113Y-33583271D01*
X75038348Y-33580121D01*
X75059789Y-33579068D01*
X75081230Y-33580121D01*
X75081230Y-33580121D01*
G37*
D12*
X75086306Y-34133694D03*
D16*
X62230000Y-39370000D03*
X62230000Y-41870000D03*
D11*
G36*
X68638950Y-34210944D02*
G01*
X68660185Y-34214094D01*
X68681009Y-34219310D01*
X68701221Y-34226542D01*
X68720627Y-34235721D01*
X68739040Y-34246757D01*
X68756283Y-34259545D01*
X68772189Y-34273961D01*
X69081548Y-34583320D01*
X69095964Y-34599226D01*
X69108752Y-34616469D01*
X69119788Y-34634882D01*
X69128967Y-34654288D01*
X69136199Y-34674500D01*
X69141415Y-34695324D01*
X69144565Y-34716559D01*
X69145618Y-34738000D01*
X69144565Y-34759441D01*
X69141415Y-34780676D01*
X69136199Y-34801500D01*
X69128967Y-34821712D01*
X69119788Y-34841118D01*
X69108752Y-34859531D01*
X69095964Y-34876774D01*
X69081548Y-34892680D01*
X68719155Y-35255073D01*
X68703249Y-35269489D01*
X68686006Y-35282277D01*
X68667593Y-35293313D01*
X68648187Y-35302492D01*
X68627975Y-35309724D01*
X68607151Y-35314940D01*
X68585916Y-35318090D01*
X68564475Y-35319143D01*
X68543034Y-35318090D01*
X68521799Y-35314940D01*
X68500975Y-35309724D01*
X68480763Y-35302492D01*
X68461357Y-35293313D01*
X68442944Y-35282277D01*
X68425701Y-35269489D01*
X68409795Y-35255073D01*
X68100436Y-34945714D01*
X68086020Y-34929808D01*
X68073232Y-34912565D01*
X68062196Y-34894152D01*
X68053017Y-34874746D01*
X68045785Y-34854534D01*
X68040569Y-34833710D01*
X68037419Y-34812475D01*
X68036366Y-34791034D01*
X68037419Y-34769593D01*
X68040569Y-34748358D01*
X68045785Y-34727534D01*
X68053017Y-34707322D01*
X68062196Y-34687916D01*
X68073232Y-34669503D01*
X68086020Y-34652260D01*
X68100436Y-34636354D01*
X68462829Y-34273961D01*
X68478735Y-34259545D01*
X68495978Y-34246757D01*
X68514391Y-34235721D01*
X68533797Y-34226542D01*
X68554009Y-34219310D01*
X68574833Y-34214094D01*
X68596068Y-34210944D01*
X68617509Y-34209891D01*
X68638950Y-34210944D01*
X68638950Y-34210944D01*
G37*
D12*
X68590992Y-34764517D03*
D11*
G36*
X67525256Y-33097250D02*
G01*
X67546491Y-33100400D01*
X67567315Y-33105616D01*
X67587527Y-33112848D01*
X67606933Y-33122027D01*
X67625346Y-33133063D01*
X67642589Y-33145851D01*
X67658495Y-33160267D01*
X67967854Y-33469626D01*
X67982270Y-33485532D01*
X67995058Y-33502775D01*
X68006094Y-33521188D01*
X68015273Y-33540594D01*
X68022505Y-33560806D01*
X68027721Y-33581630D01*
X68030871Y-33602865D01*
X68031924Y-33624306D01*
X68030871Y-33645747D01*
X68027721Y-33666982D01*
X68022505Y-33687806D01*
X68015273Y-33708018D01*
X68006094Y-33727424D01*
X67995058Y-33745837D01*
X67982270Y-33763080D01*
X67967854Y-33778986D01*
X67605461Y-34141379D01*
X67589555Y-34155795D01*
X67572312Y-34168583D01*
X67553899Y-34179619D01*
X67534493Y-34188798D01*
X67514281Y-34196030D01*
X67493457Y-34201246D01*
X67472222Y-34204396D01*
X67450781Y-34205449D01*
X67429340Y-34204396D01*
X67408105Y-34201246D01*
X67387281Y-34196030D01*
X67367069Y-34188798D01*
X67347663Y-34179619D01*
X67329250Y-34168583D01*
X67312007Y-34155795D01*
X67296101Y-34141379D01*
X66986742Y-33832020D01*
X66972326Y-33816114D01*
X66959538Y-33798871D01*
X66948502Y-33780458D01*
X66939323Y-33761052D01*
X66932091Y-33740840D01*
X66926875Y-33720016D01*
X66923725Y-33698781D01*
X66922672Y-33677340D01*
X66923725Y-33655899D01*
X66926875Y-33634664D01*
X66932091Y-33613840D01*
X66939323Y-33593628D01*
X66948502Y-33574222D01*
X66959538Y-33555809D01*
X66972326Y-33538566D01*
X66986742Y-33522660D01*
X67349135Y-33160267D01*
X67365041Y-33145851D01*
X67382284Y-33133063D01*
X67400697Y-33122027D01*
X67420103Y-33112848D01*
X67440315Y-33105616D01*
X67461139Y-33100400D01*
X67482374Y-33097250D01*
X67503815Y-33096197D01*
X67525256Y-33097250D01*
X67525256Y-33097250D01*
G37*
D12*
X67477298Y-33650823D03*
D11*
G36*
X65047691Y-40991053D02*
G01*
X65068926Y-40994203D01*
X65089750Y-40999419D01*
X65109962Y-41006651D01*
X65129368Y-41015830D01*
X65147781Y-41026866D01*
X65165024Y-41039654D01*
X65180930Y-41054070D01*
X65195346Y-41069976D01*
X65208134Y-41087219D01*
X65219170Y-41105632D01*
X65228349Y-41125038D01*
X65235581Y-41145250D01*
X65240797Y-41166074D01*
X65243947Y-41187309D01*
X65245000Y-41208750D01*
X65245000Y-41646250D01*
X65243947Y-41667691D01*
X65240797Y-41688926D01*
X65235581Y-41709750D01*
X65228349Y-41729962D01*
X65219170Y-41749368D01*
X65208134Y-41767781D01*
X65195346Y-41785024D01*
X65180930Y-41800930D01*
X65165024Y-41815346D01*
X65147781Y-41828134D01*
X65129368Y-41839170D01*
X65109962Y-41848349D01*
X65089750Y-41855581D01*
X65068926Y-41860797D01*
X65047691Y-41863947D01*
X65026250Y-41865000D01*
X64513750Y-41865000D01*
X64492309Y-41863947D01*
X64471074Y-41860797D01*
X64450250Y-41855581D01*
X64430038Y-41848349D01*
X64410632Y-41839170D01*
X64392219Y-41828134D01*
X64374976Y-41815346D01*
X64359070Y-41800930D01*
X64344654Y-41785024D01*
X64331866Y-41767781D01*
X64320830Y-41749368D01*
X64311651Y-41729962D01*
X64304419Y-41709750D01*
X64299203Y-41688926D01*
X64296053Y-41667691D01*
X64295000Y-41646250D01*
X64295000Y-41208750D01*
X64296053Y-41187309D01*
X64299203Y-41166074D01*
X64304419Y-41145250D01*
X64311651Y-41125038D01*
X64320830Y-41105632D01*
X64331866Y-41087219D01*
X64344654Y-41069976D01*
X64359070Y-41054070D01*
X64374976Y-41039654D01*
X64392219Y-41026866D01*
X64410632Y-41015830D01*
X64430038Y-41006651D01*
X64450250Y-40999419D01*
X64471074Y-40994203D01*
X64492309Y-40991053D01*
X64513750Y-40990000D01*
X65026250Y-40990000D01*
X65047691Y-40991053D01*
X65047691Y-40991053D01*
G37*
D12*
X64770000Y-41427500D03*
D11*
G36*
X65047691Y-39416053D02*
G01*
X65068926Y-39419203D01*
X65089750Y-39424419D01*
X65109962Y-39431651D01*
X65129368Y-39440830D01*
X65147781Y-39451866D01*
X65165024Y-39464654D01*
X65180930Y-39479070D01*
X65195346Y-39494976D01*
X65208134Y-39512219D01*
X65219170Y-39530632D01*
X65228349Y-39550038D01*
X65235581Y-39570250D01*
X65240797Y-39591074D01*
X65243947Y-39612309D01*
X65245000Y-39633750D01*
X65245000Y-40071250D01*
X65243947Y-40092691D01*
X65240797Y-40113926D01*
X65235581Y-40134750D01*
X65228349Y-40154962D01*
X65219170Y-40174368D01*
X65208134Y-40192781D01*
X65195346Y-40210024D01*
X65180930Y-40225930D01*
X65165024Y-40240346D01*
X65147781Y-40253134D01*
X65129368Y-40264170D01*
X65109962Y-40273349D01*
X65089750Y-40280581D01*
X65068926Y-40285797D01*
X65047691Y-40288947D01*
X65026250Y-40290000D01*
X64513750Y-40290000D01*
X64492309Y-40288947D01*
X64471074Y-40285797D01*
X64450250Y-40280581D01*
X64430038Y-40273349D01*
X64410632Y-40264170D01*
X64392219Y-40253134D01*
X64374976Y-40240346D01*
X64359070Y-40225930D01*
X64344654Y-40210024D01*
X64331866Y-40192781D01*
X64320830Y-40174368D01*
X64311651Y-40154962D01*
X64304419Y-40134750D01*
X64299203Y-40113926D01*
X64296053Y-40092691D01*
X64295000Y-40071250D01*
X64295000Y-39633750D01*
X64296053Y-39612309D01*
X64299203Y-39591074D01*
X64304419Y-39570250D01*
X64311651Y-39550038D01*
X64320830Y-39530632D01*
X64331866Y-39512219D01*
X64344654Y-39494976D01*
X64359070Y-39479070D01*
X64374976Y-39464654D01*
X64392219Y-39451866D01*
X64410632Y-39440830D01*
X64430038Y-39431651D01*
X64450250Y-39424419D01*
X64471074Y-39419203D01*
X64492309Y-39416053D01*
X64513750Y-39415000D01*
X65026250Y-39415000D01*
X65047691Y-39416053D01*
X65047691Y-39416053D01*
G37*
D12*
X64770000Y-39852500D03*
D11*
G36*
X72630191Y-42706053D02*
G01*
X72651426Y-42709203D01*
X72672250Y-42714419D01*
X72692462Y-42721651D01*
X72711868Y-42730830D01*
X72730281Y-42741866D01*
X72747524Y-42754654D01*
X72763430Y-42769070D01*
X72777846Y-42784976D01*
X72790634Y-42802219D01*
X72801670Y-42820632D01*
X72810849Y-42840038D01*
X72818081Y-42860250D01*
X72823297Y-42881074D01*
X72826447Y-42902309D01*
X72827500Y-42923750D01*
X72827500Y-43436250D01*
X72826447Y-43457691D01*
X72823297Y-43478926D01*
X72818081Y-43499750D01*
X72810849Y-43519962D01*
X72801670Y-43539368D01*
X72790634Y-43557781D01*
X72777846Y-43575024D01*
X72763430Y-43590930D01*
X72747524Y-43605346D01*
X72730281Y-43618134D01*
X72711868Y-43629170D01*
X72692462Y-43638349D01*
X72672250Y-43645581D01*
X72651426Y-43650797D01*
X72630191Y-43653947D01*
X72608750Y-43655000D01*
X72171250Y-43655000D01*
X72149809Y-43653947D01*
X72128574Y-43650797D01*
X72107750Y-43645581D01*
X72087538Y-43638349D01*
X72068132Y-43629170D01*
X72049719Y-43618134D01*
X72032476Y-43605346D01*
X72016570Y-43590930D01*
X72002154Y-43575024D01*
X71989366Y-43557781D01*
X71978330Y-43539368D01*
X71969151Y-43519962D01*
X71961919Y-43499750D01*
X71956703Y-43478926D01*
X71953553Y-43457691D01*
X71952500Y-43436250D01*
X71952500Y-42923750D01*
X71953553Y-42902309D01*
X71956703Y-42881074D01*
X71961919Y-42860250D01*
X71969151Y-42840038D01*
X71978330Y-42820632D01*
X71989366Y-42802219D01*
X72002154Y-42784976D01*
X72016570Y-42769070D01*
X72032476Y-42754654D01*
X72049719Y-42741866D01*
X72068132Y-42730830D01*
X72087538Y-42721651D01*
X72107750Y-42714419D01*
X72128574Y-42709203D01*
X72149809Y-42706053D01*
X72171250Y-42705000D01*
X72608750Y-42705000D01*
X72630191Y-42706053D01*
X72630191Y-42706053D01*
G37*
D12*
X72390000Y-43180000D03*
D11*
G36*
X71055191Y-42706053D02*
G01*
X71076426Y-42709203D01*
X71097250Y-42714419D01*
X71117462Y-42721651D01*
X71136868Y-42730830D01*
X71155281Y-42741866D01*
X71172524Y-42754654D01*
X71188430Y-42769070D01*
X71202846Y-42784976D01*
X71215634Y-42802219D01*
X71226670Y-42820632D01*
X71235849Y-42840038D01*
X71243081Y-42860250D01*
X71248297Y-42881074D01*
X71251447Y-42902309D01*
X71252500Y-42923750D01*
X71252500Y-43436250D01*
X71251447Y-43457691D01*
X71248297Y-43478926D01*
X71243081Y-43499750D01*
X71235849Y-43519962D01*
X71226670Y-43539368D01*
X71215634Y-43557781D01*
X71202846Y-43575024D01*
X71188430Y-43590930D01*
X71172524Y-43605346D01*
X71155281Y-43618134D01*
X71136868Y-43629170D01*
X71117462Y-43638349D01*
X71097250Y-43645581D01*
X71076426Y-43650797D01*
X71055191Y-43653947D01*
X71033750Y-43655000D01*
X70596250Y-43655000D01*
X70574809Y-43653947D01*
X70553574Y-43650797D01*
X70532750Y-43645581D01*
X70512538Y-43638349D01*
X70493132Y-43629170D01*
X70474719Y-43618134D01*
X70457476Y-43605346D01*
X70441570Y-43590930D01*
X70427154Y-43575024D01*
X70414366Y-43557781D01*
X70403330Y-43539368D01*
X70394151Y-43519962D01*
X70386919Y-43499750D01*
X70381703Y-43478926D01*
X70378553Y-43457691D01*
X70377500Y-43436250D01*
X70377500Y-42923750D01*
X70378553Y-42902309D01*
X70381703Y-42881074D01*
X70386919Y-42860250D01*
X70394151Y-42840038D01*
X70403330Y-42820632D01*
X70414366Y-42802219D01*
X70427154Y-42784976D01*
X70441570Y-42769070D01*
X70457476Y-42754654D01*
X70474719Y-42741866D01*
X70493132Y-42730830D01*
X70512538Y-42721651D01*
X70532750Y-42714419D01*
X70553574Y-42709203D01*
X70574809Y-42706053D01*
X70596250Y-42705000D01*
X71033750Y-42705000D01*
X71055191Y-42706053D01*
X71055191Y-42706053D01*
G37*
D12*
X70815000Y-43180000D03*
D11*
G36*
X66599126Y-24463553D02*
G01*
X66620361Y-24466703D01*
X66641185Y-24471919D01*
X66661397Y-24479151D01*
X66680803Y-24488330D01*
X66699216Y-24499366D01*
X66716459Y-24512154D01*
X66732365Y-24526570D01*
X66746781Y-24542476D01*
X66759569Y-24559719D01*
X66770605Y-24578132D01*
X66779784Y-24597538D01*
X66787016Y-24617750D01*
X66792232Y-24638574D01*
X66795382Y-24659809D01*
X66796435Y-24681250D01*
X66796435Y-25193750D01*
X66795382Y-25215191D01*
X66792232Y-25236426D01*
X66787016Y-25257250D01*
X66779784Y-25277462D01*
X66770605Y-25296868D01*
X66759569Y-25315281D01*
X66746781Y-25332524D01*
X66732365Y-25348430D01*
X66716459Y-25362846D01*
X66699216Y-25375634D01*
X66680803Y-25386670D01*
X66661397Y-25395849D01*
X66641185Y-25403081D01*
X66620361Y-25408297D01*
X66599126Y-25411447D01*
X66577685Y-25412500D01*
X66140185Y-25412500D01*
X66118744Y-25411447D01*
X66097509Y-25408297D01*
X66076685Y-25403081D01*
X66056473Y-25395849D01*
X66037067Y-25386670D01*
X66018654Y-25375634D01*
X66001411Y-25362846D01*
X65985505Y-25348430D01*
X65971089Y-25332524D01*
X65958301Y-25315281D01*
X65947265Y-25296868D01*
X65938086Y-25277462D01*
X65930854Y-25257250D01*
X65925638Y-25236426D01*
X65922488Y-25215191D01*
X65921435Y-25193750D01*
X65921435Y-24681250D01*
X65922488Y-24659809D01*
X65925638Y-24638574D01*
X65930854Y-24617750D01*
X65938086Y-24597538D01*
X65947265Y-24578132D01*
X65958301Y-24559719D01*
X65971089Y-24542476D01*
X65985505Y-24526570D01*
X66001411Y-24512154D01*
X66018654Y-24499366D01*
X66037067Y-24488330D01*
X66056473Y-24479151D01*
X66076685Y-24471919D01*
X66097509Y-24466703D01*
X66118744Y-24463553D01*
X66140185Y-24462500D01*
X66577685Y-24462500D01*
X66599126Y-24463553D01*
X66599126Y-24463553D01*
G37*
D12*
X66358935Y-24937500D03*
D11*
G36*
X68174126Y-24463553D02*
G01*
X68195361Y-24466703D01*
X68216185Y-24471919D01*
X68236397Y-24479151D01*
X68255803Y-24488330D01*
X68274216Y-24499366D01*
X68291459Y-24512154D01*
X68307365Y-24526570D01*
X68321781Y-24542476D01*
X68334569Y-24559719D01*
X68345605Y-24578132D01*
X68354784Y-24597538D01*
X68362016Y-24617750D01*
X68367232Y-24638574D01*
X68370382Y-24659809D01*
X68371435Y-24681250D01*
X68371435Y-25193750D01*
X68370382Y-25215191D01*
X68367232Y-25236426D01*
X68362016Y-25257250D01*
X68354784Y-25277462D01*
X68345605Y-25296868D01*
X68334569Y-25315281D01*
X68321781Y-25332524D01*
X68307365Y-25348430D01*
X68291459Y-25362846D01*
X68274216Y-25375634D01*
X68255803Y-25386670D01*
X68236397Y-25395849D01*
X68216185Y-25403081D01*
X68195361Y-25408297D01*
X68174126Y-25411447D01*
X68152685Y-25412500D01*
X67715185Y-25412500D01*
X67693744Y-25411447D01*
X67672509Y-25408297D01*
X67651685Y-25403081D01*
X67631473Y-25395849D01*
X67612067Y-25386670D01*
X67593654Y-25375634D01*
X67576411Y-25362846D01*
X67560505Y-25348430D01*
X67546089Y-25332524D01*
X67533301Y-25315281D01*
X67522265Y-25296868D01*
X67513086Y-25277462D01*
X67505854Y-25257250D01*
X67500638Y-25236426D01*
X67497488Y-25215191D01*
X67496435Y-25193750D01*
X67496435Y-24681250D01*
X67497488Y-24659809D01*
X67500638Y-24638574D01*
X67505854Y-24617750D01*
X67513086Y-24597538D01*
X67522265Y-24578132D01*
X67533301Y-24559719D01*
X67546089Y-24542476D01*
X67560505Y-24526570D01*
X67576411Y-24512154D01*
X67593654Y-24499366D01*
X67612067Y-24488330D01*
X67631473Y-24479151D01*
X67651685Y-24471919D01*
X67672509Y-24466703D01*
X67693744Y-24463553D01*
X67715185Y-24462500D01*
X68152685Y-24462500D01*
X68174126Y-24463553D01*
X68174126Y-24463553D01*
G37*
D12*
X67933935Y-24937500D03*
D11*
G36*
X66599126Y-26253553D02*
G01*
X66620361Y-26256703D01*
X66641185Y-26261919D01*
X66661397Y-26269151D01*
X66680803Y-26278330D01*
X66699216Y-26289366D01*
X66716459Y-26302154D01*
X66732365Y-26316570D01*
X66746781Y-26332476D01*
X66759569Y-26349719D01*
X66770605Y-26368132D01*
X66779784Y-26387538D01*
X66787016Y-26407750D01*
X66792232Y-26428574D01*
X66795382Y-26449809D01*
X66796435Y-26471250D01*
X66796435Y-26983750D01*
X66795382Y-27005191D01*
X66792232Y-27026426D01*
X66787016Y-27047250D01*
X66779784Y-27067462D01*
X66770605Y-27086868D01*
X66759569Y-27105281D01*
X66746781Y-27122524D01*
X66732365Y-27138430D01*
X66716459Y-27152846D01*
X66699216Y-27165634D01*
X66680803Y-27176670D01*
X66661397Y-27185849D01*
X66641185Y-27193081D01*
X66620361Y-27198297D01*
X66599126Y-27201447D01*
X66577685Y-27202500D01*
X66140185Y-27202500D01*
X66118744Y-27201447D01*
X66097509Y-27198297D01*
X66076685Y-27193081D01*
X66056473Y-27185849D01*
X66037067Y-27176670D01*
X66018654Y-27165634D01*
X66001411Y-27152846D01*
X65985505Y-27138430D01*
X65971089Y-27122524D01*
X65958301Y-27105281D01*
X65947265Y-27086868D01*
X65938086Y-27067462D01*
X65930854Y-27047250D01*
X65925638Y-27026426D01*
X65922488Y-27005191D01*
X65921435Y-26983750D01*
X65921435Y-26471250D01*
X65922488Y-26449809D01*
X65925638Y-26428574D01*
X65930854Y-26407750D01*
X65938086Y-26387538D01*
X65947265Y-26368132D01*
X65958301Y-26349719D01*
X65971089Y-26332476D01*
X65985505Y-26316570D01*
X66001411Y-26302154D01*
X66018654Y-26289366D01*
X66037067Y-26278330D01*
X66056473Y-26269151D01*
X66076685Y-26261919D01*
X66097509Y-26256703D01*
X66118744Y-26253553D01*
X66140185Y-26252500D01*
X66577685Y-26252500D01*
X66599126Y-26253553D01*
X66599126Y-26253553D01*
G37*
D12*
X66358935Y-26727500D03*
D11*
G36*
X68174126Y-26253553D02*
G01*
X68195361Y-26256703D01*
X68216185Y-26261919D01*
X68236397Y-26269151D01*
X68255803Y-26278330D01*
X68274216Y-26289366D01*
X68291459Y-26302154D01*
X68307365Y-26316570D01*
X68321781Y-26332476D01*
X68334569Y-26349719D01*
X68345605Y-26368132D01*
X68354784Y-26387538D01*
X68362016Y-26407750D01*
X68367232Y-26428574D01*
X68370382Y-26449809D01*
X68371435Y-26471250D01*
X68371435Y-26983750D01*
X68370382Y-27005191D01*
X68367232Y-27026426D01*
X68362016Y-27047250D01*
X68354784Y-27067462D01*
X68345605Y-27086868D01*
X68334569Y-27105281D01*
X68321781Y-27122524D01*
X68307365Y-27138430D01*
X68291459Y-27152846D01*
X68274216Y-27165634D01*
X68255803Y-27176670D01*
X68236397Y-27185849D01*
X68216185Y-27193081D01*
X68195361Y-27198297D01*
X68174126Y-27201447D01*
X68152685Y-27202500D01*
X67715185Y-27202500D01*
X67693744Y-27201447D01*
X67672509Y-27198297D01*
X67651685Y-27193081D01*
X67631473Y-27185849D01*
X67612067Y-27176670D01*
X67593654Y-27165634D01*
X67576411Y-27152846D01*
X67560505Y-27138430D01*
X67546089Y-27122524D01*
X67533301Y-27105281D01*
X67522265Y-27086868D01*
X67513086Y-27067462D01*
X67505854Y-27047250D01*
X67500638Y-27026426D01*
X67497488Y-27005191D01*
X67496435Y-26983750D01*
X67496435Y-26471250D01*
X67497488Y-26449809D01*
X67500638Y-26428574D01*
X67505854Y-26407750D01*
X67513086Y-26387538D01*
X67522265Y-26368132D01*
X67533301Y-26349719D01*
X67546089Y-26332476D01*
X67560505Y-26316570D01*
X67576411Y-26302154D01*
X67593654Y-26289366D01*
X67612067Y-26278330D01*
X67631473Y-26269151D01*
X67651685Y-26261919D01*
X67672509Y-26256703D01*
X67693744Y-26253553D01*
X67715185Y-26252500D01*
X68152685Y-26252500D01*
X68174126Y-26253553D01*
X68174126Y-26253553D01*
G37*
D12*
X67933935Y-26727500D03*
D11*
G36*
X66599126Y-28043553D02*
G01*
X66620361Y-28046703D01*
X66641185Y-28051919D01*
X66661397Y-28059151D01*
X66680803Y-28068330D01*
X66699216Y-28079366D01*
X66716459Y-28092154D01*
X66732365Y-28106570D01*
X66746781Y-28122476D01*
X66759569Y-28139719D01*
X66770605Y-28158132D01*
X66779784Y-28177538D01*
X66787016Y-28197750D01*
X66792232Y-28218574D01*
X66795382Y-28239809D01*
X66796435Y-28261250D01*
X66796435Y-28773750D01*
X66795382Y-28795191D01*
X66792232Y-28816426D01*
X66787016Y-28837250D01*
X66779784Y-28857462D01*
X66770605Y-28876868D01*
X66759569Y-28895281D01*
X66746781Y-28912524D01*
X66732365Y-28928430D01*
X66716459Y-28942846D01*
X66699216Y-28955634D01*
X66680803Y-28966670D01*
X66661397Y-28975849D01*
X66641185Y-28983081D01*
X66620361Y-28988297D01*
X66599126Y-28991447D01*
X66577685Y-28992500D01*
X66140185Y-28992500D01*
X66118744Y-28991447D01*
X66097509Y-28988297D01*
X66076685Y-28983081D01*
X66056473Y-28975849D01*
X66037067Y-28966670D01*
X66018654Y-28955634D01*
X66001411Y-28942846D01*
X65985505Y-28928430D01*
X65971089Y-28912524D01*
X65958301Y-28895281D01*
X65947265Y-28876868D01*
X65938086Y-28857462D01*
X65930854Y-28837250D01*
X65925638Y-28816426D01*
X65922488Y-28795191D01*
X65921435Y-28773750D01*
X65921435Y-28261250D01*
X65922488Y-28239809D01*
X65925638Y-28218574D01*
X65930854Y-28197750D01*
X65938086Y-28177538D01*
X65947265Y-28158132D01*
X65958301Y-28139719D01*
X65971089Y-28122476D01*
X65985505Y-28106570D01*
X66001411Y-28092154D01*
X66018654Y-28079366D01*
X66037067Y-28068330D01*
X66056473Y-28059151D01*
X66076685Y-28051919D01*
X66097509Y-28046703D01*
X66118744Y-28043553D01*
X66140185Y-28042500D01*
X66577685Y-28042500D01*
X66599126Y-28043553D01*
X66599126Y-28043553D01*
G37*
D12*
X66358935Y-28517500D03*
D11*
G36*
X68174126Y-28043553D02*
G01*
X68195361Y-28046703D01*
X68216185Y-28051919D01*
X68236397Y-28059151D01*
X68255803Y-28068330D01*
X68274216Y-28079366D01*
X68291459Y-28092154D01*
X68307365Y-28106570D01*
X68321781Y-28122476D01*
X68334569Y-28139719D01*
X68345605Y-28158132D01*
X68354784Y-28177538D01*
X68362016Y-28197750D01*
X68367232Y-28218574D01*
X68370382Y-28239809D01*
X68371435Y-28261250D01*
X68371435Y-28773750D01*
X68370382Y-28795191D01*
X68367232Y-28816426D01*
X68362016Y-28837250D01*
X68354784Y-28857462D01*
X68345605Y-28876868D01*
X68334569Y-28895281D01*
X68321781Y-28912524D01*
X68307365Y-28928430D01*
X68291459Y-28942846D01*
X68274216Y-28955634D01*
X68255803Y-28966670D01*
X68236397Y-28975849D01*
X68216185Y-28983081D01*
X68195361Y-28988297D01*
X68174126Y-28991447D01*
X68152685Y-28992500D01*
X67715185Y-28992500D01*
X67693744Y-28991447D01*
X67672509Y-28988297D01*
X67651685Y-28983081D01*
X67631473Y-28975849D01*
X67612067Y-28966670D01*
X67593654Y-28955634D01*
X67576411Y-28942846D01*
X67560505Y-28928430D01*
X67546089Y-28912524D01*
X67533301Y-28895281D01*
X67522265Y-28876868D01*
X67513086Y-28857462D01*
X67505854Y-28837250D01*
X67500638Y-28816426D01*
X67497488Y-28795191D01*
X67496435Y-28773750D01*
X67496435Y-28261250D01*
X67497488Y-28239809D01*
X67500638Y-28218574D01*
X67505854Y-28197750D01*
X67513086Y-28177538D01*
X67522265Y-28158132D01*
X67533301Y-28139719D01*
X67546089Y-28122476D01*
X67560505Y-28106570D01*
X67576411Y-28092154D01*
X67593654Y-28079366D01*
X67612067Y-28068330D01*
X67631473Y-28059151D01*
X67651685Y-28051919D01*
X67672509Y-28046703D01*
X67693744Y-28043553D01*
X67715185Y-28042500D01*
X68152685Y-28042500D01*
X68174126Y-28043553D01*
X68174126Y-28043553D01*
G37*
D12*
X67933935Y-28517500D03*
D11*
G36*
X74924924Y-31196427D02*
G01*
X74946159Y-31199577D01*
X74966983Y-31204793D01*
X74987195Y-31212025D01*
X75006601Y-31221204D01*
X75025014Y-31232240D01*
X75042257Y-31245028D01*
X75058163Y-31259444D01*
X75420556Y-31621837D01*
X75434972Y-31637743D01*
X75447760Y-31654986D01*
X75458796Y-31673399D01*
X75467975Y-31692805D01*
X75475207Y-31713017D01*
X75480423Y-31733841D01*
X75483573Y-31755076D01*
X75484626Y-31776517D01*
X75483573Y-31797958D01*
X75480423Y-31819193D01*
X75475207Y-31840017D01*
X75467975Y-31860229D01*
X75458796Y-31879635D01*
X75447760Y-31898048D01*
X75434972Y-31915291D01*
X75420556Y-31931197D01*
X75111197Y-32240556D01*
X75095291Y-32254972D01*
X75078048Y-32267760D01*
X75059635Y-32278796D01*
X75040229Y-32287975D01*
X75020017Y-32295207D01*
X74999193Y-32300423D01*
X74977958Y-32303573D01*
X74956517Y-32304626D01*
X74935076Y-32303573D01*
X74913841Y-32300423D01*
X74893017Y-32295207D01*
X74872805Y-32287975D01*
X74853399Y-32278796D01*
X74834986Y-32267760D01*
X74817743Y-32254972D01*
X74801837Y-32240556D01*
X74439444Y-31878163D01*
X74425028Y-31862257D01*
X74412240Y-31845014D01*
X74401204Y-31826601D01*
X74392025Y-31807195D01*
X74384793Y-31786983D01*
X74379577Y-31766159D01*
X74376427Y-31744924D01*
X74375374Y-31723483D01*
X74376427Y-31702042D01*
X74379577Y-31680807D01*
X74384793Y-31659983D01*
X74392025Y-31639771D01*
X74401204Y-31620365D01*
X74412240Y-31601952D01*
X74425028Y-31584709D01*
X74439444Y-31568803D01*
X74748803Y-31259444D01*
X74764709Y-31245028D01*
X74781952Y-31232240D01*
X74800365Y-31221204D01*
X74819771Y-31212025D01*
X74839983Y-31204793D01*
X74860807Y-31199577D01*
X74882042Y-31196427D01*
X74903483Y-31195374D01*
X74924924Y-31196427D01*
X74924924Y-31196427D01*
G37*
D12*
X74930000Y-31750000D03*
D11*
G36*
X73811230Y-32310121D02*
G01*
X73832465Y-32313271D01*
X73853289Y-32318487D01*
X73873501Y-32325719D01*
X73892907Y-32334898D01*
X73911320Y-32345934D01*
X73928563Y-32358722D01*
X73944469Y-32373138D01*
X74306862Y-32735531D01*
X74321278Y-32751437D01*
X74334066Y-32768680D01*
X74345102Y-32787093D01*
X74354281Y-32806499D01*
X74361513Y-32826711D01*
X74366729Y-32847535D01*
X74369879Y-32868770D01*
X74370932Y-32890211D01*
X74369879Y-32911652D01*
X74366729Y-32932887D01*
X74361513Y-32953711D01*
X74354281Y-32973923D01*
X74345102Y-32993329D01*
X74334066Y-33011742D01*
X74321278Y-33028985D01*
X74306862Y-33044891D01*
X73997503Y-33354250D01*
X73981597Y-33368666D01*
X73964354Y-33381454D01*
X73945941Y-33392490D01*
X73926535Y-33401669D01*
X73906323Y-33408901D01*
X73885499Y-33414117D01*
X73864264Y-33417267D01*
X73842823Y-33418320D01*
X73821382Y-33417267D01*
X73800147Y-33414117D01*
X73779323Y-33408901D01*
X73759111Y-33401669D01*
X73739705Y-33392490D01*
X73721292Y-33381454D01*
X73704049Y-33368666D01*
X73688143Y-33354250D01*
X73325750Y-32991857D01*
X73311334Y-32975951D01*
X73298546Y-32958708D01*
X73287510Y-32940295D01*
X73278331Y-32920889D01*
X73271099Y-32900677D01*
X73265883Y-32879853D01*
X73262733Y-32858618D01*
X73261680Y-32837177D01*
X73262733Y-32815736D01*
X73265883Y-32794501D01*
X73271099Y-32773677D01*
X73278331Y-32753465D01*
X73287510Y-32734059D01*
X73298546Y-32715646D01*
X73311334Y-32698403D01*
X73325750Y-32682497D01*
X73635109Y-32373138D01*
X73651015Y-32358722D01*
X73668258Y-32345934D01*
X73686671Y-32334898D01*
X73706077Y-32325719D01*
X73726289Y-32318487D01*
X73747113Y-32313271D01*
X73768348Y-32310121D01*
X73789789Y-32309068D01*
X73811230Y-32310121D01*
X73811230Y-32310121D01*
G37*
D12*
X73816306Y-32863694D03*
D11*
G36*
X59142691Y-38896053D02*
G01*
X59163926Y-38899203D01*
X59184750Y-38904419D01*
X59204962Y-38911651D01*
X59224368Y-38920830D01*
X59242781Y-38931866D01*
X59260024Y-38944654D01*
X59275930Y-38959070D01*
X59290346Y-38974976D01*
X59303134Y-38992219D01*
X59314170Y-39010632D01*
X59323349Y-39030038D01*
X59330581Y-39050250D01*
X59335797Y-39071074D01*
X59338947Y-39092309D01*
X59340000Y-39113750D01*
X59340000Y-39626250D01*
X59338947Y-39647691D01*
X59335797Y-39668926D01*
X59330581Y-39689750D01*
X59323349Y-39709962D01*
X59314170Y-39729368D01*
X59303134Y-39747781D01*
X59290346Y-39765024D01*
X59275930Y-39780930D01*
X59260024Y-39795346D01*
X59242781Y-39808134D01*
X59224368Y-39819170D01*
X59204962Y-39828349D01*
X59184750Y-39835581D01*
X59163926Y-39840797D01*
X59142691Y-39843947D01*
X59121250Y-39845000D01*
X58683750Y-39845000D01*
X58662309Y-39843947D01*
X58641074Y-39840797D01*
X58620250Y-39835581D01*
X58600038Y-39828349D01*
X58580632Y-39819170D01*
X58562219Y-39808134D01*
X58544976Y-39795346D01*
X58529070Y-39780930D01*
X58514654Y-39765024D01*
X58501866Y-39747781D01*
X58490830Y-39729368D01*
X58481651Y-39709962D01*
X58474419Y-39689750D01*
X58469203Y-39668926D01*
X58466053Y-39647691D01*
X58465000Y-39626250D01*
X58465000Y-39113750D01*
X58466053Y-39092309D01*
X58469203Y-39071074D01*
X58474419Y-39050250D01*
X58481651Y-39030038D01*
X58490830Y-39010632D01*
X58501866Y-38992219D01*
X58514654Y-38974976D01*
X58529070Y-38959070D01*
X58544976Y-38944654D01*
X58562219Y-38931866D01*
X58580632Y-38920830D01*
X58600038Y-38911651D01*
X58620250Y-38904419D01*
X58641074Y-38899203D01*
X58662309Y-38896053D01*
X58683750Y-38895000D01*
X59121250Y-38895000D01*
X59142691Y-38896053D01*
X59142691Y-38896053D01*
G37*
D12*
X58902500Y-39370000D03*
D11*
G36*
X60717691Y-38896053D02*
G01*
X60738926Y-38899203D01*
X60759750Y-38904419D01*
X60779962Y-38911651D01*
X60799368Y-38920830D01*
X60817781Y-38931866D01*
X60835024Y-38944654D01*
X60850930Y-38959070D01*
X60865346Y-38974976D01*
X60878134Y-38992219D01*
X60889170Y-39010632D01*
X60898349Y-39030038D01*
X60905581Y-39050250D01*
X60910797Y-39071074D01*
X60913947Y-39092309D01*
X60915000Y-39113750D01*
X60915000Y-39626250D01*
X60913947Y-39647691D01*
X60910797Y-39668926D01*
X60905581Y-39689750D01*
X60898349Y-39709962D01*
X60889170Y-39729368D01*
X60878134Y-39747781D01*
X60865346Y-39765024D01*
X60850930Y-39780930D01*
X60835024Y-39795346D01*
X60817781Y-39808134D01*
X60799368Y-39819170D01*
X60779962Y-39828349D01*
X60759750Y-39835581D01*
X60738926Y-39840797D01*
X60717691Y-39843947D01*
X60696250Y-39845000D01*
X60258750Y-39845000D01*
X60237309Y-39843947D01*
X60216074Y-39840797D01*
X60195250Y-39835581D01*
X60175038Y-39828349D01*
X60155632Y-39819170D01*
X60137219Y-39808134D01*
X60119976Y-39795346D01*
X60104070Y-39780930D01*
X60089654Y-39765024D01*
X60076866Y-39747781D01*
X60065830Y-39729368D01*
X60056651Y-39709962D01*
X60049419Y-39689750D01*
X60044203Y-39668926D01*
X60041053Y-39647691D01*
X60040000Y-39626250D01*
X60040000Y-39113750D01*
X60041053Y-39092309D01*
X60044203Y-39071074D01*
X60049419Y-39050250D01*
X60056651Y-39030038D01*
X60065830Y-39010632D01*
X60076866Y-38992219D01*
X60089654Y-38974976D01*
X60104070Y-38959070D01*
X60119976Y-38944654D01*
X60137219Y-38931866D01*
X60155632Y-38920830D01*
X60175038Y-38911651D01*
X60195250Y-38904419D01*
X60216074Y-38899203D01*
X60237309Y-38896053D01*
X60258750Y-38895000D01*
X60696250Y-38895000D01*
X60717691Y-38896053D01*
X60717691Y-38896053D01*
G37*
D12*
X60477500Y-39370000D03*
D11*
G36*
X59142691Y-41436053D02*
G01*
X59163926Y-41439203D01*
X59184750Y-41444419D01*
X59204962Y-41451651D01*
X59224368Y-41460830D01*
X59242781Y-41471866D01*
X59260024Y-41484654D01*
X59275930Y-41499070D01*
X59290346Y-41514976D01*
X59303134Y-41532219D01*
X59314170Y-41550632D01*
X59323349Y-41570038D01*
X59330581Y-41590250D01*
X59335797Y-41611074D01*
X59338947Y-41632309D01*
X59340000Y-41653750D01*
X59340000Y-42166250D01*
X59338947Y-42187691D01*
X59335797Y-42208926D01*
X59330581Y-42229750D01*
X59323349Y-42249962D01*
X59314170Y-42269368D01*
X59303134Y-42287781D01*
X59290346Y-42305024D01*
X59275930Y-42320930D01*
X59260024Y-42335346D01*
X59242781Y-42348134D01*
X59224368Y-42359170D01*
X59204962Y-42368349D01*
X59184750Y-42375581D01*
X59163926Y-42380797D01*
X59142691Y-42383947D01*
X59121250Y-42385000D01*
X58683750Y-42385000D01*
X58662309Y-42383947D01*
X58641074Y-42380797D01*
X58620250Y-42375581D01*
X58600038Y-42368349D01*
X58580632Y-42359170D01*
X58562219Y-42348134D01*
X58544976Y-42335346D01*
X58529070Y-42320930D01*
X58514654Y-42305024D01*
X58501866Y-42287781D01*
X58490830Y-42269368D01*
X58481651Y-42249962D01*
X58474419Y-42229750D01*
X58469203Y-42208926D01*
X58466053Y-42187691D01*
X58465000Y-42166250D01*
X58465000Y-41653750D01*
X58466053Y-41632309D01*
X58469203Y-41611074D01*
X58474419Y-41590250D01*
X58481651Y-41570038D01*
X58490830Y-41550632D01*
X58501866Y-41532219D01*
X58514654Y-41514976D01*
X58529070Y-41499070D01*
X58544976Y-41484654D01*
X58562219Y-41471866D01*
X58580632Y-41460830D01*
X58600038Y-41451651D01*
X58620250Y-41444419D01*
X58641074Y-41439203D01*
X58662309Y-41436053D01*
X58683750Y-41435000D01*
X59121250Y-41435000D01*
X59142691Y-41436053D01*
X59142691Y-41436053D01*
G37*
D12*
X58902500Y-41910000D03*
D11*
G36*
X60717691Y-41436053D02*
G01*
X60738926Y-41439203D01*
X60759750Y-41444419D01*
X60779962Y-41451651D01*
X60799368Y-41460830D01*
X60817781Y-41471866D01*
X60835024Y-41484654D01*
X60850930Y-41499070D01*
X60865346Y-41514976D01*
X60878134Y-41532219D01*
X60889170Y-41550632D01*
X60898349Y-41570038D01*
X60905581Y-41590250D01*
X60910797Y-41611074D01*
X60913947Y-41632309D01*
X60915000Y-41653750D01*
X60915000Y-42166250D01*
X60913947Y-42187691D01*
X60910797Y-42208926D01*
X60905581Y-42229750D01*
X60898349Y-42249962D01*
X60889170Y-42269368D01*
X60878134Y-42287781D01*
X60865346Y-42305024D01*
X60850930Y-42320930D01*
X60835024Y-42335346D01*
X60817781Y-42348134D01*
X60799368Y-42359170D01*
X60779962Y-42368349D01*
X60759750Y-42375581D01*
X60738926Y-42380797D01*
X60717691Y-42383947D01*
X60696250Y-42385000D01*
X60258750Y-42385000D01*
X60237309Y-42383947D01*
X60216074Y-42380797D01*
X60195250Y-42375581D01*
X60175038Y-42368349D01*
X60155632Y-42359170D01*
X60137219Y-42348134D01*
X60119976Y-42335346D01*
X60104070Y-42320930D01*
X60089654Y-42305024D01*
X60076866Y-42287781D01*
X60065830Y-42269368D01*
X60056651Y-42249962D01*
X60049419Y-42229750D01*
X60044203Y-42208926D01*
X60041053Y-42187691D01*
X60040000Y-42166250D01*
X60040000Y-41653750D01*
X60041053Y-41632309D01*
X60044203Y-41611074D01*
X60049419Y-41590250D01*
X60056651Y-41570038D01*
X60065830Y-41550632D01*
X60076866Y-41532219D01*
X60089654Y-41514976D01*
X60104070Y-41499070D01*
X60119976Y-41484654D01*
X60137219Y-41471866D01*
X60155632Y-41460830D01*
X60175038Y-41451651D01*
X60195250Y-41444419D01*
X60216074Y-41439203D01*
X60237309Y-41436053D01*
X60258750Y-41435000D01*
X60696250Y-41435000D01*
X60717691Y-41436053D01*
X60717691Y-41436053D01*
G37*
D12*
X60477500Y-41910000D03*
M02*
