G04 #@! TF.GenerationSoftware,KiCad,Pcbnew,(5.1.2)-1*
G04 #@! TF.CreationDate,2019-08-24T20:09:31-04:00*
G04 #@! TF.ProjectId,REV Type-C V3,52455620-5479-4706-952d-432056332e6b,rev?*
G04 #@! TF.SameCoordinates,Original*
G04 #@! TF.FileFunction,Paste,Bot*
G04 #@! TF.FilePolarity,Positive*
%FSLAX46Y46*%
G04 Gerber Fmt 4.6, Leading zero omitted, Abs format (unit mm)*
G04 Created by KiCad (PCBNEW (5.1.2)-1) date 2019-08-24 20:09:31*
%MOMM*%
%LPD*%
G04 APERTURE LIST*
%ADD10C,0.100000*%
%ADD11C,0.875000*%
%ADD12R,0.900000X0.800000*%
G04 APERTURE END LIST*
D10*
G36*
X126807681Y-79796379D02*
G01*
X126828916Y-79799529D01*
X126849740Y-79804745D01*
X126869952Y-79811977D01*
X126889358Y-79821156D01*
X126907771Y-79832192D01*
X126925014Y-79844980D01*
X126940920Y-79859396D01*
X126955336Y-79875302D01*
X126968124Y-79892545D01*
X126979160Y-79910958D01*
X126988339Y-79930364D01*
X126995571Y-79950576D01*
X127000787Y-79971400D01*
X127003937Y-79992635D01*
X127004990Y-80014076D01*
X127004990Y-80451576D01*
X127003937Y-80473017D01*
X127000787Y-80494252D01*
X126995571Y-80515076D01*
X126988339Y-80535288D01*
X126979160Y-80554694D01*
X126968124Y-80573107D01*
X126955336Y-80590350D01*
X126940920Y-80606256D01*
X126925014Y-80620672D01*
X126907771Y-80633460D01*
X126889358Y-80644496D01*
X126869952Y-80653675D01*
X126849740Y-80660907D01*
X126828916Y-80666123D01*
X126807681Y-80669273D01*
X126786240Y-80670326D01*
X126273740Y-80670326D01*
X126252299Y-80669273D01*
X126231064Y-80666123D01*
X126210240Y-80660907D01*
X126190028Y-80653675D01*
X126170622Y-80644496D01*
X126152209Y-80633460D01*
X126134966Y-80620672D01*
X126119060Y-80606256D01*
X126104644Y-80590350D01*
X126091856Y-80573107D01*
X126080820Y-80554694D01*
X126071641Y-80535288D01*
X126064409Y-80515076D01*
X126059193Y-80494252D01*
X126056043Y-80473017D01*
X126054990Y-80451576D01*
X126054990Y-80014076D01*
X126056043Y-79992635D01*
X126059193Y-79971400D01*
X126064409Y-79950576D01*
X126071641Y-79930364D01*
X126080820Y-79910958D01*
X126091856Y-79892545D01*
X126104644Y-79875302D01*
X126119060Y-79859396D01*
X126134966Y-79844980D01*
X126152209Y-79832192D01*
X126170622Y-79821156D01*
X126190028Y-79811977D01*
X126210240Y-79804745D01*
X126231064Y-79799529D01*
X126252299Y-79796379D01*
X126273740Y-79795326D01*
X126786240Y-79795326D01*
X126807681Y-79796379D01*
X126807681Y-79796379D01*
G37*
D11*
X126529990Y-80232826D03*
D10*
G36*
X126807681Y-78221379D02*
G01*
X126828916Y-78224529D01*
X126849740Y-78229745D01*
X126869952Y-78236977D01*
X126889358Y-78246156D01*
X126907771Y-78257192D01*
X126925014Y-78269980D01*
X126940920Y-78284396D01*
X126955336Y-78300302D01*
X126968124Y-78317545D01*
X126979160Y-78335958D01*
X126988339Y-78355364D01*
X126995571Y-78375576D01*
X127000787Y-78396400D01*
X127003937Y-78417635D01*
X127004990Y-78439076D01*
X127004990Y-78876576D01*
X127003937Y-78898017D01*
X127000787Y-78919252D01*
X126995571Y-78940076D01*
X126988339Y-78960288D01*
X126979160Y-78979694D01*
X126968124Y-78998107D01*
X126955336Y-79015350D01*
X126940920Y-79031256D01*
X126925014Y-79045672D01*
X126907771Y-79058460D01*
X126889358Y-79069496D01*
X126869952Y-79078675D01*
X126849740Y-79085907D01*
X126828916Y-79091123D01*
X126807681Y-79094273D01*
X126786240Y-79095326D01*
X126273740Y-79095326D01*
X126252299Y-79094273D01*
X126231064Y-79091123D01*
X126210240Y-79085907D01*
X126190028Y-79078675D01*
X126170622Y-79069496D01*
X126152209Y-79058460D01*
X126134966Y-79045672D01*
X126119060Y-79031256D01*
X126104644Y-79015350D01*
X126091856Y-78998107D01*
X126080820Y-78979694D01*
X126071641Y-78960288D01*
X126064409Y-78940076D01*
X126059193Y-78919252D01*
X126056043Y-78898017D01*
X126054990Y-78876576D01*
X126054990Y-78439076D01*
X126056043Y-78417635D01*
X126059193Y-78396400D01*
X126064409Y-78375576D01*
X126071641Y-78355364D01*
X126080820Y-78335958D01*
X126091856Y-78317545D01*
X126104644Y-78300302D01*
X126119060Y-78284396D01*
X126134966Y-78269980D01*
X126152209Y-78257192D01*
X126170622Y-78246156D01*
X126190028Y-78236977D01*
X126210240Y-78229745D01*
X126231064Y-78224529D01*
X126252299Y-78221379D01*
X126273740Y-78220326D01*
X126786240Y-78220326D01*
X126807681Y-78221379D01*
X126807681Y-78221379D01*
G37*
D11*
X126529990Y-78657826D03*
D10*
G36*
X128411111Y-78279580D02*
G01*
X128432346Y-78282730D01*
X128453170Y-78287946D01*
X128473382Y-78295178D01*
X128492788Y-78304357D01*
X128511201Y-78315393D01*
X128528444Y-78328181D01*
X128544350Y-78342597D01*
X128853709Y-78651956D01*
X128868125Y-78667862D01*
X128880913Y-78685105D01*
X128891949Y-78703518D01*
X128901128Y-78722924D01*
X128908360Y-78743136D01*
X128913576Y-78763960D01*
X128916726Y-78785195D01*
X128917779Y-78806636D01*
X128916726Y-78828077D01*
X128913576Y-78849312D01*
X128908360Y-78870136D01*
X128901128Y-78890348D01*
X128891949Y-78909754D01*
X128880913Y-78928167D01*
X128868125Y-78945410D01*
X128853709Y-78961316D01*
X128491316Y-79323709D01*
X128475410Y-79338125D01*
X128458167Y-79350913D01*
X128439754Y-79361949D01*
X128420348Y-79371128D01*
X128400136Y-79378360D01*
X128379312Y-79383576D01*
X128358077Y-79386726D01*
X128336636Y-79387779D01*
X128315195Y-79386726D01*
X128293960Y-79383576D01*
X128273136Y-79378360D01*
X128252924Y-79371128D01*
X128233518Y-79361949D01*
X128215105Y-79350913D01*
X128197862Y-79338125D01*
X128181956Y-79323709D01*
X127872597Y-79014350D01*
X127858181Y-78998444D01*
X127845393Y-78981201D01*
X127834357Y-78962788D01*
X127825178Y-78943382D01*
X127817946Y-78923170D01*
X127812730Y-78902346D01*
X127809580Y-78881111D01*
X127808527Y-78859670D01*
X127809580Y-78838229D01*
X127812730Y-78816994D01*
X127817946Y-78796170D01*
X127825178Y-78775958D01*
X127834357Y-78756552D01*
X127845393Y-78738139D01*
X127858181Y-78720896D01*
X127872597Y-78704990D01*
X128234990Y-78342597D01*
X128250896Y-78328181D01*
X128268139Y-78315393D01*
X128286552Y-78304357D01*
X128305958Y-78295178D01*
X128326170Y-78287946D01*
X128346994Y-78282730D01*
X128368229Y-78279580D01*
X128389670Y-78278527D01*
X128411111Y-78279580D01*
X128411111Y-78279580D01*
G37*
D11*
X128363153Y-78833153D03*
D10*
G36*
X129524805Y-79393274D02*
G01*
X129546040Y-79396424D01*
X129566864Y-79401640D01*
X129587076Y-79408872D01*
X129606482Y-79418051D01*
X129624895Y-79429087D01*
X129642138Y-79441875D01*
X129658044Y-79456291D01*
X129967403Y-79765650D01*
X129981819Y-79781556D01*
X129994607Y-79798799D01*
X130005643Y-79817212D01*
X130014822Y-79836618D01*
X130022054Y-79856830D01*
X130027270Y-79877654D01*
X130030420Y-79898889D01*
X130031473Y-79920330D01*
X130030420Y-79941771D01*
X130027270Y-79963006D01*
X130022054Y-79983830D01*
X130014822Y-80004042D01*
X130005643Y-80023448D01*
X129994607Y-80041861D01*
X129981819Y-80059104D01*
X129967403Y-80075010D01*
X129605010Y-80437403D01*
X129589104Y-80451819D01*
X129571861Y-80464607D01*
X129553448Y-80475643D01*
X129534042Y-80484822D01*
X129513830Y-80492054D01*
X129493006Y-80497270D01*
X129471771Y-80500420D01*
X129450330Y-80501473D01*
X129428889Y-80500420D01*
X129407654Y-80497270D01*
X129386830Y-80492054D01*
X129366618Y-80484822D01*
X129347212Y-80475643D01*
X129328799Y-80464607D01*
X129311556Y-80451819D01*
X129295650Y-80437403D01*
X128986291Y-80128044D01*
X128971875Y-80112138D01*
X128959087Y-80094895D01*
X128948051Y-80076482D01*
X128938872Y-80057076D01*
X128931640Y-80036864D01*
X128926424Y-80016040D01*
X128923274Y-79994805D01*
X128922221Y-79973364D01*
X128923274Y-79951923D01*
X128926424Y-79930688D01*
X128931640Y-79909864D01*
X128938872Y-79889652D01*
X128948051Y-79870246D01*
X128959087Y-79851833D01*
X128971875Y-79834590D01*
X128986291Y-79818684D01*
X129348684Y-79456291D01*
X129364590Y-79441875D01*
X129381833Y-79429087D01*
X129400246Y-79418051D01*
X129419652Y-79408872D01*
X129439864Y-79401640D01*
X129460688Y-79396424D01*
X129481923Y-79393274D01*
X129503364Y-79392221D01*
X129524805Y-79393274D01*
X129524805Y-79393274D01*
G37*
D11*
X129476847Y-79946847D03*
D10*
G36*
X123430191Y-76496053D02*
G01*
X123451426Y-76499203D01*
X123472250Y-76504419D01*
X123492462Y-76511651D01*
X123511868Y-76520830D01*
X123530281Y-76531866D01*
X123547524Y-76544654D01*
X123563430Y-76559070D01*
X123577846Y-76574976D01*
X123590634Y-76592219D01*
X123601670Y-76610632D01*
X123610849Y-76630038D01*
X123618081Y-76650250D01*
X123623297Y-76671074D01*
X123626447Y-76692309D01*
X123627500Y-76713750D01*
X123627500Y-77226250D01*
X123626447Y-77247691D01*
X123623297Y-77268926D01*
X123618081Y-77289750D01*
X123610849Y-77309962D01*
X123601670Y-77329368D01*
X123590634Y-77347781D01*
X123577846Y-77365024D01*
X123563430Y-77380930D01*
X123547524Y-77395346D01*
X123530281Y-77408134D01*
X123511868Y-77419170D01*
X123492462Y-77428349D01*
X123472250Y-77435581D01*
X123451426Y-77440797D01*
X123430191Y-77443947D01*
X123408750Y-77445000D01*
X122971250Y-77445000D01*
X122949809Y-77443947D01*
X122928574Y-77440797D01*
X122907750Y-77435581D01*
X122887538Y-77428349D01*
X122868132Y-77419170D01*
X122849719Y-77408134D01*
X122832476Y-77395346D01*
X122816570Y-77380930D01*
X122802154Y-77365024D01*
X122789366Y-77347781D01*
X122778330Y-77329368D01*
X122769151Y-77309962D01*
X122761919Y-77289750D01*
X122756703Y-77268926D01*
X122753553Y-77247691D01*
X122752500Y-77226250D01*
X122752500Y-76713750D01*
X122753553Y-76692309D01*
X122756703Y-76671074D01*
X122761919Y-76650250D01*
X122769151Y-76630038D01*
X122778330Y-76610632D01*
X122789366Y-76592219D01*
X122802154Y-76574976D01*
X122816570Y-76559070D01*
X122832476Y-76544654D01*
X122849719Y-76531866D01*
X122868132Y-76520830D01*
X122887538Y-76511651D01*
X122907750Y-76504419D01*
X122928574Y-76499203D01*
X122949809Y-76496053D01*
X122971250Y-76495000D01*
X123408750Y-76495000D01*
X123430191Y-76496053D01*
X123430191Y-76496053D01*
G37*
D11*
X123190000Y-76970000D03*
D10*
G36*
X125005191Y-76496053D02*
G01*
X125026426Y-76499203D01*
X125047250Y-76504419D01*
X125067462Y-76511651D01*
X125086868Y-76520830D01*
X125105281Y-76531866D01*
X125122524Y-76544654D01*
X125138430Y-76559070D01*
X125152846Y-76574976D01*
X125165634Y-76592219D01*
X125176670Y-76610632D01*
X125185849Y-76630038D01*
X125193081Y-76650250D01*
X125198297Y-76671074D01*
X125201447Y-76692309D01*
X125202500Y-76713750D01*
X125202500Y-77226250D01*
X125201447Y-77247691D01*
X125198297Y-77268926D01*
X125193081Y-77289750D01*
X125185849Y-77309962D01*
X125176670Y-77329368D01*
X125165634Y-77347781D01*
X125152846Y-77365024D01*
X125138430Y-77380930D01*
X125122524Y-77395346D01*
X125105281Y-77408134D01*
X125086868Y-77419170D01*
X125067462Y-77428349D01*
X125047250Y-77435581D01*
X125026426Y-77440797D01*
X125005191Y-77443947D01*
X124983750Y-77445000D01*
X124546250Y-77445000D01*
X124524809Y-77443947D01*
X124503574Y-77440797D01*
X124482750Y-77435581D01*
X124462538Y-77428349D01*
X124443132Y-77419170D01*
X124424719Y-77408134D01*
X124407476Y-77395346D01*
X124391570Y-77380930D01*
X124377154Y-77365024D01*
X124364366Y-77347781D01*
X124353330Y-77329368D01*
X124344151Y-77309962D01*
X124336919Y-77289750D01*
X124331703Y-77268926D01*
X124328553Y-77247691D01*
X124327500Y-77226250D01*
X124327500Y-76713750D01*
X124328553Y-76692309D01*
X124331703Y-76671074D01*
X124336919Y-76650250D01*
X124344151Y-76630038D01*
X124353330Y-76610632D01*
X124364366Y-76592219D01*
X124377154Y-76574976D01*
X124391570Y-76559070D01*
X124407476Y-76544654D01*
X124424719Y-76531866D01*
X124443132Y-76520830D01*
X124462538Y-76511651D01*
X124482750Y-76504419D01*
X124503574Y-76499203D01*
X124524809Y-76496053D01*
X124546250Y-76495000D01*
X124983750Y-76495000D01*
X125005191Y-76496053D01*
X125005191Y-76496053D01*
G37*
D11*
X124765000Y-76970000D03*
D10*
G36*
X130030191Y-76446053D02*
G01*
X130051426Y-76449203D01*
X130072250Y-76454419D01*
X130092462Y-76461651D01*
X130111868Y-76470830D01*
X130130281Y-76481866D01*
X130147524Y-76494654D01*
X130163430Y-76509070D01*
X130177846Y-76524976D01*
X130190634Y-76542219D01*
X130201670Y-76560632D01*
X130210849Y-76580038D01*
X130218081Y-76600250D01*
X130223297Y-76621074D01*
X130226447Y-76642309D01*
X130227500Y-76663750D01*
X130227500Y-77176250D01*
X130226447Y-77197691D01*
X130223297Y-77218926D01*
X130218081Y-77239750D01*
X130210849Y-77259962D01*
X130201670Y-77279368D01*
X130190634Y-77297781D01*
X130177846Y-77315024D01*
X130163430Y-77330930D01*
X130147524Y-77345346D01*
X130130281Y-77358134D01*
X130111868Y-77369170D01*
X130092462Y-77378349D01*
X130072250Y-77385581D01*
X130051426Y-77390797D01*
X130030191Y-77393947D01*
X130008750Y-77395000D01*
X129571250Y-77395000D01*
X129549809Y-77393947D01*
X129528574Y-77390797D01*
X129507750Y-77385581D01*
X129487538Y-77378349D01*
X129468132Y-77369170D01*
X129449719Y-77358134D01*
X129432476Y-77345346D01*
X129416570Y-77330930D01*
X129402154Y-77315024D01*
X129389366Y-77297781D01*
X129378330Y-77279368D01*
X129369151Y-77259962D01*
X129361919Y-77239750D01*
X129356703Y-77218926D01*
X129353553Y-77197691D01*
X129352500Y-77176250D01*
X129352500Y-76663750D01*
X129353553Y-76642309D01*
X129356703Y-76621074D01*
X129361919Y-76600250D01*
X129369151Y-76580038D01*
X129378330Y-76560632D01*
X129389366Y-76542219D01*
X129402154Y-76524976D01*
X129416570Y-76509070D01*
X129432476Y-76494654D01*
X129449719Y-76481866D01*
X129468132Y-76470830D01*
X129487538Y-76461651D01*
X129507750Y-76454419D01*
X129528574Y-76449203D01*
X129549809Y-76446053D01*
X129571250Y-76445000D01*
X130008750Y-76445000D01*
X130030191Y-76446053D01*
X130030191Y-76446053D01*
G37*
D11*
X129790000Y-76920000D03*
D10*
G36*
X128455191Y-76446053D02*
G01*
X128476426Y-76449203D01*
X128497250Y-76454419D01*
X128517462Y-76461651D01*
X128536868Y-76470830D01*
X128555281Y-76481866D01*
X128572524Y-76494654D01*
X128588430Y-76509070D01*
X128602846Y-76524976D01*
X128615634Y-76542219D01*
X128626670Y-76560632D01*
X128635849Y-76580038D01*
X128643081Y-76600250D01*
X128648297Y-76621074D01*
X128651447Y-76642309D01*
X128652500Y-76663750D01*
X128652500Y-77176250D01*
X128651447Y-77197691D01*
X128648297Y-77218926D01*
X128643081Y-77239750D01*
X128635849Y-77259962D01*
X128626670Y-77279368D01*
X128615634Y-77297781D01*
X128602846Y-77315024D01*
X128588430Y-77330930D01*
X128572524Y-77345346D01*
X128555281Y-77358134D01*
X128536868Y-77369170D01*
X128517462Y-77378349D01*
X128497250Y-77385581D01*
X128476426Y-77390797D01*
X128455191Y-77393947D01*
X128433750Y-77395000D01*
X127996250Y-77395000D01*
X127974809Y-77393947D01*
X127953574Y-77390797D01*
X127932750Y-77385581D01*
X127912538Y-77378349D01*
X127893132Y-77369170D01*
X127874719Y-77358134D01*
X127857476Y-77345346D01*
X127841570Y-77330930D01*
X127827154Y-77315024D01*
X127814366Y-77297781D01*
X127803330Y-77279368D01*
X127794151Y-77259962D01*
X127786919Y-77239750D01*
X127781703Y-77218926D01*
X127778553Y-77197691D01*
X127777500Y-77176250D01*
X127777500Y-76663750D01*
X127778553Y-76642309D01*
X127781703Y-76621074D01*
X127786919Y-76600250D01*
X127794151Y-76580038D01*
X127803330Y-76560632D01*
X127814366Y-76542219D01*
X127827154Y-76524976D01*
X127841570Y-76509070D01*
X127857476Y-76494654D01*
X127874719Y-76481866D01*
X127893132Y-76470830D01*
X127912538Y-76461651D01*
X127932750Y-76454419D01*
X127953574Y-76449203D01*
X127974809Y-76446053D01*
X127996250Y-76445000D01*
X128433750Y-76445000D01*
X128455191Y-76446053D01*
X128455191Y-76446053D01*
G37*
D11*
X128215000Y-76920000D03*
D10*
G36*
X115327691Y-76996053D02*
G01*
X115348926Y-76999203D01*
X115369750Y-77004419D01*
X115389962Y-77011651D01*
X115409368Y-77020830D01*
X115427781Y-77031866D01*
X115445024Y-77044654D01*
X115460930Y-77059070D01*
X115475346Y-77074976D01*
X115488134Y-77092219D01*
X115499170Y-77110632D01*
X115508349Y-77130038D01*
X115515581Y-77150250D01*
X115520797Y-77171074D01*
X115523947Y-77192309D01*
X115525000Y-77213750D01*
X115525000Y-77726250D01*
X115523947Y-77747691D01*
X115520797Y-77768926D01*
X115515581Y-77789750D01*
X115508349Y-77809962D01*
X115499170Y-77829368D01*
X115488134Y-77847781D01*
X115475346Y-77865024D01*
X115460930Y-77880930D01*
X115445024Y-77895346D01*
X115427781Y-77908134D01*
X115409368Y-77919170D01*
X115389962Y-77928349D01*
X115369750Y-77935581D01*
X115348926Y-77940797D01*
X115327691Y-77943947D01*
X115306250Y-77945000D01*
X114868750Y-77945000D01*
X114847309Y-77943947D01*
X114826074Y-77940797D01*
X114805250Y-77935581D01*
X114785038Y-77928349D01*
X114765632Y-77919170D01*
X114747219Y-77908134D01*
X114729976Y-77895346D01*
X114714070Y-77880930D01*
X114699654Y-77865024D01*
X114686866Y-77847781D01*
X114675830Y-77829368D01*
X114666651Y-77809962D01*
X114659419Y-77789750D01*
X114654203Y-77768926D01*
X114651053Y-77747691D01*
X114650000Y-77726250D01*
X114650000Y-77213750D01*
X114651053Y-77192309D01*
X114654203Y-77171074D01*
X114659419Y-77150250D01*
X114666651Y-77130038D01*
X114675830Y-77110632D01*
X114686866Y-77092219D01*
X114699654Y-77074976D01*
X114714070Y-77059070D01*
X114729976Y-77044654D01*
X114747219Y-77031866D01*
X114765632Y-77020830D01*
X114785038Y-77011651D01*
X114805250Y-77004419D01*
X114826074Y-76999203D01*
X114847309Y-76996053D01*
X114868750Y-76995000D01*
X115306250Y-76995000D01*
X115327691Y-76996053D01*
X115327691Y-76996053D01*
G37*
D11*
X115087500Y-77470000D03*
D10*
G36*
X113752691Y-76996053D02*
G01*
X113773926Y-76999203D01*
X113794750Y-77004419D01*
X113814962Y-77011651D01*
X113834368Y-77020830D01*
X113852781Y-77031866D01*
X113870024Y-77044654D01*
X113885930Y-77059070D01*
X113900346Y-77074976D01*
X113913134Y-77092219D01*
X113924170Y-77110632D01*
X113933349Y-77130038D01*
X113940581Y-77150250D01*
X113945797Y-77171074D01*
X113948947Y-77192309D01*
X113950000Y-77213750D01*
X113950000Y-77726250D01*
X113948947Y-77747691D01*
X113945797Y-77768926D01*
X113940581Y-77789750D01*
X113933349Y-77809962D01*
X113924170Y-77829368D01*
X113913134Y-77847781D01*
X113900346Y-77865024D01*
X113885930Y-77880930D01*
X113870024Y-77895346D01*
X113852781Y-77908134D01*
X113834368Y-77919170D01*
X113814962Y-77928349D01*
X113794750Y-77935581D01*
X113773926Y-77940797D01*
X113752691Y-77943947D01*
X113731250Y-77945000D01*
X113293750Y-77945000D01*
X113272309Y-77943947D01*
X113251074Y-77940797D01*
X113230250Y-77935581D01*
X113210038Y-77928349D01*
X113190632Y-77919170D01*
X113172219Y-77908134D01*
X113154976Y-77895346D01*
X113139070Y-77880930D01*
X113124654Y-77865024D01*
X113111866Y-77847781D01*
X113100830Y-77829368D01*
X113091651Y-77809962D01*
X113084419Y-77789750D01*
X113079203Y-77768926D01*
X113076053Y-77747691D01*
X113075000Y-77726250D01*
X113075000Y-77213750D01*
X113076053Y-77192309D01*
X113079203Y-77171074D01*
X113084419Y-77150250D01*
X113091651Y-77130038D01*
X113100830Y-77110632D01*
X113111866Y-77092219D01*
X113124654Y-77074976D01*
X113139070Y-77059070D01*
X113154976Y-77044654D01*
X113172219Y-77031866D01*
X113190632Y-77020830D01*
X113210038Y-77011651D01*
X113230250Y-77004419D01*
X113251074Y-76999203D01*
X113272309Y-76996053D01*
X113293750Y-76995000D01*
X113731250Y-76995000D01*
X113752691Y-76996053D01*
X113752691Y-76996053D01*
G37*
D11*
X113512500Y-77470000D03*
D10*
G36*
X115327691Y-75243553D02*
G01*
X115348926Y-75246703D01*
X115369750Y-75251919D01*
X115389962Y-75259151D01*
X115409368Y-75268330D01*
X115427781Y-75279366D01*
X115445024Y-75292154D01*
X115460930Y-75306570D01*
X115475346Y-75322476D01*
X115488134Y-75339719D01*
X115499170Y-75358132D01*
X115508349Y-75377538D01*
X115515581Y-75397750D01*
X115520797Y-75418574D01*
X115523947Y-75439809D01*
X115525000Y-75461250D01*
X115525000Y-75973750D01*
X115523947Y-75995191D01*
X115520797Y-76016426D01*
X115515581Y-76037250D01*
X115508349Y-76057462D01*
X115499170Y-76076868D01*
X115488134Y-76095281D01*
X115475346Y-76112524D01*
X115460930Y-76128430D01*
X115445024Y-76142846D01*
X115427781Y-76155634D01*
X115409368Y-76166670D01*
X115389962Y-76175849D01*
X115369750Y-76183081D01*
X115348926Y-76188297D01*
X115327691Y-76191447D01*
X115306250Y-76192500D01*
X114868750Y-76192500D01*
X114847309Y-76191447D01*
X114826074Y-76188297D01*
X114805250Y-76183081D01*
X114785038Y-76175849D01*
X114765632Y-76166670D01*
X114747219Y-76155634D01*
X114729976Y-76142846D01*
X114714070Y-76128430D01*
X114699654Y-76112524D01*
X114686866Y-76095281D01*
X114675830Y-76076868D01*
X114666651Y-76057462D01*
X114659419Y-76037250D01*
X114654203Y-76016426D01*
X114651053Y-75995191D01*
X114650000Y-75973750D01*
X114650000Y-75461250D01*
X114651053Y-75439809D01*
X114654203Y-75418574D01*
X114659419Y-75397750D01*
X114666651Y-75377538D01*
X114675830Y-75358132D01*
X114686866Y-75339719D01*
X114699654Y-75322476D01*
X114714070Y-75306570D01*
X114729976Y-75292154D01*
X114747219Y-75279366D01*
X114765632Y-75268330D01*
X114785038Y-75259151D01*
X114805250Y-75251919D01*
X114826074Y-75246703D01*
X114847309Y-75243553D01*
X114868750Y-75242500D01*
X115306250Y-75242500D01*
X115327691Y-75243553D01*
X115327691Y-75243553D01*
G37*
D11*
X115087500Y-75717500D03*
D10*
G36*
X113752691Y-75243553D02*
G01*
X113773926Y-75246703D01*
X113794750Y-75251919D01*
X113814962Y-75259151D01*
X113834368Y-75268330D01*
X113852781Y-75279366D01*
X113870024Y-75292154D01*
X113885930Y-75306570D01*
X113900346Y-75322476D01*
X113913134Y-75339719D01*
X113924170Y-75358132D01*
X113933349Y-75377538D01*
X113940581Y-75397750D01*
X113945797Y-75418574D01*
X113948947Y-75439809D01*
X113950000Y-75461250D01*
X113950000Y-75973750D01*
X113948947Y-75995191D01*
X113945797Y-76016426D01*
X113940581Y-76037250D01*
X113933349Y-76057462D01*
X113924170Y-76076868D01*
X113913134Y-76095281D01*
X113900346Y-76112524D01*
X113885930Y-76128430D01*
X113870024Y-76142846D01*
X113852781Y-76155634D01*
X113834368Y-76166670D01*
X113814962Y-76175849D01*
X113794750Y-76183081D01*
X113773926Y-76188297D01*
X113752691Y-76191447D01*
X113731250Y-76192500D01*
X113293750Y-76192500D01*
X113272309Y-76191447D01*
X113251074Y-76188297D01*
X113230250Y-76183081D01*
X113210038Y-76175849D01*
X113190632Y-76166670D01*
X113172219Y-76155634D01*
X113154976Y-76142846D01*
X113139070Y-76128430D01*
X113124654Y-76112524D01*
X113111866Y-76095281D01*
X113100830Y-76076868D01*
X113091651Y-76057462D01*
X113084419Y-76037250D01*
X113079203Y-76016426D01*
X113076053Y-75995191D01*
X113075000Y-75973750D01*
X113075000Y-75461250D01*
X113076053Y-75439809D01*
X113079203Y-75418574D01*
X113084419Y-75397750D01*
X113091651Y-75377538D01*
X113100830Y-75358132D01*
X113111866Y-75339719D01*
X113124654Y-75322476D01*
X113139070Y-75306570D01*
X113154976Y-75292154D01*
X113172219Y-75279366D01*
X113190632Y-75268330D01*
X113210038Y-75259151D01*
X113230250Y-75251919D01*
X113251074Y-75246703D01*
X113272309Y-75243553D01*
X113293750Y-75242500D01*
X113731250Y-75242500D01*
X113752691Y-75243553D01*
X113752691Y-75243553D01*
G37*
D11*
X113512500Y-75717500D03*
D10*
G36*
X123451111Y-73337080D02*
G01*
X123472346Y-73340230D01*
X123493170Y-73345446D01*
X123513382Y-73352678D01*
X123532788Y-73361857D01*
X123551201Y-73372893D01*
X123568444Y-73385681D01*
X123584350Y-73400097D01*
X123893709Y-73709456D01*
X123908125Y-73725362D01*
X123920913Y-73742605D01*
X123931949Y-73761018D01*
X123941128Y-73780424D01*
X123948360Y-73800636D01*
X123953576Y-73821460D01*
X123956726Y-73842695D01*
X123957779Y-73864136D01*
X123956726Y-73885577D01*
X123953576Y-73906812D01*
X123948360Y-73927636D01*
X123941128Y-73947848D01*
X123931949Y-73967254D01*
X123920913Y-73985667D01*
X123908125Y-74002910D01*
X123893709Y-74018816D01*
X123531316Y-74381209D01*
X123515410Y-74395625D01*
X123498167Y-74408413D01*
X123479754Y-74419449D01*
X123460348Y-74428628D01*
X123440136Y-74435860D01*
X123419312Y-74441076D01*
X123398077Y-74444226D01*
X123376636Y-74445279D01*
X123355195Y-74444226D01*
X123333960Y-74441076D01*
X123313136Y-74435860D01*
X123292924Y-74428628D01*
X123273518Y-74419449D01*
X123255105Y-74408413D01*
X123237862Y-74395625D01*
X123221956Y-74381209D01*
X122912597Y-74071850D01*
X122898181Y-74055944D01*
X122885393Y-74038701D01*
X122874357Y-74020288D01*
X122865178Y-74000882D01*
X122857946Y-73980670D01*
X122852730Y-73959846D01*
X122849580Y-73938611D01*
X122848527Y-73917170D01*
X122849580Y-73895729D01*
X122852730Y-73874494D01*
X122857946Y-73853670D01*
X122865178Y-73833458D01*
X122874357Y-73814052D01*
X122885393Y-73795639D01*
X122898181Y-73778396D01*
X122912597Y-73762490D01*
X123274990Y-73400097D01*
X123290896Y-73385681D01*
X123308139Y-73372893D01*
X123326552Y-73361857D01*
X123345958Y-73352678D01*
X123366170Y-73345446D01*
X123386994Y-73340230D01*
X123408229Y-73337080D01*
X123429670Y-73336027D01*
X123451111Y-73337080D01*
X123451111Y-73337080D01*
G37*
D11*
X123403153Y-73890653D03*
D10*
G36*
X124564805Y-74450774D02*
G01*
X124586040Y-74453924D01*
X124606864Y-74459140D01*
X124627076Y-74466372D01*
X124646482Y-74475551D01*
X124664895Y-74486587D01*
X124682138Y-74499375D01*
X124698044Y-74513791D01*
X125007403Y-74823150D01*
X125021819Y-74839056D01*
X125034607Y-74856299D01*
X125045643Y-74874712D01*
X125054822Y-74894118D01*
X125062054Y-74914330D01*
X125067270Y-74935154D01*
X125070420Y-74956389D01*
X125071473Y-74977830D01*
X125070420Y-74999271D01*
X125067270Y-75020506D01*
X125062054Y-75041330D01*
X125054822Y-75061542D01*
X125045643Y-75080948D01*
X125034607Y-75099361D01*
X125021819Y-75116604D01*
X125007403Y-75132510D01*
X124645010Y-75494903D01*
X124629104Y-75509319D01*
X124611861Y-75522107D01*
X124593448Y-75533143D01*
X124574042Y-75542322D01*
X124553830Y-75549554D01*
X124533006Y-75554770D01*
X124511771Y-75557920D01*
X124490330Y-75558973D01*
X124468889Y-75557920D01*
X124447654Y-75554770D01*
X124426830Y-75549554D01*
X124406618Y-75542322D01*
X124387212Y-75533143D01*
X124368799Y-75522107D01*
X124351556Y-75509319D01*
X124335650Y-75494903D01*
X124026291Y-75185544D01*
X124011875Y-75169638D01*
X123999087Y-75152395D01*
X123988051Y-75133982D01*
X123978872Y-75114576D01*
X123971640Y-75094364D01*
X123966424Y-75073540D01*
X123963274Y-75052305D01*
X123962221Y-75030864D01*
X123963274Y-75009423D01*
X123966424Y-74988188D01*
X123971640Y-74967364D01*
X123978872Y-74947152D01*
X123988051Y-74927746D01*
X123999087Y-74909333D01*
X124011875Y-74892090D01*
X124026291Y-74876184D01*
X124388684Y-74513791D01*
X124404590Y-74499375D01*
X124421833Y-74486587D01*
X124440246Y-74475551D01*
X124459652Y-74466372D01*
X124479864Y-74459140D01*
X124500688Y-74453924D01*
X124521923Y-74450774D01*
X124543364Y-74449721D01*
X124564805Y-74450774D01*
X124564805Y-74450774D01*
G37*
D11*
X124516847Y-75004347D03*
D10*
G36*
X126777691Y-74798553D02*
G01*
X126798926Y-74801703D01*
X126819750Y-74806919D01*
X126839962Y-74814151D01*
X126859368Y-74823330D01*
X126877781Y-74834366D01*
X126895024Y-74847154D01*
X126910930Y-74861570D01*
X126925346Y-74877476D01*
X126938134Y-74894719D01*
X126949170Y-74913132D01*
X126958349Y-74932538D01*
X126965581Y-74952750D01*
X126970797Y-74973574D01*
X126973947Y-74994809D01*
X126975000Y-75016250D01*
X126975000Y-75453750D01*
X126973947Y-75475191D01*
X126970797Y-75496426D01*
X126965581Y-75517250D01*
X126958349Y-75537462D01*
X126949170Y-75556868D01*
X126938134Y-75575281D01*
X126925346Y-75592524D01*
X126910930Y-75608430D01*
X126895024Y-75622846D01*
X126877781Y-75635634D01*
X126859368Y-75646670D01*
X126839962Y-75655849D01*
X126819750Y-75663081D01*
X126798926Y-75668297D01*
X126777691Y-75671447D01*
X126756250Y-75672500D01*
X126243750Y-75672500D01*
X126222309Y-75671447D01*
X126201074Y-75668297D01*
X126180250Y-75663081D01*
X126160038Y-75655849D01*
X126140632Y-75646670D01*
X126122219Y-75635634D01*
X126104976Y-75622846D01*
X126089070Y-75608430D01*
X126074654Y-75592524D01*
X126061866Y-75575281D01*
X126050830Y-75556868D01*
X126041651Y-75537462D01*
X126034419Y-75517250D01*
X126029203Y-75496426D01*
X126026053Y-75475191D01*
X126025000Y-75453750D01*
X126025000Y-75016250D01*
X126026053Y-74994809D01*
X126029203Y-74973574D01*
X126034419Y-74952750D01*
X126041651Y-74932538D01*
X126050830Y-74913132D01*
X126061866Y-74894719D01*
X126074654Y-74877476D01*
X126089070Y-74861570D01*
X126104976Y-74847154D01*
X126122219Y-74834366D01*
X126140632Y-74823330D01*
X126160038Y-74814151D01*
X126180250Y-74806919D01*
X126201074Y-74801703D01*
X126222309Y-74798553D01*
X126243750Y-74797500D01*
X126756250Y-74797500D01*
X126777691Y-74798553D01*
X126777691Y-74798553D01*
G37*
D11*
X126500000Y-75235000D03*
D10*
G36*
X126777691Y-73223553D02*
G01*
X126798926Y-73226703D01*
X126819750Y-73231919D01*
X126839962Y-73239151D01*
X126859368Y-73248330D01*
X126877781Y-73259366D01*
X126895024Y-73272154D01*
X126910930Y-73286570D01*
X126925346Y-73302476D01*
X126938134Y-73319719D01*
X126949170Y-73338132D01*
X126958349Y-73357538D01*
X126965581Y-73377750D01*
X126970797Y-73398574D01*
X126973947Y-73419809D01*
X126975000Y-73441250D01*
X126975000Y-73878750D01*
X126973947Y-73900191D01*
X126970797Y-73921426D01*
X126965581Y-73942250D01*
X126958349Y-73962462D01*
X126949170Y-73981868D01*
X126938134Y-74000281D01*
X126925346Y-74017524D01*
X126910930Y-74033430D01*
X126895024Y-74047846D01*
X126877781Y-74060634D01*
X126859368Y-74071670D01*
X126839962Y-74080849D01*
X126819750Y-74088081D01*
X126798926Y-74093297D01*
X126777691Y-74096447D01*
X126756250Y-74097500D01*
X126243750Y-74097500D01*
X126222309Y-74096447D01*
X126201074Y-74093297D01*
X126180250Y-74088081D01*
X126160038Y-74080849D01*
X126140632Y-74071670D01*
X126122219Y-74060634D01*
X126104976Y-74047846D01*
X126089070Y-74033430D01*
X126074654Y-74017524D01*
X126061866Y-74000281D01*
X126050830Y-73981868D01*
X126041651Y-73962462D01*
X126034419Y-73942250D01*
X126029203Y-73921426D01*
X126026053Y-73900191D01*
X126025000Y-73878750D01*
X126025000Y-73441250D01*
X126026053Y-73419809D01*
X126029203Y-73398574D01*
X126034419Y-73377750D01*
X126041651Y-73357538D01*
X126050830Y-73338132D01*
X126061866Y-73319719D01*
X126074654Y-73302476D01*
X126089070Y-73286570D01*
X126104976Y-73272154D01*
X126122219Y-73259366D01*
X126140632Y-73248330D01*
X126160038Y-73239151D01*
X126180250Y-73231919D01*
X126201074Y-73226703D01*
X126222309Y-73223553D01*
X126243750Y-73222500D01*
X126756250Y-73222500D01*
X126777691Y-73223553D01*
X126777691Y-73223553D01*
G37*
D11*
X126500000Y-73660000D03*
D10*
G36*
X128478077Y-74450774D02*
G01*
X128499312Y-74453924D01*
X128520136Y-74459140D01*
X128540348Y-74466372D01*
X128559754Y-74475551D01*
X128578167Y-74486587D01*
X128595410Y-74499375D01*
X128611316Y-74513791D01*
X128973709Y-74876184D01*
X128988125Y-74892090D01*
X129000913Y-74909333D01*
X129011949Y-74927746D01*
X129021128Y-74947152D01*
X129028360Y-74967364D01*
X129033576Y-74988188D01*
X129036726Y-75009423D01*
X129037779Y-75030864D01*
X129036726Y-75052305D01*
X129033576Y-75073540D01*
X129028360Y-75094364D01*
X129021128Y-75114576D01*
X129011949Y-75133982D01*
X129000913Y-75152395D01*
X128988125Y-75169638D01*
X128973709Y-75185544D01*
X128664350Y-75494903D01*
X128648444Y-75509319D01*
X128631201Y-75522107D01*
X128612788Y-75533143D01*
X128593382Y-75542322D01*
X128573170Y-75549554D01*
X128552346Y-75554770D01*
X128531111Y-75557920D01*
X128509670Y-75558973D01*
X128488229Y-75557920D01*
X128466994Y-75554770D01*
X128446170Y-75549554D01*
X128425958Y-75542322D01*
X128406552Y-75533143D01*
X128388139Y-75522107D01*
X128370896Y-75509319D01*
X128354990Y-75494903D01*
X127992597Y-75132510D01*
X127978181Y-75116604D01*
X127965393Y-75099361D01*
X127954357Y-75080948D01*
X127945178Y-75061542D01*
X127937946Y-75041330D01*
X127932730Y-75020506D01*
X127929580Y-74999271D01*
X127928527Y-74977830D01*
X127929580Y-74956389D01*
X127932730Y-74935154D01*
X127937946Y-74914330D01*
X127945178Y-74894118D01*
X127954357Y-74874712D01*
X127965393Y-74856299D01*
X127978181Y-74839056D01*
X127992597Y-74823150D01*
X128301956Y-74513791D01*
X128317862Y-74499375D01*
X128335105Y-74486587D01*
X128353518Y-74475551D01*
X128372924Y-74466372D01*
X128393136Y-74459140D01*
X128413960Y-74453924D01*
X128435195Y-74450774D01*
X128456636Y-74449721D01*
X128478077Y-74450774D01*
X128478077Y-74450774D01*
G37*
D11*
X128483153Y-75004347D03*
D10*
G36*
X129591771Y-73337080D02*
G01*
X129613006Y-73340230D01*
X129633830Y-73345446D01*
X129654042Y-73352678D01*
X129673448Y-73361857D01*
X129691861Y-73372893D01*
X129709104Y-73385681D01*
X129725010Y-73400097D01*
X130087403Y-73762490D01*
X130101819Y-73778396D01*
X130114607Y-73795639D01*
X130125643Y-73814052D01*
X130134822Y-73833458D01*
X130142054Y-73853670D01*
X130147270Y-73874494D01*
X130150420Y-73895729D01*
X130151473Y-73917170D01*
X130150420Y-73938611D01*
X130147270Y-73959846D01*
X130142054Y-73980670D01*
X130134822Y-74000882D01*
X130125643Y-74020288D01*
X130114607Y-74038701D01*
X130101819Y-74055944D01*
X130087403Y-74071850D01*
X129778044Y-74381209D01*
X129762138Y-74395625D01*
X129744895Y-74408413D01*
X129726482Y-74419449D01*
X129707076Y-74428628D01*
X129686864Y-74435860D01*
X129666040Y-74441076D01*
X129644805Y-74444226D01*
X129623364Y-74445279D01*
X129601923Y-74444226D01*
X129580688Y-74441076D01*
X129559864Y-74435860D01*
X129539652Y-74428628D01*
X129520246Y-74419449D01*
X129501833Y-74408413D01*
X129484590Y-74395625D01*
X129468684Y-74381209D01*
X129106291Y-74018816D01*
X129091875Y-74002910D01*
X129079087Y-73985667D01*
X129068051Y-73967254D01*
X129058872Y-73947848D01*
X129051640Y-73927636D01*
X129046424Y-73906812D01*
X129043274Y-73885577D01*
X129042221Y-73864136D01*
X129043274Y-73842695D01*
X129046424Y-73821460D01*
X129051640Y-73800636D01*
X129058872Y-73780424D01*
X129068051Y-73761018D01*
X129079087Y-73742605D01*
X129091875Y-73725362D01*
X129106291Y-73709456D01*
X129415650Y-73400097D01*
X129431556Y-73385681D01*
X129448799Y-73372893D01*
X129467212Y-73361857D01*
X129486618Y-73352678D01*
X129506830Y-73345446D01*
X129527654Y-73340230D01*
X129548889Y-73337080D01*
X129570330Y-73336027D01*
X129591771Y-73337080D01*
X129591771Y-73337080D01*
G37*
D11*
X129596847Y-73890653D03*
D12*
X150860000Y-74930000D03*
X148860000Y-73980000D03*
X148860000Y-75880000D03*
D10*
G36*
X124497691Y-69781053D02*
G01*
X124518926Y-69784203D01*
X124539750Y-69789419D01*
X124559962Y-69796651D01*
X124579368Y-69805830D01*
X124597781Y-69816866D01*
X124615024Y-69829654D01*
X124630930Y-69844070D01*
X124645346Y-69859976D01*
X124658134Y-69877219D01*
X124669170Y-69895632D01*
X124678349Y-69915038D01*
X124685581Y-69935250D01*
X124690797Y-69956074D01*
X124693947Y-69977309D01*
X124695000Y-69998750D01*
X124695000Y-70436250D01*
X124693947Y-70457691D01*
X124690797Y-70478926D01*
X124685581Y-70499750D01*
X124678349Y-70519962D01*
X124669170Y-70539368D01*
X124658134Y-70557781D01*
X124645346Y-70575024D01*
X124630930Y-70590930D01*
X124615024Y-70605346D01*
X124597781Y-70618134D01*
X124579368Y-70629170D01*
X124559962Y-70638349D01*
X124539750Y-70645581D01*
X124518926Y-70650797D01*
X124497691Y-70653947D01*
X124476250Y-70655000D01*
X123963750Y-70655000D01*
X123942309Y-70653947D01*
X123921074Y-70650797D01*
X123900250Y-70645581D01*
X123880038Y-70638349D01*
X123860632Y-70629170D01*
X123842219Y-70618134D01*
X123824976Y-70605346D01*
X123809070Y-70590930D01*
X123794654Y-70575024D01*
X123781866Y-70557781D01*
X123770830Y-70539368D01*
X123761651Y-70519962D01*
X123754419Y-70499750D01*
X123749203Y-70478926D01*
X123746053Y-70457691D01*
X123745000Y-70436250D01*
X123745000Y-69998750D01*
X123746053Y-69977309D01*
X123749203Y-69956074D01*
X123754419Y-69935250D01*
X123761651Y-69915038D01*
X123770830Y-69895632D01*
X123781866Y-69877219D01*
X123794654Y-69859976D01*
X123809070Y-69844070D01*
X123824976Y-69829654D01*
X123842219Y-69816866D01*
X123860632Y-69805830D01*
X123880038Y-69796651D01*
X123900250Y-69789419D01*
X123921074Y-69784203D01*
X123942309Y-69781053D01*
X123963750Y-69780000D01*
X124476250Y-69780000D01*
X124497691Y-69781053D01*
X124497691Y-69781053D01*
G37*
D11*
X124220000Y-70217500D03*
D10*
G36*
X124497691Y-68206053D02*
G01*
X124518926Y-68209203D01*
X124539750Y-68214419D01*
X124559962Y-68221651D01*
X124579368Y-68230830D01*
X124597781Y-68241866D01*
X124615024Y-68254654D01*
X124630930Y-68269070D01*
X124645346Y-68284976D01*
X124658134Y-68302219D01*
X124669170Y-68320632D01*
X124678349Y-68340038D01*
X124685581Y-68360250D01*
X124690797Y-68381074D01*
X124693947Y-68402309D01*
X124695000Y-68423750D01*
X124695000Y-68861250D01*
X124693947Y-68882691D01*
X124690797Y-68903926D01*
X124685581Y-68924750D01*
X124678349Y-68944962D01*
X124669170Y-68964368D01*
X124658134Y-68982781D01*
X124645346Y-69000024D01*
X124630930Y-69015930D01*
X124615024Y-69030346D01*
X124597781Y-69043134D01*
X124579368Y-69054170D01*
X124559962Y-69063349D01*
X124539750Y-69070581D01*
X124518926Y-69075797D01*
X124497691Y-69078947D01*
X124476250Y-69080000D01*
X123963750Y-69080000D01*
X123942309Y-69078947D01*
X123921074Y-69075797D01*
X123900250Y-69070581D01*
X123880038Y-69063349D01*
X123860632Y-69054170D01*
X123842219Y-69043134D01*
X123824976Y-69030346D01*
X123809070Y-69015930D01*
X123794654Y-69000024D01*
X123781866Y-68982781D01*
X123770830Y-68964368D01*
X123761651Y-68944962D01*
X123754419Y-68924750D01*
X123749203Y-68903926D01*
X123746053Y-68882691D01*
X123745000Y-68861250D01*
X123745000Y-68423750D01*
X123746053Y-68402309D01*
X123749203Y-68381074D01*
X123754419Y-68360250D01*
X123761651Y-68340038D01*
X123770830Y-68320632D01*
X123781866Y-68302219D01*
X123794654Y-68284976D01*
X123809070Y-68269070D01*
X123824976Y-68254654D01*
X123842219Y-68241866D01*
X123860632Y-68230830D01*
X123880038Y-68221651D01*
X123900250Y-68214419D01*
X123921074Y-68209203D01*
X123942309Y-68206053D01*
X123963750Y-68205000D01*
X124476250Y-68205000D01*
X124497691Y-68206053D01*
X124497691Y-68206053D01*
G37*
D11*
X124220000Y-68642500D03*
D10*
G36*
X122197691Y-69681053D02*
G01*
X122218926Y-69684203D01*
X122239750Y-69689419D01*
X122259962Y-69696651D01*
X122279368Y-69705830D01*
X122297781Y-69716866D01*
X122315024Y-69729654D01*
X122330930Y-69744070D01*
X122345346Y-69759976D01*
X122358134Y-69777219D01*
X122369170Y-69795632D01*
X122378349Y-69815038D01*
X122385581Y-69835250D01*
X122390797Y-69856074D01*
X122393947Y-69877309D01*
X122395000Y-69898750D01*
X122395000Y-70336250D01*
X122393947Y-70357691D01*
X122390797Y-70378926D01*
X122385581Y-70399750D01*
X122378349Y-70419962D01*
X122369170Y-70439368D01*
X122358134Y-70457781D01*
X122345346Y-70475024D01*
X122330930Y-70490930D01*
X122315024Y-70505346D01*
X122297781Y-70518134D01*
X122279368Y-70529170D01*
X122259962Y-70538349D01*
X122239750Y-70545581D01*
X122218926Y-70550797D01*
X122197691Y-70553947D01*
X122176250Y-70555000D01*
X121663750Y-70555000D01*
X121642309Y-70553947D01*
X121621074Y-70550797D01*
X121600250Y-70545581D01*
X121580038Y-70538349D01*
X121560632Y-70529170D01*
X121542219Y-70518134D01*
X121524976Y-70505346D01*
X121509070Y-70490930D01*
X121494654Y-70475024D01*
X121481866Y-70457781D01*
X121470830Y-70439368D01*
X121461651Y-70419962D01*
X121454419Y-70399750D01*
X121449203Y-70378926D01*
X121446053Y-70357691D01*
X121445000Y-70336250D01*
X121445000Y-69898750D01*
X121446053Y-69877309D01*
X121449203Y-69856074D01*
X121454419Y-69835250D01*
X121461651Y-69815038D01*
X121470830Y-69795632D01*
X121481866Y-69777219D01*
X121494654Y-69759976D01*
X121509070Y-69744070D01*
X121524976Y-69729654D01*
X121542219Y-69716866D01*
X121560632Y-69705830D01*
X121580038Y-69696651D01*
X121600250Y-69689419D01*
X121621074Y-69684203D01*
X121642309Y-69681053D01*
X121663750Y-69680000D01*
X122176250Y-69680000D01*
X122197691Y-69681053D01*
X122197691Y-69681053D01*
G37*
D11*
X121920000Y-70117500D03*
D10*
G36*
X122197691Y-68106053D02*
G01*
X122218926Y-68109203D01*
X122239750Y-68114419D01*
X122259962Y-68121651D01*
X122279368Y-68130830D01*
X122297781Y-68141866D01*
X122315024Y-68154654D01*
X122330930Y-68169070D01*
X122345346Y-68184976D01*
X122358134Y-68202219D01*
X122369170Y-68220632D01*
X122378349Y-68240038D01*
X122385581Y-68260250D01*
X122390797Y-68281074D01*
X122393947Y-68302309D01*
X122395000Y-68323750D01*
X122395000Y-68761250D01*
X122393947Y-68782691D01*
X122390797Y-68803926D01*
X122385581Y-68824750D01*
X122378349Y-68844962D01*
X122369170Y-68864368D01*
X122358134Y-68882781D01*
X122345346Y-68900024D01*
X122330930Y-68915930D01*
X122315024Y-68930346D01*
X122297781Y-68943134D01*
X122279368Y-68954170D01*
X122259962Y-68963349D01*
X122239750Y-68970581D01*
X122218926Y-68975797D01*
X122197691Y-68978947D01*
X122176250Y-68980000D01*
X121663750Y-68980000D01*
X121642309Y-68978947D01*
X121621074Y-68975797D01*
X121600250Y-68970581D01*
X121580038Y-68963349D01*
X121560632Y-68954170D01*
X121542219Y-68943134D01*
X121524976Y-68930346D01*
X121509070Y-68915930D01*
X121494654Y-68900024D01*
X121481866Y-68882781D01*
X121470830Y-68864368D01*
X121461651Y-68844962D01*
X121454419Y-68824750D01*
X121449203Y-68803926D01*
X121446053Y-68782691D01*
X121445000Y-68761250D01*
X121445000Y-68323750D01*
X121446053Y-68302309D01*
X121449203Y-68281074D01*
X121454419Y-68260250D01*
X121461651Y-68240038D01*
X121470830Y-68220632D01*
X121481866Y-68202219D01*
X121494654Y-68184976D01*
X121509070Y-68169070D01*
X121524976Y-68154654D01*
X121542219Y-68141866D01*
X121560632Y-68130830D01*
X121580038Y-68121651D01*
X121600250Y-68114419D01*
X121621074Y-68109203D01*
X121642309Y-68106053D01*
X121663750Y-68105000D01*
X122176250Y-68105000D01*
X122197691Y-68106053D01*
X122197691Y-68106053D01*
G37*
D11*
X121920000Y-68542500D03*
D10*
G36*
X150887691Y-78266053D02*
G01*
X150908926Y-78269203D01*
X150929750Y-78274419D01*
X150949962Y-78281651D01*
X150969368Y-78290830D01*
X150987781Y-78301866D01*
X151005024Y-78314654D01*
X151020930Y-78329070D01*
X151035346Y-78344976D01*
X151048134Y-78362219D01*
X151059170Y-78380632D01*
X151068349Y-78400038D01*
X151075581Y-78420250D01*
X151080797Y-78441074D01*
X151083947Y-78462309D01*
X151085000Y-78483750D01*
X151085000Y-78996250D01*
X151083947Y-79017691D01*
X151080797Y-79038926D01*
X151075581Y-79059750D01*
X151068349Y-79079962D01*
X151059170Y-79099368D01*
X151048134Y-79117781D01*
X151035346Y-79135024D01*
X151020930Y-79150930D01*
X151005024Y-79165346D01*
X150987781Y-79178134D01*
X150969368Y-79189170D01*
X150949962Y-79198349D01*
X150929750Y-79205581D01*
X150908926Y-79210797D01*
X150887691Y-79213947D01*
X150866250Y-79215000D01*
X150428750Y-79215000D01*
X150407309Y-79213947D01*
X150386074Y-79210797D01*
X150365250Y-79205581D01*
X150345038Y-79198349D01*
X150325632Y-79189170D01*
X150307219Y-79178134D01*
X150289976Y-79165346D01*
X150274070Y-79150930D01*
X150259654Y-79135024D01*
X150246866Y-79117781D01*
X150235830Y-79099368D01*
X150226651Y-79079962D01*
X150219419Y-79059750D01*
X150214203Y-79038926D01*
X150211053Y-79017691D01*
X150210000Y-78996250D01*
X150210000Y-78483750D01*
X150211053Y-78462309D01*
X150214203Y-78441074D01*
X150219419Y-78420250D01*
X150226651Y-78400038D01*
X150235830Y-78380632D01*
X150246866Y-78362219D01*
X150259654Y-78344976D01*
X150274070Y-78329070D01*
X150289976Y-78314654D01*
X150307219Y-78301866D01*
X150325632Y-78290830D01*
X150345038Y-78281651D01*
X150365250Y-78274419D01*
X150386074Y-78269203D01*
X150407309Y-78266053D01*
X150428750Y-78265000D01*
X150866250Y-78265000D01*
X150887691Y-78266053D01*
X150887691Y-78266053D01*
G37*
D11*
X150647500Y-78740000D03*
D10*
G36*
X149312691Y-78266053D02*
G01*
X149333926Y-78269203D01*
X149354750Y-78274419D01*
X149374962Y-78281651D01*
X149394368Y-78290830D01*
X149412781Y-78301866D01*
X149430024Y-78314654D01*
X149445930Y-78329070D01*
X149460346Y-78344976D01*
X149473134Y-78362219D01*
X149484170Y-78380632D01*
X149493349Y-78400038D01*
X149500581Y-78420250D01*
X149505797Y-78441074D01*
X149508947Y-78462309D01*
X149510000Y-78483750D01*
X149510000Y-78996250D01*
X149508947Y-79017691D01*
X149505797Y-79038926D01*
X149500581Y-79059750D01*
X149493349Y-79079962D01*
X149484170Y-79099368D01*
X149473134Y-79117781D01*
X149460346Y-79135024D01*
X149445930Y-79150930D01*
X149430024Y-79165346D01*
X149412781Y-79178134D01*
X149394368Y-79189170D01*
X149374962Y-79198349D01*
X149354750Y-79205581D01*
X149333926Y-79210797D01*
X149312691Y-79213947D01*
X149291250Y-79215000D01*
X148853750Y-79215000D01*
X148832309Y-79213947D01*
X148811074Y-79210797D01*
X148790250Y-79205581D01*
X148770038Y-79198349D01*
X148750632Y-79189170D01*
X148732219Y-79178134D01*
X148714976Y-79165346D01*
X148699070Y-79150930D01*
X148684654Y-79135024D01*
X148671866Y-79117781D01*
X148660830Y-79099368D01*
X148651651Y-79079962D01*
X148644419Y-79059750D01*
X148639203Y-79038926D01*
X148636053Y-79017691D01*
X148635000Y-78996250D01*
X148635000Y-78483750D01*
X148636053Y-78462309D01*
X148639203Y-78441074D01*
X148644419Y-78420250D01*
X148651651Y-78400038D01*
X148660830Y-78380632D01*
X148671866Y-78362219D01*
X148684654Y-78344976D01*
X148699070Y-78329070D01*
X148714976Y-78314654D01*
X148732219Y-78301866D01*
X148750632Y-78290830D01*
X148770038Y-78281651D01*
X148790250Y-78274419D01*
X148811074Y-78269203D01*
X148832309Y-78266053D01*
X148853750Y-78265000D01*
X149291250Y-78265000D01*
X149312691Y-78266053D01*
X149312691Y-78266053D01*
G37*
D11*
X149072500Y-78740000D03*
M02*
