G04 #@! TF.GenerationSoftware,KiCad,Pcbnew,(5.1.2)-1*
G04 #@! TF.CreationDate,2019-06-17T23:04:49-04:00*
G04 #@! TF.ProjectId,REV Type-C V2,52455620-5479-4706-952d-432056322e6b,rev?*
G04 #@! TF.SameCoordinates,Original*
G04 #@! TF.FileFunction,Soldermask,Top*
G04 #@! TF.FilePolarity,Negative*
%FSLAX46Y46*%
G04 Gerber Fmt 4.6, Leading zero omitted, Abs format (unit mm)*
G04 Created by KiCad (PCBNEW (5.1.2)-1) date 2019-06-17 23:04:49*
%MOMM*%
%LPD*%
G04 APERTURE LIST*
%ADD10C,0.050000*%
%ADD11C,0.100000*%
G04 APERTURE END LIST*
D10*
X55880000Y-22860000D02*
X95250000Y-22860000D01*
X57150000Y-44450000D02*
X95250000Y-44450000D01*
X53340000Y-44450000D02*
X57150000Y-44450000D01*
X53340000Y-22860000D02*
X55880000Y-22860000D01*
X53340000Y-25400000D02*
X53340000Y-22860000D01*
X55880000Y-25400000D02*
X53340000Y-25400000D01*
X55880000Y-39370000D02*
X55880000Y-25400000D01*
X53340000Y-39370000D02*
X55880000Y-39370000D01*
X53340000Y-44450000D02*
X53340000Y-39370000D01*
X102870000Y-44450000D02*
X95250000Y-44450000D01*
X102870000Y-22860000D02*
X102870000Y-44450000D01*
X95250000Y-22860000D02*
X102870000Y-22860000D01*
D11*
G36*
X72732091Y-42658085D02*
G01*
X72766069Y-42668393D01*
X72797390Y-42685134D01*
X72824839Y-42707661D01*
X72847366Y-42735110D01*
X72864107Y-42766431D01*
X72874415Y-42800409D01*
X72878500Y-42841890D01*
X72878500Y-43518110D01*
X72874415Y-43559591D01*
X72864107Y-43593569D01*
X72847366Y-43624890D01*
X72824839Y-43652339D01*
X72797390Y-43674866D01*
X72766069Y-43691607D01*
X72732091Y-43701915D01*
X72690610Y-43706000D01*
X72089390Y-43706000D01*
X72047909Y-43701915D01*
X72013931Y-43691607D01*
X71982610Y-43674866D01*
X71955161Y-43652339D01*
X71932634Y-43624890D01*
X71915893Y-43593569D01*
X71905585Y-43559591D01*
X71901500Y-43518110D01*
X71901500Y-42841890D01*
X71905585Y-42800409D01*
X71915893Y-42766431D01*
X71932634Y-42735110D01*
X71955161Y-42707661D01*
X71982610Y-42685134D01*
X72013931Y-42668393D01*
X72047909Y-42658085D01*
X72089390Y-42654000D01*
X72690610Y-42654000D01*
X72732091Y-42658085D01*
X72732091Y-42658085D01*
G37*
G36*
X71157091Y-42658085D02*
G01*
X71191069Y-42668393D01*
X71222390Y-42685134D01*
X71249839Y-42707661D01*
X71272366Y-42735110D01*
X71289107Y-42766431D01*
X71299415Y-42800409D01*
X71303500Y-42841890D01*
X71303500Y-43518110D01*
X71299415Y-43559591D01*
X71289107Y-43593569D01*
X71272366Y-43624890D01*
X71249839Y-43652339D01*
X71222390Y-43674866D01*
X71191069Y-43691607D01*
X71157091Y-43701915D01*
X71115610Y-43706000D01*
X70514390Y-43706000D01*
X70472909Y-43701915D01*
X70438931Y-43691607D01*
X70407610Y-43674866D01*
X70380161Y-43652339D01*
X70357634Y-43624890D01*
X70340893Y-43593569D01*
X70330585Y-43559591D01*
X70326500Y-43518110D01*
X70326500Y-42841890D01*
X70330585Y-42800409D01*
X70340893Y-42766431D01*
X70357634Y-42735110D01*
X70380161Y-42707661D01*
X70407610Y-42685134D01*
X70438931Y-42668393D01*
X70472909Y-42658085D01*
X70514390Y-42654000D01*
X71115610Y-42654000D01*
X71157091Y-42658085D01*
X71157091Y-42658085D01*
G37*
G36*
X56222704Y-40294823D02*
G01*
X56361579Y-40322447D01*
X56662042Y-40446903D01*
X56932451Y-40627585D01*
X57162415Y-40857549D01*
X57343097Y-41127958D01*
X57466204Y-41425164D01*
X57467553Y-41428422D01*
X57531000Y-41747389D01*
X57531000Y-42072611D01*
X57497823Y-42239401D01*
X57467553Y-42391579D01*
X57462049Y-42404866D01*
X57345959Y-42685134D01*
X57343097Y-42692042D01*
X57162415Y-42962451D01*
X56932451Y-43192415D01*
X56662042Y-43373097D01*
X56361579Y-43497553D01*
X56302015Y-43509401D01*
X56042611Y-43561000D01*
X55717389Y-43561000D01*
X55457985Y-43509401D01*
X55398421Y-43497553D01*
X55097958Y-43373097D01*
X54827549Y-43192415D01*
X54597585Y-42962451D01*
X54416903Y-42692042D01*
X54414042Y-42685134D01*
X54297951Y-42404866D01*
X54292447Y-42391579D01*
X54262177Y-42239401D01*
X54229000Y-42072611D01*
X54229000Y-41747389D01*
X54292447Y-41428422D01*
X54293797Y-41425164D01*
X54416903Y-41127958D01*
X54597585Y-40857549D01*
X54827549Y-40627585D01*
X55097958Y-40446903D01*
X55398421Y-40322447D01*
X55537296Y-40294823D01*
X55717389Y-40259000D01*
X56042611Y-40259000D01*
X56222704Y-40294823D01*
X56222704Y-40294823D01*
G37*
G36*
X99402704Y-40294823D02*
G01*
X99541579Y-40322447D01*
X99842042Y-40446903D01*
X100112451Y-40627585D01*
X100342415Y-40857549D01*
X100523097Y-41127958D01*
X100646204Y-41425164D01*
X100647553Y-41428422D01*
X100711000Y-41747389D01*
X100711000Y-42072611D01*
X100677823Y-42239401D01*
X100647553Y-42391579D01*
X100642049Y-42404866D01*
X100525959Y-42685134D01*
X100523097Y-42692042D01*
X100342415Y-42962451D01*
X100112451Y-43192415D01*
X99842042Y-43373097D01*
X99541579Y-43497553D01*
X99482015Y-43509401D01*
X99222611Y-43561000D01*
X98897389Y-43561000D01*
X98637985Y-43509401D01*
X98578421Y-43497553D01*
X98277958Y-43373097D01*
X98007549Y-43192415D01*
X97777585Y-42962451D01*
X97596903Y-42692042D01*
X97594042Y-42685134D01*
X97477951Y-42404866D01*
X97472447Y-42391579D01*
X97442177Y-42239401D01*
X97409000Y-42072611D01*
X97409000Y-41747389D01*
X97472447Y-41428422D01*
X97473797Y-41425164D01*
X97596903Y-41127958D01*
X97777585Y-40857549D01*
X98007549Y-40627585D01*
X98277958Y-40446903D01*
X98578421Y-40322447D01*
X98717296Y-40294823D01*
X98897389Y-40259000D01*
X99222611Y-40259000D01*
X99402704Y-40294823D01*
X99402704Y-40294823D01*
G37*
G36*
X60819591Y-41388085D02*
G01*
X60853569Y-41398393D01*
X60884890Y-41415134D01*
X60912339Y-41437661D01*
X60934866Y-41465110D01*
X60951607Y-41496431D01*
X60961915Y-41530409D01*
X60966000Y-41571890D01*
X60966000Y-42248110D01*
X60961915Y-42289591D01*
X60951607Y-42323569D01*
X60934866Y-42354890D01*
X60912339Y-42382339D01*
X60884890Y-42404866D01*
X60853569Y-42421607D01*
X60819591Y-42431915D01*
X60778110Y-42436000D01*
X60176890Y-42436000D01*
X60135409Y-42431915D01*
X60101431Y-42421607D01*
X60070110Y-42404866D01*
X60042661Y-42382339D01*
X60020134Y-42354890D01*
X60003393Y-42323569D01*
X59993085Y-42289591D01*
X59989000Y-42248110D01*
X59989000Y-41571890D01*
X59993085Y-41530409D01*
X60003393Y-41496431D01*
X60020134Y-41465110D01*
X60042661Y-41437661D01*
X60070110Y-41415134D01*
X60101431Y-41398393D01*
X60135409Y-41388085D01*
X60176890Y-41384000D01*
X60778110Y-41384000D01*
X60819591Y-41388085D01*
X60819591Y-41388085D01*
G37*
G36*
X59244591Y-41388085D02*
G01*
X59278569Y-41398393D01*
X59309890Y-41415134D01*
X59337339Y-41437661D01*
X59359866Y-41465110D01*
X59376607Y-41496431D01*
X59386915Y-41530409D01*
X59391000Y-41571890D01*
X59391000Y-42248110D01*
X59386915Y-42289591D01*
X59376607Y-42323569D01*
X59359866Y-42354890D01*
X59337339Y-42382339D01*
X59309890Y-42404866D01*
X59278569Y-42421607D01*
X59244591Y-42431915D01*
X59203110Y-42436000D01*
X58601890Y-42436000D01*
X58560409Y-42431915D01*
X58526431Y-42421607D01*
X58495110Y-42404866D01*
X58467661Y-42382339D01*
X58445134Y-42354890D01*
X58428393Y-42323569D01*
X58418085Y-42289591D01*
X58414000Y-42248110D01*
X58414000Y-41571890D01*
X58418085Y-41530409D01*
X58428393Y-41496431D01*
X58445134Y-41465110D01*
X58467661Y-41437661D01*
X58495110Y-41415134D01*
X58526431Y-41398393D01*
X58560409Y-41388085D01*
X58601890Y-41384000D01*
X59203110Y-41384000D01*
X59244591Y-41388085D01*
X59244591Y-41388085D01*
G37*
G36*
X63181000Y-42421000D02*
G01*
X61279000Y-42421000D01*
X61279000Y-41319000D01*
X63181000Y-41319000D01*
X63181000Y-42421000D01*
X63181000Y-42421000D01*
G37*
G36*
X65149591Y-40943085D02*
G01*
X65183569Y-40953393D01*
X65214890Y-40970134D01*
X65242339Y-40992661D01*
X65264866Y-41020110D01*
X65281607Y-41051431D01*
X65291915Y-41085409D01*
X65296000Y-41126890D01*
X65296000Y-41728110D01*
X65291915Y-41769591D01*
X65281607Y-41803569D01*
X65264866Y-41834890D01*
X65242339Y-41862339D01*
X65214890Y-41884866D01*
X65183569Y-41901607D01*
X65149591Y-41911915D01*
X65108110Y-41916000D01*
X64431890Y-41916000D01*
X64390409Y-41911915D01*
X64356431Y-41901607D01*
X64325110Y-41884866D01*
X64297661Y-41862339D01*
X64275134Y-41834890D01*
X64258393Y-41803569D01*
X64248085Y-41769591D01*
X64244000Y-41728110D01*
X64244000Y-41126890D01*
X64248085Y-41085409D01*
X64258393Y-41051431D01*
X64275134Y-41020110D01*
X64297661Y-40992661D01*
X64325110Y-40970134D01*
X64356431Y-40953393D01*
X64390409Y-40943085D01*
X64431890Y-40939000D01*
X65108110Y-40939000D01*
X65149591Y-40943085D01*
X65149591Y-40943085D01*
G37*
G36*
X73101962Y-35107819D02*
G01*
X73106636Y-35109237D01*
X73110938Y-35111536D01*
X73119477Y-35118544D01*
X73323638Y-35322705D01*
X73330646Y-35331244D01*
X73332945Y-35335546D01*
X73334363Y-35340220D01*
X73335171Y-35348422D01*
X73339952Y-35372456D01*
X73349330Y-35395094D01*
X73362945Y-35415468D01*
X73380272Y-35432795D01*
X73400647Y-35446408D01*
X73423286Y-35455785D01*
X73447313Y-35460564D01*
X73455516Y-35461372D01*
X73460190Y-35462790D01*
X73464492Y-35465089D01*
X73473031Y-35472097D01*
X73677192Y-35676258D01*
X73684200Y-35684797D01*
X73686499Y-35689099D01*
X73687917Y-35693773D01*
X73688725Y-35701976D01*
X73693506Y-35726009D01*
X73702884Y-35748648D01*
X73716498Y-35769022D01*
X73733826Y-35786348D01*
X73754200Y-35799962D01*
X73776839Y-35809338D01*
X73800867Y-35814118D01*
X73809069Y-35814926D01*
X73813743Y-35816344D01*
X73818045Y-35818643D01*
X73826584Y-35825651D01*
X74030745Y-36029812D01*
X74037753Y-36038351D01*
X74040052Y-36042653D01*
X74041470Y-36047327D01*
X74042278Y-36055529D01*
X74047059Y-36079563D01*
X74056437Y-36102201D01*
X74070052Y-36122575D01*
X74087379Y-36139902D01*
X74107754Y-36153515D01*
X74130393Y-36162892D01*
X74154420Y-36167671D01*
X74162622Y-36168479D01*
X74167296Y-36169897D01*
X74171598Y-36172196D01*
X74180137Y-36179204D01*
X74384298Y-36383365D01*
X74391306Y-36391904D01*
X74393605Y-36396206D01*
X74395023Y-36400880D01*
X74395831Y-36409082D01*
X74400612Y-36433116D01*
X74409990Y-36455754D01*
X74423605Y-36476128D01*
X74440932Y-36493455D01*
X74461307Y-36507068D01*
X74483946Y-36516445D01*
X74507973Y-36521224D01*
X74516176Y-36522032D01*
X74520850Y-36523450D01*
X74525152Y-36525749D01*
X74533691Y-36532757D01*
X74737852Y-36736918D01*
X74744860Y-36745457D01*
X74747159Y-36749759D01*
X74748577Y-36754433D01*
X74749385Y-36762636D01*
X74754166Y-36786669D01*
X74763544Y-36809308D01*
X74777158Y-36829682D01*
X74794486Y-36847008D01*
X74814860Y-36860622D01*
X74837499Y-36869998D01*
X74861527Y-36874778D01*
X74869729Y-36875586D01*
X74874403Y-36877004D01*
X74878705Y-36879303D01*
X74887244Y-36886311D01*
X75091405Y-37090472D01*
X75098413Y-37099011D01*
X75100712Y-37103313D01*
X75102130Y-37107987D01*
X75102608Y-37112842D01*
X75102130Y-37117697D01*
X75100712Y-37122371D01*
X75098413Y-37126673D01*
X75091405Y-37135212D01*
X74516012Y-37710605D01*
X74500515Y-37723323D01*
X74483188Y-37740650D01*
X74469574Y-37761025D01*
X74460197Y-37783663D01*
X74455416Y-37807697D01*
X74455416Y-37832201D01*
X74460196Y-37856234D01*
X74469574Y-37878873D01*
X74483187Y-37899247D01*
X74500515Y-37916575D01*
X74516012Y-37929293D01*
X75091405Y-38504686D01*
X75098413Y-38513225D01*
X75100712Y-38517527D01*
X75102130Y-38522201D01*
X75102608Y-38527056D01*
X75102130Y-38531911D01*
X75100712Y-38536585D01*
X75098413Y-38540887D01*
X75091405Y-38549426D01*
X74887244Y-38753587D01*
X74878705Y-38760595D01*
X74874403Y-38762894D01*
X74869729Y-38764312D01*
X74861527Y-38765120D01*
X74837493Y-38769901D01*
X74814855Y-38779279D01*
X74794481Y-38792894D01*
X74777154Y-38810221D01*
X74763541Y-38830596D01*
X74754164Y-38853235D01*
X74749385Y-38877262D01*
X74748577Y-38885465D01*
X74747159Y-38890139D01*
X74744860Y-38894441D01*
X74737852Y-38902980D01*
X74533691Y-39107141D01*
X74525152Y-39114149D01*
X74520850Y-39116448D01*
X74516176Y-39117866D01*
X74507973Y-39118674D01*
X74483940Y-39123455D01*
X74461301Y-39132833D01*
X74440927Y-39146447D01*
X74423601Y-39163775D01*
X74409987Y-39184149D01*
X74400611Y-39206788D01*
X74395831Y-39230816D01*
X74395023Y-39239018D01*
X74393605Y-39243692D01*
X74391306Y-39247994D01*
X74384298Y-39256533D01*
X74180137Y-39460694D01*
X74171598Y-39467702D01*
X74167296Y-39470001D01*
X74162622Y-39471419D01*
X74154420Y-39472227D01*
X74130386Y-39477008D01*
X74107748Y-39486386D01*
X74087374Y-39500001D01*
X74070047Y-39517328D01*
X74056434Y-39537703D01*
X74047057Y-39560342D01*
X74042278Y-39584369D01*
X74041470Y-39592571D01*
X74040052Y-39597245D01*
X74037753Y-39601547D01*
X74030745Y-39610086D01*
X73826584Y-39814247D01*
X73818045Y-39821255D01*
X73813743Y-39823554D01*
X73809069Y-39824972D01*
X73800867Y-39825780D01*
X73776833Y-39830561D01*
X73754195Y-39839939D01*
X73733821Y-39853554D01*
X73716494Y-39870881D01*
X73702881Y-39891256D01*
X73693504Y-39913895D01*
X73688725Y-39937922D01*
X73687917Y-39946125D01*
X73686499Y-39950799D01*
X73684200Y-39955101D01*
X73677192Y-39963640D01*
X73473031Y-40167801D01*
X73464492Y-40174809D01*
X73460190Y-40177108D01*
X73455516Y-40178526D01*
X73447313Y-40179334D01*
X73423280Y-40184115D01*
X73400641Y-40193493D01*
X73380267Y-40207107D01*
X73362941Y-40224435D01*
X73349327Y-40244809D01*
X73339951Y-40267448D01*
X73335171Y-40291476D01*
X73334363Y-40299678D01*
X73332945Y-40304352D01*
X73330646Y-40308654D01*
X73323638Y-40317193D01*
X73119477Y-40521354D01*
X73110938Y-40528362D01*
X73106636Y-40530661D01*
X73101962Y-40532079D01*
X73097107Y-40532557D01*
X73092252Y-40532079D01*
X73087578Y-40530661D01*
X73083276Y-40528362D01*
X73074737Y-40521354D01*
X72499344Y-39945961D01*
X72486626Y-39930464D01*
X72469299Y-39913137D01*
X72448924Y-39899523D01*
X72426286Y-39890146D01*
X72402252Y-39885365D01*
X72377748Y-39885365D01*
X72353715Y-39890145D01*
X72331076Y-39899523D01*
X72310702Y-39913136D01*
X72293374Y-39930464D01*
X72280656Y-39945961D01*
X71705263Y-40521354D01*
X71696724Y-40528362D01*
X71692422Y-40530661D01*
X71687748Y-40532079D01*
X71682893Y-40532557D01*
X71678038Y-40532079D01*
X71673364Y-40530661D01*
X71669062Y-40528362D01*
X71660523Y-40521354D01*
X71456362Y-40317193D01*
X71449354Y-40308654D01*
X71447055Y-40304352D01*
X71445637Y-40299678D01*
X71444829Y-40291476D01*
X71440048Y-40267442D01*
X71430670Y-40244804D01*
X71417055Y-40224430D01*
X71399728Y-40207103D01*
X71379353Y-40193490D01*
X71356714Y-40184113D01*
X71332687Y-40179334D01*
X71324484Y-40178526D01*
X71319810Y-40177108D01*
X71315508Y-40174809D01*
X71306969Y-40167801D01*
X71102808Y-39963640D01*
X71095800Y-39955101D01*
X71093501Y-39950799D01*
X71092083Y-39946125D01*
X71091275Y-39937922D01*
X71086494Y-39913889D01*
X71077116Y-39891250D01*
X71063502Y-39870876D01*
X71046174Y-39853550D01*
X71025800Y-39839936D01*
X71003161Y-39830560D01*
X70979133Y-39825780D01*
X70970931Y-39824972D01*
X70966257Y-39823554D01*
X70961955Y-39821255D01*
X70953416Y-39814247D01*
X70749255Y-39610086D01*
X70742247Y-39601547D01*
X70739948Y-39597245D01*
X70738530Y-39592571D01*
X70737722Y-39584369D01*
X70732941Y-39560335D01*
X70723563Y-39537697D01*
X70709948Y-39517323D01*
X70692621Y-39499996D01*
X70672246Y-39486383D01*
X70649607Y-39477006D01*
X70625580Y-39472227D01*
X70617378Y-39471419D01*
X70612704Y-39470001D01*
X70608402Y-39467702D01*
X70599863Y-39460694D01*
X70395702Y-39256533D01*
X70388694Y-39247994D01*
X70386395Y-39243692D01*
X70384977Y-39239018D01*
X70384169Y-39230816D01*
X70379388Y-39206782D01*
X70370010Y-39184144D01*
X70356395Y-39163770D01*
X70339068Y-39146443D01*
X70318693Y-39132830D01*
X70296054Y-39123453D01*
X70272027Y-39118674D01*
X70263824Y-39117866D01*
X70259150Y-39116448D01*
X70254848Y-39114149D01*
X70246309Y-39107141D01*
X70042148Y-38902980D01*
X70035140Y-38894441D01*
X70032841Y-38890139D01*
X70031423Y-38885465D01*
X70030615Y-38877262D01*
X70025834Y-38853229D01*
X70016456Y-38830590D01*
X70002842Y-38810216D01*
X69985514Y-38792890D01*
X69965140Y-38779276D01*
X69942501Y-38769900D01*
X69918473Y-38765120D01*
X69910271Y-38764312D01*
X69905597Y-38762894D01*
X69901295Y-38760595D01*
X69892756Y-38753587D01*
X69688595Y-38549426D01*
X69681587Y-38540887D01*
X69679288Y-38536585D01*
X69677870Y-38531911D01*
X69677392Y-38527056D01*
X69677870Y-38522201D01*
X69679288Y-38517527D01*
X69681587Y-38513225D01*
X69688595Y-38504686D01*
X70263988Y-37929293D01*
X70279485Y-37916575D01*
X70296812Y-37899248D01*
X70310426Y-37878873D01*
X70319803Y-37856235D01*
X70324584Y-37832201D01*
X70324584Y-37807697D01*
X70319804Y-37783664D01*
X70310426Y-37761025D01*
X70296813Y-37740651D01*
X70279485Y-37723323D01*
X70263988Y-37710605D01*
X69688595Y-37135212D01*
X69681587Y-37126673D01*
X69679288Y-37122371D01*
X69677870Y-37117697D01*
X69677392Y-37112842D01*
X69677870Y-37107987D01*
X69679288Y-37103313D01*
X69681587Y-37099011D01*
X69688595Y-37090472D01*
X69892756Y-36886311D01*
X69901295Y-36879303D01*
X69905597Y-36877004D01*
X69910271Y-36875586D01*
X69918473Y-36874778D01*
X69942507Y-36869997D01*
X69965145Y-36860619D01*
X69985519Y-36847004D01*
X70002846Y-36829677D01*
X70016459Y-36809302D01*
X70025836Y-36786663D01*
X70030615Y-36762636D01*
X70031423Y-36754433D01*
X70032841Y-36749759D01*
X70035140Y-36745457D01*
X70042148Y-36736918D01*
X70246309Y-36532757D01*
X70254848Y-36525749D01*
X70259150Y-36523450D01*
X70263824Y-36522032D01*
X70272027Y-36521224D01*
X70296060Y-36516443D01*
X70318699Y-36507065D01*
X70339073Y-36493451D01*
X70356399Y-36476123D01*
X70370013Y-36455749D01*
X70379389Y-36433110D01*
X70384169Y-36409082D01*
X70384977Y-36400880D01*
X70386395Y-36396206D01*
X70388694Y-36391904D01*
X70395702Y-36383365D01*
X70599863Y-36179204D01*
X70608402Y-36172196D01*
X70612704Y-36169897D01*
X70617378Y-36168479D01*
X70625580Y-36167671D01*
X70649614Y-36162890D01*
X70672252Y-36153512D01*
X70692626Y-36139897D01*
X70709953Y-36122570D01*
X70723566Y-36102195D01*
X70732943Y-36079556D01*
X70737722Y-36055529D01*
X70738530Y-36047327D01*
X70739948Y-36042653D01*
X70742247Y-36038351D01*
X70749255Y-36029812D01*
X70953416Y-35825651D01*
X70961955Y-35818643D01*
X70966257Y-35816344D01*
X70970931Y-35814926D01*
X70979133Y-35814118D01*
X71003167Y-35809337D01*
X71025805Y-35799959D01*
X71046179Y-35786344D01*
X71063506Y-35769017D01*
X71077119Y-35748642D01*
X71086496Y-35726003D01*
X71091275Y-35701976D01*
X71092083Y-35693773D01*
X71093501Y-35689099D01*
X71095800Y-35684797D01*
X71102808Y-35676258D01*
X71306969Y-35472097D01*
X71315508Y-35465089D01*
X71319810Y-35462790D01*
X71324484Y-35461372D01*
X71332687Y-35460564D01*
X71356720Y-35455783D01*
X71379359Y-35446405D01*
X71399733Y-35432791D01*
X71417059Y-35415463D01*
X71430673Y-35395089D01*
X71440049Y-35372450D01*
X71444829Y-35348422D01*
X71445637Y-35340220D01*
X71447055Y-35335546D01*
X71449354Y-35331244D01*
X71456362Y-35322705D01*
X71660523Y-35118544D01*
X71669062Y-35111536D01*
X71673364Y-35109237D01*
X71678038Y-35107819D01*
X71682893Y-35107341D01*
X71687748Y-35107819D01*
X71692422Y-35109237D01*
X71696724Y-35111536D01*
X71705263Y-35118544D01*
X72280656Y-35693937D01*
X72293374Y-35709434D01*
X72310701Y-35726761D01*
X72331076Y-35740375D01*
X72353714Y-35749752D01*
X72377748Y-35754533D01*
X72402252Y-35754533D01*
X72426285Y-35749753D01*
X72448924Y-35740375D01*
X72469298Y-35726762D01*
X72486626Y-35709434D01*
X72499344Y-35693937D01*
X73074737Y-35118544D01*
X73083276Y-35111536D01*
X73087578Y-35109237D01*
X73092252Y-35107819D01*
X73097107Y-35107341D01*
X73101962Y-35107819D01*
X73101962Y-35107819D01*
G37*
G36*
X65149591Y-39368085D02*
G01*
X65183569Y-39378393D01*
X65214890Y-39395134D01*
X65242339Y-39417661D01*
X65264866Y-39445110D01*
X65281607Y-39476431D01*
X65291915Y-39510409D01*
X65296000Y-39551890D01*
X65296000Y-40153110D01*
X65291915Y-40194591D01*
X65281607Y-40228569D01*
X65264866Y-40259890D01*
X65242339Y-40287339D01*
X65214890Y-40309866D01*
X65183569Y-40326607D01*
X65149591Y-40336915D01*
X65108110Y-40341000D01*
X64431890Y-40341000D01*
X64390409Y-40336915D01*
X64356431Y-40326607D01*
X64325110Y-40309866D01*
X64297661Y-40287339D01*
X64275134Y-40259890D01*
X64258393Y-40228569D01*
X64248085Y-40194591D01*
X64244000Y-40153110D01*
X64244000Y-39551890D01*
X64248085Y-39510409D01*
X64258393Y-39476431D01*
X64275134Y-39445110D01*
X64297661Y-39417661D01*
X64325110Y-39395134D01*
X64356431Y-39378393D01*
X64390409Y-39368085D01*
X64431890Y-39364000D01*
X65108110Y-39364000D01*
X65149591Y-39368085D01*
X65149591Y-39368085D01*
G37*
G36*
X93154990Y-37103313D02*
G01*
X93332410Y-37138604D01*
X93614674Y-37255521D01*
X93868705Y-37425259D01*
X94084741Y-37641295D01*
X94254479Y-37895326D01*
X94371396Y-38177590D01*
X94395134Y-38296928D01*
X94431000Y-38477239D01*
X94431000Y-38782761D01*
X94408145Y-38897661D01*
X94371396Y-39082410D01*
X94254479Y-39364674D01*
X94084741Y-39618705D01*
X93868705Y-39834741D01*
X93614674Y-40004479D01*
X93332410Y-40121396D01*
X93216756Y-40144401D01*
X93032761Y-40181000D01*
X92727239Y-40181000D01*
X92543244Y-40144401D01*
X92427590Y-40121396D01*
X92145326Y-40004479D01*
X91891295Y-39834741D01*
X91675259Y-39618705D01*
X91505521Y-39364674D01*
X91388604Y-39082410D01*
X91351855Y-38897661D01*
X91329000Y-38782761D01*
X91329000Y-38477239D01*
X91364866Y-38296928D01*
X91388604Y-38177590D01*
X91505521Y-37895326D01*
X91675259Y-37641295D01*
X91891295Y-37425259D01*
X92145326Y-37255521D01*
X92427590Y-37138604D01*
X92605010Y-37103313D01*
X92727239Y-37079000D01*
X93032761Y-37079000D01*
X93154990Y-37103313D01*
X93154990Y-37103313D01*
G37*
G36*
X84896601Y-37459397D02*
G01*
X84935305Y-37467096D01*
X84967340Y-37480365D01*
X85044680Y-37512400D01*
X85143115Y-37578173D01*
X85226827Y-37661885D01*
X85292600Y-37760320D01*
X85322373Y-37832201D01*
X85337904Y-37869695D01*
X85343002Y-37895326D01*
X85361000Y-37985805D01*
X85361000Y-38104195D01*
X85337904Y-38220304D01*
X85292600Y-38329680D01*
X85226827Y-38428115D01*
X85143114Y-38511828D01*
X85100850Y-38540068D01*
X85081908Y-38555614D01*
X85066363Y-38574556D01*
X85054812Y-38596166D01*
X85047699Y-38619615D01*
X85045297Y-38644001D01*
X85047699Y-38668388D01*
X85054812Y-38691836D01*
X85066363Y-38713447D01*
X85081909Y-38732389D01*
X85100851Y-38747934D01*
X85122461Y-38759485D01*
X85145910Y-38766598D01*
X85170296Y-38769000D01*
X85439519Y-38769000D01*
X85527818Y-38777696D01*
X85641105Y-38812062D01*
X85745512Y-38867869D01*
X85837027Y-38942973D01*
X85912131Y-39034488D01*
X85967938Y-39138895D01*
X86002304Y-39252182D01*
X86013907Y-39370000D01*
X86002304Y-39487818D01*
X85967938Y-39601105D01*
X85912131Y-39705512D01*
X85837027Y-39797027D01*
X85745512Y-39872131D01*
X85641105Y-39927938D01*
X85527818Y-39962304D01*
X85439519Y-39971000D01*
X84080481Y-39971000D01*
X83992182Y-39962304D01*
X83878895Y-39927938D01*
X83774488Y-39872131D01*
X83682973Y-39797027D01*
X83607869Y-39705512D01*
X83552062Y-39601105D01*
X83517696Y-39487818D01*
X83506093Y-39370000D01*
X83517696Y-39252182D01*
X83552062Y-39138895D01*
X83607869Y-39034488D01*
X83682973Y-38942973D01*
X83774488Y-38867869D01*
X83878895Y-38812062D01*
X83992182Y-38777696D01*
X84080481Y-38769000D01*
X84349704Y-38769000D01*
X84374090Y-38766598D01*
X84397539Y-38759485D01*
X84419150Y-38747934D01*
X84438092Y-38732389D01*
X84453637Y-38713447D01*
X84465188Y-38691836D01*
X84472301Y-38668387D01*
X84474703Y-38644001D01*
X84472301Y-38619615D01*
X84465188Y-38596166D01*
X84453637Y-38574555D01*
X84438092Y-38555613D01*
X84419150Y-38540068D01*
X84376886Y-38511828D01*
X84293173Y-38428115D01*
X84227400Y-38329680D01*
X84182096Y-38220304D01*
X84159000Y-38104195D01*
X84159000Y-37985805D01*
X84176998Y-37895326D01*
X84182096Y-37869695D01*
X84197627Y-37832201D01*
X84227400Y-37760320D01*
X84293173Y-37661885D01*
X84376885Y-37578173D01*
X84475320Y-37512400D01*
X84552660Y-37480365D01*
X84584695Y-37467096D01*
X84623399Y-37459397D01*
X84700805Y-37444000D01*
X84819195Y-37444000D01*
X84896601Y-37459397D01*
X84896601Y-37459397D01*
G37*
G36*
X82061000Y-38647974D02*
G01*
X82063402Y-38672360D01*
X82070515Y-38695809D01*
X82082066Y-38717420D01*
X82097611Y-38736362D01*
X82116553Y-38751907D01*
X82138164Y-38763458D01*
X82161613Y-38770571D01*
X82173747Y-38772371D01*
X82227818Y-38777696D01*
X82341105Y-38812062D01*
X82445512Y-38867869D01*
X82537027Y-38942973D01*
X82612131Y-39034488D01*
X82667938Y-39138895D01*
X82702304Y-39252182D01*
X82713907Y-39370000D01*
X82702304Y-39487818D01*
X82667938Y-39601105D01*
X82612131Y-39705512D01*
X82537027Y-39797027D01*
X82445512Y-39872131D01*
X82341105Y-39927938D01*
X82227818Y-39962304D01*
X82139519Y-39971000D01*
X80780481Y-39971000D01*
X80692182Y-39962304D01*
X80578895Y-39927938D01*
X80474488Y-39872131D01*
X80382973Y-39797027D01*
X80307869Y-39705512D01*
X80252062Y-39601105D01*
X80217696Y-39487818D01*
X80206093Y-39370000D01*
X80217696Y-39252182D01*
X80252062Y-39138895D01*
X80307869Y-39034488D01*
X80382973Y-38942973D01*
X80474488Y-38867869D01*
X80578895Y-38812062D01*
X80692182Y-38777696D01*
X80746253Y-38772371D01*
X80770286Y-38767591D01*
X80792925Y-38758213D01*
X80813299Y-38744600D01*
X80830626Y-38727273D01*
X80844240Y-38706898D01*
X80853618Y-38684260D01*
X80858398Y-38660226D01*
X80859000Y-38647974D01*
X80859000Y-37444000D01*
X82061000Y-37444000D01*
X82061000Y-38647974D01*
X82061000Y-38647974D01*
G37*
G36*
X63181000Y-39921000D02*
G01*
X61279000Y-39921000D01*
X61279000Y-38819000D01*
X63181000Y-38819000D01*
X63181000Y-39921000D01*
X63181000Y-39921000D01*
G37*
G36*
X60819591Y-38848085D02*
G01*
X60853569Y-38858393D01*
X60884890Y-38875134D01*
X60912339Y-38897661D01*
X60934866Y-38925110D01*
X60951607Y-38956431D01*
X60961915Y-38990409D01*
X60966000Y-39031890D01*
X60966000Y-39708110D01*
X60961915Y-39749591D01*
X60951607Y-39783569D01*
X60934866Y-39814890D01*
X60912339Y-39842339D01*
X60884890Y-39864866D01*
X60853569Y-39881607D01*
X60819591Y-39891915D01*
X60778110Y-39896000D01*
X60176890Y-39896000D01*
X60135409Y-39891915D01*
X60101431Y-39881607D01*
X60070110Y-39864866D01*
X60042661Y-39842339D01*
X60020134Y-39814890D01*
X60003393Y-39783569D01*
X59993085Y-39749591D01*
X59989000Y-39708110D01*
X59989000Y-39031890D01*
X59993085Y-38990409D01*
X60003393Y-38956431D01*
X60020134Y-38925110D01*
X60042661Y-38897661D01*
X60070110Y-38875134D01*
X60101431Y-38858393D01*
X60135409Y-38848085D01*
X60176890Y-38844000D01*
X60778110Y-38844000D01*
X60819591Y-38848085D01*
X60819591Y-38848085D01*
G37*
G36*
X59244591Y-38848085D02*
G01*
X59278569Y-38858393D01*
X59309890Y-38875134D01*
X59337339Y-38897661D01*
X59359866Y-38925110D01*
X59376607Y-38956431D01*
X59386915Y-38990409D01*
X59391000Y-39031890D01*
X59391000Y-39708110D01*
X59386915Y-39749591D01*
X59376607Y-39783569D01*
X59359866Y-39814890D01*
X59337339Y-39842339D01*
X59309890Y-39864866D01*
X59278569Y-39881607D01*
X59244591Y-39891915D01*
X59203110Y-39896000D01*
X58601890Y-39896000D01*
X58560409Y-39891915D01*
X58526431Y-39881607D01*
X58495110Y-39864866D01*
X58467661Y-39842339D01*
X58445134Y-39814890D01*
X58428393Y-39783569D01*
X58418085Y-39749591D01*
X58414000Y-39708110D01*
X58414000Y-39031890D01*
X58418085Y-38990409D01*
X58428393Y-38956431D01*
X58445134Y-38925110D01*
X58467661Y-38897661D01*
X58495110Y-38875134D01*
X58526431Y-38858393D01*
X58560409Y-38848085D01*
X58601890Y-38844000D01*
X59203110Y-38844000D01*
X59244591Y-38848085D01*
X59244591Y-38848085D01*
G37*
G36*
X86477817Y-36377696D02*
G01*
X86591104Y-36412062D01*
X86695511Y-36467869D01*
X86705575Y-36476128D01*
X86787027Y-36542973D01*
X86842107Y-36610089D01*
X86862131Y-36634488D01*
X86917938Y-36738895D01*
X86952304Y-36852182D01*
X86961000Y-36940481D01*
X86961000Y-38299519D01*
X86952304Y-38387818D01*
X86917938Y-38501105D01*
X86862131Y-38605512D01*
X86787027Y-38697027D01*
X86695512Y-38772131D01*
X86591105Y-38827938D01*
X86477818Y-38862304D01*
X86360000Y-38873907D01*
X86242183Y-38862304D01*
X86128896Y-38827938D01*
X86024489Y-38772131D01*
X85932974Y-38697027D01*
X85857870Y-38605512D01*
X85802063Y-38501105D01*
X85767697Y-38387818D01*
X85759001Y-38299519D01*
X85759000Y-36940482D01*
X85767696Y-36852183D01*
X85802062Y-36738896D01*
X85857869Y-36634489D01*
X85924304Y-36553537D01*
X85932973Y-36542973D01*
X86010572Y-36479289D01*
X86024488Y-36467869D01*
X86128895Y-36412062D01*
X86242182Y-36377696D01*
X86360000Y-36366093D01*
X86477817Y-36377696D01*
X86477817Y-36377696D01*
G37*
G36*
X79977817Y-36377696D02*
G01*
X80091104Y-36412062D01*
X80195511Y-36467869D01*
X80205575Y-36476128D01*
X80287027Y-36542973D01*
X80342107Y-36610089D01*
X80362131Y-36634488D01*
X80417938Y-36738895D01*
X80452304Y-36852182D01*
X80461000Y-36940481D01*
X80461000Y-38299519D01*
X80452304Y-38387818D01*
X80417938Y-38501105D01*
X80362131Y-38605512D01*
X80287027Y-38697027D01*
X80195512Y-38772131D01*
X80091105Y-38827938D01*
X79977818Y-38862304D01*
X79860000Y-38873907D01*
X79742183Y-38862304D01*
X79628896Y-38827938D01*
X79524489Y-38772131D01*
X79432974Y-38697027D01*
X79357870Y-38605512D01*
X79302063Y-38501105D01*
X79267697Y-38387818D01*
X79259001Y-38299519D01*
X79259000Y-36940482D01*
X79267696Y-36852183D01*
X79302062Y-36738896D01*
X79357869Y-36634489D01*
X79424304Y-36553537D01*
X79432973Y-36542973D01*
X79510572Y-36479289D01*
X79524488Y-36467869D01*
X79628895Y-36412062D01*
X79742182Y-36377696D01*
X79860000Y-36366093D01*
X79977817Y-36377696D01*
X79977817Y-36377696D01*
G37*
G36*
X83246601Y-37459397D02*
G01*
X83285305Y-37467096D01*
X83317340Y-37480365D01*
X83394680Y-37512400D01*
X83493115Y-37578173D01*
X83576827Y-37661885D01*
X83642600Y-37760320D01*
X83672373Y-37832201D01*
X83687904Y-37869695D01*
X83693002Y-37895326D01*
X83711000Y-37985805D01*
X83711000Y-38104195D01*
X83687904Y-38220304D01*
X83642600Y-38329680D01*
X83576827Y-38428115D01*
X83493115Y-38511827D01*
X83394680Y-38577600D01*
X83317340Y-38609635D01*
X83285305Y-38622904D01*
X83246601Y-38630603D01*
X83169195Y-38646000D01*
X83050805Y-38646000D01*
X82973399Y-38630603D01*
X82934695Y-38622904D01*
X82902660Y-38609635D01*
X82825320Y-38577600D01*
X82726885Y-38511827D01*
X82643173Y-38428115D01*
X82577400Y-38329680D01*
X82532096Y-38220304D01*
X82509000Y-38104195D01*
X82509000Y-37985805D01*
X82526998Y-37895326D01*
X82532096Y-37869695D01*
X82547627Y-37832201D01*
X82577400Y-37760320D01*
X82643173Y-37661885D01*
X82726885Y-37578173D01*
X82825320Y-37512400D01*
X82902660Y-37480365D01*
X82934695Y-37467096D01*
X82973399Y-37459397D01*
X83050805Y-37444000D01*
X83169195Y-37444000D01*
X83246601Y-37459397D01*
X83246601Y-37459397D01*
G37*
G36*
X58368213Y-36016249D02*
G01*
X58462652Y-36044897D01*
X58549687Y-36091418D01*
X58625975Y-36154025D01*
X58688582Y-36230313D01*
X58735103Y-36317348D01*
X58763751Y-36411787D01*
X58773424Y-36510000D01*
X58763751Y-36608213D01*
X58735103Y-36702652D01*
X58688582Y-36789687D01*
X58625975Y-36865975D01*
X58549687Y-36928582D01*
X58462652Y-36975103D01*
X58368213Y-37003751D01*
X58294612Y-37011000D01*
X57445388Y-37011000D01*
X57371787Y-37003751D01*
X57277348Y-36975103D01*
X57190313Y-36928582D01*
X57114025Y-36865975D01*
X57051418Y-36789687D01*
X57004897Y-36702652D01*
X56976249Y-36608213D01*
X56966576Y-36510000D01*
X56976249Y-36411787D01*
X57004897Y-36317348D01*
X57051418Y-36230313D01*
X57114025Y-36154025D01*
X57190313Y-36091418D01*
X57277348Y-36044897D01*
X57371787Y-36016249D01*
X57445388Y-36009000D01*
X58294612Y-36009000D01*
X58368213Y-36016249D01*
X58368213Y-36016249D01*
G37*
G36*
X62098213Y-36016249D02*
G01*
X62192652Y-36044897D01*
X62279687Y-36091418D01*
X62355975Y-36154025D01*
X62418582Y-36230313D01*
X62465103Y-36317348D01*
X62493751Y-36411787D01*
X62503424Y-36510000D01*
X62493751Y-36608213D01*
X62465103Y-36702652D01*
X62418582Y-36789687D01*
X62355975Y-36865975D01*
X62279687Y-36928582D01*
X62192652Y-36975103D01*
X62098213Y-37003751D01*
X62024612Y-37011000D01*
X60475388Y-37011000D01*
X60401787Y-37003751D01*
X60307348Y-36975103D01*
X60220313Y-36928582D01*
X60144025Y-36865975D01*
X60081418Y-36789687D01*
X60034897Y-36702652D01*
X60006249Y-36608213D01*
X59996576Y-36510000D01*
X60006249Y-36411787D01*
X60034897Y-36317348D01*
X60081418Y-36230313D01*
X60144025Y-36154025D01*
X60220313Y-36091418D01*
X60307348Y-36044897D01*
X60401787Y-36016249D01*
X60475388Y-36009000D01*
X62024612Y-36009000D01*
X62098213Y-36016249D01*
X62098213Y-36016249D01*
G37*
G36*
X83986057Y-35407300D02*
G01*
X84035305Y-35417096D01*
X84067340Y-35430365D01*
X84144680Y-35462400D01*
X84243115Y-35528173D01*
X84326827Y-35611885D01*
X84392600Y-35710320D01*
X84420854Y-35778532D01*
X84437904Y-35819695D01*
X84442226Y-35841423D01*
X84461000Y-35935805D01*
X84461000Y-36054195D01*
X84454469Y-36087028D01*
X84437904Y-36170305D01*
X84435545Y-36176000D01*
X84392600Y-36279680D01*
X84326827Y-36378115D01*
X84243115Y-36461827D01*
X84144680Y-36527600D01*
X84082061Y-36553537D01*
X84035305Y-36572904D01*
X83996601Y-36580603D01*
X83919195Y-36596000D01*
X83800805Y-36596000D01*
X83723399Y-36580603D01*
X83684695Y-36572904D01*
X83637939Y-36553537D01*
X83575320Y-36527600D01*
X83476885Y-36461827D01*
X83393173Y-36378115D01*
X83327400Y-36279680D01*
X83284455Y-36176000D01*
X83282096Y-36170305D01*
X83265531Y-36087028D01*
X83259000Y-36054195D01*
X83259000Y-35935805D01*
X83277774Y-35841423D01*
X83282096Y-35819695D01*
X83299146Y-35778532D01*
X83327400Y-35710320D01*
X83393173Y-35611885D01*
X83476885Y-35528173D01*
X83575320Y-35462400D01*
X83652660Y-35430365D01*
X83684695Y-35417096D01*
X83733943Y-35407300D01*
X83800805Y-35394000D01*
X83919195Y-35394000D01*
X83986057Y-35407300D01*
X83986057Y-35407300D01*
G37*
G36*
X82386057Y-35407300D02*
G01*
X82435305Y-35417096D01*
X82467340Y-35430365D01*
X82544680Y-35462400D01*
X82643115Y-35528173D01*
X82726827Y-35611885D01*
X82792600Y-35710320D01*
X82820854Y-35778532D01*
X82837904Y-35819695D01*
X82842226Y-35841423D01*
X82861000Y-35935805D01*
X82861000Y-36054195D01*
X82854469Y-36087028D01*
X82837904Y-36170305D01*
X82835545Y-36176000D01*
X82792600Y-36279680D01*
X82726827Y-36378115D01*
X82643115Y-36461827D01*
X82544680Y-36527600D01*
X82482061Y-36553537D01*
X82435305Y-36572904D01*
X82396601Y-36580603D01*
X82319195Y-36596000D01*
X82200805Y-36596000D01*
X82123399Y-36580603D01*
X82084695Y-36572904D01*
X82037939Y-36553537D01*
X81975320Y-36527600D01*
X81876885Y-36461827D01*
X81793173Y-36378115D01*
X81727400Y-36279680D01*
X81684455Y-36176000D01*
X81682096Y-36170305D01*
X81665531Y-36087028D01*
X81659000Y-36054195D01*
X81659000Y-35935805D01*
X81677774Y-35841423D01*
X81682096Y-35819695D01*
X81699146Y-35778532D01*
X81727400Y-35710320D01*
X81793173Y-35611885D01*
X81876885Y-35528173D01*
X81975320Y-35462400D01*
X82052660Y-35430365D01*
X82084695Y-35417096D01*
X82133943Y-35407300D01*
X82200805Y-35394000D01*
X82319195Y-35394000D01*
X82386057Y-35407300D01*
X82386057Y-35407300D01*
G37*
G36*
X91021000Y-36411000D02*
G01*
X89319000Y-36411000D01*
X89319000Y-34709000D01*
X91021000Y-34709000D01*
X91021000Y-36411000D01*
X91021000Y-36411000D01*
G37*
G36*
X86020721Y-35095174D02*
G01*
X86120995Y-35136709D01*
X86137079Y-35147456D01*
X86211242Y-35197010D01*
X86287990Y-35273758D01*
X86290134Y-35276967D01*
X86348291Y-35364005D01*
X86389826Y-35464279D01*
X86411000Y-35570730D01*
X86411000Y-35679270D01*
X86389826Y-35785721D01*
X86348291Y-35885995D01*
X86329628Y-35913926D01*
X86287990Y-35976242D01*
X86211242Y-36052990D01*
X86207442Y-36055529D01*
X86120995Y-36113291D01*
X86020721Y-36154826D01*
X85914270Y-36176000D01*
X85805730Y-36176000D01*
X85699279Y-36154826D01*
X85599005Y-36113291D01*
X85512558Y-36055529D01*
X85508758Y-36052990D01*
X85432010Y-35976242D01*
X85390372Y-35913926D01*
X85371709Y-35885995D01*
X85330174Y-35785721D01*
X85309000Y-35679270D01*
X85309000Y-35570730D01*
X85330174Y-35464279D01*
X85371709Y-35364005D01*
X85429866Y-35276967D01*
X85432010Y-35273758D01*
X85508758Y-35197010D01*
X85582921Y-35147456D01*
X85599005Y-35136709D01*
X85699279Y-35095174D01*
X85805730Y-35074000D01*
X85914270Y-35074000D01*
X86020721Y-35095174D01*
X86020721Y-35095174D01*
G37*
G36*
X80520721Y-35095174D02*
G01*
X80620995Y-35136709D01*
X80637079Y-35147456D01*
X80711242Y-35197010D01*
X80787990Y-35273758D01*
X80790134Y-35276967D01*
X80848291Y-35364005D01*
X80889826Y-35464279D01*
X80911000Y-35570730D01*
X80911000Y-35679270D01*
X80889826Y-35785721D01*
X80848291Y-35885995D01*
X80829628Y-35913926D01*
X80787990Y-35976242D01*
X80711242Y-36052990D01*
X80707442Y-36055529D01*
X80620995Y-36113291D01*
X80520721Y-36154826D01*
X80414270Y-36176000D01*
X80305730Y-36176000D01*
X80199279Y-36154826D01*
X80099005Y-36113291D01*
X80012558Y-36055529D01*
X80008758Y-36052990D01*
X79932010Y-35976242D01*
X79890372Y-35913926D01*
X79871709Y-35885995D01*
X79830174Y-35785721D01*
X79809000Y-35679270D01*
X79809000Y-35570730D01*
X79830174Y-35464279D01*
X79871709Y-35364005D01*
X79929866Y-35276967D01*
X79932010Y-35273758D01*
X80008758Y-35197010D01*
X80082921Y-35147456D01*
X80099005Y-35136709D01*
X80199279Y-35095174D01*
X80305730Y-35074000D01*
X80414270Y-35074000D01*
X80520721Y-35095174D01*
X80520721Y-35095174D01*
G37*
G36*
X60958231Y-28816705D02*
G01*
X60996967Y-28824410D01*
X61027195Y-28836931D01*
X61069944Y-28854638D01*
X61135622Y-28898523D01*
X61191477Y-28954378D01*
X61235362Y-29020056D01*
X61265590Y-29093034D01*
X61281000Y-29170504D01*
X61281000Y-29249496D01*
X61265590Y-29326966D01*
X61235362Y-29399944D01*
X61191477Y-29465622D01*
X61135621Y-29521478D01*
X61121270Y-29531067D01*
X61102328Y-29546613D01*
X61086783Y-29565555D01*
X61075232Y-29587165D01*
X61068119Y-29610614D01*
X61065717Y-29635001D01*
X61068119Y-29659387D01*
X61075232Y-29682836D01*
X61086783Y-29704446D01*
X61102329Y-29723388D01*
X61121270Y-29738933D01*
X61135621Y-29748522D01*
X61191477Y-29804378D01*
X61235362Y-29870056D01*
X61265590Y-29943034D01*
X61281000Y-30020504D01*
X61281000Y-30099496D01*
X61265590Y-30176966D01*
X61235362Y-30249944D01*
X61191477Y-30315622D01*
X61135621Y-30371478D01*
X61121270Y-30381067D01*
X61102328Y-30396613D01*
X61086783Y-30415555D01*
X61075232Y-30437165D01*
X61068119Y-30460614D01*
X61065717Y-30485001D01*
X61068119Y-30509387D01*
X61075232Y-30532836D01*
X61086783Y-30554446D01*
X61102329Y-30573388D01*
X61121270Y-30588933D01*
X61135621Y-30598522D01*
X61191477Y-30654378D01*
X61235362Y-30720056D01*
X61265590Y-30793034D01*
X61281000Y-30870504D01*
X61281000Y-30949496D01*
X61278909Y-30960009D01*
X61265590Y-31026967D01*
X61258014Y-31045257D01*
X61235362Y-31099944D01*
X61191477Y-31165622D01*
X61135621Y-31221478D01*
X61121270Y-31231067D01*
X61102328Y-31246613D01*
X61086783Y-31265555D01*
X61075232Y-31287165D01*
X61068119Y-31310614D01*
X61065717Y-31335001D01*
X61068119Y-31359387D01*
X61075232Y-31382836D01*
X61086783Y-31404446D01*
X61102329Y-31423388D01*
X61121270Y-31438933D01*
X61135621Y-31448522D01*
X61191477Y-31504378D01*
X61235362Y-31570056D01*
X61253069Y-31612805D01*
X61262461Y-31635478D01*
X61265590Y-31643034D01*
X61281000Y-31720504D01*
X61281000Y-31799496D01*
X61276101Y-31824123D01*
X61269694Y-31856337D01*
X61265590Y-31876966D01*
X61235362Y-31949944D01*
X61191477Y-32015622D01*
X61135621Y-32071478D01*
X61121270Y-32081067D01*
X61102328Y-32096613D01*
X61086783Y-32115555D01*
X61075232Y-32137165D01*
X61068119Y-32160614D01*
X61065717Y-32185001D01*
X61068119Y-32209387D01*
X61075232Y-32232836D01*
X61086783Y-32254446D01*
X61102329Y-32273388D01*
X61121270Y-32288933D01*
X61135621Y-32298522D01*
X61191477Y-32354378D01*
X61235362Y-32420056D01*
X61238612Y-32427903D01*
X61265590Y-32493033D01*
X61270461Y-32517520D01*
X61281000Y-32570504D01*
X61281000Y-32649496D01*
X61265590Y-32726966D01*
X61235362Y-32799944D01*
X61191477Y-32865622D01*
X61135621Y-32921478D01*
X61121270Y-32931067D01*
X61102328Y-32946613D01*
X61086783Y-32965555D01*
X61075232Y-32987165D01*
X61068119Y-33010614D01*
X61065717Y-33035001D01*
X61068119Y-33059387D01*
X61075232Y-33082836D01*
X61086783Y-33104446D01*
X61102329Y-33123388D01*
X61121270Y-33138933D01*
X61135621Y-33148522D01*
X61191477Y-33204378D01*
X61235362Y-33270056D01*
X61265590Y-33343034D01*
X61281000Y-33420504D01*
X61281000Y-33499496D01*
X61276484Y-33522199D01*
X61265590Y-33576967D01*
X61260620Y-33588965D01*
X61235362Y-33649944D01*
X61191477Y-33715622D01*
X61135621Y-33771478D01*
X61121270Y-33781067D01*
X61102328Y-33796613D01*
X61086783Y-33815555D01*
X61075232Y-33837165D01*
X61068119Y-33860614D01*
X61065717Y-33885001D01*
X61068119Y-33909387D01*
X61075232Y-33932836D01*
X61086783Y-33954446D01*
X61102329Y-33973388D01*
X61121270Y-33988933D01*
X61135621Y-33998522D01*
X61191477Y-34054378D01*
X61235362Y-34120056D01*
X61244666Y-34142518D01*
X61265590Y-34193033D01*
X61268531Y-34207817D01*
X61281000Y-34270504D01*
X61281000Y-34349496D01*
X61265590Y-34426966D01*
X61235362Y-34499944D01*
X61191477Y-34565622D01*
X61135621Y-34621478D01*
X61121270Y-34631067D01*
X61102328Y-34646613D01*
X61086783Y-34665555D01*
X61075232Y-34687165D01*
X61068119Y-34710614D01*
X61065717Y-34735001D01*
X61068119Y-34759387D01*
X61075232Y-34782836D01*
X61086783Y-34804446D01*
X61102329Y-34823388D01*
X61121270Y-34838933D01*
X61135621Y-34848522D01*
X61191477Y-34904378D01*
X61235362Y-34970056D01*
X61253069Y-35012805D01*
X61265590Y-35043033D01*
X61281000Y-35120505D01*
X61281000Y-35199495D01*
X61265590Y-35276967D01*
X61253069Y-35307195D01*
X61235362Y-35349944D01*
X61191477Y-35415622D01*
X61135622Y-35471477D01*
X61069944Y-35515362D01*
X61039015Y-35528173D01*
X60996967Y-35545590D01*
X60958231Y-35553295D01*
X60919496Y-35561000D01*
X60840504Y-35561000D01*
X60801769Y-35553295D01*
X60763033Y-35545590D01*
X60720985Y-35528173D01*
X60690056Y-35515362D01*
X60624378Y-35471477D01*
X60568523Y-35415622D01*
X60524638Y-35349944D01*
X60506931Y-35307195D01*
X60494410Y-35276967D01*
X60479000Y-35199495D01*
X60479000Y-35120505D01*
X60494410Y-35043033D01*
X60506931Y-35012805D01*
X60524638Y-34970056D01*
X60568523Y-34904378D01*
X60624379Y-34848522D01*
X60638730Y-34838933D01*
X60657672Y-34823387D01*
X60673217Y-34804445D01*
X60684768Y-34782835D01*
X60691881Y-34759386D01*
X60694283Y-34734999D01*
X60691881Y-34710613D01*
X60684768Y-34687164D01*
X60673217Y-34665554D01*
X60657671Y-34646612D01*
X60638730Y-34631067D01*
X60624379Y-34621478D01*
X60568523Y-34565622D01*
X60524638Y-34499944D01*
X60494410Y-34426966D01*
X60479000Y-34349496D01*
X60479000Y-34270504D01*
X60491469Y-34207817D01*
X60494410Y-34193033D01*
X60515334Y-34142518D01*
X60524638Y-34120056D01*
X60568523Y-34054378D01*
X60624379Y-33998522D01*
X60638730Y-33988933D01*
X60657672Y-33973387D01*
X60673217Y-33954445D01*
X60684768Y-33932835D01*
X60691881Y-33909386D01*
X60694283Y-33884999D01*
X60691881Y-33860613D01*
X60684768Y-33837164D01*
X60673217Y-33815554D01*
X60657671Y-33796612D01*
X60638730Y-33781067D01*
X60624379Y-33771478D01*
X60568523Y-33715622D01*
X60524638Y-33649944D01*
X60499380Y-33588965D01*
X60494410Y-33576967D01*
X60483516Y-33522199D01*
X60479000Y-33499496D01*
X60479000Y-33420504D01*
X60494410Y-33343034D01*
X60524638Y-33270056D01*
X60568523Y-33204378D01*
X60624379Y-33148522D01*
X60638730Y-33138933D01*
X60657672Y-33123387D01*
X60673217Y-33104445D01*
X60684768Y-33082835D01*
X60691881Y-33059386D01*
X60694283Y-33034999D01*
X60691881Y-33010613D01*
X60684768Y-32987164D01*
X60673217Y-32965554D01*
X60657671Y-32946612D01*
X60638730Y-32931067D01*
X60624379Y-32921478D01*
X60568523Y-32865622D01*
X60524638Y-32799944D01*
X60494410Y-32726966D01*
X60479000Y-32649496D01*
X60479000Y-32570504D01*
X60489539Y-32517520D01*
X60494410Y-32493033D01*
X60521388Y-32427903D01*
X60524638Y-32420056D01*
X60568523Y-32354378D01*
X60624379Y-32298522D01*
X60638730Y-32288933D01*
X60657672Y-32273387D01*
X60673217Y-32254445D01*
X60684768Y-32232835D01*
X60691881Y-32209386D01*
X60694283Y-32184999D01*
X60691881Y-32160613D01*
X60684768Y-32137164D01*
X60673217Y-32115554D01*
X60657671Y-32096612D01*
X60638730Y-32081067D01*
X60624379Y-32071478D01*
X60568523Y-32015622D01*
X60524638Y-31949944D01*
X60494410Y-31876966D01*
X60490307Y-31856337D01*
X60483899Y-31824123D01*
X60479000Y-31799496D01*
X60479000Y-31720504D01*
X60494410Y-31643034D01*
X60497540Y-31635478D01*
X60506931Y-31612805D01*
X60524638Y-31570056D01*
X60568523Y-31504378D01*
X60624379Y-31448522D01*
X60638730Y-31438933D01*
X60657672Y-31423387D01*
X60673217Y-31404445D01*
X60684768Y-31382835D01*
X60691881Y-31359386D01*
X60694283Y-31334999D01*
X60691881Y-31310613D01*
X60684768Y-31287164D01*
X60673217Y-31265554D01*
X60657671Y-31246612D01*
X60638730Y-31231067D01*
X60624379Y-31221478D01*
X60568523Y-31165622D01*
X60524638Y-31099944D01*
X60501986Y-31045257D01*
X60494410Y-31026967D01*
X60481091Y-30960009D01*
X60479000Y-30949496D01*
X60479000Y-30870504D01*
X60494410Y-30793034D01*
X60524638Y-30720056D01*
X60568523Y-30654378D01*
X60624379Y-30598522D01*
X60638730Y-30588933D01*
X60657672Y-30573387D01*
X60673217Y-30554445D01*
X60684768Y-30532835D01*
X60691881Y-30509386D01*
X60694283Y-30484999D01*
X60691881Y-30460613D01*
X60684768Y-30437164D01*
X60673217Y-30415554D01*
X60657671Y-30396612D01*
X60638730Y-30381067D01*
X60624379Y-30371478D01*
X60568523Y-30315622D01*
X60524638Y-30249944D01*
X60494410Y-30176966D01*
X60479000Y-30099496D01*
X60479000Y-30020504D01*
X60494410Y-29943034D01*
X60524638Y-29870056D01*
X60568523Y-29804378D01*
X60624379Y-29748522D01*
X60638730Y-29738933D01*
X60657672Y-29723387D01*
X60673217Y-29704445D01*
X60684768Y-29682835D01*
X60691881Y-29659386D01*
X60694283Y-29634999D01*
X60691881Y-29610613D01*
X60684768Y-29587164D01*
X60673217Y-29565554D01*
X60657671Y-29546612D01*
X60638730Y-29531067D01*
X60624379Y-29521478D01*
X60568523Y-29465622D01*
X60524638Y-29399944D01*
X60494410Y-29326966D01*
X60479000Y-29249496D01*
X60479000Y-29170504D01*
X60494410Y-29093034D01*
X60524638Y-29020056D01*
X60568523Y-28954378D01*
X60624378Y-28898523D01*
X60690056Y-28854638D01*
X60732805Y-28836931D01*
X60763033Y-28824410D01*
X60801769Y-28816705D01*
X60840504Y-28809000D01*
X60919496Y-28809000D01*
X60958231Y-28816705D01*
X60958231Y-28816705D01*
G37*
G36*
X62308231Y-28816705D02*
G01*
X62346967Y-28824410D01*
X62377195Y-28836931D01*
X62419944Y-28854638D01*
X62485622Y-28898523D01*
X62541477Y-28954378D01*
X62585362Y-29020056D01*
X62615590Y-29093034D01*
X62631000Y-29170504D01*
X62631000Y-29249496D01*
X62615590Y-29326966D01*
X62585362Y-29399944D01*
X62541477Y-29465622D01*
X62485621Y-29521478D01*
X62471270Y-29531067D01*
X62452328Y-29546613D01*
X62436783Y-29565555D01*
X62425232Y-29587165D01*
X62418119Y-29610614D01*
X62415717Y-29635001D01*
X62418119Y-29659387D01*
X62425232Y-29682836D01*
X62436783Y-29704446D01*
X62452329Y-29723388D01*
X62471270Y-29738933D01*
X62485621Y-29748522D01*
X62541477Y-29804378D01*
X62585362Y-29870056D01*
X62615590Y-29943034D01*
X62631000Y-30020504D01*
X62631000Y-30099496D01*
X62615590Y-30176966D01*
X62585362Y-30249944D01*
X62541477Y-30315622D01*
X62485621Y-30371478D01*
X62471270Y-30381067D01*
X62452328Y-30396613D01*
X62436783Y-30415555D01*
X62425232Y-30437165D01*
X62418119Y-30460614D01*
X62415717Y-30485001D01*
X62418119Y-30509387D01*
X62425232Y-30532836D01*
X62436783Y-30554446D01*
X62452329Y-30573388D01*
X62471270Y-30588933D01*
X62485621Y-30598522D01*
X62541477Y-30654378D01*
X62585362Y-30720056D01*
X62615590Y-30793034D01*
X62631000Y-30870504D01*
X62631000Y-30949496D01*
X62628909Y-30960009D01*
X62615590Y-31026967D01*
X62608014Y-31045257D01*
X62585362Y-31099944D01*
X62541477Y-31165622D01*
X62485621Y-31221478D01*
X62471270Y-31231067D01*
X62452328Y-31246613D01*
X62436783Y-31265555D01*
X62425232Y-31287165D01*
X62418119Y-31310614D01*
X62415717Y-31335001D01*
X62418119Y-31359387D01*
X62425232Y-31382836D01*
X62436783Y-31404446D01*
X62452329Y-31423388D01*
X62471270Y-31438933D01*
X62485621Y-31448522D01*
X62541477Y-31504378D01*
X62585362Y-31570056D01*
X62603069Y-31612805D01*
X62612461Y-31635478D01*
X62615590Y-31643034D01*
X62631000Y-31720504D01*
X62631000Y-31799496D01*
X62626101Y-31824123D01*
X62619694Y-31856337D01*
X62615590Y-31876966D01*
X62585362Y-31949944D01*
X62541477Y-32015622D01*
X62485621Y-32071478D01*
X62471270Y-32081067D01*
X62452328Y-32096613D01*
X62436783Y-32115555D01*
X62425232Y-32137165D01*
X62418119Y-32160614D01*
X62415717Y-32185001D01*
X62418119Y-32209387D01*
X62425232Y-32232836D01*
X62436783Y-32254446D01*
X62452329Y-32273388D01*
X62471270Y-32288933D01*
X62485621Y-32298522D01*
X62541477Y-32354378D01*
X62585362Y-32420056D01*
X62588612Y-32427903D01*
X62615590Y-32493033D01*
X62620461Y-32517520D01*
X62631000Y-32570504D01*
X62631000Y-32649496D01*
X62615590Y-32726966D01*
X62585362Y-32799944D01*
X62541477Y-32865622D01*
X62485621Y-32921478D01*
X62471270Y-32931067D01*
X62452328Y-32946613D01*
X62436783Y-32965555D01*
X62425232Y-32987165D01*
X62418119Y-33010614D01*
X62415717Y-33035001D01*
X62418119Y-33059387D01*
X62425232Y-33082836D01*
X62436783Y-33104446D01*
X62452329Y-33123388D01*
X62471270Y-33138933D01*
X62485621Y-33148522D01*
X62541477Y-33204378D01*
X62585362Y-33270056D01*
X62615590Y-33343034D01*
X62631000Y-33420504D01*
X62631000Y-33499496D01*
X62626484Y-33522199D01*
X62615590Y-33576967D01*
X62610620Y-33588965D01*
X62585362Y-33649944D01*
X62541477Y-33715622D01*
X62485621Y-33771478D01*
X62471270Y-33781067D01*
X62452328Y-33796613D01*
X62436783Y-33815555D01*
X62425232Y-33837165D01*
X62418119Y-33860614D01*
X62415717Y-33885001D01*
X62418119Y-33909387D01*
X62425232Y-33932836D01*
X62436783Y-33954446D01*
X62452329Y-33973388D01*
X62471270Y-33988933D01*
X62485621Y-33998522D01*
X62541477Y-34054378D01*
X62585362Y-34120056D01*
X62594666Y-34142518D01*
X62615590Y-34193033D01*
X62618531Y-34207817D01*
X62631000Y-34270504D01*
X62631000Y-34349496D01*
X62615590Y-34426966D01*
X62585362Y-34499944D01*
X62541477Y-34565622D01*
X62485621Y-34621478D01*
X62471270Y-34631067D01*
X62452328Y-34646613D01*
X62436783Y-34665555D01*
X62425232Y-34687165D01*
X62418119Y-34710614D01*
X62415717Y-34735001D01*
X62418119Y-34759387D01*
X62425232Y-34782836D01*
X62436783Y-34804446D01*
X62452329Y-34823388D01*
X62471270Y-34838933D01*
X62485621Y-34848522D01*
X62541477Y-34904378D01*
X62585362Y-34970056D01*
X62603069Y-35012805D01*
X62615590Y-35043033D01*
X62631000Y-35120505D01*
X62631000Y-35199495D01*
X62615590Y-35276967D01*
X62603069Y-35307195D01*
X62585362Y-35349944D01*
X62541477Y-35415622D01*
X62485622Y-35471477D01*
X62419944Y-35515362D01*
X62389015Y-35528173D01*
X62346967Y-35545590D01*
X62308231Y-35553295D01*
X62269496Y-35561000D01*
X62190504Y-35561000D01*
X62151769Y-35553295D01*
X62113033Y-35545590D01*
X62070985Y-35528173D01*
X62040056Y-35515362D01*
X61974378Y-35471477D01*
X61918523Y-35415622D01*
X61874638Y-35349944D01*
X61856931Y-35307195D01*
X61844410Y-35276967D01*
X61829000Y-35199495D01*
X61829000Y-35120505D01*
X61844410Y-35043033D01*
X61856931Y-35012805D01*
X61874638Y-34970056D01*
X61918523Y-34904378D01*
X61974379Y-34848522D01*
X61988730Y-34838933D01*
X62007672Y-34823387D01*
X62023217Y-34804445D01*
X62034768Y-34782835D01*
X62041881Y-34759386D01*
X62044283Y-34734999D01*
X62041881Y-34710613D01*
X62034768Y-34687164D01*
X62023217Y-34665554D01*
X62007671Y-34646612D01*
X61988730Y-34631067D01*
X61974379Y-34621478D01*
X61918523Y-34565622D01*
X61874638Y-34499944D01*
X61844410Y-34426966D01*
X61829000Y-34349496D01*
X61829000Y-34270504D01*
X61841469Y-34207817D01*
X61844410Y-34193033D01*
X61865334Y-34142518D01*
X61874638Y-34120056D01*
X61918523Y-34054378D01*
X61974379Y-33998522D01*
X61988730Y-33988933D01*
X62007672Y-33973387D01*
X62023217Y-33954445D01*
X62034768Y-33932835D01*
X62041881Y-33909386D01*
X62044283Y-33884999D01*
X62041881Y-33860613D01*
X62034768Y-33837164D01*
X62023217Y-33815554D01*
X62007671Y-33796612D01*
X61988730Y-33781067D01*
X61974379Y-33771478D01*
X61918523Y-33715622D01*
X61874638Y-33649944D01*
X61849380Y-33588965D01*
X61844410Y-33576967D01*
X61833516Y-33522199D01*
X61829000Y-33499496D01*
X61829000Y-33420504D01*
X61844410Y-33343034D01*
X61874638Y-33270056D01*
X61918523Y-33204378D01*
X61974379Y-33148522D01*
X61988730Y-33138933D01*
X62007672Y-33123387D01*
X62023217Y-33104445D01*
X62034768Y-33082835D01*
X62041881Y-33059386D01*
X62044283Y-33034999D01*
X62041881Y-33010613D01*
X62034768Y-32987164D01*
X62023217Y-32965554D01*
X62007671Y-32946612D01*
X61988730Y-32931067D01*
X61974379Y-32921478D01*
X61918523Y-32865622D01*
X61874638Y-32799944D01*
X61844410Y-32726966D01*
X61829000Y-32649496D01*
X61829000Y-32570504D01*
X61839539Y-32517520D01*
X61844410Y-32493033D01*
X61871388Y-32427903D01*
X61874638Y-32420056D01*
X61918523Y-32354378D01*
X61974379Y-32298522D01*
X61988730Y-32288933D01*
X62007672Y-32273387D01*
X62023217Y-32254445D01*
X62034768Y-32232835D01*
X62041881Y-32209386D01*
X62044283Y-32184999D01*
X62041881Y-32160613D01*
X62034768Y-32137164D01*
X62023217Y-32115554D01*
X62007671Y-32096612D01*
X61988730Y-32081067D01*
X61974379Y-32071478D01*
X61918523Y-32015622D01*
X61874638Y-31949944D01*
X61844410Y-31876966D01*
X61840307Y-31856337D01*
X61833899Y-31824123D01*
X61829000Y-31799496D01*
X61829000Y-31720504D01*
X61844410Y-31643034D01*
X61847540Y-31635478D01*
X61856931Y-31612805D01*
X61874638Y-31570056D01*
X61918523Y-31504378D01*
X61974379Y-31448522D01*
X61988730Y-31438933D01*
X62007672Y-31423387D01*
X62023217Y-31404445D01*
X62034768Y-31382835D01*
X62041881Y-31359386D01*
X62044283Y-31334999D01*
X62041881Y-31310613D01*
X62034768Y-31287164D01*
X62023217Y-31265554D01*
X62007671Y-31246612D01*
X61988730Y-31231067D01*
X61974379Y-31221478D01*
X61918523Y-31165622D01*
X61874638Y-31099944D01*
X61851986Y-31045257D01*
X61844410Y-31026967D01*
X61831091Y-30960009D01*
X61829000Y-30949496D01*
X61829000Y-30870504D01*
X61844410Y-30793034D01*
X61874638Y-30720056D01*
X61918523Y-30654378D01*
X61974379Y-30598522D01*
X61988730Y-30588933D01*
X62007672Y-30573387D01*
X62023217Y-30554445D01*
X62034768Y-30532835D01*
X62041881Y-30509386D01*
X62044283Y-30484999D01*
X62041881Y-30460613D01*
X62034768Y-30437164D01*
X62023217Y-30415554D01*
X62007671Y-30396612D01*
X61988730Y-30381067D01*
X61974379Y-30371478D01*
X61918523Y-30315622D01*
X61874638Y-30249944D01*
X61844410Y-30176966D01*
X61829000Y-30099496D01*
X61829000Y-30020504D01*
X61844410Y-29943034D01*
X61874638Y-29870056D01*
X61918523Y-29804378D01*
X61974379Y-29748522D01*
X61988730Y-29738933D01*
X62007672Y-29723387D01*
X62023217Y-29704445D01*
X62034768Y-29682835D01*
X62041881Y-29659386D01*
X62044283Y-29634999D01*
X62041881Y-29610613D01*
X62034768Y-29587164D01*
X62023217Y-29565554D01*
X62007671Y-29546612D01*
X61988730Y-29531067D01*
X61974379Y-29521478D01*
X61918523Y-29465622D01*
X61874638Y-29399944D01*
X61844410Y-29326966D01*
X61829000Y-29249496D01*
X61829000Y-29170504D01*
X61844410Y-29093034D01*
X61874638Y-29020056D01*
X61918523Y-28954378D01*
X61974378Y-28898523D01*
X62040056Y-28854638D01*
X62082805Y-28836931D01*
X62113033Y-28824410D01*
X62151769Y-28816705D01*
X62190504Y-28809000D01*
X62269496Y-28809000D01*
X62308231Y-28816705D01*
X62308231Y-28816705D01*
G37*
G36*
X68652850Y-34126525D02*
G01*
X68686828Y-34136833D01*
X68718149Y-34153574D01*
X68750363Y-34180012D01*
X68790214Y-34219863D01*
X68790220Y-34219868D01*
X69135641Y-34565289D01*
X69135646Y-34565295D01*
X69175497Y-34605146D01*
X69201935Y-34637360D01*
X69218676Y-34668681D01*
X69228984Y-34702659D01*
X69232464Y-34738000D01*
X69228984Y-34773341D01*
X69218676Y-34807319D01*
X69201935Y-34838640D01*
X69175497Y-34870854D01*
X69135646Y-34910705D01*
X69135641Y-34910711D01*
X68737186Y-35309166D01*
X68737180Y-35309171D01*
X68697329Y-35349022D01*
X68665115Y-35375460D01*
X68633794Y-35392201D01*
X68599816Y-35402509D01*
X68564475Y-35405989D01*
X68529134Y-35402509D01*
X68495156Y-35392201D01*
X68463835Y-35375460D01*
X68431621Y-35349022D01*
X68391770Y-35309171D01*
X68391764Y-35309166D01*
X68046343Y-34963745D01*
X68046338Y-34963739D01*
X68006487Y-34923888D01*
X67980049Y-34891674D01*
X67963308Y-34860353D01*
X67953000Y-34826375D01*
X67949520Y-34791034D01*
X67953000Y-34755693D01*
X67963308Y-34721715D01*
X67980049Y-34690394D01*
X68006487Y-34658180D01*
X68046338Y-34618329D01*
X68046343Y-34618323D01*
X68444798Y-34219868D01*
X68444804Y-34219863D01*
X68484655Y-34180012D01*
X68516869Y-34153574D01*
X68548190Y-34136833D01*
X68582168Y-34126525D01*
X68617509Y-34123045D01*
X68652850Y-34126525D01*
X68652850Y-34126525D01*
G37*
G36*
X75095130Y-33495702D02*
G01*
X75129108Y-33506010D01*
X75160429Y-33522751D01*
X75192643Y-33549189D01*
X75232494Y-33589040D01*
X75232500Y-33589045D01*
X75630955Y-33987500D01*
X75630960Y-33987506D01*
X75670811Y-34027357D01*
X75697249Y-34059571D01*
X75713990Y-34090892D01*
X75724298Y-34124870D01*
X75727778Y-34160211D01*
X75724298Y-34195552D01*
X75713990Y-34229530D01*
X75697249Y-34260851D01*
X75670811Y-34293065D01*
X75630960Y-34332916D01*
X75630955Y-34332922D01*
X75285534Y-34678343D01*
X75285528Y-34678348D01*
X75245677Y-34718199D01*
X75213463Y-34744637D01*
X75182142Y-34761378D01*
X75148164Y-34771686D01*
X75112823Y-34775166D01*
X75077482Y-34771686D01*
X75043504Y-34761378D01*
X75012183Y-34744637D01*
X74979969Y-34718199D01*
X74940118Y-34678348D01*
X74940112Y-34678343D01*
X74541657Y-34279888D01*
X74541652Y-34279882D01*
X74501801Y-34240031D01*
X74475363Y-34207817D01*
X74458622Y-34176496D01*
X74448314Y-34142518D01*
X74444834Y-34107177D01*
X74448314Y-34071836D01*
X74458622Y-34037858D01*
X74475363Y-34006537D01*
X74501801Y-33974323D01*
X74541652Y-33934472D01*
X74541657Y-33934466D01*
X74887078Y-33589045D01*
X74887084Y-33589040D01*
X74926935Y-33549189D01*
X74959149Y-33522751D01*
X74990470Y-33506010D01*
X75024448Y-33495702D01*
X75059789Y-33492222D01*
X75095130Y-33495702D01*
X75095130Y-33495702D01*
G37*
G36*
X67539156Y-33012831D02*
G01*
X67573134Y-33023139D01*
X67604455Y-33039880D01*
X67636669Y-33066318D01*
X67676520Y-33106169D01*
X67676526Y-33106174D01*
X68021947Y-33451595D01*
X68021952Y-33451601D01*
X68061803Y-33491452D01*
X68088241Y-33523666D01*
X68104982Y-33554987D01*
X68115290Y-33588965D01*
X68118770Y-33624306D01*
X68115290Y-33659647D01*
X68104982Y-33693625D01*
X68088241Y-33724946D01*
X68061803Y-33757160D01*
X68021952Y-33797011D01*
X68021947Y-33797017D01*
X67623492Y-34195472D01*
X67623486Y-34195477D01*
X67583635Y-34235328D01*
X67551421Y-34261766D01*
X67520100Y-34278507D01*
X67486122Y-34288815D01*
X67450781Y-34292295D01*
X67415440Y-34288815D01*
X67381462Y-34278507D01*
X67350141Y-34261766D01*
X67317927Y-34235328D01*
X67278076Y-34195477D01*
X67278070Y-34195472D01*
X66932649Y-33850051D01*
X66932644Y-33850045D01*
X66892793Y-33810194D01*
X66866355Y-33777980D01*
X66849614Y-33746659D01*
X66839306Y-33712681D01*
X66835826Y-33677340D01*
X66839306Y-33641999D01*
X66849614Y-33608021D01*
X66866355Y-33576700D01*
X66892793Y-33544486D01*
X66932644Y-33504635D01*
X66932649Y-33504629D01*
X67331104Y-33106174D01*
X67331110Y-33106169D01*
X67370961Y-33066318D01*
X67403175Y-33039880D01*
X67434496Y-33023139D01*
X67468474Y-33012831D01*
X67503815Y-33009351D01*
X67539156Y-33012831D01*
X67539156Y-33012831D01*
G37*
G36*
X69918571Y-32860803D02*
G01*
X69952549Y-32871111D01*
X69983870Y-32887852D01*
X70016084Y-32914290D01*
X70055935Y-32954141D01*
X70055941Y-32954146D01*
X70401362Y-33299567D01*
X70401367Y-33299573D01*
X70441218Y-33339424D01*
X70467656Y-33371638D01*
X70484397Y-33402959D01*
X70494705Y-33436937D01*
X70498185Y-33472278D01*
X70494705Y-33507619D01*
X70484397Y-33541597D01*
X70467656Y-33572918D01*
X70441218Y-33605132D01*
X70401367Y-33644983D01*
X70401362Y-33644989D01*
X70002907Y-34043444D01*
X70002901Y-34043449D01*
X69963050Y-34083300D01*
X69930836Y-34109738D01*
X69899515Y-34126479D01*
X69865537Y-34136787D01*
X69830196Y-34140267D01*
X69794855Y-34136787D01*
X69760877Y-34126479D01*
X69729556Y-34109738D01*
X69697342Y-34083300D01*
X69657491Y-34043449D01*
X69657485Y-34043444D01*
X69312064Y-33698023D01*
X69312059Y-33698017D01*
X69272208Y-33658166D01*
X69245770Y-33625952D01*
X69229029Y-33594631D01*
X69218721Y-33560653D01*
X69215241Y-33525312D01*
X69218721Y-33489971D01*
X69229029Y-33455993D01*
X69245770Y-33424672D01*
X69272208Y-33392458D01*
X69312059Y-33352607D01*
X69312064Y-33352601D01*
X69710519Y-32954146D01*
X69710525Y-32954141D01*
X69750376Y-32914290D01*
X69782590Y-32887852D01*
X69813911Y-32871111D01*
X69847889Y-32860803D01*
X69883230Y-32857323D01*
X69918571Y-32860803D01*
X69918571Y-32860803D01*
G37*
G36*
X90418228Y-32241703D02*
G01*
X90573100Y-32305853D01*
X90712481Y-32398985D01*
X90831015Y-32517519D01*
X90924147Y-32656900D01*
X90988297Y-32811772D01*
X91021000Y-32976184D01*
X91021000Y-33143816D01*
X90988297Y-33308228D01*
X90924147Y-33463100D01*
X90831015Y-33602481D01*
X90712481Y-33721015D01*
X90573100Y-33814147D01*
X90418228Y-33878297D01*
X90253816Y-33911000D01*
X90086184Y-33911000D01*
X89921772Y-33878297D01*
X89766900Y-33814147D01*
X89627519Y-33721015D01*
X89508985Y-33602481D01*
X89415853Y-33463100D01*
X89351703Y-33308228D01*
X89319000Y-33143816D01*
X89319000Y-32976184D01*
X89351703Y-32811772D01*
X89415853Y-32656900D01*
X89508985Y-32517519D01*
X89627519Y-32398985D01*
X89766900Y-32305853D01*
X89921772Y-32241703D01*
X90086184Y-32209000D01*
X90253816Y-32209000D01*
X90418228Y-32241703D01*
X90418228Y-32241703D01*
G37*
G36*
X76208824Y-32382008D02*
G01*
X76242802Y-32392316D01*
X76274123Y-32409057D01*
X76306337Y-32435495D01*
X76346188Y-32475346D01*
X76346194Y-32475351D01*
X76744649Y-32873806D01*
X76744654Y-32873812D01*
X76784505Y-32913663D01*
X76810943Y-32945877D01*
X76827684Y-32977198D01*
X76837992Y-33011176D01*
X76841472Y-33046517D01*
X76837992Y-33081858D01*
X76827684Y-33115836D01*
X76810943Y-33147157D01*
X76784505Y-33179371D01*
X76744654Y-33219222D01*
X76744649Y-33219228D01*
X76399228Y-33564649D01*
X76399222Y-33564654D01*
X76359371Y-33604505D01*
X76327157Y-33630943D01*
X76295836Y-33647684D01*
X76261858Y-33657992D01*
X76226517Y-33661472D01*
X76191176Y-33657992D01*
X76157198Y-33647684D01*
X76125877Y-33630943D01*
X76093663Y-33604505D01*
X76053812Y-33564654D01*
X76053806Y-33564649D01*
X75655351Y-33166194D01*
X75655346Y-33166188D01*
X75615495Y-33126337D01*
X75589057Y-33094123D01*
X75572316Y-33062802D01*
X75562008Y-33028824D01*
X75558528Y-32993483D01*
X75562008Y-32958142D01*
X75572316Y-32924164D01*
X75589057Y-32892843D01*
X75615495Y-32860629D01*
X75655346Y-32820778D01*
X75655351Y-32820772D01*
X76000772Y-32475351D01*
X76000778Y-32475346D01*
X76040629Y-32435495D01*
X76072843Y-32409057D01*
X76104164Y-32392316D01*
X76138142Y-32382008D01*
X76173483Y-32378528D01*
X76208824Y-32382008D01*
X76208824Y-32382008D01*
G37*
G36*
X73825130Y-32225702D02*
G01*
X73859108Y-32236010D01*
X73890429Y-32252751D01*
X73922643Y-32279189D01*
X73962494Y-32319040D01*
X73962500Y-32319045D01*
X74360955Y-32717500D01*
X74360960Y-32717506D01*
X74400811Y-32757357D01*
X74427249Y-32789571D01*
X74443990Y-32820892D01*
X74454298Y-32854870D01*
X74457778Y-32890211D01*
X74454298Y-32925552D01*
X74443990Y-32959530D01*
X74427249Y-32990851D01*
X74400811Y-33023065D01*
X74360960Y-33062916D01*
X74360955Y-33062922D01*
X74015534Y-33408343D01*
X74015528Y-33408348D01*
X73975677Y-33448199D01*
X73943463Y-33474637D01*
X73912142Y-33491378D01*
X73878164Y-33501686D01*
X73842823Y-33505166D01*
X73807482Y-33501686D01*
X73773504Y-33491378D01*
X73742183Y-33474637D01*
X73709969Y-33448199D01*
X73670118Y-33408348D01*
X73670112Y-33408343D01*
X73271657Y-33009888D01*
X73271652Y-33009882D01*
X73231801Y-32970031D01*
X73205363Y-32937817D01*
X73188622Y-32906496D01*
X73178314Y-32872518D01*
X73174834Y-32837177D01*
X73178314Y-32801836D01*
X73188622Y-32767858D01*
X73205363Y-32736537D01*
X73231801Y-32704323D01*
X73271652Y-32664472D01*
X73271657Y-32664466D01*
X73617078Y-32319045D01*
X73617084Y-32319040D01*
X73656935Y-32279189D01*
X73689149Y-32252751D01*
X73720470Y-32236010D01*
X73754448Y-32225702D01*
X73789789Y-32222222D01*
X73825130Y-32225702D01*
X73825130Y-32225702D01*
G37*
G36*
X68804877Y-31747109D02*
G01*
X68838855Y-31757417D01*
X68870176Y-31774158D01*
X68902390Y-31800596D01*
X68942241Y-31840447D01*
X68942247Y-31840452D01*
X69287668Y-32185873D01*
X69287673Y-32185879D01*
X69327524Y-32225730D01*
X69353962Y-32257944D01*
X69370703Y-32289265D01*
X69381011Y-32323243D01*
X69384491Y-32358584D01*
X69381011Y-32393925D01*
X69370703Y-32427903D01*
X69353962Y-32459224D01*
X69327524Y-32491438D01*
X69287673Y-32531289D01*
X69287668Y-32531295D01*
X68889213Y-32929750D01*
X68889207Y-32929755D01*
X68849356Y-32969606D01*
X68817142Y-32996044D01*
X68785821Y-33012785D01*
X68751843Y-33023093D01*
X68716502Y-33026573D01*
X68681161Y-33023093D01*
X68647183Y-33012785D01*
X68615862Y-32996044D01*
X68583648Y-32969606D01*
X68543797Y-32929755D01*
X68543791Y-32929750D01*
X68198370Y-32584329D01*
X68198365Y-32584323D01*
X68158514Y-32544472D01*
X68132076Y-32512258D01*
X68115335Y-32480937D01*
X68105027Y-32446959D01*
X68101547Y-32411618D01*
X68105027Y-32376277D01*
X68115335Y-32342299D01*
X68132076Y-32310978D01*
X68158514Y-32278764D01*
X68198365Y-32238913D01*
X68198370Y-32238907D01*
X68596825Y-31840452D01*
X68596831Y-31840447D01*
X68636682Y-31800596D01*
X68668896Y-31774158D01*
X68700217Y-31757417D01*
X68734195Y-31747109D01*
X68769536Y-31743629D01*
X68804877Y-31747109D01*
X68804877Y-31747109D01*
G37*
G36*
X71184292Y-31595082D02*
G01*
X71218270Y-31605390D01*
X71249591Y-31622131D01*
X71281805Y-31648569D01*
X71321656Y-31688420D01*
X71321662Y-31688425D01*
X71667083Y-32033846D01*
X71667088Y-32033852D01*
X71706939Y-32073703D01*
X71733377Y-32105917D01*
X71750118Y-32137238D01*
X71760426Y-32171216D01*
X71763906Y-32206557D01*
X71760426Y-32241898D01*
X71750118Y-32275876D01*
X71733377Y-32307197D01*
X71706939Y-32339411D01*
X71667088Y-32379262D01*
X71667083Y-32379268D01*
X71268628Y-32777723D01*
X71268622Y-32777728D01*
X71228771Y-32817579D01*
X71196557Y-32844017D01*
X71165236Y-32860758D01*
X71131258Y-32871066D01*
X71095917Y-32874546D01*
X71060576Y-32871066D01*
X71026598Y-32860758D01*
X70995277Y-32844017D01*
X70963063Y-32817579D01*
X70923212Y-32777728D01*
X70923206Y-32777723D01*
X70577785Y-32432302D01*
X70577780Y-32432296D01*
X70537929Y-32392445D01*
X70511491Y-32360231D01*
X70494750Y-32328910D01*
X70484442Y-32294932D01*
X70480962Y-32259591D01*
X70484442Y-32224250D01*
X70494750Y-32190272D01*
X70511491Y-32158951D01*
X70537929Y-32126737D01*
X70577780Y-32086886D01*
X70577785Y-32086880D01*
X70976240Y-31688425D01*
X70976246Y-31688420D01*
X71016097Y-31648569D01*
X71048311Y-31622131D01*
X71079632Y-31605390D01*
X71113610Y-31595082D01*
X71148951Y-31591602D01*
X71184292Y-31595082D01*
X71184292Y-31595082D01*
G37*
G36*
X74938824Y-31112008D02*
G01*
X74972802Y-31122316D01*
X75004123Y-31139057D01*
X75036337Y-31165495D01*
X75076188Y-31205346D01*
X75076194Y-31205351D01*
X75474649Y-31603806D01*
X75474654Y-31603812D01*
X75514505Y-31643663D01*
X75540943Y-31675877D01*
X75557684Y-31707198D01*
X75567992Y-31741176D01*
X75571472Y-31776517D01*
X75567992Y-31811858D01*
X75557684Y-31845836D01*
X75540943Y-31877157D01*
X75514505Y-31909371D01*
X75474654Y-31949222D01*
X75474649Y-31949228D01*
X75129228Y-32294649D01*
X75129222Y-32294654D01*
X75089371Y-32334505D01*
X75057157Y-32360943D01*
X75025836Y-32377684D01*
X74991858Y-32387992D01*
X74956517Y-32391472D01*
X74921176Y-32387992D01*
X74887198Y-32377684D01*
X74855877Y-32360943D01*
X74823663Y-32334505D01*
X74783812Y-32294654D01*
X74783806Y-32294649D01*
X74385351Y-31896194D01*
X74385346Y-31896188D01*
X74345495Y-31856337D01*
X74319057Y-31824123D01*
X74302316Y-31792802D01*
X74292008Y-31758824D01*
X74288528Y-31723483D01*
X74292008Y-31688142D01*
X74302316Y-31654164D01*
X74319057Y-31622843D01*
X74345495Y-31590629D01*
X74385346Y-31550778D01*
X74385351Y-31550772D01*
X74730772Y-31205351D01*
X74730778Y-31205346D01*
X74770629Y-31165495D01*
X74802843Y-31139057D01*
X74834164Y-31122316D01*
X74868142Y-31112008D01*
X74903483Y-31108528D01*
X74938824Y-31112008D01*
X74938824Y-31112008D01*
G37*
G36*
X90418228Y-30241703D02*
G01*
X90573100Y-30305853D01*
X90712481Y-30398985D01*
X90831015Y-30517519D01*
X90924147Y-30656900D01*
X90988297Y-30811772D01*
X91021000Y-30976184D01*
X91021000Y-31143816D01*
X90988297Y-31308228D01*
X90924147Y-31463100D01*
X90831015Y-31602481D01*
X90712481Y-31721015D01*
X90573100Y-31814147D01*
X90418228Y-31878297D01*
X90253816Y-31911000D01*
X90086184Y-31911000D01*
X89921772Y-31878297D01*
X89766900Y-31814147D01*
X89627519Y-31721015D01*
X89508985Y-31602481D01*
X89415853Y-31463100D01*
X89351703Y-31308228D01*
X89319000Y-31143816D01*
X89319000Y-30976184D01*
X89351703Y-30811772D01*
X89415853Y-30656900D01*
X89508985Y-30517519D01*
X89627519Y-30398985D01*
X89766900Y-30305853D01*
X89921772Y-30241703D01*
X90086184Y-30209000D01*
X90253816Y-30209000D01*
X90418228Y-30241703D01*
X90418228Y-30241703D01*
G37*
G36*
X70070598Y-30481388D02*
G01*
X70104576Y-30491696D01*
X70135897Y-30508437D01*
X70168111Y-30534875D01*
X70207962Y-30574726D01*
X70207968Y-30574731D01*
X70553389Y-30920152D01*
X70553394Y-30920158D01*
X70593245Y-30960009D01*
X70619683Y-30992223D01*
X70636424Y-31023544D01*
X70646732Y-31057522D01*
X70650212Y-31092863D01*
X70646732Y-31128204D01*
X70636424Y-31162182D01*
X70619683Y-31193503D01*
X70593245Y-31225717D01*
X70553394Y-31265568D01*
X70553389Y-31265574D01*
X70154934Y-31664029D01*
X70154928Y-31664034D01*
X70115077Y-31703885D01*
X70082863Y-31730323D01*
X70051542Y-31747064D01*
X70017564Y-31757372D01*
X69982223Y-31760852D01*
X69946882Y-31757372D01*
X69912904Y-31747064D01*
X69881583Y-31730323D01*
X69849369Y-31703885D01*
X69809518Y-31664034D01*
X69809512Y-31664029D01*
X69464091Y-31318608D01*
X69464086Y-31318602D01*
X69424235Y-31278751D01*
X69397797Y-31246537D01*
X69381056Y-31215216D01*
X69370748Y-31181238D01*
X69367268Y-31145897D01*
X69370748Y-31110556D01*
X69381056Y-31076578D01*
X69397797Y-31045257D01*
X69424235Y-31013043D01*
X69464086Y-30973192D01*
X69464091Y-30973186D01*
X69862546Y-30574731D01*
X69862552Y-30574726D01*
X69902403Y-30534875D01*
X69934617Y-30508437D01*
X69965938Y-30491696D01*
X69999916Y-30481388D01*
X70035257Y-30477908D01*
X70070598Y-30481388D01*
X70070598Y-30481388D01*
G37*
G36*
X74986000Y-29621000D02*
G01*
X74234000Y-29621000D01*
X74234000Y-28459000D01*
X74986000Y-28459000D01*
X74986000Y-29621000D01*
X74986000Y-29621000D01*
G37*
G36*
X73086000Y-29621000D02*
G01*
X72334000Y-29621000D01*
X72334000Y-28459000D01*
X73086000Y-28459000D01*
X73086000Y-29621000D01*
X73086000Y-29621000D01*
G37*
G36*
X90418228Y-27741703D02*
G01*
X90573100Y-27805853D01*
X90712481Y-27898985D01*
X90831015Y-28017519D01*
X90924147Y-28156900D01*
X90988297Y-28311772D01*
X91021000Y-28476184D01*
X91021000Y-28643816D01*
X90988297Y-28808228D01*
X90924147Y-28963100D01*
X90831015Y-29102481D01*
X90712481Y-29221015D01*
X90573100Y-29314147D01*
X90418228Y-29378297D01*
X90253816Y-29411000D01*
X90086184Y-29411000D01*
X89921772Y-29378297D01*
X89766900Y-29314147D01*
X89627519Y-29221015D01*
X89508985Y-29102481D01*
X89415853Y-28963100D01*
X89351703Y-28808228D01*
X89319000Y-28643816D01*
X89319000Y-28476184D01*
X89351703Y-28311772D01*
X89415853Y-28156900D01*
X89508985Y-28017519D01*
X89627519Y-27898985D01*
X89766900Y-27805853D01*
X89921772Y-27741703D01*
X90086184Y-27709000D01*
X90253816Y-27709000D01*
X90418228Y-27741703D01*
X90418228Y-27741703D01*
G37*
G36*
X71499591Y-28243085D02*
G01*
X71533569Y-28253393D01*
X71564890Y-28270134D01*
X71592339Y-28292661D01*
X71614866Y-28320110D01*
X71631607Y-28351431D01*
X71641915Y-28385409D01*
X71646000Y-28426890D01*
X71646000Y-29028110D01*
X71641915Y-29069591D01*
X71631607Y-29103569D01*
X71614866Y-29134890D01*
X71592339Y-29162339D01*
X71564890Y-29184866D01*
X71533569Y-29201607D01*
X71499591Y-29211915D01*
X71458110Y-29216000D01*
X70781890Y-29216000D01*
X70740409Y-29211915D01*
X70706431Y-29201607D01*
X70675110Y-29184866D01*
X70647661Y-29162339D01*
X70625134Y-29134890D01*
X70608393Y-29103569D01*
X70598085Y-29069591D01*
X70594000Y-29028110D01*
X70594000Y-28426890D01*
X70598085Y-28385409D01*
X70608393Y-28351431D01*
X70625134Y-28320110D01*
X70647661Y-28292661D01*
X70675110Y-28270134D01*
X70706431Y-28253393D01*
X70740409Y-28243085D01*
X70781890Y-28239000D01*
X71458110Y-28239000D01*
X71499591Y-28243085D01*
X71499591Y-28243085D01*
G37*
G36*
X66701026Y-27995585D02*
G01*
X66735004Y-28005893D01*
X66766325Y-28022634D01*
X66793774Y-28045161D01*
X66816301Y-28072610D01*
X66833042Y-28103931D01*
X66843350Y-28137909D01*
X66847435Y-28179390D01*
X66847435Y-28855610D01*
X66843350Y-28897091D01*
X66833042Y-28931069D01*
X66816301Y-28962390D01*
X66793774Y-28989839D01*
X66766325Y-29012366D01*
X66735004Y-29029107D01*
X66701026Y-29039415D01*
X66659545Y-29043500D01*
X66058325Y-29043500D01*
X66016844Y-29039415D01*
X65982866Y-29029107D01*
X65951545Y-29012366D01*
X65924096Y-28989839D01*
X65901569Y-28962390D01*
X65884828Y-28931069D01*
X65874520Y-28897091D01*
X65870435Y-28855610D01*
X65870435Y-28179390D01*
X65874520Y-28137909D01*
X65884828Y-28103931D01*
X65901569Y-28072610D01*
X65924096Y-28045161D01*
X65951545Y-28022634D01*
X65982866Y-28005893D01*
X66016844Y-27995585D01*
X66058325Y-27991500D01*
X66659545Y-27991500D01*
X66701026Y-27995585D01*
X66701026Y-27995585D01*
G37*
G36*
X68276026Y-27995585D02*
G01*
X68310004Y-28005893D01*
X68341325Y-28022634D01*
X68368774Y-28045161D01*
X68391301Y-28072610D01*
X68408042Y-28103931D01*
X68418350Y-28137909D01*
X68422435Y-28179390D01*
X68422435Y-28855610D01*
X68418350Y-28897091D01*
X68408042Y-28931069D01*
X68391301Y-28962390D01*
X68368774Y-28989839D01*
X68341325Y-29012366D01*
X68310004Y-29029107D01*
X68276026Y-29039415D01*
X68234545Y-29043500D01*
X67633325Y-29043500D01*
X67591844Y-29039415D01*
X67557866Y-29029107D01*
X67526545Y-29012366D01*
X67499096Y-28989839D01*
X67476569Y-28962390D01*
X67459828Y-28931069D01*
X67449520Y-28897091D01*
X67445435Y-28855610D01*
X67445435Y-28179390D01*
X67449520Y-28137909D01*
X67459828Y-28103931D01*
X67476569Y-28072610D01*
X67499096Y-28045161D01*
X67526545Y-28022634D01*
X67557866Y-28005893D01*
X67591844Y-27995585D01*
X67633325Y-27991500D01*
X68234545Y-27991500D01*
X68276026Y-27995585D01*
X68276026Y-27995585D01*
G37*
G36*
X62098213Y-27366249D02*
G01*
X62192652Y-27394897D01*
X62279687Y-27441418D01*
X62355975Y-27504025D01*
X62418582Y-27580313D01*
X62465103Y-27667348D01*
X62493751Y-27761787D01*
X62503424Y-27860000D01*
X62493751Y-27958213D01*
X62465103Y-28052652D01*
X62418582Y-28139687D01*
X62355975Y-28215975D01*
X62279687Y-28278582D01*
X62192652Y-28325103D01*
X62098213Y-28353751D01*
X62024612Y-28361000D01*
X60475388Y-28361000D01*
X60401787Y-28353751D01*
X60307348Y-28325103D01*
X60220313Y-28278582D01*
X60144025Y-28215975D01*
X60081418Y-28139687D01*
X60034897Y-28052652D01*
X60006249Y-27958213D01*
X59996576Y-27860000D01*
X60006249Y-27761787D01*
X60034897Y-27667348D01*
X60081418Y-27580313D01*
X60144025Y-27504025D01*
X60220313Y-27441418D01*
X60307348Y-27394897D01*
X60401787Y-27366249D01*
X60475388Y-27359000D01*
X62024612Y-27359000D01*
X62098213Y-27366249D01*
X62098213Y-27366249D01*
G37*
G36*
X58368213Y-27366249D02*
G01*
X58462652Y-27394897D01*
X58549687Y-27441418D01*
X58625975Y-27504025D01*
X58688582Y-27580313D01*
X58735103Y-27667348D01*
X58763751Y-27761787D01*
X58773424Y-27860000D01*
X58763751Y-27958213D01*
X58735103Y-28052652D01*
X58688582Y-28139687D01*
X58625975Y-28215975D01*
X58549687Y-28278582D01*
X58462652Y-28325103D01*
X58368213Y-28353751D01*
X58294612Y-28361000D01*
X57445388Y-28361000D01*
X57371787Y-28353751D01*
X57277348Y-28325103D01*
X57190313Y-28278582D01*
X57114025Y-28215975D01*
X57051418Y-28139687D01*
X57004897Y-28052652D01*
X56976249Y-27958213D01*
X56966576Y-27860000D01*
X56976249Y-27761787D01*
X57004897Y-27667348D01*
X57051418Y-27580313D01*
X57114025Y-27504025D01*
X57190313Y-27441418D01*
X57277348Y-27394897D01*
X57371787Y-27366249D01*
X57445388Y-27359000D01*
X58294612Y-27359000D01*
X58368213Y-27366249D01*
X58368213Y-27366249D01*
G37*
G36*
X71499591Y-26668085D02*
G01*
X71533569Y-26678393D01*
X71564890Y-26695134D01*
X71592339Y-26717661D01*
X71614866Y-26745110D01*
X71631607Y-26776431D01*
X71641915Y-26810409D01*
X71646000Y-26851890D01*
X71646000Y-27453110D01*
X71641915Y-27494591D01*
X71631607Y-27528569D01*
X71614866Y-27559890D01*
X71592339Y-27587339D01*
X71564890Y-27609866D01*
X71533569Y-27626607D01*
X71499591Y-27636915D01*
X71458110Y-27641000D01*
X70781890Y-27641000D01*
X70740409Y-27636915D01*
X70706431Y-27626607D01*
X70675110Y-27609866D01*
X70647661Y-27587339D01*
X70625134Y-27559890D01*
X70608393Y-27528569D01*
X70598085Y-27494591D01*
X70594000Y-27453110D01*
X70594000Y-26851890D01*
X70598085Y-26810409D01*
X70608393Y-26776431D01*
X70625134Y-26745110D01*
X70647661Y-26717661D01*
X70675110Y-26695134D01*
X70706431Y-26678393D01*
X70740409Y-26668085D01*
X70781890Y-26664000D01*
X71458110Y-26664000D01*
X71499591Y-26668085D01*
X71499591Y-26668085D01*
G37*
G36*
X74986000Y-27421000D02*
G01*
X72334000Y-27421000D01*
X72334000Y-26259000D01*
X74986000Y-26259000D01*
X74986000Y-27421000D01*
X74986000Y-27421000D01*
G37*
G36*
X68276026Y-26205585D02*
G01*
X68310004Y-26215893D01*
X68341325Y-26232634D01*
X68368774Y-26255161D01*
X68391301Y-26282610D01*
X68408042Y-26313931D01*
X68418350Y-26347909D01*
X68422435Y-26389390D01*
X68422435Y-27065610D01*
X68418350Y-27107091D01*
X68408042Y-27141069D01*
X68391301Y-27172390D01*
X68368774Y-27199839D01*
X68341325Y-27222366D01*
X68310004Y-27239107D01*
X68276026Y-27249415D01*
X68234545Y-27253500D01*
X67633325Y-27253500D01*
X67591844Y-27249415D01*
X67557866Y-27239107D01*
X67526545Y-27222366D01*
X67499096Y-27199839D01*
X67476569Y-27172390D01*
X67459828Y-27141069D01*
X67449520Y-27107091D01*
X67445435Y-27065610D01*
X67445435Y-26389390D01*
X67449520Y-26347909D01*
X67459828Y-26313931D01*
X67476569Y-26282610D01*
X67499096Y-26255161D01*
X67526545Y-26232634D01*
X67557866Y-26215893D01*
X67591844Y-26205585D01*
X67633325Y-26201500D01*
X68234545Y-26201500D01*
X68276026Y-26205585D01*
X68276026Y-26205585D01*
G37*
G36*
X66701026Y-26205585D02*
G01*
X66735004Y-26215893D01*
X66766325Y-26232634D01*
X66793774Y-26255161D01*
X66816301Y-26282610D01*
X66833042Y-26313931D01*
X66843350Y-26347909D01*
X66847435Y-26389390D01*
X66847435Y-27065610D01*
X66843350Y-27107091D01*
X66833042Y-27141069D01*
X66816301Y-27172390D01*
X66793774Y-27199839D01*
X66766325Y-27222366D01*
X66735004Y-27239107D01*
X66701026Y-27249415D01*
X66659545Y-27253500D01*
X66058325Y-27253500D01*
X66016844Y-27249415D01*
X65982866Y-27239107D01*
X65951545Y-27222366D01*
X65924096Y-27199839D01*
X65901569Y-27172390D01*
X65884828Y-27141069D01*
X65874520Y-27107091D01*
X65870435Y-27065610D01*
X65870435Y-26389390D01*
X65874520Y-26347909D01*
X65884828Y-26313931D01*
X65901569Y-26282610D01*
X65924096Y-26255161D01*
X65951545Y-26232634D01*
X65982866Y-26215893D01*
X66016844Y-26205585D01*
X66058325Y-26201500D01*
X66659545Y-26201500D01*
X66701026Y-26205585D01*
X66701026Y-26205585D01*
G37*
G36*
X79115256Y-23791298D02*
G01*
X79221579Y-23812447D01*
X79522042Y-23936903D01*
X79792451Y-24117585D01*
X80022415Y-24347549D01*
X80203097Y-24617958D01*
X80327553Y-24918421D01*
X80391000Y-25237391D01*
X80391000Y-25562609D01*
X80327553Y-25881579D01*
X80203097Y-26182042D01*
X80022415Y-26452451D01*
X79792451Y-26682415D01*
X79522042Y-26863097D01*
X79221579Y-26987553D01*
X79115256Y-27008702D01*
X78902611Y-27051000D01*
X78577389Y-27051000D01*
X78364744Y-27008702D01*
X78258421Y-26987553D01*
X77957958Y-26863097D01*
X77687549Y-26682415D01*
X77457585Y-26452451D01*
X77276903Y-26182042D01*
X77152447Y-25881579D01*
X77089000Y-25562609D01*
X77089000Y-25237391D01*
X77152447Y-24918421D01*
X77276903Y-24617958D01*
X77457585Y-24347549D01*
X77687549Y-24117585D01*
X77957958Y-23936903D01*
X78258421Y-23812447D01*
X78364744Y-23791298D01*
X78577389Y-23749000D01*
X78902611Y-23749000D01*
X79115256Y-23791298D01*
X79115256Y-23791298D01*
G37*
G36*
X93182585Y-23968802D02*
G01*
X93332410Y-23998604D01*
X93614674Y-24115521D01*
X93868705Y-24285259D01*
X94084741Y-24501295D01*
X94254479Y-24755326D01*
X94371396Y-25037590D01*
X94431000Y-25337240D01*
X94431000Y-25642760D01*
X94371396Y-25942410D01*
X94254479Y-26224674D01*
X94084741Y-26478705D01*
X93868705Y-26694741D01*
X93614674Y-26864479D01*
X93332410Y-26981396D01*
X93192378Y-27009250D01*
X93032761Y-27041000D01*
X92727239Y-27041000D01*
X92567622Y-27009250D01*
X92427590Y-26981396D01*
X92145326Y-26864479D01*
X91891295Y-26694741D01*
X91675259Y-26478705D01*
X91505521Y-26224674D01*
X91388604Y-25942410D01*
X91329000Y-25642760D01*
X91329000Y-25337240D01*
X91388604Y-25037590D01*
X91505521Y-24755326D01*
X91675259Y-24501295D01*
X91891295Y-24285259D01*
X92145326Y-24115521D01*
X92427590Y-23998604D01*
X92577415Y-23968802D01*
X92727239Y-23939000D01*
X93032761Y-23939000D01*
X93182585Y-23968802D01*
X93182585Y-23968802D01*
G37*
G36*
X68276026Y-24415585D02*
G01*
X68310004Y-24425893D01*
X68341325Y-24442634D01*
X68368774Y-24465161D01*
X68391301Y-24492610D01*
X68408042Y-24523931D01*
X68418350Y-24557909D01*
X68422435Y-24599390D01*
X68422435Y-25275610D01*
X68418350Y-25317091D01*
X68408042Y-25351069D01*
X68391301Y-25382390D01*
X68368774Y-25409839D01*
X68341325Y-25432366D01*
X68310004Y-25449107D01*
X68276026Y-25459415D01*
X68234545Y-25463500D01*
X67633325Y-25463500D01*
X67591844Y-25459415D01*
X67557866Y-25449107D01*
X67526545Y-25432366D01*
X67499096Y-25409839D01*
X67476569Y-25382390D01*
X67459828Y-25351069D01*
X67449520Y-25317091D01*
X67445435Y-25275610D01*
X67445435Y-24599390D01*
X67449520Y-24557909D01*
X67459828Y-24523931D01*
X67476569Y-24492610D01*
X67499096Y-24465161D01*
X67526545Y-24442634D01*
X67557866Y-24425893D01*
X67591844Y-24415585D01*
X67633325Y-24411500D01*
X68234545Y-24411500D01*
X68276026Y-24415585D01*
X68276026Y-24415585D01*
G37*
G36*
X66701026Y-24415585D02*
G01*
X66735004Y-24425893D01*
X66766325Y-24442634D01*
X66793774Y-24465161D01*
X66816301Y-24492610D01*
X66833042Y-24523931D01*
X66843350Y-24557909D01*
X66847435Y-24599390D01*
X66847435Y-25275610D01*
X66843350Y-25317091D01*
X66833042Y-25351069D01*
X66816301Y-25382390D01*
X66793774Y-25409839D01*
X66766325Y-25432366D01*
X66735004Y-25449107D01*
X66701026Y-25459415D01*
X66659545Y-25463500D01*
X66058325Y-25463500D01*
X66016844Y-25459415D01*
X65982866Y-25449107D01*
X65951545Y-25432366D01*
X65924096Y-25409839D01*
X65901569Y-25382390D01*
X65884828Y-25351069D01*
X65874520Y-25317091D01*
X65870435Y-25275610D01*
X65870435Y-24599390D01*
X65874520Y-24557909D01*
X65884828Y-24523931D01*
X65901569Y-24492610D01*
X65924096Y-24465161D01*
X65951545Y-24442634D01*
X65982866Y-24425893D01*
X66016844Y-24415585D01*
X66058325Y-24411500D01*
X66659545Y-24411500D01*
X66701026Y-24415585D01*
X66701026Y-24415585D01*
G37*
M02*
