G04 #@! TF.GenerationSoftware,KiCad,Pcbnew,(5.1.2)-1*
G04 #@! TF.CreationDate,2019-08-24T20:09:31-04:00*
G04 #@! TF.ProjectId,REV Type-C V3,52455620-5479-4706-952d-432056332e6b,rev?*
G04 #@! TF.SameCoordinates,Original*
G04 #@! TF.FileFunction,Copper,L2,Bot*
G04 #@! TF.FilePolarity,Positive*
%FSLAX46Y46*%
G04 Gerber Fmt 4.6, Leading zero omitted, Abs format (unit mm)*
G04 Created by KiCad (PCBNEW (5.1.2)-1) date 2019-08-24 20:09:31*
%MOMM*%
%LPD*%
G04 APERTURE LIST*
%ADD10C,0.100000*%
%ADD11C,0.875000*%
%ADD12O,1.100000X2.400000*%
%ADD13C,1.100000*%
%ADD14R,1.100000X1.100000*%
%ADD15C,2.700000*%
%ADD16C,0.500000*%
%ADD17O,1.700000X0.900000*%
%ADD18O,2.400000X0.900000*%
%ADD19C,0.700000*%
%ADD20C,1.600000*%
%ADD21R,1.600000X1.600000*%
%ADD22C,3.000000*%
%ADD23R,0.900000X0.800000*%
%ADD24C,0.800000*%
%ADD25C,0.550000*%
%ADD26C,4.000000*%
%ADD27C,0.250000*%
%ADD28C,0.254000*%
G04 APERTURE END LIST*
D10*
G36*
X126807681Y-79796379D02*
G01*
X126828916Y-79799529D01*
X126849740Y-79804745D01*
X126869952Y-79811977D01*
X126889358Y-79821156D01*
X126907771Y-79832192D01*
X126925014Y-79844980D01*
X126940920Y-79859396D01*
X126955336Y-79875302D01*
X126968124Y-79892545D01*
X126979160Y-79910958D01*
X126988339Y-79930364D01*
X126995571Y-79950576D01*
X127000787Y-79971400D01*
X127003937Y-79992635D01*
X127004990Y-80014076D01*
X127004990Y-80451576D01*
X127003937Y-80473017D01*
X127000787Y-80494252D01*
X126995571Y-80515076D01*
X126988339Y-80535288D01*
X126979160Y-80554694D01*
X126968124Y-80573107D01*
X126955336Y-80590350D01*
X126940920Y-80606256D01*
X126925014Y-80620672D01*
X126907771Y-80633460D01*
X126889358Y-80644496D01*
X126869952Y-80653675D01*
X126849740Y-80660907D01*
X126828916Y-80666123D01*
X126807681Y-80669273D01*
X126786240Y-80670326D01*
X126273740Y-80670326D01*
X126252299Y-80669273D01*
X126231064Y-80666123D01*
X126210240Y-80660907D01*
X126190028Y-80653675D01*
X126170622Y-80644496D01*
X126152209Y-80633460D01*
X126134966Y-80620672D01*
X126119060Y-80606256D01*
X126104644Y-80590350D01*
X126091856Y-80573107D01*
X126080820Y-80554694D01*
X126071641Y-80535288D01*
X126064409Y-80515076D01*
X126059193Y-80494252D01*
X126056043Y-80473017D01*
X126054990Y-80451576D01*
X126054990Y-80014076D01*
X126056043Y-79992635D01*
X126059193Y-79971400D01*
X126064409Y-79950576D01*
X126071641Y-79930364D01*
X126080820Y-79910958D01*
X126091856Y-79892545D01*
X126104644Y-79875302D01*
X126119060Y-79859396D01*
X126134966Y-79844980D01*
X126152209Y-79832192D01*
X126170622Y-79821156D01*
X126190028Y-79811977D01*
X126210240Y-79804745D01*
X126231064Y-79799529D01*
X126252299Y-79796379D01*
X126273740Y-79795326D01*
X126786240Y-79795326D01*
X126807681Y-79796379D01*
X126807681Y-79796379D01*
G37*
D11*
X126529990Y-80232826D03*
D10*
G36*
X126807681Y-78221379D02*
G01*
X126828916Y-78224529D01*
X126849740Y-78229745D01*
X126869952Y-78236977D01*
X126889358Y-78246156D01*
X126907771Y-78257192D01*
X126925014Y-78269980D01*
X126940920Y-78284396D01*
X126955336Y-78300302D01*
X126968124Y-78317545D01*
X126979160Y-78335958D01*
X126988339Y-78355364D01*
X126995571Y-78375576D01*
X127000787Y-78396400D01*
X127003937Y-78417635D01*
X127004990Y-78439076D01*
X127004990Y-78876576D01*
X127003937Y-78898017D01*
X127000787Y-78919252D01*
X126995571Y-78940076D01*
X126988339Y-78960288D01*
X126979160Y-78979694D01*
X126968124Y-78998107D01*
X126955336Y-79015350D01*
X126940920Y-79031256D01*
X126925014Y-79045672D01*
X126907771Y-79058460D01*
X126889358Y-79069496D01*
X126869952Y-79078675D01*
X126849740Y-79085907D01*
X126828916Y-79091123D01*
X126807681Y-79094273D01*
X126786240Y-79095326D01*
X126273740Y-79095326D01*
X126252299Y-79094273D01*
X126231064Y-79091123D01*
X126210240Y-79085907D01*
X126190028Y-79078675D01*
X126170622Y-79069496D01*
X126152209Y-79058460D01*
X126134966Y-79045672D01*
X126119060Y-79031256D01*
X126104644Y-79015350D01*
X126091856Y-78998107D01*
X126080820Y-78979694D01*
X126071641Y-78960288D01*
X126064409Y-78940076D01*
X126059193Y-78919252D01*
X126056043Y-78898017D01*
X126054990Y-78876576D01*
X126054990Y-78439076D01*
X126056043Y-78417635D01*
X126059193Y-78396400D01*
X126064409Y-78375576D01*
X126071641Y-78355364D01*
X126080820Y-78335958D01*
X126091856Y-78317545D01*
X126104644Y-78300302D01*
X126119060Y-78284396D01*
X126134966Y-78269980D01*
X126152209Y-78257192D01*
X126170622Y-78246156D01*
X126190028Y-78236977D01*
X126210240Y-78229745D01*
X126231064Y-78224529D01*
X126252299Y-78221379D01*
X126273740Y-78220326D01*
X126786240Y-78220326D01*
X126807681Y-78221379D01*
X126807681Y-78221379D01*
G37*
D11*
X126529990Y-78657826D03*
D12*
X139870000Y-82945000D03*
X132570000Y-82945000D03*
D13*
X137820000Y-83820000D03*
X137020000Y-82070000D03*
X136220000Y-83820000D03*
X135420000Y-82070000D03*
D14*
X134620000Y-83820000D03*
D10*
G36*
X128411111Y-78279580D02*
G01*
X128432346Y-78282730D01*
X128453170Y-78287946D01*
X128473382Y-78295178D01*
X128492788Y-78304357D01*
X128511201Y-78315393D01*
X128528444Y-78328181D01*
X128544350Y-78342597D01*
X128853709Y-78651956D01*
X128868125Y-78667862D01*
X128880913Y-78685105D01*
X128891949Y-78703518D01*
X128901128Y-78722924D01*
X128908360Y-78743136D01*
X128913576Y-78763960D01*
X128916726Y-78785195D01*
X128917779Y-78806636D01*
X128916726Y-78828077D01*
X128913576Y-78849312D01*
X128908360Y-78870136D01*
X128901128Y-78890348D01*
X128891949Y-78909754D01*
X128880913Y-78928167D01*
X128868125Y-78945410D01*
X128853709Y-78961316D01*
X128491316Y-79323709D01*
X128475410Y-79338125D01*
X128458167Y-79350913D01*
X128439754Y-79361949D01*
X128420348Y-79371128D01*
X128400136Y-79378360D01*
X128379312Y-79383576D01*
X128358077Y-79386726D01*
X128336636Y-79387779D01*
X128315195Y-79386726D01*
X128293960Y-79383576D01*
X128273136Y-79378360D01*
X128252924Y-79371128D01*
X128233518Y-79361949D01*
X128215105Y-79350913D01*
X128197862Y-79338125D01*
X128181956Y-79323709D01*
X127872597Y-79014350D01*
X127858181Y-78998444D01*
X127845393Y-78981201D01*
X127834357Y-78962788D01*
X127825178Y-78943382D01*
X127817946Y-78923170D01*
X127812730Y-78902346D01*
X127809580Y-78881111D01*
X127808527Y-78859670D01*
X127809580Y-78838229D01*
X127812730Y-78816994D01*
X127817946Y-78796170D01*
X127825178Y-78775958D01*
X127834357Y-78756552D01*
X127845393Y-78738139D01*
X127858181Y-78720896D01*
X127872597Y-78704990D01*
X128234990Y-78342597D01*
X128250896Y-78328181D01*
X128268139Y-78315393D01*
X128286552Y-78304357D01*
X128305958Y-78295178D01*
X128326170Y-78287946D01*
X128346994Y-78282730D01*
X128368229Y-78279580D01*
X128389670Y-78278527D01*
X128411111Y-78279580D01*
X128411111Y-78279580D01*
G37*
D11*
X128363153Y-78833153D03*
D10*
G36*
X129524805Y-79393274D02*
G01*
X129546040Y-79396424D01*
X129566864Y-79401640D01*
X129587076Y-79408872D01*
X129606482Y-79418051D01*
X129624895Y-79429087D01*
X129642138Y-79441875D01*
X129658044Y-79456291D01*
X129967403Y-79765650D01*
X129981819Y-79781556D01*
X129994607Y-79798799D01*
X130005643Y-79817212D01*
X130014822Y-79836618D01*
X130022054Y-79856830D01*
X130027270Y-79877654D01*
X130030420Y-79898889D01*
X130031473Y-79920330D01*
X130030420Y-79941771D01*
X130027270Y-79963006D01*
X130022054Y-79983830D01*
X130014822Y-80004042D01*
X130005643Y-80023448D01*
X129994607Y-80041861D01*
X129981819Y-80059104D01*
X129967403Y-80075010D01*
X129605010Y-80437403D01*
X129589104Y-80451819D01*
X129571861Y-80464607D01*
X129553448Y-80475643D01*
X129534042Y-80484822D01*
X129513830Y-80492054D01*
X129493006Y-80497270D01*
X129471771Y-80500420D01*
X129450330Y-80501473D01*
X129428889Y-80500420D01*
X129407654Y-80497270D01*
X129386830Y-80492054D01*
X129366618Y-80484822D01*
X129347212Y-80475643D01*
X129328799Y-80464607D01*
X129311556Y-80451819D01*
X129295650Y-80437403D01*
X128986291Y-80128044D01*
X128971875Y-80112138D01*
X128959087Y-80094895D01*
X128948051Y-80076482D01*
X128938872Y-80057076D01*
X128931640Y-80036864D01*
X128926424Y-80016040D01*
X128923274Y-79994805D01*
X128922221Y-79973364D01*
X128923274Y-79951923D01*
X128926424Y-79930688D01*
X128931640Y-79909864D01*
X128938872Y-79889652D01*
X128948051Y-79870246D01*
X128959087Y-79851833D01*
X128971875Y-79834590D01*
X128986291Y-79818684D01*
X129348684Y-79456291D01*
X129364590Y-79441875D01*
X129381833Y-79429087D01*
X129400246Y-79418051D01*
X129419652Y-79408872D01*
X129439864Y-79401640D01*
X129460688Y-79396424D01*
X129481923Y-79393274D01*
X129503364Y-79392221D01*
X129524805Y-79393274D01*
X129524805Y-79393274D01*
G37*
D11*
X129476847Y-79946847D03*
D10*
G36*
X127604503Y-75543704D02*
G01*
X127628772Y-75547304D01*
X127652570Y-75553265D01*
X127675670Y-75561530D01*
X127697849Y-75572020D01*
X127718892Y-75584633D01*
X127738598Y-75599248D01*
X127756776Y-75615724D01*
X127773252Y-75633902D01*
X127787867Y-75653608D01*
X127800480Y-75674651D01*
X127810970Y-75696830D01*
X127819235Y-75719930D01*
X127825196Y-75743728D01*
X127828796Y-75767997D01*
X127830000Y-75792501D01*
X127830000Y-77992499D01*
X127828796Y-78017003D01*
X127825196Y-78041272D01*
X127819235Y-78065070D01*
X127810970Y-78088170D01*
X127800480Y-78110349D01*
X127787867Y-78131392D01*
X127773252Y-78151098D01*
X127756776Y-78169276D01*
X127738598Y-78185752D01*
X127718892Y-78200367D01*
X127697849Y-78212980D01*
X127675670Y-78223470D01*
X127652570Y-78231735D01*
X127628772Y-78237696D01*
X127604503Y-78241296D01*
X127579999Y-78242500D01*
X125380001Y-78242500D01*
X125355497Y-78241296D01*
X125331228Y-78237696D01*
X125307430Y-78231735D01*
X125284330Y-78223470D01*
X125262151Y-78212980D01*
X125241108Y-78200367D01*
X125221402Y-78185752D01*
X125203224Y-78169276D01*
X125186748Y-78151098D01*
X125172133Y-78131392D01*
X125159520Y-78110349D01*
X125149030Y-78088170D01*
X125140765Y-78065070D01*
X125134804Y-78041272D01*
X125131204Y-78017003D01*
X125130000Y-77992499D01*
X125130000Y-75792501D01*
X125131204Y-75767997D01*
X125134804Y-75743728D01*
X125140765Y-75719930D01*
X125149030Y-75696830D01*
X125159520Y-75674651D01*
X125172133Y-75653608D01*
X125186748Y-75633902D01*
X125203224Y-75615724D01*
X125221402Y-75599248D01*
X125241108Y-75584633D01*
X125262151Y-75572020D01*
X125284330Y-75561530D01*
X125307430Y-75553265D01*
X125331228Y-75547304D01*
X125355497Y-75543704D01*
X125380001Y-75542500D01*
X127579999Y-75542500D01*
X127604503Y-75543704D01*
X127604503Y-75543704D01*
G37*
D15*
X126480000Y-76892500D03*
D16*
X127580000Y-75792500D03*
X127580000Y-76892500D03*
X127580000Y-77992500D03*
X126480000Y-75792500D03*
X126480000Y-76892500D03*
X126480000Y-77992500D03*
X125380000Y-75792500D03*
X125380000Y-76892500D03*
X125380000Y-77992500D03*
D10*
G36*
X123430191Y-76496053D02*
G01*
X123451426Y-76499203D01*
X123472250Y-76504419D01*
X123492462Y-76511651D01*
X123511868Y-76520830D01*
X123530281Y-76531866D01*
X123547524Y-76544654D01*
X123563430Y-76559070D01*
X123577846Y-76574976D01*
X123590634Y-76592219D01*
X123601670Y-76610632D01*
X123610849Y-76630038D01*
X123618081Y-76650250D01*
X123623297Y-76671074D01*
X123626447Y-76692309D01*
X123627500Y-76713750D01*
X123627500Y-77226250D01*
X123626447Y-77247691D01*
X123623297Y-77268926D01*
X123618081Y-77289750D01*
X123610849Y-77309962D01*
X123601670Y-77329368D01*
X123590634Y-77347781D01*
X123577846Y-77365024D01*
X123563430Y-77380930D01*
X123547524Y-77395346D01*
X123530281Y-77408134D01*
X123511868Y-77419170D01*
X123492462Y-77428349D01*
X123472250Y-77435581D01*
X123451426Y-77440797D01*
X123430191Y-77443947D01*
X123408750Y-77445000D01*
X122971250Y-77445000D01*
X122949809Y-77443947D01*
X122928574Y-77440797D01*
X122907750Y-77435581D01*
X122887538Y-77428349D01*
X122868132Y-77419170D01*
X122849719Y-77408134D01*
X122832476Y-77395346D01*
X122816570Y-77380930D01*
X122802154Y-77365024D01*
X122789366Y-77347781D01*
X122778330Y-77329368D01*
X122769151Y-77309962D01*
X122761919Y-77289750D01*
X122756703Y-77268926D01*
X122753553Y-77247691D01*
X122752500Y-77226250D01*
X122752500Y-76713750D01*
X122753553Y-76692309D01*
X122756703Y-76671074D01*
X122761919Y-76650250D01*
X122769151Y-76630038D01*
X122778330Y-76610632D01*
X122789366Y-76592219D01*
X122802154Y-76574976D01*
X122816570Y-76559070D01*
X122832476Y-76544654D01*
X122849719Y-76531866D01*
X122868132Y-76520830D01*
X122887538Y-76511651D01*
X122907750Y-76504419D01*
X122928574Y-76499203D01*
X122949809Y-76496053D01*
X122971250Y-76495000D01*
X123408750Y-76495000D01*
X123430191Y-76496053D01*
X123430191Y-76496053D01*
G37*
D11*
X123190000Y-76970000D03*
D10*
G36*
X125005191Y-76496053D02*
G01*
X125026426Y-76499203D01*
X125047250Y-76504419D01*
X125067462Y-76511651D01*
X125086868Y-76520830D01*
X125105281Y-76531866D01*
X125122524Y-76544654D01*
X125138430Y-76559070D01*
X125152846Y-76574976D01*
X125165634Y-76592219D01*
X125176670Y-76610632D01*
X125185849Y-76630038D01*
X125193081Y-76650250D01*
X125198297Y-76671074D01*
X125201447Y-76692309D01*
X125202500Y-76713750D01*
X125202500Y-77226250D01*
X125201447Y-77247691D01*
X125198297Y-77268926D01*
X125193081Y-77289750D01*
X125185849Y-77309962D01*
X125176670Y-77329368D01*
X125165634Y-77347781D01*
X125152846Y-77365024D01*
X125138430Y-77380930D01*
X125122524Y-77395346D01*
X125105281Y-77408134D01*
X125086868Y-77419170D01*
X125067462Y-77428349D01*
X125047250Y-77435581D01*
X125026426Y-77440797D01*
X125005191Y-77443947D01*
X124983750Y-77445000D01*
X124546250Y-77445000D01*
X124524809Y-77443947D01*
X124503574Y-77440797D01*
X124482750Y-77435581D01*
X124462538Y-77428349D01*
X124443132Y-77419170D01*
X124424719Y-77408134D01*
X124407476Y-77395346D01*
X124391570Y-77380930D01*
X124377154Y-77365024D01*
X124364366Y-77347781D01*
X124353330Y-77329368D01*
X124344151Y-77309962D01*
X124336919Y-77289750D01*
X124331703Y-77268926D01*
X124328553Y-77247691D01*
X124327500Y-77226250D01*
X124327500Y-76713750D01*
X124328553Y-76692309D01*
X124331703Y-76671074D01*
X124336919Y-76650250D01*
X124344151Y-76630038D01*
X124353330Y-76610632D01*
X124364366Y-76592219D01*
X124377154Y-76574976D01*
X124391570Y-76559070D01*
X124407476Y-76544654D01*
X124424719Y-76531866D01*
X124443132Y-76520830D01*
X124462538Y-76511651D01*
X124482750Y-76504419D01*
X124503574Y-76499203D01*
X124524809Y-76496053D01*
X124546250Y-76495000D01*
X124983750Y-76495000D01*
X125005191Y-76496053D01*
X125005191Y-76496053D01*
G37*
D11*
X124765000Y-76970000D03*
D10*
G36*
X130030191Y-76446053D02*
G01*
X130051426Y-76449203D01*
X130072250Y-76454419D01*
X130092462Y-76461651D01*
X130111868Y-76470830D01*
X130130281Y-76481866D01*
X130147524Y-76494654D01*
X130163430Y-76509070D01*
X130177846Y-76524976D01*
X130190634Y-76542219D01*
X130201670Y-76560632D01*
X130210849Y-76580038D01*
X130218081Y-76600250D01*
X130223297Y-76621074D01*
X130226447Y-76642309D01*
X130227500Y-76663750D01*
X130227500Y-77176250D01*
X130226447Y-77197691D01*
X130223297Y-77218926D01*
X130218081Y-77239750D01*
X130210849Y-77259962D01*
X130201670Y-77279368D01*
X130190634Y-77297781D01*
X130177846Y-77315024D01*
X130163430Y-77330930D01*
X130147524Y-77345346D01*
X130130281Y-77358134D01*
X130111868Y-77369170D01*
X130092462Y-77378349D01*
X130072250Y-77385581D01*
X130051426Y-77390797D01*
X130030191Y-77393947D01*
X130008750Y-77395000D01*
X129571250Y-77395000D01*
X129549809Y-77393947D01*
X129528574Y-77390797D01*
X129507750Y-77385581D01*
X129487538Y-77378349D01*
X129468132Y-77369170D01*
X129449719Y-77358134D01*
X129432476Y-77345346D01*
X129416570Y-77330930D01*
X129402154Y-77315024D01*
X129389366Y-77297781D01*
X129378330Y-77279368D01*
X129369151Y-77259962D01*
X129361919Y-77239750D01*
X129356703Y-77218926D01*
X129353553Y-77197691D01*
X129352500Y-77176250D01*
X129352500Y-76663750D01*
X129353553Y-76642309D01*
X129356703Y-76621074D01*
X129361919Y-76600250D01*
X129369151Y-76580038D01*
X129378330Y-76560632D01*
X129389366Y-76542219D01*
X129402154Y-76524976D01*
X129416570Y-76509070D01*
X129432476Y-76494654D01*
X129449719Y-76481866D01*
X129468132Y-76470830D01*
X129487538Y-76461651D01*
X129507750Y-76454419D01*
X129528574Y-76449203D01*
X129549809Y-76446053D01*
X129571250Y-76445000D01*
X130008750Y-76445000D01*
X130030191Y-76446053D01*
X130030191Y-76446053D01*
G37*
D11*
X129790000Y-76920000D03*
D10*
G36*
X128455191Y-76446053D02*
G01*
X128476426Y-76449203D01*
X128497250Y-76454419D01*
X128517462Y-76461651D01*
X128536868Y-76470830D01*
X128555281Y-76481866D01*
X128572524Y-76494654D01*
X128588430Y-76509070D01*
X128602846Y-76524976D01*
X128615634Y-76542219D01*
X128626670Y-76560632D01*
X128635849Y-76580038D01*
X128643081Y-76600250D01*
X128648297Y-76621074D01*
X128651447Y-76642309D01*
X128652500Y-76663750D01*
X128652500Y-77176250D01*
X128651447Y-77197691D01*
X128648297Y-77218926D01*
X128643081Y-77239750D01*
X128635849Y-77259962D01*
X128626670Y-77279368D01*
X128615634Y-77297781D01*
X128602846Y-77315024D01*
X128588430Y-77330930D01*
X128572524Y-77345346D01*
X128555281Y-77358134D01*
X128536868Y-77369170D01*
X128517462Y-77378349D01*
X128497250Y-77385581D01*
X128476426Y-77390797D01*
X128455191Y-77393947D01*
X128433750Y-77395000D01*
X127996250Y-77395000D01*
X127974809Y-77393947D01*
X127953574Y-77390797D01*
X127932750Y-77385581D01*
X127912538Y-77378349D01*
X127893132Y-77369170D01*
X127874719Y-77358134D01*
X127857476Y-77345346D01*
X127841570Y-77330930D01*
X127827154Y-77315024D01*
X127814366Y-77297781D01*
X127803330Y-77279368D01*
X127794151Y-77259962D01*
X127786919Y-77239750D01*
X127781703Y-77218926D01*
X127778553Y-77197691D01*
X127777500Y-77176250D01*
X127777500Y-76663750D01*
X127778553Y-76642309D01*
X127781703Y-76621074D01*
X127786919Y-76600250D01*
X127794151Y-76580038D01*
X127803330Y-76560632D01*
X127814366Y-76542219D01*
X127827154Y-76524976D01*
X127841570Y-76509070D01*
X127857476Y-76494654D01*
X127874719Y-76481866D01*
X127893132Y-76470830D01*
X127912538Y-76461651D01*
X127932750Y-76454419D01*
X127953574Y-76449203D01*
X127974809Y-76446053D01*
X127996250Y-76445000D01*
X128433750Y-76445000D01*
X128455191Y-76446053D01*
X128455191Y-76446053D01*
G37*
D11*
X128215000Y-76920000D03*
D10*
G36*
X115327691Y-76996053D02*
G01*
X115348926Y-76999203D01*
X115369750Y-77004419D01*
X115389962Y-77011651D01*
X115409368Y-77020830D01*
X115427781Y-77031866D01*
X115445024Y-77044654D01*
X115460930Y-77059070D01*
X115475346Y-77074976D01*
X115488134Y-77092219D01*
X115499170Y-77110632D01*
X115508349Y-77130038D01*
X115515581Y-77150250D01*
X115520797Y-77171074D01*
X115523947Y-77192309D01*
X115525000Y-77213750D01*
X115525000Y-77726250D01*
X115523947Y-77747691D01*
X115520797Y-77768926D01*
X115515581Y-77789750D01*
X115508349Y-77809962D01*
X115499170Y-77829368D01*
X115488134Y-77847781D01*
X115475346Y-77865024D01*
X115460930Y-77880930D01*
X115445024Y-77895346D01*
X115427781Y-77908134D01*
X115409368Y-77919170D01*
X115389962Y-77928349D01*
X115369750Y-77935581D01*
X115348926Y-77940797D01*
X115327691Y-77943947D01*
X115306250Y-77945000D01*
X114868750Y-77945000D01*
X114847309Y-77943947D01*
X114826074Y-77940797D01*
X114805250Y-77935581D01*
X114785038Y-77928349D01*
X114765632Y-77919170D01*
X114747219Y-77908134D01*
X114729976Y-77895346D01*
X114714070Y-77880930D01*
X114699654Y-77865024D01*
X114686866Y-77847781D01*
X114675830Y-77829368D01*
X114666651Y-77809962D01*
X114659419Y-77789750D01*
X114654203Y-77768926D01*
X114651053Y-77747691D01*
X114650000Y-77726250D01*
X114650000Y-77213750D01*
X114651053Y-77192309D01*
X114654203Y-77171074D01*
X114659419Y-77150250D01*
X114666651Y-77130038D01*
X114675830Y-77110632D01*
X114686866Y-77092219D01*
X114699654Y-77074976D01*
X114714070Y-77059070D01*
X114729976Y-77044654D01*
X114747219Y-77031866D01*
X114765632Y-77020830D01*
X114785038Y-77011651D01*
X114805250Y-77004419D01*
X114826074Y-76999203D01*
X114847309Y-76996053D01*
X114868750Y-76995000D01*
X115306250Y-76995000D01*
X115327691Y-76996053D01*
X115327691Y-76996053D01*
G37*
D11*
X115087500Y-77470000D03*
D10*
G36*
X113752691Y-76996053D02*
G01*
X113773926Y-76999203D01*
X113794750Y-77004419D01*
X113814962Y-77011651D01*
X113834368Y-77020830D01*
X113852781Y-77031866D01*
X113870024Y-77044654D01*
X113885930Y-77059070D01*
X113900346Y-77074976D01*
X113913134Y-77092219D01*
X113924170Y-77110632D01*
X113933349Y-77130038D01*
X113940581Y-77150250D01*
X113945797Y-77171074D01*
X113948947Y-77192309D01*
X113950000Y-77213750D01*
X113950000Y-77726250D01*
X113948947Y-77747691D01*
X113945797Y-77768926D01*
X113940581Y-77789750D01*
X113933349Y-77809962D01*
X113924170Y-77829368D01*
X113913134Y-77847781D01*
X113900346Y-77865024D01*
X113885930Y-77880930D01*
X113870024Y-77895346D01*
X113852781Y-77908134D01*
X113834368Y-77919170D01*
X113814962Y-77928349D01*
X113794750Y-77935581D01*
X113773926Y-77940797D01*
X113752691Y-77943947D01*
X113731250Y-77945000D01*
X113293750Y-77945000D01*
X113272309Y-77943947D01*
X113251074Y-77940797D01*
X113230250Y-77935581D01*
X113210038Y-77928349D01*
X113190632Y-77919170D01*
X113172219Y-77908134D01*
X113154976Y-77895346D01*
X113139070Y-77880930D01*
X113124654Y-77865024D01*
X113111866Y-77847781D01*
X113100830Y-77829368D01*
X113091651Y-77809962D01*
X113084419Y-77789750D01*
X113079203Y-77768926D01*
X113076053Y-77747691D01*
X113075000Y-77726250D01*
X113075000Y-77213750D01*
X113076053Y-77192309D01*
X113079203Y-77171074D01*
X113084419Y-77150250D01*
X113091651Y-77130038D01*
X113100830Y-77110632D01*
X113111866Y-77092219D01*
X113124654Y-77074976D01*
X113139070Y-77059070D01*
X113154976Y-77044654D01*
X113172219Y-77031866D01*
X113190632Y-77020830D01*
X113210038Y-77011651D01*
X113230250Y-77004419D01*
X113251074Y-76999203D01*
X113272309Y-76996053D01*
X113293750Y-76995000D01*
X113731250Y-76995000D01*
X113752691Y-76996053D01*
X113752691Y-76996053D01*
G37*
D11*
X113512500Y-77470000D03*
D10*
G36*
X115327691Y-75243553D02*
G01*
X115348926Y-75246703D01*
X115369750Y-75251919D01*
X115389962Y-75259151D01*
X115409368Y-75268330D01*
X115427781Y-75279366D01*
X115445024Y-75292154D01*
X115460930Y-75306570D01*
X115475346Y-75322476D01*
X115488134Y-75339719D01*
X115499170Y-75358132D01*
X115508349Y-75377538D01*
X115515581Y-75397750D01*
X115520797Y-75418574D01*
X115523947Y-75439809D01*
X115525000Y-75461250D01*
X115525000Y-75973750D01*
X115523947Y-75995191D01*
X115520797Y-76016426D01*
X115515581Y-76037250D01*
X115508349Y-76057462D01*
X115499170Y-76076868D01*
X115488134Y-76095281D01*
X115475346Y-76112524D01*
X115460930Y-76128430D01*
X115445024Y-76142846D01*
X115427781Y-76155634D01*
X115409368Y-76166670D01*
X115389962Y-76175849D01*
X115369750Y-76183081D01*
X115348926Y-76188297D01*
X115327691Y-76191447D01*
X115306250Y-76192500D01*
X114868750Y-76192500D01*
X114847309Y-76191447D01*
X114826074Y-76188297D01*
X114805250Y-76183081D01*
X114785038Y-76175849D01*
X114765632Y-76166670D01*
X114747219Y-76155634D01*
X114729976Y-76142846D01*
X114714070Y-76128430D01*
X114699654Y-76112524D01*
X114686866Y-76095281D01*
X114675830Y-76076868D01*
X114666651Y-76057462D01*
X114659419Y-76037250D01*
X114654203Y-76016426D01*
X114651053Y-75995191D01*
X114650000Y-75973750D01*
X114650000Y-75461250D01*
X114651053Y-75439809D01*
X114654203Y-75418574D01*
X114659419Y-75397750D01*
X114666651Y-75377538D01*
X114675830Y-75358132D01*
X114686866Y-75339719D01*
X114699654Y-75322476D01*
X114714070Y-75306570D01*
X114729976Y-75292154D01*
X114747219Y-75279366D01*
X114765632Y-75268330D01*
X114785038Y-75259151D01*
X114805250Y-75251919D01*
X114826074Y-75246703D01*
X114847309Y-75243553D01*
X114868750Y-75242500D01*
X115306250Y-75242500D01*
X115327691Y-75243553D01*
X115327691Y-75243553D01*
G37*
D11*
X115087500Y-75717500D03*
D10*
G36*
X113752691Y-75243553D02*
G01*
X113773926Y-75246703D01*
X113794750Y-75251919D01*
X113814962Y-75259151D01*
X113834368Y-75268330D01*
X113852781Y-75279366D01*
X113870024Y-75292154D01*
X113885930Y-75306570D01*
X113900346Y-75322476D01*
X113913134Y-75339719D01*
X113924170Y-75358132D01*
X113933349Y-75377538D01*
X113940581Y-75397750D01*
X113945797Y-75418574D01*
X113948947Y-75439809D01*
X113950000Y-75461250D01*
X113950000Y-75973750D01*
X113948947Y-75995191D01*
X113945797Y-76016426D01*
X113940581Y-76037250D01*
X113933349Y-76057462D01*
X113924170Y-76076868D01*
X113913134Y-76095281D01*
X113900346Y-76112524D01*
X113885930Y-76128430D01*
X113870024Y-76142846D01*
X113852781Y-76155634D01*
X113834368Y-76166670D01*
X113814962Y-76175849D01*
X113794750Y-76183081D01*
X113773926Y-76188297D01*
X113752691Y-76191447D01*
X113731250Y-76192500D01*
X113293750Y-76192500D01*
X113272309Y-76191447D01*
X113251074Y-76188297D01*
X113230250Y-76183081D01*
X113210038Y-76175849D01*
X113190632Y-76166670D01*
X113172219Y-76155634D01*
X113154976Y-76142846D01*
X113139070Y-76128430D01*
X113124654Y-76112524D01*
X113111866Y-76095281D01*
X113100830Y-76076868D01*
X113091651Y-76057462D01*
X113084419Y-76037250D01*
X113079203Y-76016426D01*
X113076053Y-75995191D01*
X113075000Y-75973750D01*
X113075000Y-75461250D01*
X113076053Y-75439809D01*
X113079203Y-75418574D01*
X113084419Y-75397750D01*
X113091651Y-75377538D01*
X113100830Y-75358132D01*
X113111866Y-75339719D01*
X113124654Y-75322476D01*
X113139070Y-75306570D01*
X113154976Y-75292154D01*
X113172219Y-75279366D01*
X113190632Y-75268330D01*
X113210038Y-75259151D01*
X113230250Y-75251919D01*
X113251074Y-75246703D01*
X113272309Y-75243553D01*
X113293750Y-75242500D01*
X113731250Y-75242500D01*
X113752691Y-75243553D01*
X113752691Y-75243553D01*
G37*
D11*
X113512500Y-75717500D03*
D10*
G36*
X123451111Y-73337080D02*
G01*
X123472346Y-73340230D01*
X123493170Y-73345446D01*
X123513382Y-73352678D01*
X123532788Y-73361857D01*
X123551201Y-73372893D01*
X123568444Y-73385681D01*
X123584350Y-73400097D01*
X123893709Y-73709456D01*
X123908125Y-73725362D01*
X123920913Y-73742605D01*
X123931949Y-73761018D01*
X123941128Y-73780424D01*
X123948360Y-73800636D01*
X123953576Y-73821460D01*
X123956726Y-73842695D01*
X123957779Y-73864136D01*
X123956726Y-73885577D01*
X123953576Y-73906812D01*
X123948360Y-73927636D01*
X123941128Y-73947848D01*
X123931949Y-73967254D01*
X123920913Y-73985667D01*
X123908125Y-74002910D01*
X123893709Y-74018816D01*
X123531316Y-74381209D01*
X123515410Y-74395625D01*
X123498167Y-74408413D01*
X123479754Y-74419449D01*
X123460348Y-74428628D01*
X123440136Y-74435860D01*
X123419312Y-74441076D01*
X123398077Y-74444226D01*
X123376636Y-74445279D01*
X123355195Y-74444226D01*
X123333960Y-74441076D01*
X123313136Y-74435860D01*
X123292924Y-74428628D01*
X123273518Y-74419449D01*
X123255105Y-74408413D01*
X123237862Y-74395625D01*
X123221956Y-74381209D01*
X122912597Y-74071850D01*
X122898181Y-74055944D01*
X122885393Y-74038701D01*
X122874357Y-74020288D01*
X122865178Y-74000882D01*
X122857946Y-73980670D01*
X122852730Y-73959846D01*
X122849580Y-73938611D01*
X122848527Y-73917170D01*
X122849580Y-73895729D01*
X122852730Y-73874494D01*
X122857946Y-73853670D01*
X122865178Y-73833458D01*
X122874357Y-73814052D01*
X122885393Y-73795639D01*
X122898181Y-73778396D01*
X122912597Y-73762490D01*
X123274990Y-73400097D01*
X123290896Y-73385681D01*
X123308139Y-73372893D01*
X123326552Y-73361857D01*
X123345958Y-73352678D01*
X123366170Y-73345446D01*
X123386994Y-73340230D01*
X123408229Y-73337080D01*
X123429670Y-73336027D01*
X123451111Y-73337080D01*
X123451111Y-73337080D01*
G37*
D11*
X123403153Y-73890653D03*
D10*
G36*
X124564805Y-74450774D02*
G01*
X124586040Y-74453924D01*
X124606864Y-74459140D01*
X124627076Y-74466372D01*
X124646482Y-74475551D01*
X124664895Y-74486587D01*
X124682138Y-74499375D01*
X124698044Y-74513791D01*
X125007403Y-74823150D01*
X125021819Y-74839056D01*
X125034607Y-74856299D01*
X125045643Y-74874712D01*
X125054822Y-74894118D01*
X125062054Y-74914330D01*
X125067270Y-74935154D01*
X125070420Y-74956389D01*
X125071473Y-74977830D01*
X125070420Y-74999271D01*
X125067270Y-75020506D01*
X125062054Y-75041330D01*
X125054822Y-75061542D01*
X125045643Y-75080948D01*
X125034607Y-75099361D01*
X125021819Y-75116604D01*
X125007403Y-75132510D01*
X124645010Y-75494903D01*
X124629104Y-75509319D01*
X124611861Y-75522107D01*
X124593448Y-75533143D01*
X124574042Y-75542322D01*
X124553830Y-75549554D01*
X124533006Y-75554770D01*
X124511771Y-75557920D01*
X124490330Y-75558973D01*
X124468889Y-75557920D01*
X124447654Y-75554770D01*
X124426830Y-75549554D01*
X124406618Y-75542322D01*
X124387212Y-75533143D01*
X124368799Y-75522107D01*
X124351556Y-75509319D01*
X124335650Y-75494903D01*
X124026291Y-75185544D01*
X124011875Y-75169638D01*
X123999087Y-75152395D01*
X123988051Y-75133982D01*
X123978872Y-75114576D01*
X123971640Y-75094364D01*
X123966424Y-75073540D01*
X123963274Y-75052305D01*
X123962221Y-75030864D01*
X123963274Y-75009423D01*
X123966424Y-74988188D01*
X123971640Y-74967364D01*
X123978872Y-74947152D01*
X123988051Y-74927746D01*
X123999087Y-74909333D01*
X124011875Y-74892090D01*
X124026291Y-74876184D01*
X124388684Y-74513791D01*
X124404590Y-74499375D01*
X124421833Y-74486587D01*
X124440246Y-74475551D01*
X124459652Y-74466372D01*
X124479864Y-74459140D01*
X124500688Y-74453924D01*
X124521923Y-74450774D01*
X124543364Y-74449721D01*
X124564805Y-74450774D01*
X124564805Y-74450774D01*
G37*
D11*
X124516847Y-75004347D03*
D10*
G36*
X126777691Y-74798553D02*
G01*
X126798926Y-74801703D01*
X126819750Y-74806919D01*
X126839962Y-74814151D01*
X126859368Y-74823330D01*
X126877781Y-74834366D01*
X126895024Y-74847154D01*
X126910930Y-74861570D01*
X126925346Y-74877476D01*
X126938134Y-74894719D01*
X126949170Y-74913132D01*
X126958349Y-74932538D01*
X126965581Y-74952750D01*
X126970797Y-74973574D01*
X126973947Y-74994809D01*
X126975000Y-75016250D01*
X126975000Y-75453750D01*
X126973947Y-75475191D01*
X126970797Y-75496426D01*
X126965581Y-75517250D01*
X126958349Y-75537462D01*
X126949170Y-75556868D01*
X126938134Y-75575281D01*
X126925346Y-75592524D01*
X126910930Y-75608430D01*
X126895024Y-75622846D01*
X126877781Y-75635634D01*
X126859368Y-75646670D01*
X126839962Y-75655849D01*
X126819750Y-75663081D01*
X126798926Y-75668297D01*
X126777691Y-75671447D01*
X126756250Y-75672500D01*
X126243750Y-75672500D01*
X126222309Y-75671447D01*
X126201074Y-75668297D01*
X126180250Y-75663081D01*
X126160038Y-75655849D01*
X126140632Y-75646670D01*
X126122219Y-75635634D01*
X126104976Y-75622846D01*
X126089070Y-75608430D01*
X126074654Y-75592524D01*
X126061866Y-75575281D01*
X126050830Y-75556868D01*
X126041651Y-75537462D01*
X126034419Y-75517250D01*
X126029203Y-75496426D01*
X126026053Y-75475191D01*
X126025000Y-75453750D01*
X126025000Y-75016250D01*
X126026053Y-74994809D01*
X126029203Y-74973574D01*
X126034419Y-74952750D01*
X126041651Y-74932538D01*
X126050830Y-74913132D01*
X126061866Y-74894719D01*
X126074654Y-74877476D01*
X126089070Y-74861570D01*
X126104976Y-74847154D01*
X126122219Y-74834366D01*
X126140632Y-74823330D01*
X126160038Y-74814151D01*
X126180250Y-74806919D01*
X126201074Y-74801703D01*
X126222309Y-74798553D01*
X126243750Y-74797500D01*
X126756250Y-74797500D01*
X126777691Y-74798553D01*
X126777691Y-74798553D01*
G37*
D11*
X126500000Y-75235000D03*
D10*
G36*
X126777691Y-73223553D02*
G01*
X126798926Y-73226703D01*
X126819750Y-73231919D01*
X126839962Y-73239151D01*
X126859368Y-73248330D01*
X126877781Y-73259366D01*
X126895024Y-73272154D01*
X126910930Y-73286570D01*
X126925346Y-73302476D01*
X126938134Y-73319719D01*
X126949170Y-73338132D01*
X126958349Y-73357538D01*
X126965581Y-73377750D01*
X126970797Y-73398574D01*
X126973947Y-73419809D01*
X126975000Y-73441250D01*
X126975000Y-73878750D01*
X126973947Y-73900191D01*
X126970797Y-73921426D01*
X126965581Y-73942250D01*
X126958349Y-73962462D01*
X126949170Y-73981868D01*
X126938134Y-74000281D01*
X126925346Y-74017524D01*
X126910930Y-74033430D01*
X126895024Y-74047846D01*
X126877781Y-74060634D01*
X126859368Y-74071670D01*
X126839962Y-74080849D01*
X126819750Y-74088081D01*
X126798926Y-74093297D01*
X126777691Y-74096447D01*
X126756250Y-74097500D01*
X126243750Y-74097500D01*
X126222309Y-74096447D01*
X126201074Y-74093297D01*
X126180250Y-74088081D01*
X126160038Y-74080849D01*
X126140632Y-74071670D01*
X126122219Y-74060634D01*
X126104976Y-74047846D01*
X126089070Y-74033430D01*
X126074654Y-74017524D01*
X126061866Y-74000281D01*
X126050830Y-73981868D01*
X126041651Y-73962462D01*
X126034419Y-73942250D01*
X126029203Y-73921426D01*
X126026053Y-73900191D01*
X126025000Y-73878750D01*
X126025000Y-73441250D01*
X126026053Y-73419809D01*
X126029203Y-73398574D01*
X126034419Y-73377750D01*
X126041651Y-73357538D01*
X126050830Y-73338132D01*
X126061866Y-73319719D01*
X126074654Y-73302476D01*
X126089070Y-73286570D01*
X126104976Y-73272154D01*
X126122219Y-73259366D01*
X126140632Y-73248330D01*
X126160038Y-73239151D01*
X126180250Y-73231919D01*
X126201074Y-73226703D01*
X126222309Y-73223553D01*
X126243750Y-73222500D01*
X126756250Y-73222500D01*
X126777691Y-73223553D01*
X126777691Y-73223553D01*
G37*
D11*
X126500000Y-73660000D03*
D10*
G36*
X128478077Y-74450774D02*
G01*
X128499312Y-74453924D01*
X128520136Y-74459140D01*
X128540348Y-74466372D01*
X128559754Y-74475551D01*
X128578167Y-74486587D01*
X128595410Y-74499375D01*
X128611316Y-74513791D01*
X128973709Y-74876184D01*
X128988125Y-74892090D01*
X129000913Y-74909333D01*
X129011949Y-74927746D01*
X129021128Y-74947152D01*
X129028360Y-74967364D01*
X129033576Y-74988188D01*
X129036726Y-75009423D01*
X129037779Y-75030864D01*
X129036726Y-75052305D01*
X129033576Y-75073540D01*
X129028360Y-75094364D01*
X129021128Y-75114576D01*
X129011949Y-75133982D01*
X129000913Y-75152395D01*
X128988125Y-75169638D01*
X128973709Y-75185544D01*
X128664350Y-75494903D01*
X128648444Y-75509319D01*
X128631201Y-75522107D01*
X128612788Y-75533143D01*
X128593382Y-75542322D01*
X128573170Y-75549554D01*
X128552346Y-75554770D01*
X128531111Y-75557920D01*
X128509670Y-75558973D01*
X128488229Y-75557920D01*
X128466994Y-75554770D01*
X128446170Y-75549554D01*
X128425958Y-75542322D01*
X128406552Y-75533143D01*
X128388139Y-75522107D01*
X128370896Y-75509319D01*
X128354990Y-75494903D01*
X127992597Y-75132510D01*
X127978181Y-75116604D01*
X127965393Y-75099361D01*
X127954357Y-75080948D01*
X127945178Y-75061542D01*
X127937946Y-75041330D01*
X127932730Y-75020506D01*
X127929580Y-74999271D01*
X127928527Y-74977830D01*
X127929580Y-74956389D01*
X127932730Y-74935154D01*
X127937946Y-74914330D01*
X127945178Y-74894118D01*
X127954357Y-74874712D01*
X127965393Y-74856299D01*
X127978181Y-74839056D01*
X127992597Y-74823150D01*
X128301956Y-74513791D01*
X128317862Y-74499375D01*
X128335105Y-74486587D01*
X128353518Y-74475551D01*
X128372924Y-74466372D01*
X128393136Y-74459140D01*
X128413960Y-74453924D01*
X128435195Y-74450774D01*
X128456636Y-74449721D01*
X128478077Y-74450774D01*
X128478077Y-74450774D01*
G37*
D11*
X128483153Y-75004347D03*
D10*
G36*
X129591771Y-73337080D02*
G01*
X129613006Y-73340230D01*
X129633830Y-73345446D01*
X129654042Y-73352678D01*
X129673448Y-73361857D01*
X129691861Y-73372893D01*
X129709104Y-73385681D01*
X129725010Y-73400097D01*
X130087403Y-73762490D01*
X130101819Y-73778396D01*
X130114607Y-73795639D01*
X130125643Y-73814052D01*
X130134822Y-73833458D01*
X130142054Y-73853670D01*
X130147270Y-73874494D01*
X130150420Y-73895729D01*
X130151473Y-73917170D01*
X130150420Y-73938611D01*
X130147270Y-73959846D01*
X130142054Y-73980670D01*
X130134822Y-74000882D01*
X130125643Y-74020288D01*
X130114607Y-74038701D01*
X130101819Y-74055944D01*
X130087403Y-74071850D01*
X129778044Y-74381209D01*
X129762138Y-74395625D01*
X129744895Y-74408413D01*
X129726482Y-74419449D01*
X129707076Y-74428628D01*
X129686864Y-74435860D01*
X129666040Y-74441076D01*
X129644805Y-74444226D01*
X129623364Y-74445279D01*
X129601923Y-74444226D01*
X129580688Y-74441076D01*
X129559864Y-74435860D01*
X129539652Y-74428628D01*
X129520246Y-74419449D01*
X129501833Y-74408413D01*
X129484590Y-74395625D01*
X129468684Y-74381209D01*
X129106291Y-74018816D01*
X129091875Y-74002910D01*
X129079087Y-73985667D01*
X129068051Y-73967254D01*
X129058872Y-73947848D01*
X129051640Y-73927636D01*
X129046424Y-73906812D01*
X129043274Y-73885577D01*
X129042221Y-73864136D01*
X129043274Y-73842695D01*
X129046424Y-73821460D01*
X129051640Y-73800636D01*
X129058872Y-73780424D01*
X129068051Y-73761018D01*
X129079087Y-73742605D01*
X129091875Y-73725362D01*
X129106291Y-73709456D01*
X129415650Y-73400097D01*
X129431556Y-73385681D01*
X129448799Y-73372893D01*
X129467212Y-73361857D01*
X129486618Y-73352678D01*
X129506830Y-73345446D01*
X129527654Y-73340230D01*
X129548889Y-73337080D01*
X129570330Y-73336027D01*
X129591771Y-73337080D01*
X129591771Y-73337080D01*
G37*
D11*
X129596847Y-73890653D03*
D17*
X113750000Y-80960000D03*
X113750000Y-72310000D03*
D18*
X117130000Y-80960000D03*
X117130000Y-72310000D03*
D19*
X116760000Y-77060000D03*
X116760000Y-79610000D03*
X116760000Y-78760000D03*
X116760000Y-77910000D03*
X116760000Y-73660000D03*
X116760000Y-75360000D03*
X116760000Y-76210000D03*
X116760000Y-74510000D03*
X118110000Y-79610000D03*
X118110000Y-78760000D03*
X118110000Y-77910000D03*
X118110000Y-77060000D03*
X118110000Y-76210000D03*
X118110000Y-75360000D03*
X118110000Y-74510000D03*
X118110000Y-73660000D03*
D20*
X146050000Y-71740000D03*
X146050000Y-74240000D03*
X146050000Y-76240000D03*
D21*
X146050000Y-78740000D03*
D22*
X148760000Y-81810000D03*
X148760000Y-68670000D03*
D23*
X150860000Y-74930000D03*
X148860000Y-73980000D03*
X148860000Y-75880000D03*
D10*
G36*
X124497691Y-69781053D02*
G01*
X124518926Y-69784203D01*
X124539750Y-69789419D01*
X124559962Y-69796651D01*
X124579368Y-69805830D01*
X124597781Y-69816866D01*
X124615024Y-69829654D01*
X124630930Y-69844070D01*
X124645346Y-69859976D01*
X124658134Y-69877219D01*
X124669170Y-69895632D01*
X124678349Y-69915038D01*
X124685581Y-69935250D01*
X124690797Y-69956074D01*
X124693947Y-69977309D01*
X124695000Y-69998750D01*
X124695000Y-70436250D01*
X124693947Y-70457691D01*
X124690797Y-70478926D01*
X124685581Y-70499750D01*
X124678349Y-70519962D01*
X124669170Y-70539368D01*
X124658134Y-70557781D01*
X124645346Y-70575024D01*
X124630930Y-70590930D01*
X124615024Y-70605346D01*
X124597781Y-70618134D01*
X124579368Y-70629170D01*
X124559962Y-70638349D01*
X124539750Y-70645581D01*
X124518926Y-70650797D01*
X124497691Y-70653947D01*
X124476250Y-70655000D01*
X123963750Y-70655000D01*
X123942309Y-70653947D01*
X123921074Y-70650797D01*
X123900250Y-70645581D01*
X123880038Y-70638349D01*
X123860632Y-70629170D01*
X123842219Y-70618134D01*
X123824976Y-70605346D01*
X123809070Y-70590930D01*
X123794654Y-70575024D01*
X123781866Y-70557781D01*
X123770830Y-70539368D01*
X123761651Y-70519962D01*
X123754419Y-70499750D01*
X123749203Y-70478926D01*
X123746053Y-70457691D01*
X123745000Y-70436250D01*
X123745000Y-69998750D01*
X123746053Y-69977309D01*
X123749203Y-69956074D01*
X123754419Y-69935250D01*
X123761651Y-69915038D01*
X123770830Y-69895632D01*
X123781866Y-69877219D01*
X123794654Y-69859976D01*
X123809070Y-69844070D01*
X123824976Y-69829654D01*
X123842219Y-69816866D01*
X123860632Y-69805830D01*
X123880038Y-69796651D01*
X123900250Y-69789419D01*
X123921074Y-69784203D01*
X123942309Y-69781053D01*
X123963750Y-69780000D01*
X124476250Y-69780000D01*
X124497691Y-69781053D01*
X124497691Y-69781053D01*
G37*
D11*
X124220000Y-70217500D03*
D10*
G36*
X124497691Y-68206053D02*
G01*
X124518926Y-68209203D01*
X124539750Y-68214419D01*
X124559962Y-68221651D01*
X124579368Y-68230830D01*
X124597781Y-68241866D01*
X124615024Y-68254654D01*
X124630930Y-68269070D01*
X124645346Y-68284976D01*
X124658134Y-68302219D01*
X124669170Y-68320632D01*
X124678349Y-68340038D01*
X124685581Y-68360250D01*
X124690797Y-68381074D01*
X124693947Y-68402309D01*
X124695000Y-68423750D01*
X124695000Y-68861250D01*
X124693947Y-68882691D01*
X124690797Y-68903926D01*
X124685581Y-68924750D01*
X124678349Y-68944962D01*
X124669170Y-68964368D01*
X124658134Y-68982781D01*
X124645346Y-69000024D01*
X124630930Y-69015930D01*
X124615024Y-69030346D01*
X124597781Y-69043134D01*
X124579368Y-69054170D01*
X124559962Y-69063349D01*
X124539750Y-69070581D01*
X124518926Y-69075797D01*
X124497691Y-69078947D01*
X124476250Y-69080000D01*
X123963750Y-69080000D01*
X123942309Y-69078947D01*
X123921074Y-69075797D01*
X123900250Y-69070581D01*
X123880038Y-69063349D01*
X123860632Y-69054170D01*
X123842219Y-69043134D01*
X123824976Y-69030346D01*
X123809070Y-69015930D01*
X123794654Y-69000024D01*
X123781866Y-68982781D01*
X123770830Y-68964368D01*
X123761651Y-68944962D01*
X123754419Y-68924750D01*
X123749203Y-68903926D01*
X123746053Y-68882691D01*
X123745000Y-68861250D01*
X123745000Y-68423750D01*
X123746053Y-68402309D01*
X123749203Y-68381074D01*
X123754419Y-68360250D01*
X123761651Y-68340038D01*
X123770830Y-68320632D01*
X123781866Y-68302219D01*
X123794654Y-68284976D01*
X123809070Y-68269070D01*
X123824976Y-68254654D01*
X123842219Y-68241866D01*
X123860632Y-68230830D01*
X123880038Y-68221651D01*
X123900250Y-68214419D01*
X123921074Y-68209203D01*
X123942309Y-68206053D01*
X123963750Y-68205000D01*
X124476250Y-68205000D01*
X124497691Y-68206053D01*
X124497691Y-68206053D01*
G37*
D11*
X124220000Y-68642500D03*
D10*
G36*
X122197691Y-69681053D02*
G01*
X122218926Y-69684203D01*
X122239750Y-69689419D01*
X122259962Y-69696651D01*
X122279368Y-69705830D01*
X122297781Y-69716866D01*
X122315024Y-69729654D01*
X122330930Y-69744070D01*
X122345346Y-69759976D01*
X122358134Y-69777219D01*
X122369170Y-69795632D01*
X122378349Y-69815038D01*
X122385581Y-69835250D01*
X122390797Y-69856074D01*
X122393947Y-69877309D01*
X122395000Y-69898750D01*
X122395000Y-70336250D01*
X122393947Y-70357691D01*
X122390797Y-70378926D01*
X122385581Y-70399750D01*
X122378349Y-70419962D01*
X122369170Y-70439368D01*
X122358134Y-70457781D01*
X122345346Y-70475024D01*
X122330930Y-70490930D01*
X122315024Y-70505346D01*
X122297781Y-70518134D01*
X122279368Y-70529170D01*
X122259962Y-70538349D01*
X122239750Y-70545581D01*
X122218926Y-70550797D01*
X122197691Y-70553947D01*
X122176250Y-70555000D01*
X121663750Y-70555000D01*
X121642309Y-70553947D01*
X121621074Y-70550797D01*
X121600250Y-70545581D01*
X121580038Y-70538349D01*
X121560632Y-70529170D01*
X121542219Y-70518134D01*
X121524976Y-70505346D01*
X121509070Y-70490930D01*
X121494654Y-70475024D01*
X121481866Y-70457781D01*
X121470830Y-70439368D01*
X121461651Y-70419962D01*
X121454419Y-70399750D01*
X121449203Y-70378926D01*
X121446053Y-70357691D01*
X121445000Y-70336250D01*
X121445000Y-69898750D01*
X121446053Y-69877309D01*
X121449203Y-69856074D01*
X121454419Y-69835250D01*
X121461651Y-69815038D01*
X121470830Y-69795632D01*
X121481866Y-69777219D01*
X121494654Y-69759976D01*
X121509070Y-69744070D01*
X121524976Y-69729654D01*
X121542219Y-69716866D01*
X121560632Y-69705830D01*
X121580038Y-69696651D01*
X121600250Y-69689419D01*
X121621074Y-69684203D01*
X121642309Y-69681053D01*
X121663750Y-69680000D01*
X122176250Y-69680000D01*
X122197691Y-69681053D01*
X122197691Y-69681053D01*
G37*
D11*
X121920000Y-70117500D03*
D10*
G36*
X122197691Y-68106053D02*
G01*
X122218926Y-68109203D01*
X122239750Y-68114419D01*
X122259962Y-68121651D01*
X122279368Y-68130830D01*
X122297781Y-68141866D01*
X122315024Y-68154654D01*
X122330930Y-68169070D01*
X122345346Y-68184976D01*
X122358134Y-68202219D01*
X122369170Y-68220632D01*
X122378349Y-68240038D01*
X122385581Y-68260250D01*
X122390797Y-68281074D01*
X122393947Y-68302309D01*
X122395000Y-68323750D01*
X122395000Y-68761250D01*
X122393947Y-68782691D01*
X122390797Y-68803926D01*
X122385581Y-68824750D01*
X122378349Y-68844962D01*
X122369170Y-68864368D01*
X122358134Y-68882781D01*
X122345346Y-68900024D01*
X122330930Y-68915930D01*
X122315024Y-68930346D01*
X122297781Y-68943134D01*
X122279368Y-68954170D01*
X122259962Y-68963349D01*
X122239750Y-68970581D01*
X122218926Y-68975797D01*
X122197691Y-68978947D01*
X122176250Y-68980000D01*
X121663750Y-68980000D01*
X121642309Y-68978947D01*
X121621074Y-68975797D01*
X121600250Y-68970581D01*
X121580038Y-68963349D01*
X121560632Y-68954170D01*
X121542219Y-68943134D01*
X121524976Y-68930346D01*
X121509070Y-68915930D01*
X121494654Y-68900024D01*
X121481866Y-68882781D01*
X121470830Y-68864368D01*
X121461651Y-68844962D01*
X121454419Y-68824750D01*
X121449203Y-68803926D01*
X121446053Y-68782691D01*
X121445000Y-68761250D01*
X121445000Y-68323750D01*
X121446053Y-68302309D01*
X121449203Y-68281074D01*
X121454419Y-68260250D01*
X121461651Y-68240038D01*
X121470830Y-68220632D01*
X121481866Y-68202219D01*
X121494654Y-68184976D01*
X121509070Y-68169070D01*
X121524976Y-68154654D01*
X121542219Y-68141866D01*
X121560632Y-68130830D01*
X121580038Y-68121651D01*
X121600250Y-68114419D01*
X121621074Y-68109203D01*
X121642309Y-68106053D01*
X121663750Y-68105000D01*
X122176250Y-68105000D01*
X122197691Y-68106053D01*
X122197691Y-68106053D01*
G37*
D11*
X121920000Y-68542500D03*
D10*
G36*
X150887691Y-78266053D02*
G01*
X150908926Y-78269203D01*
X150929750Y-78274419D01*
X150949962Y-78281651D01*
X150969368Y-78290830D01*
X150987781Y-78301866D01*
X151005024Y-78314654D01*
X151020930Y-78329070D01*
X151035346Y-78344976D01*
X151048134Y-78362219D01*
X151059170Y-78380632D01*
X151068349Y-78400038D01*
X151075581Y-78420250D01*
X151080797Y-78441074D01*
X151083947Y-78462309D01*
X151085000Y-78483750D01*
X151085000Y-78996250D01*
X151083947Y-79017691D01*
X151080797Y-79038926D01*
X151075581Y-79059750D01*
X151068349Y-79079962D01*
X151059170Y-79099368D01*
X151048134Y-79117781D01*
X151035346Y-79135024D01*
X151020930Y-79150930D01*
X151005024Y-79165346D01*
X150987781Y-79178134D01*
X150969368Y-79189170D01*
X150949962Y-79198349D01*
X150929750Y-79205581D01*
X150908926Y-79210797D01*
X150887691Y-79213947D01*
X150866250Y-79215000D01*
X150428750Y-79215000D01*
X150407309Y-79213947D01*
X150386074Y-79210797D01*
X150365250Y-79205581D01*
X150345038Y-79198349D01*
X150325632Y-79189170D01*
X150307219Y-79178134D01*
X150289976Y-79165346D01*
X150274070Y-79150930D01*
X150259654Y-79135024D01*
X150246866Y-79117781D01*
X150235830Y-79099368D01*
X150226651Y-79079962D01*
X150219419Y-79059750D01*
X150214203Y-79038926D01*
X150211053Y-79017691D01*
X150210000Y-78996250D01*
X150210000Y-78483750D01*
X150211053Y-78462309D01*
X150214203Y-78441074D01*
X150219419Y-78420250D01*
X150226651Y-78400038D01*
X150235830Y-78380632D01*
X150246866Y-78362219D01*
X150259654Y-78344976D01*
X150274070Y-78329070D01*
X150289976Y-78314654D01*
X150307219Y-78301866D01*
X150325632Y-78290830D01*
X150345038Y-78281651D01*
X150365250Y-78274419D01*
X150386074Y-78269203D01*
X150407309Y-78266053D01*
X150428750Y-78265000D01*
X150866250Y-78265000D01*
X150887691Y-78266053D01*
X150887691Y-78266053D01*
G37*
D11*
X150647500Y-78740000D03*
D10*
G36*
X149312691Y-78266053D02*
G01*
X149333926Y-78269203D01*
X149354750Y-78274419D01*
X149374962Y-78281651D01*
X149394368Y-78290830D01*
X149412781Y-78301866D01*
X149430024Y-78314654D01*
X149445930Y-78329070D01*
X149460346Y-78344976D01*
X149473134Y-78362219D01*
X149484170Y-78380632D01*
X149493349Y-78400038D01*
X149500581Y-78420250D01*
X149505797Y-78441074D01*
X149508947Y-78462309D01*
X149510000Y-78483750D01*
X149510000Y-78996250D01*
X149508947Y-79017691D01*
X149505797Y-79038926D01*
X149500581Y-79059750D01*
X149493349Y-79079962D01*
X149484170Y-79099368D01*
X149473134Y-79117781D01*
X149460346Y-79135024D01*
X149445930Y-79150930D01*
X149430024Y-79165346D01*
X149412781Y-79178134D01*
X149394368Y-79189170D01*
X149374962Y-79198349D01*
X149354750Y-79205581D01*
X149333926Y-79210797D01*
X149312691Y-79213947D01*
X149291250Y-79215000D01*
X148853750Y-79215000D01*
X148832309Y-79213947D01*
X148811074Y-79210797D01*
X148790250Y-79205581D01*
X148770038Y-79198349D01*
X148750632Y-79189170D01*
X148732219Y-79178134D01*
X148714976Y-79165346D01*
X148699070Y-79150930D01*
X148684654Y-79135024D01*
X148671866Y-79117781D01*
X148660830Y-79099368D01*
X148651651Y-79079962D01*
X148644419Y-79059750D01*
X148639203Y-79038926D01*
X148636053Y-79017691D01*
X148635000Y-78996250D01*
X148635000Y-78483750D01*
X148636053Y-78462309D01*
X148639203Y-78441074D01*
X148644419Y-78420250D01*
X148651651Y-78400038D01*
X148660830Y-78380632D01*
X148671866Y-78362219D01*
X148684654Y-78344976D01*
X148699070Y-78329070D01*
X148714976Y-78314654D01*
X148732219Y-78301866D01*
X148750632Y-78290830D01*
X148770038Y-78281651D01*
X148790250Y-78274419D01*
X148811074Y-78269203D01*
X148832309Y-78266053D01*
X148853750Y-78265000D01*
X149291250Y-78265000D01*
X149312691Y-78266053D01*
X149312691Y-78266053D01*
G37*
D11*
X149072500Y-78740000D03*
D24*
X129540000Y-76700000D03*
X123190000Y-80010000D03*
X120650000Y-80010000D03*
X121920000Y-73660000D03*
X123190000Y-72390000D03*
X120650000Y-74930000D03*
X120650000Y-78740000D03*
X134620000Y-76200000D03*
X134620000Y-80010000D03*
X132080000Y-80010000D03*
X132080000Y-76200000D03*
X138036250Y-71513750D03*
X124460000Y-68580000D03*
X124710000Y-80260000D03*
X129540000Y-77970000D03*
X119380000Y-77220000D03*
X119380000Y-75950000D03*
X128270000Y-73660000D03*
X126500000Y-73660000D03*
X123746847Y-78740000D03*
X124972500Y-73660000D03*
D25*
X116760000Y-73660000D02*
X118110000Y-73660000D01*
X116760000Y-79610000D02*
X118110000Y-79610000D01*
X124516847Y-75004347D02*
X128483153Y-75004347D01*
X128483153Y-78713153D02*
X128363153Y-78833153D01*
X128483153Y-75004347D02*
X128483153Y-78713153D01*
X128363153Y-78833153D02*
X124715001Y-78833153D01*
X124516847Y-75656361D02*
X124516847Y-75004347D01*
X124765000Y-75904514D02*
X124516847Y-75656361D01*
X124765000Y-78783154D02*
X124765000Y-75904514D01*
X124715001Y-78833153D02*
X124765000Y-78783154D01*
X130884347Y-75004347D02*
X132080000Y-76200000D01*
X128483153Y-75004347D02*
X130884347Y-75004347D01*
D26*
X126480000Y-76892500D02*
X126939999Y-76892500D01*
D27*
X123938153Y-79610001D02*
X124715001Y-78833153D01*
X123589999Y-79610001D02*
X123938153Y-79610001D01*
X123190000Y-80010000D02*
X123589999Y-79610001D01*
D25*
X138036250Y-71513750D02*
X142240000Y-75717500D01*
X144700000Y-78740000D02*
X146050000Y-78740000D01*
X142240000Y-76280000D02*
X144700000Y-78740000D01*
X142240000Y-75717500D02*
X142240000Y-76280000D01*
X135645001Y-84845001D02*
X134620000Y-83820000D01*
X141294999Y-84845001D02*
X135645001Y-84845001D01*
X146050000Y-80090000D02*
X141294999Y-84845001D01*
X146050000Y-78740000D02*
X146050000Y-80090000D01*
X124460000Y-68580000D02*
X121772500Y-68580000D01*
X116760000Y-74510000D02*
X118085001Y-74510000D01*
X118085001Y-74510000D02*
X118110000Y-74510000D01*
X116760000Y-78760000D02*
X118110000Y-78760000D01*
X146050000Y-78740000D02*
X149072500Y-78740000D01*
D27*
X129540000Y-79883694D02*
X129476847Y-79946847D01*
X129540000Y-77970000D02*
X129540000Y-79883694D01*
X129163694Y-80260000D02*
X129476847Y-79946847D01*
X124710000Y-80260000D02*
X129163694Y-80260000D01*
D25*
X148600000Y-74240000D02*
X148860000Y-73980000D01*
X146050000Y-74240000D02*
X148600000Y-74240000D01*
X148500000Y-76240000D02*
X148860000Y-75880000D01*
X146050000Y-76240000D02*
X148500000Y-76240000D01*
D27*
X117960998Y-76210000D02*
X118110000Y-76210000D01*
X117110998Y-77060000D02*
X117960998Y-76210000D01*
X116760000Y-77060000D02*
X117110998Y-77060000D01*
X118370000Y-76210000D02*
X119380000Y-77220000D01*
X118110000Y-76210000D02*
X118370000Y-76210000D01*
X115527500Y-77910000D02*
X116760000Y-77910000D01*
X115087500Y-77470000D02*
X115527500Y-77910000D01*
X115087500Y-75142500D02*
X115087500Y-75717500D01*
X116058981Y-71534990D02*
X115087500Y-72506471D01*
X118201019Y-71534990D02*
X116058981Y-71534990D01*
X118785001Y-72118972D02*
X118201019Y-71534990D01*
X115087500Y-72506471D02*
X115087500Y-75142500D01*
X118785001Y-75179973D02*
X118785001Y-72118972D01*
X118604974Y-75360000D02*
X118785001Y-75179973D01*
X118110000Y-75360000D02*
X118604974Y-75360000D01*
X129366194Y-73660000D02*
X129596847Y-73890653D01*
X128270000Y-73660000D02*
X129366194Y-73660000D01*
X123190000Y-78183153D02*
X123746847Y-78740000D01*
X123190000Y-76970000D02*
X123190000Y-78183153D01*
X123633806Y-73660000D02*
X123403153Y-73890653D01*
X124972500Y-73660000D02*
X123633806Y-73660000D01*
D28*
G36*
X133195271Y-66843962D02*
G01*
X132883962Y-67155271D01*
X132639369Y-67521331D01*
X132470890Y-67928075D01*
X132385000Y-68359872D01*
X132385000Y-68800128D01*
X132470890Y-69231925D01*
X132639369Y-69638669D01*
X132883962Y-70004729D01*
X133195271Y-70316038D01*
X133561331Y-70560631D01*
X133968075Y-70729110D01*
X134399872Y-70815000D01*
X134840128Y-70815000D01*
X135271925Y-70729110D01*
X135678669Y-70560631D01*
X136044729Y-70316038D01*
X136199114Y-70161653D01*
X147447952Y-70161653D01*
X147603962Y-70477214D01*
X147978745Y-70668020D01*
X148383551Y-70782044D01*
X148802824Y-70814902D01*
X149220451Y-70765334D01*
X149620383Y-70635243D01*
X149916038Y-70477214D01*
X150072048Y-70161653D01*
X148760000Y-68849605D01*
X147447952Y-70161653D01*
X136199114Y-70161653D01*
X136356038Y-70004729D01*
X136600631Y-69638669D01*
X136769110Y-69231925D01*
X136855000Y-68800128D01*
X136855000Y-68712824D01*
X146615098Y-68712824D01*
X146664666Y-69130451D01*
X146794757Y-69530383D01*
X146952786Y-69826038D01*
X147268347Y-69982048D01*
X148580395Y-68670000D01*
X148939605Y-68670000D01*
X150251653Y-69982048D01*
X150567214Y-69826038D01*
X150758020Y-69451255D01*
X150872044Y-69046449D01*
X150904902Y-68627176D01*
X150855334Y-68209549D01*
X150725243Y-67809617D01*
X150567214Y-67513962D01*
X150251653Y-67357952D01*
X148939605Y-68670000D01*
X148580395Y-68670000D01*
X147268347Y-67357952D01*
X146952786Y-67513962D01*
X146761980Y-67888745D01*
X146647956Y-68293551D01*
X146615098Y-68712824D01*
X136855000Y-68712824D01*
X136855000Y-68359872D01*
X136769110Y-67928075D01*
X136600631Y-67521331D01*
X136356038Y-67155271D01*
X136044729Y-66843962D01*
X135829274Y-66700000D01*
X147914241Y-66700000D01*
X147899617Y-66704757D01*
X147603962Y-66862786D01*
X147447952Y-67178347D01*
X148760000Y-68490395D01*
X150072048Y-67178347D01*
X149916038Y-66862786D01*
X149596292Y-66700000D01*
X156820000Y-66700000D01*
X156820001Y-83880727D01*
X156676038Y-83665271D01*
X156364729Y-83353962D01*
X155998669Y-83109369D01*
X155591925Y-82940890D01*
X155160128Y-82855000D01*
X154719872Y-82855000D01*
X154288075Y-82940890D01*
X153881331Y-83109369D01*
X153515271Y-83353962D01*
X153203962Y-83665271D01*
X152959369Y-84031331D01*
X152790890Y-84438075D01*
X152705000Y-84869872D01*
X152705000Y-85310128D01*
X152790890Y-85741925D01*
X152959369Y-86148669D01*
X153203962Y-86514729D01*
X153515271Y-86826038D01*
X153730726Y-86970000D01*
X115509274Y-86970000D01*
X115724729Y-86826038D01*
X116036038Y-86514729D01*
X116280631Y-86148669D01*
X116449110Y-85741925D01*
X116535000Y-85310128D01*
X116535000Y-84869872D01*
X116449110Y-84438075D01*
X116280631Y-84031331D01*
X116036038Y-83665271D01*
X115724729Y-83353962D01*
X115358669Y-83109369D01*
X115268453Y-83072000D01*
X131385000Y-83072000D01*
X131385000Y-83722000D01*
X131432546Y-83950742D01*
X131523804Y-84165813D01*
X131655266Y-84358948D01*
X131821881Y-84522725D01*
X132017246Y-84650850D01*
X132233853Y-84738399D01*
X132260256Y-84738803D01*
X132443000Y-84613361D01*
X132443000Y-83072000D01*
X131385000Y-83072000D01*
X115268453Y-83072000D01*
X114951925Y-82940890D01*
X114520128Y-82855000D01*
X114079872Y-82855000D01*
X113648075Y-82940890D01*
X113241331Y-83109369D01*
X112875271Y-83353962D01*
X112563962Y-83665271D01*
X112420000Y-83880726D01*
X112420000Y-82168000D01*
X131385000Y-82168000D01*
X131385000Y-82818000D01*
X132443000Y-82818000D01*
X132443000Y-81276639D01*
X132697000Y-81276639D01*
X132697000Y-82818000D01*
X132717000Y-82818000D01*
X132717000Y-83072000D01*
X132697000Y-83072000D01*
X132697000Y-84613361D01*
X132879744Y-84738803D01*
X132906147Y-84738399D01*
X133122754Y-84650850D01*
X133318119Y-84522725D01*
X133435597Y-84407248D01*
X133444188Y-84494482D01*
X133480498Y-84614180D01*
X133539463Y-84724494D01*
X133618815Y-84821185D01*
X133715506Y-84900537D01*
X133825820Y-84959502D01*
X133945518Y-84995812D01*
X134070000Y-85008072D01*
X134521138Y-85008072D01*
X134969918Y-85456852D01*
X134998420Y-85491582D01*
X135136986Y-85605299D01*
X135295074Y-85689799D01*
X135466610Y-85741834D01*
X135600297Y-85755001D01*
X135600298Y-85755001D01*
X135645000Y-85759404D01*
X135689702Y-85755001D01*
X141250297Y-85755001D01*
X141294999Y-85759404D01*
X141339701Y-85755001D01*
X141339703Y-85755001D01*
X141473390Y-85741834D01*
X141644926Y-85689799D01*
X141803014Y-85605299D01*
X141941580Y-85491582D01*
X141970086Y-85456847D01*
X144125280Y-83301653D01*
X147447952Y-83301653D01*
X147603962Y-83617214D01*
X147978745Y-83808020D01*
X148383551Y-83922044D01*
X148802824Y-83954902D01*
X149220451Y-83905334D01*
X149620383Y-83775243D01*
X149916038Y-83617214D01*
X150072048Y-83301653D01*
X148760000Y-81989605D01*
X147447952Y-83301653D01*
X144125280Y-83301653D01*
X145574109Y-81852824D01*
X146615098Y-81852824D01*
X146664666Y-82270451D01*
X146794757Y-82670383D01*
X146952786Y-82966038D01*
X147268347Y-83122048D01*
X148580395Y-81810000D01*
X148939605Y-81810000D01*
X150251653Y-83122048D01*
X150567214Y-82966038D01*
X150758020Y-82591255D01*
X150872044Y-82186449D01*
X150904902Y-81767176D01*
X150855334Y-81349549D01*
X150725243Y-80949617D01*
X150567214Y-80653962D01*
X150251653Y-80497952D01*
X148939605Y-81810000D01*
X148580395Y-81810000D01*
X147268347Y-80497952D01*
X146952786Y-80653962D01*
X146761980Y-81028745D01*
X146647956Y-81433551D01*
X146615098Y-81852824D01*
X145574109Y-81852824D01*
X146661852Y-80765082D01*
X146696581Y-80736581D01*
X146793295Y-80618734D01*
X146810298Y-80598016D01*
X146894798Y-80439927D01*
X146908015Y-80396355D01*
X146946833Y-80268391D01*
X146956764Y-80167557D01*
X146974482Y-80165812D01*
X147094180Y-80129502D01*
X147204494Y-80070537D01*
X147301185Y-79991185D01*
X147380537Y-79894494D01*
X147439502Y-79784180D01*
X147475812Y-79664482D01*
X147477238Y-79650000D01*
X148306234Y-79650000D01*
X148374229Y-79705802D01*
X148299549Y-79714666D01*
X147899617Y-79844757D01*
X147603962Y-80002786D01*
X147447952Y-80318347D01*
X148760000Y-81630395D01*
X150072048Y-80318347D01*
X149916038Y-80002786D01*
X149541255Y-79811980D01*
X149540395Y-79811738D01*
X149619142Y-79787850D01*
X149767275Y-79708671D01*
X149788930Y-79690900D01*
X149855506Y-79745537D01*
X149965820Y-79804502D01*
X150085518Y-79840812D01*
X150210000Y-79853072D01*
X150361750Y-79850000D01*
X150520500Y-79691250D01*
X150520500Y-78867000D01*
X150774500Y-78867000D01*
X150774500Y-79691250D01*
X150933250Y-79850000D01*
X151085000Y-79853072D01*
X151209482Y-79840812D01*
X151329180Y-79804502D01*
X151439494Y-79745537D01*
X151536185Y-79666185D01*
X151615537Y-79569494D01*
X151674502Y-79459180D01*
X151710812Y-79339482D01*
X151723072Y-79215000D01*
X151720000Y-79025750D01*
X151561250Y-78867000D01*
X150774500Y-78867000D01*
X150520500Y-78867000D01*
X150500500Y-78867000D01*
X150500500Y-78613000D01*
X150520500Y-78613000D01*
X150520500Y-77788750D01*
X150774500Y-77788750D01*
X150774500Y-78613000D01*
X151561250Y-78613000D01*
X151720000Y-78454250D01*
X151723072Y-78265000D01*
X151710812Y-78140518D01*
X151674502Y-78020820D01*
X151615537Y-77910506D01*
X151536185Y-77813815D01*
X151439494Y-77734463D01*
X151329180Y-77675498D01*
X151209482Y-77639188D01*
X151085000Y-77626928D01*
X150933250Y-77630000D01*
X150774500Y-77788750D01*
X150520500Y-77788750D01*
X150361750Y-77630000D01*
X150210000Y-77626928D01*
X150085518Y-77639188D01*
X149965820Y-77675498D01*
X149855506Y-77734463D01*
X149788930Y-77789100D01*
X149767275Y-77771329D01*
X149619142Y-77692150D01*
X149458408Y-77643392D01*
X149291250Y-77626928D01*
X148853750Y-77626928D01*
X148686592Y-77643392D01*
X148525858Y-77692150D01*
X148377725Y-77771329D01*
X148306234Y-77830000D01*
X147477238Y-77830000D01*
X147475812Y-77815518D01*
X147439502Y-77695820D01*
X147380537Y-77585506D01*
X147301185Y-77488815D01*
X147204494Y-77409463D01*
X147094180Y-77350498D01*
X146998057Y-77321339D01*
X147164637Y-77154759D01*
X147167817Y-77150000D01*
X148455298Y-77150000D01*
X148500000Y-77154403D01*
X148544702Y-77150000D01*
X148544704Y-77150000D01*
X148678391Y-77136833D01*
X148849927Y-77084798D01*
X149008015Y-77000298D01*
X149108209Y-76918072D01*
X149310000Y-76918072D01*
X149434482Y-76905812D01*
X149554180Y-76869502D01*
X149664494Y-76810537D01*
X149761185Y-76731185D01*
X149840537Y-76634494D01*
X149899502Y-76524180D01*
X149935812Y-76404482D01*
X149948072Y-76280000D01*
X149948072Y-75768095D01*
X149958815Y-75781185D01*
X150055506Y-75860537D01*
X150165820Y-75919502D01*
X150285518Y-75955812D01*
X150410000Y-75968072D01*
X150574250Y-75965000D01*
X150733000Y-75806250D01*
X150733000Y-75057000D01*
X150987000Y-75057000D01*
X150987000Y-75806250D01*
X151145750Y-75965000D01*
X151310000Y-75968072D01*
X151434482Y-75955812D01*
X151554180Y-75919502D01*
X151664494Y-75860537D01*
X151761185Y-75781185D01*
X151840537Y-75684494D01*
X151899502Y-75574180D01*
X151935812Y-75454482D01*
X151948072Y-75330000D01*
X151945000Y-75215750D01*
X151786250Y-75057000D01*
X150987000Y-75057000D01*
X150733000Y-75057000D01*
X149933750Y-75057000D01*
X149849143Y-75141607D01*
X149840537Y-75125506D01*
X149761185Y-75028815D01*
X149664494Y-74949463D01*
X149628082Y-74930000D01*
X149664494Y-74910537D01*
X149761185Y-74831185D01*
X149840537Y-74734494D01*
X149849143Y-74718393D01*
X149933750Y-74803000D01*
X150733000Y-74803000D01*
X150733000Y-74053750D01*
X150987000Y-74053750D01*
X150987000Y-74803000D01*
X151786250Y-74803000D01*
X151945000Y-74644250D01*
X151948072Y-74530000D01*
X151935812Y-74405518D01*
X151899502Y-74285820D01*
X151840537Y-74175506D01*
X151761185Y-74078815D01*
X151664494Y-73999463D01*
X151554180Y-73940498D01*
X151434482Y-73904188D01*
X151310000Y-73891928D01*
X151145750Y-73895000D01*
X150987000Y-74053750D01*
X150733000Y-74053750D01*
X150574250Y-73895000D01*
X150410000Y-73891928D01*
X150285518Y-73904188D01*
X150165820Y-73940498D01*
X150055506Y-73999463D01*
X149958815Y-74078815D01*
X149948072Y-74091905D01*
X149948072Y-73580000D01*
X149935812Y-73455518D01*
X149899502Y-73335820D01*
X149840537Y-73225506D01*
X149761185Y-73128815D01*
X149664494Y-73049463D01*
X149554180Y-72990498D01*
X149434482Y-72954188D01*
X149310000Y-72941928D01*
X148410000Y-72941928D01*
X148285518Y-72954188D01*
X148165820Y-72990498D01*
X148055506Y-73049463D01*
X147958815Y-73128815D01*
X147879463Y-73225506D01*
X147823609Y-73330000D01*
X147167817Y-73330000D01*
X147164637Y-73325241D01*
X146964759Y-73125363D01*
X146764131Y-72991308D01*
X146791514Y-72976671D01*
X146863097Y-72732702D01*
X146050000Y-71919605D01*
X145236903Y-72732702D01*
X145308486Y-72976671D01*
X145337341Y-72990324D01*
X145135241Y-73125363D01*
X144935363Y-73325241D01*
X144778320Y-73560273D01*
X144670147Y-73821426D01*
X144615000Y-74098665D01*
X144615000Y-74381335D01*
X144670147Y-74658574D01*
X144778320Y-74919727D01*
X144935363Y-75154759D01*
X145020604Y-75240000D01*
X144935363Y-75325241D01*
X144778320Y-75560273D01*
X144670147Y-75821426D01*
X144615000Y-76098665D01*
X144615000Y-76381335D01*
X144670147Y-76658574D01*
X144778320Y-76919727D01*
X144935363Y-77154759D01*
X145101943Y-77321339D01*
X145005820Y-77350498D01*
X144895506Y-77409463D01*
X144798815Y-77488815D01*
X144770388Y-77523454D01*
X143150000Y-75903067D01*
X143150000Y-75762201D01*
X143154403Y-75717499D01*
X143149971Y-75672500D01*
X143136833Y-75539109D01*
X143084798Y-75367573D01*
X143000298Y-75209485D01*
X142886581Y-75070919D01*
X142851853Y-75042419D01*
X139619946Y-71810512D01*
X144609783Y-71810512D01*
X144651213Y-72090130D01*
X144746397Y-72356292D01*
X144813329Y-72481514D01*
X145057298Y-72553097D01*
X145870395Y-71740000D01*
X146229605Y-71740000D01*
X147042702Y-72553097D01*
X147286671Y-72481514D01*
X147407571Y-72226004D01*
X147476300Y-71951816D01*
X147490217Y-71669488D01*
X147448787Y-71389870D01*
X147353603Y-71123708D01*
X147286671Y-70998486D01*
X147042702Y-70926903D01*
X146229605Y-71740000D01*
X145870395Y-71740000D01*
X145057298Y-70926903D01*
X144813329Y-70998486D01*
X144692429Y-71253996D01*
X144623700Y-71528184D01*
X144609783Y-71810512D01*
X139619946Y-71810512D01*
X139034006Y-71224573D01*
X139031476Y-71211852D01*
X138953455Y-71023494D01*
X138840187Y-70853976D01*
X138733509Y-70747298D01*
X145236903Y-70747298D01*
X146050000Y-71560395D01*
X146863097Y-70747298D01*
X146791514Y-70503329D01*
X146536004Y-70382429D01*
X146261816Y-70313700D01*
X145979488Y-70299783D01*
X145699870Y-70341213D01*
X145433708Y-70436397D01*
X145308486Y-70503329D01*
X145236903Y-70747298D01*
X138733509Y-70747298D01*
X138696024Y-70709813D01*
X138526506Y-70596545D01*
X138338148Y-70518524D01*
X138138189Y-70478750D01*
X137934311Y-70478750D01*
X137734352Y-70518524D01*
X137545994Y-70596545D01*
X137376476Y-70709813D01*
X137232313Y-70853976D01*
X137119045Y-71023494D01*
X137041024Y-71211852D01*
X137001250Y-71411811D01*
X137001250Y-71615689D01*
X137041024Y-71815648D01*
X137119045Y-72004006D01*
X137232313Y-72173524D01*
X137376476Y-72317687D01*
X137545994Y-72430955D01*
X137734352Y-72508976D01*
X137747073Y-72511506D01*
X141330000Y-76094434D01*
X141330000Y-76235298D01*
X141325597Y-76280000D01*
X141330000Y-76324702D01*
X141330000Y-76324704D01*
X141343167Y-76458391D01*
X141395202Y-76629927D01*
X141413281Y-76663750D01*
X141479702Y-76788015D01*
X141526448Y-76844974D01*
X141593420Y-76926581D01*
X141628149Y-76955082D01*
X144024918Y-79351852D01*
X144053419Y-79386581D01*
X144191985Y-79500298D01*
X144350073Y-79584798D01*
X144521609Y-79636833D01*
X144622443Y-79646764D01*
X144624188Y-79664482D01*
X144660498Y-79784180D01*
X144719463Y-79894494D01*
X144798815Y-79991185D01*
X144833454Y-80019612D01*
X141035040Y-83818027D01*
X141055000Y-83722000D01*
X141055000Y-83072000D01*
X139997000Y-83072000D01*
X139997000Y-83092000D01*
X139743000Y-83092000D01*
X139743000Y-83072000D01*
X138685000Y-83072000D01*
X138685000Y-83195250D01*
X138633979Y-83185626D01*
X137999605Y-83820000D01*
X138013748Y-83834143D01*
X137912889Y-83935001D01*
X137727111Y-83935001D01*
X137626253Y-83834143D01*
X137640395Y-83820000D01*
X137626253Y-83805858D01*
X137805858Y-83626253D01*
X137820000Y-83640395D01*
X138454374Y-83006021D01*
X138413159Y-82787522D01*
X138200335Y-82691641D01*
X138052613Y-82657530D01*
X138070134Y-82631308D01*
X138159461Y-82415652D01*
X138205000Y-82186712D01*
X138205000Y-82168000D01*
X138685000Y-82168000D01*
X138685000Y-82818000D01*
X139743000Y-82818000D01*
X139743000Y-81276639D01*
X139997000Y-81276639D01*
X139997000Y-82818000D01*
X141055000Y-82818000D01*
X141055000Y-82168000D01*
X141007454Y-81939258D01*
X140916196Y-81724187D01*
X140784734Y-81531052D01*
X140618119Y-81367275D01*
X140422754Y-81239150D01*
X140206147Y-81151601D01*
X140179744Y-81151197D01*
X139997000Y-81276639D01*
X139743000Y-81276639D01*
X139560256Y-81151197D01*
X139533853Y-81151601D01*
X139317246Y-81239150D01*
X139121881Y-81367275D01*
X138955266Y-81531052D01*
X138823804Y-81724187D01*
X138732546Y-81939258D01*
X138685000Y-82168000D01*
X138205000Y-82168000D01*
X138205000Y-81953288D01*
X138159461Y-81724348D01*
X138070134Y-81508692D01*
X137940450Y-81314606D01*
X137775394Y-81149550D01*
X137581308Y-81019866D01*
X137365652Y-80930539D01*
X137136712Y-80885000D01*
X136903288Y-80885000D01*
X136674348Y-80930539D01*
X136458692Y-81019866D01*
X136264606Y-81149550D01*
X136220000Y-81194156D01*
X136175394Y-81149550D01*
X135981308Y-81019866D01*
X135765652Y-80930539D01*
X135536712Y-80885000D01*
X135303288Y-80885000D01*
X135074348Y-80930539D01*
X134858692Y-81019866D01*
X134664606Y-81149550D01*
X134499550Y-81314606D01*
X134369866Y-81508692D01*
X134280539Y-81724348D01*
X134235000Y-81953288D01*
X134235000Y-82186712D01*
X134280539Y-82415652D01*
X134369866Y-82631308D01*
X134370280Y-82631928D01*
X134070000Y-82631928D01*
X133945518Y-82644188D01*
X133825820Y-82680498D01*
X133755000Y-82718353D01*
X133755000Y-82168000D01*
X133707454Y-81939258D01*
X133616196Y-81724187D01*
X133484734Y-81531052D01*
X133318119Y-81367275D01*
X133122754Y-81239150D01*
X132906147Y-81151601D01*
X132879744Y-81151197D01*
X132697000Y-81276639D01*
X132443000Y-81276639D01*
X132260256Y-81151197D01*
X132233853Y-81151601D01*
X132017246Y-81239150D01*
X131821881Y-81367275D01*
X131655266Y-81531052D01*
X131523804Y-81724187D01*
X131432546Y-81939258D01*
X131385000Y-82168000D01*
X112420000Y-82168000D01*
X112420000Y-81523715D01*
X112492986Y-81637408D01*
X112641609Y-81791587D01*
X112817455Y-81913809D01*
X113013767Y-81999376D01*
X113223000Y-82045000D01*
X113623000Y-82045000D01*
X113623000Y-81087000D01*
X113877000Y-81087000D01*
X113877000Y-82045000D01*
X114277000Y-82045000D01*
X114486233Y-81999376D01*
X114682545Y-81913809D01*
X114858391Y-81791587D01*
X115007014Y-81637408D01*
X115122702Y-81457197D01*
X115194408Y-81254001D01*
X115335592Y-81254001D01*
X115407298Y-81457197D01*
X115522986Y-81637408D01*
X115671609Y-81791587D01*
X115847455Y-81913809D01*
X116043767Y-81999376D01*
X116253000Y-82045000D01*
X117003000Y-82045000D01*
X117003000Y-81087000D01*
X117257000Y-81087000D01*
X117257000Y-82045000D01*
X118007000Y-82045000D01*
X118216233Y-81999376D01*
X118412545Y-81913809D01*
X118588391Y-81791587D01*
X118737014Y-81637408D01*
X118852702Y-81457197D01*
X118924408Y-81254001D01*
X118797502Y-81087000D01*
X117257000Y-81087000D01*
X117003000Y-81087000D01*
X115462498Y-81087000D01*
X115335592Y-81254001D01*
X115194408Y-81254001D01*
X115067502Y-81087000D01*
X113877000Y-81087000D01*
X113623000Y-81087000D01*
X113603000Y-81087000D01*
X113603000Y-80833000D01*
X113623000Y-80833000D01*
X113623000Y-79875000D01*
X113877000Y-79875000D01*
X113877000Y-80833000D01*
X115067502Y-80833000D01*
X115194408Y-80665999D01*
X115122702Y-80462803D01*
X115007014Y-80282592D01*
X114858391Y-80128413D01*
X114682545Y-80006191D01*
X114486233Y-79920624D01*
X114277000Y-79875000D01*
X113877000Y-79875000D01*
X113623000Y-79875000D01*
X113223000Y-79875000D01*
X113013767Y-79920624D01*
X112817455Y-80006191D01*
X112641609Y-80128413D01*
X112492986Y-80282592D01*
X112420000Y-80396285D01*
X112420000Y-77945000D01*
X112436928Y-77945000D01*
X112449188Y-78069482D01*
X112485498Y-78189180D01*
X112544463Y-78299494D01*
X112623815Y-78396185D01*
X112720506Y-78475537D01*
X112830820Y-78534502D01*
X112950518Y-78570812D01*
X113075000Y-78583072D01*
X113226750Y-78580000D01*
X113385500Y-78421250D01*
X113385500Y-77597000D01*
X112598750Y-77597000D01*
X112440000Y-77755750D01*
X112436928Y-77945000D01*
X112420000Y-77945000D01*
X112420000Y-76192500D01*
X112436928Y-76192500D01*
X112449188Y-76316982D01*
X112485498Y-76436680D01*
X112544463Y-76546994D01*
X112582835Y-76593750D01*
X112544463Y-76640506D01*
X112485498Y-76750820D01*
X112449188Y-76870518D01*
X112436928Y-76995000D01*
X112440000Y-77184250D01*
X112598750Y-77343000D01*
X113385500Y-77343000D01*
X113385500Y-75844500D01*
X112598750Y-75844500D01*
X112440000Y-76003250D01*
X112436928Y-76192500D01*
X112420000Y-76192500D01*
X112420000Y-75242500D01*
X112436928Y-75242500D01*
X112440000Y-75431750D01*
X112598750Y-75590500D01*
X113385500Y-75590500D01*
X113385500Y-74766250D01*
X113639500Y-74766250D01*
X113639500Y-75590500D01*
X113659500Y-75590500D01*
X113659500Y-75844500D01*
X113639500Y-75844500D01*
X113639500Y-77343000D01*
X113659500Y-77343000D01*
X113659500Y-77597000D01*
X113639500Y-77597000D01*
X113639500Y-78421250D01*
X113798250Y-78580000D01*
X113950000Y-78583072D01*
X114074482Y-78570812D01*
X114194180Y-78534502D01*
X114304494Y-78475537D01*
X114371070Y-78420900D01*
X114392725Y-78438671D01*
X114540858Y-78517850D01*
X114701592Y-78566608D01*
X114868750Y-78583072D01*
X115174499Y-78583072D01*
X115200545Y-78596994D01*
X115235253Y-78615546D01*
X115378514Y-78659003D01*
X115490167Y-78670000D01*
X115490177Y-78670000D01*
X115527500Y-78673676D01*
X115564823Y-78670000D01*
X115775000Y-78670000D01*
X115775000Y-78857014D01*
X115812853Y-79047314D01*
X115870109Y-79185542D01*
X115815411Y-79314384D01*
X115775890Y-79504344D01*
X115774187Y-79698364D01*
X115810368Y-79888989D01*
X115856178Y-80002389D01*
X115847455Y-80006191D01*
X115671609Y-80128413D01*
X115522986Y-80282592D01*
X115407298Y-80462803D01*
X115335592Y-80665999D01*
X115462498Y-80833000D01*
X117003000Y-80833000D01*
X117003000Y-80566463D01*
X117038989Y-80559632D01*
X117218893Y-80486957D01*
X117234216Y-80478767D01*
X117250912Y-80280520D01*
X117257000Y-80286608D01*
X117257000Y-80833000D01*
X118797502Y-80833000D01*
X118924408Y-80665999D01*
X118852702Y-80462803D01*
X118737014Y-80282592D01*
X118588391Y-80128413D01*
X118412545Y-80006191D01*
X118260170Y-79939775D01*
X118110000Y-79789605D01*
X118095858Y-79803748D01*
X118037110Y-79745000D01*
X118207014Y-79745000D01*
X118388504Y-79708899D01*
X118780517Y-80100912D01*
X118978767Y-80084216D01*
X119054589Y-79905616D01*
X119094110Y-79715656D01*
X119095813Y-79521636D01*
X119059632Y-79331011D01*
X119000385Y-79184349D01*
X119057147Y-79047314D01*
X119095000Y-78857014D01*
X119095000Y-78662986D01*
X119057147Y-78472686D01*
X119000116Y-78335000D01*
X119053883Y-78205194D01*
X119078102Y-78215226D01*
X119278061Y-78255000D01*
X119481939Y-78255000D01*
X119681898Y-78215226D01*
X119870256Y-78137205D01*
X120039774Y-78023937D01*
X120183937Y-77879774D01*
X120297205Y-77710256D01*
X120375226Y-77521898D01*
X120415000Y-77321939D01*
X120415000Y-77118061D01*
X120375226Y-76918102D01*
X120297205Y-76729744D01*
X120286519Y-76713750D01*
X122114428Y-76713750D01*
X122114428Y-77226250D01*
X122130892Y-77393408D01*
X122179650Y-77554142D01*
X122258829Y-77702275D01*
X122365385Y-77832115D01*
X122430001Y-77885143D01*
X122430001Y-78145821D01*
X122426324Y-78183153D01*
X122430001Y-78220486D01*
X122440998Y-78332139D01*
X122451567Y-78366982D01*
X122484454Y-78475399D01*
X122555026Y-78607429D01*
X122609394Y-78673676D01*
X122650000Y-78723154D01*
X122678998Y-78746952D01*
X122711847Y-78779801D01*
X122711847Y-78841939D01*
X122751621Y-79041898D01*
X122829642Y-79230256D01*
X122942910Y-79399774D01*
X123087073Y-79543937D01*
X123256591Y-79657205D01*
X123444949Y-79735226D01*
X123644908Y-79775000D01*
X123790618Y-79775000D01*
X123714774Y-79958102D01*
X123675000Y-80158061D01*
X123675000Y-80361939D01*
X123714774Y-80561898D01*
X123792795Y-80750256D01*
X123906063Y-80919774D01*
X124050226Y-81063937D01*
X124219744Y-81177205D01*
X124408102Y-81255226D01*
X124608061Y-81295000D01*
X124811939Y-81295000D01*
X125011898Y-81255226D01*
X125200256Y-81177205D01*
X125369774Y-81063937D01*
X125413711Y-81020000D01*
X125637148Y-81020000D01*
X125667875Y-81057441D01*
X125797715Y-81163997D01*
X125945848Y-81243176D01*
X126106582Y-81291934D01*
X126273740Y-81308398D01*
X126786240Y-81308398D01*
X126953398Y-81291934D01*
X127114132Y-81243176D01*
X127262265Y-81163997D01*
X127392105Y-81057441D01*
X127422832Y-81020000D01*
X129020807Y-81020000D01*
X129122438Y-81074323D01*
X129283172Y-81123081D01*
X129450330Y-81139545D01*
X129617488Y-81123081D01*
X129778222Y-81074323D01*
X129926355Y-80995144D01*
X130056195Y-80888588D01*
X130418588Y-80526195D01*
X130525144Y-80396355D01*
X130604323Y-80248222D01*
X130653081Y-80087488D01*
X130669545Y-79920330D01*
X130653081Y-79753172D01*
X130604323Y-79592438D01*
X130525144Y-79444305D01*
X130418588Y-79314465D01*
X130300000Y-79195877D01*
X130300000Y-78673711D01*
X130343937Y-78629774D01*
X130457205Y-78460256D01*
X130535226Y-78271898D01*
X130575000Y-78071939D01*
X130575000Y-77868061D01*
X130565863Y-77822125D01*
X130614615Y-77782115D01*
X130721171Y-77652275D01*
X130800350Y-77504142D01*
X130849108Y-77343408D01*
X130865572Y-77176250D01*
X130865572Y-76663750D01*
X130849108Y-76496592D01*
X130800350Y-76335858D01*
X130721171Y-76187725D01*
X130614615Y-76057885D01*
X130484775Y-75951329D01*
X130336642Y-75872150D01*
X130175908Y-75823392D01*
X130076336Y-75813585D01*
X130030256Y-75782795D01*
X129841898Y-75704774D01*
X129641939Y-75665000D01*
X129438061Y-75665000D01*
X129342435Y-75684021D01*
X129245594Y-75587180D01*
X129470097Y-75587180D01*
X129579573Y-75482049D01*
X129658926Y-75385357D01*
X129717890Y-75275043D01*
X129754199Y-75155345D01*
X129762641Y-75069633D01*
X129790522Y-75066887D01*
X129951256Y-75018129D01*
X130099389Y-74938950D01*
X130229229Y-74832394D01*
X130538588Y-74523035D01*
X130645144Y-74393195D01*
X130724323Y-74245062D01*
X130773081Y-74084328D01*
X130789545Y-73917170D01*
X130773081Y-73750012D01*
X130724323Y-73589278D01*
X130645144Y-73441145D01*
X130538588Y-73311305D01*
X130176195Y-72948912D01*
X130046355Y-72842356D01*
X129898222Y-72763177D01*
X129737488Y-72714419D01*
X129570330Y-72697955D01*
X129403172Y-72714419D01*
X129242438Y-72763177D01*
X129094305Y-72842356D01*
X129024065Y-72900000D01*
X128973711Y-72900000D01*
X128929774Y-72856063D01*
X128760256Y-72742795D01*
X128571898Y-72664774D01*
X128371939Y-72625000D01*
X128168061Y-72625000D01*
X127968102Y-72664774D01*
X127779744Y-72742795D01*
X127610226Y-72856063D01*
X127479954Y-72986335D01*
X127468671Y-72965225D01*
X127362115Y-72835385D01*
X127232275Y-72728829D01*
X127084142Y-72649650D01*
X126923408Y-72600892D01*
X126756250Y-72584428D01*
X126243750Y-72584428D01*
X126076592Y-72600892D01*
X125915858Y-72649650D01*
X125767725Y-72728829D01*
X125637885Y-72835385D01*
X125624938Y-72851161D01*
X125462756Y-72742795D01*
X125274398Y-72664774D01*
X125074439Y-72625000D01*
X124870561Y-72625000D01*
X124670602Y-72664774D01*
X124482244Y-72742795D01*
X124312726Y-72856063D01*
X124268789Y-72900000D01*
X123975935Y-72900000D01*
X123905695Y-72842356D01*
X123757562Y-72763177D01*
X123596828Y-72714419D01*
X123429670Y-72697955D01*
X123262512Y-72714419D01*
X123101778Y-72763177D01*
X122953645Y-72842356D01*
X122823805Y-72948912D01*
X122461412Y-73311305D01*
X122354856Y-73441145D01*
X122275677Y-73589278D01*
X122226919Y-73750012D01*
X122210455Y-73917170D01*
X122226919Y-74084328D01*
X122275677Y-74245062D01*
X122354856Y-74393195D01*
X122461412Y-74523035D01*
X122770771Y-74832394D01*
X122900611Y-74938950D01*
X123048744Y-75018129D01*
X123209478Y-75066887D01*
X123237359Y-75069633D01*
X123245801Y-75155345D01*
X123282110Y-75275043D01*
X123341074Y-75385357D01*
X123420427Y-75482049D01*
X123529903Y-75587180D01*
X123754409Y-75587180D01*
X124337242Y-75004347D01*
X124323100Y-74990205D01*
X124502705Y-74810600D01*
X124516847Y-74824742D01*
X124530990Y-74810600D01*
X124710595Y-74990205D01*
X124696452Y-75004347D01*
X124710595Y-75018490D01*
X124530990Y-75198095D01*
X124516847Y-75183952D01*
X123934014Y-75766785D01*
X123934014Y-75991291D01*
X123936792Y-75994183D01*
X123906430Y-76019100D01*
X123884775Y-76001329D01*
X123736642Y-75922150D01*
X123575908Y-75873392D01*
X123408750Y-75856928D01*
X122971250Y-75856928D01*
X122804092Y-75873392D01*
X122643358Y-75922150D01*
X122495225Y-76001329D01*
X122365385Y-76107885D01*
X122258829Y-76237725D01*
X122179650Y-76385858D01*
X122130892Y-76546592D01*
X122114428Y-76713750D01*
X120286519Y-76713750D01*
X120200490Y-76585000D01*
X120297205Y-76440256D01*
X120375226Y-76251898D01*
X120415000Y-76051939D01*
X120415000Y-75848061D01*
X120375226Y-75648102D01*
X120297205Y-75459744D01*
X120183937Y-75290226D01*
X120039774Y-75146063D01*
X119870256Y-75032795D01*
X119681898Y-74954774D01*
X119545001Y-74927544D01*
X119545001Y-72156294D01*
X119548677Y-72118971D01*
X119545001Y-72081648D01*
X119545001Y-72081639D01*
X119534004Y-71969986D01*
X119490547Y-71826725D01*
X119419975Y-71694696D01*
X119325002Y-71578971D01*
X119296003Y-71555172D01*
X118764822Y-71023992D01*
X118741020Y-70994989D01*
X118625295Y-70900016D01*
X118493266Y-70829444D01*
X118350005Y-70785987D01*
X118238352Y-70774990D01*
X118238341Y-70774990D01*
X118201019Y-70771314D01*
X118163697Y-70774990D01*
X116096314Y-70774990D01*
X116058981Y-70771313D01*
X116021648Y-70774990D01*
X115909995Y-70785987D01*
X115766734Y-70829444D01*
X115634705Y-70900016D01*
X115518980Y-70994989D01*
X115495182Y-71023987D01*
X114947901Y-71571269D01*
X114858391Y-71478413D01*
X114682545Y-71356191D01*
X114486233Y-71270624D01*
X114277000Y-71225000D01*
X113877000Y-71225000D01*
X113877000Y-72183000D01*
X113897000Y-72183000D01*
X113897000Y-72437000D01*
X113877000Y-72437000D01*
X113877000Y-73395000D01*
X114277000Y-73395000D01*
X114327500Y-73383988D01*
X114327501Y-74730844D01*
X114304494Y-74711963D01*
X114194180Y-74652998D01*
X114074482Y-74616688D01*
X113950000Y-74604428D01*
X113798250Y-74607500D01*
X113639500Y-74766250D01*
X113385500Y-74766250D01*
X113226750Y-74607500D01*
X113075000Y-74604428D01*
X112950518Y-74616688D01*
X112830820Y-74652998D01*
X112720506Y-74711963D01*
X112623815Y-74791315D01*
X112544463Y-74888006D01*
X112485498Y-74998320D01*
X112449188Y-75118018D01*
X112436928Y-75242500D01*
X112420000Y-75242500D01*
X112420000Y-72873715D01*
X112492986Y-72987408D01*
X112641609Y-73141587D01*
X112817455Y-73263809D01*
X113013767Y-73349376D01*
X113223000Y-73395000D01*
X113623000Y-73395000D01*
X113623000Y-72437000D01*
X113603000Y-72437000D01*
X113603000Y-72183000D01*
X113623000Y-72183000D01*
X113623000Y-71225000D01*
X113223000Y-71225000D01*
X113013767Y-71270624D01*
X112817455Y-71356191D01*
X112641609Y-71478413D01*
X112492986Y-71632592D01*
X112420000Y-71746285D01*
X112420000Y-70555000D01*
X120806928Y-70555000D01*
X120819188Y-70679482D01*
X120855498Y-70799180D01*
X120914463Y-70909494D01*
X120993815Y-71006185D01*
X121090506Y-71085537D01*
X121200820Y-71144502D01*
X121320518Y-71180812D01*
X121445000Y-71193072D01*
X121634250Y-71190000D01*
X121793000Y-71031250D01*
X121793000Y-70244500D01*
X122047000Y-70244500D01*
X122047000Y-71031250D01*
X122205750Y-71190000D01*
X122395000Y-71193072D01*
X122519482Y-71180812D01*
X122639180Y-71144502D01*
X122749494Y-71085537D01*
X122846185Y-71006185D01*
X122925537Y-70909494D01*
X122984502Y-70799180D01*
X123020812Y-70679482D01*
X123023223Y-70655000D01*
X123106928Y-70655000D01*
X123119188Y-70779482D01*
X123155498Y-70899180D01*
X123214463Y-71009494D01*
X123293815Y-71106185D01*
X123390506Y-71185537D01*
X123500820Y-71244502D01*
X123620518Y-71280812D01*
X123745000Y-71293072D01*
X123934250Y-71290000D01*
X124093000Y-71131250D01*
X124093000Y-70344500D01*
X124347000Y-70344500D01*
X124347000Y-71131250D01*
X124505750Y-71290000D01*
X124695000Y-71293072D01*
X124819482Y-71280812D01*
X124939180Y-71244502D01*
X125049494Y-71185537D01*
X125146185Y-71106185D01*
X125225537Y-71009494D01*
X125284502Y-70899180D01*
X125320812Y-70779482D01*
X125333072Y-70655000D01*
X125330000Y-70503250D01*
X125171250Y-70344500D01*
X124347000Y-70344500D01*
X124093000Y-70344500D01*
X123268750Y-70344500D01*
X123110000Y-70503250D01*
X123106928Y-70655000D01*
X123023223Y-70655000D01*
X123033072Y-70555000D01*
X123030000Y-70403250D01*
X122871250Y-70244500D01*
X122047000Y-70244500D01*
X121793000Y-70244500D01*
X120968750Y-70244500D01*
X120810000Y-70403250D01*
X120806928Y-70555000D01*
X112420000Y-70555000D01*
X112420000Y-68323750D01*
X120806928Y-68323750D01*
X120806928Y-68761250D01*
X120823392Y-68928408D01*
X120872150Y-69089142D01*
X120951329Y-69237275D01*
X120969100Y-69258930D01*
X120914463Y-69325506D01*
X120855498Y-69435820D01*
X120819188Y-69555518D01*
X120806928Y-69680000D01*
X120810000Y-69831750D01*
X120968750Y-69990500D01*
X121793000Y-69990500D01*
X121793000Y-69970500D01*
X122047000Y-69970500D01*
X122047000Y-69990500D01*
X122871250Y-69990500D01*
X123030000Y-69831750D01*
X123033072Y-69680000D01*
X123020812Y-69555518D01*
X123000937Y-69490000D01*
X123179990Y-69490000D01*
X123155498Y-69535820D01*
X123119188Y-69655518D01*
X123106928Y-69780000D01*
X123110000Y-69931750D01*
X123268750Y-70090500D01*
X124093000Y-70090500D01*
X124093000Y-70070500D01*
X124347000Y-70070500D01*
X124347000Y-70090500D01*
X125171250Y-70090500D01*
X125330000Y-69931750D01*
X125333072Y-69780000D01*
X125320812Y-69655518D01*
X125284502Y-69535820D01*
X125225537Y-69425506D01*
X125170900Y-69358930D01*
X125188671Y-69337275D01*
X125214203Y-69289508D01*
X125263937Y-69239774D01*
X125377205Y-69070256D01*
X125455226Y-68881898D01*
X125495000Y-68681939D01*
X125495000Y-68478061D01*
X125455226Y-68278102D01*
X125377205Y-68089744D01*
X125263937Y-67920226D01*
X125119774Y-67776063D01*
X124950256Y-67662795D01*
X124761898Y-67584774D01*
X124561939Y-67545000D01*
X124358061Y-67545000D01*
X124247821Y-67566928D01*
X123963750Y-67566928D01*
X123796592Y-67583392D01*
X123635858Y-67632150D01*
X123565046Y-67670000D01*
X122723766Y-67670000D01*
X122652275Y-67611329D01*
X122504142Y-67532150D01*
X122343408Y-67483392D01*
X122176250Y-67466928D01*
X121663750Y-67466928D01*
X121496592Y-67483392D01*
X121335858Y-67532150D01*
X121187725Y-67611329D01*
X121057885Y-67717885D01*
X120951329Y-67847725D01*
X120872150Y-67995858D01*
X120823392Y-68156592D01*
X120806928Y-68323750D01*
X112420000Y-68323750D01*
X112420000Y-66700000D01*
X133410726Y-66700000D01*
X133195271Y-66843962D01*
X133195271Y-66843962D01*
G37*
X133195271Y-66843962D02*
X132883962Y-67155271D01*
X132639369Y-67521331D01*
X132470890Y-67928075D01*
X132385000Y-68359872D01*
X132385000Y-68800128D01*
X132470890Y-69231925D01*
X132639369Y-69638669D01*
X132883962Y-70004729D01*
X133195271Y-70316038D01*
X133561331Y-70560631D01*
X133968075Y-70729110D01*
X134399872Y-70815000D01*
X134840128Y-70815000D01*
X135271925Y-70729110D01*
X135678669Y-70560631D01*
X136044729Y-70316038D01*
X136199114Y-70161653D01*
X147447952Y-70161653D01*
X147603962Y-70477214D01*
X147978745Y-70668020D01*
X148383551Y-70782044D01*
X148802824Y-70814902D01*
X149220451Y-70765334D01*
X149620383Y-70635243D01*
X149916038Y-70477214D01*
X150072048Y-70161653D01*
X148760000Y-68849605D01*
X147447952Y-70161653D01*
X136199114Y-70161653D01*
X136356038Y-70004729D01*
X136600631Y-69638669D01*
X136769110Y-69231925D01*
X136855000Y-68800128D01*
X136855000Y-68712824D01*
X146615098Y-68712824D01*
X146664666Y-69130451D01*
X146794757Y-69530383D01*
X146952786Y-69826038D01*
X147268347Y-69982048D01*
X148580395Y-68670000D01*
X148939605Y-68670000D01*
X150251653Y-69982048D01*
X150567214Y-69826038D01*
X150758020Y-69451255D01*
X150872044Y-69046449D01*
X150904902Y-68627176D01*
X150855334Y-68209549D01*
X150725243Y-67809617D01*
X150567214Y-67513962D01*
X150251653Y-67357952D01*
X148939605Y-68670000D01*
X148580395Y-68670000D01*
X147268347Y-67357952D01*
X146952786Y-67513962D01*
X146761980Y-67888745D01*
X146647956Y-68293551D01*
X146615098Y-68712824D01*
X136855000Y-68712824D01*
X136855000Y-68359872D01*
X136769110Y-67928075D01*
X136600631Y-67521331D01*
X136356038Y-67155271D01*
X136044729Y-66843962D01*
X135829274Y-66700000D01*
X147914241Y-66700000D01*
X147899617Y-66704757D01*
X147603962Y-66862786D01*
X147447952Y-67178347D01*
X148760000Y-68490395D01*
X150072048Y-67178347D01*
X149916038Y-66862786D01*
X149596292Y-66700000D01*
X156820000Y-66700000D01*
X156820001Y-83880727D01*
X156676038Y-83665271D01*
X156364729Y-83353962D01*
X155998669Y-83109369D01*
X155591925Y-82940890D01*
X155160128Y-82855000D01*
X154719872Y-82855000D01*
X154288075Y-82940890D01*
X153881331Y-83109369D01*
X153515271Y-83353962D01*
X153203962Y-83665271D01*
X152959369Y-84031331D01*
X152790890Y-84438075D01*
X152705000Y-84869872D01*
X152705000Y-85310128D01*
X152790890Y-85741925D01*
X152959369Y-86148669D01*
X153203962Y-86514729D01*
X153515271Y-86826038D01*
X153730726Y-86970000D01*
X115509274Y-86970000D01*
X115724729Y-86826038D01*
X116036038Y-86514729D01*
X116280631Y-86148669D01*
X116449110Y-85741925D01*
X116535000Y-85310128D01*
X116535000Y-84869872D01*
X116449110Y-84438075D01*
X116280631Y-84031331D01*
X116036038Y-83665271D01*
X115724729Y-83353962D01*
X115358669Y-83109369D01*
X115268453Y-83072000D01*
X131385000Y-83072000D01*
X131385000Y-83722000D01*
X131432546Y-83950742D01*
X131523804Y-84165813D01*
X131655266Y-84358948D01*
X131821881Y-84522725D01*
X132017246Y-84650850D01*
X132233853Y-84738399D01*
X132260256Y-84738803D01*
X132443000Y-84613361D01*
X132443000Y-83072000D01*
X131385000Y-83072000D01*
X115268453Y-83072000D01*
X114951925Y-82940890D01*
X114520128Y-82855000D01*
X114079872Y-82855000D01*
X113648075Y-82940890D01*
X113241331Y-83109369D01*
X112875271Y-83353962D01*
X112563962Y-83665271D01*
X112420000Y-83880726D01*
X112420000Y-82168000D01*
X131385000Y-82168000D01*
X131385000Y-82818000D01*
X132443000Y-82818000D01*
X132443000Y-81276639D01*
X132697000Y-81276639D01*
X132697000Y-82818000D01*
X132717000Y-82818000D01*
X132717000Y-83072000D01*
X132697000Y-83072000D01*
X132697000Y-84613361D01*
X132879744Y-84738803D01*
X132906147Y-84738399D01*
X133122754Y-84650850D01*
X133318119Y-84522725D01*
X133435597Y-84407248D01*
X133444188Y-84494482D01*
X133480498Y-84614180D01*
X133539463Y-84724494D01*
X133618815Y-84821185D01*
X133715506Y-84900537D01*
X133825820Y-84959502D01*
X133945518Y-84995812D01*
X134070000Y-85008072D01*
X134521138Y-85008072D01*
X134969918Y-85456852D01*
X134998420Y-85491582D01*
X135136986Y-85605299D01*
X135295074Y-85689799D01*
X135466610Y-85741834D01*
X135600297Y-85755001D01*
X135600298Y-85755001D01*
X135645000Y-85759404D01*
X135689702Y-85755001D01*
X141250297Y-85755001D01*
X141294999Y-85759404D01*
X141339701Y-85755001D01*
X141339703Y-85755001D01*
X141473390Y-85741834D01*
X141644926Y-85689799D01*
X141803014Y-85605299D01*
X141941580Y-85491582D01*
X141970086Y-85456847D01*
X144125280Y-83301653D01*
X147447952Y-83301653D01*
X147603962Y-83617214D01*
X147978745Y-83808020D01*
X148383551Y-83922044D01*
X148802824Y-83954902D01*
X149220451Y-83905334D01*
X149620383Y-83775243D01*
X149916038Y-83617214D01*
X150072048Y-83301653D01*
X148760000Y-81989605D01*
X147447952Y-83301653D01*
X144125280Y-83301653D01*
X145574109Y-81852824D01*
X146615098Y-81852824D01*
X146664666Y-82270451D01*
X146794757Y-82670383D01*
X146952786Y-82966038D01*
X147268347Y-83122048D01*
X148580395Y-81810000D01*
X148939605Y-81810000D01*
X150251653Y-83122048D01*
X150567214Y-82966038D01*
X150758020Y-82591255D01*
X150872044Y-82186449D01*
X150904902Y-81767176D01*
X150855334Y-81349549D01*
X150725243Y-80949617D01*
X150567214Y-80653962D01*
X150251653Y-80497952D01*
X148939605Y-81810000D01*
X148580395Y-81810000D01*
X147268347Y-80497952D01*
X146952786Y-80653962D01*
X146761980Y-81028745D01*
X146647956Y-81433551D01*
X146615098Y-81852824D01*
X145574109Y-81852824D01*
X146661852Y-80765082D01*
X146696581Y-80736581D01*
X146793295Y-80618734D01*
X146810298Y-80598016D01*
X146894798Y-80439927D01*
X146908015Y-80396355D01*
X146946833Y-80268391D01*
X146956764Y-80167557D01*
X146974482Y-80165812D01*
X147094180Y-80129502D01*
X147204494Y-80070537D01*
X147301185Y-79991185D01*
X147380537Y-79894494D01*
X147439502Y-79784180D01*
X147475812Y-79664482D01*
X147477238Y-79650000D01*
X148306234Y-79650000D01*
X148374229Y-79705802D01*
X148299549Y-79714666D01*
X147899617Y-79844757D01*
X147603962Y-80002786D01*
X147447952Y-80318347D01*
X148760000Y-81630395D01*
X150072048Y-80318347D01*
X149916038Y-80002786D01*
X149541255Y-79811980D01*
X149540395Y-79811738D01*
X149619142Y-79787850D01*
X149767275Y-79708671D01*
X149788930Y-79690900D01*
X149855506Y-79745537D01*
X149965820Y-79804502D01*
X150085518Y-79840812D01*
X150210000Y-79853072D01*
X150361750Y-79850000D01*
X150520500Y-79691250D01*
X150520500Y-78867000D01*
X150774500Y-78867000D01*
X150774500Y-79691250D01*
X150933250Y-79850000D01*
X151085000Y-79853072D01*
X151209482Y-79840812D01*
X151329180Y-79804502D01*
X151439494Y-79745537D01*
X151536185Y-79666185D01*
X151615537Y-79569494D01*
X151674502Y-79459180D01*
X151710812Y-79339482D01*
X151723072Y-79215000D01*
X151720000Y-79025750D01*
X151561250Y-78867000D01*
X150774500Y-78867000D01*
X150520500Y-78867000D01*
X150500500Y-78867000D01*
X150500500Y-78613000D01*
X150520500Y-78613000D01*
X150520500Y-77788750D01*
X150774500Y-77788750D01*
X150774500Y-78613000D01*
X151561250Y-78613000D01*
X151720000Y-78454250D01*
X151723072Y-78265000D01*
X151710812Y-78140518D01*
X151674502Y-78020820D01*
X151615537Y-77910506D01*
X151536185Y-77813815D01*
X151439494Y-77734463D01*
X151329180Y-77675498D01*
X151209482Y-77639188D01*
X151085000Y-77626928D01*
X150933250Y-77630000D01*
X150774500Y-77788750D01*
X150520500Y-77788750D01*
X150361750Y-77630000D01*
X150210000Y-77626928D01*
X150085518Y-77639188D01*
X149965820Y-77675498D01*
X149855506Y-77734463D01*
X149788930Y-77789100D01*
X149767275Y-77771329D01*
X149619142Y-77692150D01*
X149458408Y-77643392D01*
X149291250Y-77626928D01*
X148853750Y-77626928D01*
X148686592Y-77643392D01*
X148525858Y-77692150D01*
X148377725Y-77771329D01*
X148306234Y-77830000D01*
X147477238Y-77830000D01*
X147475812Y-77815518D01*
X147439502Y-77695820D01*
X147380537Y-77585506D01*
X147301185Y-77488815D01*
X147204494Y-77409463D01*
X147094180Y-77350498D01*
X146998057Y-77321339D01*
X147164637Y-77154759D01*
X147167817Y-77150000D01*
X148455298Y-77150000D01*
X148500000Y-77154403D01*
X148544702Y-77150000D01*
X148544704Y-77150000D01*
X148678391Y-77136833D01*
X148849927Y-77084798D01*
X149008015Y-77000298D01*
X149108209Y-76918072D01*
X149310000Y-76918072D01*
X149434482Y-76905812D01*
X149554180Y-76869502D01*
X149664494Y-76810537D01*
X149761185Y-76731185D01*
X149840537Y-76634494D01*
X149899502Y-76524180D01*
X149935812Y-76404482D01*
X149948072Y-76280000D01*
X149948072Y-75768095D01*
X149958815Y-75781185D01*
X150055506Y-75860537D01*
X150165820Y-75919502D01*
X150285518Y-75955812D01*
X150410000Y-75968072D01*
X150574250Y-75965000D01*
X150733000Y-75806250D01*
X150733000Y-75057000D01*
X150987000Y-75057000D01*
X150987000Y-75806250D01*
X151145750Y-75965000D01*
X151310000Y-75968072D01*
X151434482Y-75955812D01*
X151554180Y-75919502D01*
X151664494Y-75860537D01*
X151761185Y-75781185D01*
X151840537Y-75684494D01*
X151899502Y-75574180D01*
X151935812Y-75454482D01*
X151948072Y-75330000D01*
X151945000Y-75215750D01*
X151786250Y-75057000D01*
X150987000Y-75057000D01*
X150733000Y-75057000D01*
X149933750Y-75057000D01*
X149849143Y-75141607D01*
X149840537Y-75125506D01*
X149761185Y-75028815D01*
X149664494Y-74949463D01*
X149628082Y-74930000D01*
X149664494Y-74910537D01*
X149761185Y-74831185D01*
X149840537Y-74734494D01*
X149849143Y-74718393D01*
X149933750Y-74803000D01*
X150733000Y-74803000D01*
X150733000Y-74053750D01*
X150987000Y-74053750D01*
X150987000Y-74803000D01*
X151786250Y-74803000D01*
X151945000Y-74644250D01*
X151948072Y-74530000D01*
X151935812Y-74405518D01*
X151899502Y-74285820D01*
X151840537Y-74175506D01*
X151761185Y-74078815D01*
X151664494Y-73999463D01*
X151554180Y-73940498D01*
X151434482Y-73904188D01*
X151310000Y-73891928D01*
X151145750Y-73895000D01*
X150987000Y-74053750D01*
X150733000Y-74053750D01*
X150574250Y-73895000D01*
X150410000Y-73891928D01*
X150285518Y-73904188D01*
X150165820Y-73940498D01*
X150055506Y-73999463D01*
X149958815Y-74078815D01*
X149948072Y-74091905D01*
X149948072Y-73580000D01*
X149935812Y-73455518D01*
X149899502Y-73335820D01*
X149840537Y-73225506D01*
X149761185Y-73128815D01*
X149664494Y-73049463D01*
X149554180Y-72990498D01*
X149434482Y-72954188D01*
X149310000Y-72941928D01*
X148410000Y-72941928D01*
X148285518Y-72954188D01*
X148165820Y-72990498D01*
X148055506Y-73049463D01*
X147958815Y-73128815D01*
X147879463Y-73225506D01*
X147823609Y-73330000D01*
X147167817Y-73330000D01*
X147164637Y-73325241D01*
X146964759Y-73125363D01*
X146764131Y-72991308D01*
X146791514Y-72976671D01*
X146863097Y-72732702D01*
X146050000Y-71919605D01*
X145236903Y-72732702D01*
X145308486Y-72976671D01*
X145337341Y-72990324D01*
X145135241Y-73125363D01*
X144935363Y-73325241D01*
X144778320Y-73560273D01*
X144670147Y-73821426D01*
X144615000Y-74098665D01*
X144615000Y-74381335D01*
X144670147Y-74658574D01*
X144778320Y-74919727D01*
X144935363Y-75154759D01*
X145020604Y-75240000D01*
X144935363Y-75325241D01*
X144778320Y-75560273D01*
X144670147Y-75821426D01*
X144615000Y-76098665D01*
X144615000Y-76381335D01*
X144670147Y-76658574D01*
X144778320Y-76919727D01*
X144935363Y-77154759D01*
X145101943Y-77321339D01*
X145005820Y-77350498D01*
X144895506Y-77409463D01*
X144798815Y-77488815D01*
X144770388Y-77523454D01*
X143150000Y-75903067D01*
X143150000Y-75762201D01*
X143154403Y-75717499D01*
X143149971Y-75672500D01*
X143136833Y-75539109D01*
X143084798Y-75367573D01*
X143000298Y-75209485D01*
X142886581Y-75070919D01*
X142851853Y-75042419D01*
X139619946Y-71810512D01*
X144609783Y-71810512D01*
X144651213Y-72090130D01*
X144746397Y-72356292D01*
X144813329Y-72481514D01*
X145057298Y-72553097D01*
X145870395Y-71740000D01*
X146229605Y-71740000D01*
X147042702Y-72553097D01*
X147286671Y-72481514D01*
X147407571Y-72226004D01*
X147476300Y-71951816D01*
X147490217Y-71669488D01*
X147448787Y-71389870D01*
X147353603Y-71123708D01*
X147286671Y-70998486D01*
X147042702Y-70926903D01*
X146229605Y-71740000D01*
X145870395Y-71740000D01*
X145057298Y-70926903D01*
X144813329Y-70998486D01*
X144692429Y-71253996D01*
X144623700Y-71528184D01*
X144609783Y-71810512D01*
X139619946Y-71810512D01*
X139034006Y-71224573D01*
X139031476Y-71211852D01*
X138953455Y-71023494D01*
X138840187Y-70853976D01*
X138733509Y-70747298D01*
X145236903Y-70747298D01*
X146050000Y-71560395D01*
X146863097Y-70747298D01*
X146791514Y-70503329D01*
X146536004Y-70382429D01*
X146261816Y-70313700D01*
X145979488Y-70299783D01*
X145699870Y-70341213D01*
X145433708Y-70436397D01*
X145308486Y-70503329D01*
X145236903Y-70747298D01*
X138733509Y-70747298D01*
X138696024Y-70709813D01*
X138526506Y-70596545D01*
X138338148Y-70518524D01*
X138138189Y-70478750D01*
X137934311Y-70478750D01*
X137734352Y-70518524D01*
X137545994Y-70596545D01*
X137376476Y-70709813D01*
X137232313Y-70853976D01*
X137119045Y-71023494D01*
X137041024Y-71211852D01*
X137001250Y-71411811D01*
X137001250Y-71615689D01*
X137041024Y-71815648D01*
X137119045Y-72004006D01*
X137232313Y-72173524D01*
X137376476Y-72317687D01*
X137545994Y-72430955D01*
X137734352Y-72508976D01*
X137747073Y-72511506D01*
X141330000Y-76094434D01*
X141330000Y-76235298D01*
X141325597Y-76280000D01*
X141330000Y-76324702D01*
X141330000Y-76324704D01*
X141343167Y-76458391D01*
X141395202Y-76629927D01*
X141413281Y-76663750D01*
X141479702Y-76788015D01*
X141526448Y-76844974D01*
X141593420Y-76926581D01*
X141628149Y-76955082D01*
X144024918Y-79351852D01*
X144053419Y-79386581D01*
X144191985Y-79500298D01*
X144350073Y-79584798D01*
X144521609Y-79636833D01*
X144622443Y-79646764D01*
X144624188Y-79664482D01*
X144660498Y-79784180D01*
X144719463Y-79894494D01*
X144798815Y-79991185D01*
X144833454Y-80019612D01*
X141035040Y-83818027D01*
X141055000Y-83722000D01*
X141055000Y-83072000D01*
X139997000Y-83072000D01*
X139997000Y-83092000D01*
X139743000Y-83092000D01*
X139743000Y-83072000D01*
X138685000Y-83072000D01*
X138685000Y-83195250D01*
X138633979Y-83185626D01*
X137999605Y-83820000D01*
X138013748Y-83834143D01*
X137912889Y-83935001D01*
X137727111Y-83935001D01*
X137626253Y-83834143D01*
X137640395Y-83820000D01*
X137626253Y-83805858D01*
X137805858Y-83626253D01*
X137820000Y-83640395D01*
X138454374Y-83006021D01*
X138413159Y-82787522D01*
X138200335Y-82691641D01*
X138052613Y-82657530D01*
X138070134Y-82631308D01*
X138159461Y-82415652D01*
X138205000Y-82186712D01*
X138205000Y-82168000D01*
X138685000Y-82168000D01*
X138685000Y-82818000D01*
X139743000Y-82818000D01*
X139743000Y-81276639D01*
X139997000Y-81276639D01*
X139997000Y-82818000D01*
X141055000Y-82818000D01*
X141055000Y-82168000D01*
X141007454Y-81939258D01*
X140916196Y-81724187D01*
X140784734Y-81531052D01*
X140618119Y-81367275D01*
X140422754Y-81239150D01*
X140206147Y-81151601D01*
X140179744Y-81151197D01*
X139997000Y-81276639D01*
X139743000Y-81276639D01*
X139560256Y-81151197D01*
X139533853Y-81151601D01*
X139317246Y-81239150D01*
X139121881Y-81367275D01*
X138955266Y-81531052D01*
X138823804Y-81724187D01*
X138732546Y-81939258D01*
X138685000Y-82168000D01*
X138205000Y-82168000D01*
X138205000Y-81953288D01*
X138159461Y-81724348D01*
X138070134Y-81508692D01*
X137940450Y-81314606D01*
X137775394Y-81149550D01*
X137581308Y-81019866D01*
X137365652Y-80930539D01*
X137136712Y-80885000D01*
X136903288Y-80885000D01*
X136674348Y-80930539D01*
X136458692Y-81019866D01*
X136264606Y-81149550D01*
X136220000Y-81194156D01*
X136175394Y-81149550D01*
X135981308Y-81019866D01*
X135765652Y-80930539D01*
X135536712Y-80885000D01*
X135303288Y-80885000D01*
X135074348Y-80930539D01*
X134858692Y-81019866D01*
X134664606Y-81149550D01*
X134499550Y-81314606D01*
X134369866Y-81508692D01*
X134280539Y-81724348D01*
X134235000Y-81953288D01*
X134235000Y-82186712D01*
X134280539Y-82415652D01*
X134369866Y-82631308D01*
X134370280Y-82631928D01*
X134070000Y-82631928D01*
X133945518Y-82644188D01*
X133825820Y-82680498D01*
X133755000Y-82718353D01*
X133755000Y-82168000D01*
X133707454Y-81939258D01*
X133616196Y-81724187D01*
X133484734Y-81531052D01*
X133318119Y-81367275D01*
X133122754Y-81239150D01*
X132906147Y-81151601D01*
X132879744Y-81151197D01*
X132697000Y-81276639D01*
X132443000Y-81276639D01*
X132260256Y-81151197D01*
X132233853Y-81151601D01*
X132017246Y-81239150D01*
X131821881Y-81367275D01*
X131655266Y-81531052D01*
X131523804Y-81724187D01*
X131432546Y-81939258D01*
X131385000Y-82168000D01*
X112420000Y-82168000D01*
X112420000Y-81523715D01*
X112492986Y-81637408D01*
X112641609Y-81791587D01*
X112817455Y-81913809D01*
X113013767Y-81999376D01*
X113223000Y-82045000D01*
X113623000Y-82045000D01*
X113623000Y-81087000D01*
X113877000Y-81087000D01*
X113877000Y-82045000D01*
X114277000Y-82045000D01*
X114486233Y-81999376D01*
X114682545Y-81913809D01*
X114858391Y-81791587D01*
X115007014Y-81637408D01*
X115122702Y-81457197D01*
X115194408Y-81254001D01*
X115335592Y-81254001D01*
X115407298Y-81457197D01*
X115522986Y-81637408D01*
X115671609Y-81791587D01*
X115847455Y-81913809D01*
X116043767Y-81999376D01*
X116253000Y-82045000D01*
X117003000Y-82045000D01*
X117003000Y-81087000D01*
X117257000Y-81087000D01*
X117257000Y-82045000D01*
X118007000Y-82045000D01*
X118216233Y-81999376D01*
X118412545Y-81913809D01*
X118588391Y-81791587D01*
X118737014Y-81637408D01*
X118852702Y-81457197D01*
X118924408Y-81254001D01*
X118797502Y-81087000D01*
X117257000Y-81087000D01*
X117003000Y-81087000D01*
X115462498Y-81087000D01*
X115335592Y-81254001D01*
X115194408Y-81254001D01*
X115067502Y-81087000D01*
X113877000Y-81087000D01*
X113623000Y-81087000D01*
X113603000Y-81087000D01*
X113603000Y-80833000D01*
X113623000Y-80833000D01*
X113623000Y-79875000D01*
X113877000Y-79875000D01*
X113877000Y-80833000D01*
X115067502Y-80833000D01*
X115194408Y-80665999D01*
X115122702Y-80462803D01*
X115007014Y-80282592D01*
X114858391Y-80128413D01*
X114682545Y-80006191D01*
X114486233Y-79920624D01*
X114277000Y-79875000D01*
X113877000Y-79875000D01*
X113623000Y-79875000D01*
X113223000Y-79875000D01*
X113013767Y-79920624D01*
X112817455Y-80006191D01*
X112641609Y-80128413D01*
X112492986Y-80282592D01*
X112420000Y-80396285D01*
X112420000Y-77945000D01*
X112436928Y-77945000D01*
X112449188Y-78069482D01*
X112485498Y-78189180D01*
X112544463Y-78299494D01*
X112623815Y-78396185D01*
X112720506Y-78475537D01*
X112830820Y-78534502D01*
X112950518Y-78570812D01*
X113075000Y-78583072D01*
X113226750Y-78580000D01*
X113385500Y-78421250D01*
X113385500Y-77597000D01*
X112598750Y-77597000D01*
X112440000Y-77755750D01*
X112436928Y-77945000D01*
X112420000Y-77945000D01*
X112420000Y-76192500D01*
X112436928Y-76192500D01*
X112449188Y-76316982D01*
X112485498Y-76436680D01*
X112544463Y-76546994D01*
X112582835Y-76593750D01*
X112544463Y-76640506D01*
X112485498Y-76750820D01*
X112449188Y-76870518D01*
X112436928Y-76995000D01*
X112440000Y-77184250D01*
X112598750Y-77343000D01*
X113385500Y-77343000D01*
X113385500Y-75844500D01*
X112598750Y-75844500D01*
X112440000Y-76003250D01*
X112436928Y-76192500D01*
X112420000Y-76192500D01*
X112420000Y-75242500D01*
X112436928Y-75242500D01*
X112440000Y-75431750D01*
X112598750Y-75590500D01*
X113385500Y-75590500D01*
X113385500Y-74766250D01*
X113639500Y-74766250D01*
X113639500Y-75590500D01*
X113659500Y-75590500D01*
X113659500Y-75844500D01*
X113639500Y-75844500D01*
X113639500Y-77343000D01*
X113659500Y-77343000D01*
X113659500Y-77597000D01*
X113639500Y-77597000D01*
X113639500Y-78421250D01*
X113798250Y-78580000D01*
X113950000Y-78583072D01*
X114074482Y-78570812D01*
X114194180Y-78534502D01*
X114304494Y-78475537D01*
X114371070Y-78420900D01*
X114392725Y-78438671D01*
X114540858Y-78517850D01*
X114701592Y-78566608D01*
X114868750Y-78583072D01*
X115174499Y-78583072D01*
X115200545Y-78596994D01*
X115235253Y-78615546D01*
X115378514Y-78659003D01*
X115490167Y-78670000D01*
X115490177Y-78670000D01*
X115527500Y-78673676D01*
X115564823Y-78670000D01*
X115775000Y-78670000D01*
X115775000Y-78857014D01*
X115812853Y-79047314D01*
X115870109Y-79185542D01*
X115815411Y-79314384D01*
X115775890Y-79504344D01*
X115774187Y-79698364D01*
X115810368Y-79888989D01*
X115856178Y-80002389D01*
X115847455Y-80006191D01*
X115671609Y-80128413D01*
X115522986Y-80282592D01*
X115407298Y-80462803D01*
X115335592Y-80665999D01*
X115462498Y-80833000D01*
X117003000Y-80833000D01*
X117003000Y-80566463D01*
X117038989Y-80559632D01*
X117218893Y-80486957D01*
X117234216Y-80478767D01*
X117250912Y-80280520D01*
X117257000Y-80286608D01*
X117257000Y-80833000D01*
X118797502Y-80833000D01*
X118924408Y-80665999D01*
X118852702Y-80462803D01*
X118737014Y-80282592D01*
X118588391Y-80128413D01*
X118412545Y-80006191D01*
X118260170Y-79939775D01*
X118110000Y-79789605D01*
X118095858Y-79803748D01*
X118037110Y-79745000D01*
X118207014Y-79745000D01*
X118388504Y-79708899D01*
X118780517Y-80100912D01*
X118978767Y-80084216D01*
X119054589Y-79905616D01*
X119094110Y-79715656D01*
X119095813Y-79521636D01*
X119059632Y-79331011D01*
X119000385Y-79184349D01*
X119057147Y-79047314D01*
X119095000Y-78857014D01*
X119095000Y-78662986D01*
X119057147Y-78472686D01*
X119000116Y-78335000D01*
X119053883Y-78205194D01*
X119078102Y-78215226D01*
X119278061Y-78255000D01*
X119481939Y-78255000D01*
X119681898Y-78215226D01*
X119870256Y-78137205D01*
X120039774Y-78023937D01*
X120183937Y-77879774D01*
X120297205Y-77710256D01*
X120375226Y-77521898D01*
X120415000Y-77321939D01*
X120415000Y-77118061D01*
X120375226Y-76918102D01*
X120297205Y-76729744D01*
X120286519Y-76713750D01*
X122114428Y-76713750D01*
X122114428Y-77226250D01*
X122130892Y-77393408D01*
X122179650Y-77554142D01*
X122258829Y-77702275D01*
X122365385Y-77832115D01*
X122430001Y-77885143D01*
X122430001Y-78145821D01*
X122426324Y-78183153D01*
X122430001Y-78220486D01*
X122440998Y-78332139D01*
X122451567Y-78366982D01*
X122484454Y-78475399D01*
X122555026Y-78607429D01*
X122609394Y-78673676D01*
X122650000Y-78723154D01*
X122678998Y-78746952D01*
X122711847Y-78779801D01*
X122711847Y-78841939D01*
X122751621Y-79041898D01*
X122829642Y-79230256D01*
X122942910Y-79399774D01*
X123087073Y-79543937D01*
X123256591Y-79657205D01*
X123444949Y-79735226D01*
X123644908Y-79775000D01*
X123790618Y-79775000D01*
X123714774Y-79958102D01*
X123675000Y-80158061D01*
X123675000Y-80361939D01*
X123714774Y-80561898D01*
X123792795Y-80750256D01*
X123906063Y-80919774D01*
X124050226Y-81063937D01*
X124219744Y-81177205D01*
X124408102Y-81255226D01*
X124608061Y-81295000D01*
X124811939Y-81295000D01*
X125011898Y-81255226D01*
X125200256Y-81177205D01*
X125369774Y-81063937D01*
X125413711Y-81020000D01*
X125637148Y-81020000D01*
X125667875Y-81057441D01*
X125797715Y-81163997D01*
X125945848Y-81243176D01*
X126106582Y-81291934D01*
X126273740Y-81308398D01*
X126786240Y-81308398D01*
X126953398Y-81291934D01*
X127114132Y-81243176D01*
X127262265Y-81163997D01*
X127392105Y-81057441D01*
X127422832Y-81020000D01*
X129020807Y-81020000D01*
X129122438Y-81074323D01*
X129283172Y-81123081D01*
X129450330Y-81139545D01*
X129617488Y-81123081D01*
X129778222Y-81074323D01*
X129926355Y-80995144D01*
X130056195Y-80888588D01*
X130418588Y-80526195D01*
X130525144Y-80396355D01*
X130604323Y-80248222D01*
X130653081Y-80087488D01*
X130669545Y-79920330D01*
X130653081Y-79753172D01*
X130604323Y-79592438D01*
X130525144Y-79444305D01*
X130418588Y-79314465D01*
X130300000Y-79195877D01*
X130300000Y-78673711D01*
X130343937Y-78629774D01*
X130457205Y-78460256D01*
X130535226Y-78271898D01*
X130575000Y-78071939D01*
X130575000Y-77868061D01*
X130565863Y-77822125D01*
X130614615Y-77782115D01*
X130721171Y-77652275D01*
X130800350Y-77504142D01*
X130849108Y-77343408D01*
X130865572Y-77176250D01*
X130865572Y-76663750D01*
X130849108Y-76496592D01*
X130800350Y-76335858D01*
X130721171Y-76187725D01*
X130614615Y-76057885D01*
X130484775Y-75951329D01*
X130336642Y-75872150D01*
X130175908Y-75823392D01*
X130076336Y-75813585D01*
X130030256Y-75782795D01*
X129841898Y-75704774D01*
X129641939Y-75665000D01*
X129438061Y-75665000D01*
X129342435Y-75684021D01*
X129245594Y-75587180D01*
X129470097Y-75587180D01*
X129579573Y-75482049D01*
X129658926Y-75385357D01*
X129717890Y-75275043D01*
X129754199Y-75155345D01*
X129762641Y-75069633D01*
X129790522Y-75066887D01*
X129951256Y-75018129D01*
X130099389Y-74938950D01*
X130229229Y-74832394D01*
X130538588Y-74523035D01*
X130645144Y-74393195D01*
X130724323Y-74245062D01*
X130773081Y-74084328D01*
X130789545Y-73917170D01*
X130773081Y-73750012D01*
X130724323Y-73589278D01*
X130645144Y-73441145D01*
X130538588Y-73311305D01*
X130176195Y-72948912D01*
X130046355Y-72842356D01*
X129898222Y-72763177D01*
X129737488Y-72714419D01*
X129570330Y-72697955D01*
X129403172Y-72714419D01*
X129242438Y-72763177D01*
X129094305Y-72842356D01*
X129024065Y-72900000D01*
X128973711Y-72900000D01*
X128929774Y-72856063D01*
X128760256Y-72742795D01*
X128571898Y-72664774D01*
X128371939Y-72625000D01*
X128168061Y-72625000D01*
X127968102Y-72664774D01*
X127779744Y-72742795D01*
X127610226Y-72856063D01*
X127479954Y-72986335D01*
X127468671Y-72965225D01*
X127362115Y-72835385D01*
X127232275Y-72728829D01*
X127084142Y-72649650D01*
X126923408Y-72600892D01*
X126756250Y-72584428D01*
X126243750Y-72584428D01*
X126076592Y-72600892D01*
X125915858Y-72649650D01*
X125767725Y-72728829D01*
X125637885Y-72835385D01*
X125624938Y-72851161D01*
X125462756Y-72742795D01*
X125274398Y-72664774D01*
X125074439Y-72625000D01*
X124870561Y-72625000D01*
X124670602Y-72664774D01*
X124482244Y-72742795D01*
X124312726Y-72856063D01*
X124268789Y-72900000D01*
X123975935Y-72900000D01*
X123905695Y-72842356D01*
X123757562Y-72763177D01*
X123596828Y-72714419D01*
X123429670Y-72697955D01*
X123262512Y-72714419D01*
X123101778Y-72763177D01*
X122953645Y-72842356D01*
X122823805Y-72948912D01*
X122461412Y-73311305D01*
X122354856Y-73441145D01*
X122275677Y-73589278D01*
X122226919Y-73750012D01*
X122210455Y-73917170D01*
X122226919Y-74084328D01*
X122275677Y-74245062D01*
X122354856Y-74393195D01*
X122461412Y-74523035D01*
X122770771Y-74832394D01*
X122900611Y-74938950D01*
X123048744Y-75018129D01*
X123209478Y-75066887D01*
X123237359Y-75069633D01*
X123245801Y-75155345D01*
X123282110Y-75275043D01*
X123341074Y-75385357D01*
X123420427Y-75482049D01*
X123529903Y-75587180D01*
X123754409Y-75587180D01*
X124337242Y-75004347D01*
X124323100Y-74990205D01*
X124502705Y-74810600D01*
X124516847Y-74824742D01*
X124530990Y-74810600D01*
X124710595Y-74990205D01*
X124696452Y-75004347D01*
X124710595Y-75018490D01*
X124530990Y-75198095D01*
X124516847Y-75183952D01*
X123934014Y-75766785D01*
X123934014Y-75991291D01*
X123936792Y-75994183D01*
X123906430Y-76019100D01*
X123884775Y-76001329D01*
X123736642Y-75922150D01*
X123575908Y-75873392D01*
X123408750Y-75856928D01*
X122971250Y-75856928D01*
X122804092Y-75873392D01*
X122643358Y-75922150D01*
X122495225Y-76001329D01*
X122365385Y-76107885D01*
X122258829Y-76237725D01*
X122179650Y-76385858D01*
X122130892Y-76546592D01*
X122114428Y-76713750D01*
X120286519Y-76713750D01*
X120200490Y-76585000D01*
X120297205Y-76440256D01*
X120375226Y-76251898D01*
X120415000Y-76051939D01*
X120415000Y-75848061D01*
X120375226Y-75648102D01*
X120297205Y-75459744D01*
X120183937Y-75290226D01*
X120039774Y-75146063D01*
X119870256Y-75032795D01*
X119681898Y-74954774D01*
X119545001Y-74927544D01*
X119545001Y-72156294D01*
X119548677Y-72118971D01*
X119545001Y-72081648D01*
X119545001Y-72081639D01*
X119534004Y-71969986D01*
X119490547Y-71826725D01*
X119419975Y-71694696D01*
X119325002Y-71578971D01*
X119296003Y-71555172D01*
X118764822Y-71023992D01*
X118741020Y-70994989D01*
X118625295Y-70900016D01*
X118493266Y-70829444D01*
X118350005Y-70785987D01*
X118238352Y-70774990D01*
X118238341Y-70774990D01*
X118201019Y-70771314D01*
X118163697Y-70774990D01*
X116096314Y-70774990D01*
X116058981Y-70771313D01*
X116021648Y-70774990D01*
X115909995Y-70785987D01*
X115766734Y-70829444D01*
X115634705Y-70900016D01*
X115518980Y-70994989D01*
X115495182Y-71023987D01*
X114947901Y-71571269D01*
X114858391Y-71478413D01*
X114682545Y-71356191D01*
X114486233Y-71270624D01*
X114277000Y-71225000D01*
X113877000Y-71225000D01*
X113877000Y-72183000D01*
X113897000Y-72183000D01*
X113897000Y-72437000D01*
X113877000Y-72437000D01*
X113877000Y-73395000D01*
X114277000Y-73395000D01*
X114327500Y-73383988D01*
X114327501Y-74730844D01*
X114304494Y-74711963D01*
X114194180Y-74652998D01*
X114074482Y-74616688D01*
X113950000Y-74604428D01*
X113798250Y-74607500D01*
X113639500Y-74766250D01*
X113385500Y-74766250D01*
X113226750Y-74607500D01*
X113075000Y-74604428D01*
X112950518Y-74616688D01*
X112830820Y-74652998D01*
X112720506Y-74711963D01*
X112623815Y-74791315D01*
X112544463Y-74888006D01*
X112485498Y-74998320D01*
X112449188Y-75118018D01*
X112436928Y-75242500D01*
X112420000Y-75242500D01*
X112420000Y-72873715D01*
X112492986Y-72987408D01*
X112641609Y-73141587D01*
X112817455Y-73263809D01*
X113013767Y-73349376D01*
X113223000Y-73395000D01*
X113623000Y-73395000D01*
X113623000Y-72437000D01*
X113603000Y-72437000D01*
X113603000Y-72183000D01*
X113623000Y-72183000D01*
X113623000Y-71225000D01*
X113223000Y-71225000D01*
X113013767Y-71270624D01*
X112817455Y-71356191D01*
X112641609Y-71478413D01*
X112492986Y-71632592D01*
X112420000Y-71746285D01*
X112420000Y-70555000D01*
X120806928Y-70555000D01*
X120819188Y-70679482D01*
X120855498Y-70799180D01*
X120914463Y-70909494D01*
X120993815Y-71006185D01*
X121090506Y-71085537D01*
X121200820Y-71144502D01*
X121320518Y-71180812D01*
X121445000Y-71193072D01*
X121634250Y-71190000D01*
X121793000Y-71031250D01*
X121793000Y-70244500D01*
X122047000Y-70244500D01*
X122047000Y-71031250D01*
X122205750Y-71190000D01*
X122395000Y-71193072D01*
X122519482Y-71180812D01*
X122639180Y-71144502D01*
X122749494Y-71085537D01*
X122846185Y-71006185D01*
X122925537Y-70909494D01*
X122984502Y-70799180D01*
X123020812Y-70679482D01*
X123023223Y-70655000D01*
X123106928Y-70655000D01*
X123119188Y-70779482D01*
X123155498Y-70899180D01*
X123214463Y-71009494D01*
X123293815Y-71106185D01*
X123390506Y-71185537D01*
X123500820Y-71244502D01*
X123620518Y-71280812D01*
X123745000Y-71293072D01*
X123934250Y-71290000D01*
X124093000Y-71131250D01*
X124093000Y-70344500D01*
X124347000Y-70344500D01*
X124347000Y-71131250D01*
X124505750Y-71290000D01*
X124695000Y-71293072D01*
X124819482Y-71280812D01*
X124939180Y-71244502D01*
X125049494Y-71185537D01*
X125146185Y-71106185D01*
X125225537Y-71009494D01*
X125284502Y-70899180D01*
X125320812Y-70779482D01*
X125333072Y-70655000D01*
X125330000Y-70503250D01*
X125171250Y-70344500D01*
X124347000Y-70344500D01*
X124093000Y-70344500D01*
X123268750Y-70344500D01*
X123110000Y-70503250D01*
X123106928Y-70655000D01*
X123023223Y-70655000D01*
X123033072Y-70555000D01*
X123030000Y-70403250D01*
X122871250Y-70244500D01*
X122047000Y-70244500D01*
X121793000Y-70244500D01*
X120968750Y-70244500D01*
X120810000Y-70403250D01*
X120806928Y-70555000D01*
X112420000Y-70555000D01*
X112420000Y-68323750D01*
X120806928Y-68323750D01*
X120806928Y-68761250D01*
X120823392Y-68928408D01*
X120872150Y-69089142D01*
X120951329Y-69237275D01*
X120969100Y-69258930D01*
X120914463Y-69325506D01*
X120855498Y-69435820D01*
X120819188Y-69555518D01*
X120806928Y-69680000D01*
X120810000Y-69831750D01*
X120968750Y-69990500D01*
X121793000Y-69990500D01*
X121793000Y-69970500D01*
X122047000Y-69970500D01*
X122047000Y-69990500D01*
X122871250Y-69990500D01*
X123030000Y-69831750D01*
X123033072Y-69680000D01*
X123020812Y-69555518D01*
X123000937Y-69490000D01*
X123179990Y-69490000D01*
X123155498Y-69535820D01*
X123119188Y-69655518D01*
X123106928Y-69780000D01*
X123110000Y-69931750D01*
X123268750Y-70090500D01*
X124093000Y-70090500D01*
X124093000Y-70070500D01*
X124347000Y-70070500D01*
X124347000Y-70090500D01*
X125171250Y-70090500D01*
X125330000Y-69931750D01*
X125333072Y-69780000D01*
X125320812Y-69655518D01*
X125284502Y-69535820D01*
X125225537Y-69425506D01*
X125170900Y-69358930D01*
X125188671Y-69337275D01*
X125214203Y-69289508D01*
X125263937Y-69239774D01*
X125377205Y-69070256D01*
X125455226Y-68881898D01*
X125495000Y-68681939D01*
X125495000Y-68478061D01*
X125455226Y-68278102D01*
X125377205Y-68089744D01*
X125263937Y-67920226D01*
X125119774Y-67776063D01*
X124950256Y-67662795D01*
X124761898Y-67584774D01*
X124561939Y-67545000D01*
X124358061Y-67545000D01*
X124247821Y-67566928D01*
X123963750Y-67566928D01*
X123796592Y-67583392D01*
X123635858Y-67632150D01*
X123565046Y-67670000D01*
X122723766Y-67670000D01*
X122652275Y-67611329D01*
X122504142Y-67532150D01*
X122343408Y-67483392D01*
X122176250Y-67466928D01*
X121663750Y-67466928D01*
X121496592Y-67483392D01*
X121335858Y-67532150D01*
X121187725Y-67611329D01*
X121057885Y-67717885D01*
X120951329Y-67847725D01*
X120872150Y-67995858D01*
X120823392Y-68156592D01*
X120806928Y-68323750D01*
X112420000Y-68323750D01*
X112420000Y-66700000D01*
X133410726Y-66700000D01*
X133195271Y-66843962D01*
G36*
X124885820Y-78832002D02*
G01*
X125005518Y-78868312D01*
X125130000Y-78880572D01*
X125484016Y-78879550D01*
X125419990Y-78943576D01*
X125416918Y-79095326D01*
X125429178Y-79219808D01*
X125465488Y-79339506D01*
X125524453Y-79449820D01*
X125565635Y-79500000D01*
X125413711Y-79500000D01*
X125369774Y-79456063D01*
X125200256Y-79342795D01*
X125011898Y-79264774D01*
X124811939Y-79225000D01*
X124666229Y-79225000D01*
X124742073Y-79041898D01*
X124781847Y-78841939D01*
X124781847Y-78776426D01*
X124885820Y-78832002D01*
X124885820Y-78832002D01*
G37*
X124885820Y-78832002D02*
X125005518Y-78868312D01*
X125130000Y-78880572D01*
X125484016Y-78879550D01*
X125419990Y-78943576D01*
X125416918Y-79095326D01*
X125429178Y-79219808D01*
X125465488Y-79339506D01*
X125524453Y-79449820D01*
X125565635Y-79500000D01*
X125413711Y-79500000D01*
X125369774Y-79456063D01*
X125200256Y-79342795D01*
X125011898Y-79264774D01*
X124811939Y-79225000D01*
X124666229Y-79225000D01*
X124742073Y-79041898D01*
X124781847Y-78841939D01*
X124781847Y-78776426D01*
X124885820Y-78832002D01*
G36*
X128556901Y-78819011D02*
G01*
X128542758Y-78833153D01*
X128556901Y-78847296D01*
X128377296Y-79026901D01*
X128363153Y-79012758D01*
X128349011Y-79026901D01*
X128169406Y-78847296D01*
X128183548Y-78833153D01*
X128169406Y-78819011D01*
X128349011Y-78639406D01*
X128363153Y-78653548D01*
X128377296Y-78639406D01*
X128556901Y-78819011D01*
X128556901Y-78819011D01*
G37*
X128556901Y-78819011D02*
X128542758Y-78833153D01*
X128556901Y-78847296D01*
X128377296Y-79026901D01*
X128363153Y-79012758D01*
X128349011Y-79026901D01*
X128169406Y-78847296D01*
X128183548Y-78833153D01*
X128169406Y-78819011D01*
X128349011Y-78639406D01*
X128363153Y-78653548D01*
X128377296Y-78639406D01*
X128556901Y-78819011D01*
G36*
X126627000Y-76831610D02*
G01*
X126627000Y-76953390D01*
X126540890Y-77039500D01*
X126419110Y-77039500D01*
X126333000Y-76953390D01*
X126333000Y-76831610D01*
X126419110Y-76745500D01*
X126540890Y-76745500D01*
X126627000Y-76831610D01*
X126627000Y-76831610D01*
G37*
X126627000Y-76831610D02*
X126627000Y-76953390D01*
X126540890Y-77039500D01*
X126419110Y-77039500D01*
X126333000Y-76953390D01*
X126333000Y-76831610D01*
X126419110Y-76745500D01*
X126540890Y-76745500D01*
X126627000Y-76831610D01*
G36*
X128676901Y-74990205D02*
G01*
X128662758Y-75004347D01*
X128676901Y-75018490D01*
X128497296Y-75198095D01*
X128483153Y-75183952D01*
X128469011Y-75198095D01*
X128289406Y-75018490D01*
X128303548Y-75004347D01*
X128289406Y-74990205D01*
X128469011Y-74810600D01*
X128483153Y-74824742D01*
X128497296Y-74810600D01*
X128676901Y-74990205D01*
X128676901Y-74990205D01*
G37*
X128676901Y-74990205D02*
X128662758Y-75004347D01*
X128676901Y-75018490D01*
X128497296Y-75198095D01*
X128483153Y-75183952D01*
X128469011Y-75198095D01*
X128289406Y-75018490D01*
X128303548Y-75004347D01*
X128289406Y-74990205D01*
X128469011Y-74810600D01*
X128483153Y-74824742D01*
X128497296Y-74810600D01*
X128676901Y-74990205D01*
G36*
X116774143Y-79803748D02*
G01*
X116760000Y-79789605D01*
X116745858Y-79803748D01*
X116687110Y-79745000D01*
X116832890Y-79745000D01*
X116774143Y-79803748D01*
X116774143Y-79803748D01*
G37*
X116774143Y-79803748D02*
X116760000Y-79789605D01*
X116745858Y-79803748D01*
X116687110Y-79745000D01*
X116832890Y-79745000D01*
X116774143Y-79803748D01*
G36*
X116832890Y-73525000D02*
G01*
X116687110Y-73525000D01*
X116745858Y-73466253D01*
X116760000Y-73480395D01*
X116774143Y-73466253D01*
X116832890Y-73525000D01*
X116832890Y-73525000D01*
G37*
X116832890Y-73525000D02*
X116687110Y-73525000D01*
X116745858Y-73466253D01*
X116760000Y-73480395D01*
X116774143Y-73466253D01*
X116832890Y-73525000D01*
G36*
X117277000Y-72437000D02*
G01*
X117257000Y-72437000D01*
X117257000Y-72983392D01*
X117250912Y-72989480D01*
X117234216Y-72791233D01*
X117055616Y-72715411D01*
X117003000Y-72704464D01*
X117003000Y-72437000D01*
X116983000Y-72437000D01*
X116983000Y-72294990D01*
X117277000Y-72294990D01*
X117277000Y-72437000D01*
X117277000Y-72437000D01*
G37*
X117277000Y-72437000D02*
X117257000Y-72437000D01*
X117257000Y-72983392D01*
X117250912Y-72989480D01*
X117234216Y-72791233D01*
X117055616Y-72715411D01*
X117003000Y-72704464D01*
X117003000Y-72437000D01*
X116983000Y-72437000D01*
X116983000Y-72294990D01*
X117277000Y-72294990D01*
X117277000Y-72437000D01*
M02*
