G04 #@! TF.GenerationSoftware,KiCad,Pcbnew,(5.1.2)-1*
G04 #@! TF.CreationDate,2019-06-17T23:04:49-04:00*
G04 #@! TF.ProjectId,REV Type-C V2,52455620-5479-4706-952d-432056322e6b,rev?*
G04 #@! TF.SameCoordinates,Original*
G04 #@! TF.FileFunction,Soldermask,Bot*
G04 #@! TF.FilePolarity,Negative*
%FSLAX46Y46*%
G04 Gerber Fmt 4.6, Leading zero omitted, Abs format (unit mm)*
G04 Created by KiCad (PCBNEW (5.1.2)-1) date 2019-06-17 23:04:49*
%MOMM*%
%LPD*%
G04 APERTURE LIST*
%ADD10C,0.050000*%
%ADD11C,0.100000*%
G04 APERTURE END LIST*
D10*
X55880000Y-22860000D02*
X95250000Y-22860000D01*
X57150000Y-44450000D02*
X95250000Y-44450000D01*
X53340000Y-44450000D02*
X57150000Y-44450000D01*
X53340000Y-22860000D02*
X55880000Y-22860000D01*
X53340000Y-25400000D02*
X53340000Y-22860000D01*
X55880000Y-25400000D02*
X53340000Y-25400000D01*
X55880000Y-39370000D02*
X55880000Y-25400000D01*
X53340000Y-39370000D02*
X55880000Y-39370000D01*
X53340000Y-44450000D02*
X53340000Y-39370000D01*
X102870000Y-44450000D02*
X95250000Y-44450000D01*
X102870000Y-22860000D02*
X102870000Y-44450000D01*
X95250000Y-22860000D02*
X102870000Y-22860000D01*
D11*
G36*
X99435256Y-40301298D02*
G01*
X99541579Y-40322447D01*
X99842042Y-40446903D01*
X100112451Y-40627585D01*
X100342415Y-40857549D01*
X100523097Y-41127958D01*
X100647553Y-41428421D01*
X100711000Y-41747391D01*
X100711000Y-42072609D01*
X100647553Y-42391579D01*
X100523097Y-42692042D01*
X100342415Y-42962451D01*
X100112451Y-43192415D01*
X99842042Y-43373097D01*
X99541579Y-43497553D01*
X99435256Y-43518702D01*
X99222611Y-43561000D01*
X98897389Y-43561000D01*
X98684744Y-43518702D01*
X98578421Y-43497553D01*
X98277958Y-43373097D01*
X98007549Y-43192415D01*
X97777585Y-42962451D01*
X97596903Y-42692042D01*
X97472447Y-42391579D01*
X97409000Y-42072609D01*
X97409000Y-41747391D01*
X97472447Y-41428421D01*
X97596903Y-41127958D01*
X97777585Y-40857549D01*
X98007549Y-40627585D01*
X98277958Y-40446903D01*
X98578421Y-40322447D01*
X98684744Y-40301298D01*
X98897389Y-40259000D01*
X99222611Y-40259000D01*
X99435256Y-40301298D01*
X99435256Y-40301298D01*
G37*
G36*
X56255256Y-40301298D02*
G01*
X56361579Y-40322447D01*
X56662042Y-40446903D01*
X56932451Y-40627585D01*
X57162415Y-40857549D01*
X57343097Y-41127958D01*
X57467553Y-41428421D01*
X57531000Y-41747391D01*
X57531000Y-42072609D01*
X57467553Y-42391579D01*
X57343097Y-42692042D01*
X57162415Y-42962451D01*
X56932451Y-43192415D01*
X56662042Y-43373097D01*
X56361579Y-43497553D01*
X56255256Y-43518702D01*
X56042611Y-43561000D01*
X55717389Y-43561000D01*
X55504744Y-43518702D01*
X55398421Y-43497553D01*
X55097958Y-43373097D01*
X54827549Y-43192415D01*
X54597585Y-42962451D01*
X54416903Y-42692042D01*
X54292447Y-42391579D01*
X54229000Y-42072609D01*
X54229000Y-41747391D01*
X54292447Y-41428421D01*
X54416903Y-41127958D01*
X54597585Y-40857549D01*
X54827549Y-40627585D01*
X55097958Y-40446903D01*
X55398421Y-40322447D01*
X55504744Y-40301298D01*
X55717389Y-40259000D01*
X56042611Y-40259000D01*
X56255256Y-40301298D01*
X56255256Y-40301298D01*
G37*
G36*
X93182585Y-37108802D02*
G01*
X93332410Y-37138604D01*
X93614674Y-37255521D01*
X93868705Y-37425259D01*
X94084741Y-37641295D01*
X94254479Y-37895326D01*
X94371396Y-38177590D01*
X94395648Y-38299515D01*
X94431000Y-38477239D01*
X94431000Y-38782761D01*
X94425171Y-38812063D01*
X94371396Y-39082410D01*
X94254479Y-39364674D01*
X94084741Y-39618705D01*
X93868705Y-39834741D01*
X93614674Y-40004479D01*
X93332410Y-40121396D01*
X93182585Y-40151198D01*
X93032761Y-40181000D01*
X92727239Y-40181000D01*
X92577415Y-40151198D01*
X92427590Y-40121396D01*
X92145326Y-40004479D01*
X91891295Y-39834741D01*
X91675259Y-39618705D01*
X91505521Y-39364674D01*
X91388604Y-39082410D01*
X91334829Y-38812063D01*
X91329000Y-38782761D01*
X91329000Y-38477239D01*
X91364352Y-38299515D01*
X91388604Y-38177590D01*
X91505521Y-37895326D01*
X91675259Y-37641295D01*
X91891295Y-37425259D01*
X92145326Y-37255521D01*
X92427590Y-37138604D01*
X92577415Y-37108802D01*
X92727239Y-37079000D01*
X93032761Y-37079000D01*
X93182585Y-37108802D01*
X93182585Y-37108802D01*
G37*
G36*
X82061000Y-38647974D02*
G01*
X82063402Y-38672360D01*
X82070515Y-38695809D01*
X82082066Y-38717420D01*
X82097611Y-38736362D01*
X82116553Y-38751907D01*
X82138164Y-38763458D01*
X82161613Y-38770571D01*
X82173747Y-38772371D01*
X82227818Y-38777696D01*
X82341105Y-38812062D01*
X82445512Y-38867869D01*
X82537027Y-38942973D01*
X82612131Y-39034488D01*
X82667938Y-39138895D01*
X82702304Y-39252182D01*
X82713907Y-39370000D01*
X82702304Y-39487818D01*
X82667938Y-39601105D01*
X82612131Y-39705512D01*
X82537027Y-39797027D01*
X82445512Y-39872131D01*
X82341105Y-39927938D01*
X82227818Y-39962304D01*
X82139519Y-39971000D01*
X80780481Y-39971000D01*
X80692182Y-39962304D01*
X80578895Y-39927938D01*
X80474488Y-39872131D01*
X80382973Y-39797027D01*
X80307869Y-39705512D01*
X80252062Y-39601105D01*
X80217696Y-39487818D01*
X80206093Y-39370000D01*
X80217696Y-39252182D01*
X80252062Y-39138895D01*
X80307869Y-39034488D01*
X80382973Y-38942973D01*
X80474488Y-38867869D01*
X80578895Y-38812062D01*
X80692182Y-38777696D01*
X80746253Y-38772371D01*
X80770286Y-38767591D01*
X80792925Y-38758213D01*
X80813299Y-38744600D01*
X80830626Y-38727273D01*
X80844240Y-38706898D01*
X80853618Y-38684260D01*
X80858398Y-38660226D01*
X80859000Y-38647974D01*
X80859000Y-37444000D01*
X82061000Y-37444000D01*
X82061000Y-38647974D01*
X82061000Y-38647974D01*
G37*
G36*
X84896601Y-37459397D02*
G01*
X84935305Y-37467096D01*
X84967340Y-37480365D01*
X85044680Y-37512400D01*
X85143115Y-37578173D01*
X85226827Y-37661885D01*
X85292600Y-37760320D01*
X85337904Y-37869696D01*
X85361000Y-37985805D01*
X85361000Y-38104195D01*
X85337904Y-38220304D01*
X85292600Y-38329680D01*
X85226827Y-38428115D01*
X85143114Y-38511828D01*
X85100850Y-38540068D01*
X85081908Y-38555614D01*
X85066363Y-38574556D01*
X85054812Y-38596166D01*
X85047699Y-38619615D01*
X85045297Y-38644001D01*
X85047699Y-38668388D01*
X85054812Y-38691836D01*
X85066363Y-38713447D01*
X85081909Y-38732389D01*
X85100851Y-38747934D01*
X85122461Y-38759485D01*
X85145910Y-38766598D01*
X85170296Y-38769000D01*
X85439519Y-38769000D01*
X85527818Y-38777696D01*
X85641105Y-38812062D01*
X85745512Y-38867869D01*
X85837027Y-38942973D01*
X85912131Y-39034488D01*
X85967938Y-39138895D01*
X86002304Y-39252182D01*
X86013907Y-39370000D01*
X86002304Y-39487818D01*
X85967938Y-39601105D01*
X85912131Y-39705512D01*
X85837027Y-39797027D01*
X85745512Y-39872131D01*
X85641105Y-39927938D01*
X85527818Y-39962304D01*
X85439519Y-39971000D01*
X84080481Y-39971000D01*
X83992182Y-39962304D01*
X83878895Y-39927938D01*
X83774488Y-39872131D01*
X83682973Y-39797027D01*
X83607869Y-39705512D01*
X83552062Y-39601105D01*
X83517696Y-39487818D01*
X83506093Y-39370000D01*
X83517696Y-39252182D01*
X83552062Y-39138895D01*
X83607869Y-39034488D01*
X83682973Y-38942973D01*
X83774488Y-38867869D01*
X83878895Y-38812062D01*
X83992182Y-38777696D01*
X84080481Y-38769000D01*
X84349704Y-38769000D01*
X84374090Y-38766598D01*
X84397539Y-38759485D01*
X84419150Y-38747934D01*
X84438092Y-38732389D01*
X84453637Y-38713447D01*
X84465188Y-38691836D01*
X84472301Y-38668387D01*
X84474703Y-38644001D01*
X84472301Y-38619615D01*
X84465188Y-38596166D01*
X84453637Y-38574555D01*
X84438092Y-38555613D01*
X84419150Y-38540068D01*
X84376886Y-38511828D01*
X84293173Y-38428115D01*
X84227400Y-38329680D01*
X84182096Y-38220304D01*
X84159000Y-38104195D01*
X84159000Y-37985805D01*
X84182096Y-37869696D01*
X84227400Y-37760320D01*
X84293173Y-37661885D01*
X84376885Y-37578173D01*
X84475320Y-37512400D01*
X84552660Y-37480365D01*
X84584695Y-37467096D01*
X84623399Y-37459397D01*
X84700805Y-37444000D01*
X84819195Y-37444000D01*
X84896601Y-37459397D01*
X84896601Y-37459397D01*
G37*
G36*
X79977817Y-36377696D02*
G01*
X80091104Y-36412062D01*
X80195511Y-36467869D01*
X80195513Y-36467870D01*
X80195512Y-36467870D01*
X80287027Y-36542973D01*
X80350711Y-36620572D01*
X80362131Y-36634488D01*
X80417938Y-36738895D01*
X80452304Y-36852182D01*
X80461000Y-36940481D01*
X80461000Y-38299519D01*
X80452304Y-38387818D01*
X80417938Y-38501105D01*
X80362131Y-38605512D01*
X80287027Y-38697027D01*
X80195512Y-38772131D01*
X80091105Y-38827938D01*
X79977818Y-38862304D01*
X79860000Y-38873907D01*
X79742183Y-38862304D01*
X79628896Y-38827938D01*
X79524489Y-38772131D01*
X79432974Y-38697027D01*
X79357870Y-38605512D01*
X79302063Y-38501105D01*
X79267697Y-38387818D01*
X79259001Y-38299519D01*
X79259000Y-36940482D01*
X79267696Y-36852183D01*
X79302062Y-36738896D01*
X79357869Y-36634489D01*
X79408410Y-36572904D01*
X79432973Y-36542973D01*
X79524487Y-36467870D01*
X79524486Y-36467870D01*
X79524488Y-36467869D01*
X79628895Y-36412062D01*
X79742182Y-36377696D01*
X79860000Y-36366093D01*
X79977817Y-36377696D01*
X79977817Y-36377696D01*
G37*
G36*
X86477817Y-36377696D02*
G01*
X86591104Y-36412062D01*
X86695511Y-36467869D01*
X86695513Y-36467870D01*
X86695512Y-36467870D01*
X86787027Y-36542973D01*
X86850711Y-36620572D01*
X86862131Y-36634488D01*
X86917938Y-36738895D01*
X86952304Y-36852182D01*
X86961000Y-36940481D01*
X86961000Y-38299519D01*
X86952304Y-38387818D01*
X86917938Y-38501105D01*
X86862131Y-38605512D01*
X86787027Y-38697027D01*
X86695512Y-38772131D01*
X86591105Y-38827938D01*
X86477818Y-38862304D01*
X86360000Y-38873907D01*
X86242183Y-38862304D01*
X86128896Y-38827938D01*
X86024489Y-38772131D01*
X85932974Y-38697027D01*
X85857870Y-38605512D01*
X85802063Y-38501105D01*
X85767697Y-38387818D01*
X85759001Y-38299519D01*
X85759000Y-36940482D01*
X85767696Y-36852183D01*
X85802062Y-36738896D01*
X85857869Y-36634489D01*
X85908410Y-36572904D01*
X85932973Y-36542973D01*
X86024487Y-36467870D01*
X86024486Y-36467870D01*
X86024488Y-36467869D01*
X86128895Y-36412062D01*
X86242182Y-36377696D01*
X86360000Y-36366093D01*
X86477817Y-36377696D01*
X86477817Y-36377696D01*
G37*
G36*
X72696564Y-36809338D02*
G01*
X72887833Y-36888564D01*
X72887835Y-36888565D01*
X72965540Y-36940486D01*
X73059973Y-37003584D01*
X73206365Y-37149976D01*
X73321385Y-37322116D01*
X73400611Y-37513385D01*
X73441000Y-37716433D01*
X73441000Y-37923465D01*
X73400611Y-38126513D01*
X73361761Y-38220305D01*
X73321384Y-38317784D01*
X73206365Y-38489922D01*
X73059973Y-38636314D01*
X72887835Y-38751333D01*
X72887834Y-38751334D01*
X72887833Y-38751334D01*
X72696564Y-38830560D01*
X72493516Y-38870949D01*
X72286484Y-38870949D01*
X72083436Y-38830560D01*
X71892167Y-38751334D01*
X71892166Y-38751334D01*
X71892165Y-38751333D01*
X71720027Y-38636314D01*
X71573635Y-38489922D01*
X71458616Y-38317784D01*
X71418239Y-38220305D01*
X71379389Y-38126513D01*
X71339000Y-37923465D01*
X71339000Y-37716433D01*
X71379389Y-37513385D01*
X71458615Y-37322116D01*
X71573635Y-37149976D01*
X71720027Y-37003584D01*
X71814460Y-36940486D01*
X71892165Y-36888565D01*
X71892167Y-36888564D01*
X72083436Y-36809338D01*
X72286484Y-36768949D01*
X72493516Y-36768949D01*
X72696564Y-36809338D01*
X72696564Y-36809338D01*
G37*
G36*
X83246601Y-37459397D02*
G01*
X83285305Y-37467096D01*
X83317340Y-37480365D01*
X83394680Y-37512400D01*
X83493115Y-37578173D01*
X83576827Y-37661885D01*
X83642600Y-37760320D01*
X83687904Y-37869696D01*
X83711000Y-37985805D01*
X83711000Y-38104195D01*
X83687904Y-38220304D01*
X83642600Y-38329680D01*
X83576827Y-38428115D01*
X83493115Y-38511827D01*
X83394680Y-38577600D01*
X83317340Y-38609635D01*
X83285305Y-38622904D01*
X83246601Y-38630603D01*
X83169195Y-38646000D01*
X83050805Y-38646000D01*
X82973399Y-38630603D01*
X82934695Y-38622904D01*
X82902660Y-38609635D01*
X82825320Y-38577600D01*
X82726885Y-38511827D01*
X82643173Y-38428115D01*
X82577400Y-38329680D01*
X82532096Y-38220304D01*
X82509000Y-38104195D01*
X82509000Y-37985805D01*
X82532096Y-37869696D01*
X82577400Y-37760320D01*
X82643173Y-37661885D01*
X82726885Y-37578173D01*
X82825320Y-37512400D01*
X82902660Y-37480365D01*
X82934695Y-37467096D01*
X82973399Y-37459397D01*
X83050805Y-37444000D01*
X83169195Y-37444000D01*
X83246601Y-37459397D01*
X83246601Y-37459397D01*
G37*
G36*
X58368213Y-36016249D02*
G01*
X58462652Y-36044897D01*
X58549687Y-36091418D01*
X58625975Y-36154025D01*
X58688582Y-36230313D01*
X58735103Y-36317348D01*
X58763751Y-36411787D01*
X58773424Y-36510000D01*
X58763751Y-36608213D01*
X58735103Y-36702652D01*
X58688582Y-36789687D01*
X58625975Y-36865975D01*
X58549687Y-36928582D01*
X58462652Y-36975103D01*
X58368213Y-37003751D01*
X58294612Y-37011000D01*
X57445388Y-37011000D01*
X57371787Y-37003751D01*
X57277348Y-36975103D01*
X57190313Y-36928582D01*
X57114025Y-36865975D01*
X57051418Y-36789687D01*
X57004897Y-36702652D01*
X56976249Y-36608213D01*
X56966576Y-36510000D01*
X56976249Y-36411787D01*
X57004897Y-36317348D01*
X57051418Y-36230313D01*
X57114025Y-36154025D01*
X57190313Y-36091418D01*
X57277348Y-36044897D01*
X57371787Y-36016249D01*
X57445388Y-36009000D01*
X58294612Y-36009000D01*
X58368213Y-36016249D01*
X58368213Y-36016249D01*
G37*
G36*
X62098213Y-36016249D02*
G01*
X62192652Y-36044897D01*
X62279687Y-36091418D01*
X62355975Y-36154025D01*
X62418582Y-36230313D01*
X62465103Y-36317348D01*
X62493751Y-36411787D01*
X62503424Y-36510000D01*
X62493751Y-36608213D01*
X62465103Y-36702652D01*
X62418582Y-36789687D01*
X62355975Y-36865975D01*
X62279687Y-36928582D01*
X62192652Y-36975103D01*
X62098213Y-37003751D01*
X62024612Y-37011000D01*
X60475388Y-37011000D01*
X60401787Y-37003751D01*
X60307348Y-36975103D01*
X60220313Y-36928582D01*
X60144025Y-36865975D01*
X60081418Y-36789687D01*
X60034897Y-36702652D01*
X60006249Y-36608213D01*
X59996576Y-36510000D01*
X60006249Y-36411787D01*
X60034897Y-36317348D01*
X60081418Y-36230313D01*
X60144025Y-36154025D01*
X60220313Y-36091418D01*
X60307348Y-36044897D01*
X60401787Y-36016249D01*
X60475388Y-36009000D01*
X62024612Y-36009000D01*
X62098213Y-36016249D01*
X62098213Y-36016249D01*
G37*
G36*
X82396601Y-35409397D02*
G01*
X82435305Y-35417096D01*
X82467340Y-35430365D01*
X82544680Y-35462400D01*
X82643115Y-35528173D01*
X82726827Y-35611885D01*
X82792600Y-35710320D01*
X82837904Y-35819696D01*
X82861000Y-35935805D01*
X82861000Y-36054195D01*
X82837904Y-36170304D01*
X82792600Y-36279680D01*
X82726827Y-36378115D01*
X82643115Y-36461827D01*
X82544680Y-36527600D01*
X82467340Y-36559635D01*
X82435305Y-36572904D01*
X82396601Y-36580603D01*
X82319195Y-36596000D01*
X82200805Y-36596000D01*
X82123399Y-36580603D01*
X82084695Y-36572904D01*
X82052660Y-36559635D01*
X81975320Y-36527600D01*
X81876885Y-36461827D01*
X81793173Y-36378115D01*
X81727400Y-36279680D01*
X81682096Y-36170304D01*
X81659000Y-36054195D01*
X81659000Y-35935805D01*
X81682096Y-35819696D01*
X81727400Y-35710320D01*
X81793173Y-35611885D01*
X81876885Y-35528173D01*
X81975320Y-35462400D01*
X82052660Y-35430365D01*
X82084695Y-35417096D01*
X82123399Y-35409397D01*
X82200805Y-35394000D01*
X82319195Y-35394000D01*
X82396601Y-35409397D01*
X82396601Y-35409397D01*
G37*
G36*
X83996601Y-35409397D02*
G01*
X84035305Y-35417096D01*
X84067340Y-35430365D01*
X84144680Y-35462400D01*
X84243115Y-35528173D01*
X84326827Y-35611885D01*
X84392600Y-35710320D01*
X84437904Y-35819696D01*
X84461000Y-35935805D01*
X84461000Y-36054195D01*
X84437904Y-36170304D01*
X84392600Y-36279680D01*
X84326827Y-36378115D01*
X84243115Y-36461827D01*
X84144680Y-36527600D01*
X84067340Y-36559635D01*
X84035305Y-36572904D01*
X83996601Y-36580603D01*
X83919195Y-36596000D01*
X83800805Y-36596000D01*
X83723399Y-36580603D01*
X83684695Y-36572904D01*
X83652660Y-36559635D01*
X83575320Y-36527600D01*
X83476885Y-36461827D01*
X83393173Y-36378115D01*
X83327400Y-36279680D01*
X83282096Y-36170304D01*
X83259000Y-36054195D01*
X83259000Y-35935805D01*
X83282096Y-35819696D01*
X83327400Y-35710320D01*
X83393173Y-35611885D01*
X83476885Y-35528173D01*
X83575320Y-35462400D01*
X83652660Y-35430365D01*
X83684695Y-35417096D01*
X83723399Y-35409397D01*
X83800805Y-35394000D01*
X83919195Y-35394000D01*
X83996601Y-35409397D01*
X83996601Y-35409397D01*
G37*
G36*
X91021000Y-36411000D02*
G01*
X89319000Y-36411000D01*
X89319000Y-34709000D01*
X91021000Y-34709000D01*
X91021000Y-36411000D01*
X91021000Y-36411000D01*
G37*
G36*
X80520721Y-35095174D02*
G01*
X80620995Y-35136709D01*
X80620996Y-35136710D01*
X80711242Y-35197010D01*
X80787990Y-35273758D01*
X80790134Y-35276967D01*
X80848291Y-35364005D01*
X80889826Y-35464279D01*
X80911000Y-35570730D01*
X80911000Y-35679270D01*
X80889826Y-35785721D01*
X80848291Y-35885995D01*
X80848290Y-35885996D01*
X80787990Y-35976242D01*
X80711242Y-36052990D01*
X80665812Y-36083345D01*
X80620995Y-36113291D01*
X80520721Y-36154826D01*
X80414270Y-36176000D01*
X80305730Y-36176000D01*
X80199279Y-36154826D01*
X80099005Y-36113291D01*
X80054188Y-36083345D01*
X80008758Y-36052990D01*
X79932010Y-35976242D01*
X79871710Y-35885996D01*
X79871709Y-35885995D01*
X79830174Y-35785721D01*
X79809000Y-35679270D01*
X79809000Y-35570730D01*
X79830174Y-35464279D01*
X79871709Y-35364005D01*
X79929866Y-35276967D01*
X79932010Y-35273758D01*
X80008758Y-35197010D01*
X80099004Y-35136710D01*
X80099005Y-35136709D01*
X80199279Y-35095174D01*
X80305730Y-35074000D01*
X80414270Y-35074000D01*
X80520721Y-35095174D01*
X80520721Y-35095174D01*
G37*
G36*
X86020721Y-35095174D02*
G01*
X86120995Y-35136709D01*
X86120996Y-35136710D01*
X86211242Y-35197010D01*
X86287990Y-35273758D01*
X86290134Y-35276967D01*
X86348291Y-35364005D01*
X86389826Y-35464279D01*
X86411000Y-35570730D01*
X86411000Y-35679270D01*
X86389826Y-35785721D01*
X86348291Y-35885995D01*
X86348290Y-35885996D01*
X86287990Y-35976242D01*
X86211242Y-36052990D01*
X86165812Y-36083345D01*
X86120995Y-36113291D01*
X86020721Y-36154826D01*
X85914270Y-36176000D01*
X85805730Y-36176000D01*
X85699279Y-36154826D01*
X85599005Y-36113291D01*
X85554188Y-36083345D01*
X85508758Y-36052990D01*
X85432010Y-35976242D01*
X85371710Y-35885996D01*
X85371709Y-35885995D01*
X85330174Y-35785721D01*
X85309000Y-35679270D01*
X85309000Y-35570730D01*
X85330174Y-35464279D01*
X85371709Y-35364005D01*
X85429866Y-35276967D01*
X85432010Y-35273758D01*
X85508758Y-35197010D01*
X85599004Y-35136710D01*
X85599005Y-35136709D01*
X85699279Y-35095174D01*
X85805730Y-35074000D01*
X85914270Y-35074000D01*
X86020721Y-35095174D01*
X86020721Y-35095174D01*
G37*
G36*
X60958231Y-28816705D02*
G01*
X60996967Y-28824410D01*
X61027195Y-28836931D01*
X61069944Y-28854638D01*
X61135622Y-28898523D01*
X61191477Y-28954378D01*
X61235362Y-29020056D01*
X61265590Y-29093034D01*
X61281000Y-29170504D01*
X61281000Y-29249496D01*
X61265590Y-29326966D01*
X61235362Y-29399944D01*
X61191477Y-29465622D01*
X61135621Y-29521478D01*
X61121270Y-29531067D01*
X61102328Y-29546613D01*
X61086783Y-29565555D01*
X61075232Y-29587165D01*
X61068119Y-29610614D01*
X61065717Y-29635001D01*
X61068119Y-29659387D01*
X61075232Y-29682836D01*
X61086783Y-29704446D01*
X61102329Y-29723388D01*
X61121270Y-29738933D01*
X61135621Y-29748522D01*
X61191477Y-29804378D01*
X61235362Y-29870056D01*
X61265590Y-29943034D01*
X61281000Y-30020504D01*
X61281000Y-30099496D01*
X61265590Y-30176966D01*
X61235362Y-30249944D01*
X61191477Y-30315622D01*
X61135621Y-30371478D01*
X61121270Y-30381067D01*
X61102328Y-30396613D01*
X61086783Y-30415555D01*
X61075232Y-30437165D01*
X61068119Y-30460614D01*
X61065717Y-30485001D01*
X61068119Y-30509387D01*
X61075232Y-30532836D01*
X61086783Y-30554446D01*
X61102329Y-30573388D01*
X61121270Y-30588933D01*
X61135621Y-30598522D01*
X61191477Y-30654378D01*
X61235362Y-30720056D01*
X61265590Y-30793034D01*
X61281000Y-30870504D01*
X61281000Y-30949496D01*
X61275691Y-30976184D01*
X61269761Y-31006000D01*
X61265590Y-31026966D01*
X61235362Y-31099944D01*
X61191477Y-31165622D01*
X61135621Y-31221478D01*
X61121270Y-31231067D01*
X61102328Y-31246613D01*
X61086783Y-31265555D01*
X61075232Y-31287165D01*
X61068119Y-31310614D01*
X61065717Y-31335001D01*
X61068119Y-31359387D01*
X61075232Y-31382836D01*
X61086783Y-31404446D01*
X61102329Y-31423388D01*
X61121270Y-31438933D01*
X61135621Y-31448522D01*
X61191477Y-31504378D01*
X61235362Y-31570056D01*
X61265590Y-31643034D01*
X61281000Y-31720504D01*
X61281000Y-31799496D01*
X61265590Y-31876966D01*
X61235362Y-31949944D01*
X61191477Y-32015622D01*
X61135621Y-32071478D01*
X61121270Y-32081067D01*
X61102328Y-32096613D01*
X61086783Y-32115555D01*
X61075232Y-32137165D01*
X61068119Y-32160614D01*
X61065717Y-32185001D01*
X61068119Y-32209387D01*
X61075232Y-32232836D01*
X61086783Y-32254446D01*
X61102329Y-32273388D01*
X61121270Y-32288933D01*
X61135621Y-32298522D01*
X61191477Y-32354378D01*
X61235362Y-32420056D01*
X61253069Y-32462805D01*
X61265590Y-32493033D01*
X61270461Y-32517520D01*
X61281000Y-32570504D01*
X61281000Y-32649496D01*
X61265590Y-32726966D01*
X61235362Y-32799944D01*
X61191477Y-32865622D01*
X61135621Y-32921478D01*
X61121270Y-32931067D01*
X61102328Y-32946613D01*
X61086783Y-32965555D01*
X61075232Y-32987165D01*
X61068119Y-33010614D01*
X61065717Y-33035001D01*
X61068119Y-33059387D01*
X61075232Y-33082836D01*
X61086783Y-33104446D01*
X61102329Y-33123388D01*
X61121270Y-33138933D01*
X61135621Y-33148522D01*
X61191477Y-33204378D01*
X61235362Y-33270056D01*
X61265590Y-33343034D01*
X61281000Y-33420504D01*
X61281000Y-33499496D01*
X61265590Y-33576966D01*
X61235362Y-33649944D01*
X61191477Y-33715622D01*
X61135621Y-33771478D01*
X61121270Y-33781067D01*
X61102328Y-33796613D01*
X61086783Y-33815555D01*
X61075232Y-33837165D01*
X61068119Y-33860614D01*
X61065717Y-33885001D01*
X61068119Y-33909387D01*
X61075232Y-33932836D01*
X61086783Y-33954446D01*
X61102329Y-33973388D01*
X61121270Y-33988933D01*
X61135621Y-33998522D01*
X61191477Y-34054378D01*
X61235362Y-34120056D01*
X61265590Y-34193034D01*
X61281000Y-34270504D01*
X61281000Y-34349496D01*
X61265590Y-34426966D01*
X61235362Y-34499944D01*
X61191477Y-34565622D01*
X61135621Y-34621478D01*
X61121270Y-34631067D01*
X61102328Y-34646613D01*
X61086783Y-34665555D01*
X61075232Y-34687165D01*
X61068119Y-34710614D01*
X61065717Y-34735001D01*
X61068119Y-34759387D01*
X61075232Y-34782836D01*
X61086783Y-34804446D01*
X61102329Y-34823388D01*
X61121270Y-34838933D01*
X61135621Y-34848522D01*
X61191477Y-34904378D01*
X61235362Y-34970056D01*
X61265590Y-35043034D01*
X61281000Y-35120504D01*
X61281000Y-35199496D01*
X61265590Y-35276966D01*
X61235362Y-35349944D01*
X61191477Y-35415622D01*
X61135622Y-35471477D01*
X61069944Y-35515362D01*
X61039015Y-35528173D01*
X60996967Y-35545590D01*
X60958231Y-35553295D01*
X60919496Y-35561000D01*
X60840504Y-35561000D01*
X60801769Y-35553295D01*
X60763033Y-35545590D01*
X60720985Y-35528173D01*
X60690056Y-35515362D01*
X60624378Y-35471477D01*
X60568523Y-35415622D01*
X60524638Y-35349944D01*
X60494410Y-35276966D01*
X60479000Y-35199496D01*
X60479000Y-35120504D01*
X60494410Y-35043034D01*
X60524638Y-34970056D01*
X60568523Y-34904378D01*
X60624379Y-34848522D01*
X60638730Y-34838933D01*
X60657672Y-34823387D01*
X60673217Y-34804445D01*
X60684768Y-34782835D01*
X60691881Y-34759386D01*
X60694283Y-34734999D01*
X60691881Y-34710613D01*
X60684768Y-34687164D01*
X60673217Y-34665554D01*
X60657671Y-34646612D01*
X60638730Y-34631067D01*
X60624379Y-34621478D01*
X60568523Y-34565622D01*
X60524638Y-34499944D01*
X60494410Y-34426966D01*
X60479000Y-34349496D01*
X60479000Y-34270504D01*
X60494410Y-34193034D01*
X60524638Y-34120056D01*
X60568523Y-34054378D01*
X60624379Y-33998522D01*
X60638730Y-33988933D01*
X60657672Y-33973387D01*
X60673217Y-33954445D01*
X60684768Y-33932835D01*
X60691881Y-33909386D01*
X60694283Y-33884999D01*
X60691881Y-33860613D01*
X60684768Y-33837164D01*
X60673217Y-33815554D01*
X60657671Y-33796612D01*
X60638730Y-33781067D01*
X60624379Y-33771478D01*
X60568523Y-33715622D01*
X60524638Y-33649944D01*
X60494410Y-33576966D01*
X60479000Y-33499496D01*
X60479000Y-33420504D01*
X60494410Y-33343034D01*
X60524638Y-33270056D01*
X60568523Y-33204378D01*
X60624379Y-33148522D01*
X60638730Y-33138933D01*
X60657672Y-33123387D01*
X60673217Y-33104445D01*
X60684768Y-33082835D01*
X60691881Y-33059386D01*
X60694283Y-33034999D01*
X60691881Y-33010613D01*
X60684768Y-32987164D01*
X60673217Y-32965554D01*
X60657671Y-32946612D01*
X60638730Y-32931067D01*
X60624379Y-32921478D01*
X60568523Y-32865622D01*
X60524638Y-32799944D01*
X60494410Y-32726966D01*
X60479000Y-32649496D01*
X60479000Y-32570504D01*
X60489539Y-32517520D01*
X60494410Y-32493033D01*
X60506931Y-32462805D01*
X60524638Y-32420056D01*
X60568523Y-32354378D01*
X60624379Y-32298522D01*
X60638730Y-32288933D01*
X60657672Y-32273387D01*
X60673217Y-32254445D01*
X60684768Y-32232835D01*
X60691881Y-32209386D01*
X60694283Y-32184999D01*
X60691881Y-32160613D01*
X60684768Y-32137164D01*
X60673217Y-32115554D01*
X60657671Y-32096612D01*
X60638730Y-32081067D01*
X60624379Y-32071478D01*
X60568523Y-32015622D01*
X60524638Y-31949944D01*
X60494410Y-31876966D01*
X60479000Y-31799496D01*
X60479000Y-31720504D01*
X60494410Y-31643034D01*
X60524638Y-31570056D01*
X60568523Y-31504378D01*
X60624379Y-31448522D01*
X60638730Y-31438933D01*
X60657672Y-31423387D01*
X60673217Y-31404445D01*
X60684768Y-31382835D01*
X60691881Y-31359386D01*
X60694283Y-31334999D01*
X60691881Y-31310613D01*
X60684768Y-31287164D01*
X60673217Y-31265554D01*
X60657671Y-31246612D01*
X60638730Y-31231067D01*
X60624379Y-31221478D01*
X60568523Y-31165622D01*
X60524638Y-31099944D01*
X60494410Y-31026966D01*
X60490240Y-31006000D01*
X60484309Y-30976184D01*
X60479000Y-30949496D01*
X60479000Y-30870504D01*
X60494410Y-30793034D01*
X60524638Y-30720056D01*
X60568523Y-30654378D01*
X60624379Y-30598522D01*
X60638730Y-30588933D01*
X60657672Y-30573387D01*
X60673217Y-30554445D01*
X60684768Y-30532835D01*
X60691881Y-30509386D01*
X60694283Y-30484999D01*
X60691881Y-30460613D01*
X60684768Y-30437164D01*
X60673217Y-30415554D01*
X60657671Y-30396612D01*
X60638730Y-30381067D01*
X60624379Y-30371478D01*
X60568523Y-30315622D01*
X60524638Y-30249944D01*
X60494410Y-30176966D01*
X60479000Y-30099496D01*
X60479000Y-30020504D01*
X60494410Y-29943034D01*
X60524638Y-29870056D01*
X60568523Y-29804378D01*
X60624379Y-29748522D01*
X60638730Y-29738933D01*
X60657672Y-29723387D01*
X60673217Y-29704445D01*
X60684768Y-29682835D01*
X60691881Y-29659386D01*
X60694283Y-29634999D01*
X60691881Y-29610613D01*
X60684768Y-29587164D01*
X60673217Y-29565554D01*
X60657671Y-29546612D01*
X60638730Y-29531067D01*
X60624379Y-29521478D01*
X60568523Y-29465622D01*
X60524638Y-29399944D01*
X60494410Y-29326966D01*
X60479000Y-29249496D01*
X60479000Y-29170504D01*
X60494410Y-29093034D01*
X60524638Y-29020056D01*
X60568523Y-28954378D01*
X60624378Y-28898523D01*
X60690056Y-28854638D01*
X60732805Y-28836931D01*
X60763033Y-28824410D01*
X60801769Y-28816705D01*
X60840504Y-28809000D01*
X60919496Y-28809000D01*
X60958231Y-28816705D01*
X60958231Y-28816705D01*
G37*
G36*
X62308231Y-28816705D02*
G01*
X62346967Y-28824410D01*
X62377195Y-28836931D01*
X62419944Y-28854638D01*
X62485622Y-28898523D01*
X62541477Y-28954378D01*
X62585362Y-29020056D01*
X62615590Y-29093034D01*
X62631000Y-29170504D01*
X62631000Y-29249496D01*
X62615590Y-29326966D01*
X62585362Y-29399944D01*
X62541477Y-29465622D01*
X62485621Y-29521478D01*
X62471270Y-29531067D01*
X62452328Y-29546613D01*
X62436783Y-29565555D01*
X62425232Y-29587165D01*
X62418119Y-29610614D01*
X62415717Y-29635001D01*
X62418119Y-29659387D01*
X62425232Y-29682836D01*
X62436783Y-29704446D01*
X62452329Y-29723388D01*
X62471270Y-29738933D01*
X62485621Y-29748522D01*
X62541477Y-29804378D01*
X62585362Y-29870056D01*
X62615590Y-29943034D01*
X62631000Y-30020504D01*
X62631000Y-30099496D01*
X62615590Y-30176966D01*
X62585362Y-30249944D01*
X62541477Y-30315622D01*
X62485621Y-30371478D01*
X62471270Y-30381067D01*
X62452328Y-30396613D01*
X62436783Y-30415555D01*
X62425232Y-30437165D01*
X62418119Y-30460614D01*
X62415717Y-30485001D01*
X62418119Y-30509387D01*
X62425232Y-30532836D01*
X62436783Y-30554446D01*
X62452329Y-30573388D01*
X62471270Y-30588933D01*
X62485621Y-30598522D01*
X62541477Y-30654378D01*
X62585362Y-30720056D01*
X62615590Y-30793034D01*
X62631000Y-30870504D01*
X62631000Y-30949496D01*
X62625691Y-30976184D01*
X62619761Y-31006000D01*
X62615590Y-31026966D01*
X62585362Y-31099944D01*
X62541477Y-31165622D01*
X62485621Y-31221478D01*
X62471270Y-31231067D01*
X62452328Y-31246613D01*
X62436783Y-31265555D01*
X62425232Y-31287165D01*
X62418119Y-31310614D01*
X62415717Y-31335001D01*
X62418119Y-31359387D01*
X62425232Y-31382836D01*
X62436783Y-31404446D01*
X62452329Y-31423388D01*
X62471270Y-31438933D01*
X62485621Y-31448522D01*
X62541477Y-31504378D01*
X62585362Y-31570056D01*
X62615590Y-31643034D01*
X62631000Y-31720504D01*
X62631000Y-31799496D01*
X62615590Y-31876966D01*
X62585362Y-31949944D01*
X62541477Y-32015622D01*
X62485621Y-32071478D01*
X62471270Y-32081067D01*
X62452328Y-32096613D01*
X62436783Y-32115555D01*
X62425232Y-32137165D01*
X62418119Y-32160614D01*
X62415717Y-32185001D01*
X62418119Y-32209387D01*
X62425232Y-32232836D01*
X62436783Y-32254446D01*
X62452329Y-32273388D01*
X62471270Y-32288933D01*
X62485621Y-32298522D01*
X62541477Y-32354378D01*
X62585362Y-32420056D01*
X62603069Y-32462805D01*
X62615590Y-32493033D01*
X62620461Y-32517520D01*
X62631000Y-32570504D01*
X62631000Y-32649496D01*
X62615590Y-32726966D01*
X62585362Y-32799944D01*
X62541477Y-32865622D01*
X62485621Y-32921478D01*
X62471270Y-32931067D01*
X62452328Y-32946613D01*
X62436783Y-32965555D01*
X62425232Y-32987165D01*
X62418119Y-33010614D01*
X62415717Y-33035001D01*
X62418119Y-33059387D01*
X62425232Y-33082836D01*
X62436783Y-33104446D01*
X62452329Y-33123388D01*
X62471270Y-33138933D01*
X62485621Y-33148522D01*
X62541477Y-33204378D01*
X62585362Y-33270056D01*
X62615590Y-33343034D01*
X62631000Y-33420504D01*
X62631000Y-33499496D01*
X62615590Y-33576966D01*
X62585362Y-33649944D01*
X62541477Y-33715622D01*
X62485621Y-33771478D01*
X62471270Y-33781067D01*
X62452328Y-33796613D01*
X62436783Y-33815555D01*
X62425232Y-33837165D01*
X62418119Y-33860614D01*
X62415717Y-33885001D01*
X62418119Y-33909387D01*
X62425232Y-33932836D01*
X62436783Y-33954446D01*
X62452329Y-33973388D01*
X62471270Y-33988933D01*
X62485621Y-33998522D01*
X62541477Y-34054378D01*
X62585362Y-34120056D01*
X62615590Y-34193034D01*
X62631000Y-34270504D01*
X62631000Y-34349496D01*
X62615590Y-34426966D01*
X62585362Y-34499944D01*
X62541477Y-34565622D01*
X62485621Y-34621478D01*
X62471270Y-34631067D01*
X62452328Y-34646613D01*
X62436783Y-34665555D01*
X62425232Y-34687165D01*
X62418119Y-34710614D01*
X62415717Y-34735001D01*
X62418119Y-34759387D01*
X62425232Y-34782836D01*
X62436783Y-34804446D01*
X62452329Y-34823388D01*
X62471270Y-34838933D01*
X62485621Y-34848522D01*
X62541477Y-34904378D01*
X62585362Y-34970056D01*
X62615590Y-35043034D01*
X62631000Y-35120504D01*
X62631000Y-35199496D01*
X62615590Y-35276966D01*
X62585362Y-35349944D01*
X62541477Y-35415622D01*
X62485622Y-35471477D01*
X62419944Y-35515362D01*
X62389015Y-35528173D01*
X62346967Y-35545590D01*
X62308231Y-35553295D01*
X62269496Y-35561000D01*
X62190504Y-35561000D01*
X62151769Y-35553295D01*
X62113033Y-35545590D01*
X62070985Y-35528173D01*
X62040056Y-35515362D01*
X61974378Y-35471477D01*
X61918523Y-35415622D01*
X61874638Y-35349944D01*
X61844410Y-35276966D01*
X61829000Y-35199496D01*
X61829000Y-35120504D01*
X61844410Y-35043034D01*
X61874638Y-34970056D01*
X61918523Y-34904378D01*
X61974379Y-34848522D01*
X61988730Y-34838933D01*
X62007672Y-34823387D01*
X62023217Y-34804445D01*
X62034768Y-34782835D01*
X62041881Y-34759386D01*
X62044283Y-34734999D01*
X62041881Y-34710613D01*
X62034768Y-34687164D01*
X62023217Y-34665554D01*
X62007671Y-34646612D01*
X61988730Y-34631067D01*
X61974379Y-34621478D01*
X61918523Y-34565622D01*
X61874638Y-34499944D01*
X61844410Y-34426966D01*
X61829000Y-34349496D01*
X61829000Y-34270504D01*
X61844410Y-34193034D01*
X61874638Y-34120056D01*
X61918523Y-34054378D01*
X61974379Y-33998522D01*
X61988730Y-33988933D01*
X62007672Y-33973387D01*
X62023217Y-33954445D01*
X62034768Y-33932835D01*
X62041881Y-33909386D01*
X62044283Y-33884999D01*
X62041881Y-33860613D01*
X62034768Y-33837164D01*
X62023217Y-33815554D01*
X62007671Y-33796612D01*
X61988730Y-33781067D01*
X61974379Y-33771478D01*
X61918523Y-33715622D01*
X61874638Y-33649944D01*
X61844410Y-33576966D01*
X61829000Y-33499496D01*
X61829000Y-33420504D01*
X61844410Y-33343034D01*
X61874638Y-33270056D01*
X61918523Y-33204378D01*
X61974379Y-33148522D01*
X61988730Y-33138933D01*
X62007672Y-33123387D01*
X62023217Y-33104445D01*
X62034768Y-33082835D01*
X62041881Y-33059386D01*
X62044283Y-33034999D01*
X62041881Y-33010613D01*
X62034768Y-32987164D01*
X62023217Y-32965554D01*
X62007671Y-32946612D01*
X61988730Y-32931067D01*
X61974379Y-32921478D01*
X61918523Y-32865622D01*
X61874638Y-32799944D01*
X61844410Y-32726966D01*
X61829000Y-32649496D01*
X61829000Y-32570504D01*
X61839539Y-32517520D01*
X61844410Y-32493033D01*
X61856931Y-32462805D01*
X61874638Y-32420056D01*
X61918523Y-32354378D01*
X61974379Y-32298522D01*
X61988730Y-32288933D01*
X62007672Y-32273387D01*
X62023217Y-32254445D01*
X62034768Y-32232835D01*
X62041881Y-32209386D01*
X62044283Y-32184999D01*
X62041881Y-32160613D01*
X62034768Y-32137164D01*
X62023217Y-32115554D01*
X62007671Y-32096612D01*
X61988730Y-32081067D01*
X61974379Y-32071478D01*
X61918523Y-32015622D01*
X61874638Y-31949944D01*
X61844410Y-31876966D01*
X61829000Y-31799496D01*
X61829000Y-31720504D01*
X61844410Y-31643034D01*
X61874638Y-31570056D01*
X61918523Y-31504378D01*
X61974379Y-31448522D01*
X61988730Y-31438933D01*
X62007672Y-31423387D01*
X62023217Y-31404445D01*
X62034768Y-31382835D01*
X62041881Y-31359386D01*
X62044283Y-31334999D01*
X62041881Y-31310613D01*
X62034768Y-31287164D01*
X62023217Y-31265554D01*
X62007671Y-31246612D01*
X61988730Y-31231067D01*
X61974379Y-31221478D01*
X61918523Y-31165622D01*
X61874638Y-31099944D01*
X61844410Y-31026966D01*
X61840240Y-31006000D01*
X61834309Y-30976184D01*
X61829000Y-30949496D01*
X61829000Y-30870504D01*
X61844410Y-30793034D01*
X61874638Y-30720056D01*
X61918523Y-30654378D01*
X61974379Y-30598522D01*
X61988730Y-30588933D01*
X62007672Y-30573387D01*
X62023217Y-30554445D01*
X62034768Y-30532835D01*
X62041881Y-30509386D01*
X62044283Y-30484999D01*
X62041881Y-30460613D01*
X62034768Y-30437164D01*
X62023217Y-30415554D01*
X62007671Y-30396612D01*
X61988730Y-30381067D01*
X61974379Y-30371478D01*
X61918523Y-30315622D01*
X61874638Y-30249944D01*
X61844410Y-30176966D01*
X61829000Y-30099496D01*
X61829000Y-30020504D01*
X61844410Y-29943034D01*
X61874638Y-29870056D01*
X61918523Y-29804378D01*
X61974379Y-29748522D01*
X61988730Y-29738933D01*
X62007672Y-29723387D01*
X62023217Y-29704445D01*
X62034768Y-29682835D01*
X62041881Y-29659386D01*
X62044283Y-29634999D01*
X62041881Y-29610613D01*
X62034768Y-29587164D01*
X62023217Y-29565554D01*
X62007671Y-29546612D01*
X61988730Y-29531067D01*
X61974379Y-29521478D01*
X61918523Y-29465622D01*
X61874638Y-29399944D01*
X61844410Y-29326966D01*
X61829000Y-29249496D01*
X61829000Y-29170504D01*
X61844410Y-29093034D01*
X61874638Y-29020056D01*
X61918523Y-28954378D01*
X61974378Y-28898523D01*
X62040056Y-28854638D01*
X62082805Y-28836931D01*
X62113033Y-28824410D01*
X62151769Y-28816705D01*
X62190504Y-28809000D01*
X62269496Y-28809000D01*
X62308231Y-28816705D01*
X62308231Y-28816705D01*
G37*
G36*
X57974591Y-33768085D02*
G01*
X58008569Y-33778393D01*
X58039890Y-33795134D01*
X58067339Y-33817661D01*
X58089866Y-33845110D01*
X58106607Y-33876431D01*
X58116915Y-33910409D01*
X58121000Y-33951890D01*
X58121000Y-34628110D01*
X58116915Y-34669591D01*
X58106607Y-34703569D01*
X58089866Y-34734890D01*
X58067339Y-34762339D01*
X58039890Y-34784866D01*
X58008569Y-34801607D01*
X57974591Y-34811915D01*
X57933110Y-34816000D01*
X57331890Y-34816000D01*
X57290409Y-34811915D01*
X57256431Y-34801607D01*
X57225110Y-34784866D01*
X57197661Y-34762339D01*
X57175134Y-34734890D01*
X57158393Y-34703569D01*
X57148085Y-34669591D01*
X57144000Y-34628110D01*
X57144000Y-33951890D01*
X57148085Y-33910409D01*
X57158393Y-33876431D01*
X57175134Y-33845110D01*
X57197661Y-33817661D01*
X57225110Y-33795134D01*
X57256431Y-33778393D01*
X57290409Y-33768085D01*
X57331890Y-33764000D01*
X57933110Y-33764000D01*
X57974591Y-33768085D01*
X57974591Y-33768085D01*
G37*
G36*
X59549591Y-33768085D02*
G01*
X59583569Y-33778393D01*
X59614890Y-33795134D01*
X59642339Y-33817661D01*
X59664866Y-33845110D01*
X59681607Y-33876431D01*
X59691915Y-33910409D01*
X59696000Y-33951890D01*
X59696000Y-34628110D01*
X59691915Y-34669591D01*
X59681607Y-34703569D01*
X59664866Y-34734890D01*
X59642339Y-34762339D01*
X59614890Y-34784866D01*
X59583569Y-34801607D01*
X59549591Y-34811915D01*
X59508110Y-34816000D01*
X58906890Y-34816000D01*
X58865409Y-34811915D01*
X58831431Y-34801607D01*
X58800110Y-34784866D01*
X58772661Y-34762339D01*
X58750134Y-34734890D01*
X58733393Y-34703569D01*
X58723085Y-34669591D01*
X58719000Y-34628110D01*
X58719000Y-33951890D01*
X58723085Y-33910409D01*
X58733393Y-33876431D01*
X58750134Y-33845110D01*
X58772661Y-33817661D01*
X58800110Y-33795134D01*
X58831431Y-33778393D01*
X58865409Y-33768085D01*
X58906890Y-33764000D01*
X59508110Y-33764000D01*
X59549591Y-33768085D01*
X59549591Y-33768085D01*
G37*
G36*
X90418228Y-32241703D02*
G01*
X90573100Y-32305853D01*
X90712481Y-32398985D01*
X90831015Y-32517519D01*
X90924147Y-32656900D01*
X90988297Y-32811772D01*
X91021000Y-32976184D01*
X91021000Y-33143816D01*
X90988297Y-33308228D01*
X90924147Y-33463100D01*
X90831015Y-33602481D01*
X90712481Y-33721015D01*
X90573100Y-33814147D01*
X90418228Y-33878297D01*
X90253816Y-33911000D01*
X90086184Y-33911000D01*
X89921772Y-33878297D01*
X89766900Y-33814147D01*
X89627519Y-33721015D01*
X89508985Y-33602481D01*
X89415853Y-33463100D01*
X89351703Y-33308228D01*
X89319000Y-33143816D01*
X89319000Y-32976184D01*
X89351703Y-32811772D01*
X89415853Y-32656900D01*
X89508985Y-32517519D01*
X89627519Y-32398985D01*
X89766900Y-32305853D01*
X89921772Y-32241703D01*
X90086184Y-32209000D01*
X90253816Y-32209000D01*
X90418228Y-32241703D01*
X90418228Y-32241703D01*
G37*
G36*
X93481000Y-33151000D02*
G01*
X92479000Y-33151000D01*
X92479000Y-32249000D01*
X93481000Y-32249000D01*
X93481000Y-33151000D01*
X93481000Y-33151000D01*
G37*
G36*
X95481000Y-32201000D02*
G01*
X94479000Y-32201000D01*
X94479000Y-31299000D01*
X95481000Y-31299000D01*
X95481000Y-32201000D01*
X95481000Y-32201000D01*
G37*
G36*
X90418228Y-30241703D02*
G01*
X90573100Y-30305853D01*
X90712481Y-30398985D01*
X90831015Y-30517519D01*
X90924147Y-30656900D01*
X90988297Y-30811772D01*
X91021000Y-30976184D01*
X91021000Y-31143816D01*
X90988297Y-31308228D01*
X90924147Y-31463100D01*
X90831015Y-31602481D01*
X90712481Y-31721015D01*
X90573100Y-31814147D01*
X90418228Y-31878297D01*
X90253816Y-31911000D01*
X90086184Y-31911000D01*
X89921772Y-31878297D01*
X89766900Y-31814147D01*
X89627519Y-31721015D01*
X89508985Y-31602481D01*
X89415853Y-31463100D01*
X89351703Y-31308228D01*
X89319000Y-31143816D01*
X89319000Y-30976184D01*
X89351703Y-30811772D01*
X89415853Y-30656900D01*
X89508985Y-30517519D01*
X89627519Y-30398985D01*
X89766900Y-30305853D01*
X89921772Y-30241703D01*
X90086184Y-30209000D01*
X90253816Y-30209000D01*
X90418228Y-30241703D01*
X90418228Y-30241703D01*
G37*
G36*
X93481000Y-31251000D02*
G01*
X92479000Y-31251000D01*
X92479000Y-30349000D01*
X93481000Y-30349000D01*
X93481000Y-31251000D01*
X93481000Y-31251000D01*
G37*
G36*
X65899591Y-29958085D02*
G01*
X65933569Y-29968393D01*
X65964890Y-29985134D01*
X65992339Y-30007661D01*
X66014866Y-30035110D01*
X66031607Y-30066431D01*
X66041915Y-30100409D01*
X66046000Y-30141890D01*
X66046000Y-30818110D01*
X66041915Y-30859591D01*
X66031607Y-30893569D01*
X66014866Y-30924890D01*
X65992339Y-30952339D01*
X65964890Y-30974866D01*
X65933569Y-30991607D01*
X65899591Y-31001915D01*
X65858110Y-31006000D01*
X65256890Y-31006000D01*
X65215409Y-31001915D01*
X65181431Y-30991607D01*
X65150110Y-30974866D01*
X65122661Y-30952339D01*
X65100134Y-30924890D01*
X65083393Y-30893569D01*
X65073085Y-30859591D01*
X65069000Y-30818110D01*
X65069000Y-30141890D01*
X65073085Y-30100409D01*
X65083393Y-30066431D01*
X65100134Y-30035110D01*
X65122661Y-30007661D01*
X65150110Y-29985134D01*
X65181431Y-29968393D01*
X65215409Y-29958085D01*
X65256890Y-29954000D01*
X65858110Y-29954000D01*
X65899591Y-29958085D01*
X65899591Y-29958085D01*
G37*
G36*
X64324591Y-29958085D02*
G01*
X64358569Y-29968393D01*
X64389890Y-29985134D01*
X64417339Y-30007661D01*
X64439866Y-30035110D01*
X64456607Y-30066431D01*
X64466915Y-30100409D01*
X64471000Y-30141890D01*
X64471000Y-30818110D01*
X64466915Y-30859591D01*
X64456607Y-30893569D01*
X64439866Y-30924890D01*
X64417339Y-30952339D01*
X64389890Y-30974866D01*
X64358569Y-30991607D01*
X64324591Y-31001915D01*
X64283110Y-31006000D01*
X63681890Y-31006000D01*
X63640409Y-31001915D01*
X63606431Y-30991607D01*
X63575110Y-30974866D01*
X63547661Y-30952339D01*
X63525134Y-30924890D01*
X63508393Y-30893569D01*
X63498085Y-30859591D01*
X63494000Y-30818110D01*
X63494000Y-30141890D01*
X63498085Y-30100409D01*
X63508393Y-30066431D01*
X63525134Y-30035110D01*
X63547661Y-30007661D01*
X63575110Y-29985134D01*
X63606431Y-29968393D01*
X63640409Y-29958085D01*
X63681890Y-29954000D01*
X64283110Y-29954000D01*
X64324591Y-29958085D01*
X64324591Y-29958085D01*
G37*
G36*
X90418228Y-27741703D02*
G01*
X90573100Y-27805853D01*
X90712481Y-27898985D01*
X90831015Y-28017519D01*
X90924147Y-28156900D01*
X90988297Y-28311772D01*
X91021000Y-28476184D01*
X91021000Y-28643816D01*
X90988297Y-28808228D01*
X90924147Y-28963100D01*
X90831015Y-29102481D01*
X90712481Y-29221015D01*
X90573100Y-29314147D01*
X90418228Y-29378297D01*
X90253816Y-29411000D01*
X90086184Y-29411000D01*
X89921772Y-29378297D01*
X89766900Y-29314147D01*
X89627519Y-29221015D01*
X89508985Y-29102481D01*
X89415853Y-28963100D01*
X89351703Y-28808228D01*
X89319000Y-28643816D01*
X89319000Y-28476184D01*
X89351703Y-28311772D01*
X89415853Y-28156900D01*
X89508985Y-28017519D01*
X89627519Y-27898985D01*
X89766900Y-27805853D01*
X89921772Y-27741703D01*
X90086184Y-27709000D01*
X90253816Y-27709000D01*
X90418228Y-27741703D01*
X90418228Y-27741703D01*
G37*
G36*
X62098213Y-27366249D02*
G01*
X62192652Y-27394897D01*
X62279687Y-27441418D01*
X62355975Y-27504025D01*
X62418582Y-27580313D01*
X62465103Y-27667348D01*
X62493751Y-27761787D01*
X62503424Y-27860000D01*
X62493751Y-27958213D01*
X62465103Y-28052652D01*
X62418582Y-28139687D01*
X62355975Y-28215975D01*
X62279687Y-28278582D01*
X62192652Y-28325103D01*
X62098213Y-28353751D01*
X62024612Y-28361000D01*
X60475388Y-28361000D01*
X60401787Y-28353751D01*
X60307348Y-28325103D01*
X60220313Y-28278582D01*
X60144025Y-28215975D01*
X60081418Y-28139687D01*
X60034897Y-28052652D01*
X60006249Y-27958213D01*
X59996576Y-27860000D01*
X60006249Y-27761787D01*
X60034897Y-27667348D01*
X60081418Y-27580313D01*
X60144025Y-27504025D01*
X60220313Y-27441418D01*
X60307348Y-27394897D01*
X60401787Y-27366249D01*
X60475388Y-27359000D01*
X62024612Y-27359000D01*
X62098213Y-27366249D01*
X62098213Y-27366249D01*
G37*
G36*
X58368213Y-27366249D02*
G01*
X58462652Y-27394897D01*
X58549687Y-27441418D01*
X58625975Y-27504025D01*
X58688582Y-27580313D01*
X58735103Y-27667348D01*
X58763751Y-27761787D01*
X58773424Y-27860000D01*
X58763751Y-27958213D01*
X58735103Y-28052652D01*
X58688582Y-28139687D01*
X58625975Y-28215975D01*
X58549687Y-28278582D01*
X58462652Y-28325103D01*
X58368213Y-28353751D01*
X58294612Y-28361000D01*
X57445388Y-28361000D01*
X57371787Y-28353751D01*
X57277348Y-28325103D01*
X57190313Y-28278582D01*
X57114025Y-28215975D01*
X57051418Y-28139687D01*
X57004897Y-28052652D01*
X56976249Y-27958213D01*
X56966576Y-27860000D01*
X56976249Y-27761787D01*
X57004897Y-27667348D01*
X57051418Y-27580313D01*
X57114025Y-27504025D01*
X57190313Y-27441418D01*
X57277348Y-27394897D01*
X57371787Y-27366249D01*
X57445388Y-27359000D01*
X58294612Y-27359000D01*
X58368213Y-27366249D01*
X58368213Y-27366249D01*
G37*
G36*
X79115256Y-23791298D02*
G01*
X79221579Y-23812447D01*
X79522042Y-23936903D01*
X79792451Y-24117585D01*
X80022415Y-24347549D01*
X80203097Y-24617958D01*
X80327553Y-24918421D01*
X80391000Y-25237391D01*
X80391000Y-25562609D01*
X80327553Y-25881579D01*
X80203097Y-26182042D01*
X80022415Y-26452451D01*
X79792451Y-26682415D01*
X79522042Y-26863097D01*
X79221579Y-26987553D01*
X79115256Y-27008702D01*
X78902611Y-27051000D01*
X78577389Y-27051000D01*
X78364744Y-27008702D01*
X78258421Y-26987553D01*
X77957958Y-26863097D01*
X77687549Y-26682415D01*
X77457585Y-26452451D01*
X77276903Y-26182042D01*
X77152447Y-25881579D01*
X77089000Y-25562609D01*
X77089000Y-25237391D01*
X77152447Y-24918421D01*
X77276903Y-24617958D01*
X77457585Y-24347549D01*
X77687549Y-24117585D01*
X77957958Y-23936903D01*
X78258421Y-23812447D01*
X78364744Y-23791298D01*
X78577389Y-23749000D01*
X78902611Y-23749000D01*
X79115256Y-23791298D01*
X79115256Y-23791298D01*
G37*
G36*
X93182585Y-23968802D02*
G01*
X93332410Y-23998604D01*
X93614674Y-24115521D01*
X93868705Y-24285259D01*
X94084741Y-24501295D01*
X94254479Y-24755326D01*
X94371396Y-25037590D01*
X94431000Y-25337240D01*
X94431000Y-25642760D01*
X94371396Y-25942410D01*
X94254479Y-26224674D01*
X94084741Y-26478705D01*
X93868705Y-26694741D01*
X93614674Y-26864479D01*
X93332410Y-26981396D01*
X93182585Y-27011198D01*
X93032761Y-27041000D01*
X92727239Y-27041000D01*
X92577415Y-27011198D01*
X92427590Y-26981396D01*
X92145326Y-26864479D01*
X91891295Y-26694741D01*
X91675259Y-26478705D01*
X91505521Y-26224674D01*
X91388604Y-25942410D01*
X91329000Y-25642760D01*
X91329000Y-25337240D01*
X91388604Y-25037590D01*
X91505521Y-24755326D01*
X91675259Y-24501295D01*
X91891295Y-24285259D01*
X92145326Y-24115521D01*
X92427590Y-23998604D01*
X92577415Y-23968802D01*
X92727239Y-23939000D01*
X93032761Y-23939000D01*
X93182585Y-23968802D01*
X93182585Y-23968802D01*
G37*
M02*
